<?xml version="1.0" standalone="no"?>
<!DOCTYPE svg PUBLIC "-//W3C//DTD SVG 20010904//EN"
 "http://www.w3.org/TR/2001/REC-SVG-20010904/DTD/svg10.dtd">
<svg version="1.0" xmlns="http://www.w3.org/2000/svg"
 width="424.000000pt" height="424.000000pt" viewBox="0 0 424.000000 424.000000"
 preserveAspectRatio="xMidYMid meet">
<metadata>
Created by potrace 1.11, written by Peter Selinger 2001-2013
</metadata>
<g transform="translate(0.000000,424.000000) scale(0.100000,-0.100000)"
fill="#000000" stroke="none">
<path d="M40 2395 l0 -1825 1295 0 1295 0 0 1030 0 1030 -495 0 -495 0 0 -235
0 -235 260 0 260 0 0 -560 0 -560 -825 0 -825 0 0 1355 0 1355 1620 0 1620 0
0 -1855 0 -1855 235 0 235 0 0 2090 0 2090 -2090 0 -2090 0 0 -1825z"/>
<path d="M570 2395 l0 -1295 760 0 760 0 0 235 0 235 -525 0 -525 0 0 825 0
825 1090 0 1090 0 0 -1590 0 -1590 235 0 235 0 0 1825 0 1825 -1560 0 -1560 0
0 -1295z"/>
<path d="M1100 2395 l0 -765 495 0 495 0 0 235 0 235 -260 0 -260 0 0 295 0
295 560 0 560 0 0 -1090 0 -1090 -1325 0 -1325 0 0 -235 0 -235 1560 0 1560 0
0 1560 0 1560 -1030 0 -1030 0 0 -765z"/>
</g>
</svg>
