<?xml version="1.0" standalone="no"?>
<!DOCTYPE svg PUBLIC "-//W3C//DTD SVG 1.1//EN" "http://www.w3.org/Graphics/SVG/1.1/DTD/svg11.dtd" >
<svg xmlns="http://www.w3.org/2000/svg" xmlns:xlink="http://www.w3.org/1999/xlink" version="1.1">
<metadata>
Created by FontForge 20170731 at Fri Jul  2 14:08:39 2021
 By Aleksey,,,
</metadata>
<defs>
<font id="FantasqueSansMono-BoldItalic" horiz-adv-x="1060" >
  <font-face 
    font-family="Fantasque Sans Mono"
    font-weight="700"
    font-style="italic"
    font-stretch="normal"
    units-per-em="2048"
    panose-1="2 11 8 9 2 2 4 3 2 4"
    ascent="1650"
    descent="-398"
    x-height="1013"
    cap-height="1319"
    bbox="-3132 -581 1687 2148"
    underline-thickness="96"
    underline-position="-288"
    slope="-11"
    unicode-range="U+0021-FF63"
  />
<missing-glyph 
 />
    <glyph glyph-name=".notdef" 
 />
    <glyph glyph-name=".notdef" 
 />
    <glyph glyph-name=".null" horiz-adv-x="0" 
 />
    <glyph glyph-name="nonmarkingreturn" 
 />
    <glyph glyph-name="a" unicode="a" 
d="M343 513q-25 -125 -25 -202q0 -43 7.5 -69.5t23.5 -37t28.5 -13t35.5 -2.5q38 0 81.5 29t78.5 72t59 78.5t38 62.5q9 50 28.5 149.5t29.5 148.5q-24 36 -65.5 63t-85.5 27q-23 0 -45 -6t-50.5 -25.5t-52.5 -51.5t-47.5 -89.5t-38.5 -133.5zM891 316q-5 -28 -5 -49
q0 -100 70 -166q-27 -22 -79.5 -66t-78.5 -66q-98 88 -98 196q0 13 1 20q-61 -102 -151.5 -149t-226.5 -47q-55 0 -97.5 14t-79.5 47.5t-57 97t-20 154.5q0 99 27 241q22 113 65.5 201.5t94 140t110.5 85.5t111 46t99 12q63 0 118.5 -23t83.5 -64q3 14 9.5 42t10.5 42
l230 -12q-23 -116 -68.5 -348.5t-68.5 -348.5z" />
    <glyph glyph-name="b" unicode="b" 
d="M706 478q24 120 24 200q0 135 -67 135q-167 0 -270 -243q-7 -37 -21.5 -110.5t-21.5 -110.5q24 -78 64 -127t85 -49q148 0 207 305zM957 459q-91 -466 -459 -466q-87 0 -143 28t-79 72q-4 -19 -20 -45.5t-30 -43.5l-15 -17q-32 3 -96 9.5t-96 10.5q36 102 65 236
q1 4 2.5 12t2.5 12q24 110 53.5 261.5t65.5 345t53 283.5q21 109 33 246l249 9q-7 -109 -52 -334q-5 -26 -12.5 -52t-18.5 -55t-18.5 -47.5t-22.5 -52t-20 -45.5q2 3 17 21t22 26t24.5 26.5t31.5 28.5t35 25.5t43 24t49 18t58 13.5t65 4q111 0 174 -85t63 -249
q0 -95 -24 -220z" />
    <glyph glyph-name="c" unicode="c" 
d="M355 528q-14 -69 -14 -126q0 -199 165 -199h12q69 0 122 38t109 109q34 -22 100.5 -66.5t99.5 -67.5q-73 -113 -185.5 -168t-275.5 -55q-99 0 -176 16t-132 64q-103 95 -103 269q0 77 21 185q95 491 589 491q240 0 382 -142q-29 -33 -86.5 -100t-85.5 -100
q-19 41 -96.5 86t-172.5 45q-104 0 -176.5 -81.5t-96.5 -197.5z" />
    <glyph glyph-name="d" unicode="d" 
d="M318 478q-22 -113 -22 -191q0 -51 21 -82.5t46 -31.5q75 0 158.5 75t145.5 222l42 213q-9 22 -15 35.5t-19 34.5t-26.5 33t-34.5 21t-46 9q-18 0 -42 -9.5t-54.5 -34t-59 -61t-54 -97.5t-40.5 -136zM59 459q108 557 514 557q52 0 99 -18t64.5 -31t44.5 -37q-1 14 -1 40
q0 76 20 182q30 153 64 260l246 -9q-43 -145 -62 -246q-10 -51 -52 -274t-70 -364t-53 -252q-1 -4 -2.5 -12t-2.5 -12q-10 -43 -10 -107q0 -83 21 -130q-36 -3 -107.5 -8t-107.5 -8q-10 11 -21 64.5t-11 93.5q0 12 2 26q-45 -90 -126.5 -135.5t-179.5 -45.5
q-119 0 -201.5 85t-82.5 237q0 66 15 144z" />
    <glyph glyph-name="e" unicode="e" 
d="M363 542q99 12 200.5 38t123.5 44q51 42 51 87q0 44 -34.5 75.5t-108.5 31.5q-76 0 -142 -75.5t-90 -200.5zM632 1021q81 0 145 -19t103 -49t65 -71t36 -81.5t10 -83.5q0 -59 -16 -102q-46 -122 -188 -184.5t-444 -98.5q0 -52 42.5 -94t109.5 -42q183 0 318 99l102 -180
q-62 -33 -79 -41.5t-62.5 -30t-67.5 -26t-65.5 -14t-87.5 -11.5t-104 -2q-175 0 -268 100.5t-93 275.5q0 70 15 150q21 108 66.5 199.5t112 160t156.5 107t194 38.5z" />
    <glyph glyph-name="f" unicode="f" 
d="M1041 1154q-80 63 -238 63q-38 0 -67 -8.5t-46 -21t-29 -32t-17.5 -35t-9.5 -37.5l-13 -71h172q107 0 172 -21q-10 -33 -30 -98.5t-30 -98.5q-37 13 -95 13h-230l-156 -807h-257q26 135 78.5 404t78.5 403h-126q4 34 11 102.5t11 102.5h144q8 41 10 52q9 44 26.5 87.5
t53 93t83.5 86.5t123 62t165 25q73 0 167.5 -17t158.5 -48q-18 -33 -55 -99.5t-55 -99.5z" />
    <glyph glyph-name="g" unicode="g" 
d="M279 346q0 -78 21 -106.5t59 -28.5q46 0 135 77.5t164 170.5t90 142q3 19 9.5 56.5t9.5 56.5q-89 113 -204 113q-118 0 -201 -130t-83 -351zM1075 1013l-129 -657q-18 -89 -37 -163.5t-48 -154.5t-63 -142.5t-81 -120t-102 -95t-126.5 -60t-154.5 -22.5q-185 0 -429 145
q17 34 50 101.5t49 100.5q187 -130 347 -130q33 0 63.5 10.5t54.5 24.5t48 41t40 47.5t34.5 58t28 57t24 60.5t18.5 53.5t15 49.5q1 2 1 3t1 3t1.5 3.5t1 3.5t0.5 3q-24 -35 -42 -58.5t-56 -61.5t-74.5 -61.5t-92.5 -41.5t-116 -18q-115 0 -185 98.5t-70 252.5
q0 193 68.5 350.5t192 249t277.5 91.5q58 0 111.5 -17.5t70.5 -28.5t59 -40q3 16 20 77q39 -2 115 -6t115 -6z" />
    <glyph glyph-name="p" unicode="p" 
d="M709 531q23 120 23 183q0 97 -55 97q-46 0 -96.5 -33.5t-93 -85.5t-75.5 -105.5t-55 -102.5q-5 -29 -15.5 -86.5t-16.5 -86.5q55 -118 145 -118q91 0 146.5 73t92.5 265zM163 739q1 4 2.5 13t2.5 13q16 84 23 231q39 4 116.5 13t116.5 13q0 -1 0.5 -5t0.5 -6
q0 -21 -18 -178q41 70 134.5 125t210.5 55q238 0 238 -273q0 -79 -21 -189q-21 -108 -47 -188t-68.5 -153t-99.5 -119t-140 -72.5t-189 -26.5q-112 0 -162 68q-1 -14 -4 -55t-6 -66q-3 -15 -9 -45.5t-9 -45.5q-23 -119 -34 -246q-41 -1 -124 -3.5t-125 -3.5q8 110 37 259z
" />
    <glyph glyph-name="h" unicode="h" 
d="M977 566q-10 -52 -30 -155.5t-30 -154.5q-8 -42 -8 -66q0 -49 41 -93l-213 -129q-86 61 -86 163q0 24 4 45q10 53 30.5 158t30.5 157q25 132 25 205q0 35 -5 57t-15 30.5t-17.5 10.5t-20.5 2h-3q-50 0 -121.5 -62.5t-132.5 -151t-87 -164.5q-14 -69 -41 -209t-40 -209
h-245q213 1093 225 1156q19 100 32 246q41 1 124.5 4t125.5 5q-7 -108 -59 -369q-8 -40 -27.5 -88.5t-48.5 -107.5t-38 -80q9 6 34.5 36t59 63.5t76.5 68t102 57t121 22.5q108 0 180 -75t72 -227q0 -71 -15 -145z" />
    <glyph glyph-name="i" unicode="i" 
d="M527 1406h291l-43 -225h-291zM481 1039q42 -5 125.5 -13t124.5 -13l-133 -687q-5 -28 -5 -51q0 -93 86 -93q120 0 231 91q10 -32 30 -95t30 -95q-71 -50 -175 -75.5t-205 -25.5q-269 0 -269 203q0 31 8 73q15 80 46 239.5t47 239.5q-34 -34 -134 -82q-19 30 -56 92
t-55 92q237 77 304 200z" />
    <glyph glyph-name="j" unicode="j" 
d="M744 1406h291l-43 -225h-291zM752 -78q-12 -62 -40 -114t-77 -98t-128.5 -72.5t-182.5 -26.5q-53 0 -97 8t-94.5 31t-93.5 72t-74 122q32 25 96 74t96 74q41 -101 85.5 -140.5t97.5 -39.5h18q32 0 57 10.5t39 23.5t25.5 35t15 33.5t7.5 29.5l1.5 4.5t0.5 3.5
q26 127 77 380.5t76 380.5q3 16 3 33q0 41 -22 64.5t-63 23.5q-83 0 -210 -97l-120 135q110 86 192.5 113.5t203.5 27.5q64 0 114.5 -17t79.5 -42.5t47.5 -59t25 -62.5t6.5 -57q0 -20 -3 -32q-26 -137 -79 -410.5t-80 -410.5z" />
    <glyph glyph-name="k" unicode="k" 
d="M456 429q4 6 30.5 49.5t52 84t29.5 45.5q42 -14 71 -14q92 0 117 132q1 5 1 15q0 29 -17.5 50.5t-52.5 21.5q-32 0 -93.5 -32t-107.5 -64l-45 -32q-22 -114 -66.5 -342.5t-66.5 -342.5h-249q40 205 119.5 614.5t119.5 613.5q10 53 10 101q0 30 -3 54q42 8 126 22t126 22
q9 -45 9 -73q0 -26 -6 -61q-8 -37 -22 -111.5t-22 -111.5q-17 -87 -64 -174q6 5 16 13t42.5 29t64.5 37t76.5 29t84.5 13q132 0 203 -52t71 -157q0 -31 -8 -74q-51 -273 -250 -300q70 -110 122 -168.5t136 -129.5q-36 -28 -109.5 -83.5t-110.5 -82.5q-56 53 -148.5 181
t-185.5 278z" />
    <glyph glyph-name="l" unicode="l" 
d="M648 1422l-189 -987q-8 -48 -8 -81q0 -80 42 -118.5t131 -38.5q143 0 275 87q12 -34 35.5 -101t35.5 -100q-71 -50 -171.5 -75.5t-200.5 -25.5q-191 0 -301.5 85.5t-110.5 220.5q0 43 9 91q33 177 98.5 531.5t98.5 531.5q42 -4 127.5 -10t128.5 -10z" />
    <glyph glyph-name="m" unicode="m" 
d="M871 -32q-30 6 -53.5 15t-54 29t-48 57.5t-17.5 89.5q0 34 7 69l1 1v1q17 88 51.5 264.5t51.5 264.5q2 10 2 26t-6.5 22t-23.5 6q-15 0 -59 -78t-70 -135q-20 -100 -59.5 -300t-59.5 -300q-37 0 -112 0.5t-113 0.5q25 127 74 380.5t74 379.5q4 17 4 32q0 20 -22 20
q-20 0 -70.5 -65t-80.5 -139q-20 -102 -59 -304.5t-59 -304.5h-224q26 134 77 401.5t77 400.5q11 58 11 97q0 25 -8 79l231 66q4 -15 4 -40q0 -16 -2 -48.5t-2 -44.5q103 109 202 109q47 0 77.5 -25.5t40.5 -58t10 -71.5q0 -3 -0.5 -9.5t-0.5 -9.5q123 174 229 174h8
q68 0 102 -52t34 -135q0 -41 -10 -94q-16 -85 -49.5 -256.5t-50.5 -256.5q-1 -5 -1 -15q0 -51 72 -81q-21 -27 -62.5 -81t-62.5 -81z" />
    <glyph glyph-name="o" unicode="o" 
d="M598 247q76 70 115 283q1 3 2 8t1 8q13 73 13 125q0 159 -123 159q-107 0 -169 -90t-94 -258q-11 -58 -11 -103q0 -85 35 -133.5t104 -48.5q40 1 67 11.5t60 38.5zM431 -6q-184 0 -271.5 85.5t-87.5 241.5q0 67 15 143q110 568 544 568q144 0 224 -49.5t114 -151.5
q18 -54 18 -136q0 -79 -15 -152q-18 -90 -45.5 -167t-72.5 -149t-102.5 -122.5t-139 -80.5t-179.5 -30h-2z" />
    <glyph glyph-name="n" unicode="n" 
d="M423 821q38 43 59.5 66t59 54.5t71.5 46.5t84 26.5t109 11.5q99 0 158.5 -42.5t59.5 -130.5q0 -27 -6 -57q-17 -87 -50.5 -259t-50.5 -259q-2 -8 -2 -21q0 -8 1 -15.5t4.5 -14t6 -11.5t9.5 -11t10 -9.5t12.5 -9.5t12.5 -8.5t14.5 -9t14.5 -8.5q-26 -33 -77.5 -99.5
t-77.5 -100.5q-35 12 -65 28t-61.5 41.5t-50 63.5t-18.5 83q0 19 5 46l93 477q8 40 8 65q0 55 -40 55q-71 0 -171 -102t-170 -213l-99 -504h-251q23 118 68.5 353.5t68.5 352.5q30 154 30 218q0 16 -4 80q40 8 120.5 24t120.5 24q2 -10 2 -35q0 -44 -8 -196z" />
    <glyph glyph-name="q" unicode="q" 
d="M356 531q-25 -125 -25 -209q0 -131 59 -131q76 0 163 97t142 228q5 24 14.5 70.5t14.5 69.5q-12 39 -23.5 62.5t-31.5 47t-52.5 34.5t-79.5 11q-66 0 -109 -67.5t-72 -212.5zM985 739q-26 -132 -77 -396.5t-76 -396.5q-12 -63 -12 -106q0 -21 2 -39.5t7.5 -36t8.5 -26.5
t11 -27t10 -22q5 -10 11 -21q-35 -20 -105.5 -60.5t-106.5 -60.5q-86 126 -86 274q0 65 14 134q5 20 20 86t21 87q-156 -138 -271 -138q-147 0 -213 81t-66 236q0 101 27 244q88 460 456 460q170 0 234 -90q22 72 39 101q37 -4 111.5 -12.5t111.5 -13.5q-47 -133 -66 -231
q-1 -4 -2.5 -13t-2.5 -13z" />
    <glyph glyph-name="r" unicode="r" 
d="M514 750q35 54 67 94.5t77 84t98.5 67.5t110.5 24q107 0 165.5 -54t58.5 -156q0 -62 -6 -91l-6 -30q-42 -1 -126.5 -1t-126.5 -1q15 65 15 81q0 40 -27 40q-28 0 -98 -80.5t-148.5 -208.5t-120.5 -243l-57 -294h-252q23 120 70 360.5t70 361.5q2 12 2 19q0 23 -13.5 48
t-25.5 39t-43 48q31 31 92.5 93t91.5 93q4 -4 26.5 -24t31 -29.5t26.5 -35.5t26 -50.5t15 -65.5t7 -89z" />
    <glyph glyph-name="s" unicode="s" 
d="M311 549q-98 54 -98 173q0 28 6 59q13 67 54.5 117t100.5 77.5t123.5 40.5t134.5 13q113 0 204.5 -17.5t189.5 -64.5q-19 -32 -59 -95.5t-59 -94.5q-56 36 -143 54t-169 18q-113 0 -126 -61q-3 -14 -3 -23q0 -27 24 -44q35 -16 89.5 -37.5t89 -35.5t78 -35t70 -42
t51.5 -49.5t36.5 -65t11.5 -81.5q0 -32 -8 -77q-11 -58 -44 -107.5t-78.5 -82.5t-91 -55t-91.5 -33q-91 -20 -177 -20q-167 0 -259.5 73t-92.5 201q0 33 8 76h253q-5 -23 -5 -49q0 -52 32 -75.5t101 -23.5q26 0 53.5 5t58.5 16t53.5 33.5t27.5 53.5q4 26 4 36q0 50 -49 89
q-33 24 -149.5 69.5t-151.5 64.5z" />
    <glyph glyph-name="t" unicode="t" 
d="M443 1244zM977 145q-8 -4 -48 -28t-74.5 -41t-85.5 -38t-109 -32.5t-116 -11.5q-191 0 -279 92.5t-88 240.5q0 59 12 117l9 42q29 136 70 319h-14q-42 0 -84 -12q4 34 11.5 102t11.5 102q39 12 104 12h15q7 35 24 120.5t24 120.5q42 -1 125.5 -3t124.5 -3
q-12 -63 -47 -231q48 0 152.5 -1t189.5 -2t86 -1q-7 -34 -21.5 -102t-21.5 -102q-69 0 -215 1t-212 1q-21 -90 -41.5 -186t-30.5 -139q-2 -7 -4.5 -20.5t-3.5 -19.5q-10 -50 -10 -93q0 -153 150 -153q45 0 86 12t67 26t53 38t36.5 34.5t23.5 28.5z" />
    <glyph glyph-name="u" unicode="u" 
d="M815 -17q-34 17 -55 37.5t-43 73t-37 139.5q-34 -48 -64 -83t-71.5 -71.5t-90.5 -56t-103 -20.5h-9q-47 0 -83.5 3t-78.5 14t-69.5 30.5t-46 54.5t-18.5 83q0 32 7 64q8 36 15.5 76t17.5 91.5t17 85.5q74 384 74 469q0 14 -1 19q43 5 129.5 14t129.5 14v-10
q0 -29 -5.5 -74.5t-19 -121.5t-25 -137t-35 -183t-37.5 -196v-3q0 -50 9.5 -65t42.5 -15q58 0 141.5 94.5t146 208t75.5 179.5q10 52 30.5 157.5t30.5 158.5h251q-23 -118 -69 -353.5t-69 -353.5q-1 -4 -1 -11q0 -36 28.5 -74.5t63.5 -54.5q-29 -31 -88.5 -92t-89.5 -91z
" />
    <glyph glyph-name="v" unicode="v" 
d="M350 1076q78 -191 111.5 -387t50.5 -438q54 51 96.5 116t73.5 146t49.5 144.5t41.5 158.5q1 3 14 69q13 65 22 128h251q0 -28 -31 -191q-46 -241 -161.5 -444.5t-271.5 -311.5q-65 -45 -123.5 -59.5t-207.5 -14.5q12 59 12 152q0 195 -52 438t-112 364q40 22 119 65.5
t118 64.5z" />
    <glyph glyph-name="w" unicode="w" 
d="M133 984q44 12 131.5 36t131.5 36q11 -73 11 -154q0 -229 -52 -414q-18 -64 -53.5 -148.5t-54.5 -120.5q84 60 149.5 144.5t85.5 140.5q46 130 55 332h197q-26 -166 -58 -331q-43 -215 -54 -298q44 20 102.5 140t100.5 257q57 185 57 299q0 44 -11 110h246q3 -36 3 -72
q0 -185 -72 -400q-52 -157 -157.5 -308t-241.5 -260l-189 48q3 120 14 207q-37 -56 -80 -98.5t-177 -153.5l-97.5 32.5l-97.5 32.5q59 125 93.5 307.5t34.5 355.5q0 220 -17 280z" />
    <glyph glyph-name="x" unicode="x" 
d="M1022 839q-38 -60 -142 -159t-199 -176q114 -196 151 -243q32 -40 48 -40q8 0 11.5 1t8 2.5t11.5 2.5q2 -38 4.5 -113.5t3.5 -113.5q-38 -6 -61 -6q-32 0 -71.5 13.5t-65.5 34.5q-79 59 -206 297l-414 -381q-25 29 -73.5 87.5t-73.5 87.5q75 67 224.5 201.5t224.5 202.5
q-41 63 -121 188.5t-121 188.5q33 22 100 65.5t101 65.5q36 -60 108.5 -178t108.5 -178q16 15 47.5 43t47 43t45 47.5t62.5 76.5q19 25 56 114h259q-38 -117 -74 -174z" />
    <glyph glyph-name="y" unicode="y" 
d="M54 -32l10 -17q11 -17 25.5 -36.5t33 -40.5t41 -34.5t43.5 -13.5q67 0 119.5 43t124.5 168q-28 237 -55.5 382.5t-60 217t-63.5 93t-80 21.5q-35 0 -45 -1q1 44 3 131.5t3 131.5h101q146 0 232 -183.5t123 -593.5q109 268 153 418.5t76 358.5h256q0 -59 -36 -174
q-83 -271 -172 -460.5t-253 -432.5q-89 -131 -160.5 -202t-131.5 -95.5t-138 -24.5q-27 0 -51.5 3t-43.5 6t-41 12.5t-35 13.5t-33.5 19t-28.5 20t-29 24.5t-25.5 23.5t-27.5 27.5t-26 26.5z" />
    <glyph glyph-name="z" unicode="z" 
d="M176 815q12 34 35.5 101.5t35.5 100.5q54 -6 631 -6q49 0 74.5 4.5t59.5 22.5q19 -27 56.5 -79t55.5 -79q-26 -22 -730 -638q45 0 149.5 -24t160.5 -24q44 0 65.5 37t21.5 62q39 -7 116.5 -20.5t116.5 -20.5q-19 -92 -31 -121q-49 -123 -203 -142q-29 -3 -62 -3
q-84 0 -218 34.5t-190 34.5q-91 0 -165 -51q-10 -7 -29.5 -23t-29.5 -23l-171 122q58 67 172.5 177.5t189.5 178.5t239.5 214t175.5 156q-204 -3 -223 -3q-230 0 -303 12z" />
    <glyph glyph-name="A" unicode="A" 
d="M674 504v7q0 55 -19 190.5t-19 203.5q0 53 8 93q-17 -75 -59.5 -167t-100.5 -197.5t-77 -147.5q28 6 72.5 9t107.5 5.5t87 3.5zM601 1325h224q16 -148 47.5 -416t56 -489t43.5 -420h-276q-4 45 -11.5 139t-11.5 142q-23 0 -70 -1t-66 -1.5t-54.5 -2t-58 -4.5t-53 -8
t-61.5 -12l-48 -90q-58 -110 -71 -162h-260q20 76 97 223q96 184 287 551.5t286 550.5z" />
    <glyph glyph-name="B" unicode="B" 
d="M154 837q59 305 79 471q232 17 340 17h18q153 0 240.5 -58.5t87.5 -178.5q0 -31 -8 -74q-13 -69 -39.5 -115.5t-55.5 -69t-77 -46.5q243 -71 243 -288q0 -41 -9 -87q-71 -362 -421 -405q-64 -8 -121 -8q-36 0 -104 2.5t-112 2.5h-38h-194q14 75 69.5 337t101.5 500z
M653 1012q3 12 3 31q0 80 -91 80h-4h-16q-35 0 -87 -5q-5 -40 -19 -114q-5 -28 -17 -85t-17 -85h38q34 0 60 5t58.5 20.5t55.5 52t34 92.5q1 1 1 3.5t1 4.5zM528 638q-22 0 -51 -1t-68 -1h-44q-22 -107 -40 -196t-32 -155t-18 -87q96 -6 125 -6q42 0 96 6q14 2 33 7
t49.5 20.5t56.5 38.5t49.5 64t33.5 92q6 33 6 60q0 158 -196 158z" />
    <glyph glyph-name="C" unicode="C" 
d="M710 1128q-45 0 -93 -28t-96 -84.5t-89.5 -157t-66.5 -230.5q-16 -84 -16 -157q0 -127 44 -200t110 -73h14q87 0 137.5 43.5t110.5 150.5q37 -23 110.5 -68.5t109.5 -68.5q-78 -118 -210.5 -188t-275.5 -70h-3q-217 0 -313 119q-99 129 -99 323q0 89 21 197
q57 296 229 496q75 87 186.5 143.5t235.5 56.5q117 0 217.5 -56t140.5 -169q-42 -21 -127.5 -62.5t-128.5 -62.5q-19 90 -50 118t-98 28z" />
    <glyph glyph-name="D" unicode="D" 
d="M547 1127h-30q-28 0 -46 -3q-7 -46 -15 -87q-6 -30 -15 -73.5t-16 -79.5q-26 -138 -138 -686q87 -3 99 -3h3q183 0 280 158q38 61 64 191q24 121 24 231q0 168 -58 260t-152 92zM20 128q1 5 29 141.5t64 313t63 318.5q2 12 7 37.5t8 38.5q42 215 53 340q145 14 228 14
q148 0 240.5 -27t150.5 -82t107 -156q56 -121 56 -290q0 -100 -19 -196q-48 -246 -193.5 -406t-330.5 -177q-78 -7 -162 -7q-38 0 -153.5 3.5t-176.5 3.5q5 22 29 131z" />
    <glyph glyph-name="E" unicode="E" 
d="M283 1319q57 4 205 4h98h110q84 0 207.5 -1.5t151.5 -1.5h16q-6 -34 -20 -101t-20 -101h-529q-8 -45 -25.5 -134.5t-26.5 -134.5h338q-6 -34 -19.5 -101.5t-19.5 -101.5h-338q-1 -5 -3 -15.5t-3 -15.5q-22 -116 -49 -248.5t-33 -162.5q70 0 208 1t208 1q25 0 57.5 7
t52.5 13l20 7q5 -33 17 -99.5t17 -99.5q-10 -3 -37 -10.5t-43.5 -11.5t-48 -8t-65.5 -4h-682q42 220 128 659.5t128 659.5z" />
    <glyph glyph-name="F" unicode="F" 
d="M307 0q-44 0 -132.5 1t-132.5 2q43 220 128.5 660.5t127.5 660.5h666q113 0 175 -34q-14 -34 -42.5 -101.5t-43.5 -101.5q-16 10 -25.5 14t-39 9t-75.5 5h-70q-141 0 -324 -1l-51 -258q60 0 99.5 1t100.5 1q122 0 190 -33q-12 -34 -35 -102.5t-34 -102.5q-44 22 -128 22
h-85q-85 0 -150 -2q-14 -71 -64 -342.5t-55 -297.5z" />
    <glyph glyph-name="G" unicode="G" 
d="M1064 758q-5 -28 -16 -86t-17 -86q-26 -130 -59.5 -226.5t-69.5 -157t-84.5 -102t-93.5 -61.5t-107 -36q-52 -11 -154 -11q-107 0 -188 33.5t-129.5 95t-72.5 142t-24 179.5q0 88 21 199q73 385 294 569q153 118 352 118h20q322 -8 387 -257q-42 -20 -128 -58.5
t-128 -57.5q-10 91 -49 128.5t-135 37.5q-123 0 -217.5 -134.5t-137.5 -356.5q-20 -105 -20 -183q0 -249 185 -249q50 0 90.5 20.5t68 53t49.5 83t35.5 99.5t26.5 114q-11 0 -32 -0.5t-32 -0.5q-56 0 -91.5 -6.5t-105.5 -30.5q-7 34 -20.5 101t-20.5 100q120 43 309 43
q94 0 294 -16z" />
    <glyph glyph-name="H" unicode="H" 
d="M499 1322l-105 -537q133 29 277 29h87q21 107 40.5 209t31 161.5t25.5 132.5h256q-43 -219 -128.5 -658t-127.5 -659h-255q20 100 58.5 299.5t57.5 299.5h-32q-116 0 -180 -5t-152 -24q-38 -194 -66.5 -345t-42.5 -225h-258q43 220 128.5 660t128.5 660q43 0 128.5 1
t128.5 1z" />
    <glyph glyph-name="K" unicode="K" 
d="M638 742q78 -95 207.5 -342t146.5 -346q-39 -15 -117 -43t-117 -43q-20 91 -119.5 303t-173.5 303q-68 -62 -112 -134q-14 -74 -43 -222.5t-44 -222.5h-258q43 224 130 670.5t130 669.5h258q-15 -78 -45 -232.5t-45 -231.5q122 135 562 505l162 -177q-34 -22 -70 -48
t-72 -56t-68.5 -57.5t-69 -61t-62 -57t-59 -56.5t-49 -48.5l-42.5 -42.5z" />
    <glyph glyph-name="L" unicode="L" 
d="M81 -3q43 222 129.5 664.5t129.5 663.5h254q-37 -187 -109 -559t-109 -559h428q62 3 118 21q6 -33 17.5 -98.5t16.5 -98.5q-106 -34 -191 -34h-684z" />
    <glyph glyph-name="M" unicode="M" 
d="M244 1323h204q44 -92 83.5 -224.5t57.5 -264.5q109 223 323 489h216l-255 -1323h-247q19 99 57 298t57 298q9 46 30 121.5t38 128.5l16 52q-58 -82 -125.5 -195.5t-86.5 -151.5q-25 -1 -75 -1t-75 -1q-50 268 -82 349q-5 -189 -27 -302q-20 -100 -58 -298t-58 -298h-250
q43 220 128.5 661t128.5 662z" />
    <glyph glyph-name="N" unicode="N" 
d="M616 0q-34 223 -89.5 458.5t-118.5 386.5q-9 -46 -26 -137.5t-26 -137.5q-25 -133 -45.5 -237t-38 -195.5t-27.5 -140.5h-246q43 222 129.5 664.5t129.5 663.5q35 -1 104.5 -3.5t104.5 -3.5q71 -151 154.5 -442.5t98.5 -468.5q5 41 12 117t14.5 138t18.5 116
q64 328 119 551q40 0 122 -0.5t122 -0.5q-41 -168 -92 -433q-25 -127 -71.5 -377.5t-65.5 -347.5q-5 -28 -17 -85t-17 -85h-249z" />
    <glyph glyph-name="O" unicode="O" 
d="M709 1350q32 0 61.5 -3.5t66 -15.5t66.5 -31t59.5 -52.5t50 -77.5t33 -109t12.5 -144q0 -115 -28 -270q0 -2 -1 -5.5t-1 -5.5q-24 -123 -67 -234.5t-94 -184.5q-77 -109 -193.5 -171t-241.5 -62q-101 0 -191 35.5t-133 107.5q-57 94 -57 240q0 95 23 212
q48 244 110 384.5t138 223.5q65 71 168.5 116t218.5 47zM471 187q49 0 98.5 45.5t88 115.5t67 146.5t42.5 145.5q1 3 2 8.5t2 8.5q29 143 29 258q0 232 -131 232q-67 0 -135 -82t-118.5 -207t-78.5 -266q-23 -115 -23 -196q0 -209 157 -209z" />
    <glyph glyph-name="P" unicode="P" 
d="M816 909q8 37 8 74q0 38 -11.5 64.5t-26 39.5t-40.5 20.5t-43.5 8.5t-45.5 1h-9q-35 0 -86.5 -2.5t-64.5 -2.5q-2 -12 -6.5 -35.5t-7.5 -35.5l-78 -392q72 -2 104 -2q40 0 72.5 4.5t71.5 21t68.5 44t55 76.5t39.5 116zM279 0h-250q43 220 128.5 660t128.5 660
q57 0 139.5 4t150.5 4q97 0 160 -4.5t129.5 -19.5t113 -47t78.5 -83q35 -56 35 -144q0 -49 -11 -106q-48 -249 -179.5 -367t-383.5 -118q-72 0 -153 3q-36 -188 -86 -442z" />
    <glyph glyph-name="Q" unicode="Q" 
d="M779 -183q-98 0 -179.5 50.5t-82.5 140.5q-43 -11 -92 -11q-182 0 -278 126q-72 97 -72 281q0 112 25 238q71 368 227 531q84 87 166 122.5t180 35.5q126 0 204.5 -51t116.5 -159q34 -95 34 -206q0 -85 -26 -222q-23 -120 -58 -226t-94.5 -205t-131.5 -146v-16
q0 -43 17 -54.5t74 -12.5h11q41 0 87 11q-7 -37 -21 -110.5t-21 -110.5q-28 -6 -86 -6zM516 536q145 0 178 -132q7 14 15 42.5t14 56t17.5 84t20.5 96.5q1 4 2 11.5t2 11.5q23 104 23 185q0 60 -14 110q-15 53 -51 83.5t-89 30.5q-96 0 -167.5 -106.5t-110.5 -302.5
q-12 -58 -13 -66q-22 -123 -22 -170q0 -26 4 -42q84 108 191 108zM532 211q1 3 1 4q0 3 1 9.5t1 10.5q0 33 -18 58.5t-57 25.5q-65 0 -109 -49q3 -35 35 -53.5t67 -18.5h17q35 0 62 13z" />
    <glyph glyph-name="R" unicode="R" 
d="M708 548q69 -158 188 -341q46 -49 96 -63q-25 -31 -76.5 -94t-77.5 -94q-39 6 -74.5 36t-57.5 66q-50 72 -119.5 222t-108.5 250q-60 5 -112 28l-108 -558h-243q37 190 110.5 568t110.5 568q19 97 29 178q161 15 221 15q63 0 105.5 -1t98 -4.5t93.5 -10t81.5 -18
t74.5 -28.5t59.5 -42t47.5 -57q36 -60 36 -153q0 -43 -9 -87q-33 -164 -129 -260.5t-236 -119.5zM807 906q6 32 6 56q0 89 -69 125.5t-205 36.5q-34 0 -63 -1q-11 -59 -34 -177.5t-35 -177.5q92 -42 158 -42h8q117 0 167 46t67 134z" />
    <glyph glyph-name="S" unicode="S" 
d="M292 702q-60 30 -94 94.5t-34 140.5q0 32 8 69q35 161 160 241.5t321 80.5h9q343 0 461 -136l-180 -192q-37 47 -103.5 75.5t-116.5 35.5t-96 7q-48 0 -112.5 -29t-73.5 -75q-4 -19 -4 -38q0 -24 7 -41.5t21.5 -30t27 -19t34.5 -15.5q40 -17 137.5 -50t165.5 -68
q156 -84 156 -266q0 -40 -9 -90q-16 -87 -54 -157t-88.5 -115.5t-115.5 -76t-132.5 -43.5t-142.5 -13h-19q-210 6 -306 93.5t-96 232.5q0 48 11 105q44 0 132.5 -1t133.5 -1q-8 -42 -8 -71q0 -149 179 -149q33 0 68 8.5t72.5 27.5t66 56.5t38.5 89.5q4 20 4 42
q0 102 -115 158q-49 24 -149 56t-164 64z" />
    <glyph glyph-name="T" unicode="T" 
d="M280 0q36 187 108.5 559t108.5 559q-114 0 -203.5 -0.5t-112.5 -0.5q6 34 20 103t20 104q53 0 358 0.5t407 0.5q110 0 163 -16q-16 -34 -49 -101.5t-50 -101.5q-50 12 -110 12h-183q-36 -187 -108.5 -559t-108.5 -559h-260z" />
    <glyph glyph-name="U" unicode="U" 
d="M888 1350q42 -5 124 -14t124 -14q-16 -46 -33 -127q-1 -5 -2.5 -14.5t-2.5 -14.5q-16 -80 -39.5 -210.5t-33.5 -180.5q-2 -10 -6 -29.5t-6 -29.5q-22 -111 -37.5 -178.5t-43 -154.5t-65 -151t-86.5 -111q-127 -122 -366 -131q-185 0 -264.5 81t-79.5 244q0 61 11 141
q14 111 59 339q59 302 112 534h258q-66 -298 -122 -586q-11 -55 -27 -141q-22 -117 -24 -154q-3 -75 -3 -82q0 -34 4.5 -60t16 -51.5t36.5 -39.5t62 -15q33 1 62 11t51.5 24t43 40t35.5 49.5t29.5 63t24 70t21 81t19 85.5t18.5 94q9 47 36 199t46 249q20 105 48 184z" />
    <glyph glyph-name="V" unicode="V" 
d="M293 0q2 30 2 56q0 198 -42.5 624.5t-77.5 585.5q42 15 126.5 44.5t126.5 44.5q18 -90 31.5 -222t20.5 -239t17 -287t16 -276q13 31 69.5 164t81 190t76 175t85 188t76.5 154.5t79 145.5q35 -13 105.5 -39.5t106.5 -39.5q-112 -183 -334 -651.5t-264 -617.5h-301z" />
    <glyph glyph-name="W" unicode="W" 
d="M320 0h-241v22q0 108 55.5 626.5t57.5 641.5q40 5 120.5 14.5t121.5 14.5q-4 -67 -10 -125.5t-10 -88t-10 -69t-8 -50.5q-18 -123 -62.5 -372.5t-49.5 -297.5q236 600 256 672q9 0 38 -1.5t47 -1.5q73 0 114 19q-6 -97 -9 -268t-4 -294v-123q24 75 74.5 306.5t77.5 336.5
q2 8 10.5 42.5t15.5 59.5t19 66t29 89t38 102q36 -6 108.5 -18.5t108.5 -19.5q-57 -144 -222.5 -679t-191.5 -604h-246q7 397 12 585q-223 -558 -239 -585z" />
    <glyph glyph-name="X" unicode="X" 
d="M985 1367q28 -19 84.5 -57.5t84.5 -58.5l-456 -594q38 -89 88.5 -223t85.5 -206t87 -135q-31 -21 -94.5 -62t-94.5 -62q-56 68 -86.5 129t-71 176t-73.5 194q-65 -87 -197 -261t-197 -261q-31 22 -92.5 66t-92.5 66l480 615q-52 134 -81 205.5t-78 169.5t-100 173
q34 23 102.5 68t102.5 67q35 -52 68.5 -119.5t52.5 -116t51 -135t48 -126.5q63 81 189.5 243.5t189.5 244.5z" />
    <glyph glyph-name="Y" unicode="Y" 
d="M279 18q50 99 143.5 287t143.5 287q-19 38 -195.5 303t-193.5 327q36 23 108.5 69.5t108.5 70.5q12 -39 139 -254t157 -286q42 92 126 276.5t126 277.5l219 -96q-103 -213 -325.5 -672.5t-325.5 -673.5q-10 3 -50 16t-63 21t-57.5 21t-60.5 26z" />
    <glyph glyph-name="Z" unicode="Z" 
d="M48 0q-8 24 -22 73.5t-22 74.5q136 162 408.5 485.5t408.5 485.5q-119 0 -332 -2.5t-258 -2.5l39 210q52 0 340 2t391 2q26 0 51 -2t38.5 -4.5t29.5 -6t18 -3.5q0 -4 -1 -7q-5 -19 -10 -91t-9 -88q-2 -6 -2 -8q-127 -150 -381 -450.5t-381 -450.5q61 0 181.5 -0.5
t181.5 -0.5q62 0 95.5 5t86.5 21q5 -36 14.5 -107.5t14.5 -107.5q-81 -27 -194 -27h-679h-7z" />
    <glyph glyph-name="I" unicode="I" 
d="M314 1324q196 5 354 5q123 0 368 -3q-7 -35 -21 -105.5t-21 -105.5q-65 0 -125 2.5t-104 2.5q-29 -150 -87.5 -450.5t-87.5 -450.5q22 0 39 0.5t43 0.5q75 0 143 -4q-7 -36 -20.5 -108.5t-20.5 -108.5q-101 6 -209 6q-22 0 -73 -0.5t-82 -0.5q-27 0 -145.5 -3.5
t-206.5 -3.5l42 216q107 5 181 5h52q29 150 88 450.5t88 450.5q-144 -2 -230 -7q6 35 17.5 105.5t17.5 106.5z" />
    <glyph glyph-name="J" unicode="J" 
d="M337 -8q-161 0 -238.5 93t-77.5 238q0 52 11 112q44 0 130.5 -0.5t129.5 -0.5q-7 -43 -7 -83q0 -72 23.5 -109.5t64.5 -37.5q57 0 106.5 63.5t83 157t61.5 222.5t44 236.5t28 222.5q-26 0 -103.5 1t-94.5 1q-37 -1 -59.5 -3.5t-30 -4.5t-16 -5t-15.5 -5
q-7 36 -20.5 106.5t-20.5 105.5q6 1 20.5 5.5t26 7t40.5 5.5t71 4q71 0 243 -0.5t251 -0.5q-32 -212 -55 -348t-56 -291.5t-65.5 -249.5t-79.5 -188t-102.5 -143.5t-129 -80t-163.5 -30.5z" />
    <glyph glyph-name="zero" unicode="0" 
d="M386 581q60 65 179 194.5t178 194.5q-10 82 -25 108.5t-65 26.5q-171 0 -259 -474zM731 726q-61 -66 -182.5 -197t-181.5 -197q6 -76 25.5 -108.5t68.5 -32.5q38 0 70.5 19t57.5 56t45 79t37 102.5t28 111t24 118.5zM695 1312q307 0 307 -386q0 -112 -29 -266
q-17 -87 -38.5 -163.5t-53.5 -155.5t-75 -141.5t-96.5 -112.5t-124 -77t-151.5 -27q-327 0 -327 370q0 115 29 263q18 91 40 168.5t54.5 160t76 146t99 115t129 79t160.5 27.5z" />
    <glyph glyph-name="period" unicode="." 
d="M330 313h315q-10 -52 -30.5 -156.5t-30.5 -156.5h-315q10 52 30.5 156.5t30.5 156.5z" />
    <glyph glyph-name="comma" unicode="," 
d="M317 309q55 1 164 1t163 1q-10 -50 -29.5 -150t-28.5 -150v-3q-29 -151 -117.5 -268.5t-222.5 -173.5q-11 30 -32 90.5t-31 90.5q80 40 126 99.5t66 159.5q-19 0 -56.5 -0.5t-56.5 -0.5q9 51 27.5 152t27.5 152z" />
    <glyph glyph-name="eacute" unicode="&#xe9;" 
d="M450 1328q209 66 452 259q17 -29 68 -91t68 -91q-93 -78 -247.5 -154.5t-281.5 -115.5q-10 29 -29.5 96.5t-29.5 96.5zM363 542q99 12 200.5 38t123.5 44q51 42 51 87q0 44 -34.5 75.5t-108.5 31.5q-76 0 -142 -75.5t-90 -200.5zM632 1021q81 0 145 -19t103 -49t65 -71
t36 -81.5t10 -83.5q0 -59 -16 -102q-46 -122 -188 -184.5t-444 -98.5q0 -52 42.5 -94t109.5 -42q183 0 318 99l102 -180q-62 -33 -79 -41.5t-62.5 -30t-67.5 -26t-65.5 -14t-87.5 -11.5t-104 -2q-175 0 -268 100.5t-93 275.5q0 70 15 150q21 108 66.5 199.5t112 160
t156.5 107t194 38.5z" />
    <glyph glyph-name="egrave" unicode="&#xe8;" 
d="M1000 1312l-102 -165q-114 40 -256 124.5t-204 162.5l145 163q70 -81 193 -165t224 -120zM363 542q99 12 200.5 38t123.5 44q51 42 51 87q0 44 -34.5 75.5t-108.5 31.5q-76 0 -142 -75.5t-90 -200.5zM632 1021q81 0 145 -19t103 -49t65 -71t36 -81.5t10 -83.5
q0 -59 -16 -102q-46 -122 -188 -184.5t-444 -98.5q0 -52 42.5 -94t109.5 -42q183 0 318 99l102 -180q-62 -33 -79 -41.5t-62.5 -30t-67.5 -26t-65.5 -14t-87.5 -11.5t-104 -2q-175 0 -268 100.5t-93 275.5q0 70 15 150q21 108 66.5 199.5t112 160t156.5 107t194 38.5z" />
    <glyph glyph-name="ecircumflex" unicode="&#xea;" 
d="M728 1588l338 -292l-169 -156l-191 201l-268 -189l-128 156zM363 542q99 12 200.5 38t123.5 44q51 42 51 87q0 44 -34.5 75.5t-108.5 31.5q-76 0 -142 -75.5t-90 -200.5zM632 1021q81 0 145 -19t103 -49t65 -71t36 -81.5t10 -83.5q0 -59 -16 -102q-46 -122 -188 -184.5
t-444 -98.5q0 -52 42.5 -94t109.5 -42q183 0 318 99l102 -180q-62 -33 -79 -41.5t-62.5 -30t-67.5 -26t-65.5 -14t-87.5 -11.5t-104 -2q-175 0 -268 100.5t-93 275.5q0 70 15 150q21 108 66.5 199.5t112 160t156.5 107t194 38.5z" />
    <glyph glyph-name="edieresis" unicode="&#xeb;" 
d="M805 1458l281 -3l-46 -238l-282 1zM385 1458h279l-47 -240h-279zM363 542q99 12 200.5 38t123.5 44q51 42 51 87q0 44 -34.5 75.5t-108.5 31.5q-76 0 -142 -75.5t-90 -200.5zM632 1021q81 0 145 -19t103 -49t65 -71t36 -81.5t10 -83.5q0 -59 -16 -102
q-46 -122 -188 -184.5t-444 -98.5q0 -52 42.5 -94t109.5 -42q183 0 318 99l102 -180q-62 -33 -79 -41.5t-62.5 -30t-67.5 -26t-65.5 -14t-87.5 -11.5t-104 -2q-175 0 -268 100.5t-93 275.5q0 70 15 150q21 108 66.5 199.5t112 160t156.5 107t194 38.5z" />
    <glyph glyph-name="agrave" unicode="&#xe0;" 
d="M1022 1312l-102 -165q-114 40 -256 124.5t-204 162.5l145 163q70 -81 193 -165t224 -120zM343 513q-25 -125 -25 -202q0 -43 7.5 -69.5t23.5 -37t28.5 -13t35.5 -2.5q38 0 81.5 29t78.5 72t59 78.5t38 62.5q9 50 28.5 149.5t29.5 148.5q-24 36 -65.5 63t-85.5 27
q-23 0 -45 -6t-50.5 -25.5t-52.5 -51.5t-47.5 -89.5t-38.5 -133.5zM891 316q-5 -28 -5 -49q0 -100 70 -166q-27 -22 -79.5 -66t-78.5 -66q-98 88 -98 196q0 13 1 20q-61 -102 -151.5 -149t-226.5 -47q-55 0 -97.5 14t-79.5 47.5t-57 97t-20 154.5q0 99 27 241
q22 113 65.5 201.5t94 140t110.5 85.5t111 46t99 12q63 0 118.5 -23t83.5 -64q3 14 9.5 42t10.5 42l230 -12q-23 -116 -68.5 -348.5t-68.5 -348.5z" />
    <glyph glyph-name="aacute" unicode="&#xe1;" 
d="M472 1328q209 66 452 259q17 -29 68 -91t68 -91q-93 -78 -247.5 -154.5t-281.5 -115.5q-9 29 -29 96.5t-30 96.5zM343 513q-25 -125 -25 -202q0 -43 7.5 -69.5t23.5 -37t28.5 -13t35.5 -2.5q38 0 81.5 29t78.5 72t59 78.5t38 62.5q9 50 28.5 149.5t29.5 148.5
q-24 36 -65.5 63t-85.5 27q-23 0 -45 -6t-50.5 -25.5t-52.5 -51.5t-47.5 -89.5t-38.5 -133.5zM891 316q-5 -28 -5 -49q0 -100 70 -166q-27 -22 -79.5 -66t-78.5 -66q-98 88 -98 196q0 13 1 20q-61 -102 -151.5 -149t-226.5 -47q-55 0 -97.5 14t-79.5 47.5t-57 97t-20 154.5
q0 99 27 241q22 113 65.5 201.5t94 140t110.5 85.5t111 46t99 12q63 0 118.5 -23t83.5 -64q3 14 9.5 42t10.5 42l230 -12q-23 -116 -68.5 -348.5t-68.5 -348.5z" />
    <glyph glyph-name="acircumflex" unicode="&#xe2;" 
d="M750 1588l338 -292l-169 -156l-191 201l-268 -189l-128 156zM343 513q-25 -125 -25 -202q0 -43 7.5 -69.5t23.5 -37t28.5 -13t35.5 -2.5q38 0 81.5 29t78.5 72t59 78.5t38 62.5q9 50 28.5 149.5t29.5 148.5q-24 36 -65.5 63t-85.5 27q-23 0 -45 -6t-50.5 -25.5
t-52.5 -51.5t-47.5 -89.5t-38.5 -133.5zM891 316q-5 -28 -5 -49q0 -100 70 -166q-27 -22 -79.5 -66t-78.5 -66q-98 88 -98 196q0 13 1 20q-61 -102 -151.5 -149t-226.5 -47q-55 0 -97.5 14t-79.5 47.5t-57 97t-20 154.5q0 99 27 241q22 113 65.5 201.5t94 140t110.5 85.5
t111 46t99 12q63 0 118.5 -23t83.5 -64q3 14 9.5 42t10.5 42l230 -12q-23 -116 -68.5 -348.5t-68.5 -348.5z" />
    <glyph glyph-name="atilde" unicode="&#xe3;" 
d="M620 1486q48 0 85 -7.5t64.5 -24.5t39.5 -27t34 -32q41 -41 76 -41q37 0 61.5 24t38.5 76l172 -54q-17 -41 -39.5 -76.5t-56.5 -71t-82.5 -56t-106.5 -20.5q-32 0 -58.5 5.5t-53 21t-37 22t-37 30t-27.5 23.5q-21 17 -35 22.5t-46 5.5q-31 0 -57 -26.5t-42 -73.5l-178 78
q21 38 47 71t61 64t81 49t96 18zM343 513q-25 -125 -25 -202q0 -43 7.5 -69.5t23.5 -37t28.5 -13t35.5 -2.5q38 0 81.5 29t78.5 72t59 78.5t38 62.5q9 50 28.5 149.5t29.5 148.5q-24 36 -65.5 63t-85.5 27q-23 0 -45 -6t-50.5 -25.5t-52.5 -51.5t-47.5 -89.5t-38.5 -133.5z
M891 316q-5 -28 -5 -49q0 -100 70 -166q-27 -22 -79.5 -66t-78.5 -66q-98 88 -98 196q0 13 1 20q-61 -102 -151.5 -149t-226.5 -47q-55 0 -97.5 14t-79.5 47.5t-57 97t-20 154.5q0 99 27 241q22 113 65.5 201.5t94 140t110.5 85.5t111 46t99 12q63 0 118.5 -23t83.5 -64
q3 14 9.5 42t10.5 42l230 -12q-23 -116 -68.5 -348.5t-68.5 -348.5z" />
    <glyph glyph-name="adieresis" unicode="&#xe4;" 
d="M827 1458l281 -3l-46 -238l-282 1zM407 1458h279l-47 -240h-279zM343 513q-25 -125 -25 -202q0 -43 7.5 -69.5t23.5 -37t28.5 -13t35.5 -2.5q38 0 81.5 29t78.5 72t59 78.5t38 62.5q9 50 28.5 149.5t29.5 148.5q-24 36 -65.5 63t-85.5 27q-23 0 -45 -6t-50.5 -25.5
t-52.5 -51.5t-47.5 -89.5t-38.5 -133.5zM891 316q-5 -28 -5 -49q0 -100 70 -166q-27 -22 -79.5 -66t-78.5 -66q-98 88 -98 196q0 13 1 20q-61 -102 -151.5 -149t-226.5 -47q-55 0 -97.5 14t-79.5 47.5t-57 97t-20 154.5q0 99 27 241q22 113 65.5 201.5t94 140t110.5 85.5
t111 46t99 12q63 0 118.5 -23t83.5 -64q3 14 9.5 42t10.5 42l230 -12q-23 -116 -68.5 -348.5t-68.5 -348.5z" />
    <glyph glyph-name="aring" unicode="&#xe5;" 
d="M757 1442q-38 0 -64.5 -19t-33.5 -43q-1 -3 -1 -8q0 -22 20.5 -38.5t54.5 -16.5q37 0 64 19.5t34 43.5q1 3 1 9q0 22 -20 37.5t-55 15.5zM470 1380q17 86 110 145t206 59q102 0 170 -49.5t68 -124.5q0 -15 -3 -30q-16 -86 -104.5 -140.5t-208.5 -54.5q-105 0 -173 46.5
t-68 119.5q0 14 3 29zM343 513q-25 -125 -25 -202q0 -43 7.5 -69.5t23.5 -37t28.5 -13t35.5 -2.5q38 0 81.5 29t78.5 72t59 78.5t38 62.5q9 50 28.5 149.5t29.5 148.5q-24 36 -65.5 63t-85.5 27q-23 0 -45 -6t-50.5 -25.5t-52.5 -51.5t-47.5 -89.5t-38.5 -133.5zM891 316
q-5 -28 -5 -49q0 -100 70 -166q-27 -22 -79.5 -66t-78.5 -66q-98 88 -98 196q0 13 1 20q-61 -102 -151.5 -149t-226.5 -47q-55 0 -97.5 14t-79.5 47.5t-57 97t-20 154.5q0 99 27 241q22 113 65.5 201.5t94 140t110.5 85.5t111 46t99 12q63 0 118.5 -23t83.5 -64q3 14 9.5 42
t10.5 42l230 -12q-23 -116 -68.5 -348.5t-68.5 -348.5z" />
    <glyph glyph-name="ae" unicode="&#xe6;" 
d="M693 616q-1 -4 -2 -11t-2 -10q91 26 126 60.5t35 80.5q0 72 -66 72q-32 0 -51.5 -38.5t-39.5 -153.5zM244 322q-9 -48 -9 -81q0 -79 43 -79q31 0 56 22.5t36.5 48.5t22.5 57.5t14 36.5q5 25 14.5 74t13.5 73q-5 3 -12.5 8.5t-11 7.5t-9.5 5.5t-9.5 5t-9.5 3.5t-12.5 2.5
t-14.5 1t-18 0.5q-25 0 -52.5 -55t-41.5 -131zM647 0q-38 0 -68.5 6t-49 14t-34.5 20.5t-22.5 21t-14 21t-9.5 14.5q-101 -93 -211 -93q-106 0 -172 53q-67 55 -67 165q0 44 9 87q13 67 38.5 126t65 111.5t99.5 83.5t133 31q27 0 47 -3t28.5 -6.5t23.5 -11.5t22 -11
q12 58 12 94q0 41 -19.5 63t-68.5 22h-9q-40 0 -63 -20.5t-58 -85.5q-30 13 -90.5 41t-91.5 41q133 234 346 234q50 0 84 -9t69 -41q24 -24 39 -59q92 109 199 109q108 0 169 -68t61 -200q0 -137 -91 -226.5t-307 -148.5l-22 -101q7 -37 16.5 -51.5t36.5 -14.5q51 0 74 20.5
t36 61.5q30 -12 88 -36t88 -36q-4 -9 -11.5 -23.5t-35 -52t-61 -66.5t-89.5 -52.5t-119 -23.5z" />
    <glyph glyph-name="colon" unicode=":" 
d="M463 1012h315q-10 -52 -30.5 -156.5t-30.5 -156.5h-315q10 52 30.5 156.5t30.5 156.5zM327 315h315q-10 -52 -30.5 -156.5t-30.5 -156.5h-315q10 52 30.5 156.5t30.5 156.5z" />
    <glyph glyph-name="semicolon" unicode=";" 
d="M449 1012h315q-9 -43 -20 -100t-22 -113.5t-19 -99.5h-315q4 24 9.5 52t10.5 52.5t10.5 52t10 52t10 52.5t10.5 52zM309 309q55 1 164 1t163 1q-10 -50 -29.5 -150t-28.5 -150v-3q-29 -151 -117.5 -268.5t-222.5 -173.5q-11 30 -32 90.5t-31 90.5q80 40 126 99.5
t66 159.5q-19 0 -56.5 -0.5t-56.5 -0.5q9 50 27.5 151.5t27.5 152.5z" />
    <glyph glyph-name="exclam" unicode="!" 
d="M868 1341l-195 -910l-283 -2l163 912h315zM327 270h350l-52 -270h-350z" />
    <glyph glyph-name="quotesingle" unicode="'" 
d="M582 1464l279 -35q-42 -218 -80.5 -365.5t-91.5 -294.5l-218 52q76 208 76 333q0 40 -11 76z" />
    <glyph glyph-name="Agrave" unicode="&#xc0;" 
d="M1037 1527l-102 -165q-114 40 -256 124.5t-204 162.5l145 163q70 -81 193 -165t224 -120zM674 504v7q0 55 -19 190.5t-19 203.5q0 53 8 93q-17 -75 -59.5 -167t-100.5 -197.5t-77 -147.5q28 6 72.5 9t107.5 5.5t87 3.5zM601 1325h224q16 -148 47.5 -416t56 -489
t43.5 -420h-276q-4 45 -11.5 139t-11.5 142q-23 0 -70 -1t-66 -1.5t-54.5 -2t-58 -4.5t-53 -8t-61.5 -12l-48 -90q-58 -110 -71 -162h-260q20 76 97 223q96 184 287 551.5t286 550.5z" />
    <glyph glyph-name="Aacute" unicode="&#xc1;" 
d="M487 1543q209 66 452 259q17 -28 68 -91t68 -91q-93 -78 -247.5 -154.5t-281.5 -115.5q-10 29 -29.5 96.5t-29.5 96.5zM674 504v7q0 55 -19 190.5t-19 203.5q0 53 8 93q-17 -75 -59.5 -167t-100.5 -197.5t-77 -147.5q28 6 72.5 9t107.5 5.5t87 3.5zM601 1325h224
q16 -148 47.5 -416t56 -489t43.5 -420h-276q-4 45 -11.5 139t-11.5 142q-23 0 -70 -1t-66 -1.5t-54.5 -2t-58 -4.5t-53 -8t-61.5 -12l-48 -90q-58 -110 -71 -162h-260q20 76 97 223q96 184 287 551.5t286 550.5z" />
    <glyph glyph-name="Acircumflex" unicode="&#xc2;" 
d="M765 1803l338 -292l-169 -156l-191 201l-268 -189l-128 156zM674 504v7q0 55 -19 190.5t-19 203.5q0 53 8 93q-17 -75 -59.5 -167t-100.5 -197.5t-77 -147.5q28 6 72.5 9t107.5 5.5t87 3.5zM601 1325h224q16 -148 47.5 -416t56 -489t43.5 -420h-276q-4 45 -11.5 139
t-11.5 142q-23 0 -70 -1t-66 -1.5t-54.5 -2t-58 -4.5t-53 -8t-61.5 -12l-48 -90q-58 -110 -71 -162h-260q20 76 97 223q96 184 287 551.5t286 550.5z" />
    <glyph glyph-name="Atilde" unicode="&#xc3;" 
d="M635 1701q48 0 85 -7.5t64.5 -24.5t39.5 -27t34 -32q41 -41 76 -41q38 0 62 24t38 76l172 -54q-17 -41 -39.5 -76.5t-56.5 -71t-82.5 -56t-106.5 -20.5q-32 0 -58.5 5.5t-53 21t-37 22t-37 30t-27.5 23.5q-21 17 -35 22.5t-46 5.5q-31 0 -57 -26.5t-42 -73.5l-178 78
q21 38 47 71t61 64t81 49t96 18zM674 504v7q0 55 -19 190.5t-19 203.5q0 53 8 93q-17 -75 -59.5 -167t-100.5 -197.5t-77 -147.5q28 6 72.5 9t107.5 5.5t87 3.5zM601 1325h224q16 -148 47.5 -416t56 -489t43.5 -420h-276q-4 45 -11.5 139t-11.5 142q-23 0 -70 -1t-66 -1.5
t-54.5 -2t-58 -4.5t-53 -8t-61.5 -12l-48 -90q-58 -110 -71 -162h-260q20 76 97 223q96 184 287 551.5t286 550.5z" />
    <glyph glyph-name="Adieresis" unicode="&#xc4;" 
d="M842 1673l281 -3l-46 -238l-282 1zM422 1673h279l-47 -240h-279zM674 504v7q0 55 -19 190.5t-19 203.5q0 53 8 93q-17 -75 -59.5 -167t-100.5 -197.5t-77 -147.5q28 6 72.5 9t107.5 5.5t87 3.5zM601 1325h224q16 -148 47.5 -416t56 -489t43.5 -420h-276q-4 45 -11.5 139
t-11.5 142q-23 0 -70 -1t-66 -1.5t-54.5 -2t-58 -4.5t-53 -8t-61.5 -12l-48 -90q-58 -110 -71 -162h-260q20 76 97 223q96 184 287 551.5t286 550.5z" />
    <glyph glyph-name="Aring" unicode="&#xc5;" 
d="M772 1657q-38 0 -64.5 -19t-33.5 -43q-1 -3 -1 -8q0 -22 20.5 -38.5t54.5 -16.5q37 0 64 19.5t34 43.5q1 3 1 9q0 22 -20 37.5t-55 15.5zM485 1595q17 86 110 145t206 59q102 0 170 -49.5t68 -124.5q0 -15 -3 -30q-16 -86 -104.5 -140.5t-208.5 -54.5q-105 0 -173 46.5
t-68 119.5q0 14 3 29zM674 504v7q0 55 -19 190.5t-19 203.5q0 53 8 93q-17 -75 -59.5 -167t-100.5 -197.5t-77 -147.5q28 6 72.5 9t107.5 5.5t87 3.5zM601 1325h224q16 -148 47.5 -416t56 -489t43.5 -420h-276q-4 45 -11.5 139t-11.5 142q-23 0 -70 -1t-66 -1.5t-54.5 -2
t-58 -4.5t-53 -8t-61.5 -12l-48 -90q-58 -110 -71 -162h-260q20 76 97 223q96 184 287 551.5t286 550.5z" />
    <glyph glyph-name="igrave" unicode="&#xec;" 
d="M952 1312l-102 -165q-114 40 -256 124.5t-204 162.5l145 163q70 -81 193 -165t224 -120zM481 1039q42 -5 125.5 -13t124.5 -13l-133 -687q-5 -28 -5 -51q0 -93 86 -93q120 0 231 91q10 -32 30 -95t30 -95q-71 -50 -175 -75.5t-205 -25.5q-269 0 -269 203q0 31 8 73
q15 80 46 239.5t47 239.5q-34 -34 -134 -82q-19 30 -56 92t-55 92q237 77 304 200z" />
    <glyph glyph-name="iacute" unicode="&#xed;" 
d="M402 1328q209 66 452 259q17 -29 68 -91t68 -91q-93 -78 -247.5 -154.5t-281.5 -115.5q-9 29 -29 96.5t-30 96.5zM481 1039q42 -5 125.5 -13t124.5 -13l-133 -687q-5 -28 -5 -51q0 -93 86 -93q120 0 231 91q10 -32 30 -95t30 -95q-71 -50 -175 -75.5t-205 -25.5
q-269 0 -269 203q0 31 8 73q15 80 46 239.5t47 239.5q-34 -34 -134 -82q-19 30 -56 92t-55 92q237 77 304 200z" />
    <glyph glyph-name="icircumflex" unicode="&#xee;" 
d="M680 1588l338 -292l-169 -156l-191 201l-268 -189l-128 156zM481 1039q42 -5 125.5 -13t124.5 -13l-133 -687q-5 -28 -5 -51q0 -93 86 -93q120 0 231 91q10 -32 30 -95t30 -95q-71 -50 -175 -75.5t-205 -25.5q-269 0 -269 203q0 31 8 73q15 80 46 239.5t47 239.5
q-34 -34 -134 -82q-19 30 -56 92t-55 92q237 77 304 200z" />
    <glyph glyph-name="idieresis" unicode="&#xef;" 
d="M757 1458l281 -3l-46 -238l-282 1zM337 1458h279l-47 -240h-279zM481 1039q42 -5 125.5 -13t124.5 -13l-133 -687q-5 -28 -5 -51q0 -93 86 -93q120 0 231 91q10 -32 30 -95t30 -95q-71 -50 -175 -75.5t-205 -25.5q-269 0 -269 203q0 31 8 73q15 80 46 239.5t47 239.5
q-34 -34 -134 -82q-19 30 -56 92t-55 92q237 77 304 200z" />
    <glyph glyph-name="ccedilla" unicode="&#xe7;" 
d="M355 528q-14 -69 -14 -126q0 -199 165 -199h12q69 0 122 38t109 109q34 -22 100.5 -66.5t99.5 -67.5q-136 -210 -423 -222q-2 -9 -4.5 -22t-4.5 -20.5t-2 -8.5q68 -3 111 -38.5t43 -99.5q0 -21 -4 -38q-20 -95 -105 -149t-206 -54q-53 0 -111 14t-93 40q15 24 44.5 74
t44.5 74q50 -30 122 -30q71 0 84 50v2q1 3 1 10q0 20 -16 32.5t-46 12.5q-75 0 -111 -12q6 30 17.5 89.5t16.5 89.5q-79 20 -127 63q-103 95 -103 269q0 77 21 185q95 491 589 491q240 0 382 -142q-29 -33 -86.5 -100t-85.5 -100q-19 41 -96.5 86t-172.5 45
q-104 0 -176.5 -81.5t-96.5 -197.5z" />
    <glyph glyph-name="AE" unicode="&#xc6;" 
d="M939 32q-77 -37 -194 -37h-342q28 229 34 282q-27 3 -46 3q-82 0 -127 -10q-26 -69 -52 -135t-53 -135l-225 45q97 219 277.5 674t242.5 604q24 -1 72.5 -2t72.5 -1q43 2 157 2h125h260q-7 -35 -20.5 -103t-19.5 -103h-17q-36 0 -81.5 -1t-112.5 -1h-142
q-5 -45 -14.5 -134t-14.5 -134q16 0 46.5 2t79.5 2h106q-7 -34 -20.5 -104t-19.5 -104h-106q-47 0 -71.5 -2t-38.5 -2q-6 -72 -18.5 -217t-18.5 -218h157q27 0 53 6.5t38 12.5l13 6q4 -32 10.5 -98t9.5 -98zM462 489q7 61 28 254t27 254q-24 -62 -97 -256t-96 -256
q40 4 138 4z" />
    <glyph glyph-name="Ccedilla" unicode="&#xc7;" 
d="M710 1128q-45 0 -93 -28t-96 -84.5t-89.5 -157t-66.5 -230.5q-16 -84 -16 -157q0 -127 44 -200t110 -73h14q87 0 137.5 43.5t110.5 150.5q37 -23 110.5 -68.5t109.5 -68.5q-63 -95 -161.5 -159.5t-211.5 -87.5q-2 -6 -5.5 -23.5l-6.5 -32.5t-3 -16q66 -3 108.5 -38.5
t42.5 -98.5q0 -20 -4 -39q-19 -95 -104 -148.5t-206 -53.5q-53 0 -110.5 14t-92.5 40q15 24 44 73t44 74q48 -29 124 -29q69 0 82 49v2q1 3 1 10q0 20 -16 33t-46 13q-72 0 -111 -13q6 30 17.5 91t17.5 91q-135 24 -205 110q-99 129 -99 323q0 89 21 197q57 296 229 496
q75 87 186.5 143.5t235.5 56.5q117 0 217.5 -56t140.5 -169q-42 -21 -127.5 -62.5t-128.5 -62.5q-19 90 -50 118t-98 28z" />
    <glyph glyph-name="Egrave" unicode="&#xc8;" 
d="M1043 1527l-102 -165q-114 40 -256 124.5t-204 162.5l145 163q70 -81 193 -165t224 -120zM283 1319q57 4 205 4h98h110q84 0 207.5 -1.5t151.5 -1.5h16q-6 -34 -20 -101t-20 -101h-529q-8 -45 -25.5 -134.5t-26.5 -134.5h338q-6 -34 -19.5 -101.5t-19.5 -101.5h-338
q-1 -5 -3 -15.5t-3 -15.5q-22 -116 -49 -248.5t-33 -162.5q70 0 208 1t208 1q25 0 57.5 7t52.5 13l20 7q5 -33 17 -99.5t17 -99.5q-10 -3 -37 -10.5t-43.5 -11.5t-48 -8t-65.5 -4h-682q42 220 128 659.5t128 659.5z" />
    <glyph glyph-name="Eacute" unicode="&#xc9;" 
d="M493 1543q209 66 452 259q17 -28 68 -91t68 -91q-93 -78 -247.5 -154.5t-281.5 -115.5q-10 29 -29.5 96.5t-29.5 96.5zM283 1319q57 4 205 4h98h110q84 0 207.5 -1.5t151.5 -1.5h16q-6 -34 -20 -101t-20 -101h-529q-8 -45 -25.5 -134.5t-26.5 -134.5h338
q-6 -34 -19.5 -101.5t-19.5 -101.5h-338q-1 -5 -3 -15.5t-3 -15.5q-22 -116 -49 -248.5t-33 -162.5q70 0 208 1t208 1q25 0 57.5 7t52.5 13l20 7q5 -33 17 -99.5t17 -99.5q-10 -3 -37 -10.5t-43.5 -11.5t-48 -8t-65.5 -4h-682q42 220 128 659.5t128 659.5z" />
    <glyph glyph-name="Ecircumflex" unicode="&#xca;" 
d="M771 1803l338 -292l-169 -156l-191 201l-268 -189l-128 156zM283 1319q57 4 205 4h98h110q84 0 207.5 -1.5t151.5 -1.5h16q-6 -34 -20 -101t-20 -101h-529q-8 -45 -25.5 -134.5t-26.5 -134.5h338q-6 -34 -19.5 -101.5t-19.5 -101.5h-338q-1 -5 -3 -15.5t-3 -15.5
q-22 -116 -49 -248.5t-33 -162.5q70 0 208 1t208 1q25 0 57.5 7t52.5 13l20 7q5 -33 17 -99.5t17 -99.5q-10 -3 -37 -10.5t-43.5 -11.5t-48 -8t-65.5 -4h-682q42 220 128 659.5t128 659.5z" />
    <glyph glyph-name="Edieresis" unicode="&#xcb;" 
d="M848 1673l281 -3l-46 -238l-282 1zM428 1673h279l-47 -240h-279zM283 1319q57 4 205 4h98h110q84 0 207.5 -1.5t151.5 -1.5h16q-6 -34 -20 -101t-20 -101h-529q-8 -45 -25.5 -134.5t-26.5 -134.5h338q-6 -34 -19.5 -101.5t-19.5 -101.5h-338q-1 -5 -3 -15.5t-3 -15.5
q-22 -116 -49 -248.5t-33 -162.5q70 0 208 1t208 1q25 0 57.5 7t52.5 13l20 7q5 -33 17 -99.5t17 -99.5q-10 -3 -37 -10.5t-43.5 -11.5t-48 -8t-65.5 -4h-682q42 220 128 659.5t128 659.5z" />
    <glyph glyph-name="Igrave" unicode="&#xcc;" 
d="M1004 1527l-102 -165q-114 40 -256 124.5t-204 162.5l145 163q70 -81 193 -165t224 -120zM314 1324q196 5 354 5q123 0 368 -3q-7 -35 -21 -105.5t-21 -105.5q-65 0 -125 2.5t-104 2.5q-29 -150 -87.5 -450.5t-87.5 -450.5q22 0 39 0.5t43 0.5q75 0 143 -4
q-7 -36 -20.5 -108.5t-20.5 -108.5q-101 6 -209 6q-22 0 -73 -0.5t-82 -0.5q-27 0 -145.5 -3.5t-206.5 -3.5l42 216q107 5 181 5h52q29 150 88 450.5t88 450.5q-144 -2 -230 -7q6 35 17.5 105.5t17.5 106.5z" />
    <glyph glyph-name="Iacute" unicode="&#xcd;" 
d="M454 1543q209 66 452 259q17 -28 68 -91t68 -91q-93 -78 -247.5 -154.5t-281.5 -115.5q-9 29 -29.5 96.5t-29.5 96.5zM314 1324q196 5 354 5q123 0 368 -3q-7 -35 -21 -105.5t-21 -105.5q-65 0 -125 2.5t-104 2.5q-29 -150 -87.5 -450.5t-87.5 -450.5q22 0 39 0.5t43 0.5
q75 0 143 -4q-7 -36 -20.5 -108.5t-20.5 -108.5q-101 6 -209 6q-22 0 -73 -0.5t-82 -0.5q-27 0 -145.5 -3.5t-206.5 -3.5l42 216q107 5 181 5h52q29 150 88 450.5t88 450.5q-144 -2 -230 -7q6 35 17.5 105.5t17.5 106.5z" />
    <glyph glyph-name="Icircumflex" unicode="&#xce;" 
d="M732 1803l338 -292l-169 -156l-191 201l-268 -189l-128 156zM314 1324q196 5 354 5q123 0 368 -3q-7 -35 -21 -105.5t-21 -105.5q-65 0 -125 2.5t-104 2.5q-29 -150 -87.5 -450.5t-87.5 -450.5q22 0 39 0.5t43 0.5q75 0 143 -4q-7 -36 -20.5 -108.5t-20.5 -108.5
q-101 6 -209 6q-22 0 -73 -0.5t-82 -0.5q-27 0 -145.5 -3.5t-206.5 -3.5l42 216q107 5 181 5h52q29 150 88 450.5t88 450.5q-144 -2 -230 -7q6 35 17.5 105.5t17.5 106.5z" />
    <glyph glyph-name="Idieresis" unicode="&#xcf;" 
d="M809 1673l281 -3l-46 -238l-282 1zM389 1673h279l-47 -240h-279zM314 1324q196 5 354 5q123 0 368 -3q-7 -35 -21 -105.5t-21 -105.5q-65 0 -125 2.5t-104 2.5q-29 -150 -87.5 -450.5t-87.5 -450.5q22 0 39 0.5t43 0.5q75 0 143 -4q-7 -36 -20.5 -108.5t-20.5 -108.5
q-101 6 -209 6q-22 0 -73 -0.5t-82 -0.5q-27 0 -145.5 -3.5t-206.5 -3.5l42 216q107 5 181 5h52q29 150 88 450.5t88 450.5q-144 -2 -230 -7q6 35 17.5 105.5t17.5 106.5z" />
    <glyph glyph-name="quotedbl" unicode="&#x22;" 
d="M820 1464l256 -39q-39 -203 -76.5 -337t-95.5 -294l-195 52q72 196 72 325q0 34 -6 64zM398 1464l256 -39q-39 -203 -76.5 -337t-95.5 -294l-195 52q72 196 72 325q0 34 -6 64z" />
    <glyph glyph-name="numbersign" unicode="#" 
d="M515 782q-12 -37 -35.5 -112t-34.5 -112q25 0 76 -0.5t76 -0.5q10 37 30.5 110.5t30.5 110.5q-24 0 -71.5 2t-71.5 2zM289 -19q-40 1 -119 2t-118 2q36 142 107 373q-69 -1 -128 -19q-2 30 -5.5 90.5t-5.5 91.5q72 24 205 34q14 36 25 71.5t23.5 81t20.5 70.5
q-3 0 -9 0.5t-9 0.5q-109 -7 -154 -22q-3 31 -9 92.5t-9 91.5q67 24 239 34q56 177 101 359q13 0 86.5 -1t93.5 -1q35 0 49 -1q-57 -222 -96 -353q23 0 68 -2t67 -2q53 170 116 348q38 0 114 0.5t114 0.5q-22 -54 -37.5 -101t-36 -118t-37.5 -126h122q-6 -33 -18.5 -99
t-19.5 -99q-23 0 -70 2t-70 2q-12 -38 -34.5 -113.5t-33.5 -113.5q27 0 81 0.5t81 0.5q-7 -32 -21 -98t-21 -98l-183 3q-107 -351 -117 -388q-38 -1 -115 -1t-116 -1q19 63 59.5 193t59.5 193q-23 0 -68 -0.5t-68 -0.5z" />
    <glyph glyph-name="dollar" unicode="$" 
d="M300 703q-131 61 -131 201q0 32 8 75q16 88 78.5 152.5t148 97t185.5 37.5q5 31 14 92.5t14 92.5q41 -3 123 -7.5t123 -6.5q-9 -29 -27.5 -87t-28.5 -87q105 -12 178 -66t95 -144l-240 -90v8q0 38 -22.5 56t-64.5 25q-10 -42 -30.5 -125.5t-31.5 -124.5q79 -28 133 -54
q156 -79 156 -246q0 -33 -8 -78q-34 -178 -161.5 -267.5t-309.5 -92.5l-39 -183l-231 9q10 30 28.5 91t27.5 92q-129 21 -188 96.5t-59 184.5q0 41 10 94q41 0 123.5 0.5t123.5 0.5q-8 -25 -11 -41q-3 -18 -3 -33q0 -77 62 -92q15 60 46 180.5t47 180.5q-37 11 -138 59z
M546 1063q-43 0 -74 -27t-40 -66q-4 -17 -4 -35q0 -60 66 -78q9 35 26.5 103.5t25.5 102.5zM550 262q71 10 113.5 48.5t57.5 116.5q5 27 5 43q0 39 -21 61t-74 47q-14 -53 -41 -158t-40 -158z" />
    <glyph glyph-name="oe" unicode="&#x153;" 
d="M963 218q-5 -9 -15 -23.5t-42.5 -52t-68.5 -66.5t-91.5 -52.5t-112.5 -23.5q-130 0 -203 95q-89 -95 -169 -95q-36 0 -61 4t-61 25.5t-65 61.5q-54 73 -54 203q0 67 18 165q24 124 45 176q17 46 35.5 88t53 99t72 97t92.5 69t114 29q54 0 85 -15.5t61 -47.5
q11 -11 19 -23q71 87 199 87q77 0 131 -39.5t76.5 -97t22.5 -125.5q0 -56 -19 -107.5t-61.5 -104.5t-123 -100t-193.5 -82l-23 -88q7 -37 16.5 -51.5t36.5 -14.5q51 0 74 20.5t36 61.5q30 -12 88 -36t88 -36zM691 609q-1 -3 -2 -10t-2 -11q100 41 133.5 75t33.5 80
q0 33 -16 49t-51 16q-29 0 -51 -39.5t-45 -159.5zM295 208q37 0 67 40.5t39 89.5l72 360q4 28 4 39q0 75 -58 75q-15 0 -41 -38.5t-57.5 -119.5t-51.5 -180l-3 -18q-13 -71 -13 -131q0 -117 42 -117z" />
    <glyph glyph-name="bracketleft" unicode="[" 
d="M1057 1483q-2 -35 -6 -103t-6 -103q-49 -5 -292 -12q-43 -220 -128.5 -660t-128.5 -660q78 3 177 3h10q85 0 112 -8q-5 -34 -17 -104t-17 -104q-72 9 -134 9q-25 0 -203.5 -1t-229.5 -1l42.5 212.5t45.5 228.5q14 74 74 390q20 101 51.5 271t39.5 211q13 70 41 210.5
t41 210.5q52 0 227.5 2t195.5 2q68 3 105 6z" />
    <glyph glyph-name="bracketright" unicode="]" 
d="M412 1483q37 -3 103 -6q20 0 195 -2t227 -2q-14 -70 -41.5 -210.5t-40.5 -210.5q-29 -153 -95 -482q-18 -91 -44 -218.5t-34 -171.5q-16 -84 -41 -215.5t-43 -225.5q-51 0 -229 1t-203 1q-60 0 -138 -9q7 34 22.5 103.5t23.5 104.5q32 8 116 8h10q99 0 175 -3l258 1320
q-243 7 -289 12q12 34 34.5 103t33.5 103z" />
    <glyph glyph-name="parenleft" unicode="(" 
d="M1061 1250h-7q-203 0 -337.5 -152.5t-197.5 -481.5q-24 -128 -24 -227q0 -201 87.5 -300.5t233.5 -100.5q-9 -41 -25 -124.5t-25 -125.5q-116 1 -213 37.5t-172 108t-117.5 189.5t-42.5 271q0 124 28 268q44 227 122.5 392.5t188.5 269t245 154.5t301 56z" />
    <glyph glyph-name="parenright" unicode=")" 
d="M314 1250l45 234q270 -9 411 -145t141 -421q0 -135 -33 -306q-35 -179 -100.5 -325.5t-148.5 -246.5t-184.5 -168.5t-207 -100.5t-216.5 -33q8 41 24 125t24 125q88 0 169.5 37t154 110.5t129 196.5t88.5 284q29 146 29 263q0 371 -319 371h-6z" />
    <glyph glyph-name="hyphen" unicode="-" 
d="M134 654q67 3 146 3q54 0 146 -1.5t122 -1.5h119q127 0 341 -2h18q-8 -41 -24 -122.5t-24 -122.5h-18q-134 3 -461 3q-14 0 -95.5 1.5t-138.5 1.5q-97 0 -172 -4q4 20 11.5 60.5t11.5 61.5z" />
    <glyph glyph-name="plus" unicode="+" 
d="M105 616q54 10 145 10h39h160q13 65 38 195.5t38 195.5q41 0 123 0.5t123 0.5q-13 -65 -39 -195.5t-39 -195.5q71 0 144.5 -1t96.5 -1h82l-45 -234h-14q-95 0 -304 3q-12 -65 -37.5 -196.5t-38.5 -197.5h-252q12 65 38 195.5t38 195.5h-89q-185 0 -251 -9q8 39 22.5 117
t21.5 117z" />
    <glyph glyph-name="less" unicode="&#x3c;" 
d="M865 141q-30 -32 -90.5 -95.5t-91.5 -94.5q-23 49 -100 120q-35 35 -145 111t-213 143t-107 70q7 37 21 112.5t21 113.5q142 100 360 238.5t326 194.5q65 33 94 42l90 -207q-196 -94 -637 -390q43 -35 157.5 -104.5t202 -134t112.5 -119.5z" />
    <glyph glyph-name="greater" unicode="&#x3e;" 
d="M10 166q46 55 159.5 118t254.5 129.5t199 102.5q-316 288 -465 376q24 30 71.5 90.5t71.5 90.5q22 -7 77 -42q86 -56 250 -194t268 -239q-3 -33 -9.5 -100t-9.5 -100q-7 -4 -134.5 -70.5t-267.5 -142.5t-189 -111q-105 -73 -146 -120q-21 36 -65 106t-65 106z" />
    <glyph glyph-name="slash" unicode="/" 
d="M-13 -38q147 223 468.5 744t466.5 774l192 -108q-164 -280 -934 -1521q-32 19 -96.5 56t-96.5 55z" />
    <glyph glyph-name="one" unicode="1" 
d="M707 1322q39 -7 116.5 -22t116.5 -23q-42 -215 -125.5 -643t-124.5 -643h-258q31 161 92.5 481t92.5 481q-172 -172 -350 -262q-17 35 -51 106.5t-51 107.5q95 43 185 101.5t148.5 107.5t109.5 99.5t70.5 73.5t28.5 35z" />
    <glyph glyph-name="two" unicode="2" 
d="M456 864q-43 -7 -129.5 -21t-129.5 -21q-2 26 -2 46q0 46 4 66q1 4 2 12.5t2 12.5q33 149 158.5 248t310.5 99q177 0 268 -66t91 -207q0 -54 -11 -108q-6 -32 -15.5 -62t-24 -57.5t-26.5 -49t-33 -47t-33 -40t-37.5 -38t-35 -32.5t-36.5 -32.5t-33 -28.5q-12 -10 -81 -64
t-123.5 -98.5t-104.5 -93t-54 -67.5h516q-7 -36 -21 -107.5t-21 -107.5h-860q3 16 8 48.5t8 46.5q8 42 22 81q48 128 264 299q32 25 101 73t121.5 87.5t110.5 89.5t94.5 101.5t46.5 99.5q6 28 6 53q0 116 -133 116q-63 0 -119 -37t-70 -107q-5 -23 -5 -46q0 -22 4 -41z" />
    <glyph glyph-name="three" unicode="3" 
d="M6 333h251q0 -142 178 -142q86 0 151 56.5t79 131.5q6 33 6 58q0 47 -17.5 75.5t-51.5 53.5q-74 55 -216 55q6 34 19.5 100.5t19.5 99.5h16q105 0 186 48.5t97 139.5q2 14 2 22q0 41 -33.5 66t-94.5 25q-77 0 -152.5 -26t-95.5 -55l-138 171q3 6 19 17t51 27t81 30
t116.5 24t149.5 10h11q54 0 110.5 -13t111 -39.5t89.5 -76.5t35 -115q0 -20 -5 -50q-17 -95 -97.5 -184.5t-158.5 -103.5q206 -72 206 -273q0 -42 -9 -87q-39 -199 -162 -299.5t-373 -100.5q-381 0 -381 355z" />
    <glyph glyph-name="four" unicode="4" 
d="M632 603q10 54 31 162.5t32 162.5q-107 -140 -319 -327q42 1 127.5 1t128.5 1zM81 558q6 6 107.5 98.5t208.5 193.5t221 232.5t159 223.5q41 0 124 1t125 1q-23 -117 -68.5 -352t-68.5 -353h127q-7 -35 -20.5 -105t-20.5 -105h-127q-13 -65 -38 -196t-38 -197h-257
q12 65 38 195t38 195q-76 0 -227 -1t-226 -1q-10 29 -29 85t-28 85z" />
    <glyph glyph-name="five" unicode="5" 
d="M534 709q-115 -2 -211 -111q-29 14 -87 40t-87 40q29 102 88.5 305.5t89.5 304.5q113 0 338 -1t338 -1q-7 -33 -20 -98.5t-19 -98.5h-439q-9 -33 -27.5 -99.5t-27.5 -99.5q42 10 120 10q125 0 195 -37q35 -21 61 -42.5t51.5 -55.5t39 -81.5t13.5 -107.5q0 -53 -14 -128
q-22 -115 -75.5 -203.5t-127.5 -141t-158.5 -78.5t-177.5 -27h-2q-283 0 -355 236q42 18 125 55t125 55q10 -61 48 -97.5t98 -36.5q77 0 145.5 59t92.5 181q7 36 7 74q0 85 -41 135t-106 50z" />
    <glyph glyph-name="six" unicode="6" 
d="M1043 1091q-220 0 -386.5 -94t-252.5 -282q4 4 11.5 9.5t31.5 20.5t49.5 26.5t63.5 21t76 9.5q134 0 215 -95.5t81 -239.5q0 -112 -42 -202.5t-114 -148t-165.5 -88.5t-199.5 -31q-143 0 -241.5 106.5t-98.5 270.5q0 198 71.5 372t197 300t305 198.5t387.5 72.5
q2 -37 5.5 -112.5t5.5 -113.5zM331 365q0 -74 30.5 -119.5t95.5 -45.5q79 0 148 71t69 167q0 66 -32 114.5t-74 48.5q-105 0 -171 -65.5t-66 -170.5z" />
    <glyph glyph-name="seven" unicode="7" 
d="M327 1292q43 0 136.5 -3t131.5 -3q77 0 233 3.5t227 3.5h41q12 -27 35 -81.5t34 -81.5q-40 -48 -110.5 -132t-103 -123t-88.5 -108.5t-83 -107t-69.5 -98.5t-64.5 -103t-52 -101t-47.5 -111.5t-35.5 -115t-31 -130.5h-261q29 149 82 279.5t142.5 263.5t184.5 247.5
t250 282.5q-88 -3 -282 -3q-88 0 -150 3q-1 -1 -8.5 -18.5t-17.5 -43t-15 -42.5q-40 10 -120.5 32t-120.5 32q40 78 163 259z" />
    <glyph glyph-name="eight" unicode="8" 
d="M469 203q28 0 61.5 10t68.5 30.5t62.5 58t36.5 86.5q3 16 3 34q0 60 -37 116.5t-111 93.5q-102 -42 -164.5 -110t-76.5 -134q-4 -19 -4 -39q0 -38 16 -68t41.5 -46t52 -24t51.5 -8zM593 840q76 16 120 61.5t52 88.5q3 15 3 27q0 25 -10.5 41t-31.5 22.5t-38.5 8.5
t-45.5 2q-31 0 -52 -2.5t-46.5 -12t-42 -31t-22.5 -55.5q-2 -12 -2 -21q0 -41 27.5 -78t88.5 -51zM681 1293q168 0 254 -63.5t86 -176.5q0 -34 -7 -68q-16 -77 -83.5 -153t-138.5 -96q76 -35 123 -107t47 -171q0 -35 -8 -80q-22 -116 -98 -204.5t-187.5 -135.5t-240.5 -47
q-174 0 -279 83.5t-105 226.5q0 34 8 77q24 128 109 221.5t193 136.5q-54 17 -92 78.5t-38 130.5q0 23 4 40q31 144 146.5 226t306.5 82z" />
    <glyph glyph-name="nine" unicode="9" 
d="M627 1106q-77 0 -128.5 -45.5t-63.5 -102.5q-4 -17 -4 -38q0 -62 40.5 -99t102.5 -37q111 0 203 86q4 50 4 71q0 84 -33.5 124.5t-120.5 40.5zM179 955q31 156 155.5 251.5t322.5 95.5q367 0 367 -399q0 -109 -29 -259q-16 -83 -34 -150t-44.5 -135.5t-58 -120.5t-76 -99
t-98 -76.5t-123.5 -47t-152 -17.5q-88 0 -153 11t-113.5 37t-80 52.5t-73.5 72.5l204 153q36 -66 83 -92.5t132 -26.5q118 0 203.5 101.5t118.5 274.5l8 50q-74 -48 -220 -48q-147 0 -246.5 83t-99.5 219q0 36 7 70z" />
    <glyph glyph-name="equal" unicode="=" 
d="M56 394q142 8 367 8q90 0 243 -4t236 -4q-7 -38 -21.5 -112t-22.5 -112q-86 0 -246.5 2t-252.5 2q-25 0 -75.5 1t-76.5 1q-89 0 -193 -6q7 38 21 112.5t21 111.5zM140 861q188 -12 346 -12q95 0 248 5t253 5q-7 -37 -20.5 -110.5t-20.5 -109.5q-96 0 -250 -6t-253 -6
q-92 0 -346 16q3 17 11.5 62.5t12.5 64.5q12 62 19 91z" />
    <glyph glyph-name="backslash" unicode="\" 
d="M838 -64q-39 -12 -119 -35.5t-119 -35.5q-8 34 -69 296.5t-103.5 448t-95 420t-76.5 356.5q39 12 119 34t119 34q47 -254 166 -775t178 -743z" />
    <glyph glyph-name="asciicircum" unicode="^" 
d="M659 1101l405 -513q-30 -27 -91.5 -82t-92.5 -82q-46 59 -139 175t-139 175q-68 -58 -204.5 -173t-204.5 -173q-20 26 -59 77.5t-59 76.5q98 86 292.5 259.5t291.5 259.5z" />
    <glyph glyph-name="underscore" unicode="_" 
d="M-53 -121h946q-7 -36 -20.5 -107t-20.5 -106h-950z" />
    <glyph glyph-name="grave" unicode="`" 
d="M566 1497q35 -77 214 -214.5t259 -170.5l-143 -218q-366 193 -536 428z" />
    <glyph glyph-name="question" unicode="?" 
d="M291 270h352q-8 -45 -26 -135t-26 -135h-352q9 45 26.5 135t25.5 135zM171 1215q61 45 129.5 73.5t136.5 39.5t109 14t94 3h13q174 0 283.5 -73t109.5 -202q0 -34 -8 -79q-5 -28 -13 -52.5t-20.5 -47t-22 -39t-29 -36.5t-28.5 -30t-34 -29t-32.5 -24.5t-36 -25
t-33.5 -22.5q-127 -89 -150 -206q-2 -8 -5 -24.5t-4 -24.5q-46 0 -136 0.5t-136 0.5q1 7 3.5 21.5t4.5 22.5q33 172 230 320l54 39t51.5 38.5t37 33.5t32.5 42t16 46q4 20 4 43q0 51 -47.5 83.5t-117.5 32.5q-179 0 -318 -140q-23 33 -68.5 100.5t-68.5 101.5z" />
    <glyph glyph-name="tilde" unicode="~" 
d="M414 807q64 0 113.5 -23t78.5 -55.5t51.5 -65t45 -55.5t46.5 -23q100 0 144 158l198 -54q-7 -36 -21.5 -73.5t-46 -82t-73 -78.5t-107.5 -57t-145 -23q-62 0 -109 23t-73.5 55.5t-48 64.5t-46.5 55t-55 23q-41 0 -85.5 -43t-75.5 -112q-27 19 -80.5 55t-80.5 55
q116 256 370 256z" />
    <glyph glyph-name="exclamdown" unicode="&#xa1;" 
d="M131 -328l197 910l283 1l-165 -911h-315zM675 742l-350 1l53 270l350 -1z" />
    <glyph glyph-name="Ograve" unicode="&#xd2;" 
d="M1050 1527l-102 -165q-114 40 -256 124.5t-204 162.5l145 163q70 -81 193 -165t224 -120zM709 1350q32 0 61.5 -3.5t66 -15.5t66.5 -31t59.5 -52.5t50 -77.5t33 -109t12.5 -144q0 -115 -28 -270q0 -2 -1 -5.5t-1 -5.5q-24 -123 -67 -234.5t-94 -184.5
q-77 -109 -193.5 -171t-241.5 -62q-101 0 -191 35.5t-133 107.5q-57 94 -57 240q0 95 23 212q48 244 110 384.5t138 223.5q65 71 168.5 116t218.5 47zM471 187q49 0 98.5 45.5t88 115.5t67 146.5t42.5 145.5q1 3 2 8.5t2 8.5q29 143 29 258q0 232 -131 232q-67 0 -135 -82
t-118.5 -207t-78.5 -266q-23 -115 -23 -196q0 -209 157 -209z" />
    <glyph glyph-name="Oacute" unicode="&#xd3;" 
d="M500 1543q209 66 452 259q17 -28 68 -91t68 -91q-93 -78 -247.5 -154.5t-281.5 -115.5q-10 29 -29.5 96.5t-29.5 96.5zM709 1350q32 0 61.5 -3.5t66 -15.5t66.5 -31t59.5 -52.5t50 -77.5t33 -109t12.5 -144q0 -115 -28 -270q0 -2 -1 -5.5t-1 -5.5q-24 -123 -67 -234.5
t-94 -184.5q-77 -109 -193.5 -171t-241.5 -62q-101 0 -191 35.5t-133 107.5q-57 94 -57 240q0 95 23 212q48 244 110 384.5t138 223.5q65 71 168.5 116t218.5 47zM471 187q49 0 98.5 45.5t88 115.5t67 146.5t42.5 145.5q1 3 2 8.5t2 8.5q29 143 29 258q0 232 -131 232
q-67 0 -135 -82t-118.5 -207t-78.5 -266q-23 -115 -23 -196q0 -209 157 -209z" />
    <glyph glyph-name="Ocircumflex" unicode="&#xd4;" 
d="M778 1803l338 -292l-169 -156l-191 201l-268 -189l-128 156zM709 1350q32 0 61.5 -3.5t66 -15.5t66.5 -31t59.5 -52.5t50 -77.5t33 -109t12.5 -144q0 -115 -28 -270q0 -2 -1 -5.5t-1 -5.5q-24 -123 -67 -234.5t-94 -184.5q-77 -109 -193.5 -171t-241.5 -62
q-101 0 -191 35.5t-133 107.5q-57 94 -57 240q0 95 23 212q48 244 110 384.5t138 223.5q65 71 168.5 116t218.5 47zM471 187q49 0 98.5 45.5t88 115.5t67 146.5t42.5 145.5q1 3 2 8.5t2 8.5q29 143 29 258q0 232 -131 232q-67 0 -135 -82t-118.5 -207t-78.5 -266
q-23 -115 -23 -196q0 -209 157 -209z" />
    <glyph glyph-name="Otilde" unicode="&#xd5;" 
d="M648 1701q48 0 85 -7.5t64.5 -24.5t39.5 -27t34 -32q41 -41 76 -41q37 0 61.5 24t38.5 76l172 -54q-17 -41 -39.5 -76.5t-56.5 -71t-82.5 -56t-106.5 -20.5q-32 0 -58.5 5.5t-53 21t-37 22t-37 30t-27.5 23.5q-21 17 -35 22.5t-46 5.5q-31 0 -57 -26.5t-42 -73.5l-178 78
q21 38 47 71t61 64t81 49t96 18zM709 1350q32 0 61.5 -3.5t66 -15.5t66.5 -31t59.5 -52.5t50 -77.5t33 -109t12.5 -144q0 -115 -28 -270q0 -2 -1 -5.5t-1 -5.5q-24 -123 -67 -234.5t-94 -184.5q-77 -109 -193.5 -171t-241.5 -62q-101 0 -191 35.5t-133 107.5q-57 94 -57 240
q0 95 23 212q48 244 110 384.5t138 223.5q65 71 168.5 116t218.5 47zM471 187q49 0 98.5 45.5t88 115.5t67 146.5t42.5 145.5q1 3 2 8.5t2 8.5q29 143 29 258q0 232 -131 232q-67 0 -135 -82t-118.5 -207t-78.5 -266q-23 -115 -23 -196q0 -209 157 -209z" />
    <glyph glyph-name="Odieresis" unicode="&#xd6;" 
d="M855 1673l281 -3l-46 -238l-282 1zM435 1673h279l-47 -240h-279zM709 1350q32 0 61.5 -3.5t66 -15.5t66.5 -31t59.5 -52.5t50 -77.5t33 -109t12.5 -144q0 -115 -28 -270q0 -2 -1 -5.5t-1 -5.5q-24 -123 -67 -234.5t-94 -184.5q-77 -109 -193.5 -171t-241.5 -62
q-101 0 -191 35.5t-133 107.5q-57 94 -57 240q0 95 23 212q48 244 110 384.5t138 223.5q65 71 168.5 116t218.5 47zM471 187q49 0 98.5 45.5t88 115.5t67 146.5t42.5 145.5q1 3 2 8.5t2 8.5q29 143 29 258q0 232 -131 232q-67 0 -135 -82t-118.5 -207t-78.5 -266
q-23 -115 -23 -196q0 -209 157 -209z" />
    <glyph glyph-name="Oslash" unicode="&#xd8;" 
d="M1029 1128q29 -85 29 -210q0 -124 -28 -271q0 -2 -1 -5.5t-1 -5.5q-24 -123 -67 -234.5t-94 -184.5q-77 -109 -193.5 -171t-241.5 -62q-129 0 -224 51q-19 -25 -56.5 -75t-56.5 -75q-23 17 -69.5 51.5t-69.5 52.5q22 29 66 87.5t66 87.5q-38 85 -38 201q0 92 24 214
q48 244 110 384.5t138 223.5q65 71 168.5 116t218.5 47q135 0 219 -68q18 24 55 73t55 73q23 -17 69.5 -50.5t70.5 -50.5q-25 -33 -74.5 -99.5t-74.5 -99.5zM355 232q19 -26 45.5 -35.5t70.5 -9.5q103 0 186 139q28 43 61 140t49 174q1 3 2 8.5t2 8.5q16 85 24 160
q-73 -98 -220 -293t-220 -292zM774 1076q-32 71 -105 71q-49 0 -85.5 -21.5t-76.5 -74.5q-107 -141 -170 -459q-13 -63 -18 -121q61 80 455 605z" />
    <glyph glyph-name="multiply" unicode="&#xd7;" 
d="M317 999q33 -26 75.5 -80t94.5 -127t72 -99l366 297q23 -29 69 -87.5t69 -87.5q-61 -50 -183.5 -148t-183.5 -148q60 -77 128.5 -171t117.5 -157q-34 -28 -100.5 -82t-99.5 -82q-84 116 -242 326q-60 -52 -180.5 -157t-180.5 -158q-23 30 -69.5 90.5t-69.5 90.5l357 312
q-36 46 -95.5 126t-91.5 119.5t-53 58.5q33 27 100 81.5t100 82.5z" />
    <glyph glyph-name="Ugrave" unicode="&#xd9;" 
d="M1020 1527l-102 -165q-114 40 -256 124.5t-204 162.5l145 163q70 -81 193 -165t224 -120zM888 1350q42 -5 124 -14t124 -14q-16 -46 -33 -127q-1 -5 -2.5 -14.5t-2.5 -14.5q-16 -80 -39.5 -210.5t-33.5 -180.5q-2 -10 -6 -29.5t-6 -29.5q-22 -111 -37.5 -178.5
t-43 -154.5t-65 -151t-86.5 -111q-127 -122 -366 -131q-185 0 -264.5 81t-79.5 244q0 61 11 141q14 111 59 339q59 302 112 534h258q-66 -298 -122 -586q-11 -55 -27 -141q-22 -117 -24 -154q-3 -75 -3 -82q0 -34 4.5 -60t16 -51.5t36.5 -39.5t62 -15q33 1 62 11t51.5 24
t43 40t35.5 49.5t29.5 63t24 70t21 81t19 85.5t18.5 94q9 47 36 199t46 249q20 105 48 184z" />
    <glyph glyph-name="Uacute" unicode="&#xda;" 
d="M470 1543q209 66 452 259q17 -28 68 -91t68 -91q-93 -78 -247.5 -154.5t-281.5 -115.5q-9 29 -29.5 96.5t-29.5 96.5zM888 1350q42 -5 124 -14t124 -14q-16 -46 -33 -127q-1 -5 -2.5 -14.5t-2.5 -14.5q-16 -80 -39.5 -210.5t-33.5 -180.5q-2 -10 -6 -29.5t-6 -29.5
q-22 -111 -37.5 -178.5t-43 -154.5t-65 -151t-86.5 -111q-127 -122 -366 -131q-185 0 -264.5 81t-79.5 244q0 61 11 141q14 111 59 339q59 302 112 534h258q-66 -298 -122 -586q-11 -55 -27 -141q-22 -117 -24 -154q-3 -75 -3 -82q0 -34 4.5 -60t16 -51.5t36.5 -39.5t62 -15
q33 1 62 11t51.5 24t43 40t35.5 49.5t29.5 63t24 70t21 81t19 85.5t18.5 94q9 47 36 199t46 249q20 105 48 184z" />
    <glyph glyph-name="Ucircumflex" unicode="&#xdb;" 
d="M748 1803l338 -292l-169 -156l-191 201l-268 -189l-128 156zM888 1350q42 -5 124 -14t124 -14q-16 -46 -33 -127q-1 -5 -2.5 -14.5t-2.5 -14.5q-16 -80 -39.5 -210.5t-33.5 -180.5q-2 -10 -6 -29.5t-6 -29.5q-22 -111 -37.5 -178.5t-43 -154.5t-65 -151t-86.5 -111
q-127 -122 -366 -131q-185 0 -264.5 81t-79.5 244q0 61 11 141q14 111 59 339q59 302 112 534h258q-66 -298 -122 -586q-11 -55 -27 -141q-22 -117 -24 -154q-3 -75 -3 -82q0 -34 4.5 -60t16 -51.5t36.5 -39.5t62 -15q33 1 62 11t51.5 24t43 40t35.5 49.5t29.5 63t24 70
t21 81t19 85.5t18.5 94q9 47 36 199t46 249q20 105 48 184z" />
    <glyph glyph-name="Udieresis" unicode="&#xdc;" 
d="M825 1673l281 -3l-46 -238l-282 1zM405 1673h279l-47 -240h-279zM888 1350q42 -5 124 -14t124 -14q-16 -46 -33 -127q-1 -5 -2.5 -14.5t-2.5 -14.5q-16 -80 -39.5 -210.5t-33.5 -180.5q-2 -10 -6 -29.5t-6 -29.5q-22 -111 -37.5 -178.5t-43 -154.5t-65 -151t-86.5 -111
q-127 -122 -366 -131q-185 0 -264.5 81t-79.5 244q0 61 11 141q14 111 59 339q59 302 112 534h258q-66 -298 -122 -586q-11 -55 -27 -141q-22 -117 -24 -154q-3 -75 -3 -82q0 -34 4.5 -60t16 -51.5t36.5 -39.5t62 -15q33 1 62 11t51.5 24t43 40t35.5 49.5t29.5 63t24 70
t21 81t19 85.5t18.5 94q9 47 36 199t46 249q20 105 48 184z" />
    <glyph glyph-name="Yacute" unicode="&#xdd;" 
d="M493 1543q209 66 452 259q17 -28 68 -91t68 -91q-93 -78 -247.5 -154.5t-281.5 -115.5q-10 29 -29.5 96.5t-29.5 96.5zM279 18q50 99 143.5 287t143.5 287q-19 38 -195.5 303t-193.5 327q36 23 108.5 69.5t108.5 70.5q12 -39 139 -254t157 -286q42 92 126 276.5
t126 277.5l219 -96q-103 -213 -325.5 -672.5t-325.5 -673.5q-10 3 -50 16t-63 21t-57.5 21t-60.5 26z" />
    <glyph glyph-name="ntilde" unicode="&#xf1;" 
d="M600 1486q48 0 85 -7.5t64.5 -24.5t39.5 -27t34 -32q41 -41 76 -41q37 0 61.5 24t38.5 76l172 -54q-17 -41 -39.5 -76.5t-56.5 -71t-82.5 -56t-106.5 -20.5q-32 0 -58.5 5.5t-53 21t-37 22t-37 30t-27.5 23.5q-21 17 -35 22.5t-46 5.5q-31 0 -57 -26.5t-42 -73.5l-178 78
q21 38 47 71t61 64t81 49t96 18zM423 821q38 43 59.5 66t59 54.5t71.5 46.5t84 26.5t109 11.5q99 0 158.5 -42.5t59.5 -130.5q0 -27 -6 -57q-17 -87 -50.5 -259t-50.5 -259q-2 -8 -2 -21q0 -8 1 -15.5t4.5 -14t6 -11.5t9.5 -11t10 -9.5t12.5 -9.5t12.5 -8.5t14.5 -9
t14.5 -8.5q-26 -33 -77.5 -99.5t-77.5 -100.5q-35 12 -65 28t-61.5 41.5t-50 63.5t-18.5 83q0 19 5 46l93 477q8 40 8 65q0 55 -40 55q-71 0 -171 -102t-170 -213l-99 -504h-251q23 118 68.5 353.5t68.5 352.5q30 154 30 218q0 16 -4 80q40 8 120.5 24t120.5 24q2 -10 2 -35
q0 -44 -8 -196z" />
    <glyph glyph-name="ograve" unicode="&#xf2;" 
d="M1001 1312l-102 -165q-114 40 -256 124.5t-204 162.5l145 163q70 -81 193 -165t224 -120zM598 247q76 70 115 283q1 3 2 8t1 8q13 73 13 125q0 159 -123 159q-107 0 -169 -90t-94 -258q-11 -58 -11 -103q0 -85 35 -133.5t104 -48.5q40 1 67 11.5t60 38.5zM431 -6
q-184 0 -271.5 85.5t-87.5 241.5q0 67 15 143q110 568 544 568q144 0 224 -49.5t114 -151.5q18 -54 18 -136q0 -79 -15 -152q-18 -90 -45.5 -167t-72.5 -149t-102.5 -122.5t-139 -80.5t-179.5 -30h-2z" />
    <glyph glyph-name="oacute" unicode="&#xf3;" 
d="M451 1328q209 66 452 259q17 -29 68 -91t68 -91q-93 -78 -247.5 -154.5t-281.5 -115.5q-9 29 -29.5 96.5t-29.5 96.5zM598 247q76 70 115 283q1 3 2 8t1 8q13 73 13 125q0 159 -123 159q-107 0 -169 -90t-94 -258q-11 -58 -11 -103q0 -85 35 -133.5t104 -48.5
q40 1 67 11.5t60 38.5zM431 -6q-184 0 -271.5 85.5t-87.5 241.5q0 67 15 143q110 568 544 568q144 0 224 -49.5t114 -151.5q18 -54 18 -136q0 -79 -15 -152q-18 -90 -45.5 -167t-72.5 -149t-102.5 -122.5t-139 -80.5t-179.5 -30h-2z" />
    <glyph glyph-name="ocircumflex" unicode="&#xf4;" 
d="M729 1588l338 -292l-169 -156l-191 201l-268 -189l-128 156zM598 247q76 70 115 283q1 3 2 8t1 8q13 73 13 125q0 159 -123 159q-107 0 -169 -90t-94 -258q-11 -58 -11 -103q0 -85 35 -133.5t104 -48.5q40 1 67 11.5t60 38.5zM431 -6q-184 0 -271.5 85.5t-87.5 241.5
q0 67 15 143q110 568 544 568q144 0 224 -49.5t114 -151.5q18 -54 18 -136q0 -79 -15 -152q-18 -90 -45.5 -167t-72.5 -149t-102.5 -122.5t-139 -80.5t-179.5 -30h-2z" />
    <glyph glyph-name="otilde" unicode="&#xf5;" 
d="M599 1486q48 0 85 -7.5t64.5 -24.5t39.5 -27t34 -32q41 -41 76 -41q38 0 62 24t38 76l172 -54q-17 -41 -39.5 -76.5t-56.5 -71t-82.5 -56t-106.5 -20.5q-32 0 -58.5 5.5t-53 21t-37 22t-37 30t-27.5 23.5q-21 17 -35 22.5t-46 5.5q-31 0 -57 -26.5t-42 -73.5l-178 78
q21 38 47 71t61 64t81 49t96 18zM598 247q76 70 115 283q1 3 2 8t1 8q13 73 13 125q0 159 -123 159q-107 0 -169 -90t-94 -258q-11 -58 -11 -103q0 -85 35 -133.5t104 -48.5q40 1 67 11.5t60 38.5zM431 -6q-184 0 -271.5 85.5t-87.5 241.5q0 67 15 143q110 568 544 568
q144 0 224 -49.5t114 -151.5q18 -54 18 -136q0 -79 -15 -152q-18 -90 -45.5 -167t-72.5 -149t-102.5 -122.5t-139 -80.5t-179.5 -30h-2z" />
    <glyph glyph-name="odieresis" unicode="&#xf6;" 
d="M806 1458l281 -3l-46 -238l-282 1zM386 1458h279l-47 -240h-279zM598 247q76 70 115 283q1 3 2 8t1 8q13 73 13 125q0 159 -123 159q-107 0 -169 -90t-94 -258q-11 -58 -11 -103q0 -85 35 -133.5t104 -48.5q40 1 67 11.5t60 38.5zM431 -6q-184 0 -271.5 85.5t-87.5 241.5
q0 67 15 143q110 568 544 568q144 0 224 -49.5t114 -151.5q18 -54 18 -136q0 -79 -15 -152q-18 -90 -45.5 -167t-72.5 -149t-102.5 -122.5t-139 -80.5t-179.5 -30h-2z" />
    <glyph glyph-name="oslash" unicode="&#xf8;" 
d="M598 247q76 70 115 283q1 3 2 8t1 8q3 14 7 40q-61 -54 -182.5 -163t-182.5 -164q35 -62 113 -62q40 1 67 11.5t60 38.5zM980 1067q20 -24 61 -70t62 -70q-22 -19 -65 -57.5t-64 -57.5q13 -51 13 -119q0 -70 -15 -150q-17 -90 -44.5 -167t-72 -149t-102.5 -122.5
t-140 -80.5t-180 -30h-2q-180 0 -271 86q-15 -13 -44.5 -40t-44.5 -40q-20 22 -60 66.5t-60 66.5q21 19 63 57.5t63 57.5q-5 29 -5 73q0 67 15 143q110 568 544 568q157 0 242 -62q18 16 53.5 48.5t53.5 48.5zM688 802q-31 28 -82 28q-106 0 -168 -88t-94 -252
q57 52 171.5 156t172.5 156z" />
    <glyph glyph-name="ugrave" unicode="&#xf9;" 
d="M970 1312l-102 -165q-114 40 -256 124.5t-204 162.5l145 163q70 -81 193 -165t224 -120zM815 -17q-34 17 -55 37.5t-43 73t-37 139.5q-34 -48 -64 -83t-71.5 -71.5t-90.5 -56t-103 -20.5h-9q-47 0 -83.5 3t-78.5 14t-69.5 30.5t-46 54.5t-18.5 83q0 32 7 64q8 36 15.5 76
t17.5 91.5t17 85.5q74 384 74 469q0 14 -1 19q43 5 129.5 14t129.5 14v-10q0 -29 -5.5 -74.5t-19 -121.5t-25 -137t-35 -183t-37.5 -196v-3q0 -50 9.5 -65t42.5 -15q58 0 141.5 94.5t146 208t75.5 179.5q10 52 30.5 157.5t30.5 158.5h251q-23 -118 -69 -353.5t-69 -353.5
q-1 -4 -1 -11q0 -36 28.5 -74.5t63.5 -54.5q-29 -31 -88.5 -92t-89.5 -91z" />
    <glyph glyph-name="uacute" unicode="&#xfa;" 
d="M420 1328q209 66 452 259q17 -29 68 -91t68 -91q-93 -78 -247.5 -154.5t-281.5 -115.5q-10 29 -30 96.5t-29 96.5zM815 -17q-34 17 -55 37.5t-43 73t-37 139.5q-34 -48 -64 -83t-71.5 -71.5t-90.5 -56t-103 -20.5h-9q-47 0 -83.5 3t-78.5 14t-69.5 30.5t-46 54.5
t-18.5 83q0 32 7 64q8 36 15.5 76t17.5 91.5t17 85.5q74 384 74 469q0 14 -1 19q43 5 129.5 14t129.5 14v-10q0 -29 -5.5 -74.5t-19 -121.5t-25 -137t-35 -183t-37.5 -196v-3q0 -50 9.5 -65t42.5 -15q58 0 141.5 94.5t146 208t75.5 179.5q10 52 30.5 157.5t30.5 158.5h251
q-23 -118 -69 -353.5t-69 -353.5q-1 -4 -1 -11q0 -36 28.5 -74.5t63.5 -54.5q-29 -31 -88.5 -92t-89.5 -91z" />
    <glyph glyph-name="ucircumflex" unicode="&#xfb;" 
d="M698 1588l338 -292l-169 -156l-191 201l-268 -189l-128 156zM815 -17q-34 17 -55 37.5t-43 73t-37 139.5q-34 -48 -64 -83t-71.5 -71.5t-90.5 -56t-103 -20.5h-9q-47 0 -83.5 3t-78.5 14t-69.5 30.5t-46 54.5t-18.5 83q0 32 7 64q8 36 15.5 76t17.5 91.5t17 85.5
q74 384 74 469q0 14 -1 19q43 5 129.5 14t129.5 14v-10q0 -29 -5.5 -74.5t-19 -121.5t-25 -137t-35 -183t-37.5 -196v-3q0 -50 9.5 -65t42.5 -15q58 0 141.5 94.5t146 208t75.5 179.5q10 52 30.5 157.5t30.5 158.5h251q-23 -118 -69 -353.5t-69 -353.5q-1 -4 -1 -11
q0 -36 28.5 -74.5t63.5 -54.5q-29 -31 -88.5 -92t-89.5 -91z" />
    <glyph glyph-name="udieresis" unicode="&#xfc;" 
d="M775 1458l281 -3l-46 -238l-282 1zM355 1458h279l-47 -240h-279zM815 -17q-34 17 -55 37.5t-43 73t-37 139.5q-34 -48 -64 -83t-71.5 -71.5t-90.5 -56t-103 -20.5h-9q-47 0 -83.5 3t-78.5 14t-69.5 30.5t-46 54.5t-18.5 83q0 32 7 64q8 36 15.5 76t17.5 91.5t17 85.5
q74 384 74 469q0 14 -1 19q43 5 129.5 14t129.5 14v-10q0 -29 -5.5 -74.5t-19 -121.5t-25 -137t-35 -183t-37.5 -196v-3q0 -50 9.5 -65t42.5 -15q58 0 141.5 94.5t146 208t75.5 179.5q10 52 30.5 157.5t30.5 158.5h251q-23 -118 -69 -353.5t-69 -353.5q-1 -4 -1 -11
q0 -36 28.5 -74.5t63.5 -54.5q-29 -31 -88.5 -92t-89.5 -91z" />
    <glyph glyph-name="plusminus" unicode="&#xb1;" 
d="M139 854q56 10 145 10h39h160l69 357q41 0 123.5 0.5t123.5 0.5l-72 -357q71 0 145 -1t97 -1h82q-8 -39 -23.5 -117t-22.5 -117h-14q-95 0 -304 3q-7 -37 -21.5 -110.5t-21.5 -110.5q141 0 303 -2h18q-8 -41 -24 -122.5t-24 -122.5h-18q-134 3 -500 3q-206 0 -379 -9
q4 21 11.5 61.5t11.5 60.5l18 123q152 8 332 8q7 37 21 109.5t21 108.5h-89q-184 0 -250 -9q7 39 21.5 117t21.5 117z" />
    <glyph glyph-name="divide" unicode="&#xf7;" 
d="M483 1038h315q-9 -46 -27.5 -140t-27.5 -140h-315q9 46 27.5 140t27.5 140zM336 284h315q-9 -47 -27.5 -141t-27.5 -141h-315q9 47 27.5 141t27.5 141zM118 654q67 3 146 3q54 0 146 -1.5t122 -1.5h119q127 0 341 -2h18q-8 -41 -24 -122.5t-24 -122.5h-18q-134 3 -461 3
q-14 0 -95.5 1.5t-138.5 1.5q-97 0 -172 -4q4 20 11.5 60.5t11.5 61.5z" />
    <glyph glyph-name="yacute" unicode="&#xfd;" 
d="M459 1328q209 66 452 259q17 -29 68 -91t68 -91q-93 -78 -247.5 -154.5t-281.5 -115.5q-9 29 -29 96.5t-30 96.5zM54 -32l10 -17q11 -17 25.5 -36.5t33 -40.5t41 -34.5t43.5 -13.5q67 0 119.5 43t124.5 168q-28 237 -55.5 382.5t-60 217t-63.5 93t-80 21.5q-35 0 -45 -1
q1 44 3 131.5t3 131.5h101q146 0 232 -183.5t123 -593.5q109 268 153 418.5t76 358.5h256q0 -59 -36 -174q-83 -271 -172 -460.5t-253 -432.5q-89 -131 -160.5 -202t-131.5 -95.5t-138 -24.5q-27 0 -51.5 3t-43.5 6t-41 12.5t-35 13.5t-33.5 19t-28.5 20t-29 24.5
t-25.5 23.5t-27.5 27.5t-26 26.5z" />
    <glyph glyph-name="ydieresis" unicode="&#xff;" 
d="M814 1458l281 -3l-46 -238l-282 1zM394 1458h279l-47 -240h-279zM54 -32l10 -17q11 -17 25.5 -36.5t33 -40.5t41 -34.5t43.5 -13.5q67 0 119.5 43t124.5 168q-28 237 -55.5 382.5t-60 217t-63.5 93t-80 21.5q-35 0 -45 -1q1 44 3 131.5t3 131.5h101q146 0 232 -183.5
t123 -593.5q109 268 153 418.5t76 358.5h256q0 -59 -36 -174q-83 -271 -172 -460.5t-253 -432.5q-89 -131 -160.5 -202t-131.5 -95.5t-138 -24.5q-27 0 -51.5 3t-43.5 6t-41 12.5t-35 13.5t-33.5 19t-28.5 20t-29 24.5t-25.5 23.5t-27.5 27.5t-26 26.5z" />
    <glyph glyph-name="OE" unicode="&#x152;" 
d="M400 199q30 155 90.5 464t90.5 464q-169 0 -276 -549q-21 -108 -21 -193q0 -89 24.5 -138.5t72.5 -49.5h8t2.5 0.5t2.5 1t6 0.5zM776 206q66 2 137 26q5 -34 14 -100t13 -100q-127 -33 -348 -33q-22 0 -73 0.5t-79 0.5q-21 -8 -129 -8q-287 5 -287 355q0 107 28 250
q27 136 60.5 244t82.5 201.5t110 155.5t142.5 97t180.5 35q43 0 78 -7q60 3 186 3q43 0 127.5 -0.5t125.5 -0.5l-39 -198q-49 0 -85.5 0.5t-69.5 0.5q-74 0 -121 -1q-9 -47 -27 -139t-27 -139h209q-6 -34 -20 -102.5t-20 -102.5h-209q-20 -104 -49 -251.5t-36 -185.5
q21 0 62.5 -0.5t62.5 -0.5z" />
    <glyph glyph-name="yen" unicode="&#xa5;" 
d="M292 -6q5 24 14.5 72t13.5 72q4 17 9.5 45t14.5 70l15 70h-92q-105 0 -193 -5q7 37 20.5 111.5t20.5 111.5q147 8 292 8q7 32 12 64q0 1 -1.5 3t-2.5 4l-2 4q-94 2 -282 14q3 17 11.5 62.5t12.5 64.5q12 62 19 91q41 -2 142 -7q-106 257 -139 373l246 141
q113 -357 179 -511q30 34 67 83.5t68 94.5t69.5 105t60.5 95.5t53 87t36 58.5q34 -22 101.5 -67.5t100.5 -68.5q-86 -124 -290 -387q46 1 153 1q-7 -36 -20.5 -109t-20.5 -110q-75 0 -290 -7q-15 -17 -23 -26q-2 -9 -6.5 -27.5t-5.5 -27.5q35 -1 95.5 -2.5t111.5 -2.5
t100 -1q-7 -38 -21.5 -112t-21.5 -112q-63 0 -171.5 2t-140.5 2q-8 -39 -16.5 -80t-14.5 -72.5t-8 -40.5q-5 -22 -13.5 -67t-12.5 -67h-250z" />
    <glyph glyph-name="Ntilde" unicode="&#xd1;" 
d="M605 1701q48 0 85 -7.5t64.5 -24.5t39.5 -27t34 -32q41 -41 76 -41q38 0 62 24t38 76l172 -54q-17 -41 -39.5 -76.5t-56.5 -71t-82.5 -56t-106.5 -20.5q-32 0 -58.5 5.5t-53 21t-37 22t-37 30t-27.5 23.5q-21 17 -35 22.5t-46 5.5q-31 0 -57 -26.5t-42 -73.5l-178 78
q21 38 47 71t61 64t81 49t96 18zM616 0q-34 223 -89.5 458.5t-118.5 386.5q-9 -46 -26 -137.5t-26 -137.5q-25 -133 -45.5 -237t-38 -195.5t-27.5 -140.5h-246q43 222 129.5 664.5t129.5 663.5q35 -1 104.5 -3.5t104.5 -3.5q71 -151 154.5 -442.5t98.5 -468.5q5 41 12 117
t14.5 138t18.5 116q64 328 119 551q40 0 122 -0.5t122 -0.5q-41 -168 -92 -433q-25 -127 -71.5 -377.5t-65.5 -347.5q-5 -28 -17 -85t-17 -85h-249z" />
    <glyph glyph-name="Eth" unicode="&#xd0;" 
d="M547 1127h-30q-28 0 -46 -3q-7 -46 -15 -87q-4 -22 -10.5 -51t-9.5 -44h254q-7 -35 -20 -104.5t-19 -104.5q-43 0 -128 -0.5t-128 -0.5q-50 -256 -108 -534q87 -3 99 -3h3q183 0 280 158q38 61 64 191q29 146 29 266q0 156 -54.5 236.5t-160.5 80.5zM184 942
q1 6 3.5 17.5t3.5 17.5q42 215 53 340q145 14 228 14q201 0 316.5 -63t181.5 -202q56 -121 56 -290q0 -100 -19 -196q-18 -94 -61 -204q-68 -173 -193 -269.5t-270 -109.5q-78 -7 -162 -7q-38 0 -153.5 3.5t-176.5 3.5q5 22 29 131q3 14 22 107.5t48 234t53 262.5h-70
q7 35 20.5 105t20.5 105h70z" />
    <glyph glyph-name="currency" unicode="&#xa4;" 
d="M605 314q56 44 93 210q0 2 1 5.5t1 5.5q9 39 9 84q0 126 -111 126q-93 0 -144.5 -66t-76.5 -191q-7 -34 -7 -67q0 -67 31.5 -105.5t92.5 -38.5h2q60 1 109 37zM225 677q-20 26 -61.5 77.5t-62.5 77.5q38 32 113.5 95.5t113.5 94.5q20 -25 61 -75.5t61 -75.5q72 24 164 24
q104 0 173 -26q28 23 83.5 70t83.5 70q25 -32 77 -95.5t77 -95.5q-30 -25 -89 -74.5t-89 -74.5q2 -28 2 -44q0 -47 -9 -92q-24 -128 -85 -220q20 -25 60.5 -75.5t60.5 -75.5q-38 -31 -113.5 -95t-113.5 -95q-23 28 -69 84.5t-69 84.5q-59 -14 -126 -14h-2q-87 0 -150 18
q-33 -27 -98.5 -82.5t-98.5 -82.5q-25 32 -76 95.5t-77 95.5q30 25 92 76.5t92 77.5q-4 24 -4 58q0 44 9 92q22 113 70 202z" />
    <glyph glyph-name="sterling" unicode="&#xa3;" 
d="M273 193q-26 29 -49 79q-6 -5 -16 -22.5t-11 -31.5q0 -1 -0.5 -3t-0.5 -3q-4 -54 12 -54q30 0 65 35zM916 670q-76 -9 -257 -9h-56q0 -150 -24 -276q-18 -93 -37 -131q50 -37 79 -51.5t63 -14.5q23 0 45.5 9t25.5 27q1 2 4.5 21t3.5 22q38 0 114 -0.5t114 -0.5
q-1 -9 -5 -26.5t-5 -26.5q-22 -102 -103 -165.5t-187 -63.5q-85 0 -138.5 20t-128.5 75q-53 -57 -123 -74.5t-157 -17.5q-125 0 -125 132q0 32 8 72q21 104 86.5 184.5t136.5 80.5q11 0 20 -1.5t15.5 -3t13 -7.5t9.5 -8t8 -11.5t6.5 -11.5t7.5 -15t7 -16q6 21 11 47
q18 93 18 192v43q-52 2 -181 2h-17q6 34 19 100.5t20 99.5h158v38.5t0.5 36.5t1.5 30.5t3 35.5t6 36q29 149 136 228.5t254 79.5q120 0 194.5 -62.5t79.5 -159.5l-222 -54q-5 74 -92 74h-6q-83 0 -103 -98q-6 -34 -11 -190q16 1 47.5 2t47.5 1h57q130 0 197 7z" />
    <glyph glyph-name="cent" unicode="&#xa2;" 
d="M364 525q-10 -51 -10 -93q0 -160 140 -160h10q57 0 100 29.5t89 84.5q28 -17 84 -52t84 -52q-101 -149 -302 -171l-24 -120h-234q4 22 13 65.5t13 65.5q-64 16 -103 48q-87 73 -87 215q0 64 15 139q59 300 324 365q4 24 14 72t14 72h234q-5 -22 -13 -65.5t-13 -65.5
q81 -11 126 -43q65 -46 83 -118q-33 -13 -99 -39.5t-99 -39.5q-5 80 -135 80q-87 0 -146.5 -63.5t-77.5 -153.5z" />
    <glyph glyph-name="percent" unicode="%" 
d="M678 179q24 0 59.5 43t43.5 82q4 17 4 34q0 51 -53 54h-2q-24 0 -60 -40.5t-43 -74.5q-2 -9 -2 -26q0 -31 14.5 -51.5t38.5 -20.5zM389 915q24 0 59.5 43t43.5 82q4 17 4 34q0 51 -53 54h-2q-24 0 -60 -40.5t-43 -74.5q-2 -9 -2 -26q0 -31 14.5 -51.5t38.5 -20.5zM-37 82
q53 71 157.5 211.5t156.5 210.5q56 76 130 149t131.5 124.5t75.5 75.5q-54 -60 -123.5 -95.5t-143.5 -35.5q-101 0 -165.5 66.5t-64.5 166.5q0 27 6 57q24 122 132 214.5t231 94.5h7q104 0 168 -60t64 -153q0 -6 -5 -51q0 -1 -0.5 -2.5t-1 -5.5t-1.5 -9q-8 -43 -40 -101
q52 73 156.5 218.5t156.5 218.5q34 -18 101.5 -56t101.5 -56q-53 -71 -157.5 -213.5t-156.5 -213.5q-40 -56 -110 -122.5t-145.5 -136.5t-121.5 -128q54 60 127 97t146 38h7q104 0 168 -60t64 -153q0 -6 -5 -51q0 -1 -0.5 -3.5t-0.5 -3.5q-14 -124 -127 -226t-245 -102
q-101 0 -165.5 66.5t-64.5 166.5q0 27 6 57q11 55 37 101q-47 -67 -141.5 -202.5t-141.5 -202.5q-34 18 -101.5 54.5t-101.5 55.5z" />
    <glyph glyph-name="guillemotleft" unicode="&#xab;" 
d="M463 566q323 248 388 431q36 -12 107 -36t107 -36q-22 -55 -56.5 -107t-68 -90.5t-84 -83.5t-84.5 -71.5t-90 -68.5q93 -104 144.5 -197.5t59.5 -211.5q-39 -15 -117.5 -43.5t-117.5 -42.5q-14 231 -210 442q3 19 10.5 57.5t11.5 57.5zM61 576q323 248 388 431
q35 -12 106.5 -35.5t107.5 -35.5q-22 -55 -56.5 -107t-68 -90.5t-84 -83.5t-84.5 -71.5t-90 -68.5q93 -104 144.5 -197.5t59.5 -211.5q-39 -15 -117.5 -44t-117.5 -43q-14 231 -210 442q3 19 11 57.5t11 57.5z" />
    <glyph glyph-name="guillemotright" unicode="&#xbb;" 
d="M601 447q-91 -71 -164.5 -140t-135.5 -148t-85 -146q-35 12 -107 35.5t-107 34.5q18 46 43 89t57.5 82t62 70.5t71.5 67t71 58.5t74 57q-45 50 -76 90.5t-61.5 91.5t-47.5 107.5t-22 118.5q39 15 117 44t117 44q16 -231 214 -441q-4 -19 -11 -57.5t-10 -57.5zM1003 441
q-142 -111 -246.5 -224t-138.5 -211q-35 12 -107 35t-107 35q21 54 55.5 106.5t67.5 91.5t83 84.5t84 72.5t89 69q-35 39 -61 71t-53 73t-45 79.5t-31 86t-17 97.5q39 15 117 44.5t117 44.5q16 -231 214 -440q-3 -16 -7 -37l-8 -42t-6 -36z" />
    <glyph glyph-name="section" unicode="&#xa7;" 
d="M645 354q37 20 48.5 34.5t16.5 40.5v6q0 33 -24 60q-23 26 -50.5 52t-49 45t-52.5 42.5t-47 35t-46.5 33t-37.5 26.5q-37 -20 -49 -34.5t-17 -40.5v-6q0 -33 24 -60q16 -17 31 -33t32 -31.5t28.5 -26.5t31 -26t29 -22.5t31.5 -23t29 -20.5t32.5 -22.5t31.5 -21.5
l3.5 -3.5t4.5 -3.5zM281 883q-18 21 -18 82q0 34 9 83q14 74 59 136t105 100.5t124.5 60t124.5 23.5h18q129 0 201.5 -68.5t72.5 -182.5q0 -31 -6 -66h-220q3 15 3 29q0 44 -28.5 66t-73.5 22q-20 0 -42.5 -7.5t-49 -35t-37.5 -71.5q-1 -2 -1.5 -5.5t-0.5 -5.5
q-6 -32 -6 -53q0 -58 41 -89q81 -60 122.5 -92t101.5 -84t101 -98q45 -50 62.5 -83t17.5 -72q0 -24 -8 -64q-16 -80 -57.5 -128.5t-119.5 -99.5q7 -29 7 -72q0 -37 -7 -73q-14 -74 -59.5 -136t-105.5 -100.5t-124.5 -60t-124.5 -23.5h-18q-130 0 -202.5 68.5t-72.5 183.5
q0 30 6 65h220q-3 -15 -3 -29q0 -44 28.5 -66t73.5 -22q20 0 43 7.5t50 35t38 71.5q1 2 1.5 5.5t0.5 5.5q6 30 6 52q0 58 -42 90q-87 65 -124 94t-98 81.5t-102 98.5q-45 50 -62.5 83t-17.5 73q0 29 7 63q8 39 30 75t48 59.5t51 41t41 25.5z" />
    <glyph glyph-name="braceleft" unicode="{" 
d="M555 600q80 -21 144 -77.5t64 -141.5q0 -23 -5 -51q-8 -45 -29.5 -94t-50.5 -103.5t-40 -78.5q-4 -8 -6 -23q-2 -12 -2 -16q0 -39 43.5 -57t133.5 -22q-8 -37 -23.5 -109t-23.5 -109q-153 7 -213 22q-106 26 -151 94q-32 49 -32 106q0 21 5 46q13 68 86 199q5 9 7 13
q30 53 37 92q3 16 3 30q0 22 -7 40.5t-22.5 32.5t-29.5 24t-41 20t-43.5 15t-49 14t-46.5 13q3 19 10 56.5t11 56.5q4 22 12.5 65.5t13.5 65.5q16 4 49 12.5t51.5 13t48 14t47 18t39.5 22t35 28t24 35.5t15 45t4 41q0 20 -5 52q-17 112 -17 148q0 32 6 64q16 85 86 152
q31 30 72 51t72.5 32t86.5 18.5t77 9t83 4.5q4 0 6 0.5t5.5 0.5h6.5q-7 -36 -19.5 -108.5t-18.5 -109.5q-101 -4 -152.5 -25.5t-59.5 -70.5q-2 -16 -2 -26q0 -29 9.5 -97t9.5 -107q0 -40 -6 -68q-5 -24 -13 -46q-32 -87 -119.5 -146t-175.5 -80z" />
    <glyph glyph-name="bar" unicode="|" 
d="M312 152q39 200 124 662t109 585l18 93h271q-4 -24 -14 -72.5t-14 -72.5q-26 -132 -99 -541t-107 -582l-30 -150q-32 -166 -58 -272q-46 0 -136 0.5t-136 0.5q18 69 36 160q0 1 13 69t23 120z" />
    <glyph glyph-name="braceright" unicode="}" 
d="M569 600q-49 13 -93.5 39t-79 74.5t-34.5 106.5v6q0 21 5 46q12 60 62.5 159.5t56.5 116.5q5 12 6 22q2 12 2 17q0 40 -43 57.5t-133 21.5q7 36 22 109t23 109q154 -7 214 -22q106 -26 152 -94q30 -45 30 -102q0 -22 -5 -50q-12 -68 -85 -200q-2 -2 -2.5 -3.5t-2 -4
t-2.5 -4.5q-29 -53 -37 -93q-3 -17 -3 -30q0 -26 11.5 -47t25 -34t44.5 -26.5t47.5 -19t57.5 -16.5t54 -15q-5 -22 -13.5 -65.5t-12.5 -65.5q-4 -19 -11.5 -56.5t-11.5 -56.5q-15 -4 -56 -14t-59 -15.5t-52 -17t-51.5 -23t-39 -28.5t-33.5 -39.5t-18 -50.5q-4 -19 -4 -45
q0 -25 4 -48q17 -112 17 -148q0 -32 -6 -64q-17 -86 -85 -152q-31 -30 -72 -51t-73 -32t-86 -18.5t-77.5 -9t-82.5 -4.5h-5t-4.5 -0.5t-5 -0.5h-4.5q6 36 19 109t20 109q101 5 152 26t59 70q1 4 1.5 11t0.5 11v7q0 28 -9 95.5t-9 105.5q0 40 6 68q5 27 13 46q23 59 77 108.5
t109.5 76t109.5 39.5z" />
    <glyph glyph-name="at" unicode="@" 
d="M572 496q-6 -33 -6 -59q0 -75 46 -75q28 0 51 11.5t40.5 34t28.5 41t23.5 46t17.5 35.5q2 12 6.5 34.5t6.5 33.5q-9 9 -20 22.5t-15.5 18t-13 10.5t-17.5 7.5t-24 1.5q-41 0 -75 -39t-49 -123zM779 267q-8 -7 -27.5 -25t-26.5 -24t-24 -18.5t-28.5 -16.5t-30.5 -10.5
t-40 -8.5t-48 -2q-102 0 -156.5 68.5t-54.5 174.5q0 37 8 80q32 167 126.5 270t229.5 103q47 0 70 -14t48 -46q13 67 13 121q0 176 -148 176q-64 0 -124.5 -34.5t-117 -104t-103.5 -186.5t-76 -270q-22 -116 -22 -208q0 -159 61.5 -252t185.5 -93q83 0 168 48
q6 -32 19 -95.5t19 -95.5q-119 -57 -257 -57q-90 0 -162 28.5t-120 77t-80 116.5t-46 143.5t-14 161.5q0 106 22 221q36 187 104.5 339t158 254t197.5 157t225 55q89 0 156 -29.5t105 -80t56 -111t18 -130.5q0 -54 -11 -111q-10 -55 -31.5 -165t-32.5 -165q-16 -82 -16 -117
q0 -61 31 -126l-201 -96q-17 44 -23 98z" />
    <glyph glyph-name="brokenbar" unicode="&#xa6;" 
d="M429 779q82 444 116 620l18 93h271q-4 -24 -14 -72.5t-14 -72.5q-26 -137 -105 -568h-272zM659 539q-43 -234 -59 -315l-30 -150q-32 -166 -58 -272q-46 0 -136 0.5t-136 0.5q18 69 36 160q0 1 13 69t23 120q21 105 73 387h274z" />
    <glyph glyph-name="copyright" unicode="&#xa9;" 
d="M229 594q-7 -38 -7 -78q0 -130 80.5 -215t207.5 -85q146 0 268 110t153 268q8 45 8 81q0 129 -78 212.5t-204 83.5q-147 0 -272 -110t-156 -267zM56 592q49 254 216.5 404t414.5 150q188 0 307.5 -125.5t119.5 -316.5q0 -52 -11 -112q-49 -254 -213.5 -403.5
t-417.5 -149.5q-188 0 -307.5 125t-119.5 316q0 52 11 112zM616 719q-33 0 -58.5 -38t-37.5 -98q-4 -17 -4 -40q0 -80 50 -80q26 0 44 11.5t36 45.5l156 -84q-104 -138 -271 -138q-88 0 -150.5 51t-62.5 156q0 31 8 74q26 135 115.5 219.5t208.5 84.5q39 0 78 -13t74 -44
t47 -74l-181 -88q-7 32 -17 43.5t-35 11.5z" />
    <glyph glyph-name="registered" unicode="&#xae;" 
d="M56 592q26 124 73 220.5t104.5 158.5t129.5 102t145 56.5t153 16.5q192 0 321.5 -129.5t129.5 -322.5q0 -57 -9 -102q-30 -153 -90.5 -264t-143 -172.5t-172 -89t-192.5 -27.5q-104 0 -191.5 38t-145.5 102t-90 146t-32 170q0 51 10 97zM685 515q20 -38 54 -74t68 -57
l-168 -118q-39 26 -73.5 101t-34.5 127h-9l-40 -211h-160q78 -67 188 -67q151 0 266 99.5t155 278.5q9 43 9 85q0 126 -79 209t-204 83q-61 0 -115 -12t-105 -40.5t-91 -71t-70.5 -107t-46.5 -146.5q-7 -38 -7 -78q0 -136 87 -221l86 441q13 71 23 140q140 22 219 22
q224 0 224 -157q0 -25 -6 -55q-12 -59 -59.5 -105.5t-110.5 -65.5zM702 698q1 3 1 9q0 43 -93 43q-24 0 -43 -8l-18 -97q26 -15 64 -15q77 0 89 68z" />
    <glyph glyph-name="germandbls" unicode="&#xdf;" 
d="M187 1003q15 80 66 153t136 122.5t184 49.5q354 0 354 -243q0 -33 -8 -76q-34 -174 -173 -230q48 -9 87.5 -27t74.5 -50t55 -85t20 -122q0 -51 -12 -114q-22 -112 -59 -188t-92 -118t-119.5 -59.5t-151.5 -17.5q-109 0 -157.5 44.5t-48.5 138.5q0 45 13 117l6 24
q34 0 101.5 -1t101.5 -1q-8 -44 -8 -62q0 -59 53 -59q42 0 71 44.5t49 151.5q5 27 5 48q0 39 -14.5 71t-47.5 60t-96.5 44t-152.5 16q7 34 20 103t20 103q48 0 83 8.5t56 20.5t35.5 35.5t21 43.5t14.5 55q2 8 2 23q0 47 -37 71.5t-83 24.5q-48 0 -78.5 -31.5t-40.5 -83.5
q-12 -60 -47.5 -256t-56.5 -301q-4 -19 -11 -59t-11 -60q-30 -149 -64 -214q-8 -15 -20 -29.5t-23 -25t-29 -23t-29 -19.5t-32 -17.5l-29 -14.5t-29.5 -14t-24.5 -11q-7 42 -22 124t-22 124q40 18 56 50q13 25 35 137l10 50q20 100 52 288t47 267z" />
    <glyph glyph-name="ampersand" unicode="&#x26;" 
d="M671 94q-146 -116 -331 -116q-70 0 -127 14.5t-103 45.5t-71 86t-25 131q0 51 12 112q25 131 98 221.5t185 169.5q-102 115 -102 237q0 23 4 42q31 151 144 230.5t258 79.5q121 0 195.5 -48.5t74.5 -153.5q0 -29 -6 -63q-13 -69 -41.5 -127.5t-72.5 -105.5t-84 -79.5
t-96 -69.5q27 -50 79.5 -150t78.5 -150q24 26 35 83q10 50 10 125q0 7 -0.5 21.5t-0.5 22.5h244q-16 -81 -40 -152.5t-47 -115.5t-44 -77t-34 -47l-13 -14q14 -24 41.5 -72t41.5 -72q-32 -22 -96.5 -67t-96.5 -67q-12 21 -35 63t-35 63zM391 573q-40 -32 -71.5 -89
t-42.5 -114q-7 -37 -7 -64q0 -125 113 -125q119 0 193 57q-31 56 -92.5 167.5t-92.5 167.5zM488 867q53 36 93.5 90t47.5 99q2 14 2 22q0 30 -15.5 49t-47.5 19q-41 0 -75 -29t-41 -64q-5 -23 -5 -52q0 -71 41 -134z" />
    <glyph glyph-name="mu" unicode="&#xb5;" 
d="M241 8q-14 -67 -41.5 -202.5t-41.5 -203.5q-41 0 -124.5 1t-125.5 2q14 69 59 287t68 337q30 153 54 275q74 384 74 469q0 14 -1 19q42 5 126.5 14t126.5 14v-10q0 -29 -5.5 -74.5t-19 -121.5t-25 -137t-35 -183t-37.5 -196v-6q0 -49 19.5 -67.5t78.5 -18.5
q56 0 102.5 18t73.5 42.5t47.5 56.5t28.5 54t12 41l114 582h257q-23 -115 -68 -346.5t-68 -347.5q-1 -4 -1 -11q0 -36 28.5 -74.5t63.5 -54.5q-30 -31 -89.5 -92t-88.5 -91q-85 42 -103 125q-118 -101 -363 -106h-9q-44 0 -87 6z" />
    <glyph glyph-name="paragraph" unicode="&#xb6;" 
d="M824 1041q3 12 7.5 35.5t6.5 35.5h-89h-28q-29 -148 -85 -444t-85 -444q-14 -69 -54 -152.5t-74 -112.5l-186 102q4 6 18 24.5t20.5 28t16.5 27.5t16.5 37.5t11.5 42.5q7 37 21.5 110t21.5 109q-108 8 -173 95t-65 237q0 72 16 152q32 162 121 250q51 51 110 83t132 47
t137.5 19.5t161.5 4.5q68 0 149.5 -4t138.5 -4q-43 -221 -129.5 -664.5t-129.5 -664.5q-36 0 -108.5 -0.5t-108.5 -0.5q33 169 99.5 499.5t109.5 551.5z" />
    <glyph glyph-name="periodcentered" unicode="&#xb7;" 
d="M414 700h315q-10 -52 -30.5 -156.5t-30.5 -156.5h-315q10 52 30.5 156.5t30.5 156.5z" />
    <glyph glyph-name="questiondown" unicode="&#xbf;" 
d="M801 744h-352q8 45 25.5 135t26.5 135h352q-9 -45 -26.5 -135t-25.5 -135zM921 -201q-42 -30 -87.5 -53.5t-90.5 -37t-83.5 -22t-81.5 -12t-68 -4.5t-58 -1h-13q-114 0 -202 31.5t-139.5 94.5t-51.5 149q0 34 8 79t26.5 84.5t37 65.5t50.5 55t52 43.5t58 40.5
q17 11 25 17q56 39 97 92t53 114q1 8 4 24.5t5 24.5q45 0 135.5 -0.5t136.5 -0.5q-1 -4 -2 -8.5t-1.5 -9t-1.5 -9t-1.5 -9t-1.5 -8.5q-10 -52 -35.5 -102t-60.5 -91t-67 -71t-67 -56l-54 -39t-51.5 -38.5t-37.5 -33.5t-32.5 -42t-15.5 -46q-4 -20 -4 -43q0 -51 47.5 -83.5
t117.5 -32.5q179 0 318 140q11 -16 23 -34t22.5 -33.5t23 -33.5t23 -33.5t22.5 -33.5t23 -34z" />
    <glyph glyph-name="dieresis" unicode="&#xa8;" 
d="M843 1424l281 -3l-46 -238l-282 1zM423 1424h279l-47 -240h-279z" />
    <glyph glyph-name="acute" unicode="&#xb4;" 
d="M404 1441q111 35 245 110t239 158q17 -28 50.5 -85.5t50.5 -86.5q-93 -78 -247.5 -154.5t-281.5 -115.5q-10 29 -28 87t-28 87z" />
    <glyph glyph-name="degree" unicode="&#xb0;" 
d="M678 1379q107 0 175.5 -68t68.5 -171q0 -107 -54.5 -189.5t-135 -122.5t-169.5 -40q-107 0 -175.5 67.5t-68.5 170.5q0 80 31.5 147.5t83 112t115.5 69t129 24.5zM516 1063q0 -36 24 -59.5t61 -23.5q48 0 86.5 36t38.5 87q0 36 -24 59.5t-61 23.5q-48 0 -86.5 -36
t-38.5 -87z" />
    <glyph glyph-name="macron" unicode="&#xaf;" 
d="M985 1657q-6 -32 -18.5 -97t-19.5 -97h-17q-203 -7 -231 -7q-132 0 -234 3q-3 0 -9 0.5t-9 0.5q7 33 19 98.5t19 98.5q12 -2 19 -2q97 -3 271 -3q33 0 102.5 2.5t90.5 2.5h17z" />
    <glyph glyph-name="dotlessi" unicode="&#x131;" 
d="M481 1039q42 -5 125.5 -13t124.5 -13l-133 -687q-5 -28 -5 -51q0 -93 86 -93q120 0 231 91q10 -32 30 -95t30 -95q-71 -50 -175 -75.5t-205 -25.5q-269 0 -269 203q0 31 8 73q15 80 46 239.5t47 239.5q-34 -34 -134 -82q-19 30 -56 92t-55 92q237 77 304 200z" />
    <glyph glyph-name="Amacron" unicode="&#x100;" 
d="M1026 1680q-7 -32 -19.5 -96.5t-18.5 -97.5h-17q-203 -7 -231 -7q-132 0 -234 3q-3 0 -9 0.5t-9 0.5q7 33 19.5 98.5t18.5 98.5q12 -2 19 -2q97 -3 271 -3q32 0 102 2.5t91 2.5h17zM674 504v7q0 55 -19 190.5t-19 203.5q0 53 8 93q-17 -75 -59.5 -167t-100.5 -197.5
t-77 -147.5q28 6 72.5 9t107.5 5.5t87 3.5zM601 1325h224q16 -148 47.5 -416t56 -489t43.5 -420h-276q-4 45 -11.5 139t-11.5 142q-23 0 -70 -1t-66 -1.5t-54.5 -2t-58 -4.5t-53 -8t-61.5 -12l-48 -90q-58 -110 -71 -162h-260q20 76 97 223q96 184 287 551.5t286 550.5z" />
    <glyph glyph-name="amacron" unicode="&#x101;" 
d="M1011 1465q-6 -33 -18.5 -97t-19.5 -97h-17q-203 -7 -231 -7q-132 0 -234 3q-3 0 -9 0.5t-9 0.5q6 33 18.5 98.5t19.5 98.5q12 -2 19 -2q98 -3 271 -3q32 0 102 2.5t91 2.5h17zM343 513q-25 -125 -25 -202q0 -43 7.5 -69.5t23.5 -37t28.5 -13t35.5 -2.5q38 0 81.5 29
t78.5 72t59 78.5t38 62.5q9 50 28.5 149.5t29.5 148.5q-24 36 -65.5 63t-85.5 27q-23 0 -45 -6t-50.5 -25.5t-52.5 -51.5t-47.5 -89.5t-38.5 -133.5zM891 316q-5 -28 -5 -49q0 -100 70 -166q-27 -22 -79.5 -66t-78.5 -66q-98 88 -98 196q0 13 1 20q-61 -102 -151.5 -149
t-226.5 -47q-55 0 -97.5 14t-79.5 47.5t-57 97t-20 154.5q0 99 27 241q22 113 65.5 201.5t94 140t110.5 85.5t111 46t99 12q63 0 118.5 -23t83.5 -64q3 14 9.5 42t10.5 42l230 -12q-23 -116 -68.5 -348.5t-68.5 -348.5z" />
    <glyph glyph-name="Cacute" unicode="&#x106;" 
d="M558 1543q209 66 452 259q17 -28 68 -91t68 -91q-93 -78 -247.5 -154.5t-281.5 -115.5q-10 29 -29.5 96.5t-29.5 96.5zM710 1128q-45 0 -93 -28t-96 -84.5t-89.5 -157t-66.5 -230.5q-16 -84 -16 -157q0 -127 44 -200t110 -73h14q87 0 137.5 43.5t110.5 150.5
q37 -23 110.5 -68.5t109.5 -68.5q-78 -118 -210.5 -188t-275.5 -70h-3q-217 0 -313 119q-99 129 -99 323q0 89 21 197q57 296 229 496q75 87 186.5 143.5t235.5 56.5q117 0 217.5 -56t140.5 -169q-42 -21 -127.5 -62.5t-128.5 -62.5q-19 90 -50 118t-98 28z" />
    <glyph glyph-name="cacute" unicode="&#x107;" 
d="M473 1328q209 66 452 259q17 -29 68 -91t68 -91q-93 -78 -247.5 -154.5t-281.5 -115.5q-9 29 -29.5 96.5t-29.5 96.5zM355 528q-14 -69 -14 -126q0 -199 165 -199h12q69 0 122 38t109 109q34 -22 100.5 -66.5t99.5 -67.5q-73 -113 -185.5 -168t-275.5 -55q-99 0 -176 16
t-132 64q-103 95 -103 269q0 77 21 185q95 491 589 491q240 0 382 -142q-29 -33 -86.5 -100t-85.5 -100q-19 41 -96.5 86t-172.5 45q-104 0 -176.5 -81.5t-96.5 -197.5z" />
    <glyph glyph-name="Ccircumflex" unicode="&#x108;" 
d="M836 1803l338 -292l-169 -156l-191 201l-268 -189l-128 156zM710 1128q-45 0 -93 -28t-96 -84.5t-89.5 -157t-66.5 -230.5q-16 -84 -16 -157q0 -127 44 -200t110 -73h14q87 0 137.5 43.5t110.5 150.5q37 -23 110.5 -68.5t109.5 -68.5q-78 -118 -210.5 -188t-275.5 -70h-3
q-217 0 -313 119q-99 129 -99 323q0 89 21 197q57 296 229 496q75 87 186.5 143.5t235.5 56.5q117 0 217.5 -56t140.5 -169q-42 -21 -127.5 -62.5t-128.5 -62.5q-19 90 -50 118t-98 28z" />
    <glyph glyph-name="ccircumflex" unicode="&#x109;" 
d="M751 1588l338 -292l-169 -156l-191 201l-268 -189l-128 156zM355 528q-14 -69 -14 -126q0 -199 165 -199h12q69 0 122 38t109 109q34 -22 100.5 -66.5t99.5 -67.5q-73 -113 -185.5 -168t-275.5 -55q-99 0 -176 16t-132 64q-103 95 -103 269q0 77 21 185q95 491 589 491
q240 0 382 -142q-29 -33 -86.5 -100t-85.5 -100q-19 41 -96.5 86t-172.5 45q-104 0 -176.5 -81.5t-96.5 -197.5z" />
    <glyph glyph-name="Cdotaccent" unicode="&#x10a;" 
d="M706 1693h284q-7 -41 -22.5 -123t-23.5 -123h-285q8 41 23.5 123t23.5 123zM710 1128q-45 0 -93 -28t-96 -84.5t-89.5 -157t-66.5 -230.5q-16 -84 -16 -157q0 -127 44 -200t110 -73h14q87 0 137.5 43.5t110.5 150.5q37 -23 110.5 -68.5t109.5 -68.5q-78 -118 -210.5 -188
t-275.5 -70h-3q-217 0 -313 119q-99 129 -99 323q0 89 21 197q57 296 229 496q75 87 186.5 143.5t235.5 56.5q117 0 217.5 -56t140.5 -169q-42 -21 -127.5 -62.5t-128.5 -62.5q-19 90 -50 118t-98 28z" />
    <glyph glyph-name="cdotaccent" unicode="&#x10b;" 
d="M621 1478h284q-8 -41 -23.5 -123t-22.5 -123h-285q8 41 23.5 123t23.5 123zM355 528q-14 -69 -14 -126q0 -199 165 -199h12q69 0 122 38t109 109q34 -22 100.5 -66.5t99.5 -67.5q-73 -113 -185.5 -168t-275.5 -55q-99 0 -176 16t-132 64q-103 95 -103 269q0 77 21 185
q95 491 589 491q240 0 382 -142q-29 -33 -86.5 -100t-85.5 -100q-19 41 -96.5 86t-172.5 45q-104 0 -176.5 -81.5t-96.5 -197.5z" />
    <glyph glyph-name="Ccaron" unicode="&#x10c;" 
d="M772 1373l-316 297l171 138l173 -189l299 201l112 -175zM710 1128q-45 0 -93 -28t-96 -84.5t-89.5 -157t-66.5 -230.5q-16 -84 -16 -157q0 -127 44 -200t110 -73h14q87 0 137.5 43.5t110.5 150.5q37 -23 110.5 -68.5t109.5 -68.5q-78 -118 -210.5 -188t-275.5 -70h-3
q-217 0 -313 119q-99 129 -99 323q0 89 21 197q57 296 229 496q75 87 186.5 143.5t235.5 56.5q117 0 217.5 -56t140.5 -169q-42 -21 -127.5 -62.5t-128.5 -62.5q-19 90 -50 118t-98 28z" />
    <glyph glyph-name="ccaron" unicode="&#x10d;" 
d="M687 1158l-316 297l171 138l173 -189l299 201l112 -175zM355 528q-14 -69 -14 -126q0 -199 165 -199h12q69 0 122 38t109 109q34 -22 100.5 -66.5t99.5 -67.5q-73 -113 -185.5 -168t-275.5 -55q-99 0 -176 16t-132 64q-103 95 -103 269q0 77 21 185q95 491 589 491
q240 0 382 -142q-29 -33 -86.5 -100t-85.5 -100q-19 41 -96.5 86t-172.5 45q-104 0 -176.5 -81.5t-96.5 -197.5z" />
    <glyph glyph-name="Dcaron" unicode="&#x10e;" 
d="M611 1373l-316 297l171 138l173 -189l299 201l112 -175zM547 1127h-30q-28 0 -46 -3q-7 -46 -15 -87q-6 -30 -15 -73.5t-16 -79.5q-26 -138 -138 -686q87 -3 99 -3h3q183 0 280 158q38 61 64 191q24 121 24 231q0 168 -58 260t-152 92zM20 128q1 5 29 141.5t64 313
t63 318.5q2 12 7 37.5t8 38.5q42 215 53 340q145 14 228 14q148 0 240.5 -27t150.5 -82t107 -156q56 -121 56 -290q0 -100 -19 -196q-48 -246 -193.5 -406t-330.5 -177q-78 -7 -162 -7q-38 0 -153.5 3.5t-176.5 3.5q5 22 29 131z" />
    <glyph glyph-name="emacron" unicode="&#x113;" 
d="M989 1465q-7 -33 -19.5 -97t-18.5 -97h-17q-203 -7 -231 -7q-132 0 -234 3q-3 0 -9 0.5t-9 0.5q7 33 19.5 98.5t18.5 98.5q12 -2 19 -2q97 -3 271 -3q33 0 103 2.5t90 2.5h17zM363 542q99 12 200.5 38t123.5 44q51 42 51 87q0 44 -34.5 75.5t-108.5 31.5
q-76 0 -142 -75.5t-90 -200.5zM632 1021q81 0 145 -19t103 -49t65 -71t36 -81.5t10 -83.5q0 -59 -16 -102q-46 -122 -188 -184.5t-444 -98.5q0 -52 42.5 -94t109.5 -42q183 0 318 99l102 -180q-62 -33 -79 -41.5t-62.5 -30t-67.5 -26t-65.5 -14t-87.5 -11.5t-104 -2
q-175 0 -268 100.5t-93 275.5q0 70 15 150q21 108 66.5 199.5t112 160t156.5 107t194 38.5z" />
    <glyph glyph-name="Emacron" unicode="&#x112;" 
d="M1032 1680q-7 -32 -19.5 -96.5t-18.5 -97.5h-17q-203 -7 -231 -7q-132 0 -234 3q-3 0 -9 0.5t-9 0.5q6 33 18.5 98.5t19.5 98.5q12 -2 19 -2q97 -3 271 -3q32 0 102 2.5t91 2.5h17zM283 1319q57 4 205 4h98h110q84 0 207.5 -1.5t151.5 -1.5h16q-6 -34 -20 -101t-20 -101
h-529q-8 -45 -25.5 -134.5t-26.5 -134.5h338q-6 -34 -19.5 -101.5t-19.5 -101.5h-338q-1 -5 -3 -15.5t-3 -15.5q-22 -116 -49 -248.5t-33 -162.5q70 0 208 1t208 1q25 0 57.5 7t52.5 13l20 7q5 -33 17 -99.5t17 -99.5q-10 -3 -37 -10.5t-43.5 -11.5t-48 -8t-65.5 -4h-682
q42 220 128 659.5t128 659.5z" />
    <glyph glyph-name="asterisk" unicode="*" 
d="M489 703q6 67 17.5 203t17.5 203q49 1 147 1t147 1q-18 -68 -54.5 -204t-54.5 -204q53 30 158.5 90t158.5 90q11 -41 33 -123.5t33 -124.5l-384 -114q37 -45 111.5 -135t111.5 -135q-42 -30 -127 -88.5t-127 -87.5q-21 59 -63.5 177t-63.5 177q-46 -59 -136.5 -179
t-135.5 -179l-172 172q52 46 158 139.5t158 140.5q-54 15 -164 46.5t-164 47.5q24 44 71 130t70 130q43 -29 127 -87t127 -87z" />
    <glyph glyph-name="ordfeminine" unicode="&#xaa;" 
d="M481 1158q-18 -87 -18 -122q0 -38 21 -65t51 -27q44 0 94.5 33t130.5 125l39 179q-35 33 -62 44t-65 11q-52 0 -112.5 -47.5t-78.5 -130.5zM963 1011q-5 -22 -5 -37q0 -24 15.5 -45t42.5 -32l-132 -151q-52 17 -82.5 50.5t-42.5 91.5q-69 -69 -140 -101.5t-165 -32.5
t-152.5 62.5t-58.5 183.5q0 58 24 181q17 90 60 161.5t100.5 115.5t123.5 67t135 23q101 0 169 -64q3 11 8 29t8 29l211 -8zM198 675h756l-32 -167h-756z" />
    <glyph glyph-name="logicalnot" unicode="&#xac;" 
d="M134 654q67 3 146 3q54 0 146 -1.5t122 -1.5h119q127 0 341 -2h18q-5 -26 -15.5 -78t-15.5 -78h2q-10 -53 -30.5 -158.5t-30.5 -157.5h-250q8 38 23 115t22 115h-232q-14 0 -95.5 1.5t-138.5 1.5q-97 0 -172 -4q4 20 11.5 60.5t11.5 61.5z" />
    <glyph glyph-name="uni00AD" unicode="&#xad;" 
d="M134 654q67 3 146 3q54 0 146 -1.5t122 -1.5h119q127 0 341 -2h18q-8 -41 -24 -122.5t-24 -122.5h-18q-134 3 -461 3q-14 0 -95.5 1.5t-138.5 1.5q-97 0 -172 -4q4 20 11.5 60.5t11.5 61.5z" />
    <glyph glyph-name="uni00B2" unicode="&#xb2;" 
d="M385 1321q25 71 87.5 119t135 67.5t151.5 19.5q71 0 127 -16.5t94.5 -58.5t38.5 -106q0 -54 -14 -96t-36 -71t-63.5 -57.5t-80.5 -48.5t-104 -50q-15 -7 -22 -10q-14 -7 -35 -16.5t-29.5 -13.5t-20 -10.5t-16.5 -10.5t-10 -10.5t-8 -13.5l362 5l-34 -174h-623q2 11 17 95
q8 39 18.5 65.5t35.5 56.5q21 25 96.5 68t151 81t136.5 83.5t61 78.5q0 24 -20 43t-52 19q-30 0 -51.5 -7t-35.5 -22t-20.5 -26.5t-16.5 -32.5z" />
    <glyph glyph-name="uni00B3" unicode="&#xb3;" 
d="M437 1013q29 -40 45 -58t48.5 -33t76.5 -15q61 0 98.5 36t37.5 88q0 66 -154 66l29 134q57 -3 70 -3q41 0 64.5 24.5t23.5 67.5q0 44 -69 44q-98 0 -165 -56l-90 149q106 73 279 73h11q251 0 251 -170q0 -130 -130 -182q40 -18 65 -54.5t25 -73.5q0 -95 -51.5 -163.5
t-133.5 -100.5t-183 -32q-122 0 -195 22t-121 88z" />
    <glyph glyph-name="cedilla" unicode="&#xb8;" 
d="M608 56q-2 -5 -9.5 -39.5t-7.5 -35.5q68 -3 111 -38.5t43 -99.5q0 -21 -4 -38q-20 -95 -105 -149t-206 -54q-53 0 -111 14t-93 40q15 25 44.5 74.5t44.5 73.5q50 -30 122 -30q71 0 84 50v2q1 3 1 10q0 20 -16 32.5t-46 12.5q-75 0 -111 -12q6 32 18 94.5t18 93.5
q37 0 111.5 -0.5t111.5 -0.5z" />
    <glyph glyph-name="uni00B9" unicode="&#xb9;" 
d="M737 1527l230 -16l-144 -742h-216l101 511q-72 -65 -142.5 -108.5t-164.5 -73.5l-33 200q122 31 209.5 82.5t159.5 146.5z" />
    <glyph glyph-name="ordmasculine" unicode="&#xba;" 
d="M198 675h756l-32 -167h-756zM828 1150q8 38 8 67q0 128 -130 128q-77 0 -129 -47.5t-71 -145.5q-10 -49 -10 -89q0 -124 115 -124q75 0 137 58t80 153zM573 758q-142 0 -214.5 75t-72.5 206q0 49 11 109q38 192 148.5 285t261.5 93q157 0 245.5 -81t88.5 -212
q0 -34 -8 -77q-77 -398 -460 -398z" />
    <glyph glyph-name="onequarter" unicode="&#xbc;" 
d="M138 687h893l-33 -168h-893zM579 0l46 236q-115 -141 -221 -236h175zM204 16q171 155 408 421h243l-83 -427l128 3l-35 -181l-127 3l-26 -151h-210l33 151h-284zM737 1527l230 -16l-144 -742h-216l101 511q-72 -65 -142.5 -108.5t-164.5 -73.5l-33 200q122 31 209.5 82.5
t159.5 146.5z" />
    <glyph glyph-name="onehalf" unicode="&#xbd;" 
d="M138 687h893l-33 -168h-893zM275 241q25 71 87.5 119t135 67.5t151.5 19.5q71 0 127 -16.5t94.5 -58.5t38.5 -106q0 -54 -14 -96t-36 -71t-63.5 -57.5t-80.5 -48.5t-104 -50q-15 -7 -22 -10q-14 -7 -35 -16.5t-29.5 -13.5t-20 -10.5t-16.5 -10.5t-10 -10.5t-8 -13.5
l362 5l-34 -174h-623q2 11 17 95q8 39 18.5 65.5t35.5 56.5q21 25 96.5 68t151 81t136.5 83.5t61 78.5q0 24 -20 43t-52 19q-30 0 -51.5 -7t-35.5 -22t-20.5 -26.5t-16.5 -32.5zM737 1527l230 -16l-144 -742h-216l101 511q-72 -65 -142.5 -108.5t-164.5 -73.5l-33 200
q122 31 209.5 82.5t159.5 146.5z" />
    <glyph glyph-name="threequarters" unicode="&#xbe;" 
d="M138 687h893l-33 -168h-893zM579 0l46 236q-115 -141 -221 -236h175zM204 16q171 155 408 421h243l-83 -427l128 3l-35 -181l-127 3l-26 -151h-210l33 151h-284zM437 1013q29 -40 45 -58t48.5 -33t76.5 -15q61 0 98.5 36t37.5 88q0 66 -154 66l29 134q57 -3 70 -3
q41 0 64.5 24.5t23.5 67.5q0 44 -69 44q-98 0 -165 -56l-90 149q106 73 279 73h11q251 0 251 -170q0 -130 -130 -182q40 -18 65 -54.5t25 -73.5q0 -95 -51.5 -163.5t-133.5 -100.5t-183 -32q-122 0 -195 22t-121 88z" />
    <glyph glyph-name="Thorn" unicode="&#xde;" 
d="M800 829q3 17 3 31q0 45 -28.5 75.5t-65 41.5t-77.5 11h-9q-35 0 -86.5 -2.5t-64.5 -2.5q-2 -12 -7 -35.5t-7 -35.5l-53 -263q72 -2 104 -2q40 0 72.5 3.5t71 15t66 30.5t50 53t31.5 80zM277 -10q-41 0 -124.5 0.5t-125.5 0.5q43 222 129.5 665t129.5 664q56 0 130 4
t123 4q-4 -21 -12.5 -64t-12.5 -65h37q97 0 160 -4.5t129.5 -19.5t113 -47t78.5 -83q42 -68 42 -126q0 -31 -9 -75q-13 -64 -39.5 -121.5t-72 -110t-106 -90.5t-145 -60.5t-184.5 -22.5q-72 0 -153 3q-26 -134 -88 -452z" />
    <glyph glyph-name="eth" unicode="&#xf0;" 
d="M686 825q-88 0 -155 -28.5t-107 -78t-62.5 -101.5t-34.5 -113q-11 -58 -11 -110q0 -82 32 -132.5t102 -50.5q123 0 195 84t103 245q11 57 11 96q0 50 -17 93t-56 96zM482 1258q-7 15 -22 31.5t-27.5 27.5t-12.5 14q40 19 120.5 56.5t120.5 56.5q12 -22 39.5 -62t36.5 -54
q52 16 157 47.5t157 46.5q3 -33 9.5 -100.5t9.5 -101.5q-43 -6 -128.5 -19t-128.5 -20q53 -83 80.5 -130t60 -115.5t46 -131.5t13.5 -132q0 -65 -13 -133q-49 -257 -200.5 -397.5t-390.5 -140.5h-2q-166 1 -255.5 103t-89.5 270q0 65 13 130q13 64 35 125t66 131
t101.5 122.5t146.5 90.5t196 45q-31 57 -51 83q-56 -17 -141 -48.5t-112 -40.5q-4 33 -10 100.5t-10 101.5q121 22 186 44z" />
    <glyph glyph-name="thorn" unicode="&#xfe;" 
d="M173 739q10 52 30.5 157t30.5 158q16 84 23 231q39 4 116.5 12.5t116.5 13.5q4 -28 4 -52q0 -25 -4 -48q-7 -39 -56 -290q99 90 270 90q293 0 293 -294q0 -77 -18 -166q-22 -108 -48 -188t-68.5 -153t-99 -119t-139.5 -72.5t-189 -26.5q-112 0 -162 68q-1 -14 -4 -55
t-6 -66q-3 -15 -9 -45.5t-9 -45.5q-23 -119 -34 -246q-41 -1 -124 -3.5t-125 -3.5q8 110 37 259zM719 531q18 93 18 153q0 127 -88 127q-61 0 -109 -22.5t-75 -51.5t-64 -81l-66 -345q55 -118 145 -118q91 0 146.5 73t92.5 265z" />
    <glyph glyph-name="Abreve" unicode="&#x102;" 
d="M753 1651q70 0 126 36.5t82 104.5l213 -30q-31 -94 -82 -156t-143.5 -100t-224.5 -38q-64 0 -122.5 16.5t-109.5 50t-82.5 94.5t-32.5 142l225 30q3 -81 45 -115.5t106 -34.5zM674 504v7q0 55 -19 190.5t-19 203.5q0 53 8 93q-17 -75 -59.5 -167t-100.5 -197.5
t-77 -147.5q28 6 72.5 9t107.5 5.5t87 3.5zM601 1325h224q16 -148 47.5 -416t56 -489t43.5 -420h-276q-4 45 -11.5 139t-11.5 142q-23 0 -70 -1t-66 -1.5t-54.5 -2t-58 -4.5t-53 -8t-61.5 -12l-48 -90q-58 -110 -71 -162h-260q20 76 97 223q96 184 287 551.5t286 550.5z" />
    <glyph glyph-name="abreve" unicode="&#x103;" 
d="M738 1436q70 0 126 36.5t82 104.5l213 -30q-31 -94 -82 -156t-143.5 -100t-224.5 -38q-64 0 -122.5 16.5t-109.5 50t-82.5 94.5t-32.5 142l225 30q3 -81 45 -115.5t106 -34.5zM343 513q-25 -125 -25 -202q0 -43 7.5 -69.5t23.5 -37t28.5 -13t35.5 -2.5q38 0 81.5 29
t78.5 72t59 78.5t38 62.5q9 50 28.5 149.5t29.5 148.5q-24 36 -65.5 63t-85.5 27q-23 0 -45 -6t-50.5 -25.5t-52.5 -51.5t-47.5 -89.5t-38.5 -133.5zM891 316q-5 -28 -5 -49q0 -100 70 -166q-27 -22 -79.5 -66t-78.5 -66q-98 88 -98 196q0 13 1 20q-61 -102 -151.5 -149
t-226.5 -47q-55 0 -97.5 14t-79.5 47.5t-57 97t-20 154.5q0 99 27 241q22 113 65.5 201.5t94 140t110.5 85.5t111 46t99 12q63 0 118.5 -23t83.5 -64q3 14 9.5 42t10.5 42l230 -12q-23 -116 -68.5 -348.5t-68.5 -348.5z" />
    <glyph glyph-name="Aogonek" unicode="&#x104;" 
d="M953 0q-230 -89 -287 -118q-103 -52 -127 -115q-3 -7 -5 -15q-1 -3 -1 -8q0 -49 110 -49q59 0 138 51l96 -141q-43 -39 -127 -72.5t-155 -33.5q-65 0 -119.5 10t-100.5 31.5t-72 60.5t-26 92q0 20 5 50q12 69 63 124t106.5 84.5t127.5 66.5t106 64q1 8 1 24q0 21 -4 61
l-9 114q-23 0 -70 -1t-66 -1.5t-54.5 -2t-58 -4.5t-53 -8t-61.5 -12l-48 -90q-58 -110 -71 -162h-260q20 76 97 223q96 184 287 551.5t286 550.5h224q21 -180 62 -540.5t61 -540.5q11 -110 11 -151q0 -51 -8 -91zM674 504v7q0 55 -19 190.5t-19 203.5q0 53 8 93
q-17 -75 -59.5 -167t-100.5 -197.5t-77 -147.5q28 6 72.5 9t107.5 5.5t87 3.5z" />
    <glyph glyph-name="aogonek" unicode="&#x105;" 
d="M343 513q-25 -125 -25 -202q0 -43 7.5 -69.5t23.5 -37t28.5 -13t35.5 -2.5q38 0 81.5 29t78.5 72t59 78.5t38 62.5q9 50 28.5 149.5t29.5 148.5q-24 36 -65.5 63t-85.5 27q-23 0 -45 -6t-50.5 -25.5t-52.5 -51.5t-47.5 -89.5t-38.5 -133.5zM891 316q-8 -43 -8 -67
q0 -65 43 -65l55 -138q-145 -72 -243.5 -124t-151.5 -81.5t-80 -50t-32.5 -29t-5.5 -18.5q0 -49 110 -49q58 0 137 51q16 -23 48.5 -70t48.5 -71q-43 -39 -127.5 -72.5t-155.5 -33.5q-65 0 -119.5 10t-100.5 31.5t-71.5 60.5t-25.5 92q0 27 9 51t23.5 46t48 49t66.5 50
t95.5 59t120 67t153.5 82q-11 9 -19.5 29.5t-8.5 39.5q0 13 1 20q-171 -196 -378 -196q-55 0 -97.5 14t-79.5 47.5t-57 97t-20 154.5q0 99 27 241q22 113 65.5 201.5t94 140t110.5 85.5t111 46t99 12q63 0 118.5 -23t83.5 -64q3 14 9.5 42t10.5 42l230 -12
q-83 -419 -137 -697z" />
    <glyph glyph-name="dcaron" unicode="&#x10f;" 
d="M1360 1410q36 0 81.5 0.5t82 0.5t82 0.5t81.5 0.5q-10 -50 -29.5 -150t-28.5 -150v-3q-29 -151 -117.5 -268.5t-222.5 -173.5q-9 25 -20.5 57.5t-22.5 65.5t-20 58q53 27 89.5 59.5t63 82t39.5 117.5q-19 0 -56.5 -0.5t-56.5 -0.5q9 50 27.5 152t27.5 152zM318 478
q-22 -113 -22 -191q0 -51 21 -82.5t46 -31.5q75 0 158.5 75t145.5 222l42 213q-9 22 -15 35.5t-19 34.5t-26.5 33t-34.5 21t-46 9q-18 0 -42 -9.5t-54.5 -34t-59 -61t-54 -97.5t-40.5 -136zM59 459q108 557 514 557q52 0 99 -18t64.5 -31t44.5 -37q-1 14 -1 40q0 76 20 182
q30 153 64 260l246 -9q-43 -145 -62 -246q-10 -51 -52 -274t-70 -364t-53 -252q-1 -4 -2.5 -12t-2.5 -12q-10 -43 -10 -107q0 -83 21 -130q-36 -3 -107.5 -8t-107.5 -8q-10 11 -21 64.5t-11 93.5q0 12 2 26q-45 -90 -126.5 -135.5t-179.5 -45.5q-119 0 -201.5 85t-82.5 237
q0 66 15 144z" />
    <glyph glyph-name="Dcroat" unicode="&#x110;" 
d="M547 1127h-30q-28 0 -46 -3q-7 -46 -15 -87q-4 -22 -10.5 -51t-9.5 -44h254q-7 -35 -20 -104.5t-19 -104.5q-43 0 -128 -0.5t-128 -0.5q-50 -256 -108 -534q87 -3 99 -3h3q183 0 280 158q38 61 64 191q29 146 29 266q0 156 -54.5 236.5t-160.5 80.5zM184 942
q1 6 3.5 17.5t3.5 17.5q42 215 53 340q145 14 228 14q201 0 316.5 -63t181.5 -202q56 -121 56 -290q0 -100 -19 -196q-18 -94 -61 -204q-68 -173 -193 -269.5t-270 -109.5q-78 -7 -162 -7q-38 0 -153.5 3.5t-176.5 3.5q5 22 29 131q3 14 22 107.5t48 234t53 262.5h-70
q7 35 20.5 105t20.5 105h70z" />
    <glyph glyph-name="dcroat" unicode="&#x111;" 
d="M366 478q-18 -95 -18 -152q0 -153 107 -153q45 0 103 48.5t113 127.5q11 56 32.5 167t32.5 167q-21 52 -56.5 91t-84.5 39q-77 0 -135.5 -75.5t-93.5 -259.5zM107 459q55 285 175 419.5t318 134.5q52 0 98.5 -17t65.5 -30.5t44 -35.5q0 7 -0.5 20.5t-0.5 19.5q0 57 9 123
h-280q7 33 19.5 97.5t18.5 96.5h283q20 82 34 125q41 -1 123.5 -4t123.5 -5q-22 -69 -34 -116h41q-7 -32 -19.5 -96.5t-18.5 -97.5h-45q-16 -80 -50.5 -265.5t-61 -322t-49.5 -238.5q-1 -4 -2.5 -12t-2.5 -12q-21 -93 -27 -236q-33 -3 -99.5 -9.5t-100.5 -10.5
q-25 50 -25 91q0 10 1 15q-40 -44 -106.5 -72t-153.5 -28q-296 0 -296 298q0 75 18 168z" />
    <glyph glyph-name="Ebreve" unicode="&#x114;" 
d="M759 1651q70 0 126 36.5t82 104.5l213 -30q-31 -94 -82 -156t-143.5 -100t-224.5 -38q-64 0 -122.5 16.5t-109.5 50t-82.5 94.5t-32.5 142l225 30q3 -81 45 -115.5t106 -34.5zM283 1319q57 4 205 4h98h110q84 0 207.5 -1.5t151.5 -1.5h16q-6 -34 -20 -101t-20 -101h-529
q-8 -45 -25.5 -134.5t-26.5 -134.5h338q-6 -34 -19.5 -101.5t-19.5 -101.5h-338q-1 -5 -3 -15.5t-3 -15.5q-22 -116 -49 -248.5t-33 -162.5q70 0 208 1t208 1q25 0 57.5 7t52.5 13l20 7q5 -33 17 -99.5t17 -99.5q-10 -3 -37 -10.5t-43.5 -11.5t-48 -8t-65.5 -4h-682
q42 220 128 659.5t128 659.5z" />
    <glyph glyph-name="ebreve" unicode="&#x115;" 
d="M716 1436q70 0 126 36.5t82 104.5l213 -30q-31 -94 -82 -156t-143.5 -100t-224.5 -38q-64 0 -122.5 16.5t-109.5 50t-82.5 94.5t-32.5 142l225 30q3 -81 45 -115.5t106 -34.5zM363 542q99 12 200.5 38t123.5 44q51 42 51 87q0 44 -34.5 75.5t-108.5 31.5
q-76 0 -142 -75.5t-90 -200.5zM632 1021q81 0 145 -19t103 -49t65 -71t36 -81.5t10 -83.5q0 -59 -16 -102q-46 -122 -188 -184.5t-444 -98.5q0 -52 42.5 -94t109.5 -42q183 0 318 99l102 -180q-62 -33 -79 -41.5t-62.5 -30t-67.5 -26t-65.5 -14t-87.5 -11.5t-104 -2
q-175 0 -268 100.5t-93 275.5q0 70 15 150q21 108 66.5 199.5t112 160t156.5 107t194 38.5z" />
    <glyph glyph-name="Edotaccent" unicode="&#x116;" 
d="M641 1693h284q-8 -41 -23.5 -123t-22.5 -123h-285q8 41 23.5 123t23.5 123zM283 1319q57 4 205 4h98h110q84 0 207.5 -1.5t151.5 -1.5h16q-6 -34 -20 -101t-20 -101h-529q-8 -45 -25.5 -134.5t-26.5 -134.5h338q-6 -34 -19.5 -101.5t-19.5 -101.5h-338q-1 -5 -3 -15.5
t-3 -15.5q-22 -116 -49 -248.5t-33 -162.5q70 0 208 1t208 1q25 0 57.5 7t52.5 13l20 7q5 -33 17 -99.5t17 -99.5q-10 -3 -37 -10.5t-43.5 -11.5t-48 -8t-65.5 -4h-682q42 220 128 659.5t128 659.5z" />
    <glyph glyph-name="edotaccent" unicode="&#x117;" 
d="M598 1478h284q-7 -41 -23 -123t-23 -123h-285q8 41 23.5 123t23.5 123zM363 542q99 12 200.5 38t123.5 44q51 42 51 87q0 44 -34.5 75.5t-108.5 31.5q-76 0 -142 -75.5t-90 -200.5zM632 1021q81 0 145 -19t103 -49t65 -71t36 -81.5t10 -83.5q0 -59 -16 -102
q-46 -122 -188 -184.5t-444 -98.5q0 -52 42.5 -94t109.5 -42q183 0 318 99l102 -180q-62 -33 -79 -41.5t-62.5 -30t-67.5 -26t-65.5 -14t-87.5 -11.5t-104 -2q-175 0 -268 100.5t-93 275.5q0 70 15 150q21 108 66.5 199.5t112 160t156.5 107t194 38.5z" />
    <glyph glyph-name="Eogonek" unicode="&#x118;" 
d="M283 1319q57 4 205 4h98h110q84 0 207.5 -1.5t151.5 -1.5h16q-6 -34 -20 -101t-20 -101h-529q-8 -45 -25.5 -134.5t-26.5 -134.5h338q-6 -34 -19.5 -101.5t-19.5 -101.5h-338q-1 -5 -3 -15.5t-3 -15.5q-22 -116 -49 -248.5t-33 -162.5q70 0 208 1t208 1q25 0 57.5 7
t52.5 13l20 7q5 -33 17 -99.5t17 -99.5q-76 -39 -161.5 -80t-128 -61t-84 -44t-60 -46.5t-26.5 -51.5q-1 -3 -1 -8q0 -49 110 -49q58 0 137 51q16 -23 48.5 -70t48.5 -71q-43 -39 -127 -72t-155 -33q-65 0 -119.5 10t-100.5 31.5t-72 60.5t-26 92q0 20 5 50q10 55 49 99
t76 66.5t135 72.5q24 13 36 19h-460q42 220 128 659.5t128 659.5z" />
    <glyph glyph-name="eogonek" unicode="&#x119;" 
d="M421 -9q-162 8 -247.5 107.5t-85.5 267.5q0 70 15 150q21 108 66.5 199.5t112 160t156.5 107t194 38.5q81 0 145 -19t103 -49t65 -71t36 -81.5t10 -83.5q0 -59 -16 -102q-46 -122 -188 -184.5t-444 -98.5q0 -52 42.5 -94t109.5 -42q183 0 318 99l102 -180
q-142 -79 -239 -137.5t-151.5 -95t-83 -64t-36 -42.5t-7.5 -33q0 -49 110 -49q58 0 137 51q16 -23 48.5 -70.5t48.5 -70.5q-43 -39 -127.5 -72.5t-155.5 -33.5q-65 0 -119.5 10t-100.5 31.5t-71.5 60.5t-25.5 92q0 67 56.5 130t222.5 169zM363 542q99 12 200.5 38t123.5 44
q51 42 51 87q0 44 -34.5 75.5t-108.5 31.5q-76 0 -142 -75.5t-90 -200.5z" />
    <glyph glyph-name="Ecaron" unicode="&#x11a;" 
d="M707 1373l-316 297l171 138l173 -189l299 201l112 -175zM283 1319q57 4 205 4h98h110q84 0 207.5 -1.5t151.5 -1.5h16q-6 -34 -20 -101t-20 -101h-529q-8 -45 -25.5 -134.5t-26.5 -134.5h338q-6 -34 -19.5 -101.5t-19.5 -101.5h-338q-1 -5 -3 -15.5t-3 -15.5
q-22 -116 -49 -248.5t-33 -162.5q70 0 208 1t208 1q25 0 57.5 7t52.5 13l20 7q5 -33 17 -99.5t17 -99.5q-10 -3 -37 -10.5t-43.5 -11.5t-48 -8t-65.5 -4h-682q42 220 128 659.5t128 659.5z" />
    <glyph glyph-name="ecaron" unicode="&#x11b;" 
d="M664 1158l-316 297l171 138l173 -189l299 201l112 -175zM363 542q99 12 200.5 38t123.5 44q51 42 51 87q0 44 -34.5 75.5t-108.5 31.5q-76 0 -142 -75.5t-90 -200.5zM632 1021q81 0 145 -19t103 -49t65 -71t36 -81.5t10 -83.5q0 -59 -16 -102q-46 -122 -188 -184.5
t-444 -98.5q0 -52 42.5 -94t109.5 -42q183 0 318 99l102 -180q-62 -33 -79 -41.5t-62.5 -30t-67.5 -26t-65.5 -14t-87.5 -11.5t-104 -2q-175 0 -268 100.5t-93 275.5q0 70 15 150q21 108 66.5 199.5t112 160t156.5 107t194 38.5z" />
    <glyph glyph-name="Gcircumflex" unicode="&#x11c;" 
d="M811 1803l338 -292l-169 -156l-191 201l-268 -189l-128 156zM1064 758q-5 -28 -16 -86t-17 -86q-26 -130 -59.5 -226.5t-69.5 -157t-84.5 -102t-93.5 -61.5t-107 -36q-52 -11 -154 -11q-107 0 -188 33.5t-129.5 95t-72.5 142t-24 179.5q0 88 21 199q73 385 294 569
q153 118 352 118h20q322 -8 387 -257q-42 -20 -128 -58.5t-128 -57.5q-10 91 -49 128.5t-135 37.5q-123 0 -217.5 -134.5t-137.5 -356.5q-20 -105 -20 -183q0 -249 185 -249q50 0 90.5 20.5t68 53t49.5 83t35.5 99.5t26.5 114q-11 0 -32 -0.5t-32 -0.5q-56 0 -91.5 -6.5
t-105.5 -30.5q-7 34 -20.5 101t-20.5 100q120 43 309 43q94 0 294 -16z" />
    <glyph glyph-name="gcircumflex" unicode="&#x11d;" 
d="M748 1588l338 -292l-169 -156l-191 201l-268 -189l-128 156zM279 346q0 -78 21 -106.5t59 -28.5q46 0 135 77.5t164 170.5t90 142q3 19 9.5 56.5t9.5 56.5q-89 113 -204 113q-118 0 -201 -130t-83 -351zM1075 1013l-129 -657q-18 -89 -37 -163.5t-48 -154.5t-63 -142.5
t-81 -120t-102 -95t-126.5 -60t-154.5 -22.5q-185 0 -429 145q17 34 50 101.5t49 100.5q187 -130 347 -130q33 0 63.5 10.5t54.5 24.5t48 41t40 47.5t34.5 58t28 57t24 60.5t18.5 53.5t15 49.5q1 2 1 3t1 3t1.5 3.5t1 3.5t0.5 3q-24 -35 -42 -58.5t-56 -61.5t-74.5 -61.5
t-92.5 -41.5t-116 -18q-115 0 -185 98.5t-70 252.5q0 193 68.5 350.5t192 249t277.5 91.5q58 0 111.5 -17.5t70.5 -28.5t59 -40q3 16 20 77q39 -2 115 -6t115 -6z" />
    <glyph glyph-name="Gbreve" unicode="&#x11e;" 
d="M799 1651q70 0 126 36.5t82 104.5l213 -30q-31 -94 -82 -156t-143.5 -100t-224.5 -38q-64 0 -122.5 16.5t-109.5 50t-82.5 94.5t-32.5 142l225 30q3 -81 45 -115.5t106 -34.5zM1064 758q-5 -28 -16 -86t-17 -86q-26 -130 -59.5 -226.5t-69.5 -157t-84.5 -102t-93.5 -61.5
t-107 -36q-52 -11 -154 -11q-107 0 -188 33.5t-129.5 95t-72.5 142t-24 179.5q0 88 21 199q73 385 294 569q153 118 352 118h20q322 -8 387 -257q-42 -20 -128 -58.5t-128 -57.5q-10 91 -49 128.5t-135 37.5q-123 0 -217.5 -134.5t-137.5 -356.5q-20 -105 -20 -183
q0 -249 185 -249q50 0 90.5 20.5t68 53t49.5 83t35.5 99.5t26.5 114q-11 0 -32 -0.5t-32 -0.5q-56 0 -91.5 -6.5t-105.5 -30.5q-7 34 -20.5 101t-20.5 100q120 43 309 43q94 0 294 -16z" />
    <glyph glyph-name="gbreve" unicode="&#x11f;" 
d="M736 1436q70 0 126 36.5t82 104.5l213 -30q-31 -94 -82 -156t-143.5 -100t-224.5 -38q-64 0 -122.5 16.5t-109.5 50t-82.5 94.5t-32.5 142l225 30q3 -81 45 -115.5t106 -34.5zM279 346q0 -78 21 -106.5t59 -28.5q46 0 135 77.5t164 170.5t90 142q3 19 9.5 56.5t9.5 56.5
q-89 113 -204 113q-118 0 -201 -130t-83 -351zM1075 1013l-129 -657q-18 -89 -37 -163.5t-48 -154.5t-63 -142.5t-81 -120t-102 -95t-126.5 -60t-154.5 -22.5q-185 0 -429 145q17 34 50 101.5t49 100.5q187 -130 347 -130q33 0 63.5 10.5t54.5 24.5t48 41t40 47.5t34.5 58
t28 57t24 60.5t18.5 53.5t15 49.5q1 2 1 3t1 3t1.5 3.5t1 3.5t0.5 3q-24 -35 -42 -58.5t-56 -61.5t-74.5 -61.5t-92.5 -41.5t-116 -18q-115 0 -185 98.5t-70 252.5q0 193 68.5 350.5t192 249t277.5 91.5q58 0 111.5 -17.5t70.5 -28.5t59 -40q3 16 20 77q39 -2 115 -6t115 -6
z" />
    <glyph glyph-name="Gdotaccent" unicode="&#x120;" 
d="M681 1693h284q-8 -41 -23 -123t-23 -123h-285q8 41 23.5 123t23.5 123zM1064 758q-5 -28 -16 -86t-17 -86q-26 -130 -59.5 -226.5t-69.5 -157t-84.5 -102t-93.5 -61.5t-107 -36q-52 -11 -154 -11q-107 0 -188 33.5t-129.5 95t-72.5 142t-24 179.5q0 88 21 199
q73 385 294 569q153 118 352 118h20q322 -8 387 -257q-42 -20 -128 -58.5t-128 -57.5q-10 91 -49 128.5t-135 37.5q-123 0 -217.5 -134.5t-137.5 -356.5q-20 -105 -20 -183q0 -249 185 -249q50 0 90.5 20.5t68 53t49.5 83t35.5 99.5t26.5 114q-11 0 -32 -0.5t-32 -0.5
q-56 0 -91.5 -6.5t-105.5 -30.5q-7 34 -20.5 101t-20.5 100q120 43 309 43q94 0 294 -16z" />
    <glyph glyph-name="gdotaccent" unicode="&#x121;" 
d="M618 1478h284q-8 -41 -23 -123t-23 -123h-285q8 41 23.5 123t23.5 123zM279 346q0 -78 21 -106.5t59 -28.5q46 0 135 77.5t164 170.5t90 142q3 19 9.5 56.5t9.5 56.5q-89 113 -204 113q-118 0 -201 -130t-83 -351zM1075 1013l-129 -657q-18 -89 -37 -163.5t-48 -154.5
t-63 -142.5t-81 -120t-102 -95t-126.5 -60t-154.5 -22.5q-185 0 -429 145q17 34 50 101.5t49 100.5q187 -130 347 -130q33 0 63.5 10.5t54.5 24.5t48 41t40 47.5t34.5 58t28 57t24 60.5t18.5 53.5t15 49.5q1 2 1 3t1 3t1.5 3.5t1 3.5t0.5 3q-24 -35 -42 -58.5t-56 -61.5
t-74.5 -61.5t-92.5 -41.5t-116 -18q-115 0 -185 98.5t-70 252.5q0 193 68.5 350.5t192 249t277.5 91.5q58 0 111.5 -17.5t70.5 -28.5t59 -40q3 16 20 77q39 -2 115 -6t115 -6z" />
    <glyph glyph-name="Gcommaaccent" unicode="&#x122;" 
d="M285 -49h270l-42 -215q-22 -114 -65.5 -177.5t-152.5 -139.5l-109 125q49 34 72.5 70.5t39.5 115.5h-56zM1064 758q-5 -28 -16 -86t-17 -86q-26 -130 -59.5 -226.5t-69.5 -157t-84.5 -102t-93.5 -61.5t-107 -36q-52 -11 -154 -11q-107 0 -188 33.5t-129.5 95t-72.5 142
t-24 179.5q0 88 21 199q73 385 294 569q153 118 352 118h20q322 -8 387 -257q-42 -20 -128 -58.5t-128 -57.5q-10 91 -49 128.5t-135 37.5q-123 0 -217.5 -134.5t-137.5 -356.5q-20 -105 -20 -183q0 -249 185 -249q50 0 90.5 20.5t68 53t49.5 83t35.5 99.5t26.5 114
q-11 0 -32 -0.5t-32 -0.5q-56 0 -91.5 -6.5t-105.5 -30.5q-7 34 -20.5 101t-20.5 100q120 43 309 43q94 0 294 -16z" />
    <glyph glyph-name="gcommaaccent" unicode="&#x123;" 
d="M585 1234q27 50 54.5 106t64 134t63.5 132l183 -33q-55 -171 -141 -386zM279 346q0 -78 21 -106.5t59 -28.5q46 0 135 77.5t164 170.5t90 142q3 19 9.5 56.5t9.5 56.5q-89 113 -204 113q-118 0 -201 -130t-83 -351zM1075 1013l-129 -657q-18 -89 -37 -163.5t-48 -154.5
t-63 -142.5t-81 -120t-102 -95t-126.5 -60t-154.5 -22.5q-185 0 -429 145q17 34 50 101.5t49 100.5q187 -130 347 -130q33 0 63.5 10.5t54.5 24.5t48 41t40 47.5t34.5 58t28 57t24 60.5t18.5 53.5t15 49.5q1 2 1 3t1 3t1.5 3.5t1 3.5t0.5 3q-24 -35 -42 -58.5t-56 -61.5
t-74.5 -61.5t-92.5 -41.5t-116 -18q-115 0 -185 98.5t-70 252.5q0 193 68.5 350.5t192 249t277.5 91.5q58 0 111.5 -17.5t70.5 -28.5t59 -40q3 16 20 77q39 -2 115 -6t115 -6z" />
    <glyph glyph-name="Hcircumflex" unicode="&#x124;" 
d="M739 1803l338 -292l-169 -156l-191 201l-268 -189l-128 156zM499 1322l-105 -537q133 29 277 29h87q21 107 40.5 209t31 161.5t25.5 132.5h256q-43 -219 -128.5 -658t-127.5 -659h-255q20 100 58.5 299.5t57.5 299.5h-32q-116 0 -180 -5t-152 -24q-38 -194 -66.5 -345
t-42.5 -225h-258q43 220 128.5 660t128.5 660q43 0 128.5 1t128.5 1z" />
    <glyph glyph-name="hcircumflex" unicode="&#x125;" 
d="M461 1881l338 -292l-169 -156l-191 201l-268 -189l-128 156zM977 566q-10 -52 -30 -155.5t-30 -154.5q-8 -42 -8 -66q0 -49 41 -93l-213 -129q-86 61 -86 163q0 24 4 45q10 53 30.5 158t30.5 157q25 132 25 205q0 35 -5 57t-15 30.5t-17.5 10.5t-20.5 2h-3
q-50 0 -121.5 -62.5t-132.5 -151t-87 -164.5q-14 -69 -41 -209t-40 -209h-245q213 1093 225 1156q19 100 32 246q41 1 124.5 4t125.5 5q-7 -108 -59 -369q-8 -40 -27.5 -88.5t-48.5 -107.5t-38 -80q9 6 34.5 36t59 63.5t76.5 68t102 57t121 22.5q108 0 180 -75t72 -227
q0 -71 -15 -145z" />
    <glyph glyph-name="Hbar" unicode="&#x126;" 
d="M218 1198q4 21 12 61.5t12 60.5q43 0 128.5 1t128.5 1q-4 -21 -12 -62.5t-12 -61.5h357q3 13 10.5 53t12.5 66h256q-4 -20 -11.5 -59.5t-11.5 -59.5h80q-6 -35 -19.5 -104t-20.5 -103h-80q-32 -165 -96.5 -495.5t-96.5 -495.5h-255q20 100 58.5 299.5t57.5 299.5h-32
q-116 0 -180 -5t-152 -24q-38 -194 -66.5 -345t-42.5 -225h-258q32 165 96.5 495.5t96.5 495.5h-60q7 34 20 103t20 104h60zM793 991h-359q-7 -35 -20.5 -103.5t-19.5 -102.5q133 29 277 29h87q6 32 18 91.5t17 85.5z" />
    <glyph glyph-name="hbar" unicode="&#x127;" 
d="M1007 566q-11 -58 -34 -174t-34 -174q-17 -88 -17 -141q0 -35 7 -55q-39 -9 -118.5 -27t-119.5 -27q-17 31 -17 91q0 49 13 117q10 53 30.5 158t30.5 157q21 105 21 176q0 50 -10 80.5t-31 44t-40 17t-51 3.5q-49 0 -100.5 -39t-92.5 -91q-22 -113 -66.5 -340.5
t-66.5 -341.5h-246q36 185 108.5 556.5t109.5 557.5h-141q7 34 20.5 103t19.5 104h133q1 11 4.5 39t4.5 42l249 9q-3 -44 -9 -90h332q-6 -35 -20 -104t-20 -103h-327q-20 -94 -59 -185q124 83 240 83q157 0 235.5 -68.5t78.5 -218.5q0 -74 -17 -159z" />
    <glyph glyph-name="Itilde" unicode="&#x128;" 
d="M602 1701q48 0 85 -7.5t64.5 -24.5t39.5 -27t34 -32q41 -41 76 -41q37 0 61.5 24t38.5 76l172 -54q-17 -41 -39.5 -76.5t-56.5 -71t-82.5 -56t-106.5 -20.5q-32 0 -58.5 5.5t-53 21t-37 22t-37 30t-27.5 23.5q-21 17 -35 22.5t-46 5.5q-31 0 -57 -26.5t-42 -73.5l-178 78
q21 38 47 71t61 64t81 49t96 18zM314 1324q196 5 354 5q123 0 368 -3q-7 -35 -21 -105.5t-21 -105.5q-65 0 -125 2.5t-104 2.5q-29 -150 -87.5 -450.5t-87.5 -450.5q22 0 39 0.5t43 0.5q75 0 143 -4q-7 -36 -20.5 -108.5t-20.5 -108.5q-101 6 -209 6q-22 0 -73 -0.5
t-82 -0.5q-27 0 -145.5 -3.5t-206.5 -3.5l42 216q107 5 181 5h52q29 150 88 450.5t88 450.5q-144 -2 -230 -7q6 35 17.5 105.5t17.5 106.5z" />
    <glyph glyph-name="itilde" unicode="&#x129;" 
d="M550 1486q48 0 85 -7.5t64.5 -24.5t39.5 -27t34 -32q41 -41 76 -41q37 0 61.5 24t38.5 76l172 -54q-17 -41 -39.5 -76.5t-56.5 -71t-82.5 -56t-106.5 -20.5q-32 0 -58.5 5.5t-53 21t-37 22t-37 30t-27.5 23.5q-21 17 -35 22.5t-46 5.5q-31 0 -57 -26.5t-42 -73.5l-178 78
q21 38 47 71t61 64t81 49t96 18zM481 1039q42 -5 125.5 -13t124.5 -13l-133 -687q-5 -28 -5 -51q0 -93 86 -93q120 0 231 91q10 -32 30 -95t30 -95q-71 -50 -175 -75.5t-205 -25.5q-269 0 -269 203q0 31 8 73q15 80 46 239.5t47 239.5q-34 -34 -134 -82q-19 30 -56 92
t-55 92q237 77 304 200z" />
    <glyph glyph-name="Imacron" unicode="&#x12a;" 
d="M993 1680q-7 -32 -19 -96.5t-19 -97.5h-17q-203 -7 -231 -7q-132 0 -234 3q-3 0 -9 0.5t-9 0.5q6 33 19 98.5t19 98.5q12 -2 19 -2q97 -3 271 -3q33 0 103 2.5t90 2.5h17zM314 1324q196 5 354 5q123 0 368 -3q-7 -35 -21 -105.5t-21 -105.5q-65 0 -125 2.5t-104 2.5
q-29 -150 -87.5 -450.5t-87.5 -450.5q22 0 39 0.5t43 0.5q75 0 143 -4q-7 -36 -20.5 -108.5t-20.5 -108.5q-101 6 -209 6q-22 0 -73 -0.5t-82 -0.5q-27 0 -145.5 -3.5t-206.5 -3.5l42 216q107 5 181 5h52q29 150 88 450.5t88 450.5q-144 -2 -230 -7q6 35 17.5 105.5
t17.5 106.5z" />
    <glyph glyph-name="imacron" unicode="&#x12b;" 
d="M941 1465q-6 -33 -18.5 -97t-19.5 -97h-17q-203 -7 -231 -7q-132 0 -234 3q-3 0 -9 0.5t-9 0.5q7 33 19.5 98.5t18.5 98.5q12 -2 19 -2q98 -3 271 -3q33 0 102.5 2.5t90.5 2.5h17zM481 1039q42 -5 125.5 -13t124.5 -13l-133 -687q-5 -28 -5 -51q0 -93 86 -93
q120 0 231 91q10 -32 30 -95t30 -95q-71 -50 -175 -75.5t-205 -25.5q-269 0 -269 203q0 31 8 73q15 80 46 239.5t47 239.5q-34 -34 -134 -82q-19 30 -56 92t-55 92q237 77 304 200z" />
    <glyph glyph-name="Ibreve" unicode="&#x12c;" 
d="M720 1651q70 0 126 36.5t82 104.5l213 -30q-31 -94 -82 -156t-143.5 -100t-224.5 -38q-64 0 -122.5 16.5t-109.5 50t-82.5 94.5t-32.5 142l225 30q3 -81 45 -115.5t106 -34.5zM314 1324q196 5 354 5q123 0 368 -3q-7 -35 -21 -105.5t-21 -105.5q-65 0 -125 2.5t-104 2.5
q-29 -150 -87.5 -450.5t-87.5 -450.5q22 0 39 0.5t43 0.5q75 0 143 -4q-7 -36 -20.5 -108.5t-20.5 -108.5q-101 6 -209 6q-22 0 -73 -0.5t-82 -0.5q-27 0 -145.5 -3.5t-206.5 -3.5l42 216q107 5 181 5h52q29 150 88 450.5t88 450.5q-144 -2 -230 -7q6 35 17.5 105.5
t17.5 106.5z" />
    <glyph glyph-name="ibreve" unicode="&#x12d;" 
d="M668 1436q70 0 126 36.5t82 104.5l213 -30q-31 -94 -82 -156t-143.5 -100t-224.5 -38q-64 0 -122.5 16.5t-109.5 50t-82.5 94.5t-32.5 142l225 30q3 -81 45 -115.5t106 -34.5zM481 1039q42 -5 125.5 -13t124.5 -13l-133 -687q-5 -28 -5 -51q0 -93 86 -93q120 0 231 91
q10 -32 30 -95t30 -95q-71 -50 -175 -75.5t-205 -25.5q-269 0 -269 203q0 31 8 73q15 80 46 239.5t47 239.5q-34 -34 -134 -82q-19 30 -56 92t-55 92q237 77 304 200z" />
    <glyph glyph-name="Iogonek" unicode="&#x12e;" 
d="M314 1324q196 5 354 5q123 0 368 -3q-7 -35 -21 -105.5t-21 -105.5q-65 0 -125 2.5t-104 2.5q-29 -150 -87.5 -450.5t-87.5 -450.5q22 0 39 0.5t43 0.5q75 0 143 -4q-7 -36 -20.5 -108.5t-20.5 -108.5q-369 -92 -409 -246q-1 -3 -1 -8q0 -49 110 -49q59 0 138 51l96 -141
q-43 -39 -127 -72.5t-155 -33.5q-65 0 -119.5 10t-100.5 31.5t-72 60.5t-26 92q0 20 5 50q15 83 78 138t199 122q-14 0 -131 -3.5t-201 -3.5l42 216q107 5 181 5h52q29 150 88 450.5t88 450.5q-144 -2 -230 -7q6 35 17.5 105.5t17.5 106.5z" />
    <glyph glyph-name="iogonek" unicode="&#x12f;" 
d="M527 1406h291q-7 -38 -21.5 -113t-21.5 -112h-291q7 37 21.5 112.5t21.5 112.5zM476 1013h255l-143 -739q-4 -26 -4 -35q0 -30 21 -43.5t74 -13.5q120 0 231 91q10 -32 30 -95t30 -95q-2 -2 -8 -6q-93 -63 -192.5 -117.5t-147 -78t-81 -55.5t-37.5 -74q0 -1 -0.5 -3.5
t-0.5 -3.5q0 -24 31.5 -37.5t78.5 -13.5q58 0 138 52q16 -24 48 -71.5t48 -70.5q-43 -39 -127 -72t-155 -33q-65 0 -119.5 10t-100.5 31.5t-72 60.5t-26 92q0 20 5 50q7 38 25 69t52.5 58.5t67.5 48.5t90 53q17 9 25 14q-96 10 -136 34q-64 39 -64 122q0 29 7 64
q20 101 59.5 303.5t58.5 303.5q-113 0 -239 -28q1 31 3.5 93t3.5 93q148 42 271 42z" />
    <glyph glyph-name="Idotaccent" unicode="&#x130;" 
d="M602 1693h284q-7 -41 -22.5 -123t-23.5 -123h-285q8 41 23.5 123t23.5 123zM314 1324q196 5 354 5q123 0 368 -3q-7 -35 -21 -105.5t-21 -105.5q-65 0 -125 2.5t-104 2.5q-29 -150 -87.5 -450.5t-87.5 -450.5q22 0 39 0.5t43 0.5q75 0 143 -4q-7 -36 -20.5 -108.5
t-20.5 -108.5q-101 6 -209 6q-22 0 -73 -0.5t-82 -0.5q-27 0 -145.5 -3.5t-206.5 -3.5l42 216q107 5 181 5h52q29 150 88 450.5t88 450.5q-144 -2 -230 -7q6 35 17.5 105.5t17.5 106.5z" />
    <glyph glyph-name="IJ" unicode="&#x132;" 
d="M656 0q-129 0 -188 80t-59 212q0 67 14 143q39 0 117.5 -0.5t117.5 -0.5q-11 -74 -11 -118q0 -104 44 -104q45 0 75 85t79 342q42 225 42 388q0 54 -6 77q-27 0 -44 2t-28 2q-28 -1 -48.5 -3.5t-28 -4t-20 -5.5t-14.5 -5q2 36 7 106.5t7 105.5q64 20 138 22
q54 0 191 -0.5t197 -0.5q-7 -36 -22 -108.5t-22 -108.5q-16 0 -30.5 0.5t-41.5 0.5q0 -103 -9.5 -247t-24.5 -221q-17 -88 -33 -155t-38 -136.5t-45.5 -119.5t-55.5 -95.5t-69.5 -73t-85.5 -43.5t-105 -16zM192 1324q109 5 195 5q67 0 202 -3q-7 -35 -20.5 -105.5
t-20.5 -105.5q-9 1 -28 2.5t-28 2.5q-29 -150 -87.5 -450t-87.5 -450q9 0 27 -2t27 -2q-7 -36 -21 -108.5t-21 -108.5q-55 6 -114 6q-12 0 -40 -0.5t-45 -0.5q-15 0 -81 -3.5t-114 -3.5l42 216q65 5 83 5q29 150 87.5 450.5t88.5 450.5q-14 -1 -41 -3.5t-41 -3.5
q6 35 18.5 106t19.5 106z" />
    <glyph glyph-name="ij" unicode="&#x133;" 
d="M290 1013h256q-24 -123 -72 -369.5t-72 -369.5q-8 -46 -8 -56q0 -19 10.5 -27.5t38.5 -8.5q47 0 66.5 9t54.5 51q10 -27 29.5 -80t29.5 -79q-49 -50 -117.5 -75.5t-133.5 -25.5q-44 0 -99 10.5t-82 27.5q-65 41 -65 123q0 30 7 63q20 101 59.5 303.5t58.5 303.5h-25
q-24 0 -111 -19l6 186q23 6 47.5 13.5t32.5 10t22.5 5.5t28 3.5t38.5 0.5zM900 -78q-10 -48 -28.5 -91t-53 -84t-81 -70.5t-115 -47.5t-151.5 -18q-13 0 -39 -0.5t-39 -0.5q-86 0 -168 28t-199 118l183 174q37 -41 76 -67t78 -36t62.5 -12.5t56.5 -2.5h6h18q32 0 57 10.5
t39 23.5t25.5 35t15 33.5t7.5 29.5q1 6 2 8q28 143 83.5 430t83.5 431h-30q-61 0 -148 -19l6 186q74 21 112.5 27t98.5 6h254q-35 -182 -105.5 -545.5t-106.5 -545.5zM892 1406h290q-7 -38 -21.5 -113t-21.5 -112h-290q7 37 21.5 112t21.5 113zM342 1406h292
q-7 -37 -21.5 -112.5t-21.5 -112.5h-292q7 37 21.5 112.5t21.5 112.5z" />
    <glyph glyph-name="Jcircumflex" unicode="&#x134;" 
d="M755 1803l338 -292l-169 -156l-191 201l-268 -189l-128 156zM337 -8q-161 0 -238.5 93t-77.5 238q0 52 11 112q44 0 130.5 -0.5t129.5 -0.5q-7 -43 -7 -83q0 -72 23.5 -109.5t64.5 -37.5q57 0 106.5 63.5t83 157t61.5 222.5t44 236.5t28 222.5q-26 0 -103.5 1t-94.5 1
q-37 -1 -59.5 -3.5t-30 -4.5t-16 -5t-15.5 -5q-7 36 -20.5 106.5t-20.5 105.5q6 1 20.5 5.5t26 7t40.5 5.5t71 4q71 0 243 -0.5t251 -0.5q-32 -212 -55 -348t-56 -291.5t-65.5 -249.5t-79.5 -188t-102.5 -143.5t-129 -80t-163.5 -30.5z" />
    <glyph glyph-name="jcircumflex" unicode="&#x135;" 
d="M743 1588l338 -292l-169 -156l-191 201l-268 -189l-128 156zM752 -78q-12 -62 -40 -114t-77 -98t-128.5 -72.5t-182.5 -26.5q-53 0 -97 8t-94.5 31t-93.5 72t-74 122q32 25 96 74t96 74q41 -101 85.5 -140.5t97.5 -39.5h18q32 0 57 10.5t39 23.5t25.5 35t15 33.5
t7.5 29.5l1.5 4.5t0.5 3.5q26 127 77 380.5t76 380.5q3 16 3 33q0 41 -22 64.5t-63 23.5q-83 0 -210 -97l-120 135q110 86 192.5 113.5t203.5 27.5q64 0 114.5 -17t79.5 -42.5t47.5 -59t25 -62.5t6.5 -57q0 -20 -3 -32q-26 -137 -79 -410.5t-80 -410.5z" />
    <glyph glyph-name="Kcommaaccent" unicode="&#x136;" 
d="M341 -49h270l-42 -215q-22 -114 -65.5 -177.5t-152.5 -139.5l-109 125q49 34 72.5 70.5t39.5 115.5h-56zM638 742q78 -95 207.5 -342t146.5 -346q-39 -15 -117 -43t-117 -43q-20 91 -119.5 303t-173.5 303q-68 -62 -112 -134q-14 -74 -43 -222.5t-44 -222.5h-258
q43 224 130 670.5t130 669.5h258q-15 -78 -45 -232.5t-45 -231.5q122 135 562 505l162 -177q-34 -22 -70 -48t-72 -56t-68.5 -57.5t-69 -61t-62 -57t-59 -56.5t-49 -48.5l-42.5 -42.5z" />
    <glyph glyph-name="kcommaaccent" unicode="&#x137;" 
d="M345 -49h270l-42 -215q-22 -114 -65.5 -177.5t-152.5 -139.5l-109 125q49 34 72.5 70.5t39.5 115.5h-56zM456 429q4 6 30.5 49.5t52 84t29.5 45.5q42 -14 71 -14q92 0 117 132q1 5 1 15q0 29 -17.5 50.5t-52.5 21.5q-32 0 -93.5 -32t-107.5 -64l-45 -32
q-22 -114 -66.5 -342.5t-66.5 -342.5h-249q40 205 119.5 614.5t119.5 613.5q10 53 10 101q0 30 -3 54q42 8 126 22t126 22q9 -45 9 -73q0 -26 -6 -61q-8 -37 -22 -111.5t-22 -111.5q-17 -87 -64 -174q6 5 16 13t42.5 29t64.5 37t76.5 29t84.5 13q132 0 203 -52t71 -157
q0 -31 -8 -74q-51 -273 -250 -300q70 -110 122 -168.5t136 -129.5q-36 -28 -109.5 -83.5t-110.5 -82.5q-56 53 -148.5 181t-185.5 278z" />
    <glyph glyph-name="kgreenlandic" unicode="&#x138;" 
d="M613 534q125 -107 233 -224t130 -200q-43 -21 -129.5 -63t-130.5 -63q-28 131 -283 396q-68 -62 -112 -134l-48 -246h-258q33 170 99.5 510.5t99.5 511.5h258q-12 -58 -34.5 -173t-33.5 -173q85 94 308 225t295 157q17 -33 52.5 -110t52.5 -110q-402 -207 -499 -304z" />
    <glyph glyph-name="Lacute" unicode="&#x139;" 
d="M247 1543q209 66 452 259q17 -28 68 -91t68 -91q-93 -78 -247.5 -154.5t-281.5 -115.5q-10 29 -29.5 96.5t-29.5 96.5zM81 -3q43 222 129.5 664.5t129.5 663.5h254q-37 -187 -109 -559t-109 -559h428q62 3 118 21q6 -33 17.5 -98.5t16.5 -98.5q-106 -34 -191 -34h-684z
" />
    <glyph glyph-name="lacute" unicode="&#x13a;" 
d="M289 1623q209 66 452 259q17 -28 68 -91t68 -91q-93 -78 -247.5 -154.5t-281.5 -115.5q-9 29 -29.5 96.5t-29.5 96.5zM648 1422l-189 -987q-8 -48 -8 -81q0 -80 42 -118.5t131 -38.5q143 0 275 87q12 -34 35.5 -101t35.5 -100q-71 -50 -171.5 -75.5t-200.5 -25.5
q-191 0 -301.5 85.5t-110.5 220.5q0 43 9 91q33 177 98.5 531.5t98.5 531.5q42 -4 127.5 -10t128.5 -10z" />
    <glyph glyph-name="Lcommaaccent" unicode="&#x13b;" 
d="M360 -49h270l-42 -215q-22 -114 -65.5 -177.5t-152.5 -139.5l-109 125q49 34 72.5 70.5t39.5 115.5h-56zM81 -3q43 222 129.5 664.5t129.5 663.5h254q-37 -187 -109 -559t-109 -559h428q62 3 118 21q6 -33 17.5 -98.5t16.5 -98.5q-106 -34 -191 -34h-684z" />
    <glyph glyph-name="lcommaaccent" unicode="&#x13c;" 
d="M388 -49h270l-42 -215q-22 -114 -65.5 -177.5t-152.5 -139.5l-109 125q49 34 72.5 70.5t39.5 115.5h-56zM648 1422l-189 -987q-8 -48 -8 -81q0 -80 42 -118.5t131 -38.5q143 0 275 87q12 -34 35.5 -101t35.5 -100q-71 -50 -171.5 -75.5t-200.5 -25.5q-191 0 -301.5 85.5
t-110.5 220.5q0 43 9 91q33 177 98.5 531.5t98.5 531.5q42 -4 127.5 -10t128.5 -10z" />
    <glyph glyph-name="Lcaron" unicode="&#x13d;" 
d="M972 1274q-17 -66 -46 -200t-39 -180l-186 22q16 165 51 395zM81 -3q43 222 129.5 664.5t129.5 663.5h254q-37 -187 -109 -559t-109 -559h428q62 3 118 21q6 -33 17.5 -98.5t16.5 -98.5q-106 -34 -191 -34h-684z" />
    <glyph glyph-name="lcaron" unicode="&#x13e;" 
d="M1019 1393q-17 -66 -46 -200t-39 -180l-186 22q16 165 51 395zM648 1422l-189 -987q-8 -48 -8 -81q0 -80 42 -118.5t131 -38.5q143 0 275 87q12 -34 35.5 -101t35.5 -100q-71 -50 -171.5 -75.5t-200.5 -25.5q-191 0 -301.5 85.5t-110.5 220.5q0 43 9 91
q33 177 98.5 531.5t98.5 531.5q42 -4 127.5 -10t128.5 -10z" />
    <glyph glyph-name="Ldot" unicode="&#x13f;" 
d="M602 835h258q-8 -41 -25 -123t-25 -122h-257q8 40 24.5 122t24.5 123zM81 -3q43 222 129.5 664.5t129.5 663.5h254q-37 -187 -109 -559t-109 -559h428q62 3 118 21q6 -33 17.5 -98.5t16.5 -98.5q-106 -34 -191 -34h-684z" />
    <glyph glyph-name="ldot" unicode="&#x140;" 
d="M674 835h258q-8 -41 -25 -123t-25 -122h-257q8 40 24.5 122t24.5 123zM648 1422l-189 -987q-8 -48 -8 -81q0 -80 42 -118.5t131 -38.5q143 0 275 87q12 -34 35.5 -101t35.5 -100q-71 -50 -171.5 -75.5t-200.5 -25.5q-191 0 -301.5 85.5t-110.5 220.5q0 43 9 91
q33 177 98.5 531.5t98.5 531.5q42 -4 127.5 -10t128.5 -10z" />
    <glyph glyph-name="Lslash" unicode="&#x141;" 
d="M292 513q-24 -11 -72.5 -34.5t-73.5 -35.5q-11 32 -32.5 96.5l-32.5 97.5q43 21 129.5 62.5t129.5 62.5q18 94 55 281.5t55 281.5h254l-84 -429q42 21 127.5 62t128.5 61q11 -33 32.5 -98t32.5 -97l-369 -177q-15 -74 -43.5 -220.5t-42.5 -219.5h318q62 3 118 21
q6 -33 17.5 -98.5t16.5 -98.5q-106 -34 -191 -34h-574q17 86 50.5 258t50.5 258z" />
    <glyph glyph-name="lslash" unicode="&#x142;" 
d="M35 1070q0 183 94 281.5t306 98.5q58 0 115 -10.5t87.5 -20t99.5 -33.5q78 -27 119 -27q54 0 67 53l192 -102q-53 -91 -114.5 -126.5t-145.5 -35.5q-74 0 -170 40q-4 2 -12.5 5t-12.5 5q-133 -437 -201 -763q-8 -41 -8 -81q0 -80 42 -118.5t131 -38.5q143 0 275 87
q12 -34 35.5 -101t35.5 -100q-71 -50 -171.5 -75.5t-200.5 -25.5q-191 0 -301.5 85.5t-110.5 220.5q0 43 9 91q25 133 79 350.5t96 368.5l41 151q-132 -24 -132 -179h-244z" />
    <glyph glyph-name="Nacute" unicode="&#x143;" 
d="M457 1543q209 66 452 259q17 -28 68 -91t68 -91q-93 -78 -247.5 -154.5t-281.5 -115.5q-9 29 -29.5 96.5t-29.5 96.5zM616 0q-34 223 -89.5 458.5t-118.5 386.5q-9 -46 -26 -137.5t-26 -137.5q-25 -133 -45.5 -237t-38 -195.5t-27.5 -140.5h-246q43 222 129.5 664.5
t129.5 663.5q35 -1 104.5 -3.5t104.5 -3.5q71 -151 154.5 -442.5t98.5 -468.5q5 41 12 117t14.5 138t18.5 116q64 328 119 551q40 0 122 -0.5t122 -0.5q-41 -168 -92 -433q-25 -127 -71.5 -377.5t-65.5 -347.5q-5 -28 -17 -85t-17 -85h-249z" />
    <glyph glyph-name="nacute" unicode="&#x144;" 
d="M452 1328q209 66 452 259q17 -29 68 -91t68 -91q-93 -78 -247.5 -154.5t-281.5 -115.5q-10 29 -30 96.5t-29 96.5zM423 821q38 43 59.5 66t59 54.5t71.5 46.5t84 26.5t109 11.5q99 0 158.5 -42.5t59.5 -130.5q0 -27 -6 -57q-17 -87 -50.5 -259t-50.5 -259q-2 -8 -2 -21
q0 -8 1 -15.5t4.5 -14t6 -11.5t9.5 -11t10 -9.5t12.5 -9.5t12.5 -8.5t14.5 -9t14.5 -8.5q-26 -33 -77.5 -99.5t-77.5 -100.5q-35 12 -65 28t-61.5 41.5t-50 63.5t-18.5 83q0 19 5 46l93 477q8 40 8 65q0 55 -40 55q-71 0 -171 -102t-170 -213l-99 -504h-251
q23 118 68.5 353.5t68.5 352.5q30 154 30 218q0 16 -4 80q40 8 120.5 24t120.5 24q2 -10 2 -35q0 -44 -8 -196z" />
    <glyph glyph-name="Ncommaaccent" unicode="&#x145;" 
d="M297 -49h270l-42 -215q-22 -114 -65.5 -177.5t-152.5 -139.5l-109 125q49 34 72.5 70.5t39.5 115.5h-56zM616 0q-34 223 -89.5 458.5t-118.5 386.5q-9 -46 -26 -137.5t-26 -137.5q-25 -133 -45.5 -237t-38 -195.5t-27.5 -140.5h-246q43 222 129.5 664.5t129.5 663.5
q35 -1 104.5 -3.5t104.5 -3.5q71 -151 154.5 -442.5t98.5 -468.5q5 41 12 117t14.5 138t18.5 116q64 328 119 551q40 0 122 -0.5t122 -0.5q-41 -168 -92 -433q-25 -127 -71.5 -377.5t-65.5 -347.5q-5 -28 -17 -85t-17 -85h-249z" />
    <glyph glyph-name="ncommaaccent" unicode="&#x146;" 
d="M323 -49h270l-42 -215q-22 -114 -65.5 -177.5t-152.5 -139.5l-109 125q49 34 72.5 70.5t39.5 115.5h-56zM423 821q38 43 59.5 66t59 54.5t71.5 46.5t84 26.5t109 11.5q99 0 158.5 -42.5t59.5 -130.5q0 -27 -6 -57q-17 -87 -50.5 -259t-50.5 -259q-2 -8 -2 -21
q0 -8 1 -15.5t4.5 -14t6 -11.5t9.5 -11t10 -9.5t12.5 -9.5t12.5 -8.5t14.5 -9t14.5 -8.5q-26 -33 -77.5 -99.5t-77.5 -100.5q-35 12 -65 28t-61.5 41.5t-50 63.5t-18.5 83q0 19 5 46l93 477q8 40 8 65q0 55 -40 55q-71 0 -171 -102t-170 -213l-99 -504h-251
q23 118 68.5 353.5t68.5 352.5q30 154 30 218q0 16 -4 80q40 8 120.5 24t120.5 24q2 -10 2 -35q0 -44 -8 -196z" />
    <glyph glyph-name="Ncaron" unicode="&#x147;" 
d="M671 1373l-316 297l171 138l173 -189l299 201l112 -175zM616 0q-34 223 -89.5 458.5t-118.5 386.5q-9 -46 -26 -137.5t-26 -137.5q-25 -133 -45.5 -237t-38 -195.5t-27.5 -140.5h-246q43 222 129.5 664.5t129.5 663.5q35 -1 104.5 -3.5t104.5 -3.5q71 -151 154.5 -442.5
t98.5 -468.5q5 41 12 117t14.5 138t18.5 116q64 328 119 551q40 0 122 -0.5t122 -0.5q-41 -168 -92 -433q-25 -127 -71.5 -377.5t-65.5 -347.5q-5 -28 -17 -85t-17 -85h-249z" />
    <glyph glyph-name="ncaron" unicode="&#x148;" 
d="M666 1158l-316 297l171 138l173 -189l299 201l112 -175zM423 821q38 43 59.5 66t59 54.5t71.5 46.5t84 26.5t109 11.5q99 0 158.5 -42.5t59.5 -130.5q0 -27 -6 -57q-17 -87 -50.5 -259t-50.5 -259q-2 -8 -2 -21q0 -8 1 -15.5t4.5 -14t6 -11.5t9.5 -11t10 -9.5t12.5 -9.5
t12.5 -8.5t14.5 -9t14.5 -8.5q-26 -33 -77.5 -99.5t-77.5 -100.5q-35 12 -65 28t-61.5 41.5t-50 63.5t-18.5 83q0 19 5 46l93 477q8 40 8 65q0 55 -40 55q-71 0 -171 -102t-170 -213l-99 -504h-251q23 118 68.5 353.5t68.5 352.5q30 154 30 218q0 16 -4 80q40 8 120.5 24
t120.5 24q2 -10 2 -35q0 -44 -8 -196z" />
    <glyph glyph-name="Eng" unicode="&#x14a;" 
d="M717 1296q171 0 253.5 -84.5t82.5 -229.5q0 -54 -13 -122q-22 -112 -64.5 -343t-66.5 -352q-1 -6 -3.5 -17.5t-3.5 -16.5q-10 -50 -18.5 -86t-23.5 -83.5t-32 -81.5t-44 -73.5t-59.5 -67.5t-77.5 -55t-98.5 -43.5t-123.5 -26.5t-152 -10h-34q7 37 21.5 111t21.5 111
q83 0 144 14.5t98 36t62 61t37 76t23 92.5q24 125 72.5 373.5t72.5 372.5q14 72 14 114q0 67 -31 94t-100 27q-15 0 -31.5 -4.5t-30 -11t-30 -19t-28 -22t-27.5 -27t-25 -27t-24.5 -30t-20.5 -27.5t-19 -27t-16 -22q-28 -145 -84.5 -435t-84.5 -435q-42 0 -126.5 -1
t-127.5 -2l207 1062q10 54 10 103q0 26 -2.5 50.5t-5.5 35.5l-2 11q36 10 107.5 30t106.5 30q16 -58 16 -97q0 -22 -3 -51q76 64 139.5 94.5t144.5 30.5z" />
    <glyph glyph-name="eng" unicode="&#x14b;" 
d="M443 927q55 42 129.5 70.5t151.5 28.5q116 0 184.5 -44t68.5 -134q0 -30 -5 -52q-17 -87 -50.5 -259t-50.5 -259q-18 -92 -36.5 -163.5t-46 -145t-60 -128t-78.5 -103.5t-101.5 -79.5t-128.5 -48t-160 -17.5l42 219q45 0 83 13.5t65.5 33.5t50.5 53t38 63t28 72.5
t20 72.5t15 71q16 85 48.5 254.5t48.5 253.5q8 38 8 63q0 29 -13.5 43t-45.5 14q-85 0 -235 -112q-22 -118 -67.5 -353.5t-68.5 -353.5h-252q23 118 68.5 353.5t68.5 352.5q30 154 30 218q0 16 -4 80q40 8 120.5 24t120.5 24q14 -73 14 -109v-16z" />
    <glyph glyph-name="Omacron" unicode="&#x14c;" 
d="M1039 1680q-7 -32 -19.5 -96.5t-18.5 -97.5h-17q-203 -7 -231 -7q-132 0 -234 3q-3 0 -9 0.5t-9 0.5q7 33 19.5 98.5t18.5 98.5q12 -2 19 -2q98 -3 271 -3q32 0 102 2.5t91 2.5h17zM709 1350q32 0 61.5 -3.5t66 -15.5t66.5 -31t59.5 -52.5t50 -77.5t33 -109t12.5 -144
q0 -115 -28 -270q0 -2 -1 -5.5t-1 -5.5q-24 -123 -67 -234.5t-94 -184.5q-77 -109 -193.5 -171t-241.5 -62q-101 0 -191 35.5t-133 107.5q-57 94 -57 240q0 95 23 212q48 244 110 384.5t138 223.5q65 71 168.5 116t218.5 47zM471 187q49 0 98.5 45.5t88 115.5t67 146.5
t42.5 145.5q1 3 2 8.5t2 8.5q29 143 29 258q0 232 -131 232q-67 0 -135 -82t-118.5 -207t-78.5 -266q-23 -115 -23 -196q0 -209 157 -209z" />
    <glyph glyph-name="omacron" unicode="&#x14d;" 
d="M990 1465q-6 -33 -18.5 -97t-19.5 -97h-17q-203 -7 -231 -7q-132 0 -234 3q-3 0 -9 0.5t-9 0.5q7 33 19 98.5t19 98.5q12 -2 19 -2q97 -3 271 -3q32 0 102 2.5t91 2.5h17zM598 247q76 70 115 283q1 3 2 8t1 8q13 73 13 125q0 159 -123 159q-107 0 -169 -90t-94 -258
q-11 -58 -11 -103q0 -85 35 -133.5t104 -48.5q40 1 67 11.5t60 38.5zM431 -6q-184 0 -271.5 85.5t-87.5 241.5q0 67 15 143q110 568 544 568q144 0 224 -49.5t114 -151.5q18 -54 18 -136q0 -79 -15 -152q-18 -90 -45.5 -167t-72.5 -149t-102.5 -122.5t-139 -80.5t-179.5 -30
h-2z" />
    <glyph glyph-name="Obreve" unicode="&#x14e;" 
d="M766 1651q70 0 126 36.5t82 104.5l213 -30q-31 -94 -82 -156t-143.5 -100t-224.5 -38q-64 0 -122.5 16.5t-109.5 50t-82.5 94.5t-32.5 142l225 30q3 -81 45 -115.5t106 -34.5zM709 1350q32 0 61.5 -3.5t66 -15.5t66.5 -31t59.5 -52.5t50 -77.5t33 -109t12.5 -144
q0 -115 -28 -270q0 -2 -1 -5.5t-1 -5.5q-24 -123 -67 -234.5t-94 -184.5q-77 -109 -193.5 -171t-241.5 -62q-101 0 -191 35.5t-133 107.5q-57 94 -57 240q0 95 23 212q48 244 110 384.5t138 223.5q65 71 168.5 116t218.5 47zM471 187q49 0 98.5 45.5t88 115.5t67 146.5
t42.5 145.5q1 3 2 8.5t2 8.5q29 143 29 258q0 232 -131 232q-67 0 -135 -82t-118.5 -207t-78.5 -266q-23 -115 -23 -196q0 -209 157 -209z" />
    <glyph glyph-name="obreve" unicode="&#x14f;" 
d="M717 1436q70 0 126 36.5t82 104.5l213 -30q-31 -94 -82 -156t-143.5 -100t-224.5 -38q-64 0 -122.5 16.5t-109.5 50t-82.5 94.5t-32.5 142l225 30q3 -81 45 -115.5t106 -34.5zM598 247q76 70 115 283q1 3 2 8t1 8q13 73 13 125q0 159 -123 159q-107 0 -169 -90t-94 -258
q-11 -58 -11 -103q0 -85 35 -133.5t104 -48.5q40 1 67 11.5t60 38.5zM431 -6q-184 0 -271.5 85.5t-87.5 241.5q0 67 15 143q110 568 544 568q144 0 224 -49.5t114 -151.5q18 -54 18 -136q0 -79 -15 -152q-18 -90 -45.5 -167t-72.5 -149t-102.5 -122.5t-139 -80.5t-179.5 -30
h-2z" />
    <glyph glyph-name="Ohungarumlaut" unicode="&#x150;" 
d="M855 1508q96 68 198 178.5t180 223.5q29 -21 88 -63.5t88 -63.5q-65 -100 -192.5 -219.5t-242.5 -198.5q-20 24 -59.5 71.5t-59.5 71.5zM473 1515q96 68 198 178.5t180 223.5q30 -21 88 -63.5t88 -63.5q-65 -101 -192.5 -220t-241.5 -198q-20 24 -60 71.5t-60 71.5z
M709 1350q32 0 61.5 -3.5t66 -15.5t66.5 -31t59.5 -52.5t50 -77.5t33 -109t12.5 -144q0 -115 -28 -270q0 -2 -1 -5.5t-1 -5.5q-24 -123 -67 -234.5t-94 -184.5q-77 -109 -193.5 -171t-241.5 -62q-101 0 -191 35.5t-133 107.5q-57 94 -57 240q0 95 23 212q48 244 110 384.5
t138 223.5q65 71 168.5 116t218.5 47zM471 187q49 0 98.5 45.5t88 115.5t67 146.5t42.5 145.5q1 3 2 8.5t2 8.5q29 143 29 258q0 232 -131 232q-67 0 -135 -82t-118.5 -207t-78.5 -266q-23 -115 -23 -196q0 -209 157 -209z" />
    <glyph glyph-name="ohungarumlaut" unicode="&#x151;" 
d="M806 1293q96 68 198 178.5t180 223.5q29 -21 88 -63.5t88 -63.5q-65 -100 -192.5 -219.5t-242.5 -198.5q-20 24 -59.5 71.5t-59.5 71.5zM424 1300q96 68 198 178.5t180 223.5q30 -21 88 -63.5t88 -63.5q-65 -101 -192.5 -220t-241.5 -198q-20 24 -60 71.5t-60 71.5z
M598 247q76 70 115 283q1 3 2 8t1 8q13 73 13 125q0 159 -123 159q-107 0 -169 -90t-94 -258q-11 -58 -11 -103q0 -85 35 -133.5t104 -48.5q40 1 67 11.5t60 38.5zM431 -6q-184 0 -271.5 85.5t-87.5 241.5q0 67 15 143q110 568 544 568q144 0 224 -49.5t114 -151.5
q18 -54 18 -136q0 -79 -15 -152q-18 -90 -45.5 -167t-72.5 -149t-102.5 -122.5t-139 -80.5t-179.5 -30h-2z" />
    <glyph glyph-name="Racute" unicode="&#x154;" 
d="M423 1543q209 66 452 259q17 -28 68 -91t68 -91q-93 -78 -247.5 -154.5t-281.5 -115.5q-10 29 -29.5 96.5t-29.5 96.5zM708 548q69 -158 188 -341q46 -49 96 -63q-25 -31 -76.5 -94t-77.5 -94q-39 6 -74.5 36t-57.5 66q-50 72 -119.5 222t-108.5 250q-60 5 -112 28
l-108 -558h-243q37 190 110.5 568t110.5 568q19 97 29 178q161 15 221 15q63 0 105.5 -1t98 -4.5t93.5 -10t81.5 -18t74.5 -28.5t59.5 -42t47.5 -57q36 -60 36 -153q0 -43 -9 -87q-33 -164 -129 -260.5t-236 -119.5zM807 906q6 32 6 56q0 89 -69 125.5t-205 36.5
q-34 0 -63 -1q-11 -59 -34 -177.5t-35 -177.5q92 -42 158 -42h8q117 0 167 46t67 134z" />
    <glyph glyph-name="racute" unicode="&#x155;" 
d="M472 1328q209 66 452 259q17 -29 68 -91t68 -91q-93 -78 -247.5 -154.5t-281.5 -115.5q-9 29 -29 96.5t-30 96.5zM514 750q35 54 67 94.5t77 84t98.5 67.5t110.5 24q107 0 165.5 -54t58.5 -156q0 -62 -6 -91l-6 -30q-42 -1 -126.5 -1t-126.5 -1q15 65 15 81q0 40 -27 40
q-28 0 -98 -80.5t-148.5 -208.5t-120.5 -243l-57 -294h-252q23 120 70 360.5t70 361.5q2 12 2 19q0 23 -13.5 48t-25.5 39t-43 48q31 31 92.5 93t91.5 93q4 -4 26.5 -24t31 -29.5t26.5 -35.5t26 -50.5t15 -65.5t7 -89z" />
    <glyph glyph-name="Rcommaaccent" unicode="&#x156;" 
d="M325 -49h270l-42 -215q-22 -114 -65.5 -177.5t-152.5 -139.5l-109 125q49 34 72.5 70.5t39.5 115.5h-56zM708 548q69 -158 188 -341q46 -49 96 -63q-25 -31 -76.5 -94t-77.5 -94q-39 6 -74.5 36t-57.5 66q-50 72 -119.5 222t-108.5 250q-60 5 -112 28l-108 -558h-243
q37 190 110.5 568t110.5 568q19 97 29 178q161 15 221 15q63 0 105.5 -1t98 -4.5t93.5 -10t81.5 -18t74.5 -28.5t59.5 -42t47.5 -57q36 -60 36 -153q0 -43 -9 -87q-33 -164 -129 -260.5t-236 -119.5zM807 906q6 32 6 56q0 89 -69 125.5t-205 36.5q-34 0 -63 -1
q-11 -59 -34 -177.5t-35 -177.5q92 -42 158 -42h8q117 0 167 46t67 134z" />
    <glyph glyph-name="rcommaaccent" unicode="&#x157;" 
d="M134 -49h270l-42 -215q-22 -114 -65.5 -177.5t-152.5 -139.5l-109 125q49 34 72.5 70.5t39.5 115.5h-56zM514 750q35 54 67 94.5t77 84t98.5 67.5t110.5 24q107 0 165.5 -54t58.5 -156q0 -62 -6 -91l-6 -30q-42 -1 -126.5 -1t-126.5 -1q15 65 15 81q0 40 -27 40
q-28 0 -98 -80.5t-148.5 -208.5t-120.5 -243l-57 -294h-252q23 120 70 360.5t70 361.5q2 12 2 19q0 23 -13.5 48t-25.5 39t-43 48q31 31 92.5 93t91.5 93q4 -4 26.5 -24t31 -29.5t26.5 -35.5t26 -50.5t15 -65.5t7 -89z" />
    <glyph glyph-name="Rcaron" unicode="&#x158;" 
d="M637 1373l-316 297l171 138l173 -189l299 201l112 -175zM708 548q69 -158 188 -341q46 -49 96 -63q-25 -31 -76.5 -94t-77.5 -94q-39 6 -74.5 36t-57.5 66q-50 72 -119.5 222t-108.5 250q-60 5 -112 28l-108 -558h-243q37 190 110.5 568t110.5 568q19 97 29 178
q161 15 221 15q63 0 105.5 -1t98 -4.5t93.5 -10t81.5 -18t74.5 -28.5t59.5 -42t47.5 -57q36 -60 36 -153q0 -43 -9 -87q-33 -164 -129 -260.5t-236 -119.5zM807 906q6 32 6 56q0 89 -69 125.5t-205 36.5q-34 0 -63 -1q-11 -59 -34 -177.5t-35 -177.5q92 -42 158 -42h8
q117 0 167 46t67 134z" />
    <glyph glyph-name="rcaron" unicode="&#x159;" 
d="M686 1158l-316 297l171 138l173 -189l299 201l112 -175zM514 750q35 54 67 94.5t77 84t98.5 67.5t110.5 24q107 0 165.5 -54t58.5 -156q0 -62 -6 -91l-6 -30q-42 -1 -126.5 -1t-126.5 -1q15 65 15 81q0 40 -27 40q-28 0 -98 -80.5t-148.5 -208.5t-120.5 -243l-57 -294
h-252q23 120 70 360.5t70 361.5q2 12 2 19q0 23 -13.5 48t-25.5 39t-43 48q31 31 92.5 93t91.5 93q4 -4 26.5 -24t31 -29.5t26.5 -35.5t26 -50.5t15 -65.5t7 -89z" />
    <glyph glyph-name="Sacute" unicode="&#x15a;" 
d="M468 1543q209 66 452 259q17 -28 68 -91t68 -91q-93 -78 -247.5 -154.5t-281.5 -115.5q-10 29 -29.5 96.5t-29.5 96.5zM292 702q-60 30 -94 94.5t-34 140.5q0 32 8 69q35 161 160 241.5t321 80.5h9q343 0 461 -136l-180 -192q-37 47 -103.5 75.5t-116.5 35.5t-96 7
q-48 0 -112.5 -29t-73.5 -75q-4 -19 -4 -38q0 -24 7 -41.5t21.5 -30t27 -19t34.5 -15.5q40 -17 137.5 -50t165.5 -68q156 -84 156 -266q0 -40 -9 -90q-16 -87 -54 -157t-88.5 -115.5t-115.5 -76t-132.5 -43.5t-142.5 -13h-19q-210 6 -306 93.5t-96 232.5q0 48 11 105
q44 0 132.5 -1t133.5 -1q-8 -42 -8 -71q0 -149 179 -149q33 0 68 8.5t72.5 27.5t66 56.5t38.5 89.5q4 20 4 42q0 102 -115 158q-49 24 -149 56t-164 64z" />
    <glyph glyph-name="sacute" unicode="&#x15b;" 
d="M467 1328q209 66 452 259q17 -29 68 -91t68 -91q-93 -78 -247.5 -154.5t-281.5 -115.5q-9 29 -29 96.5t-30 96.5zM311 549q-98 54 -98 173q0 28 6 59q13 67 54.5 117t100.5 77.5t123.5 40.5t134.5 13q113 0 204.5 -17.5t189.5 -64.5q-19 -32 -59 -95.5t-59 -94.5
q-56 36 -143 54t-169 18q-113 0 -126 -61q-3 -14 -3 -23q0 -27 24 -44q35 -16 89.5 -37.5t89 -35.5t78 -35t70 -42t51.5 -49.5t36.5 -65t11.5 -81.5q0 -32 -8 -77q-11 -58 -44 -107.5t-78.5 -82.5t-91 -55t-91.5 -33q-91 -20 -177 -20q-167 0 -259.5 73t-92.5 201q0 33 8 76
h253q-5 -23 -5 -49q0 -52 32 -75.5t101 -23.5q26 0 53.5 5t58.5 16t53.5 33.5t27.5 53.5q4 26 4 36q0 50 -49 89q-33 24 -149.5 69.5t-151.5 64.5z" />
    <glyph glyph-name="Scircumflex" unicode="&#x15c;" 
d="M746 1803l338 -292l-169 -156l-191 201l-268 -189l-128 156zM292 702q-60 30 -94 94.5t-34 140.5q0 32 8 69q35 161 160 241.5t321 80.5h9q343 0 461 -136l-180 -192q-37 47 -103.5 75.5t-116.5 35.5t-96 7q-48 0 -112.5 -29t-73.5 -75q-4 -19 -4 -38q0 -24 7 -41.5
t21.5 -30t27 -19t34.5 -15.5q40 -17 137.5 -50t165.5 -68q156 -84 156 -266q0 -40 -9 -90q-16 -87 -54 -157t-88.5 -115.5t-115.5 -76t-132.5 -43.5t-142.5 -13h-19q-210 6 -306 93.5t-96 232.5q0 48 11 105q44 0 132.5 -1t133.5 -1q-8 -42 -8 -71q0 -149 179 -149
q33 0 68 8.5t72.5 27.5t66 56.5t38.5 89.5q4 20 4 42q0 102 -115 158q-49 24 -149 56t-164 64z" />
    <glyph glyph-name="scircumflex" unicode="&#x15d;" 
d="M745 1588l338 -292l-169 -156l-191 201l-268 -189l-128 156zM311 549q-98 54 -98 173q0 28 6 59q13 67 54.5 117t100.5 77.5t123.5 40.5t134.5 13q113 0 204.5 -17.5t189.5 -64.5q-19 -32 -59 -95.5t-59 -94.5q-56 36 -143 54t-169 18q-113 0 -126 -61q-3 -14 -3 -23
q0 -27 24 -44q35 -16 89.5 -37.5t89 -35.5t78 -35t70 -42t51.5 -49.5t36.5 -65t11.5 -81.5q0 -32 -8 -77q-11 -58 -44 -107.5t-78.5 -82.5t-91 -55t-91.5 -33q-91 -20 -177 -20q-167 0 -259.5 73t-92.5 201q0 33 8 76h253q-5 -23 -5 -49q0 -52 32 -75.5t101 -23.5
q26 0 53.5 5t58.5 16t53.5 33.5t27.5 53.5q4 26 4 36q0 50 -49 89q-33 24 -149.5 69.5t-151.5 64.5z" />
    <glyph glyph-name="Scedilla" unicode="&#x15e;" 
d="M292 702q-129 64 -129 216q0 40 9 88q31 161 157.5 241.5t323.5 80.5h9q187 0 305.5 -64t127.5 -186q-49 -17 -146.5 -51t-146.5 -51q-18 71 -67.5 106.5t-107.5 35.5q-69 0 -122.5 -27.5t-63.5 -76.5q-4 -19 -4 -38q0 -24 7 -41.5t21.5 -30t27 -19t34.5 -15.5
q40 -17 137.5 -50t165.5 -68q156 -84 156 -266q0 -40 -9 -90q-34 -180 -147.5 -276.5t-274.5 -120.5q-2 -7 -5.5 -24.5t-6.5 -31t-3 -14.5q67 -3 110 -38.5t43 -99.5q0 -19 -4 -38q-19 -95 -104.5 -148.5t-206.5 -53.5q-53 0 -111 14t-93 40q15 24 44.5 73t44.5 74
q48 -29 123 -29q70 0 83 49v2q1 3 1 10q0 20 -16 33t-46 13q-72 0 -111 -13q6 30 18 90.5t18 90.5q-161 23 -235.5 107t-74.5 212q0 48 11 105q44 0 132.5 -1t132.5 -1q-8 -42 -8 -70q0 -150 180 -150q209 0 245 182q4 20 4 42q0 102 -115 158q-49 24 -149 56t-164 64z" />
    <glyph glyph-name="scedilla" unicode="&#x15f;" 
d="M281 549q-98 54 -98 173q0 28 6 59q13 67 54.5 117t100.5 77.5t123.5 40.5t134.5 13q60 0 107 -4.5t99.5 -17.5t96 -42t74.5 -72q-35 -27 -104.5 -81.5t-104.5 -81.5q-73 99 -204 99q-113 0 -126 -61q-3 -14 -3 -23q0 -27 24 -44q35 -16 89.5 -37.5t89 -35.5t78 -35
t70 -42t51.5 -49.5t36.5 -65t11.5 -81.5q0 -32 -8 -77q-14 -76 -68 -137.5t-114.5 -94t-122.5 -46.5q-40 -9 -57 -11l-5 -25q-9 -45 -9 -46q67 -3 109.5 -38.5t42.5 -98.5q0 -20 -4 -39q-19 -95 -104.5 -148.5t-206.5 -53.5q-53 0 -111 14t-93 40q15 25 44.5 74t44.5 73
q48 -29 124 -29q69 0 82 49v2q1 4 1 11q0 20 -15.5 32.5t-45.5 12.5q-73 0 -112 -13q6 30 18 90.5t18 91.5q-120 20 -185 89.5t-65 176.5q0 33 8 76h253q-5 -23 -5 -49q0 -52 32 -75.5t101 -23.5q26 0 53.5 5t58.5 16t53.5 33.5t27.5 53.5q4 26 4 36q0 50 -49 89
q-33 24 -149.5 69.5t-151.5 64.5z" />
    <glyph glyph-name="Scaron" unicode="&#x160;" 
d="M682 1373l-316 297l171 138l173 -189l299 201l112 -175zM292 702q-60 30 -94 94.5t-34 140.5q0 32 8 69q35 161 160 241.5t321 80.5h9q343 0 461 -136l-180 -192q-37 47 -103.5 75.5t-116.5 35.5t-96 7q-48 0 -112.5 -29t-73.5 -75q-4 -19 -4 -38q0 -24 7 -41.5t21.5 -30
t27 -19t34.5 -15.5q40 -17 137.5 -50t165.5 -68q156 -84 156 -266q0 -40 -9 -90q-16 -87 -54 -157t-88.5 -115.5t-115.5 -76t-132.5 -43.5t-142.5 -13h-19q-210 6 -306 93.5t-96 232.5q0 48 11 105q44 0 132.5 -1t133.5 -1q-8 -42 -8 -71q0 -149 179 -149q33 0 68 8.5
t72.5 27.5t66 56.5t38.5 89.5q4 20 4 42q0 102 -115 158q-49 24 -149 56t-164 64z" />
    <glyph glyph-name="scaron" unicode="&#x161;" 
d="M681 1158l-316 297l171 138l173 -189l299 201l112 -175zM311 549q-98 54 -98 173q0 28 6 59q13 67 54.5 117t100.5 77.5t123.5 40.5t134.5 13q113 0 204.5 -17.5t189.5 -64.5q-19 -32 -59 -95.5t-59 -94.5q-56 36 -143 54t-169 18q-113 0 -126 -61q-3 -14 -3 -23
q0 -27 24 -44q35 -16 89.5 -37.5t89 -35.5t78 -35t70 -42t51.5 -49.5t36.5 -65t11.5 -81.5q0 -32 -8 -77q-11 -58 -44 -107.5t-78.5 -82.5t-91 -55t-91.5 -33q-91 -20 -177 -20q-167 0 -259.5 73t-92.5 201q0 33 8 76h253q-5 -23 -5 -49q0 -52 32 -75.5t101 -23.5
q26 0 53.5 5t58.5 16t53.5 33.5t27.5 53.5q4 26 4 36q0 50 -49 89q-33 24 -149.5 69.5t-151.5 64.5z" />
    <glyph glyph-name="Tcommaaccent" unicode="&#x162;" 
d="M278 -9q36 188 109.5 563.5t109.5 563.5q-114 0 -203.5 -0.5t-112.5 -0.5q6 34 20 103t20 104q53 0 358 0.5t407 0.5q110 0 163 -16q-16 -34 -49 -101.5t-50 -101.5q-50 12 -110 12h-183q-37 -188 -110 -563.5t-109 -563.5h-19q-2 -9 -5 -24t-5.5 -25.5t-2.5 -11.5
q67 -3 110 -38.5t43 -99.5q0 -19 -4 -38q-19 -95 -104.5 -149t-206.5 -54q-53 0 -111 14t-93 40q15 24 44.5 73.5t44.5 74.5q50 -30 123 -30q70 0 83 50v2q1 4 1 11q0 19 -15.5 31.5t-45.5 12.5q-75 0 -111 -12q6 29 17 86.5t16 86.5h-19z" />
    <glyph glyph-name="tcommaaccent" unicode="&#x163;" 
d="M398 435q-1 -7 -3.5 -20t-4.5 -20q-9 -47 -9 -80q0 -53 23 -79.5t71 -35.5q23 -4 64 -4q71 0 125 27q20 10 37.5 28.5t26 32.5t18.5 34t11 21q32 -16 94.5 -50t93.5 -50q-20 -38 -77 -99.5t-138 -104.5q-61 -32 -159 -39q-2 -9 -5 -24.5t-5.5 -26.5t-2.5 -12
q67 -3 110 -38.5t43 -99.5q0 -19 -4 -38q-19 -95 -104.5 -148.5t-206.5 -53.5q-53 0 -111 14t-93 40q15 24 44.5 73t44.5 74q48 -29 123 -29q69 0 82 49v1l1 1q1 4 1 11q0 20 -15.5 32.5t-45.5 12.5q-73 0 -112 -13q6 30 17.5 90.5t17.5 90.5q-88 13 -142.5 50.5
t-75.5 111.5q-12 44 -12 89q0 50 18 144q2 7 5 21.5t4 21.5q43 202 81 371h-14q-42 0 -84 -11q3 34 10.5 101.5t11.5 101.5q35 12 104 12h15q7 35 23.5 117t23.5 117q42 -1 125.5 -3t124.5 -3q-8 -39 -26.5 -129t-19.5 -94q47 0 142 -1t166.5 -2t74.5 -1l-42 -204
q-69 0 -193 1t-190 1q-21 -90 -46.5 -212.5t-35.5 -166.5z" />
    <glyph glyph-name="Tcaron" unicode="&#x164;" 
d="M664 1373l-316 297l171 138l173 -189l299 201l112 -175zM280 0q36 187 108.5 559t108.5 559q-114 0 -203.5 -0.5t-112.5 -0.5q6 34 20 103t20 104q53 0 358 0.5t407 0.5q110 0 163 -16q-16 -34 -49 -101.5t-50 -101.5q-50 12 -110 12h-183q-36 -187 -108.5 -559
t-108.5 -559h-260z" />
    <glyph glyph-name="tcaron" unicode="&#x165;" 
d="M949 1476q-17 -66 -45.5 -199.5t-39.5 -181.5l-186 22q14 147 52 395zM443 1244zM977 145q-8 -4 -48 -28t-74.5 -41t-85.5 -38t-109 -32.5t-116 -11.5q-191 0 -279 92.5t-88 240.5q0 59 12 117l9 42q29 136 70 319h-14q-42 0 -84 -12q4 34 11.5 102t11.5 102
q39 12 104 12h15q7 35 24 120.5t24 120.5q42 -1 125.5 -3t124.5 -3q-12 -63 -47 -231q48 0 152.5 -1t189.5 -2t86 -1q-7 -34 -21.5 -102t-21.5 -102q-69 0 -215 1t-212 1q-21 -90 -41.5 -186t-30.5 -139q-2 -7 -4.5 -20.5t-3.5 -19.5q-10 -50 -10 -93q0 -153 150 -153
q45 0 86 12t67 26t53 38t36.5 34.5t23.5 28.5z" />
    <glyph glyph-name="Tbar" unicode="&#x166;" 
d="M378 504h-227q7 36 21 108.5t21 108.5h227q13 66 38.5 198.5t38.5 198.5q-114 0 -203.5 -0.5t-112.5 -0.5q6 34 20 103t20 104q53 0 358 0.5t407 0.5q110 0 163 -16q-16 -34 -49 -101.5t-50 -101.5q-50 12 -110 12h-183q-13 -66 -38.5 -198.5t-38.5 -198.5h209
q-7 -36 -21 -108.5t-21 -108.5h-209q-16 -86 -50 -257t-50 -256h-260q16 86 49.5 257t50.5 256z" />
    <glyph glyph-name="tbar" unicode="&#x167;" 
d="M480 433q-1 -6 -3.5 -18.5t-3.5 -18.5q-9 -46 -9 -81q0 -54 23 -81t71 -34q24 -4 64 -4q70 0 126 28q16 8 30 20.5t24 27.5t17 26.5t13.5 25t7.5 16.5q32 -17 95 -50t94 -50q-20 -38 -78 -100.5t-138 -103.5q-80 -42 -228 -42q-77 0 -131 6t-106 23t-85 52t-48 89
q-12 44 -12 89q0 51 18 145q1 6 3.5 17.5t3.5 17.5h-199q7 34 20 102.5t20 102.5h203q6 27 19 85t18 82h-14q-42 0 -84 -12q4 34 11.5 102t11.5 102q39 12 104 12h15q7 35 24 120.5t24 120.5q42 -1 125.5 -3t124.5 -3q-12 -63 -47 -231q48 0 152.5 -1t189.5 -2t86 -1
q-7 -34 -21.5 -102t-21.5 -102q-69 0 -215 1t-212 1q-8 -38 -23 -102.5t-15 -66.5h240q-6 -34 -19.5 -102.5t-20.5 -102.5h-244z" />
    <glyph glyph-name="Utilde" unicode="&#x168;" 
d="M618 1701q48 0 85 -7.5t64.5 -24.5t39.5 -27t34 -32q41 -41 76 -41q37 0 61.5 24t38.5 76l172 -54q-17 -41 -39.5 -76.5t-56.5 -71t-82.5 -56t-106.5 -20.5q-32 0 -58.5 5.5t-53 21t-37 22t-37 30t-27.5 23.5q-21 17 -35 22.5t-46 5.5q-31 0 -57 -26.5t-42 -73.5l-178 78
q21 38 47 71t61 64t81 49t96 18zM888 1350q42 -5 124 -14t124 -14q-16 -46 -33 -127q-1 -5 -2.5 -14.5t-2.5 -14.5q-16 -80 -39.5 -210.5t-33.5 -180.5q-2 -10 -6 -29.5t-6 -29.5q-22 -111 -37.5 -178.5t-43 -154.5t-65 -151t-86.5 -111q-127 -122 -366 -131
q-185 0 -264.5 81t-79.5 244q0 61 11 141q14 111 59 339q59 302 112 534h258q-66 -298 -122 -586q-11 -55 -27 -141q-22 -117 -24 -154q-3 -75 -3 -82q0 -34 4.5 -60t16 -51.5t36.5 -39.5t62 -15q33 1 62 11t51.5 24t43 40t35.5 49.5t29.5 63t24 70t21 81t19 85.5t18.5 94
q9 47 36 199t46 249q20 105 48 184z" />
    <glyph glyph-name="utilde" unicode="&#x169;" 
d="M568 1486q48 0 85 -7.5t64.5 -24.5t39.5 -27t34 -32q41 -41 76 -41q37 0 61.5 24t38.5 76l172 -54q-17 -41 -39.5 -76.5t-56.5 -71t-82.5 -56t-106.5 -20.5q-32 0 -58.5 5.5t-53 21t-37 22t-37 30t-27.5 23.5q-21 17 -35 22.5t-46 5.5q-31 0 -57 -26.5t-42 -73.5l-178 78
q21 38 47 71t61 64t81 49t96 18zM815 -17q-34 17 -55 37.5t-43 73t-37 139.5q-34 -48 -64 -83t-71.5 -71.5t-90.5 -56t-103 -20.5h-9q-47 0 -83.5 3t-78.5 14t-69.5 30.5t-46 54.5t-18.5 83q0 32 7 64q8 36 15.5 76t17.5 91.5t17 85.5q74 384 74 469q0 14 -1 19
q43 5 129.5 14t129.5 14v-10q0 -29 -5.5 -74.5t-19 -121.5t-25 -137t-35 -183t-37.5 -196v-3q0 -50 9.5 -65t42.5 -15q58 0 141.5 94.5t146 208t75.5 179.5q10 52 30.5 157.5t30.5 158.5h251q-23 -118 -69 -353.5t-69 -353.5q-1 -4 -1 -11q0 -36 28.5 -74.5t63.5 -54.5
q-29 -31 -88.5 -92t-89.5 -91z" />
    <glyph glyph-name="Umacron" unicode="&#x16a;" 
d="M1009 1680q-6 -32 -18.5 -96.5t-19.5 -97.5h-17q-203 -7 -231 -7q-132 0 -234 3q-3 0 -9 0.5t-9 0.5q6 33 18.5 98.5t19.5 98.5q12 -2 19 -2q98 -3 271 -3q33 0 103 2.5t90 2.5h17zM888 1350q42 -5 124 -14t124 -14q-16 -46 -33 -127q-1 -5 -2.5 -14.5t-2.5 -14.5
q-16 -80 -39.5 -210.5t-33.5 -180.5q-2 -10 -6 -29.5t-6 -29.5q-22 -111 -37.5 -178.5t-43 -154.5t-65 -151t-86.5 -111q-127 -122 -366 -131q-185 0 -264.5 81t-79.5 244q0 61 11 141q14 111 59 339q59 302 112 534h258q-66 -298 -122 -586q-11 -55 -27 -141
q-22 -117 -24 -154q-3 -75 -3 -82q0 -34 4.5 -60t16 -51.5t36.5 -39.5t62 -15q33 1 62 11t51.5 24t43 40t35.5 49.5t29.5 63t24 70t21 81t19 85.5t18.5 94q9 47 36 199t46 249q20 105 48 184z" />
    <glyph glyph-name="umacron" unicode="&#x16b;" 
d="M959 1465q-6 -33 -18.5 -97t-19.5 -97h-17q-203 -7 -231 -7q-132 0 -234 3q-3 0 -9 0.5t-9 0.5q6 33 18.5 98.5t19.5 98.5q12 -2 19 -2q97 -3 271 -3q33 0 103 2.5t90 2.5h17zM815 -17q-34 17 -55 37.5t-43 73t-37 139.5q-34 -48 -64 -83t-71.5 -71.5t-90.5 -56
t-103 -20.5h-9q-47 0 -83.5 3t-78.5 14t-69.5 30.5t-46 54.5t-18.5 83q0 32 7 64q8 36 15.5 76t17.5 91.5t17 85.5q74 384 74 469q0 14 -1 19q43 5 129.5 14t129.5 14v-10q0 -29 -5.5 -74.5t-19 -121.5t-25 -137t-35 -183t-37.5 -196v-3q0 -50 9.5 -65t42.5 -15
q58 0 141.5 94.5t146 208t75.5 179.5q10 52 30.5 157.5t30.5 158.5h251q-23 -118 -69 -353.5t-69 -353.5q-1 -4 -1 -11q0 -36 28.5 -74.5t63.5 -54.5q-29 -31 -88.5 -92t-89.5 -91z" />
    <glyph glyph-name="Ubreve" unicode="&#x16c;" 
d="M736 1651q70 0 126 36.5t82 104.5l213 -30q-31 -94 -82 -156t-143.5 -100t-224.5 -38q-64 0 -122.5 16.5t-109.5 50t-82.5 94.5t-32.5 142l225 30q3 -81 45 -115.5t106 -34.5zM888 1350q42 -5 124 -14t124 -14q-16 -46 -33 -127q-1 -5 -2.5 -14.5t-2.5 -14.5
q-16 -80 -39.5 -210.5t-33.5 -180.5q-2 -10 -6 -29.5t-6 -29.5q-22 -111 -37.5 -178.5t-43 -154.5t-65 -151t-86.5 -111q-127 -122 -366 -131q-185 0 -264.5 81t-79.5 244q0 61 11 141q14 111 59 339q59 302 112 534h258q-66 -298 -122 -586q-11 -55 -27 -141
q-22 -117 -24 -154q-3 -75 -3 -82q0 -34 4.5 -60t16 -51.5t36.5 -39.5t62 -15q33 1 62 11t51.5 24t43 40t35.5 49.5t29.5 63t24 70t21 81t19 85.5t18.5 94q9 47 36 199t46 249q20 105 48 184z" />
    <glyph glyph-name="ubreve" unicode="&#x16d;" 
d="M686 1436q70 0 126 36.5t82 104.5l213 -30q-31 -94 -82 -156t-143.5 -100t-224.5 -38q-64 0 -122.5 16.5t-109.5 50t-82.5 94.5t-32.5 142l225 30q3 -81 45 -115.5t106 -34.5zM815 -17q-34 17 -55 37.5t-43 73t-37 139.5q-34 -48 -64 -83t-71.5 -71.5t-90.5 -56
t-103 -20.5h-9q-47 0 -83.5 3t-78.5 14t-69.5 30.5t-46 54.5t-18.5 83q0 32 7 64q8 36 15.5 76t17.5 91.5t17 85.5q74 384 74 469q0 14 -1 19q43 5 129.5 14t129.5 14v-10q0 -29 -5.5 -74.5t-19 -121.5t-25 -137t-35 -183t-37.5 -196v-3q0 -50 9.5 -65t42.5 -15
q58 0 141.5 94.5t146 208t75.5 179.5q10 52 30.5 157.5t30.5 158.5h251q-23 -118 -69 -353.5t-69 -353.5q-1 -4 -1 -11q0 -36 28.5 -74.5t63.5 -54.5q-29 -31 -88.5 -92t-89.5 -91z" />
    <glyph glyph-name="Uring" unicode="&#x16e;" 
d="M755 1657q-38 0 -64.5 -19t-33.5 -43q-1 -3 -1 -8q0 -22 20.5 -38.5t54.5 -16.5q37 0 64 19.5t34 43.5q1 3 1 9q0 22 -20 37.5t-55 15.5zM468 1595q17 86 110 145t206 59q102 0 170 -49.5t68 -124.5q0 -15 -3 -30q-16 -86 -104.5 -140.5t-208.5 -54.5q-105 0 -173 46.5
t-68 119.5q0 14 3 29zM888 1350q42 -5 124 -14t124 -14q-16 -46 -33 -127q-1 -5 -2.5 -14.5t-2.5 -14.5q-16 -80 -39.5 -210.5t-33.5 -180.5q-2 -10 -6 -29.5t-6 -29.5q-22 -111 -37.5 -178.5t-43 -154.5t-65 -151t-86.5 -111q-127 -122 -366 -131q-185 0 -264.5 81
t-79.5 244q0 61 11 141q14 111 59 339q59 302 112 534h258q-66 -298 -122 -586q-11 -55 -27 -141q-22 -117 -24 -154q-3 -75 -3 -82q0 -34 4.5 -60t16 -51.5t36.5 -39.5t62 -15q33 1 62 11t51.5 24t43 40t35.5 49.5t29.5 63t24 70t21 81t19 85.5t18.5 94q9 47 36 199t46 249
q20 105 48 184z" />
    <glyph glyph-name="uring" unicode="&#x16f;" 
d="M705 1442q-38 0 -64.5 -19t-33.5 -43q-1 -3 -1 -8q0 -22 20.5 -38.5t54.5 -16.5q37 0 64 19.5t34 43.5q1 3 1 9q0 22 -20 37.5t-55 15.5zM418 1380q17 86 110 145t206 59q102 0 170 -49.5t68 -124.5q0 -15 -3 -30q-16 -86 -104.5 -140.5t-208.5 -54.5q-105 0 -173 46.5
t-68 119.5q0 14 3 29zM815 -17q-34 17 -55 37.5t-43 73t-37 139.5q-34 -48 -64 -83t-71.5 -71.5t-90.5 -56t-103 -20.5h-9q-47 0 -83.5 3t-78.5 14t-69.5 30.5t-46 54.5t-18.5 83q0 32 7 64q8 36 15.5 76t17.5 91.5t17 85.5q74 384 74 469q0 14 -1 19q43 5 129.5 14
t129.5 14v-10q0 -29 -5.5 -74.5t-19 -121.5t-25 -137t-35 -183t-37.5 -196v-3q0 -50 9.5 -65t42.5 -15q58 0 141.5 94.5t146 208t75.5 179.5q10 52 30.5 157.5t30.5 158.5h251q-23 -118 -69 -353.5t-69 -353.5q-1 -4 -1 -11q0 -36 28.5 -74.5t63.5 -54.5q-29 -31 -88.5 -92
t-89.5 -91z" />
    <glyph glyph-name="Uhungarumlaut" unicode="&#x170;" 
d="M765 1508q96 68 198 178.5t180 223.5q30 -21 88.5 -63.5t87.5 -63.5q-65 -100 -192.5 -219.5t-242.5 -198.5q-20 24 -59.5 71.5t-59.5 71.5zM383 1515q96 68 198 178.5t180 223.5q29 -21 88 -63.5t88 -63.5q-65 -101 -192.5 -220t-241.5 -198q-20 24 -60 71.5t-60 71.5z
M888 1350q42 -5 124 -14t124 -14q-16 -46 -33 -127q-1 -5 -2.5 -14.5t-2.5 -14.5q-16 -80 -39.5 -210.5t-33.5 -180.5q-2 -10 -6 -29.5t-6 -29.5q-22 -111 -37.5 -178.5t-43 -154.5t-65 -151t-86.5 -111q-127 -122 -366 -131q-185 0 -264.5 81t-79.5 244q0 61 11 141
q14 111 59 339q59 302 112 534h258q-66 -298 -122 -586q-11 -55 -27 -141q-22 -117 -24 -154q-3 -75 -3 -82q0 -34 4.5 -60t16 -51.5t36.5 -39.5t62 -15q33 1 62 11t51.5 24t43 40t35.5 49.5t29.5 63t24 70t21 81t19 85.5t18.5 94q9 47 36 199t46 249q20 105 48 184z" />
    <glyph glyph-name="uhungarumlaut" unicode="&#x171;" 
d="M715 1293q96 68 198 178.5t180 223.5q30 -21 88.5 -63.5t87.5 -63.5q-65 -100 -192.5 -219.5t-242.5 -198.5q-20 24 -59.5 71.5t-59.5 71.5zM333 1300q96 68 198 178.5t180 223.5q29 -21 88 -63.5t88 -63.5q-65 -101 -192.5 -220t-241.5 -198q-20 24 -60 71.5t-60 71.5z
M815 -17q-34 17 -55 37.5t-43 73t-37 139.5q-34 -48 -64 -83t-71.5 -71.5t-90.5 -56t-103 -20.5h-9q-47 0 -83.5 3t-78.5 14t-69.5 30.5t-46 54.5t-18.5 83q0 32 7 64q8 36 15.5 76t17.5 91.5t17 85.5q74 384 74 469q0 14 -1 19q43 5 129.5 14t129.5 14v-10
q0 -29 -5.5 -74.5t-19 -121.5t-25 -137t-35 -183t-37.5 -196v-3q0 -50 9.5 -65t42.5 -15q58 0 141.5 94.5t146 208t75.5 179.5q10 52 30.5 157.5t30.5 158.5h251q-23 -118 -69 -353.5t-69 -353.5q-1 -4 -1 -11q0 -36 28.5 -74.5t63.5 -54.5q-29 -31 -88.5 -92t-89.5 -91z
" />
    <glyph glyph-name="Uogonek" unicode="&#x172;" 
d="M888 1350q42 -5 124 -14t124 -14q-16 -46 -33 -127q-1 -5 -2.5 -14.5t-2.5 -14.5q-16 -80 -39.5 -210.5t-33.5 -180.5q-2 -10 -6 -29.5t-6 -29.5q-22 -111 -37.5 -178.5t-43 -154.5t-65 -151t-86.5 -111q-55 -53 -129.5 -111.5t-123.5 -94.5t-90 -80t-52 -85q-1 -3 -1 -8
q0 -49 110 -49q59 0 138 51q16 -23 48.5 -70.5t48.5 -70.5q-43 -39 -127.5 -72.5t-155.5 -33.5q-65 0 -119.5 10t-100.5 31.5t-71.5 60.5t-25.5 92q0 27 5 50q16 77 61 128.5t141 124.5q-142 17 -203.5 96.5t-61.5 224.5q0 68 10 141q14 111 59 339q59 302 112 534h258
q-66 -298 -122 -586q-11 -55 -27 -141q-22 -117 -24 -154q-3 -75 -3 -82q0 -34 4.5 -60t16 -51.5t36.5 -39.5t62 -15q33 1 62 11t51.5 24t43 40t35.5 49.5t29.5 63t24 70t21 81t19 85.5t18.5 94q9 47 36 199t46 249q20 105 48 184z" />
    <glyph glyph-name="uogonek" unicode="&#x173;" 
d="M700 108q-118 -101 -378 -106h-9q-56 0 -105.5 9.5t-94.5 29.5t-71 57.5t-26 88.5q0 22 4 42q30 153 54 275q74 384 74 469q0 14 -1 19q42 5 126.5 14t126.5 14v-10q0 -29 -5.5 -74.5t-19 -121.5t-25 -137t-35 -183t-37.5 -196v-6q0 -49 19.5 -67.5t78.5 -18.5
q114 5 187 60.5t92 151.5q20 101 59.5 302t58.5 301h257q-23 -119 -69.5 -357.5t-70.5 -357.5q-1 -4 -1 -11q0 -36 28.5 -74.5t63.5 -54.5q-77 -88 -157.5 -155.5t-138.5 -102t-107 -60.5t-78 -48.5t-36 -49.5q-1 -3 -1 -8q0 -49 110 -49q59 0 138 51q16 -23 48.5 -70
t48.5 -71q-43 -39 -127.5 -72.5t-155.5 -33.5q-65 0 -119.5 10t-100.5 31.5t-71.5 60.5t-25.5 92q0 27 5 50q11 55 48 95.5t90.5 68t111 52.5t123.5 64t114 87z" />
    <glyph glyph-name="Wcircumflex" unicode="&#x174;" 
d="M773 1803l338 -292l-169 -156l-191 201l-268 -189l-128 156zM320 0h-241v22q0 108 55.5 626.5t57.5 641.5q40 5 120.5 14.5t121.5 14.5q-4 -67 -10 -125.5t-10 -88t-10 -69t-8 -50.5q-18 -123 -62.5 -372.5t-49.5 -297.5q236 600 256 672q9 0 38 -1.5t47 -1.5
q73 0 114 19q-6 -97 -9 -268t-4 -294v-123q24 75 74.5 306.5t77.5 336.5q2 8 10.5 42.5t15.5 59.5t19 66t29 89t38 102q36 -6 108.5 -18.5t108.5 -19.5q-57 -144 -222.5 -679t-191.5 -604h-246q7 397 12 585q-223 -558 -239 -585z" />
    <glyph glyph-name="wcircumflex" unicode="&#x175;" 
d="M771 1588l338 -292l-169 -156l-191 201l-268 -189l-128 156zM133 984q44 12 131.5 36t131.5 36q11 -73 11 -154q0 -229 -52 -414q-18 -64 -53.5 -148.5t-54.5 -120.5q84 60 149.5 144.5t85.5 140.5q46 130 55 332h197q-26 -166 -58 -331q-43 -215 -54 -298
q44 20 102.5 140t100.5 257q57 185 57 299q0 44 -11 110h246q3 -36 3 -72q0 -185 -72 -400q-52 -157 -157.5 -308t-241.5 -260l-189 48q3 120 14 207q-37 -56 -80 -98.5t-177 -153.5l-97.5 32.5l-97.5 32.5q59 125 93.5 307.5t34.5 355.5q0 220 -17 280z" />
    <glyph glyph-name="Ycircumflex" unicode="&#x176;" 
d="M787 1820l338 -292l-169 -156l-191 201l-268 -189l-128 156zM279 18q50 99 143.5 287t143.5 287q-19 38 -195.5 303t-193.5 327q36 23 108.5 69.5t108.5 70.5q12 -39 139 -254t157 -286q42 92 126 276.5t126 277.5l219 -96q-103 -213 -325.5 -672.5t-325.5 -673.5
q-10 3 -50 16t-63 21t-57.5 21t-60.5 26z" />
    <glyph glyph-name="ycircumflex" unicode="&#x177;" 
d="M737 1588l338 -292l-169 -156l-191 201l-268 -189l-128 156zM54 -32l10 -17q11 -17 25.5 -36.5t33 -40.5t41 -34.5t43.5 -13.5q67 0 119.5 43t124.5 168q-28 237 -55.5 382.5t-60 217t-63.5 93t-80 21.5q-35 0 -45 -1q1 44 3 131.5t3 131.5h101q146 0 232 -183.5
t123 -593.5q109 268 153 418.5t76 358.5h256q0 -59 -36 -174q-83 -271 -172 -460.5t-253 -432.5q-89 -131 -160.5 -202t-131.5 -95.5t-138 -24.5q-27 0 -51.5 3t-43.5 6t-41 12.5t-35 13.5t-33.5 19t-28.5 20t-29 24.5t-25.5 23.5t-27.5 27.5t-26 26.5z" />
    <glyph glyph-name="Ydieresis" unicode="&#x178;" 
d="M848 1673l281 -3l-46 -238l-282 1zM428 1673h279l-47 -240h-279zM279 18q50 99 143.5 287t143.5 287q-19 38 -195.5 303t-193.5 327q36 23 108.5 69.5t108.5 70.5q12 -39 139 -254t157 -286q42 92 126 276.5t126 277.5l219 -96q-103 -213 -325.5 -672.5t-325.5 -673.5
q-10 3 -50 16t-63 21t-57.5 21t-60.5 26z" />
    <glyph glyph-name="Zacute" unicode="&#x179;" 
d="M495 1543q209 66 452 259q17 -28 68 -91t68 -91q-93 -78 -247.5 -154.5t-281.5 -115.5q-10 29 -30 96.5t-29 96.5zM48 0q-8 24 -22 73.5t-22 74.5q136 162 408.5 485.5t408.5 485.5q-119 0 -332 -2.5t-258 -2.5l39 210q52 0 340 2t391 2q26 0 51 -2t38.5 -4.5t29.5 -6
t18 -3.5q0 -4 -1 -7q-5 -19 -10 -91t-9 -88q-2 -6 -2 -8q-127 -150 -381 -450.5t-381 -450.5q61 0 181.5 -0.5t181.5 -0.5q62 0 95.5 5t86.5 21q5 -36 14.5 -107.5t14.5 -107.5q-81 -27 -194 -27h-679h-7z" />
    <glyph glyph-name="zacute" unicode="&#x17a;" 
d="M469 1328q209 66 452 259q17 -29 68 -91t68 -91q-93 -78 -247.5 -154.5t-281.5 -115.5q-10 29 -29.5 96.5t-29.5 96.5zM176 815q12 34 35.5 101.5t35.5 100.5q54 -6 631 -6q49 0 74.5 4.5t59.5 22.5q19 -27 56.5 -79t55.5 -79q-26 -22 -730 -638q45 0 149.5 -24
t160.5 -24q44 0 65.5 37t21.5 62q39 -7 116.5 -20.5t116.5 -20.5q-19 -92 -31 -121q-49 -123 -203 -142q-29 -3 -62 -3q-84 0 -218 34.5t-190 34.5q-91 0 -165 -51q-10 -7 -29.5 -23t-29.5 -23l-171 122q58 67 172.5 177.5t189.5 178.5t239.5 214t175.5 156q-204 -3 -223 -3
q-230 0 -303 12z" />
    <glyph glyph-name="Zdotaccent" unicode="&#x17b;" 
d="M643 1693h284q-7 -41 -23 -123t-23 -123h-285q8 41 23.5 123t23.5 123zM48 0q-8 24 -22 73.5t-22 74.5q136 162 408.5 485.5t408.5 485.5q-119 0 -332 -2.5t-258 -2.5l39 210q52 0 340 2t391 2q26 0 51 -2t38.5 -4.5t29.5 -6t18 -3.5q0 -4 -1 -7q-5 -19 -10 -91t-9 -88
q-2 -6 -2 -8q-127 -150 -381 -450.5t-381 -450.5q61 0 181.5 -0.5t181.5 -0.5q62 0 95.5 5t86.5 21q5 -36 14.5 -107.5t14.5 -107.5q-81 -27 -194 -27h-679h-7z" />
    <glyph glyph-name="zdotaccent" unicode="&#x17c;" 
d="M617 1478h284q-7 -41 -23 -123t-23 -123h-285q8 41 23.5 123t23.5 123zM176 815q12 34 35.5 101.5t35.5 100.5q54 -6 631 -6q49 0 74.5 4.5t59.5 22.5q19 -27 56.5 -79t55.5 -79q-26 -22 -730 -638q45 0 149.5 -24t160.5 -24q44 0 65.5 37t21.5 62q39 -7 116.5 -20.5
t116.5 -20.5q-19 -92 -31 -121q-49 -123 -203 -142q-29 -3 -62 -3q-84 0 -218 34.5t-190 34.5q-91 0 -165 -51q-10 -7 -29.5 -23t-29.5 -23l-171 122q58 67 172.5 177.5t189.5 178.5t239.5 214t175.5 156q-204 -3 -223 -3q-230 0 -303 12z" />
    <glyph glyph-name="Zcaron" unicode="&#x17d;" 
d="M709 1373l-316 297l171 138l173 -189l299 201l112 -175zM48 0q-8 24 -22 73.5t-22 74.5q136 162 408.5 485.5t408.5 485.5q-119 0 -332 -2.5t-258 -2.5l39 210q52 0 340 2t391 2q26 0 51 -2t38.5 -4.5t29.5 -6t18 -3.5q0 -4 -1 -7q-5 -19 -10 -91t-9 -88q-2 -6 -2 -8
q-127 -150 -381 -450.5t-381 -450.5q61 0 181.5 -0.5t181.5 -0.5q62 0 95.5 5t86.5 21q5 -36 14.5 -107.5t14.5 -107.5q-81 -27 -194 -27h-679h-7z" />
    <glyph glyph-name="zcaron" unicode="&#x17e;" 
d="M683 1158l-316 297l171 138l173 -189l299 201l112 -175zM176 815q12 34 35.5 101.5t35.5 100.5q54 -6 631 -6q49 0 74.5 4.5t59.5 22.5q19 -27 56.5 -79t55.5 -79q-26 -22 -730 -638q45 0 149.5 -24t160.5 -24q44 0 65.5 37t21.5 62q39 -7 116.5 -20.5t116.5 -20.5
q-19 -92 -31 -121q-49 -123 -203 -142q-29 -3 -62 -3q-84 0 -218 34.5t-190 34.5q-91 0 -165 -51q-10 -7 -29.5 -23t-29.5 -23l-171 122q58 67 172.5 177.5t189.5 178.5t239.5 214t175.5 156q-204 -3 -223 -3q-230 0 -303 12z" />
    <glyph glyph-name="longs" unicode="&#x17f;" 
d="M1007 1206q-31 11 -122 11q-38 0 -67 -8.5t-46 -21t-29 -32t-17.5 -35t-9.5 -37.5l-13 -71q-33 -169 -98.5 -506t-98.5 -506h-257q26 135 78.5 404t78.5 403h-193q7 34 20.5 102.5t19.5 102.5h193q8 41 10 52q9 44 26.5 87.5t53 93t83.5 86.5t123 62t165 25
q121 0 185 -14q-14 -33 -42.5 -99t-42.5 -99z" />
    <glyph glyph-name="Euro" unicode="&#x20ac;" 
d="M887 866q-16 -31 -48.5 -92.5t-48.5 -91.5h-12q-20 -1 -48.5 -2.5t-56 -2.5t-61.5 -1h-118q-1 -4 -15 -67q-1 -4 -2 -12.5t-2 -12.5q30 -1 71 -1q38 0 58.5 0.5t47 1t60.5 0.5h26q-17 -32 -51 -96.5t-51 -96.5q-32 0 -96 1t-96 1q-6 -42 -6 -73q0 -72 24.5 -105.5
t63.5 -33.5h18q133 0 220 133q29 -27 85.5 -80t84.5 -79q-109 -113 -198.5 -150t-235.5 -37q-73 0 -146 32t-116 106q-63 109 -63 249q0 25 1 38q-54 2 -75 2q-24 0 -90 -2q48 119 91 189q23 0 57 0.5t40 0.5q5 26 9 48q8 42 9 44q-118 1 -159 5q17 27 54 97t51 92
q22 -2 110 -4q49 133 119 242q79 121 190 178t202 57q194 0 288 -134q-24 -43 -72 -129.5t-72 -129.5q-28 84 -71 129.5t-112 45.5q-143 0 -207 -261h109h77q104 4 130 4q11 0 33 -2z" />
    <glyph glyph-name="uniE000" unicode="&#xe000;" 
d="M171 491q111 153 216 153q45 0 92 -25t85 -50t61 -25q41 0 85 80l14 26l84 -104l-10 -14q-104 -142 -203 -142q-45 0 -90.5 24t-82 48t-59.5 24t-43 -15.5t-46 -61.5l-13 -22l-102 88z" />
    <glyph glyph-name="uniE001" unicode="&#xe001;" 
d="M404 -11q-70 4 -103.5 61t-33.5 146q0 54 10 103q0 1 0.5 2t0.5 2q25 127 95 221q101 135 228 140h8q44 0 80 -23q16 114 16 156q0 50 -15.5 73.5t-53.5 23.5q-37 0 -59.5 -23.5t-72.5 -105.5q-15 -24 -23 -38l-11 -18l-92 61l9 17q66 130 134.5 192.5t143.5 64.5
q35 0 69.5 -18.5t55.5 -58.5q35 -68 35 -172q0 -63 -14 -132l-84 -434q-6 -42 -6 -57q0 -16 14 -39q2 -5 6 -7q13 7 31 43q56 107 102 346q28 143 28 269q0 185 -57.5 296t-156.5 111q-133 0 -259.5 -193t-182.5 -483q-28 -143 -28 -269q0 -185 56 -296.5t151 -111.5
q89 0 185 90l15 15l58 -96l-13 -13q-64 -61 -139.5 -103.5t-135.5 -42.5q-140 0 -220.5 149.5t-80.5 387.5q0 144 29 290q43 222 136 411.5t215 303t243 113.5q140 0 220 -149t80 -387q0 -144 -29 -292q-41 -215 -139 -417q-64 -124 -132 -124h-3h-2l-1 1q-42 12 -60 41h-1
q-1 3 -8 15t-11 20.5t-8.5 24.5t-5.5 34q-15 -16 -86 -72q-67 -49 -127 -49zM432 141q38 0 77 29q18 14 34 30.5t26.5 30t21.5 31t16 27t13 26t10 19.5q18 99 22 118q-33 61 -80 61h-3q-43 -2 -95 -64.5t-66 -138.5q0 -1 -0.5 -2.5t-0.5 -2.5q-7 -39 -7 -74q0 -42 9.5 -66
t22.5 -24z" />
    <glyph glyph-name="uniE002" unicode="&#xe002;" 
d="M937 703q-6 -25 -8 -37l-84 -435q-4 -24 -4 -47q0 -52 32 -86l14 -15l-110 -79l-8 16q-2 4 -8.5 15.5t-10.5 20t-8.5 24.5t-5.5 33q-15 -16 -86 -72q-69 -50 -128 -50q-49 2 -83 45.5t-47.5 103t-13.5 129.5q0 54 10 109v1q1 1 1 2q1 6 8 41q32 168 109 289
q88 137 231 143h6q52 0 97 -33q2 15 6 43t5 39q11 95 11 134q0 161 -120 161q-78 0 -163 -88t-156.5 -245.5t-108.5 -346.5q-28 -143 -28 -270q0 -184 55.5 -296t150.5 -112q89 0 186 91l15 15l57 -96l-13 -13q-65 -61 -139.5 -104t-134.5 -43q-140 0 -220.5 150t-80.5 388
q0 144 29 290q43 223 132.5 412.5t209 305t239.5 115.5q208 0 208 -297q0 -134 -43 -351zM552 144q37 0 76 29q22 17 39.5 35t31.5 39t20.5 32t17.5 33.5t11 23.5l56 285q-17 32 -48 56.5t-53 24.5q-35 0 -67 -32.5t-55 -86t-38.5 -104.5t-25.5 -104l-3 -15q-5 -33 -5 -59
q0 -59 14.5 -108t28.5 -49z" />
    <glyph glyph-name="gravecomb" unicode="&#x300;" 
d="M942 1432l-102 -165q-114 40 -256 124.5t-204 162.5l145 163q70 -81 193 -165t224 -120z" />
    <glyph glyph-name="acutecomb" unicode="&#x301;" 
d="M401 1460q209 66 452 259q17 -28 68 -91t68 -91q-93 -78 -247.5 -154.5t-281.5 -115.5q-10 29 -30 96.5t-29 96.5z" />
    <glyph glyph-name="uni0302" unicode="&#x302;" 
d="M758 1700l338 -292l-169 -156l-191 201l-268 -189l-128 156z" />
    <glyph glyph-name="tildecomb" unicode="&#x303;" 
d="M592 1686q48 0 85 -7.5t64.5 -24.5t39.5 -27t34 -32q41 -41 76 -41q37 0 61.5 24t38.5 76l172 -54q-17 -41 -39.5 -76.5t-56.5 -71t-82.5 -56t-106.5 -20.5q-32 0 -58.5 5.5t-53 21t-37 22t-37 30t-27.5 23.5q-21 17 -35 22.5t-46 5.5q-31 0 -57 -26.5t-42 -73.5l-178 78
q21 38 47 71t61 64t81 49t96 18z" />
    <glyph glyph-name="uni0304" unicode="&#x304;" 
d="M985 1657q-6 -32 -18.5 -97t-19.5 -97h-17q-203 -7 -231 -7q-132 0 -234 3q-3 0 -9 0.5t-9 0.5q7 33 19 98.5t19 98.5q12 -2 19 -2q97 -3 271 -3q33 0 102.5 2.5t90.5 2.5h17z" />
    <glyph glyph-name="uni0305" unicode="&#x305;" 
d="M1126 1658l-39 -201q-132 0 -396 0.5t-396 0.5q7 34 20.5 101.5t19.5 101.5q132 -1 395.5 -2t395.5 -1z" />
    <glyph glyph-name="uni0306" unicode="&#x306;" 
d="M728 1508q70 0 126 36.5t82 104.5l213 -30q-31 -94 -82 -156t-143.5 -100t-224.5 -38q-64 0 -122.5 16.5t-109.5 50t-82.5 94.5t-32.5 142l225 30q3 -81 45 -115.5t106 -34.5z" />
    <glyph glyph-name="uni0308" unicode="&#x308;" 
d="M843 1424l281 -3l-46 -238l-282 1zM423 1424h279l-47 -240h-279z" />
    <glyph glyph-name="uni0307" unicode="&#x307;" 
d="M560 1671h284q-7 -41 -22.5 -123t-23.5 -123h-285q8 41 23.5 123t23.5 123z" />
    <glyph glyph-name="uni030A" unicode="&#x30a;" 
d="M744 1535q-38 0 -64.5 -19t-33.5 -43q-1 -3 -1 -8q0 -22 20.5 -38.5t54.5 -16.5q37 0 64 19.5t34 43.5q1 3 1 9q0 22 -20 37.5t-55 15.5zM457 1473q17 86 110 145t206 59q102 0 170 -49.5t68 -124.5q0 -15 -3 -30q-16 -86 -104.5 -140.5t-208.5 -54.5q-105 0 -173 46.5
t-68 119.5q0 14 3 29z" />
    <glyph glyph-name="uni0237" unicode="&#x237;" 
d="M752 -78q-12 -62 -40 -114t-77 -98t-128.5 -72.5t-182.5 -26.5q-53 0 -97 8t-94.5 31t-93.5 72t-74 122q32 25 96 74t96 74q41 -101 85.5 -140.5t97.5 -39.5h18q32 0 57 10.5t39 23.5t25.5 35t15 33.5t7.5 29.5l1.5 4.5t0.5 3.5q26 127 77 380.5t76 380.5q3 16 3 33
q0 41 -22 64.5t-63 23.5q-83 0 -210 -97l-120 135q110 86 192.5 113.5t203.5 27.5q64 0 114.5 -17t79.5 -42.5t47.5 -59t25 -62.5t6.5 -57q0 -20 -3 -32q-26 -137 -79 -410.5t-80 -410.5z" />
    <glyph glyph-name="uni030B" unicode="&#x30b;" 
d="M646 1286q96 68 198 178.5t180 223.5q30 -21 88 -63.5t88 -63.5q-65 -100 -192.5 -219.5t-242.5 -198.5q-20 24 -59.5 71.5t-59.5 71.5zM264 1293q96 68 198 178.5t180 223.5q29 -21 88 -63.5t88 -63.5q-65 -101 -192.5 -220t-241.5 -198q-20 24 -60 71.5t-60 71.5z" />
    <glyph glyph-name="uni030C" unicode="&#x30c;" 
d="M681 1206l-316 297l171 138l173 -189l299 201l112 -175z" />
    <glyph glyph-name="uni030F" unicode="&#x30f;" 
d="M758 1313q-29 -24 -87.5 -71.5t-88.5 -71.5q-83 78 -164 197.5t-107 220.5q37 21 112 63.5t113 63.5q35 -115 93.5 -225t128.5 -177zM1143 1320q-29 -24 -87.5 -71.5t-87.5 -70.5q-84 79 -165.5 198.5t-107.5 219.5q38 21 113.5 63t112.5 63q35 -115 93.5 -225
t128.5 -177z" />
    <glyph glyph-name="uni0191" unicode="&#x191;" 
d="M345 78q-14 -61 -34 -111.5t-57.5 -102.5t-88 -87t-127.5 -57.5t-173 -22.5l51 264q77 0 111 26.5t54 97.5l240 1239h685q113 0 175 -34q-19 -34 -59 -101.5t-59 -101.5q-16 10 -25.5 14t-39 9t-75.5 5h-71q-127 0 -310 -1l-51 -258q60 0 102 1t103 1q116 0 190 -36
q-18 -34 -53.5 -101t-53.5 -101q-44 22 -128 22h-85q-52 0 -117 -2q-11 -54 -50.5 -272t-53.5 -290z" />
    <glyph glyph-name="florin" unicode="&#x192;" 
d="M494 126q-20 -96 -62 -177.5t-107 -147.5t-160.5 -103.5t-211.5 -37.5q8 41 24.5 122.5t24.5 121.5q105 0 157.5 53t80.5 181q22 112 65.5 335t64.5 334h-142q6 34 19.5 102.5t20.5 102.5h142q8 41 10 52q9 44 26.5 87.5t53 93t83.5 86.5t123 62t165 25q146 0 212 -44
t102 -161q-38 -16 -115 -48.5t-116 -48.5q-7 59 -31 80t-73 21q-47 0 -80 -11.5t-50.5 -33.5t-26 -42t-13.5 -47l-12 -71h184q107 0 172 -21q-14 -33 -41.5 -98.5t-41.5 -98.5q-37 13 -95 13h-220z" />
    <glyph glyph-name="alpha" unicode="&#x3b1;" 
d="M871 493q4 -33 7.5 -105t10.5 -125q6 -42 27.5 -66t68.5 -44q-23 -31 -69 -92.5t-69 -92.5q-82 22 -121 72.5t-46 106.5q-1 11 -3.5 33.5t-4.5 34.5q-73 -115 -145 -168.5t-167 -53.5q-81 0 -140 27t-93 76.5t-50 111.5t-16 138q0 83 19 181q21 106 58.5 191.5
t83.5 140.5t101 91.5t108.5 52t108.5 15.5q119 0 177.5 -64t72.5 -187q17 33 43.5 88t48 98t45.5 84q34 -12 103 -35.5t103 -34.5q-22 -30 -46.5 -70t-41 -68t-47 -86.5t-40 -77t-46.5 -91.5t-41 -81zM333 524q-18 -91 -18 -160q0 -45 8.5 -78.5t19 -49.5t24 -25t20.5 -10.5
t13 -1.5h8q37 0 82 75.5t108 220.5q-3 177 -20 248.5t-68 71.5q-44 0 -97 -75t-80 -216z" />
    <glyph glyph-name="beta" unicode="&#x3b2;" 
d="M285 112q-3 -16 -8 -41t-6 -32q-37 -193 -78 -339q-39 3 -116.5 8.5t-116.5 8.5q40 137 76 320q19 98 90.5 491.5t87.5 474.5q24 126 128.5 225.5t244.5 99.5q370 0 370 -243q0 -32 -8 -75q-8 -42 -22.5 -77.5t-28 -56.5t-34 -40t-32 -26.5t-31.5 -18t-23 -12.5
q109 -20 172 -89.5t63 -194.5q0 -51 -12 -113q-19 -98 -50.5 -167t-69.5 -111t-93.5 -65t-112 -31t-136.5 -8h-8q-47 0 -80.5 6t-63.5 23.5t-48.5 33t-53.5 49.5zM580 199q44 0 76 15t51 44t30 58.5t19 70.5q6 30 6 55q0 192 -308 192q6 34 20 103t20 104q104 0 148.5 35.5
t59.5 126.5q2 14 2 21q0 41 -30 69.5t-89 28.5q-97 0 -121 -129q-6 -31 -25.5 -136t-42.5 -228.5t-44 -230.5q73 -199 228 -199z" />
    <glyph glyph-name="gamma" unicode="&#x3b3;" 
d="M321 -376q65 338 65 436v8q-6 170 -50 352.5t-99 319.5q-22 55 -48 71q-13 9 -60 9q-3 0 -8 -0.5t-7 -0.5q7 37 21.5 111t21.5 111q65 0 99 -5q29 -5 48.5 -10.5t45 -17.5t46 -35t35.5 -56q96 -214 150 -566q52 96 138.5 273.5t146.5 307.5l61 129q35 -12 106.5 -37
t107.5 -38q-325 -600 -493 -971q-12 -101 -53 -306q-3 -15 -8.5 -44t-8.5 -44q-43 1 -128.5 2t-128.5 1z" />
    <glyph glyph-name="delta" unicode="&#x3b4;" 
d="M585 748q-188 -35 -236 -279q-9 -49 -9 -89q0 -79 34 -130.5t115 -51.5q48 0 87.5 25.5t62.5 59.5t41.5 82.5t25 78t12.5 62.5q2 14 2 24q0 54 -33.5 115.5t-101.5 102.5zM967 504q-16 -82 -42 -152.5t-69 -136.5t-98.5 -112.5t-134 -74t-172.5 -27.5h-2
q-173 1 -268.5 93.5t-95.5 253.5q0 55 12 116q28 146 103.5 257t165.5 133q-19 10 -30.5 19t-27 24t-18.5 18q-29 28 -51 70.5t-22 87.5q0 15 3 30q11 58 34.5 103t58 74.5t73.5 49.5t89 30.5t96.5 14.5t103.5 4q147 0 373 -57q-14 -35 -41.5 -105.5t-41.5 -105.5
q-85 25 -126.5 36.5t-103 23t-106.5 11.5q-37 0 -61.5 -1.5t-49.5 -7t-37 -18t-12 -31.5q0 -12 11.5 -24.5t22 -19t29.5 -17.5q24 -13 79 -42t81.5 -43.5t73 -43.5t70.5 -50t55.5 -54t47 -65t27 -74t11.5 -89q0 -48 -10 -98z" />
    <glyph glyph-name="epsilon" unicode="&#x3b5;" 
d="M989 138q-81 -53 -212 -97.5t-280 -44.5q-139 0 -213.5 16.5t-121.5 60.5q-38 36 -58 88t-20 102q0 20 3 38q18 104 85 180.5t180 102.5q-91 10 -133.5 53.5t-42.5 108.5q0 23 4 43q13 66 61 114t120.5 73t150.5 36.5t168 11.5h13q105 0 190 -17t115.5 -31t45.5 -25
q-17 -30 -51 -88.5t-51 -87.5q-20 14 -110.5 32t-188.5 18q-95 0 -145.5 -13.5t-54.5 -50.5q0 -1 -0.5 -3.5t-0.5 -3.5q0 -31 57 -52.5t121 -29t121 -7.5h7h5h18q-6 -33 -19 -98.5t-19 -98.5q-13 0 -39 0.5t-39 0.5q-148 0 -216.5 -38.5t-85.5 -124.5q-1 -5 -1 -15
q0 -41 48.5 -69.5t160.5 -28.5q114 0 202.5 30t142.5 72q14 -26 41.5 -78.5t41.5 -78.5z" />
    <glyph glyph-name="zeta" unicode="&#x3b6;" 
d="M404 1414q26 -33 56.5 -47.5t87.5 -14.5q431 0 612 24q8 -33 22 -99.5t22 -100.5q-35 -39 -95.5 -81t-126.5 -79.5t-140 -79t-142 -87.5t-126.5 -96.5t-99.5 -114.5t-55 -134q-14 -69 -14 -130q0 -77 26 -118t76 -41q2 0 88 0.5t88 0.5q125 0 185.5 -57t60.5 -154
q0 -36 -7 -71q-9 -48 -32 -88t-51 -67t-66 -49t-70.5 -35t-71 -22.5t-62 -13t-49.5 -6.5q0 33 1 99t1 99q166 25 176 72q2 8 2 22q0 19 -8 30.5t-27.5 17t-38 6.5t-53.5 1h-20h-138q-126 0 -199 87.5t-73 249.5q0 75 18 167q10 53 27.5 101t38 88t50.5 79t57.5 68.5t67 62.5
t71 56.5t78.5 53.5t79.5 50t83.5 50.5t83 50.5q-168 -9 -267 -9q-216 0 -287 119q27 24 80.5 70.5t80.5 69.5z" />
    <glyph glyph-name="eta" unicode="&#x3b7;" 
d="M936 296l-69 -357q-20 -102 -20 -205q0 -30 3 -46q-41 -11 -124.5 -31t-125.5 -31q-6 123 -6 126q0 80 19 180q9 46 27 139t27 139q16 85 48.5 254t48.5 253q4 20 4 39q0 34 -18 48.5t-58 14.5q-50 0 -124 -29.5t-145 -82.5q-22 -118 -67.5 -353.5t-68.5 -353.5h-252
q23 118 68.5 353.5t68.5 352.5q30 154 30 218q0 16 -4 80q40 8 120.5 24t120.5 24q14 -73 14 -109v-16q52 39 143.5 69t171.5 30q273 0 273 -166q0 -19 -5 -46q-16 -87 -49.5 -259.5t-50.5 -258.5z" />
    <glyph glyph-name="theta" unicode="&#x3b8;" 
d="M330 277q24 -54 54 -72t87 -18q103 0 186 139q44 68 92 240q-8 0 -25.5 0.5t-26.5 0.5q-123 0 -367 -18q-15 -99 -15 -168q0 -70 15 -104zM709 1350q32 0 61.5 -3.5t66 -15.5t66.5 -31t59.5 -52.5t50 -77.5t33 -109t12.5 -144q0 -115 -28 -270q0 -2 -1 -5.5t-1 -5.5
q-24 -123 -67 -234.5t-94 -184.5q-77 -109 -193.5 -171t-241.5 -62q-101 0 -191 35.5t-133 107.5q-57 94 -57 240q0 95 23 212q48 244 110 384.5t138 223.5q65 71 168.5 116t218.5 47zM792 789q9 66 9 130q0 54 -7 90q-14 75 -45.5 106.5t-79.5 31.5q-49 0 -85.5 -21.5
t-76.5 -74.5q-76 -100 -127 -277q181 15 373 15h39z" />
    <glyph glyph-name="iota" unicode="&#x3b9;" 
d="M486 1013h255l-138 -717q-3 -16 -3 -31q0 -37 19 -59t54 -22q37 0 95 46.5t82 105.5q27 -17 80.5 -49.5t80.5 -48.5q-47 -115 -148.5 -185.5t-262.5 -70.5q-152 0 -214 38q-64 39 -64 122q0 29 7 64q19 101 59 303.5t59 303.5q-113 0 -239 -28q1 31 3.5 93t3.5 93
q149 42 271 42z" />
    <glyph glyph-name="kappa" unicode="&#x3ba;" 
d="M613 534q125 -107 233 -224t130 -200q-43 -21 -129.5 -63t-130.5 -63q-28 131 -283 396q-68 -62 -112 -134l-48 -246h-258q33 170 99.5 510.5t99.5 511.5h258q-12 -58 -34.5 -173t-33.5 -173q85 94 308 225t295 157q17 -33 52.5 -110t52.5 -110q-402 -207 -499 -304z" />
    <glyph glyph-name="lambda" unicode="&#x3bb;" 
d="M127 -39q-31 24 -93 71.5t-93 70.5q24 33 116 144t178 217t185.5 252.5t156.5 266.5q0 82 -6 126t-15 57t-26 13q-48 0 -62 -76q-35 1 -105 1t-105 1q44 165 121.5 225t208.5 60q105 0 171 -70t66 -197q0 -550 13 -775q6 -57 16 -83.5t35 -26.5q12 0 27.5 5t25.5 11l10 5
l33 -213q-18 -17 -30.5 -25.5t-46.5 -18t-81 -9.5q-36 0 -69 13t-63.5 41.5t-50.5 80.5t-24 122l-8 357q-37 -65 -111 -162.5t-187 -240.5t-187 -243z" />
    <glyph glyph-name="uni03BC" unicode="&#x3bc;" 
d="M241 8q-14 -67 -41.5 -202.5t-41.5 -203.5q-41 0 -124.5 1t-125.5 2q14 69 59 287t68 337q30 153 54 275q74 384 74 469q0 14 -1 19q42 5 126.5 14t126.5 14v-10q0 -29 -5.5 -74.5t-19 -121.5t-25 -137t-35 -183t-37.5 -196v-6q0 -49 19.5 -67.5t78.5 -18.5
q56 0 102.5 18t73.5 42.5t47.5 56.5t28.5 54t12 41l114 582h257q-23 -115 -68 -346.5t-68 -347.5q-1 -4 -1 -11q0 -36 28.5 -74.5t63.5 -54.5q-30 -31 -89.5 -92t-88.5 -91q-85 42 -103 125q-118 -101 -363 -106h-9q-44 0 -87 6z" />
    <glyph glyph-name="nu" unicode="&#x3bd;" 
d="M349 1054q141 -347 173 -803q141 87 201.5 185t93.5 268q11 58 11 110q0 26 -3 53t-6 40t-9 37.5t-7 27.5q42 14 126.5 41.5t126.5 40.5q34 -90 34 -195q0 -68 -13 -133q-31 -156 -92.5 -281.5t-139.5 -209t-174.5 -139t-194.5 -80t-201 -24.5q12 61 12 139
q0 189 -56 427.5t-119 365.5q40 21 118.5 65t118.5 65z" />
    <glyph glyph-name="xi" unicode="&#x3be;" 
d="M403 1428q28 -37 62.5 -56.5t90.5 -19.5q311 0 492 24q8 -33 24 -99.5t24 -99.5q-31 -24 -106 -53t-143.5 -51t-125 -51.5t-61.5 -57.5q-2 -14 -2 -20q0 -27 16.5 -45t51 -26.5t73.5 -11.5t97 -3q-7 -33 -19.5 -98.5t-19.5 -98.5q-224 -53 -353 -129.5t-155 -192.5
q-1 -4 -1 -13q0 -41 38 -76t127 -35q1 0 87 0.5t87 0.5q114 0 180.5 -51t66.5 -156q0 -32 -8 -75q-12 -61 -46 -110t-76 -78t-96 -50t-96.5 -30t-85.5 -13q0 33 1 99t1 99q165 25 174 72q3 13 3 24q0 29 -23.5 41t-78.5 12h-20h-164q-340 0 -340 240q0 38 9 85
q14 72 50.5 137.5t82 111.5t99 84t99.5 60t86 34q-116 33 -116 154q0 26 6 61q11 64 68.5 114.5t137.5 79.5q-59 -6 -89 -6q-189 0 -269 109q26 27 79.5 81.5t80.5 82.5z" />
    <glyph glyph-name="omicron" unicode="&#x3bf;" 
d="M598 247q76 70 115 283q1 3 2 8t1 8q13 73 13 125q0 159 -123 159q-107 0 -169 -90t-94 -258q-11 -58 -11 -103q0 -85 35 -133.5t104 -48.5q40 1 67 11.5t60 38.5zM431 -6q-184 0 -271.5 85.5t-87.5 241.5q0 67 15 143q110 568 544 568q144 0 224 -49.5t114 -151.5
q18 -54 18 -136q0 -79 -15 -152q-18 -90 -45.5 -167t-72.5 -149t-102.5 -122.5t-139 -80.5t-179.5 -30h-2z" />
    <glyph glyph-name="pi" unicode="&#x3c0;" 
d="M937 1020q29 0 47.5 14t45.5 54q22 -13 68 -37t68 -37q-6 -10 -23 -39t-26.5 -44.5t-29.5 -39.5t-38.5 -36.5t-46.5 -22.5t-60 -10h-31q4 -19 4 -48q0 -61 -25 -187q-9 -45 -26.5 -135.5t-26.5 -135.5q-3 -18 -3 -32q0 -47 28 -47q39 0 64 22l66 -174q-36 -40 -83 -62.5
t-132 -22.5q-83 0 -138.5 61.5t-55.5 144.5q0 78 9 141t42 236q20 104 20 157q0 35 -15 82q-20 0 -60.5 -0.5t-60.5 -0.5q-20 -101 -59 -303t-59 -303q-26 -134 -67 -228q-41 6 -123 17t-123 17q35 76 58 198q19 99 57.5 297.5t57.5 297.5q-65 -12 -110 -44q-3 31 -8.5 93
t-8.5 93q45 26 117 44.5t143 18.5q332 1 544 1z" />
    <glyph glyph-name="rho" unicode="&#x3c1;" 
d="M728 517l3 15q12 60 12 114q0 172 -135 172q-80 0 -145.5 -71.5t-93.5 -213.5q-12 -61 -12 -113q0 -105 40.5 -166.5t102.5 -61.5q165 0 228 325zM136 562q43 217 188.5 343.5t344.5 126.5q144 0 224 -49.5t114 -151.5q18 -54 18 -136q0 -79 -15 -152
q-18 -92 -43.5 -167.5t-67 -148.5t-94.5 -122.5t-130 -80t-171 -30.5h-2q-101 0 -146.5 21t-84.5 81q3 -26 3 -51q0 -51 -16 -144q-12 -66 -12 -119q0 -66 21 -159q-45 -10 -134 -30.5t-133 -30.5q-11 42 -11 130q0 122 22 238q21 106 62.5 316.5t62.5 315.5z" />
    <glyph glyph-name="sigma1" unicode="&#x3c2;" 
d="M411 528q-12 -64 -12 -114q0 -93 35 -141.5t86 -50.5q1 0 85.5 -4.5t86.5 -4.5q237 -7 237 -201q0 -41 -8 -78q-13 -61 -47.5 -110t-76.5 -78t-95 -50t-96 -30t-86 -13q0 33 1 99t1 99q164 25 175 72q2 8 2 22q0 28 -23 40.5t-79 14.5q-3 0 -10 0.5t-10 0.5
q-2 0 -80.5 4.5t-80.5 4.5q-113 4 -180 63q-103 95 -103 269q0 77 21 185q95 491 589 491q163 0 243 -61q78 -60 99 -151l-240 -102q-8 103 -161 103q-105 0 -178 -82t-95 -197z" />
    <glyph glyph-name="sigma" unicode="&#x3c3;" 
d="M983 814q13 -52 13 -122q0 -76 -14 -149q-17 -90 -44.5 -167t-72.5 -149t-103 -122.5t-139.5 -80.5t-179.5 -30h-2q-184 0 -271.5 85.5t-87.5 241.5q0 67 15 143q110 564 536 568h8q104 0 293 -7t224 -13q-8 -34 -24.5 -103.5t-24.5 -104.5q-38 7 -126 10zM608 247
q76 70 115 283q1 3 2 8t1 8q15 82 15 136q0 70 -27 146q-75 2 -98 2q-107 0 -169 -90t-94 -258q-11 -58 -11 -103q0 -85 35 -133.5t104 -48.5q40 1 67 11.5t60 38.5z" />
    <glyph glyph-name="tau" unicode="&#x3c4;" 
d="M693 1020h122h139h147h18q-7 -33 -19.5 -98.5t-18.5 -98.5q-51 1 -152 1t-152 1h-52q-29 -121 -56.5 -246t-30.5 -139q-1 -6 -3.5 -20t-4.5 -20q-11 -54 -11 -95q0 -52 17.5 -70t45.5 -18q41 0 64 20.5t57 81.5q30 -15 90.5 -43.5t90.5 -42.5q-13 -23 -29 -46.5
t-48.5 -60t-68.5 -63t-88.5 -46.5t-108.5 -20q-154 0 -221.5 55t-67.5 180q0 65 19 165q1 7 4 21.5t5 21.5q10 45 35.5 163t49.5 223l-104 -2q-49 -1 -73.5 -9.5t-72.5 -35.5q-13 25 -39.5 76.5t-39.5 77.5q48 36 119 61t139 25q50 0 149.5 0.5t149.5 0.5z" />
    <glyph glyph-name="upsilon" unicode="&#x3c5;" 
d="M88 364q6 30 17.5 91.5t17.5 91.5q68 346 68 432q0 17 -1 24q45 5 134.5 14.5t133.5 14.5v-9q0 -77 -72 -450q-13 -66 -23 -118q-12 -63 -12 -110q0 -140 91 -140q102 0 193 104q55 64 76 121.5t56 238.5q7 36 7 83q0 33 -3 66.5t-10 87t-7 57.5q45 14 134.5 43t134.5 43
q28 -63 28 -187q0 -112 -14 -172q-1 -2 -1 -6t-1 -6q-1 -6 -3.5 -18.5t-3.5 -18.5q-28 -157 -91.5 -274t-209.5 -244q-63 -55 -160 -91t-211 -36q-124 0 -200 83t-76 208q0 35 8 77z" />
    <glyph glyph-name="phi" unicode="&#x3c6;" 
d="M553 -11q-67 -362 -71 -387q-40 0 -121.5 1t-122.5 1q2 16 73 388q-133 25 -204 141q-58 92 -58 231q0 83 23 205q33 171 97 300.5t146 190.5l165 -120q-74 -64 -114.5 -144.5t-67.5 -222.5q-14 -75 -14 -155q0 -84 17 -144.5t51 -74.5q14 73 42.5 220t42.5 221
q22 113 63.5 194.5t94 124.5t106 62t111.5 19q42 0 74 -4t71 -19t64.5 -41.5t43 -75.5t17.5 -117q0 -67 -16 -151q0 -2 -1 -5.5t-1 -5.5q-25 -129 -68.5 -252t-91.5 -190q-111 -155 -351 -190zM591 196q51 12 90.5 48.5t68 97t48 126.5t38.5 156q0 3 2 9.5t2 9.5
q14 73 14 110q0 49 -19.5 65.5t-60.5 16.5h-1q-22 0 -35 -9.5t-29 -52.5t-33 -129q-16 -82 -45.5 -238t-39.5 -210z" />
    <glyph glyph-name="chi" unicode="&#x3c7;" 
d="M391 372q-58 281 -113 382q-22 41 -60 54.5t-103 13.5l42 219h68q88 0 136 -19t90 -88q35 -57 60.5 -146.5t33.5 -150.5l8 -61q59 89 140 209.5t133 196.5l52 75q29 -17 87.5 -49t87.5 -49q-206 -310 -432 -642q27 -163 73 -325t82 -162q15 0 26 20q21 -17 62.5 -50.5
t61.5 -49.5q-15 -43 -67 -95.5t-119 -52.5q-37 0 -70 16t-57 41.5t-46 63t-36.5 73.5t-28.5 80.5t-22 77.5t-16.5 70.5t-13.5 53.5q-54 -80 -161 -239.5t-160 -239.5q-32 19 -96.5 57t-97.5 57q76 110 228 329.5t228 329.5z" />
    <glyph glyph-name="psi" unicode="&#x3c8;" 
d="M44 366q6 30 18 91.5t18 91.5q65 327 65 430q0 19 -1 26q38 5 115 14t115 13v-10q0 -88 -70 -449q-6 -30 -12.5 -65.5t-11.5 -61.5q-13 -65 -13 -117q0 -131 84 -131q26 131 74.5 368t72.5 361l18 93h237q-4 -24 -14 -72.5t-14 -72.5q-25 -130 -68 -343t-64 -320
q52 14 95 61t75 121.5t55.5 156.5t44.5 187q9 44 9 99q0 72 -19 148q40 10 121.5 30.5t122.5 30.5q13 -52 13 -148q0 -102 -11 -149q-1 -2 -1 -6t-1 -6q-1 -6 -3.5 -18.5t-3.5 -18.5q-16 -88 -32.5 -152.5t-48.5 -149.5t-86 -161t-128 -140q-41 -36 -92 -54.5t-149 -34.5
q-5 -22 -13.5 -66t-12.5 -66q-28 -148 -59 -272q-40 0 -119.5 0.5t-118.5 0.5q18 69 36 160q3 15 9 47.5t12.5 68t14.5 73.5q1 7 3.5 21t4.5 21h-5q-133 0 -202 77t-69 200q0 45 9 93z" />
    <glyph glyph-name="omega" unicode="&#x3c9;" 
d="M457 684q40 3 118.5 9.5t117.5 9.5q-11 -50 -31 -150.5t-24 -121.5q-2 -18 -4 -26q-25 -122 -25 -173q0 -19 5 -25.5t16 -6.5q117 0 160 220q38 200 38 317q0 126 -38 210q42 15 125.5 45.5t124.5 46.5q37 -90 37 -233q0 -142 -43 -365q-17 -90 -47 -166t-76.5 -143
t-117.5 -105.5t-159 -38.5q-85 0 -122.5 26.5t-44.5 89.5q-36 -61 -80 -87.5t-137 -26.5q-118 0 -171 77.5t-53 206.5q0 75 18 170q75 396 242 605q33 -16 101 -49.5t101 -50.5q-79 -94 -128 -209t-79 -272q-17 -90 -17 -148q0 -124 56 -124q15 0 27 14t22.5 47t16.5 59.5
t17 78.5q1 5 2.5 14.5t2.5 14.5q34 171 49 260z" />
    <glyph glyph-name="iotadieresis" unicode="&#x3ca;" 
d="M794 1458l281 -3l-46 -238l-282 1zM374 1458h279l-47 -240h-279zM486 1013h255l-138 -717q-3 -16 -3 -31q0 -37 19 -59t54 -22q37 0 95 46.5t82 105.5q27 -17 80.5 -49.5t80.5 -48.5q-47 -115 -148.5 -185.5t-262.5 -70.5q-152 0 -214 38q-64 39 -64 122q0 29 7 64
q19 101 59 303.5t59 303.5q-113 0 -239 -28q1 31 3.5 93t3.5 93q149 42 271 42z" />
    <glyph glyph-name="upsilondieresis" unicode="&#x3cb;" 
d="M787 1458l281 -3l-46 -238l-282 1zM367 1458h279l-47 -240h-279zM88 364q6 30 17.5 91.5t17.5 91.5q68 346 68 432q0 17 -1 24q45 5 134.5 14.5t133.5 14.5v-9q0 -77 -72 -450q-13 -66 -23 -118q-12 -63 -12 -110q0 -140 91 -140q102 0 193 104q55 64 76 121.5t56 238.5
q7 36 7 83q0 33 -3 66.5t-10 87t-7 57.5q45 14 134.5 43t134.5 43q28 -63 28 -187q0 -112 -14 -172q-1 -2 -1 -6t-1 -6q-1 -6 -3.5 -18.5t-3.5 -18.5q-28 -157 -91.5 -274t-209.5 -244q-63 -55 -160 -91t-211 -36q-124 0 -200 83t-76 208q0 35 8 77z" />
    <glyph glyph-name="Alpha" unicode="&#x391;" 
d="M674 504v7q0 55 -19 190.5t-19 203.5q0 53 8 93q-17 -75 -59.5 -167t-100.5 -197.5t-77 -147.5q28 6 72.5 9t107.5 5.5t87 3.5zM601 1325h224q16 -148 47.5 -416t56 -489t43.5 -420h-276q-4 45 -11.5 139t-11.5 142q-23 0 -70 -1t-66 -1.5t-54.5 -2t-58 -4.5t-53 -8
t-61.5 -12l-48 -90q-58 -110 -71 -162h-260q20 76 97 223q96 184 287 551.5t286 550.5z" />
    <glyph glyph-name="Beta" unicode="&#x392;" 
d="M154 837q59 305 79 471q232 17 340 17h18q153 0 240.5 -58.5t87.5 -178.5q0 -31 -8 -74q-13 -69 -39.5 -115.5t-55.5 -69t-77 -46.5q243 -71 243 -288q0 -41 -9 -87q-71 -362 -421 -405q-64 -8 -121 -8q-36 0 -104 2.5t-112 2.5h-38h-194q14 75 69.5 337t101.5 500z
M653 1012q3 12 3 31q0 80 -91 80h-4h-16q-35 0 -87 -5q-5 -40 -19 -114q-5 -28 -17 -85t-17 -85h38q34 0 60 5t58.5 20.5t55.5 52t34 92.5q1 1 1 3.5t1 4.5zM528 638q-22 0 -51 -1t-68 -1h-44q-22 -107 -40 -196t-32 -155t-18 -87q96 -6 125 -6q42 0 96 6q14 2 33 7
t49.5 20.5t56.5 38.5t49.5 64t33.5 92q6 33 6 60q0 158 -196 158z" />
    <glyph glyph-name="Gamma" unicode="&#x393;" 
d="M332 1328h683q85 0 178 -34q-19 -33 -55.5 -98.5t-54.5 -98.5q-49 18 -111 21h-427q-36 -187 -108.5 -559t-108.5 -559h-254q43 221 129 664t129 664z" />
    <glyph glyph-name="Epsilon" unicode="&#x395;" 
d="M283 1319q57 4 205 4h98h110q84 0 207.5 -1.5t151.5 -1.5h16q-6 -34 -20 -101t-20 -101h-529q-8 -45 -25.5 -134.5t-26.5 -134.5h338q-6 -34 -19.5 -101.5t-19.5 -101.5h-338q-1 -5 -3 -15.5t-3 -15.5q-22 -116 -49 -248.5t-33 -162.5q70 0 208 1t208 1q25 0 57.5 7
t52.5 13l20 7q5 -33 17 -99.5t17 -99.5q-10 -3 -37 -10.5t-43.5 -11.5t-48 -8t-65.5 -4h-682q42 220 128 659.5t128 659.5z" />
    <glyph glyph-name="Zeta" unicode="&#x396;" 
d="M48 0q-8 24 -22 73.5t-22 74.5q136 162 408.5 485.5t408.5 485.5q-119 0 -332 -2.5t-258 -2.5l39 210q52 0 340 2t391 2q26 0 51 -2t38.5 -4.5t29.5 -6t18 -3.5q0 -4 -1 -7q-5 -19 -10 -91t-9 -88q-2 -6 -2 -8q-127 -150 -381 -450.5t-381 -450.5q61 0 181.5 -0.5
t181.5 -0.5q62 0 95.5 5t86.5 21q5 -36 14.5 -107.5t14.5 -107.5q-81 -27 -194 -27h-679h-7z" />
    <glyph glyph-name="Eta" unicode="&#x397;" 
d="M499 1322l-105 -537q133 29 277 29h87q21 107 40.5 209t31 161.5t25.5 132.5h256q-43 -219 -128.5 -658t-127.5 -659h-255q20 100 58.5 299.5t57.5 299.5h-32q-116 0 -180 -5t-152 -24q-38 -194 -66.5 -345t-42.5 -225h-258q43 220 128.5 660t128.5 660q43 0 128.5 1
t128.5 1z" />
    <glyph glyph-name="Theta" unicode="&#x398;" 
d="M735 1350q49 0 92 -8t94.5 -35t88 -72t61.5 -127t25 -191q0 -118 -29 -270q-1 -2 -1 -5.5t-1 -5.5q-24 -123 -69 -234.5t-98 -184.5q-80 -109 -200.5 -171t-249.5 -62q-104 0 -197.5 35.5t-137.5 107.5q-59 95 -59 240q0 90 24 212q48 243 112.5 383.5t144.5 224.5
q67 71 174 116t226 47zM489 187q51 0 102 45.5t90.5 115.5t69 146.5t44.5 145.5q1 3 2.5 8.5t1.5 8.5q30 138 30 258q0 232 -135 232q-69 0 -139.5 -81.5t-123 -207t-81.5 -266.5q-24 -120 -24 -196q0 -209 163 -209zM467 818h321q-9 -34 -28 -101.5t-29 -101.5h-321
q10 34 29 101.5t28 101.5z" />
    <glyph glyph-name="Iota" unicode="&#x399;" 
d="M314 1324q196 5 354 5q123 0 368 -3q-7 -35 -21 -105.5t-21 -105.5q-65 0 -125 2.5t-104 2.5q-29 -150 -87.5 -450.5t-87.5 -450.5q22 0 39 0.5t43 0.5q75 0 143 -4q-7 -36 -20.5 -108.5t-20.5 -108.5q-101 6 -209 6q-22 0 -73 -0.5t-82 -0.5q-27 0 -145.5 -3.5
t-206.5 -3.5l42 216q107 5 181 5h52q29 150 88 450.5t88 450.5q-144 -2 -230 -7q6 35 17.5 105.5t17.5 106.5z" />
    <glyph glyph-name="Kappa" unicode="&#x39a;" 
d="M638 742q78 -95 207.5 -342t146.5 -346q-39 -15 -117 -43t-117 -43q-20 91 -119.5 303t-173.5 303q-68 -62 -112 -134q-14 -74 -43 -222.5t-44 -222.5h-258q43 224 130 670.5t130 669.5h258q-15 -78 -45 -232.5t-45 -231.5q122 135 562 505l162 -177q-34 -22 -70 -48
t-72 -56t-68.5 -57.5t-69 -61t-62 -57t-59 -56.5t-49 -48.5l-42.5 -42.5z" />
    <glyph glyph-name="Mu" unicode="&#x39c;" 
d="M244 1323h204q44 -92 83.5 -224.5t57.5 -264.5q109 223 323 489h216l-255 -1323h-247q19 99 57 298t57 298q9 46 30 121.5t38 128.5l16 52q-58 -82 -125.5 -195.5t-86.5 -151.5q-25 -1 -75 -1t-75 -1q-50 268 -82 349q-5 -189 -27 -302q-20 -100 -58 -298t-58 -298h-250
q43 220 128.5 661t128.5 662z" />
    <glyph glyph-name="Nu" unicode="&#x39d;" 
d="M616 0q-34 223 -89.5 458.5t-118.5 386.5q-9 -46 -26 -137.5t-26 -137.5q-25 -133 -45.5 -237t-38 -195.5t-27.5 -140.5h-246q43 222 129.5 664.5t129.5 663.5q35 -1 104.5 -3.5t104.5 -3.5q71 -151 154.5 -442.5t98.5 -468.5q5 41 12 117t14.5 138t18.5 116
q64 328 119 551q40 0 122 -0.5t122 -0.5q-41 -168 -92 -433q-25 -127 -71.5 -377.5t-65.5 -347.5q-5 -28 -17 -85t-17 -85h-249z" />
    <glyph glyph-name="Omicron" unicode="&#x39f;" 
d="M709 1350q32 0 61.5 -3.5t66 -15.5t66.5 -31t59.5 -52.5t50 -77.5t33 -109t12.5 -144q0 -115 -28 -270q0 -2 -1 -5.5t-1 -5.5q-24 -123 -67 -234.5t-94 -184.5q-77 -109 -193.5 -171t-241.5 -62q-101 0 -191 35.5t-133 107.5q-57 94 -57 240q0 95 23 212
q48 244 110 384.5t138 223.5q65 71 168.5 116t218.5 47zM471 187q49 0 98.5 45.5t88 115.5t67 146.5t42.5 145.5q1 3 2 8.5t2 8.5q29 143 29 258q0 232 -131 232q-67 0 -135 -82t-118.5 -207t-78.5 -266q-23 -115 -23 -196q0 -209 157 -209z" />
    <glyph glyph-name="Rho" unicode="&#x3a1;" 
d="M816 909q8 37 8 74q0 38 -11.5 64.5t-26 39.5t-40.5 20.5t-43.5 8.5t-45.5 1h-9q-35 0 -86.5 -2.5t-64.5 -2.5q-2 -12 -6.5 -35.5t-7.5 -35.5l-78 -392q72 -2 104 -2q40 0 72.5 4.5t71.5 21t68.5 44t55 76.5t39.5 116zM279 0h-250q43 220 128.5 660t128.5 660
q57 0 139.5 4t150.5 4q97 0 160 -4.5t129.5 -19.5t113 -47t78.5 -83q35 -56 35 -144q0 -49 -11 -106q-48 -249 -179.5 -367t-383.5 -118q-72 0 -153 3q-36 -188 -86 -442z" />
    <glyph glyph-name="Tau" unicode="&#x3a4;" 
d="M280 0q36 187 108.5 559t108.5 559q-114 0 -203.5 -0.5t-112.5 -0.5q6 34 20 103t20 104q53 0 358 0.5t407 0.5q110 0 163 -16q-16 -34 -49 -101.5t-50 -101.5q-50 12 -110 12h-183q-36 -187 -108.5 -559t-108.5 -559h-260z" />
    <glyph glyph-name="Upsilon" unicode="&#x3a5;" 
d="M279 18q50 99 143.5 287t143.5 287q-19 38 -195.5 303t-193.5 327q36 23 108.5 69.5t108.5 70.5q12 -39 139 -254t157 -286q42 92 126 276.5t126 277.5l219 -96q-103 -213 -325.5 -672.5t-325.5 -673.5q-10 3 -50 16t-63 21t-57.5 21t-60.5 26z" />
    <glyph glyph-name="Chi" unicode="&#x3a7;" 
d="M985 1367q28 -19 84.5 -57.5t84.5 -58.5l-456 -594q38 -89 88.5 -223t85.5 -206t87 -135q-31 -21 -94.5 -62t-94.5 -62q-56 68 -86.5 129t-71 176t-73.5 194q-65 -87 -197 -261t-197 -261q-31 22 -92.5 66t-92.5 66l480 615q-52 134 -81 205.5t-78 169.5t-100 173
q34 23 102.5 68t102.5 67q35 -52 68.5 -119.5t52.5 -116t51 -135t48 -126.5q63 81 189.5 243.5t189.5 244.5z" />
    <glyph glyph-name="uni0394" unicode="&#x394;" 
d="M662 199q0 50 -17.5 302.5t-17.5 367.5q0 88 8 129q-17 -74 -86 -228t-170.5 -358t-105.5 -213h389zM74 0q-25 7 -75.5 19.5t-75.5 18.5q112 215 335 643.5t335 643.5h223q22 -214 65 -641.5t64 -641.5q-24 -7 -72.5 -21t-72.5 -21h-726z" />
    <glyph glyph-name="Lambda" unicode="&#x39b;" 
d="M398 486l-243 -513q-38 11 -115.5 32.5t-116.5 32.5q112 215 335 643.5t335 643.5h223q22 -214 65 -641.5t64 -641.5q-45 -10 -135.5 -31.5t-135.5 -31.5q-4 87 -11.5 262t-11.5 263v9q0 52 -12.5 178.5t-12.5 191.5q0 69 9 115q-17 -75 -59.5 -167t-100.5 -197.5
t-77 -147.5z" />
    <glyph glyph-name="Xi" unicode="&#x39e;" 
d="M402 849h377q-6 -34 -19 -101.5t-20 -101.5h-377q6 34 19.5 101.5t19.5 101.5zM274 1319q57 4 205 4h98h111q84 0 207.5 -1.5t151.5 -1.5h15q-6 -34 -20 -101t-20 -101h-790zM57 201q112 1 336.5 1t336.5 1q25 0 57.5 6.5t52.5 13.5l20 7q6 -33 17.5 -99.5t16.5 -99.5
q-9 -2 -37 -10t-44.5 -12t-48 -8t-65.5 -4h-682q6 34 19.5 102t20.5 102z" />
    <glyph glyph-name="Pi" unicode="&#x3a0;" 
d="M310 0h-255q35 181 105.5 543.5t105.5 543.5q-37 -5 -89 -15q-1 32 -2.5 96.5t-2.5 97.5q137 30 336 30h676q-6 -32 -18.5 -98t-19.5 -98h-103q-24 -121 -71 -361t-70 -361q-31 -155 -47 -369q-42 -2 -126.5 -6.5t-126.5 -6.5q7 178 48 388q23 120 69.5 358t69.5 358
h-143q-82 0 -120 -1q-36 -183 -108 -549.5t-108 -549.5z" />
    <glyph glyph-name="Sigma" unicode="&#x3a3;" 
d="M587 658q-64 80 -191.5 238.5t-191.5 237.5q26 32 77.5 94.5t76.5 93.5q23 2 60 2q12 0 46.5 -0.5t60.5 -0.5h98h111q83 0 207 -1.5t152 -1.5h15q-6 -34 -20 -101t-20 -101h-505q53 -65 157.5 -196t156.5 -196q-6 -26 -19 -79.5t-19 -80.5q-74 -61 -223 -182.5
t-224 -182.5q254 2 384 2q25 0 57.5 6.5t52.5 13.5l20 7q6 -33 17.5 -99.5t16.5 -99.5q-9 -2 -37 -10t-44.5 -12t-48 -8t-65.5 -4q-107 1 -321.5 2t-322.5 1l-81 183q94 79 283 237.5t284 237.5z" />
    <glyph glyph-name="Phi" unicode="&#x3a6;" 
d="M371 420q19 98 56.5 292.5t56.5 291.5q-7 -5 -17 -13q-127 -103 -171 -322q-6 -30 -6 -68q0 -98 41 -148q13 -17 40 -33zM656 412q60 28 100 71q32 30 64.5 98t43.5 122q0 2 1 6t1 6q10 52 10 103q0 84 -28 139q-27 53 -73 78q-57 -307 -110 -575zM332 214
q-132 29 -190 94q-88 99 -88 244q0 47 11 104q36 184 99 292t145 177q82 70 219 103q4 17 10 52t10 53q3 17 9.5 50.5t10.5 50.5h284q-5 -26 -15.5 -79t-15.5 -79q-1 -6 -3.5 -17.5t-3.5 -16.5q297 -51 297 -372q0 -74 -16 -161q-1 -2 -1 -5t-1 -4q-18 -91 -62 -177
t-97 -146q-116 -130 -317 -168q-21 -104 -47 -209q-48 0 -143 0.5t-142 0.5q27 107 39 174q1 7 8 39z" />
    <glyph glyph-name="Psi" unicode="&#x3a8;" 
d="M134 839q12 63 35 182q24 124 30 167.5t6 99.5q0 13 -2 31q43 5 128.5 14.5t128.5 14.5v-15q0 -59 -6 -105t-32 -178q-5 -26 -12 -61t-13 -66q-21 -109 -21 -157q0 -55 25 -82.5t85 -27.5q102 500 117 576q3 17 9.5 51t9.5 51q39 0 117.5 0.5t118.5 0.5q-5 -26 -15.5 -79
t-15.5 -79q-37 -190 -104 -521q28 0 45 1t35.5 9t28 15t22 31t19.5 44t18.5 67.5t19.5 87.5t23 117q32 178 43 294q43 3 129.5 9t130.5 9q-11 -142 -38 -271q-2 -8 -7 -37q-19 -99 -31 -154.5t-33 -128t-44 -111.5t-58.5 -82.5t-81 -64t-109 -34.5t-143.5 -14
q-84 -401 -93 -443h-249q16 64 63 299q25 125 28 141q-161 0 -239 84t-78 217q0 43 10 98z" />
    <glyph glyph-name="uni03A9" unicode="&#x3a9;" 
d="M330 1h-376q6 36 19.5 108t20.5 108h175q-54 94 -84 175t-30 175q0 55 11 109q71 353 250.5 526.5t427.5 173.5q79 0 149.5 -26.5t128 -77.5t91.5 -135.5t34 -192.5q0 -151 -24 -265.5t-75 -198.5t-108.5 -141.5t-146.5 -121.5q14 0 41.5 0.5t41.5 0.5q26 0 58.5 7
t51.5 14l19 7q0 -36 1.5 -107t2.5 -106q-12 -3 -36.5 -10.5t-39 -11.5t-39.5 -7.5t-52 -3.5h-6h-282q-1 35 -3 105.5t-3 105.5q82 52 141 113t106 148t70.5 207t23.5 275q0 109 -50.5 157t-133.5 48q-107 0 -217.5 -131.5t-152.5 -344.5q-11 -55 -11 -121
q0 -118 34.5 -221.5t70.5 -125.5q-16 -35 -49 -106.5t-50 -107.5z" />
    <glyph glyph-name="tonos" unicode="&#x384;" 
d="M510 1334q83 83 126 150t99 192l225 -54q-80 -196 -288 -400q-27 18 -81 56t-81 56z" />
    <glyph glyph-name="alphatonos" unicode="&#x3ac;" 
d="M581 1282q83 83 126 150t99 192l225 -54q-80 -196 -288 -400q-27 19 -81 56.5t-81 55.5zM871 493q4 -33 7.5 -105t10.5 -125q6 -42 27.5 -66t68.5 -44q-23 -31 -69 -92.5t-69 -92.5q-82 22 -121 72.5t-46 106.5q-1 11 -3.5 33.5t-4.5 34.5q-73 -115 -145 -168.5
t-167 -53.5q-81 0 -140 27t-93 76.5t-50 111.5t-16 138q0 83 19 181q21 106 58.5 191.5t83.5 140.5t101 91.5t108.5 52t108.5 15.5q119 0 177.5 -64t72.5 -187q17 33 43.5 88t48 98t45.5 84q34 -12 103 -35.5t103 -34.5q-22 -30 -46.5 -70t-41 -68t-47 -86.5t-40 -77
t-46.5 -91.5t-41 -81zM333 524q-18 -91 -18 -160q0 -45 8.5 -78.5t19 -49.5t24 -25t20.5 -10.5t13 -1.5h8q37 0 82 75.5t108 220.5q-3 177 -20 248.5t-68 71.5q-44 0 -97 -75t-80 -216z" />
    <glyph glyph-name="Iotadieresis" unicode="&#x3aa;" 
d="M812 1713l281 -3l-46 -238l-282 1zM392 1713h279l-47 -240h-279zM314 1324q196 5 354 5q123 0 368 -3q-7 -35 -21 -105.5t-21 -105.5q-65 0 -125 2.5t-104 2.5q-29 -150 -87.5 -450.5t-87.5 -450.5q22 0 39 0.5t43 0.5q75 0 143 -4q-7 -36 -20.5 -108.5t-20.5 -108.5
q-101 6 -209 6q-22 0 -73 -0.5t-82 -0.5q-27 0 -145.5 -3.5t-206.5 -3.5l42 216q107 5 181 5h52q29 150 88 450.5t88 450.5q-144 -2 -230 -7q6 35 17.5 105.5t17.5 106.5z" />
    <glyph glyph-name="Upsilondieresis" unicode="&#x3ab;" 
d="M852 1673l281 -3l-46 -238l-282 1zM432 1673h279l-47 -240h-279zM279 18q50 99 143.5 287t143.5 287q-19 38 -195.5 303t-193.5 327q36 23 108.5 69.5t108.5 70.5q12 -39 139 -254t157 -286q42 92 126 276.5t126 277.5l219 -96q-103 -213 -325.5 -672.5t-325.5 -673.5
q-10 3 -50 16t-63 21t-57.5 21t-60.5 26z" />
    <glyph glyph-name="epsilontonos" unicode="&#x3ad;" 
d="M630 1282q83 83 126 150t99 192l225 -54q-80 -196 -288 -400q-27 19 -81 56.5t-81 55.5zM989 138q-81 -53 -212 -97.5t-280 -44.5q-139 0 -213.5 16.5t-121.5 60.5q-38 36 -58 88t-20 102q0 20 3 38q18 104 85 180.5t180 102.5q-91 10 -133.5 53.5t-42.5 108.5q0 23 4 43
q13 66 61 114t120.5 73t150.5 36.5t168 11.5h13q105 0 190 -17t115.5 -31t45.5 -25q-17 -30 -51 -88.5t-51 -87.5q-20 14 -110.5 32t-188.5 18q-95 0 -145.5 -13.5t-54.5 -50.5q0 -1 -0.5 -3.5t-0.5 -3.5q0 -31 57 -52.5t121 -29t121 -7.5h7h5h18q-6 -33 -19 -98.5
t-19 -98.5q-13 0 -39 0.5t-39 0.5q-148 0 -216.5 -38.5t-85.5 -124.5q-1 -5 -1 -15q0 -41 48.5 -69.5t160.5 -28.5q114 0 202.5 30t142.5 72q14 -26 41.5 -78.5t41.5 -78.5z" />
    <glyph glyph-name="etatonos" unicode="&#x3ae;" 
d="M639 1282q83 83 126 150t99 192l225 -54q-80 -196 -288 -400q-27 19 -81 56.5t-81 55.5zM936 296l-69 -357q-20 -102 -20 -205q0 -30 3 -46q-41 -11 -124.5 -31t-125.5 -31q-6 123 -6 126q0 80 19 180q9 46 27 139t27 139q16 85 48.5 254t48.5 253q4 20 4 39
q0 34 -18 48.5t-58 14.5q-50 0 -124 -29.5t-145 -82.5q-22 -118 -67.5 -353.5t-68.5 -353.5h-252q23 118 68.5 353.5t68.5 352.5q30 154 30 218q0 16 -4 80q40 8 120.5 24t120.5 24q14 -73 14 -109v-16q52 39 143.5 69t171.5 30q273 0 273 -166q0 -19 -5 -46
q-16 -87 -49.5 -259.5t-50.5 -258.5z" />
    <glyph glyph-name="iotatonos" unicode="&#x3af;" 
d="M562 1282q83 83 126 150t99 192l225 -54q-80 -196 -288 -400q-27 19 -81 56.5t-81 55.5zM486 1013h255l-138 -717q-3 -16 -3 -31q0 -37 19 -59t54 -22q37 0 95 46.5t82 105.5q27 -17 80.5 -49.5t80.5 -48.5q-47 -115 -148.5 -185.5t-262.5 -70.5q-152 0 -214 38
q-64 39 -64 122q0 29 7 64q19 101 59 303.5t59 303.5q-113 0 -239 -28q1 31 3.5 93t3.5 93q149 42 271 42z" />
    </font>
</defs>
</svg>
