<?xml version="1.0" standalone="no"?>
<!DOCTYPE svg PUBLIC "-//W3C//DTD SVG 1.1//EN" "http://www.w3.org/Graphics/SVG/1.1/DTD/svg11.dtd" >
<svg xmlns="http://www.w3.org/2000/svg" xmlns:xlink="http://www.w3.org/1999/xlink" version="1.1">
<metadata>
Created by FontForge 20170731 at Sat Nov 16 22:56:38 2019
 By Aleksey,,,
Created by Jany Belluz with FontForge 2.0 (http://fontforge.sf.net)
</metadata>
<defs>
<font id="FantasqueSansMono-Italic" horiz-adv-x="1060" >
  <font-face 
    font-family="Fantasque Sans Mono"
    font-weight="400"
    font-style="italic"
    font-stretch="normal"
    units-per-em="2048"
    panose-1="2 11 6 9 2 2 4 3 2 4"
    ascent="1650"
    descent="-398"
    x-height="1028"
    cap-height="1292"
    bbox="-3031 -797 1304.38 2212"
    underline-thickness="96"
    underline-position="-288"
    slope="-11"
    unicode-range="U+0020-FF63"
  />
<missing-glyph 
d="M68 0v1365h544v-1365h-544zM136 68h408v1229h-408v-1229z" />
    <glyph glyph-name=".notdef" 
d="M68 0v1365h544v-1365h-544zM136 68h408v1229h-408v-1229z" />
    <glyph glyph-name=".null" horiz-adv-x="0" 
 />
    <glyph glyph-name="nonmarkingreturn" 
 />
    <glyph glyph-name="space" unicode=" " 
 />
    <glyph glyph-name="exclam" unicode="!" 
d="M794 1319l-190 -886l-166 -2l158 888h198zM365 270h250l-52 -270h-250z" />
    <glyph glyph-name="quotedbl" unicode="&#x22;" 
d="M815 1464l185 -38q-39 -201 -76 -333.5t-96 -294.5l-124 36q73 199 73 363q0 21 -2 61zM444 1464l185 -38q-39 -201 -76 -333.5t-96 -294.5l-124 36q73 199 73 363q0 21 -2 61z" />
    <glyph glyph-name="numbersign" unicode="#" 
d="M497 795q-13 -48 -76 -254q41 2 107 2h74q15 48 42 138.5t35 116.5q-41 0 -103.5 -1.5t-78.5 -1.5zM262 -19l-168 1q42 164 112 393q-69 -1 -128 -19l-21 147q62 21 200 31q14 35 27.5 79.5t27.5 97.5t22 79h-14q-110 -7 -155 -22l-24 147q66 24 231 33q4 0 5.5 0.5
t4.5 0.5h5q26 82 41.5 141.5t30.5 127.5t26 113q13 0 52.5 0.5t59.5 0.5q36 0 50 -1q-68 -266 -101 -376h182q85 273 120 371l162 -2q-57 -142 -129 -368h135l-31 -161q-112 4 -153 4q-22 -75 -79 -255h179l-32 -161q-81 3 -190 3q-45 -148 -116 -408l-164 1
q111 375 120 406h-24q-70 0 -155 -5z" />
    <glyph glyph-name="dollar" unicode="$" 
d="M310 709q-57 29 -92.5 83.5t-35.5 130.5q0 26 7 66q28 141 155.5 213.5t298.5 72.5h9l55 235l172 -14l-67 -232q97 -16 174 -74.5t100 -143.5l-154 -77q-18 108 -163 139l-89 -333q76 -17 126 -43q154 -82 154 -249q0 -34 -8 -77q-18 -93 -65 -162t-112.5 -108.5
t-137.5 -59t-152 -22.5l-56 -230l-176 14l73 227q-265 53 -265 282q0 43 9 92h158q-6 -33 -6 -59q0 -127 145 -163l117 434q-118 30 -174 58zM611 1121q-237 -2 -262 -127q-4 -26 -4 -35q0 -72 78 -112q44 -23 103 -37zM526 207q113 7 179.5 52t84.5 139q5 28 5 47
q0 53 -27 86.5t-78 57.5q-21 10 -54 22z" />
    <glyph glyph-name="percent" unicode="%" 
d="M306 1011q0 -38 25 -63t64 -25q50 0 90.5 37.5t40.5 91.5q0 38 -25 62.5t-64 24.5q-49 0 -90 -37.5t-41 -90.5zM467 1289q92 0 152 -64.5t60 -154.5q0 -126 -96.5 -211.5t-216.5 -85.5q-92 0 -152.5 66t-60.5 157q0 124 97.5 208.5t216.5 84.5zM598 234q0 -38 25 -63
t64 -25q50 0 90.5 37.5t40.5 91.5q0 38 -25 62.5t-64 24.5q-49 0 -90 -37.5t-41 -90.5zM759 512q92 0 152 -63.5t60 -153.5q0 -126 -96.5 -212.5t-216.5 -86.5q-92 0 -152.5 63.5t-60.5 154.5q0 83 47.5 153t119 107.5t147.5 37.5zM-22 63q325 427 1094 1261l109 -118
q-767 -817 -1078 -1249z" />
    <glyph glyph-name="ampersand" unicode="&#x26;" 
d="M628 245q-195 351 -226 403q-171 -129 -198 -272q-6 -30 -6 -57q0 -85 50 -135.5t127 -50.5q134 0 253 112zM686 1069q4 24 4 34q0 91 -108 91q-51 0 -102 -46t-62 -104q-3 -16 -3 -32q0 -63 60 -153q102 63 157 122q47 50 54 88zM922 64l-140 -96q-5 9 -17 30
t-31.5 55.5t-35.5 62.5q-155 -138 -358 -138q-137 0 -221.5 80.5t-84.5 218.5q0 43 9 90q25 126 101.5 228t183.5 176q-74 115 -74 211q0 31 5 55q25 127 129 218.5t225 91.5q102 0 170 -54.5t68 -152.5q0 -31 -5 -55q-9 -47 -31.5 -90.5t-49 -75.5t-68 -67t-73.5 -57.5
t-81 -53.5q132 -229 194 -343q41 80 74 250l149 -1q-53 -277 -148 -392q78 -132 110 -191z" />
    <glyph glyph-name="quotesingle" unicode="'" 
d="M584 1464l211 -31q-41 -209 -78.5 -350.5t-93.5 -294.5l-150 36q73 202 73 373q0 21 -2 61z" />
    <glyph glyph-name="parenleft" unicode="(" 
d="M1076 1326h-9q-111 0 -210.5 -48t-176.5 -134.5t-133.5 -201t-86 -253t-29.5 -285.5q0 -239 94 -369t273 -131l-32 -166q-146 1 -261 80.5t-177.5 218t-62.5 310.5q0 262 63.5 475.5t176 356t266 221.5t335.5 84z" />
    <glyph glyph-name="parenright" unicode=")" 
d="M329 1326l30 158q125 -4 223 -50t159.5 -124.5t93 -180.5t31.5 -222q0 -208 -46.5 -394.5t-128 -325.5t-188.5 -241t-230.5 -154.5t-251.5 -53.5l32 166q131 0 252.5 86t207 222.5t137 309t51.5 343.5q0 224 -86.5 342.5t-276.5 118.5h-9z" />
    <glyph glyph-name="asterisk" unicode="*" 
d="M509 740l79 425l169 1l-87 -429l343 146l61 -136l-392 -149l214 -337l-144 -96l-187 364l-316 -366l-116 110l322 340l-323 136l69 132z" />
    <glyph glyph-name="plus" unicode="+" 
d="M100 589q65 12 221 12h160l82 423l154 -1q-2 -12 -31 -164l-51 -259q126 -2 295 -2h83l-30 -155h-15q-151 0 -360 3l-82 -426l-161 2l82 423q-300 0 -377 -11z" />
    <glyph glyph-name="comma" unicode="," 
d="M379 274h252l-45 -263v-3q-55 -287 -329 -401l-34 139q80 40 126 99.5t66 159.5h-88z" />
    <glyph glyph-name="hyphen" unicode="-" 
d="M145 603l838 -1l-29 -159h-833z" />
    <glyph glyph-name="period" unicode="." 
d="M374 269h251l-52 -269h-251z" />
    <glyph glyph-name="slash" unicode="/" 
d="M6 -57q44 64 74 112q698 1122 861 1406l139 -81q-164 -280 -934 -1521z" />
    <glyph glyph-name="zero" unicode="0" 
d="M293 455l486 498q-4 37 -8 60t-14 53.5t-23.5 47t-37 29t-55.5 12.5q-57 0 -107 -38.5t-84 -95t-63.5 -136.5t-46.5 -146t-31 -141q-13 -63 -16 -143zM790 818l-489 -501q7 -84 37.5 -132t106.5 -48q43 0 81 19.5t66 49t53.5 76.5t43 91t34 104t26 102.5t20.5 99.5
q14 70 21 139zM669 1308q62 0 111 -20t80.5 -54t51.5 -83.5t28.5 -104t8.5 -119.5q0 -117 -29 -267q-132 -676 -505 -676q-78 0 -134.5 29t-88.5 82t-46.5 118.5t-14.5 147.5q0 118 27 255q19 99 46.5 189.5t72 184.5t98.5 162.5t130.5 112t163.5 43.5z" />
    <glyph glyph-name="one" unicode="1" 
d="M674 1302l196 -12l-253 -1299h-164l205 1064q-98 -98 -372 -274l-72 151q69 37 131 76t107 74t81.5 66.5t61.5 59t41 46.5t26.5 33t11.5 15z" />
    <glyph glyph-name="two" unicode="2" 
d="M393 857l-157 -36q-3 21 -3 53q0 23 4 59q1 4 2 12.5t2 12.5q31 161 153.5 254.5t277.5 93.5q307 0 307 -261q0 -47 -13 -117q-31 -158 -222 -325q-50 -41 -173 -130.5t-185 -140.5q-58 -48 -93 -96.5t-43 -80.5l586 2l-31 -155h-759q3 17 9 51.5t8 43.5q8 42 22 81
q29 76 81.5 143t145.5 140q62 49 172.5 125.5t157.5 114.5q66 53 111 115.5t54 109.5q6 32 6 62q0 73 -39.5 117.5t-123.5 44.5q-101 0 -168 -57t-90 -173q-5 -28 1 -63z" />
    <glyph glyph-name="three" unicode="3" 
d="M68 335l158 1q-4 -20 -4 -42q0 -73 50.5 -117t144.5 -44q118 0 198.5 65t102.5 176q8 45 8 76q0 109 -91 165q-38 24 -83.5 36t-75 13.5t-82.5 1.5l31 158h16q82 0 165 26q70 23 108.5 64t53.5 114q2 14 2 19q0 48 -46.5 75.5t-117.5 27.5q-134 0 -231 -140l-126 79
q5 10 18.5 28.5t47.5 53t74.5 62t104 49t131.5 21.5h11q130 0 213.5 -53.5t83.5 -160.5q0 -26 -6 -56q-19 -97 -71 -171.5t-125 -104.5q159 -84 159 -270q0 -53 -12 -111q-14 -69 -52.5 -144t-96.5 -131q-129 -123 -342 -123q-154 0 -240.5 77t-86.5 204q0 34 8 76z" />
    <glyph glyph-name="four" unicode="4" 
d="M641 570l81 420q-70 -92 -190 -217t-209 -203h318zM109 543q4 4 79 79.5t161 164.5t180.5 191.5t163.5 192t84 135.5h163l-143 -736h128l-30 -154h-128l-81 -418h-156l80 415h-467z" />
    <glyph glyph-name="five" unicode="5" 
d="M552 731q-123 0 -250 -108l-115 54l164 611l599 -2l-30 -154h-458l-81 -297q100 54 199 54q103 0 184 -43q66 -39 108 -115t42 -180q0 -50 -10 -101q-42 -217 -180.5 -333.5t-326.5 -118.5h-2q-121 0 -200 66t-119 167l150 88q31 -75 78 -120t124 -45q125 0 207.5 76
t110.5 218q10 49 10 92q0 119 -89 165q-49 26 -115 26z" />
    <glyph glyph-name="six" unicode="6" 
d="M969 1154q-385 -27 -564 -316q-40 -67 -81 -184q35 26 50 35.5t49.5 26.5t75 23.5t94.5 6.5q144 0 227 -77t83 -211q0 -42 -9 -90q-24 -123 -94.5 -208t-169 -124t-219.5 -39q-155 0 -234 92.5t-79 249.5q0 72 14 142q43 221 159 419q211 359 688 401zM260 403
q-2 -30 -2 -43q0 -103 46.5 -156.5t136.5 -53.5q110 0 192.5 59t101.5 159q5 24 5 54q0 79 -49 124t-137 45q-94 0 -180.5 -59.5t-113.5 -128.5z" />
    <glyph glyph-name="seven" unicode="7" 
d="M327 1292q43 0 136.5 -3t131.5 -3h492h41l30 -82q-95 -129 -218 -283.5t-195 -246t-148 -205t-122.5 -226t-71.5 -243.5h-165q12 60 28 118t41.5 117.5t47.5 108.5t60.5 111.5t65 105.5t78 111t81.5 107.5t92.5 115.5t95 114.5t104.5 123.5q-52 -2 -198 -2h-129
q-46 0 -211 8q-24 -34 -64 -116l-123 61q16 31 58.5 102.5t61.5 105.5z" />
    <glyph glyph-name="eight" unicode="8" 
d="M458 147q123 0 204.5 60t101.5 161q5 27 5 47q0 44 -17 81t-50 66.5t-65.5 50t-79.5 44.5q-63 -26 -108 -50t-92.5 -59t-77.5 -80.5t-41 -99.5q-5 -28 -5 -48q0 -81 58.5 -127t166.5 -46zM589 821q83 20 145 69t72 99q3 14 3 26q0 53 -41.5 87t-117.5 34
q-87 0 -144.5 -42.5t-69.5 -104.5q-2 -12 -2 -17q0 -47 43 -90t112 -61zM680 1293q138 0 213.5 -66.5t75.5 -175.5q0 -26 -7 -66q-15 -75 -80 -146t-140 -101q77 -41 132.5 -117t55.5 -177q0 -32 -6 -66q-33 -169 -169.5 -278t-327.5 -109q-166 0 -260.5 84t-94.5 222
q0 36 8 81q24 124 118 217.5t204 142.5q-54 26 -91 84t-37 124q0 22 4 39q26 134 134 221t268 87z" />
    <glyph glyph-name="nine" unicode="9" 
d="M653 1152q-107 0 -187.5 -50t-100.5 -150q-4 -26 -4 -35q0 -73 61 -111t149 -38t161.5 50t101.5 110q0 3 0.5 8.5t0.5 8.5q0 83 -51 145t-131 62zM207 955q31 159 156 253t294 94q95 0 162 -27.5t103.5 -78.5t52.5 -113t16 -143q0 -121 -35 -296q-20 -105 -47 -192.5
t-72 -174t-101.5 -146t-139.5 -96.5t-184 -37q-51 0 -95.5 7t-76.5 15.5t-64 28.5t-51 34t-46 44.5t-40 47t-41 54.5l122 99q3 -4 10 -12q38 -46 55.5 -65t46 -43.5t54.5 -33t64 -14.5t92 -6q64 0 117 25.5t89 66.5t65 101.5t47 120.5t32 135q4 21 10.5 60t7.5 47
q-58 -49 -123 -71.5t-159 -22.5q-147 0 -238 68t-91 196q0 33 8 75z" />
    <glyph glyph-name="colon" unicode=":" 
d="M519 1021h251l-52 -269h-251zM374 269h251l-52 -269h-251z" />
    <glyph glyph-name="semicolon" unicode=";" 
d="M379 274h252l-45 -263v-3q-55 -287 -329 -401l-34 139q80 40 126 99.5t66 159.5h-88zM513 1019h251l-52 -269h-251z" />
    <glyph glyph-name="less" unicode="&#x3c;" 
d="M807 87l-113 -117q-19 41 -94 110q-79 78 -456 373l23 120q521 370 674 450q65 33 94 42l60 -142q-62 -30 -157 -88t-163 -103t-185 -125.5t-149 -101.5q29 -23 113 -87.5t144 -112t123 -110t86 -108.5z" />
    <glyph glyph-name="equal" unicode="=" 
d="M43 349q142 8 367 8q91 0 244 -4t236 -4l-33 -161q-86 0 -246.5 2.5t-253.5 2.5q-25 0 -75.5 0.5t-76.5 0.5q-105 0 -193 -5zM133 825q172 -11 346 -11q95 0 248 4.5t253 4.5l-31 -159q-96 0 -250 -6t-253 -6q-108 0 -346 15q21 110 33 158z" />
    <glyph glyph-name="greater" unicode="&#x3e;" 
d="M821 577l-10 -124q-17 -11 -196 -135.5t-344 -228t-250 -132.5l-66 126q40 19 86.5 45t105.5 63.5t98 62.5t111 73.5t95 64.5t98 68l75 52q-91 75 -216 191.5t-190 190.5q-41 47 -53 74l131 94q37 -56 145 -156.5t240 -211t140 -117.5z" />
    <glyph glyph-name="question" unicode="?" 
d="M147 1146q158 190 476 190q147 0 250 -71t103 -177q0 -46 -9.5 -89t-21.5 -75t-36.5 -65.5t-42 -54.5t-50 -48.5t-49 -40.5t-50.5 -37q-7 -5 -11 -8q-126 -91 -146 -193l-9 -46h-175l8 44q16 85 62.5 148.5t126.5 123.5q14 11 47 35.5t46 34.5t38.5 31.5t36.5 34
t27.5 33.5t23.5 38.5t12.5 40.5t5.5 48q0 60 -69 99t-156 39q-31 0 -48.5 -1t-49.5 -5t-58 -14.5t-59.5 -27t-69 -45.5t-73.5 -68zM310 270h250l-52 -270h-250z" />
    <glyph glyph-name="at" unicode="@" 
d="M478 501q-6 -30 -6 -56q0 -52 23 -80.5t63 -28.5q65 0 141.5 69t113.5 130l18 95q-29 30 -78 46.5t-99 16.5q-139 0 -176 -192zM794 309q-37 -32 -56 -47.5t-54 -37.5t-72.5 -31t-82.5 -9q-89 0 -151.5 71.5t-62.5 175.5q0 35 5 60q31 160 132.5 261t223.5 101
q125 0 186 -66q21 113 21 165q0 187 -185 187q-170 0 -301 -164t-191 -474q-16 -83 -16 -167q0 -181 79 -296.5t220 -115.5q69 0 163 53l34 -135q-134 -64 -238 -64q-78 0 -144.5 28.5t-113.5 79t-80 118.5t-49 147t-16 166q0 95 17 180q72 374 252.5 584.5t411.5 210.5
q87 0 150.5 -26.5t98.5 -73.5t51.5 -103t16.5 -123q0 -59 -13 -126l-64 -330q-1 -5 -3 -14.5t-3 -14.5q-15 -73 -15 -120q0 -66 26 -121l-163 -64q-15 38 -15 99q0 24 1 36z" />
    <glyph glyph-name="A" unicode="A" 
d="M739 495l-80 587l-304 -607q46 10 203 17zM800 0l-50 332q-10 0 -49.5 -1t-56 -1.5t-55.5 -1.5t-60.5 -2t-56.5 -2.5t-58.5 -4t-51.5 -5t-50.5 -6.5t-41.5 -8l-93 -179q-39 -71 -48 -121h-162q4 20 25 72.5t38 86.5l582 1142h171l186 -1301h-169z" />
    <glyph glyph-name="B" unicode="B" 
d="M182 823q55 281 78 462q17 1 68 5.5t88.5 6.5t88.5 2h18q66 0 126 -13t111.5 -40t82.5 -74.5t31 -109.5q0 -28 -6 -60q-16 -83 -44.5 -139t-87.5 -96q97 -35 156 -112t59 -184q0 -35 -8 -78q-33 -168 -128 -262t-263 -128q-40 -8 -121 -8q-40 0 -132 4t-149 4h-136
q13 65 67.5 323.5t100.5 496.5zM709 992q3 18 3 33q0 32 -10 55t-26.5 36.5t-44 21t-56.5 10t-69 2.5h-17q-34 0 -86 -5q-5 -42 -21 -128q-6 -30 -21.5 -102t-22.5 -112q54 1 92 4t81 9.5t72.5 19t56 31.5t43 48.5t24.5 68.5zM745 578q-43 43 -90 57t-125 14q-22 0 -81 -1
t-99 -1h-44q-18 -89 -42 -208t-37.5 -185.5t-20.5 -100.5q58 0 123 -3.5t98 -3.5q62 0 112 7q85 10 157 80.5t92 175.5q6 30 6 55q0 66 -49 114z" />
    <glyph glyph-name="C" unicode="C" 
d="M718 1152q-78 0 -150 -41.5t-122.5 -103t-91 -136.5t-62.5 -137t-31 -109q-19 -95 -19 -172q0 -148 71 -229q37 -43 75.5 -58t101.5 -15h14q201 7 321 191l125 -76q-82 -123 -198 -196t-253 -73h-3q-217 0 -314 117q-100 127 -100 319q0 84 20 190q56 291 228 486
q75 86 186 141.5t235 55.5q109 0 196 -60.5t128 -176.5l-135 -81q-27 84 -88.5 124t-133.5 40z" />
    <glyph glyph-name="D" unicode="D" 
d="M458 1152h-30q-33 0 -45 -2q-5 -30 -16 -86q-6 -29 -19.5 -95.5t-20.5 -102.5q-83 -428 -144 -722q87 -3 192 -3q285 0 400 205q18 33 37 89t27 98q20 103 20 200q0 140 -40 221q-35 70 -73.5 110t-109.5 64t-178 24zM19 125q3 19 29 141.5t62 301t63 315.5l14 74
q41 215 52 334q135 13 227 13q201 0 317 -61.5t183 -197.5q57 -119 57 -285q0 -89 -19 -192q-24 -126 -61 -219t-97 -170t-150.5 -122.5t-212.5 -59.5q-65 -7 -162 -7q-38 0 -153.5 3.5t-176.5 3.5q5 28 28 128z" />
    <glyph glyph-name="E" unicode="E" 
d="M278 1293q57 4 205 4h98h110q84 0 207.5 -1.5t151.5 -1.5h16v-150h-659l-63 -328h438v-150h-468l-5 -30q-23 -119 -59 -296t-39 -192h519q25 0 51 5t40 10l14 5l50 -141q-75 -30 -165 -30h-694z" />
    <glyph glyph-name="F" unicode="F" 
d="M202 -1l-160 4l251 1295h685q96 -4 153 -35l-69 -146q-16 10 -25.5 14t-39 9t-75.5 5h-70q-67 0 -433 -2l-64 -328q60 0 154.5 1.5t155.5 1.5q18 0 35.5 -1t31.5 -2t26.5 -2.5t21.5 -3t16 -2.5t10 -2l4 -1l17 -5l-48 -145q-54 14 -130 14q-214 0 -323 -3
q-13 -68 -65 -349.5t-59 -316.5z" />
    <glyph glyph-name="G" unicode="G" 
d="M1050 733l-15 -128q-15 -128 -46 -227t-69 -162t-90.5 -108t-101.5 -67.5t-111 -37.5q-52 -11 -154 -11q-211 0 -313.5 120.5t-102.5 323.5q0 89 20 192q74 379 293 558q154 116 351 116h20q297 -7 368 -276l-166 -46q-24 90 -77 130t-165 40q-73 0 -124 -13.5
t-114 -59.5q-160 -118 -226 -460q-19 -97 -19 -172q0 -298 296 -298q155 0 235 100.5t126 339.5h-14q-23 0 -63 0.5t-59 0.5q-132 0 -238 -36l-37 141q120 42 309 42q192 0 287 -2z" />
    <glyph glyph-name="H" unicode="H" 
d="M397 1296l-107 -547q128 28 312 28h228q60 310 99 514h159l-251 -1291h-158l121 625h-129q-273 0 -411 -28q-39 -198 -71 -370.5t-43 -226.5h-161l252 1294z" />
    <glyph glyph-name="I" unicode="I" 
d="M329 1298q157 4 334 4q120 0 364 -3l-30 -152q-65 0 -143 2.5t-123 2.5l-194 -1000q22 0 59.5 0.5t63.5 0.5q75 0 143 -4l-29 -150q-101 6 -209 6q-22 0 -73 -0.5t-82 -0.5q-27 0 -135 -3.5t-196 -3.5l29 149q107 5 193 5h75l195 1000q-193 -3 -266 -7z" />
    <glyph glyph-name="J" unicode="J" 
d="M337 -8q-81 0 -140.5 24.5t-94 69t-50.5 99t-16 120.5q0 59 12 121l160 -1q-7 -42 -7 -87q0 -196 164 -196q68 0 118.5 32.5t87.5 103.5t63 158.5t52 222.5q31 161 66 485q-26 0 -120 0.5t-111 0.5q-67 -1 -146 -18l-26 153q85 19 200 22h386l-18 -157q-27 -251 -76 -503
q-19 -97 -39 -172t-49 -153t-66.5 -133.5t-87 -101t-115.5 -68t-147 -22.5z" />
    <glyph glyph-name="K" unicode="K" 
d="M554 705q87 -105 231 -342.5t161 -329.5l-156 -50q-18 79 -145 292t-210 312q-103 -98 -147 -169l-90 -423h-158l255 1313h158l-117 -605q122 133 307 293q101 86 194 159t147 112.5t58 42.5l90 -130q-136 -86 -313 -237t-265 -238z" />
    <glyph glyph-name="L" unicode="L" 
d="M65 -3l253 1301h161l-223 -1147h521q14 1 22 1t17 1.5t12 1.5t11 2t10 3t14 4.5t17 5.5l54 -142q-40 -19 -80.5 -25t-104.5 -6h-684z" />
    <glyph glyph-name="M" unicode="M" 
d="M235 1292l155 -1q5 -43 11.5 -79t17.5 -77.5t15.5 -58.5t21.5 -71.5t21 -66.5q13 -45 35.5 -107t25.5 -72q11 16 71 97t87.5 120t75 106t79.5 117.5t55 91.5h157l-251 -1296h-157l178 915q-35 -49 -105 -144t-111.5 -153t-49.5 -74l-122 3q-1 4 -16 44.5t-40.5 113
t-49.5 146.5q-11 41 -19 63l-176 -914h-158z" />
    <glyph glyph-name="N" unicode="N" 
d="M676 -6q-131 497 -323 1007l-40 -204q-25 -127 -82 -422t-73 -378h-159l253 1301l159 -4q65 -133 173.5 -437.5t162.5 -499.5q27 153 75 400q58 300 117 540h154q-32 -128 -90 -425q-21 -109 -66.5 -350t-68.5 -360q-5 -25 -16.5 -81.5t-16.5 -85.5z" />
    <glyph glyph-name="O" unicode="O" 
d="M687 1326q38 0 76.5 -8t88 -36.5t86.5 -74t63 -130t26 -195.5q0 -115 -25 -247l-2 -11q-23 -116 -70 -225t-101 -185q-78 -109 -185 -168t-230 -59q-97 0 -177 35.5t-125 107.5q-69 110 -69 272q0 85 17 170q24 123 55.5 222t68 168t68 113.5t69.5 85.5q67 73 160.5 118
t205.5 47zM239 245q58 -105 205 -105q65 0 141 43.5t122 106.5q37 46 78 149t58 188l4 19q22 119 22 216q0 91 -20 155q-26 83 -72 119.5t-114 36.5q-56 0 -117.5 -25.5t-112.5 -78.5q-148 -153 -214 -493q-14 -68 -14 -150q0 -122 34 -181z" />
    <glyph glyph-name="P" unicode="P" 
d="M884 900q8 43 8 73q0 40 -8.5 69t-30 48t-45 30.5t-65.5 18t-79.5 9t-99.5 3.5q-35 0 -87 -2.5t-65 -2.5l-25 -126l-80 -407q36 -1 103 -1q98 0 173 13.5t139 45t105 89t57 140.5zM185 -10l-158 1l254 1303q57 0 139.5 4t150.5 4q76 0 125.5 -2.5t103.5 -11t90.5 -24.5
t70.5 -44t60 -69q36 -57 36 -145q0 -43 -10 -100q-17 -84 -43.5 -151.5t-78.5 -126.5q-90 -100 -197.5 -134t-297.5 -34q-71 0 -152 3q-27 -139 -53 -270t-40 -203z" />
    <glyph glyph-name="Q" unicode="Q" 
d="M789 -131q-39 0 -69.5 3t-63.5 12t-54.5 24.5t-36 42.5t-14.5 64q-70 -18 -126 -18q-182 0 -278 124q-74 96 -74 280q0 105 24 228q70 361 226 521q83 86 165 120.5t180 34.5q126 0 204.5 -50t117.5 -156q34 -94 34 -205q0 -246 -89 -473t-237 -324v-9q0 -45 22.5 -56
t86.5 -12h11q44 0 86 10l-11 -156q-23 -5 -104 -5zM489 430q89 0 142 -37t64 -107q81 150 125 288.5t44 299.5q0 82 -26 149q-24 60 -76 94.5t-126 34.5q-65 0 -127.5 -42.5t-109.5 -111t-81.5 -148.5t-49.5 -159q-31 -165 -31 -259q0 -80 15 -144q25 52 75.5 86.5t90.5 45
t71 10.5zM553 166q0 4 0.5 11.5t0.5 10.5q0 51 -18.5 72t-67.5 21q-44 0 -80.5 -28t-44.5 -70q0 -1 -1 -3q28 -36 101 -36q53 0 110 22z" />
    <glyph glyph-name="R" unicode="R" 
d="M682 540q36 -81 98.5 -189t107.5 -175q1 -1 9.5 -10.5t13.5 -14.5t14.5 -13t20 -13.5t21.5 -8.5l-76 -132q-40 6 -74.5 30.5t-54.5 57.5q-56 79 -143.5 235t-116.5 227q-79 8 -220 33l-109 -567h-158l216 1113q19 96 29 175q161 15 221 15q85 0 141 -2.5t118 -12t104 -27
t80.5 -48t65.5 -74.5q45 -71 45 -167q0 -32 -6 -63q-33 -170 -114.5 -260t-232.5 -109zM871 895q5 28 5 50q0 57 -32 103q-38 57 -126.5 79.5t-260.5 22.5q-35 0 -64 -1l-81 -430q14 -3 45.5 -9t45.5 -8.5t39.5 -6.5t42 -6t38 -3.5t41.5 -1.5q137 0 210.5 45t96.5 166z" />
    <glyph glyph-name="S" unicode="S" 
d="M166 358q0 -93 79 -154.5t216 -61.5q153 0 242.5 83.5t89.5 203.5q0 112 -103 160q-50 23 -183 55.5t-197 64.5q-57 29 -92.5 83.5t-35.5 130.5q0 95 41 170t109 119t148.5 67t167.5 23q147 0 254.5 -27.5t163.5 -70.5l-99 -153q-108 97 -344 97q-111 0 -190.5 -53
t-79.5 -136q0 -76 70 -112q53 -28 188 -56.5t195 -58.5q67 -36 109 -103.5t42 -160.5q0 -98 -29.5 -179t-79 -135.5t-116 -91.5t-139 -54t-149.5 -17h-19q-207 5 -314 97.5t-107 230.5z" />
    <glyph glyph-name="T" unicode="T" 
d="M326 -9l224 1153q-114 0 -227.5 -0.5t-136.5 -0.5l30 155q53 0 358 0.5t407 0.5q52 0 137 -15l-63 -152q-60 12 -110 12h-235l-224 -1153h-160z" />
    <glyph glyph-name="U" unicode="U" 
d="M957 1313l154 -13q-21 -60 -39 -157q-13 -69 -37 -197t-35 -186l-12 -58q-21 -109 -36.5 -175t-42.5 -151t-64 -148t-86 -109q-127 -121 -344 -129q-186 0 -265.5 80.5t-79.5 241.5q0 65 10 135q16 117 57 332q52 271 111 523h158q-68 -310 -119 -574q-40 -208 -50 -289
q-5 -45 -5 -76q0 -115 49.5 -168.5t149.5 -53.5q79 4 129 22.5t100 61.5q95 86 170 477q11 57 37.5 203t43.5 236q19 95 46 172z" />
    <glyph glyph-name="V" unicode="V" 
d="M337 -5q1 10 1 36q0 174 -58 629t-97 626l162 53q93 -453 131 -984q137 318 538 986l146 -83q-137 -221 -380.5 -674.5t-281.5 -587.5z" />
    <glyph glyph-name="W" unicode="W" 
d="M257 0h-131q-1 13 -1 49q0 132 27.5 632t28.5 605l160 32q-2 -221 -11 -387t-19 -247.5t-21.5 -186t-16.5 -199.5q78 155 166 373.5t107 285.5q133 0 169 12q0 -42 -1.5 -147.5t-1.5 -164.5q0 -233 15 -357q26 83 58.5 216t89.5 311.5t174 487.5l151 -32
q-57 -141 -235.5 -678.5t-204.5 -604.5h-136q-59 403 -59 595v18q-76 -187 -308 -613z" />
    <glyph glyph-name="X" unicode="X" 
d="M979 1340l131 -91l-487 -616q13 -29 47 -106.5t45.5 -102t38.5 -82.5t41.5 -83.5t37.5 -66.5t44.5 -70.5t45.5 -58.5l-135 -93q-30 36 -57 76t-45 69.5t-44.5 85.5t-38 81.5t-45 104t-47.5 110.5l-423 -539l-125 96l469 600q-19 49 -57.5 153t-62.5 166t-62 141t-77 134
l156 83q46 -65 84 -153t80 -208.5t62 -170.5z" />
    <glyph glyph-name="Y" unicode="Y" 
d="M296 42l270 482q-8 15 -75 142.5t-119.5 229.5t-106 213t-63.5 148l154 57q44 -110 310 -621q18 42 159.5 315t159.5 331l150 -59q-105 -216 -238 -471.5t-211.5 -400t-240.5 -440.5z" />
    <glyph glyph-name="Z" unicode="Z" 
d="M47 -5l-78 88l935 1067q-120 0 -371 -2.5t-296 -2.5l-1 153q52 0 355 2t405 2q26 0 51 -2t38.5 -4.5t29.5 -6t18 -3.5q-10 -35 -45 -137l-871 -998l487 -1q68 0 104 5.5t68 21.5l50 -133q-64 -47 -193 -47h-243q-126 0 -279 -1t-157 -1h-7z" />
    <glyph glyph-name="bracketleft" unicode="[" 
d="M1057 1483l2 -154q-67 -6 -366 -13l-276 -1417q129 4 221 4h13q102 0 141 -9l-31 -162q-72 9 -134 9q-25 0 -186.5 -2.5t-212.5 -2.5q12 62 39.5 200.5t47.5 240.5q14 74 74 390q1 4 92 482l82 421q52 0 210.5 3.5t178.5 3.5q68 3 105 6z" />
    <glyph glyph-name="backslash" unicode="\" 
d="M804 -108l-163 -39q-242 1049 -343 1558l168 38q80 -438 338 -1557z" />
    <glyph glyph-name="bracketright" unicode="]" 
d="M412 1483q37 -3 103 -6q20 0 177.5 -3.5t209.5 -3.5l-82 -421q-13 -67 -46 -231.5t-50 -250.5q-71 -354 -78 -390q-17 -86 -41 -217.5t-42 -223.5q-51 0 -211.5 2.5t-185.5 2.5q-60 0 -138 -9l31 162q45 9 145 9h13q92 0 219 -4l276 1417q-298 7 -362 13z" />
    <glyph glyph-name="asciicircum" unicode="^" 
d="M653 1101l365 -518l-122 -115l-267 371l-442 -381l-98 118z" />
    <glyph glyph-name="underscore" unicode="_" 
d="M852 -334h-950l30 156h950z" />
    <glyph glyph-name="grave" unicode="`" 
d="M549 1483q36 -80 203.5 -228t239.5 -178l-108 -152q-9 7 -71.5 51t-78.5 56l-68 51t-75.5 61.5t-63 59t-69 71.5t-57.5 73z" />
    <glyph glyph-name="a" unicode="a" 
d="M243 514q-25 -93 -25 -168q0 -94 36 -148t96 -54q65 0 124.5 33.5t102.5 81.5t82.5 115t62.5 121t44 113l45 196q-36 25 -60 39.5t-71.5 30.5t-95.5 16q-138 0 -211.5 -86t-129.5 -290zM1006 1002l-120 -646q-20 -102 -20 -142q0 -36 11.5 -56.5t41.5 -48.5l-106 -119
q-4 3 -21 17.5t-23 21t-19 24t-18.5 34t-10.5 44t-5 60.5q0 16 1 25q-26 -38 -58 -71.5t-81 -71t-115.5 -59.5t-141.5 -22q-115 0 -185 98.5t-70 252.5q0 79 19 161q65 278 182.5 404t336.5 126q58 0 107.5 -12.5t73.5 -25.5t56 -35q6 30 10 65z" />
    <glyph glyph-name="b" unicode="b" 
d="M767 478q17 86 17 161q0 119 -45.5 176.5t-123.5 57.5q-80 0 -168 -108t-164 -316l-29 -142q39 -92 82.5 -126t141.5 -34q122 0 189.5 84.5t99.5 246.5zM920 459q-20 -103 -57.5 -186t-94.5 -147t-138 -98.5t-182 -34.5q-154 0 -238 91q-7 -31 -29 -96l-162 19
q44 125 65 236l177 914q21 109 33 246l161 9q-10 -144 -37 -260l-75 -319q140 195 288 195q145 0 226 -106t81 -287q0 -83 -18 -176z" />
    <glyph glyph-name="c" unicode="c" 
d="M242 389q0 -239 259 -239h13q107 0 179 44.5t134 122.5l116 -111q-2 -2 -17 -18t-25.5 -26t-31.5 -29.5t-41 -33t-48.5 -31.5t-59 -29.5t-66.5 -23t-78.5 -17t-87.5 -5.5q-180 0 -295.5 99t-115.5 250q0 85 22 205q46 241 197.5 356t388.5 115q127 0 201 -61.5t99 -167.5
l-156 -53q-6 28 -15 48.5t-28.5 40t-54.5 30t-85 10.5q-161 0 -258.5 -82.5t-128.5 -243.5q-17 -93 -17 -150z" />
    <glyph glyph-name="d" unicode="d" 
d="M206 514q-25 -93 -25 -168q0 -94 36 -148t96 -54q65 0 124.5 33.5t102.5 81.5t82.5 115t62.5 121t44 113l45 196q-36 25 -60 39.5t-71.5 30.5t-95.5 16q-138 0 -211.5 -86t-129.5 -290zM1044 1388l-195 -1032q-19 -96 -19 -142q0 -36 11.5 -56.5t40.5 -48.5l-106 -119
q-1 1 -12.5 11t-13.5 12.5t-12.5 12.5t-14 14.5t-12 16t-11.5 18.5t-8.5 19.5t-7.5 23.5t-4 25.5t-2 29.5q0 16 1 25q-25 -36 -57.5 -68.5t-81 -65.5t-115 -52.5t-141.5 -19.5q-115 0 -185 98.5t-70 252.5q0 79 19 161q65 278 182.5 404t336.5 126q58 0 107.5 -12.5
t73.5 -25.5t56 -35q5 22 44.5 230t40.5 221z" />
    <glyph glyph-name="e" unicode="e" 
d="M262 492q68 5 105.5 8.5t109.5 13t127.5 26.5t95.5 41q111 67 111 154q0 58 -54.5 96t-152.5 38q-129 0 -217.5 -95.5t-124.5 -281.5zM632 1021q153 0 239 -82.5t86 -198.5q0 -78 -42 -151t-121 -122q-70 -43 -183 -71.5t-188 -37.5t-177 -17v-11q0 -24 5.5 -47.5
t21 -49.5t40.5 -45t67.5 -32t98.5 -13q205 0 327 135l102 -109q-1 -1 -19 -18t-26.5 -23.5t-31 -24.5t-41 -27.5t-47.5 -25t-59.5 -24.5t-67.5 -18.5t-80.5 -13.5t-90.5 -4q-179 0 -269 96.5t-90 269.5q0 72 17 160q44 223 184 364t345 141z" />
    <glyph glyph-name="f" unicode="f" 
d="M1111 1194q-73 46 -160 59t-212 13q-43 0 -75 -12t-51.5 -29t-34 -46.5t-21 -54.5t-14.5 -64l-8 -39q33 0 130.5 -0.5t134.5 -0.5q104 -3 157 -20l-40 -147q-40 14 -106 14h-305q-155 -823 -166 -867h-157q83 414 166 867h-131l6 153h155q1 5 3.5 19t4.5 25
q10 51 23 92.5t41.5 93t66.5 86t101 58.5t142 24q290 0 435 -85z" />
    <glyph glyph-name="g" unicode="g" 
d="M243 514q-25 -93 -25 -168q0 -94 36 -148t96 -54q65 0 124.5 33.5t102.5 81.5t82.5 115t62.5 121t44 113l45 196q-36 25 -60 39.5t-71.5 30.5t-95.5 16q-138 0 -211.5 -86t-129.5 -290zM1006 1002l-120 -646q-46 -244 -91 -370q-140 -388 -441 -388q-185 0 -429 145
l76 150q201 -140 347 -140q46 0 87 15.5t71 37t58 60t45 67.5t36 77.5t27 72.5t21.5 70t15.5 54q-148 -215 -388 -215q-115 0 -185 98.5t-70 252.5q0 79 19 161q65 278 182.5 404t336.5 126q58 0 107.5 -12.5t73.5 -25.5t56 -35q6 30 10 65z" />
    <glyph glyph-name="h" unicode="h" 
d="M755 576q26 134 26 171q0 53 -29 86.5t-89 33.5q-26 0 -58.5 -10.5t-76.5 -38t-87.5 -68.5t-91 -110t-86.5 -156l-52 -286q-17 -96 -48 -198l-156 8q30 98 49 196l232 1198h159l-111 -570q60 90 141 139t160 49q305 0 305 -245q0 -39 -17 -133q-20 -102 -73 -367
q-13 -59 -13 -78q0 -17 3.5 -30t7 -21t13.5 -15.5t15.5 -10.5t20 -9.5t20.5 -9.5l-66 -136q-73 18 -124 69.5t-51 121.5q0 33 15 104z" />
    <glyph glyph-name="i" unicode="i" 
d="M511 1406h235l-43 -225h-235zM661 1020l-147 -736q-5 -24 -5 -52q0 -108 112 -108q155 0 270 76l76 -117q-71 -50 -171.5 -75.5t-200.5 -25.5q-69 0 -118.5 19.5t-76 53.5t-38.5 72t-12 82q0 39 7 71l108 533q-31 -23 -99.5 -59.5t-119.5 -52.5l-58 144q107 45 172 83
t81.5 54.5t29.5 37.5h190z" />
    <glyph glyph-name="j" unicode="j" 
d="M758 1404l233 -3l-43 -225l-234 3zM859 748l-174 -866q-52 -269 -351 -269q-54 0 -96 7t-91 29t-90 70t-72 121l145 98q20 -47 43 -80t43 -50t45 -26t41.5 -11t40.5 -2h17q74 0 117 39.5t53 77.5l176 876q4 24 4 45q0 84 -54 85h-3q-25 0 -42 -2.5t-47 -11.5t-66 -33.5
t-79 -63.5l-97 133q112 74 176.5 100.5t159.5 26.5q63 0 106 -16.5t64.5 -47t29.5 -64t8 -78.5q0 -53 -7 -87z" />
    <glyph glyph-name="k" unicode="k" 
d="M472 538q118 -34 157 -34q88 0 139.5 72.5t51.5 170.5q0 56 -25 90.5t-71 34.5q-76 0 -167.5 -79.5t-158.5 -182t-98 -190.5q-62 -310 -82 -420h-157l239 1228q11 57 11 108q0 36 -6 74l163 17q4 -22 4 -69q0 -67 -10 -118l-93 -479q55 81 107 134t99.5 78t85 34t82.5 9
q109 0 169 -79.5t60 -199.5q0 -124 -67.5 -219.5t-213.5 -129.5q18 -14 35 -30.5t30.5 -29.5t28.5 -34t23.5 -32t22.5 -37t19 -34.5t19 -39t17.5 -37t18.5 -41t17 -39.5l-141 -63q-45 143 -136.5 258.5t-224.5 168.5z" />
    <glyph glyph-name="l" unicode="l" 
d="M648 1431l-198 -1055q-9 -48 -9 -85q0 -94 47.5 -130.5t135.5 -36.5q155 0 270 76l76 -117q-71 -50 -171.5 -75.5t-200.5 -25.5q-155 0 -236.5 81.5t-81.5 217.5q0 43 9 91l197 1072z" />
    <glyph glyph-name="m" unicode="m" 
d="M889 1026q36 0 61.5 -15.5t39 -42t19.5 -56.5t6 -66q0 -54 -11 -107l-102 -523q-1 -5 -1 -15q0 -30 22 -53.5t51 -35.5l-87 -133q-54 11 -94.5 51.5t-40.5 111.5q0 19 5 49l1 2l110 567q1 2 1.5 6.5t0.5 6.5q5 30 5 43q0 57 -49 57q-80 0 -198 -181l-134 -692h-141
l157 806q3 13 3 29q0 38 -38 38q-41 0 -97.5 -44t-117.5 -138l-134 -691h-141l155 815q13 66 13 122q0 33 -5 70l158 40q5 -20 5 -58q0 -56 -8 -112q48 62 115 105.5t120 43.5q60 0 94 -36t34 -86q0 -14 -3 -27q109 149 226 149z" />
    <glyph glyph-name="n" unicode="n" 
d="M374 856q174 174 358 174q87 0 154.5 -52.5t67.5 -139.5q0 -22 -4 -42l-114 -585q-2 -8 -2 -21q0 -8 1 -15.5t4.5 -14t6 -11.5t9.5 -11t10 -9.5t12.5 -9.5t12.5 -8.5t14.5 -9t14.5 -8.5l-106 -112q-33 18 -53 31t-43 35t-34 49.5t-11 62.5q0 18 5 45l109 561q4 17 4 37
q0 75 -86 75q-95 0 -211 -106t-184 -285l-98 -486l-158 -1l137 706q22 114 22 184q0 20 -1.5 39.5t-3.5 44t-3 41.5l170 18q3 -27 3 -84q0 -44 -3 -92z" />
    <glyph glyph-name="o" unicode="o" 
d="M621 215q104 83 150 315q1 3 2 9t2 9q12 69 12 114q0 53 -7 88.5t-26 66.5t-58.5 46t-99.5 15q-128 0 -221 -111.5t-129 -297.5q-11 -57 -11 -101q0 -55 7 -90.5t27.5 -65t60 -43t101.5 -13.5q111 1 190 59zM407 1h-2q-153 0 -242.5 88.5t-89.5 239.5q0 60 14 135
q22 115 62.5 213t101 179.5t148.5 128.5t193 47q144 0 224 -49.5t114 -151.5q18 -54 18 -136q0 -79 -15 -152q-18 -91 -43 -166.5t-67.5 -147t-98 -120.5t-136 -78.5t-179.5 -29.5h-2z" />
    <glyph glyph-name="p" unicode="p" 
d="M790 527q19 100 19 165q0 166 -113 166q-99 0 -208 -120.5t-197 -307.5l-32 -168q49 -59 73 -78q46 -36 105 -36q279 0 353 379zM196 757q1 4 2.5 12t2.5 12q21 111 27 235l168 20q0 -15 -42 -264q64 102 125 156t114.5 69.5t131.5 15.5q116 0 178.5 -86t62.5 -231
q0 -70 -15 -150q-107 -553 -558 -553q-29 0 -52 4.5t-43 14.5t-31 17t-29 22t-24 19l-45 -221q-23 -153 -31 -249l-162 6q8 120 35 248z" />
    <glyph glyph-name="q" unicode="q" 
d="M266 514q-25 -93 -25 -168q0 -94 36 -148t96 -54q53 0 115 50.5t119 132.5t104 166.5t85 170.5l38 140q-36 25 -60 39.5t-71.5 30.5t-95.5 16q-138 0 -211.5 -86t-129.5 -290zM1029 1002l-104 -498q-5 -24 -60.5 -245.5t-68.5 -310.5q-9 -63 -9 -119q0 -103 36 -201
l-156 -52q-45 120 -45 259q0 59 9 110q16 92 48.5 194.5t36.5 122.5q-3 -5 -23.5 -35t-30 -43.5t-33.5 -43t-42 -45.5t-47 -39t-57 -34.5t-64.5 -20.5t-74.5 -9q-115 0 -185 98.5t-70 252.5q0 79 19 161q65 278 182.5 404t336.5 126q58 0 107.5 -12.5t73.5 -25.5t56 -35
q6 30 10 65z" />
    <glyph glyph-name="r" unicode="r" 
d="M421 731q108 164 204.5 229t216.5 65q82 0 127.5 -45t45.5 -126q0 -53 -14 -125q0 -1 -0.5 -3t-0.5 -3h-156q12 79 12 86q0 28 -15.5 42t-53.5 14q-71 0 -179.5 -117.5t-226.5 -301.5l-90 -446l-156 1l149 763q3 14 3 27q0 73 -88 140l120 136q23 -22 38.5 -39.5
t37 -47.5t32.5 -65.5t11 -74.5q0 -13 -17 -109z" />
    <glyph glyph-name="s" unicode="s" 
d="M367 574q-100 73 -100 182q0 25 6 52q24 110 117 166t250 56q204 0 344 -58l-58 -149q-110 59 -300 59q-91 0 -141 -35t-50 -81q0 -34 28 -58q39 -33 93 -68t97 -60t88.5 -56.5t76 -61t50 -70t19.5 -86.5q0 -22 -5 -50q-13 -65 -43.5 -113.5t-72 -79t-98.5 -49.5
t-115.5 -26.5t-129.5 -7.5q-150 0 -251 78.5t-101 208.5q0 30 6 63l157 -1q-3 -18 -3 -34q0 -79 66.5 -125.5t150.5 -46.5q100 0 175.5 40.5t90.5 118.5q1 4 1 13q0 43 -51 86t-152.5 102.5t-144.5 90.5z" />
    <glyph glyph-name="t" unicode="t" 
d="M377 474l-7 -40q-10 -49 -10 -92q0 -193 208 -193q179 0 261 145l121 -93q-20 -35 -50.5 -68t-78.5 -66t-121 -53t-160 -20q-152 0 -247 83t-95 241q0 51 12 113l8 43q11 46 37 166.5t50 224.5h-79q-42 0 -84 -11l-19 146q35 12 132 12h80q7 35 23 117t23 117l158 -1
q-21 -106 -46 -228h122l299 2h18l-29 -147h-316q-23 0 -60 -1.5t-60 -1.5q-29 -122 -59 -256.5t-31 -138.5z" />
    <glyph glyph-name="u" unicode="u" 
d="M808 -10q-3 2 -25 19t-31 27t-24 31.5t-21.5 50t-6.5 64.5q0 47 15 116q-74 -136 -176.5 -216.5t-213.5 -81.5q-101 0 -173.5 62.5t-72.5 162.5q0 22 5 50q18 98 56 260t63 278.5t25 163.5q0 12 -1 17l165 27v-10q0 -43 -19.5 -135.5t-57 -260t-64.5 -309.5
q-5 -30 -5 -52q0 -99 88 -99q59 0 123.5 50t122 131.5t105.5 171t86 183.5l69 337l158 -22l-151 -767q-2 -16 -2 -22q0 -16 3.5 -29.5t12.5 -26t14.5 -19t20 -19.5t17.5 -16z" />
    <glyph glyph-name="v" unicode="v" 
d="M274 1048q41 -56 55 -88t22 -89q3 -16 23 -131.5t34 -200t27.5 -184.5t13.5 -145q0 -4 -0.5 -10t-0.5 -8q169 159 290 375.5t134 443.5l157 4q0 -127 -43 -265t-114.5 -261t-151.5 -227t-167 -191q-48 -48 -106.5 -61t-155.5 -13q5 28 5 69q0 132 -36.5 378.5
t-67.5 394.5q-3 16 -23 55.5t-35 57.5z" />
    <glyph glyph-name="w" unicode="w" 
d="M122 1006l158 36q34 -98 34 -247q-1 -363 -61 -602q163 150 268 351q6 44 6 103q0 76 -8 148l128 2q16 -182 16 -377q0 -136 -10 -273q94 113 134 181q122 201 122 449q0 53 -17 114.5t-41 104.5l154 52q58 -115 58 -270q0 -421 -401 -787q-6 0 -79 7.5t-78 7.5
q1 9 6.5 40t6.5 41t5 36.5t5 43.5t3 44.5t3 56.5t1 63q-41 -60 -107.5 -131.5t-214.5 -220.5q-4 1 -34.5 12.5t-55 19t-36.5 8.5q24 130 47.5 347.5t23.5 370.5q0 67 -10.5 147.5t-25.5 121.5z" />
    <glyph glyph-name="x" unicode="x" 
d="M953 863q-167 -212 -321 -375q23 -41 63.5 -122.5t69.5 -138t36 -62.5q9 -9 52 -9q19 0 53 6l-29 -154q-35 -5 -63 -5q-63 0 -113 40q-28 21 -58.5 71.5t-75.5 145.5t-57 119q-65 -67 -139.5 -141.5t-125.5 -123.5t-92.5 -89t-44.5 -43l-114 117q4 4 71 68t176.5 168.5
t192.5 185.5q-16 31 -63 125t-91 178t-88 162l149 75q53 -98 123.5 -246.5t87.5 -181.5q107 104 254 297q31 40 51 89l174 1q-34 -103 -78 -157z" />
    <glyph glyph-name="y" unicode="y" 
d="M-2 -110q28 -36 79.5 -74.5t99.5 -38.5q34 0 68.5 21t67 60.5t52 68.5t46.5 73q-12 127 -32 262t-48.5 273.5t-68.5 229.5t-83 97q-2 0 -5.5 0.5t-5.5 0.5q-32 0 -40 -8l-13 168q48 6 77 6q34 0 71 -9q56 -14 106 -103.5t84.5 -222t57.5 -259.5t37 -252q85 163 190.5 423
t160.5 436l152 -42q-232 -676 -453 -1027q-118 -187 -218.5 -268t-219.5 -81q-82 0 -153 47t-114 101z" />
    <glyph glyph-name="z" unicode="z" 
d="M289 801l-94 124q71 60 137.5 77.5t160.5 17.5h299q148 0 217 10l66 -144q-86 -97 -176.5 -182.5t-144.5 -129.5t-176 -142q-149 -118 -265 -217q81 0 181 -32.5t135 -32.5q71 0 113.5 42.5t50.5 107.5l152 -28q-6 -51 -27 -98t-57 -88t-93 -66t-127 -25q-71 0 -177 33
t-177 33q-19 0 -37.5 -2.5t-31 -4t-30 -9.5t-24.5 -10.5t-27 -15t-23 -15t-27 -19.5t-27 -19l-93 128q42 40 81 77t78 71.5t69 61.5t68 59.5t59.5 50.5t60.5 50t53 43.5t55 44.5t50 40q189 152 317 275q-39 -3 -81 -3q-49 0 -149 -0.5t-147 -0.5q-59 0 -105 -11.5t-87 -50.5
z" />
    <glyph glyph-name="braceleft" unicode="{" 
d="M312 530l31 160q48 13 78 22t71 27.5t66 38t46 51t29 70.5q4 19 4 44q0 23 -5 60q-18 106 -18 149q0 34 5 59q16 82 84 147q41 39 89.5 64t105 37.5t99 17t105.5 7.5l-25 -158q-139 -7 -184 -19q-90 -25 -106 -105q-5 -25 -5 -60q0 -28 6 -87t6 -91q0 -41 -6 -71
q-21 -107 -96 -185.5t-156 -97.5q62 -16 105 -76t43 -145q0 -31 -6 -62q-11 -60 -61.5 -160.5t-60.5 -148.5q-3 -15 -3 -27q0 -25 12.5 -42t29.5 -26t50.5 -15t58.5 -7.5t71 -3.5q16 -1 24 -1l-36 -158q-63 3 -103 7t-92.5 16t-91 37.5t-64.5 63.5q-31 46 -31 102q0 20 5 45
q13 68 93 208q32 58 41 104q4 26 4 35q0 31 -13 56t-31 42t-49.5 32.5t-56 23.5t-62.5 20z" />
    <glyph glyph-name="bar" unicode="|" 
d="M345 152q37 192 122 652.5t111 594.5l18 93h160l-28 -145q-26 -132 -99 -541t-107 -582l-30 -150q-32 -166 -58 -272l-161 1q18 69 36 160q0 1 13 69t23 120z" />
    <glyph glyph-name="braceright" unicode="}" 
d="M784 530q-48 -13 -78 -22t-71 -27.5t-66 -38t-46 -51t-29 -70.5q-4 -19 -4 -44q0 -23 5 -60q18 -106 18 -149q0 -34 -5 -59q-16 -82 -84 -147q-41 -38 -89 -63.5t-105.5 -37.5t-99 -16t-105.5 -7l26 158q137 7 178 16q90 22 109 98l2 8q6 32 6 61q0 28 -6.5 85.5
t-6.5 89.5q0 38 7 73q21 107 96 185.5t156 97.5q-62 16 -105 76t-43 145q0 30 6 62q11 60 61 160.5t60 148.5q3 15 3 27q0 31 -15 50t-55.5 28.5t-66 12t-91.5 5.5q-11 1 -17 1l35 158q62 -3 103 -7.5t93 -17t90.5 -37.5t64.5 -64q31 -46 31 -102q0 -20 -5 -45
q-13 -68 -93 -208q-32 -58 -41 -104q-4 -26 -4 -35q0 -31 13 -56t31 -42t49.5 -32.5t56 -23.5t62.5 -20z" />
    <glyph glyph-name="tilde" unicode="~" 
d="M446 766q50 0 87.5 -20t59.5 -49t41 -58t42.5 -49t52.5 -20q59 0 121.5 64.5t87.5 124.5l132 -61q-15 -34 -32 -64t-51 -72t-72.5 -72t-96.5 -51.5t-123 -21.5q-45 0 -80.5 20t-59 48.5t-45 57.5t-47.5 49t-57 20q-58 0 -131 -55.5t-127 -128.5l-112 91q41 57 77 96.5
t85 76.5t111 55.5t137 18.5z" />
    <glyph glyph-name="uni00A0" unicode="&#xa0;" 
 />
    <glyph glyph-name="exclamdown" unicode="&#xa1;" 
d="M215.377 -298.867l192.434 885.489l166.006 1.55371l-160.439 -887.575zM647.259 748.98l-250 0.670898l52.7412 269.86l250 -0.670898z" />
    <glyph glyph-name="cent" unicode="&#xa2;" 
d="M486 284h2q66 0 123.5 20.5t83.5 49.5l14 16l121 -83l-15 -16q-101 -116 -282 -136l-28 -144h-160l29 148q-80 16 -130 55q-93 72 -93 196q0 43 11 100l2 11q31 159 128 252q94 88 223 112l33 168h162l-32 -166q159 -24 183 -172l-169 -57v23q-1 37 -25.5 48t-88.5 11
q-110 0 -174 -63q-58 -55 -75 -143q-7 -34 -7 -69q0 -75 36.5 -118.5t110.5 -43.5q3 0 8.5 0.5t8.5 0.5z" />
    <glyph glyph-name="sterling" unicode="&#xa3;" 
d="M269 186q-13 14 -30.5 44.5t-27.5 38.5q-9 -6 -20.5 -26.5t-15.5 -41.5q0 -1 -0.5 -3t-0.5 -3q-2 -16 -2 -22q0 -34 22 -34q28 0 75 47zM920 691q-76 -9 -256 -9h-117q0 -182 -21 -297q-15 -77 -49 -155q71 -52 113.5 -72.5t104.5 -20.5q66 0 83.5 14t27.5 63l3 15l156 2
l-8 -41q-22 -101 -90.5 -153t-175.5 -53q-155 0 -306 111q-46 -50 -111 -79t-130 -29q-61 0 -94.5 41.5t-33.5 108.5q0 27 6 55q32 160 146 220q25 12 53 12h9q27 0 54 -17t41 -32.5t32 -40.5q6 22 14 63q18 93 18 241v47q-52 2 -141 2h-17l29 152h129q2 132 16 204
q30 152 123.5 230t237.5 78q105 0 160.5 -65.5t60.5 -167.5l-155 -43q-2 27 -5.5 45.5t-13 37.5t-29 29t-48.5 11h-6q-137 0 -166 -147q-11 -61 -16 -217l148 3h57q131 0 197 7z" />
    <glyph glyph-name="currency" unicode="&#xa4;" 
d="M713 522q7 36 7 72q0 66 -27.5 105.5t-76.5 43.5l-15 -2q-155 -16 -206 -279q-10 -53 -10 -85q0 -122 119 -122q78 0 131.5 73t77.5 194zM230 461l1 7q23 121 89 229l-111 152l140 106l92 -127q80 69 185 73h17q61 0 101 -16t72 -52l134 113l94 -99l-166 -150
q8 -35 8 -79q0 -41 -10 -98q-30 -141 -97 -236l115 -155l-139 -106l-98 136q-91 -61 -189 -61q-104 1 -172 69l-149 -124l-87 99l163 157q-5 25 -5 57q0 42 12 105z" />
    <glyph glyph-name="yen" unicode="&#xa5;" 
d="M401 374h-112q-118 0 -214 -5l31 162h17q217 7 313 7l14 75q-6 12 -26 59q-74 1 -286 14l13 64q11 60 20 94q89 -5 189 -9q-109 295 -153 448l154 72q16 -55 76.5 -229t106.5 -293h74q99 120 231 297t170 238l123 -80q-163 -237 -305 -413q-5 -6 -15.5 -18t-15.5 -18
q87 3 195 3h18l-31 -159h-18q-45 0 -301 -8q-16 -19 -36 -43.5t-25 -29.5q-3 -17 -14 -65q56 -1 167.5 -3.5t174.5 -3.5h17l-34 -162h-18q-27 0 -150 2.5t-191 3.5q-41 -198 -51 -246l-26 -134h-160l29 149q19 91 49 231z" />
    <glyph glyph-name="brokenbar" unicode="&#xa6;" 
d="M581 528q-42 -235 -69 -373q-42 -214 -75 -350l-161 1q24 98 37 165l29 147q38 198 76 410h163zM464 775q89 494 114 624l18 93h160l-24 -126q-13 -66 -28.5 -154t-38 -216t-39.5 -221h-162z" />
    <glyph glyph-name="section" unicode="&#xa7;" 
d="M666 319q37 14 50.5 29.5t19.5 43.5l4 17v5q0 33 -25 61q-49 55 -171.5 146t-134.5 101q-47 -18 -61 -34.5t-21 -50.5q-1 -3 -1 -8q0 -29 29 -60q37 -41 89.5 -83.5t121 -91.5t100.5 -75zM290 1040q15 78 57.5 142.5t98.5 104t118 60.5t121 21q118 0 190.5 -58.5
t72.5 -167.5q0 -28 -6 -61l-151 -1q3 22 3 37q0 22 -7 35.5t-24 30.5q-33 30 -108 30q-71 -2 -131.5 -45t-74.5 -113q-6 -33 -6 -57q0 -16 2 -28.5t10 -25.5t12.5 -21t20.5 -22.5t23 -20.5t32 -25.5t35 -27.5q13 -10 79 -59t109.5 -88t79.5 -86q60 -72 60 -152q0 -11 -4 -37
q-14 -75 -47.5 -121.5t-92.5 -85.5q26 -52 26 -122q0 -32 -6 -70q0 -2 -1 -5t-1 -4q-20 -104 -88.5 -179t-150 -107.5t-163.5 -32.5q-121 0 -194 59t-73 170q0 29 6 62l155 1q0 -5 -0.5 -14t-0.5 -13q0 -30 6.5 -46.5t23.5 -31.5q35 -32 107 -32q75 2 135.5 43.5t74.5 114.5
q5 27 5 54v10q-4 68 -135 165q-13 9 -51 36t-59.5 43t-54 42t-59 53t-49.5 56q-49 66 -49 145q0 25 4 46q14 72 48.5 116t95.5 84q-29 56 -29 138q0 36 5 61z" />
    <glyph glyph-name="dieresis" unicode="&#xa8;" 
d="M320 1315l234 -3l-44 -225l-234 3zM725 1312l234 -3l-43 -225l-235 3z" />
    <glyph glyph-name="copyright" unicode="&#xa9;" 
d="M188 507q0 -146 83 -237t232 -91q88 0 170.5 32.5t149 93.5t107 159t40.5 219q0 157 -78 240.5t-228 83.5q-85 0 -170.5 -39t-153 -104.5t-110 -159.5t-42.5 -197zM687 1146q199 0 313 -119t114 -323q0 -132 -37 -243t-99.5 -187.5t-145.5 -130.5t-174 -79t-186 -25
q-188 0 -307.5 125t-119.5 316q0 150 56.5 278t148.5 211.5t206 130t231 46.5zM620 746q-63 0 -109.5 -58.5t-46.5 -140.5q0 -63 16.5 -87.5t78.5 -24.5q45 0 75 14t58 55l110 -68q-104 -138 -271 -138q-94 0 -153.5 58.5t-59.5 148.5q0 176 97 277t235 101q39 0 78 -13
t74 -44t47 -74l-126 -69q-15 36 -36 49.5t-67 13.5z" />
    <glyph glyph-name="ordfeminine" unicode="&#xaa;" 
d="M502 887q105 0 207 102.5t125 220.5l14 79q-22 41 -66.5 73.5t-105.5 32.5q-73 0 -115.5 -21.5t-75.5 -80.5t-63 -175q-17 -70 -17 -114q0 -117 97 -117zM1034 1513l-83 -425q-11 -56 -11 -114q0 -36 11.5 -56.5t41.5 -48.5l-106 -119q-61 55 -83 145q-6 -6 -16.5 -15.5
t-44 -34t-68 -43.5t-85.5 -34.5t-99 -15.5q-125 0 -176.5 59t-51.5 165q0 84 24 174q28 101 59.5 169.5t77.5 119.5t109 74.5t149 23.5q60 0 112.5 -22t80.5 -53q7 34 11 70zM198 675h756l-27 -141h-756z" />
    <glyph glyph-name="guillemotleft" unicode="&#xab;" 
d="M458 576q120 73 226.5 186t157.5 216l132 -74q-124 -234 -347 -405q158 -166 178 -372l3 -18l-162 -46q-12 123 -62.5 215t-150.5 172zM108 574q16 12 63 48t66 51t60 47.5t61 51.5t50.5 49t47.5 52.5t34 49.5t26 53l139 -54q-22 -55 -56.5 -107t-68 -90.5t-84 -83.5
t-84.5 -71.5t-90 -68.5q49 -55 77 -90t61 -87t50 -106t21 -116l-158 -47q-6 102 -63 189.5t-175 214.5z" />
    <glyph glyph-name="logicalnot" unicode="&#xac;" 
d="M187 592q157 8 351 8h119q59 0 273 -2h19q-14 -70 -41 -212t-41 -212h-154l52 270q-179 4 -259 4q-170 0 -343 -9l17 84z" />
    <glyph glyph-name="uni00AD" unicode="&#xad;" 
d="M187 592q157 8 351 8h119q59 0 273 -2h18l-30 -153h-18q-134 3 -394 3q-170 0 -343 -9l17 84z" />
    <glyph glyph-name="registered" unicode="&#xae;" 
d="M654 519q12 -41 59 -101t73 -67l-74 -85q-39 15 -79.5 65t-64.5 98t-31 77q-13 2 -30.5 6.5t-28.5 7.5l-10 4l-46 -241h-115l88 453q13 71 23 140q140 22 219 22q99 0 153 -42t54 -124q0 -86 -53 -142.5t-137 -70.5zM721 708q0 40 -23 52.5t-84 12.5q-47 0 -100 -8
l-23 -120q61 -30 112 -30q58 0 88 26.5t30 66.5zM188 507q0 -146 83 -237t232 -91q88 0 170.5 32.5t149 93.5t107 159t40.5 219q0 157 -78 240.5t-228 83.5q-85 0 -170.5 -39t-153 -104.5t-110 -159.5t-42.5 -197zM687 1146q199 0 313 -119t114 -323q0 -132 -37 -243
t-99.5 -187.5t-145.5 -130.5t-174 -79t-186 -25q-188 0 -307.5 125t-119.5 316q0 150 56.5 278t148.5 211.5t206 130t231 46.5z" />
    <glyph glyph-name="macron" unicode="&#xaf;" 
d="M413 1340q44 -5 124 -5q22 0 72.5 0.5t76.5 0.5h180l-29 -152h-17q-58 -2 -202 -2h-81q-106 0 -154 3z" />
    <glyph glyph-name="degree" unicode="&#xb0;" 
d="M335 1096q21 107 111.5 182.5t196.5 75.5q93 0 153 -59.5t60 -149.5q0 -21 -5 -49q-21 -107 -111.5 -182.5t-196.5 -75.5q-93 0 -153 59.5t-60 149.5q0 21 5 49zM485 1096q-2 -14 -2 -21q0 -38 25 -62.5t64 -24.5q45 0 82.5 31.5t46.5 76.5q2 14 2 21q0 38 -25 62.5
t-64 24.5q-45 0 -82.5 -31.5t-46.5 -76.5z" />
    <glyph glyph-name="plusminus" unicode="&#xb1;" 
d="M167 822q188 -11 342 -11l72 361l160 -1l-73 -361q55 1 146 5t198 4h17l-29 -150h-17q-83 0 -130.5 -1.5t-101.5 -4.5t-112 -5l-2 -11q-7 -37 -29 -145t-32 -159q81 -1 170 -3.5t172 -4.5l17 -1l-29 -150l-17 1q-485 7 -501 7q-127 0 -320 -6h-18l29 150h17
q61 1 122.5 3.5t102.5 3.5t95 1q10 52 31.5 158t29.5 147l2 10q-112 0 -341 13z" />
    <glyph glyph-name="uni00B2" unicode="&#xb2;" 
d="M417 1314q76 213 341 213q105 0 171.5 -54t66.5 -157q0 -61 -25.5 -104t-91.5 -87.5t-197 -106.5q-54 -26 -78 -38t-54 -32t-41 -37l420 5l-29 -147h-598q2 11 17 95q14 68 56 120q7 8 16.5 17t19 16t24.5 16.5t25 15.5t29 16t28 14.5t31 15t29.5 14t30.5 14t28 12.5
q138 62 176 93t38 80q0 77 -117 77q-136 0 -176 -106z" />
    <glyph glyph-name="uni00B3" unicode="&#xb3;" 
d="M425 987q36 -50 77 -71t109 -21q92 0 137 35t45 84q0 92 -182 92l28 115q30 -2 41 -2q62 0 101.5 30.5t39.5 82.5q0 28 -28.5 45.5t-80.5 17.5q-92 0 -152 -50l-74 115q102 70 244 70h11q99 0 157.5 -52.5t58.5 -130.5q0 -63 -22 -98t-73 -71q44 -26 62.5 -61.5
t18.5 -103.5q0 -108 -98 -182.5t-261 -74.5q-191 0 -285 130z" />
    <glyph glyph-name="acute" unicode="&#xb4;" 
d="M411 1353q100 30 246 125.5t250 185.5l117 -150q-85 -80 -262 -179.5t-288 -131.5z" />
    <glyph glyph-name="uni00B5" unicode="&#xb5;" 
d="M808 -10q-3 2 -25 19t-31 27t-24 31.5t-21.5 50t-6.5 64.5q0 47 15 116q-74 -136 -176.5 -216.5t-213.5 -81.5q-70 0 -131 33l-89 -433h-157l125 614l11 61q18 98 56 260t63 278.5t25 163.5q0 12 -1 17l165 27v-10q0 -43 -19.5 -135.5t-57 -260t-64.5 -309.5
q-5 -30 -5 -52q0 -99 88 -99q59 0 123.5 50t122 131.5t105.5 171t86 183.5l69 337l158 -22l-151 -767q-2 -16 -2 -22q0 -16 3.5 -29.5t12.5 -26t14.5 -19t20 -19.5t17.5 -16z" />
    <glyph glyph-name="paragraph" unicode="&#xb6;" 
d="M882 1041l25 128q-17 0 -60.5 2t-72.5 3q-21 -110 -60 -312t-70.5 -367t-58.5 -311q-12 -62 -33 -115.5t-36 -76.5l-15 -22l-144 52q6 7 16 21.5t32 68t34 117.5l45 244q-131 9 -210.5 47t-120.5 121q-29 61 -29 139q0 55 17 144q32 162 121 250q51 51 110 83t132 47
t137.5 19.5t161.5 4.5q68 0 149.5 -4t138.5 -4l-259 -1329l-152 -1q31 161 94 491t108 560z" />
    <glyph glyph-name="periodcentered" unicode="&#xb7;" 
d="M457.983 656h251l-51.9834 -269h-251z" />
    <glyph glyph-name="cedilla" unicode="&#xb8;" 
d="M562 56q-2 -5 -9 -39.5t-7 -35.5q61 -3 94 -35.5t33 -90.5q0 -18 -5 -45q-14 -72 -81.5 -120t-135.5 -48q-99 0 -182 61l59 106q2 -1 9 -5.5t10 -6t9.5 -5.5t10.5 -5.5t11 -5t12 -5t12 -3.5t13.5 -3t14 -2t14.5 -1q30 0 57 15.5t34 42.5v2q0 1 0.5 3.5t0.5 3.5
q0 20 -21.5 33.5t-54.5 13.5q-17 0 -29 -1.5t-17.5 -3t-16.5 -6t-18 -6.5l36 188z" />
    <glyph glyph-name="uni00B9" unicode="&#xb9;" 
d="M768 1527l167 -16l-145 -742h-145l110 556q-64 -58 -160 -109t-199 -83l-31 132q117 30 223.5 97.5t179.5 164.5z" />
    <glyph glyph-name="ordmasculine" unicode="&#xba;" 
d="M876 1168q8 45 8 75q0 74 -41.5 107.5t-129.5 33.5q-98 0 -167.5 -57t-92.5 -174q-10 -53 -10 -90q0 -87 37 -125t123 -38q113 0 179.5 63.5t93.5 204.5zM573 758q-128 0 -202 70.5t-74 195.5q0 59 13 124q38 193 143.5 285.5t253.5 92.5q157 0 240.5 -65.5t83.5 -185.5
q0 -39 -10 -94q-43 -225 -145.5 -324t-302.5 -99zM198 675h756l-27 -141h-756z" />
    <glyph glyph-name="guillemotright" unicode="&#xbb;" 
d="M644.676 452.254q-119.407 -73.9814 -224.99 -187.853t-155.746 -217.288l-132.602 72.9209q122.101 235.014 343.713 407.838q-159.348 164.708 -181.02 370.544l-3.14648 17.9756l161.627 47.3252q12.998 -122.902 64.2451 -214.489t151.896 -170.769zM994.659 457.117
q-15.9023 -12.1309 -62.6104 -48.5156q-46.707 -36.3848 -65.5859 -51.54q-18.8779 -15.1553 -59.6143 -47.9902q-40.7363 -32.8359 -60.582 -51.999q-19.8457 -19.1641 -50.1016 -49.4131q-30.2568 -30.25 -47.0742 -52.8887t-33.5986 -49.7783
q-16.7803 -27.1387 -25.5693 -53.2129l-139.438 52.8633q21.5537 55.1807 55.6318 107.463q34.0771 52.2812 67.2646 91.0557t83.3223 84.1875t83.9199 72.1904q33.7852 26.7783 89.4443 69.2363q-49.4473 54.5996 -77.7314 89.3701q-28.2832 34.7715 -61.7061 86.501
q-33.4219 51.7305 -50.8604 105.592q-17.4385 53.8604 -21.9414 115.828l157.618 48.292q6.82812 -101.951 64.5381 -188.985q57.7109 -87.0332 176.741 -213.068z" />
    <glyph glyph-name="onequarter" unicode="&#xbc;" 
d="M162 675h893l-27 -141h-893zM612 -24l54 266q-113 -122 -273 -266h219zM227 -16q289 262 462 453h149l-88 -454l128 3l-29 -148l-127 3l-27 -157h-148l33 157h-329zM768 1527l167 -16l-145 -742h-145l110 556q-64 -58 -160 -109t-199 -83l-31 132q117 30 223.5 97.5
t179.5 164.5z" />
    <glyph glyph-name="onehalf" unicode="&#xbd;" 
d="M162 675h893l-27 -141h-893zM307 234q76 213 341 213q105 0 171.5 -54t66.5 -157q0 -61 -25.5 -104t-91.5 -87.5t-197 -106.5q-54 -26 -78 -38t-54 -32t-41 -37l420 5l-29 -147h-598q2 11 17 95q14 68 56 120q7 8 16.5 17t19 16t24.5 16.5t25 15.5t29 16t28 14.5t31 15
t29.5 14t30.5 14t28 12.5q138 62 176 93t38 80q0 77 -117 77q-136 0 -176 -106zM768 1527l167 -16l-145 -742h-145l110 556q-64 -58 -160 -109t-199 -83l-31 132q117 30 223.5 97.5t179.5 164.5z" />
    <glyph glyph-name="threequarters" unicode="&#xbe;" 
d="M162 675h893l-27 -141h-893zM612 -24l54 266q-113 -122 -273 -266h219zM227 -16q289 262 462 453h149l-88 -454l128 3l-29 -148l-127 3l-27 -157h-148l33 157h-329zM425 987q36 -50 77 -71t109 -21q92 0 137 35t45 84q0 92 -182 92l28 115q30 -2 41 -2q62 0 101.5 30.5
t39.5 82.5q0 28 -28.5 45.5t-80.5 17.5q-92 0 -152 -50l-74 115q102 70 244 70h11q99 0 157.5 -52.5t58.5 -130.5q0 -63 -22 -98t-73 -71q44 -26 62.5 -61.5t18.5 -103.5q0 -108 -98 -182.5t-261 -74.5q-191 0 -285 130z" />
    <glyph glyph-name="questiondown" unicode="&#xbf;" 
d="M866 -126.009q-158 -190.01 -476 -190.029q-147 -0.00878906 -250 70.9844q-103 70.9941 -103 176.994q0 46 9.5 89.001q9.5 43 21.5 75.001t36.5 65.502q24.5 33.502 42 54.5029t50 48.5029t49 40.5029t50.5 37.0029q7 5.00098 11 8.00098q126 91.0078 146 193.009
l9 46.001l175 0.00976562l-8 -44q-16 -85.001 -62.5 -148.504t-126.5 -123.508q-14 -11.001 -47 -35.5029t-46 -34.5029q-13 -10 -38.5 -31.502t-36.5 -34.002q-11 -12.501 -27.5 -33.502t-23.5 -38.502q-7 -17.5 -12.5 -40.5q-5.5 -23.001 -5.5 -48.001q0 -60 69 -98.9951
q69 -38.9961 156 -38.9912q31 0.00195312 48.5 1.00293q17.5 1.00195 49.5 5.00391t58 14.5029q26 10.502 59.5 27.0039t69 45.5039t73.5 68.0049zM703 749.981l-250 -0.015625l52 270.003l250 0.015625z" />
    <glyph glyph-name="Agrave" unicode="&#xc0;" 
d="M1012 1442l-107 -123q-96 67 -214.5 195.5t-172.5 230.5l160 104q71 -121 160 -234.5t174 -172.5zM739 495l-80 587l-304 -607q46 10 203 17zM800 0l-50 332q-10 0 -49.5 -1t-56 -1.5t-55.5 -1.5t-60.5 -2t-56.5 -2.5t-58.5 -4t-51.5 -5t-50.5 -6.5t-41.5 -8l-93 -179
q-39 -71 -48 -121h-162q4 20 25 72.5t38 86.5l582 1142h171l186 -1301h-169z" />
    <glyph glyph-name="Aacute" unicode="&#xc1;" 
d="M424 1480q100 30 246 125.5t250 185.5l117 -150q-85 -80 -262 -179.5t-288 -131.5zM739 495l-80 587l-304 -607q46 10 203 17zM800 0l-50 332q-10 0 -49.5 -1t-56 -1.5t-55.5 -1.5t-60.5 -2t-56.5 -2.5t-58.5 -4t-51.5 -5t-50.5 -6.5t-41.5 -8l-93 -179q-39 -71 -48 -121
h-162q4 20 25 72.5t38 86.5l582 1142h171l186 -1301h-169z" />
    <glyph glyph-name="Acircumflex" unicode="&#xc2;" 
d="M779 1747l293 -327l-117 -102l-204 231l-339 -236l-87 122zM739 495l-80 587l-304 -607q46 10 203 17zM800 0l-50 332q-10 0 -49.5 -1t-56 -1.5t-55.5 -1.5t-60.5 -2t-56.5 -2.5t-58.5 -4t-51.5 -5t-50.5 -6.5t-41.5 -8l-93 -179q-39 -71 -48 -121h-162q4 20 25 72.5
t38 86.5l582 1142h171l186 -1301h-169z" />
    <glyph glyph-name="Atilde" unicode="&#xc3;" 
d="M627 1642q38 0 71 -13.5t56.5 -32t45 -37.5t45.5 -32.5t49 -13.5q127 0 172 127l153 -58q-45 -97 -127.5 -159.5t-190.5 -62.5q-45 0 -82 13.5t-61.5 32t-45 37.5t-42.5 32.5t-45 13.5q-62 0 -106 -29.5t-86 -105.5l-150 75q76 118 157 165.5t187 47.5zM739 495l-80 587
l-304 -607q46 10 203 17zM800 0l-50 332q-10 0 -49.5 -1t-56 -1.5t-55.5 -1.5t-60.5 -2t-56.5 -2.5t-58.5 -4t-51.5 -5t-50.5 -6.5t-41.5 -8l-93 -179q-39 -71 -48 -121h-162q4 20 25 72.5t38 86.5l582 1142h171l186 -1301h-169z" />
    <glyph glyph-name="Adieresis" unicode="&#xc4;" 
d="M444 1607l234 -3l-44 -225l-234 3zM849 1604l234 -3l-43 -225l-235 3zM739 495l-80 587l-304 -607q46 10 203 17zM800 0l-50 332q-10 0 -49.5 -1t-56 -1.5t-55.5 -1.5t-60.5 -2t-56.5 -2.5t-58.5 -4t-51.5 -5t-50.5 -6.5t-41.5 -8l-93 -179q-39 -71 -48 -121h-162
q4 20 25 72.5t38 86.5l582 1142h171l186 -1301h-169z" />
    <glyph glyph-name="Aring" unicode="&#xc5;" 
d="M739 495l-80 587l-304 -607q46 10 203 17zM654 1452q-1 -3 -1 -10q0 -25 20.5 -43.5t53.5 -18.5q37 0 65 22t34 50q1 4 1 11q0 24 -19.5 41t-53.5 17q-38 0 -66.5 -21t-33.5 -48zM524 1450q16 82 91.5 138.5t163.5 56.5q78 0 129.5 -45.5t51.5 -114.5q0 -17 -3 -35
q-13 -61 -59.5 -110t-109.5 -71l181 -1269h-169l-50 332q-10 0 -49.5 -1t-56 -1.5t-55.5 -1.5t-60.5 -2t-56.5 -2.5t-58.5 -4t-51.5 -5t-50.5 -6.5t-41.5 -8l-93 -179q-39 -71 -48 -121h-162q4 20 25 72.5t38 86.5l571 1121q-80 46 -80 136q0 16 3 34z" />
    <glyph glyph-name="AE" unicode="&#xc6;" 
d="M478 347q-72 -2 -133 -8.5t-85 -11.5l-25 -5l-90 -201q-45 -104 -48 -121h-162q9 44 63 159l533 1134q62 2 270 2q86 0 190.5 -0.5t145.5 -0.5l-30 -150h-405l-37 -328h300l-30 -150h-281l-58 -519l244 2q25 0 55.5 6.5t48.5 12.5l18 7l15 -148q-11 -3 -35 -10
t-37.5 -10.5t-37.5 -6.5t-49 -3h-6l-378 3zM495 490l67 604l-264 -619q72 13 197 15z" />
    <glyph glyph-name="Ccedilla" unicode="&#xc7;" 
d="M718 1152q-78 0 -150 -41.5t-122.5 -103t-91 -136.5t-62.5 -137t-31 -109q-19 -95 -19 -172q0 -148 71 -229q37 -43 75.5 -58t101.5 -15h14q201 7 321 191l125 -76q-82 -123 -198 -196t-253 -73h-3h-8q-1 -7 -3.5 -19t-4 -18.5t-1.5 -7.5q61 -3 94 -35.5t33 -90.5
q0 -18 -5 -45q-14 -72 -81.5 -120t-135.5 -48q-99 0 -182 61l59 106q2 -1 9 -5.5t10 -6t9.5 -5.5t10.5 -5.5t11 -5t12 -5t12 -3.5t13.5 -3t14 -2t14.5 -1q30 0 57 15.5t34 42.5v2q0 1 0.5 3.5t0.5 3.5q0 20 -21.5 33.5t-54.5 13.5q-17 0 -29 -1.5t-17.5 -3t-16.5 -6
t-18 -6.5l34 180q-106 29 -164 99q-100 127 -100 319q0 84 20 190q56 291 228 486q75 86 186 141.5t235 55.5q109 0 196 -60.5t128 -176.5l-135 -81q-27 84 -88.5 124t-133.5 40z" />
    <glyph glyph-name="Egrave" unicode="&#xc8;" 
d="M989 1453l-107 -123q-96 67 -214.5 195.5t-172.5 230.5l160 104q71 -121 160 -234.5t174 -172.5zM278 1293q57 4 205 4h98h110q84 0 207.5 -1.5t151.5 -1.5h16v-150h-659l-63 -328h438v-150h-468l-5 -30q-23 -119 -59 -296t-39 -192h519q25 0 51 5t40 10l14 5l50 -141
q-75 -30 -165 -30h-694z" />
    <glyph glyph-name="Eacute" unicode="&#xc9;" 
d="M402 1482q100 30 246 125.5t250 185.5l117 -150q-85 -80 -262 -179.5t-288 -131.5zM278 1293q57 4 205 4h98h110q84 0 207.5 -1.5t151.5 -1.5h16v-150h-659l-63 -328h438v-150h-468l-5 -30q-23 -119 -59 -296t-39 -192h519q25 0 51 5t40 10l14 5l50 -141
q-75 -30 -165 -30h-694z" />
    <glyph glyph-name="Ecircumflex" unicode="&#xca;" 
d="M772 1783l293 -327l-117 -102l-204 231l-339 -236l-87 122zM278 1293q57 4 205 4h98h110q84 0 207.5 -1.5t151.5 -1.5h16v-150h-659l-63 -328h438v-150h-468l-5 -30q-23 -119 -59 -296t-39 -192h519q25 0 51 5t40 10l14 5l50 -141q-75 -30 -165 -30h-694z" />
    <glyph glyph-name="Edieresis" unicode="&#xcb;" 
d="M425 1652l234 -3l-44 -225l-234 3zM830 1649l234 -3l-43 -225l-235 3zM278 1293q57 4 205 4h98h110q84 0 207.5 -1.5t151.5 -1.5h16v-150h-659l-63 -328h438v-150h-468l-5 -30q-23 -119 -59 -296t-39 -192h519q25 0 51 5t40 10l14 5l50 -141q-75 -30 -165 -30h-694z" />
    <glyph glyph-name="Igrave" unicode="&#xcc;" 
d="M1015 1475l-107 -123q-96 67 -214.5 195.5t-172.5 230.5l160 104q71 -121 160 -234.5t174 -172.5zM329 1298q157 4 334 4q120 0 364 -3l-30 -152q-65 0 -143 2.5t-123 2.5l-194 -1000q22 0 59.5 0.5t63.5 0.5q75 0 143 -4l-29 -150q-101 6 -209 6q-22 0 -73 -0.5
t-82 -0.5q-27 0 -135 -3.5t-196 -3.5l29 149q107 5 193 5h75l195 1000q-193 -3 -266 -7z" />
    <glyph glyph-name="Iacute" unicode="&#xcd;" 
d="M424 1490q100 30 246 125.5t250 185.5l117 -150q-85 -80 -262 -179.5t-288 -131.5zM329 1298q157 4 334 4q120 0 364 -3l-30 -152q-65 0 -143 2.5t-123 2.5l-194 -1000q22 0 59.5 0.5t63.5 0.5q75 0 143 -4l-29 -150q-101 6 -209 6q-22 0 -73 -0.5t-82 -0.5
q-27 0 -135 -3.5t-196 -3.5l29 149q107 5 193 5h75l195 1000q-193 -3 -266 -7z" />
    <glyph glyph-name="Icircumflex" unicode="&#xce;" 
d="M765 1780l293 -327l-117 -102l-204 231l-339 -236l-87 122zM329 1298q157 4 334 4q120 0 364 -3l-30 -152q-65 0 -143 2.5t-123 2.5l-194 -1000q22 0 59.5 0.5t63.5 0.5q75 0 143 -4l-29 -150q-101 6 -209 6q-22 0 -73 -0.5t-82 -0.5q-27 0 -135 -3.5t-196 -3.5l29 149
q107 5 193 5h75l195 1000q-193 -3 -266 -7z" />
    <glyph glyph-name="Idieresis" unicode="&#xcf;" 
d="M423 1646l234 -3l-44 -225l-234 3zM828 1643l234 -3l-43 -225l-235 3zM329 1298q157 4 334 4q120 0 364 -3l-30 -152q-65 0 -143 2.5t-123 2.5l-194 -1000q22 0 59.5 0.5t63.5 0.5q75 0 143 -4l-29 -150q-101 6 -209 6q-22 0 -73 -0.5t-82 -0.5q-27 0 -135 -3.5
t-196 -3.5l29 149q107 5 193 5h75l195 1000q-193 -3 -266 -7z" />
    <glyph glyph-name="Eth" unicode="&#xd0;" 
d="M458 1152h-30q-33 0 -45 -2q-5 -30 -16 -86q-7 -37 -28 -137h327v-147h-356q-66 -341 -127 -636q87 -3 192 -3q285 0 400 205q18 33 37 89t27 98q20 103 20 200q0 140 -40 221q-35 70 -73.5 110t-109.5 64t-178 24zM181 927l6 30q41 215 52 334q135 13 227 13
q201 0 317 -61.5t183 -197.5q57 -119 57 -285q0 -89 -19 -192q-24 -126 -61 -219t-97 -170t-150.5 -122.5t-212.5 -59.5q-65 -7 -162 -7q-38 0 -153.5 3.5t-176.5 3.5q5 28 28 128q3 18 24 118.5t53 256t57 280.5h-87v147h115z" />
    <glyph glyph-name="Ntilde" unicode="&#xd1;" 
d="M617 1660q38 0 71 -13.5t56.5 -32t45 -37.5t45.5 -32.5t49 -13.5q127 0 172 127l153 -58q-45 -97 -127.5 -159.5t-190.5 -62.5q-45 0 -82 13.5t-61.5 32t-45 37.5t-42.5 32.5t-45 13.5q-62 0 -106 -29.5t-86 -105.5l-150 75q76 118 157 165.5t187 47.5zM676 -6
q-131 497 -323 1007l-40 -204q-25 -127 -82 -422t-73 -378h-159l253 1301l159 -4q65 -133 173.5 -437.5t162.5 -499.5q27 153 75 400q58 300 117 540h154q-32 -128 -90 -425q-21 -109 -66.5 -350t-68.5 -360q-5 -25 -16.5 -81.5t-16.5 -85.5z" />
    <glyph glyph-name="Ograve" unicode="&#xd2;" 
d="M1017 1487l-107 -123q-96 67 -214.5 195.5t-172.5 230.5l160 104q71 -121 160 -234.5t174 -172.5zM687 1326q38 0 76.5 -8t88 -36.5t86.5 -74t63 -130t26 -195.5q0 -115 -25 -247l-2 -11q-23 -116 -70 -225t-101 -185q-78 -109 -185 -168t-230 -59q-97 0 -177 35.5
t-125 107.5q-69 110 -69 272q0 85 17 170q24 123 55.5 222t68 168t68 113.5t69.5 85.5q67 73 160.5 118t205.5 47zM239 245q58 -105 205 -105q65 0 141 43.5t122 106.5q37 46 78 149t58 188l4 19q22 119 22 216q0 91 -20 155q-26 83 -72 119.5t-114 36.5q-56 0 -117.5 -25.5
t-112.5 -78.5q-148 -153 -214 -493q-14 -68 -14 -150q0 -122 34 -181z" />
    <glyph glyph-name="Oacute" unicode="&#xd3;" 
d="M474 1516q100 30 246 125.5t250 185.5l117 -150q-85 -80 -262 -179.5t-288 -131.5zM687 1326q38 0 76.5 -8t88 -36.5t86.5 -74t63 -130t26 -195.5q0 -115 -25 -247l-2 -11q-23 -116 -70 -225t-101 -185q-78 -109 -185 -168t-230 -59q-97 0 -177 35.5t-125 107.5
q-69 110 -69 272q0 85 17 170q24 123 55.5 222t68 168t68 113.5t69.5 85.5q67 73 160.5 118t205.5 47zM239 245q58 -105 205 -105q65 0 141 43.5t122 106.5q37 46 78 149t58 188l4 19q22 119 22 216q0 91 -20 155q-26 83 -72 119.5t-114 36.5q-56 0 -117.5 -25.5
t-112.5 -78.5q-148 -153 -214 -493q-14 -68 -14 -150q0 -122 34 -181z" />
    <glyph glyph-name="Ocircumflex" unicode="&#xd4;" 
d="M775 1786l293 -327l-117 -102l-204 231l-339 -236l-87 122zM687 1326q38 0 76.5 -8t88 -36.5t86.5 -74t63 -130t26 -195.5q0 -115 -25 -247l-2 -11q-23 -116 -70 -225t-101 -185q-78 -109 -185 -168t-230 -59q-97 0 -177 35.5t-125 107.5q-69 110 -69 272q0 85 17 170
q24 123 55.5 222t68 168t68 113.5t69.5 85.5q67 73 160.5 118t205.5 47zM239 245q58 -105 205 -105q65 0 141 43.5t122 106.5q37 46 78 149t58 188l4 19q22 119 22 216q0 91 -20 155q-26 83 -72 119.5t-114 36.5q-56 0 -117.5 -25.5t-112.5 -78.5q-148 -153 -214 -493
q-14 -68 -14 -150q0 -122 34 -181z" />
    <glyph glyph-name="Otilde" unicode="&#xd5;" 
d="M626 1681q38 0 71 -13.5t56.5 -32t45 -37.5t45.5 -32.5t49 -13.5q127 0 172 127l153 -58q-45 -97 -127.5 -159.5t-190.5 -62.5q-45 0 -82 13.5t-61.5 32t-45 37.5t-42.5 32.5t-45 13.5q-62 0 -106 -29.5t-86 -105.5l-150 75q76 118 157 165.5t187 47.5zM687 1326
q38 0 76.5 -8t88 -36.5t86.5 -74t63 -130t26 -195.5q0 -115 -25 -247l-2 -11q-23 -116 -70 -225t-101 -185q-78 -109 -185 -168t-230 -59q-97 0 -177 35.5t-125 107.5q-69 110 -69 272q0 85 17 170q24 123 55.5 222t68 168t68 113.5t69.5 85.5q67 73 160.5 118t205.5 47z
M239 245q58 -105 205 -105q65 0 141 43.5t122 106.5q37 46 78 149t58 188l4 19q22 119 22 216q0 91 -20 155q-26 83 -72 119.5t-114 36.5q-56 0 -117.5 -25.5t-112.5 -78.5q-148 -153 -214 -493q-14 -68 -14 -150q0 -122 34 -181z" />
    <glyph glyph-name="Odieresis" unicode="&#xd6;" 
d="M466 1637l234 -3l-44 -225l-234 3zM871 1634l234 -3l-43 -225l-235 3zM687 1326q38 0 76.5 -8t88 -36.5t86.5 -74t63 -130t26 -195.5q0 -115 -25 -247l-2 -11q-23 -116 -70 -225t-101 -185q-78 -109 -185 -168t-230 -59q-97 0 -177 35.5t-125 107.5q-69 110 -69 272
q0 85 17 170q24 123 55.5 222t68 168t68 113.5t69.5 85.5q67 73 160.5 118t205.5 47zM239 245q58 -105 205 -105q65 0 141 43.5t122 106.5q37 46 78 149t58 188l4 19q22 119 22 216q0 91 -20 155q-26 83 -72 119.5t-114 36.5q-56 0 -117.5 -25.5t-112.5 -78.5
q-148 -153 -214 -493q-14 -68 -14 -150q0 -122 34 -181z" />
    <glyph glyph-name="multiply" unicode="&#xd7;" 
d="M418 529q-37 46 -120.5 158t-133.5 168l112 116q89 -101 269 -335q340 274 399 327l82 -131q-3 -3 -60.5 -51t-148.5 -124t-181 -150q55 -74 107 -146.5t82.5 -114t66.5 -85.5l-128 -91q-21 37 -48 75t-50 67t-70 87.5t-85 106.5q-130 -107 -382 -332l-100 106
q182 177 389 349z" />
    <glyph glyph-name="Oslash" unicode="&#xd8;" 
d="M6 -57q44 64 74 112q22 34 40 64q-8 10 -8 11q-69 110 -69 272q0 85 17 170q24 123 55.5 222t68 168t68 113.5t69.5 85.5q67 73 160.5 118t205.5 47q82 0 153 -37q75 126 101 172l139 -81q-59 -99 -121 -203q68 -109 68 -295q0 -115 -25 -247l-2 -11q-23 -116 -70 -225
t-101 -185q-78 -109 -185 -168t-230 -59q-95 0 -169 32q-19 -31 -52.5 -85t-46.5 -75zM223 284q289 467 533 867q-40 22 -93 22q-56 0 -117.5 -25.5t-112.5 -78.5q-148 -153 -214 -493q-14 -68 -14 -150t18 -142zM853 1003q-206 -338 -520 -844q44 -19 111 -19
q65 0 141 43.5t122 106.5q37 46 78 149t58 188l4 19q22 119 22 216q0 80 -16 141z" />
    <glyph glyph-name="Ugrave" unicode="&#xd9;" 
d="M1011 1477l-107 -123q-96 67 -214.5 195.5t-172.5 230.5l160 104q71 -121 160 -234.5t174 -172.5zM957 1313l154 -13q-21 -60 -39 -157q-13 -69 -37 -197t-35 -186l-12 -58q-21 -109 -36.5 -175t-42.5 -151t-64 -148t-86 -109q-127 -121 -344 -129q-186 0 -265.5 80.5
t-79.5 241.5q0 65 10 135q16 117 57 332q52 271 111 523h158q-68 -310 -119 -574q-40 -208 -50 -289q-5 -45 -5 -76q0 -115 49.5 -168.5t149.5 -53.5q79 4 129 22.5t100 61.5q95 86 170 477q11 57 37.5 203t43.5 236q19 95 46 172z" />
    <glyph glyph-name="Uacute" unicode="&#xda;" 
d="M462 1486q100 30 246 125.5t250 185.5l117 -150q-85 -80 -262 -179.5t-288 -131.5zM957 1313l154 -13q-21 -60 -39 -157q-13 -69 -37 -197t-35 -186l-12 -58q-21 -109 -36.5 -175t-42.5 -151t-64 -148t-86 -109q-127 -121 -344 -129q-186 0 -265.5 80.5t-79.5 241.5
q0 65 10 135q16 117 57 332q52 271 111 523h158q-68 -310 -119 -574q-40 -208 -50 -289q-5 -45 -5 -76q0 -115 49.5 -168.5t149.5 -53.5q79 4 129 22.5t100 61.5q95 86 170 477q11 57 37.5 203t43.5 236q19 95 46 172z" />
    <glyph glyph-name="Ucircumflex" unicode="&#xdb;" 
d="M784 1798l293 -327l-117 -102l-204 231l-339 -236l-87 122zM957 1313l154 -13q-21 -60 -39 -157q-13 -69 -37 -197t-35 -186l-12 -58q-21 -109 -36.5 -175t-42.5 -151t-64 -148t-86 -109q-127 -121 -344 -129q-186 0 -265.5 80.5t-79.5 241.5q0 65 10 135q16 117 57 332
q52 271 111 523h158q-68 -310 -119 -574q-40 -208 -50 -289q-5 -45 -5 -76q0 -115 49.5 -168.5t149.5 -53.5q79 4 129 22.5t100 61.5q95 86 170 477q11 57 37.5 203t43.5 236q19 95 46 172z" />
    <glyph glyph-name="Udieresis" unicode="&#xdc;" 
d="M445 1652l234 -3l-44 -225l-234 3zM850 1649l234 -3l-43 -225l-235 3zM957 1313l154 -13q-21 -60 -39 -157q-13 -69 -37 -197t-35 -186l-12 -58q-21 -109 -36.5 -175t-42.5 -151t-64 -148t-86 -109q-127 -121 -344 -129q-186 0 -265.5 80.5t-79.5 241.5q0 65 10 135
q16 117 57 332q52 271 111 523h158q-68 -310 -119 -574q-40 -208 -50 -289q-5 -45 -5 -76q0 -115 49.5 -168.5t149.5 -53.5q79 4 129 22.5t100 61.5q95 86 170 477q11 57 37.5 203t43.5 236q19 95 46 172z" />
    <glyph glyph-name="Yacute" unicode="&#xdd;" 
d="M432 1498q100 30 246 125.5t250 185.5l117 -150q-85 -80 -262 -179.5t-288 -131.5zM296 42l270 482q-8 15 -75 142.5t-119.5 229.5t-106 213t-63.5 148l154 57q44 -110 310 -621q18 42 159.5 315t159.5 331l150 -59q-105 -216 -238 -471.5t-211.5 -400t-240.5 -440.5z
" />
    <glyph glyph-name="Thorn" unicode="&#xde;" 
d="M865 800q5 27 5 45q0 82 -78.5 122.5t-255.5 40.5q-36 0 -90 -2t-62 -2l-24 -126l-53 -265q36 -1 103 -1q78 0 131.5 2.5t106 9t86 19.5t62 33.5t45 51t24.5 72.5zM185 -10l-158 1l254 1303q87 0 160 3l-27 -140q52 3 129 3q191 0 290 -28t160 -124q37 -58 37 -147
q0 -42 -10 -97q-13 -67 -46 -119t-82 -84.5t-101.5 -53.5t-120.5 -30.5t-121 -13t-119 -3.5q-71 0 -152 3q-27 -139 -53 -270t-40 -203z" />
    <glyph glyph-name="germandbls" unicode="&#xdf;" 
d="M211 1003q12 62 39 117.5t70 103t108.5 76t144.5 28.5q61 0 115.5 -14.5t99 -43t70.5 -76t26 -108.5q0 -36 -2 -66t-7.5 -54.5t-9 -42.5t-14.5 -35.5t-16 -27t-20 -24t-20.5 -19t-24.5 -19.5t-24 -19q98 -29 153.5 -109.5t55.5 -175.5q0 -237 -109.5 -366.5
t-296.5 -129.5q-128 0 -205.5 58.5t-77.5 171.5q0 34 7 69q1 4 2.5 12t2.5 12h156q-8 -46 -8 -74q0 -54 33 -75t119 -21q71 0 122.5 45.5t75.5 116.5t24 155q0 40 -12.5 71t-31.5 52.5t-53.5 36t-67.5 22.5t-85.5 12.5t-94.5 5.5t-107 1l30 153q44 0 73 1t69 5.5t66 13.5
t55 25.5t45.5 40t27.5 59t11 80.5q0 129 -181 129q-68 -1 -118 -55.5t-64 -127.5q-5 -27 -25.5 -132.5t-30 -156t-29.5 -149t-34 -162.5t-33 -142.5t-36 -139.5q-31 -109 -131 -155l-86 122q18 8 36 25.5t24 36.5q80 276 194 863z" />
    <glyph glyph-name="agrave" unicode="&#xe0;" 
d="M965 1187l-107 -123q-96 67 -214.5 195.5t-172.5 230.5l160 104q71 -121 160 -234.5t174 -172.5zM243 514q-25 -93 -25 -168q0 -94 36 -148t96 -54q65 0 124.5 33.5t102.5 81.5t82.5 115t62.5 121t44 113l45 196q-36 25 -60 39.5t-71.5 30.5t-95.5 16q-138 0 -211.5 -86
t-129.5 -290zM1006 1002l-120 -646q-20 -102 -20 -142q0 -36 11.5 -56.5t41.5 -48.5l-106 -119q-4 3 -21 17.5t-23 21t-19 24t-18.5 34t-10.5 44t-5 60.5q0 16 1 25q-26 -38 -58 -71.5t-81 -71t-115.5 -59.5t-141.5 -22q-115 0 -185 98.5t-70 252.5q0 79 19 161
q65 278 182.5 404t336.5 126q58 0 107.5 -12.5t73.5 -25.5t56 -35q6 30 10 65z" />
    <glyph glyph-name="aacute" unicode="&#xe1;" 
d="M416 1214q100 30 246 125.5t250 185.5l117 -150q-85 -80 -262 -179.5t-288 -131.5zM243 514q-25 -93 -25 -168q0 -94 36 -148t96 -54q65 0 124.5 33.5t102.5 81.5t82.5 115t62.5 121t44 113l45 196q-36 25 -60 39.5t-71.5 30.5t-95.5 16q-138 0 -211.5 -86t-129.5 -290z
M1006 1002l-120 -646q-20 -102 -20 -142q0 -36 11.5 -56.5t41.5 -48.5l-106 -119q-4 3 -21 17.5t-23 21t-19 24t-18.5 34t-10.5 44t-5 60.5q0 16 1 25q-26 -38 -58 -71.5t-81 -71t-115.5 -59.5t-141.5 -22q-115 0 -185 98.5t-70 252.5q0 79 19 161q65 278 182.5 404
t336.5 126q58 0 107.5 -12.5t73.5 -25.5t56 -35q6 30 10 65z" />
    <glyph glyph-name="acircumflex" unicode="&#xe2;" 
d="M727 1498l293 -327l-117 -102l-204 231l-339 -236l-87 122zM243 514q-25 -93 -25 -168q0 -94 36 -148t96 -54q65 0 124.5 33.5t102.5 81.5t82.5 115t62.5 121t44 113l45 196q-36 25 -60 39.5t-71.5 30.5t-95.5 16q-138 0 -211.5 -86t-129.5 -290zM1006 1002l-120 -646
q-20 -102 -20 -142q0 -36 11.5 -56.5t41.5 -48.5l-106 -119q-4 3 -21 17.5t-23 21t-19 24t-18.5 34t-10.5 44t-5 60.5q0 16 1 25q-26 -38 -58 -71.5t-81 -71t-115.5 -59.5t-141.5 -22q-115 0 -185 98.5t-70 252.5q0 79 19 161q65 278 182.5 404t336.5 126q58 0 107.5 -12.5
t73.5 -25.5t56 -35q6 30 10 65z" />
    <glyph glyph-name="atilde" unicode="&#xe3;" 
d="M578 1372q38 0 71 -13.5t56.5 -32t45 -37.5t45.5 -32.5t49 -13.5q127 0 172 127l153 -58q-45 -97 -127.5 -159.5t-190.5 -62.5q-45 0 -82 13.5t-61.5 32t-45 37.5t-42.5 32.5t-45 13.5q-62 0 -106 -29.5t-86 -105.5l-150 75q76 118 157 165.5t187 47.5zM243 514
q-25 -93 -25 -168q0 -94 36 -148t96 -54q65 0 124.5 33.5t102.5 81.5t82.5 115t62.5 121t44 113l45 196q-36 25 -60 39.5t-71.5 30.5t-95.5 16q-138 0 -211.5 -86t-129.5 -290zM1006 1002l-120 -646q-20 -102 -20 -142q0 -36 11.5 -56.5t41.5 -48.5l-106 -119q-4 3 -21 17.5
t-23 21t-19 24t-18.5 34t-10.5 44t-5 60.5q0 16 1 25q-26 -38 -58 -71.5t-81 -71t-115.5 -59.5t-141.5 -22q-115 0 -185 98.5t-70 252.5q0 79 19 161q65 278 182.5 404t336.5 126q58 0 107.5 -12.5t73.5 -25.5t56 -35q6 30 10 65z" />
    <glyph glyph-name="adieresis" unicode="&#xe4;" 
d="M430 1406l234 -3l-44 -225l-234 3zM835 1403l234 -3l-43 -225l-235 3zM243 514q-25 -93 -25 -168q0 -94 36 -148t96 -54q65 0 124.5 33.5t102.5 81.5t82.5 115t62.5 121t44 113l45 196q-36 25 -60 39.5t-71.5 30.5t-95.5 16q-138 0 -211.5 -86t-129.5 -290zM1006 1002
l-120 -646q-20 -102 -20 -142q0 -36 11.5 -56.5t41.5 -48.5l-106 -119q-4 3 -21 17.5t-23 21t-19 24t-18.5 34t-10.5 44t-5 60.5q0 16 1 25q-26 -38 -58 -71.5t-81 -71t-115.5 -59.5t-141.5 -22q-115 0 -185 98.5t-70 252.5q0 79 19 161q65 278 182.5 404t336.5 126
q58 0 107.5 -12.5t73.5 -25.5t56 -35q6 30 10 65z" />
    <glyph glyph-name="aring" unicode="&#xe5;" 
d="M597 1290q-1 -3 -1 -10q0 -25 20.5 -43.5t53.5 -18.5q37 0 65 22t34 50q1 4 1 11q0 24 -19.5 41t-53.5 17q-38 0 -66.5 -21t-33.5 -48zM467 1288q16 82 91.5 138.5t163.5 56.5q78 0 129.5 -45.5t51.5 -114.5q0 -17 -3 -35q-16 -82 -91 -138.5t-163 -56.5q-78 0 -130 45.5
t-52 115.5q0 16 3 34zM243 514q-25 -93 -25 -168q0 -94 36 -148t96 -54q65 0 124.5 33.5t102.5 81.5t82.5 115t62.5 121t44 113l45 196q-36 25 -60 39.5t-71.5 30.5t-95.5 16q-138 0 -211.5 -86t-129.5 -290zM1006 1002l-120 -646q-20 -102 -20 -142q0 -36 11.5 -56.5
t41.5 -48.5l-106 -119q-4 3 -21 17.5t-23 21t-19 24t-18.5 34t-10.5 44t-5 60.5q0 16 1 25q-26 -38 -58 -71.5t-81 -71t-115.5 -59.5t-141.5 -22q-115 0 -185 98.5t-70 252.5q0 79 19 161q65 278 182.5 404t336.5 126q58 0 107.5 -12.5t73.5 -25.5t56 -35q6 30 10 65z" />
    <glyph glyph-name="ae" unicode="&#xe6;" 
d="M145 894q180 140 305 140q48 0 81.5 -11.5t54.5 -36t33 -51.5t22 -67q61 76 129 120.5t134 44.5q205 0 205 -257q0 -133 -133 -272q-66 -68 -167 -109.5t-212 -49.5v-11q0 -30 4.5 -60.5t15 -60.5t30.5 -49t48 -19q25 0 48.5 7t37 13t35.5 26t27 26t30 33l102 -109
q-3 -3 -20.5 -19t-26 -23.5t-29.5 -24t-36.5 -25.5t-40.5 -21.5t-48 -19t-52.5 -11.5t-60.5 -5q-133 0 -175 128q-43 -60 -104 -94t-167 -34q-83 0 -132.5 63t-49.5 186q0 74 25 151.5t69.5 143.5t115.5 108.5t154 42.5q34 0 69.5 -26.5t39.5 -42.5q22 78 22 120
q0 75 -23.5 113t-80.5 38q-70 0 -199 -105zM185 244q0 -50 18 -75t41 -25q41 0 75 18.5t55 43t39 63t25.5 63.5t16 60t9.5 38q-9 32 -36 72.5t-51 40.5q-49 0 -95 -54.5t-71.5 -123.5t-25.5 -121zM613 496q166 12 267 114q83 85 83 164q0 112 -88 112q-68 0 -148 -107
t-114 -283z" />
    <glyph glyph-name="ccedilla" unicode="&#xe7;" 
d="M257 527q-15 -79 -15 -138q0 -67 19 -114.5t44 -71t65.5 -36.5t66.5 -15t64 -2h13q109 0 182 39.5t131 112.5l108 -91q-2 -2 -22.5 -24.5t-36 -37.5t-46 -41t-63.5 -43t-75 -35.5t-94.5 -27.5t-109.5 -9h-4q-2 -9 -5 -24t-5.5 -25.5t-2.5 -11.5q61 -3 94 -35.5t33 -90.5
q0 -18 -5 -45q-14 -72 -81.5 -120t-135.5 -48q-99 0 -182 61l59 106q2 -1 9 -5.5t10 -6t9.5 -5.5t10.5 -5.5t11 -5t12 -5t12 -3.5t13.5 -3t14 -2t14.5 -1q30 0 57 15.5t34 42.5v2q0 1 0.5 3.5t0.5 3.5q0 20 -21.5 33.5t-54.5 13.5q-17 0 -29 -1.5t-17.5 -3t-16.5 -6
t-18 -6.5l36 188q-9 1 -24.5 3.5t-57.5 20.5t-78 46q-103 81 -103 269q0 77 21 185q51 265 196.5 378t392.5 113q137 0 215 -70q59 -53 83 -159l-165 -60q-1 17 -3.5 30.5t-13 35t-27.5 35t-51 24.5t-79 11q-167 0 -261 -80t-128 -258z" />
    <glyph glyph-name="egrave" unicode="&#xe8;" 
d="M985 1187l-107 -123q-96 67 -214.5 195.5t-172.5 230.5l160 104q71 -121 160 -234.5t174 -172.5zM262 492q68 5 105.5 8.5t109.5 13t127.5 26.5t95.5 41q111 67 111 154q0 58 -54.5 96t-152.5 38q-129 0 -217.5 -95.5t-124.5 -281.5zM632 1021q153 0 239 -82.5t86 -198.5
q0 -78 -42 -151t-121 -122q-70 -43 -183 -71.5t-188 -37.5t-177 -17v-11q0 -24 5.5 -47.5t21 -49.5t40.5 -45t67.5 -32t98.5 -13q205 0 327 135l102 -109q-1 -1 -19 -18t-26.5 -23.5t-31 -24.5t-41 -27.5t-47.5 -25t-59.5 -24.5t-67.5 -18.5t-80.5 -13.5t-90.5 -4
q-179 0 -269 96.5t-90 269.5q0 72 17 160q44 223 184 364t345 141z" />
    <glyph glyph-name="eacute" unicode="&#xe9;" 
d="M442 1210q100 30 246 125.5t250 185.5l117 -150q-85 -80 -262 -179.5t-288 -131.5zM262 492q68 5 105.5 8.5t109.5 13t127.5 26.5t95.5 41q111 67 111 154q0 58 -54.5 96t-152.5 38q-129 0 -217.5 -95.5t-124.5 -281.5zM632 1021q153 0 239 -82.5t86 -198.5
q0 -78 -42 -151t-121 -122q-70 -43 -183 -71.5t-188 -37.5t-177 -17v-11q0 -24 5.5 -47.5t21 -49.5t40.5 -45t67.5 -32t98.5 -13q205 0 327 135l102 -109q-1 -1 -19 -18t-26.5 -23.5t-31 -24.5t-41 -27.5t-47.5 -25t-59.5 -24.5t-67.5 -18.5t-80.5 -13.5t-90.5 -4
q-179 0 -269 96.5t-90 269.5q0 72 17 160q44 223 184 364t345 141z" />
    <glyph glyph-name="ecircumflex" unicode="&#xea;" 
d="M771 1495l293 -327l-117 -102l-204 231l-339 -236l-87 122zM262 492q68 5 105.5 8.5t109.5 13t127.5 26.5t95.5 41q111 67 111 154q0 58 -54.5 96t-152.5 38q-129 0 -217.5 -95.5t-124.5 -281.5zM632 1021q153 0 239 -82.5t86 -198.5q0 -78 -42 -151t-121 -122
q-70 -43 -183 -71.5t-188 -37.5t-177 -17v-11q0 -24 5.5 -47.5t21 -49.5t40.5 -45t67.5 -32t98.5 -13q205 0 327 135l102 -109q-1 -1 -19 -18t-26.5 -23.5t-31 -24.5t-41 -27.5t-47.5 -25t-59.5 -24.5t-67.5 -18.5t-80.5 -13.5t-90.5 -4q-179 0 -269 96.5t-90 269.5
q0 72 17 160q44 223 184 364t345 141z" />
    <glyph glyph-name="edieresis" unicode="&#xeb;" 
d="M382 1403l234 -3l-44 -225l-234 3zM787 1400l234 -3l-43 -225l-235 3zM262 492q68 5 105.5 8.5t109.5 13t127.5 26.5t95.5 41q111 67 111 154q0 58 -54.5 96t-152.5 38q-129 0 -217.5 -95.5t-124.5 -281.5zM632 1021q153 0 239 -82.5t86 -198.5q0 -78 -42 -151t-121 -122
q-70 -43 -183 -71.5t-188 -37.5t-177 -17v-11q0 -24 5.5 -47.5t21 -49.5t40.5 -45t67.5 -32t98.5 -13q205 0 327 135l102 -109q-1 -1 -19 -18t-26.5 -23.5t-31 -24.5t-41 -27.5t-47.5 -25t-59.5 -24.5t-67.5 -18.5t-80.5 -13.5t-90.5 -4q-179 0 -269 96.5t-90 269.5
q0 72 17 160q44 223 184 364t345 141z" />
    <glyph glyph-name="igrave" unicode="&#xec;" 
d="M884 1229l-107 -123q-96 67 -214.5 195.5t-172.5 230.5l160 104q71 -121 160 -234.5t174 -172.5zM661 1020l-147 -736q-5 -24 -5 -52q0 -108 112 -108q155 0 270 76l76 -117q-71 -50 -171.5 -75.5t-200.5 -25.5q-69 0 -118.5 19.5t-76 53.5t-38.5 72t-12 82q0 39 7 71
l108 533q-31 -23 -99.5 -59.5t-119.5 -52.5l-58 144q107 45 172 83t81.5 54.5t29.5 37.5h190z" />
    <glyph glyph-name="iacute" unicode="&#xed;" 
d="M373 1220q100 30 246 125.5t250 185.5l117 -150q-85 -80 -262 -179.5t-288 -131.5zM661 1020l-147 -736q-5 -24 -5 -52q0 -108 112 -108q155 0 270 76l76 -117q-71 -50 -171.5 -75.5t-200.5 -25.5q-69 0 -118.5 19.5t-76 53.5t-38.5 72t-12 82q0 39 7 71l108 533
q-31 -23 -99.5 -59.5t-119.5 -52.5l-58 144q107 45 172 83t81.5 54.5t29.5 37.5h190z" />
    <glyph glyph-name="icircumflex" unicode="&#xee;" 
d="M699 1501l293 -327l-117 -102l-204 231l-339 -236l-87 122zM661 1020l-147 -736q-5 -24 -5 -52q0 -108 112 -108q155 0 270 76l76 -117q-71 -50 -171.5 -75.5t-200.5 -25.5q-69 0 -118.5 19.5t-76 53.5t-38.5 72t-12 82q0 39 7 71l108 533q-31 -23 -99.5 -59.5
t-119.5 -52.5l-58 144q107 45 172 83t81.5 54.5t29.5 37.5h190z" />
    <glyph glyph-name="idieresis" unicode="&#xef;" 
d="M351 1406l234 -3l-44 -225l-234 3zM756 1403l234 -3l-43 -225l-235 3zM661 1020l-147 -736q-5 -24 -5 -52q0 -108 112 -108q155 0 270 76l76 -117q-71 -50 -171.5 -75.5t-200.5 -25.5q-69 0 -118.5 19.5t-76 53.5t-38.5 72t-12 82q0 39 7 71l108 533q-31 -23 -99.5 -59.5
t-119.5 -52.5l-58 144q107 45 172 83t81.5 54.5t29.5 37.5h190z" />
    <glyph glyph-name="eth" unicode="&#xf0;" 
d="M694 864q-99 0 -177.5 -26.5t-129 -71t-84 -106t-47.5 -127t-14 -138.5q0 -109 50 -174t147 -65q83 1 149.5 39t108.5 102t64 146.5t22 175.5q0 126 -89 245zM755 1167q66 -130 99 -201.5t61 -159.5t28 -153q0 -144 -33.5 -262t-98 -205.5t-167.5 -136t-235 -48.5h-2
q-80 0 -145 32.5t-103.5 84.5t-59 113.5t-20.5 124.5q0 81 16 164t56 170.5t100 156t155.5 116t213.5 55.5q-3 6 -11 21.5t-21 40t-23 44.5l-214 -48l-5 136l159 36q-41 86 -43 93l174 87q34 -83 59 -137l228 53l6 -136z" />
    <glyph glyph-name="ntilde" unicode="&#xf1;" 
d="M569 1410q38 0 71 -13.5t56.5 -32t45 -37.5t45.5 -32.5t49 -13.5q127 0 172 127l153 -58q-45 -97 -127.5 -159.5t-190.5 -62.5q-45 0 -82 13.5t-61.5 32t-45 37.5t-42.5 32.5t-45 13.5q-62 0 -106 -29.5t-86 -105.5l-150 75q76 118 157 165.5t187 47.5zM374 856
q174 174 358 174q87 0 154.5 -52.5t67.5 -139.5q0 -22 -4 -42l-114 -585q-2 -8 -2 -21q0 -8 1 -15.5t4.5 -14t6 -11.5t9.5 -11t10 -9.5t12.5 -9.5t12.5 -8.5t14.5 -9t14.5 -8.5l-106 -112q-33 18 -53 31t-43 35t-34 49.5t-11 62.5q0 18 5 45l109 561q4 17 4 37q0 75 -86 75
q-95 0 -211 -106t-184 -285l-98 -486l-158 -1l137 706q22 114 22 184q0 20 -1.5 39.5t-3.5 44t-3 41.5l170 18q3 -27 3 -84q0 -44 -3 -92z" />
    <glyph glyph-name="ograve" unicode="&#xf2;" 
d="M903 1189l-107 -123q-96 67 -214.5 195.5t-172.5 230.5l160 104q71 -121 160 -234.5t174 -172.5zM621 215q104 83 150 315q1 3 2 9t2 9q12 69 12 114q0 53 -7 88.5t-26 66.5t-58.5 46t-99.5 15q-128 0 -221 -111.5t-129 -297.5q-11 -57 -11 -101q0 -55 7 -90.5t27.5 -65
t60 -43t101.5 -13.5q111 1 190 59zM407 1h-2q-153 0 -242.5 88.5t-89.5 239.5q0 60 14 135q22 115 62.5 213t101 179.5t148.5 128.5t193 47q144 0 224 -49.5t114 -151.5q18 -54 18 -136q0 -79 -15 -152q-18 -91 -43 -166.5t-67.5 -147t-98 -120.5t-136 -78.5t-179.5 -29.5
h-2z" />
    <glyph glyph-name="oacute" unicode="&#xf3;" 
d="M396 1216q100 30 246 125.5t250 185.5l117 -150q-85 -80 -262 -179.5t-288 -131.5zM621 215q104 83 150 315q1 3 2 9t2 9q12 69 12 114q0 53 -7 88.5t-26 66.5t-58.5 46t-99.5 15q-128 0 -221 -111.5t-129 -297.5q-11 -57 -11 -101q0 -55 7 -90.5t27.5 -65t60 -43
t101.5 -13.5q111 1 190 59zM407 1h-2q-153 0 -242.5 88.5t-89.5 239.5q0 60 14 135q22 115 62.5 213t101 179.5t148.5 128.5t193 47q144 0 224 -49.5t114 -151.5q18 -54 18 -136q0 -79 -15 -152q-18 -91 -43 -166.5t-67.5 -147t-98 -120.5t-136 -78.5t-179.5 -29.5h-2z" />
    <glyph glyph-name="ocircumflex" unicode="&#xf4;" 
d="M737 1492l293 -327l-117 -102l-204 231l-339 -236l-87 122zM621 215q104 83 150 315q1 3 2 9t2 9q12 69 12 114q0 53 -7 88.5t-26 66.5t-58.5 46t-99.5 15q-128 0 -221 -111.5t-129 -297.5q-11 -57 -11 -101q0 -55 7 -90.5t27.5 -65t60 -43t101.5 -13.5q111 1 190 59z
M407 1h-2q-153 0 -242.5 88.5t-89.5 239.5q0 60 14 135q22 115 62.5 213t101 179.5t148.5 128.5t193 47q144 0 224 -49.5t114 -151.5q18 -54 18 -136q0 -79 -15 -152q-18 -91 -43 -166.5t-67.5 -147t-98 -120.5t-136 -78.5t-179.5 -29.5h-2z" />
    <glyph glyph-name="otilde" unicode="&#xf5;" 
d="M555 1383q38 0 71 -13.5t56.5 -32t45 -37.5t45.5 -32.5t49 -13.5q127 0 172 127l153 -58q-45 -97 -127.5 -159.5t-190.5 -62.5q-45 0 -82 13.5t-61.5 32t-45 37.5t-42.5 32.5t-45 13.5q-62 0 -106 -29.5t-86 -105.5l-150 75q76 118 157 165.5t187 47.5zM621 215
q104 83 150 315q1 3 2 9t2 9q12 69 12 114q0 53 -7 88.5t-26 66.5t-58.5 46t-99.5 15q-128 0 -221 -111.5t-129 -297.5q-11 -57 -11 -101q0 -55 7 -90.5t27.5 -65t60 -43t101.5 -13.5q111 1 190 59zM407 1h-2q-153 0 -242.5 88.5t-89.5 239.5q0 60 14 135q22 115 62.5 213
t101 179.5t148.5 128.5t193 47q144 0 224 -49.5t114 -151.5q18 -54 18 -136q0 -79 -15 -152q-18 -91 -43 -166.5t-67.5 -147t-98 -120.5t-136 -78.5t-179.5 -29.5h-2z" />
    <glyph glyph-name="odieresis" unicode="&#xf6;" 
d="M417 1399l234 -3l-44 -225l-234 3zM822 1396l234 -3l-43 -225l-235 3zM621 215q104 83 150 315q1 3 2 9t2 9q12 69 12 114q0 53 -7 88.5t-26 66.5t-58.5 46t-99.5 15q-128 0 -221 -111.5t-129 -297.5q-11 -57 -11 -101q0 -55 7 -90.5t27.5 -65t60 -43t101.5 -13.5
q111 1 190 59zM407 1h-2q-153 0 -242.5 88.5t-89.5 239.5q0 60 14 135q22 115 62.5 213t101 179.5t148.5 128.5t193 47q144 0 224 -49.5t114 -151.5q18 -54 18 -136q0 -79 -15 -152q-18 -91 -43 -166.5t-67.5 -147t-98 -120.5t-136 -78.5t-179.5 -29.5h-2z" />
    <glyph glyph-name="divide" unicode="&#xf7;" 
d="M111 437l25 157q192 6 364 6q61 0 114 -1t136 -2.5t161 -2.5h17l-31 -157h-18q-88 1 -213 4t-200 3q-87 0 -355 -7zM330 258h250l-52 -270h-250zM477 1026h251l-52 -269h-251z" />
    <glyph glyph-name="oslash" unicode="&#xf8;" 
d="M235 356l505 465q-48 57 -144 57q-148 0 -230 -106t-120 -303q-11 -58 -11 -103v-10zM936 804q12 -53 12 -114q0 -69 -15 -147q-17 -89 -44.5 -166t-71.5 -147.5t-100 -120t-135 -79t-173 -29.5h-2q-168 1 -252 90l-111 -100l-91 104l133 123q-13 49 -13 110t14 136
q22 115 62.5 213t101 179.5t148.5 128.5t193 47q192 0 276 -92l137 127l99 -111zM621 215q104 83 150 315q1 3 2 9t2 9q12 65 12 109v10l-501 -455q53 -56 153 -56q57 1 97.5 14t84.5 45z" />
    <glyph glyph-name="ugrave" unicode="&#xf9;" 
d="M851 1187l-107 -123q-96 67 -214.5 195.5t-172.5 230.5l160 104q71 -121 160 -234.5t174 -172.5zM808 -10q-3 2 -25 19t-31 27t-24 31.5t-21.5 50t-6.5 64.5q0 47 15 116q-74 -136 -176.5 -216.5t-213.5 -81.5q-101 0 -173.5 62.5t-72.5 162.5q0 22 5 50q18 98 56 260
t63 278.5t25 163.5q0 12 -1 17l165 27v-10q0 -43 -19.5 -135.5t-57 -260t-64.5 -309.5q-5 -30 -5 -52q0 -99 88 -99q59 0 123.5 50t122 131.5t105.5 171t86 183.5l69 337l158 -22l-151 -767q-2 -16 -2 -22q0 -16 3.5 -29.5t12.5 -26t14.5 -19t20 -19.5t17.5 -16z" />
    <glyph glyph-name="uacute" unicode="&#xfa;" 
d="M412 1216q100 30 246 125.5t250 185.5l117 -150q-85 -80 -262 -179.5t-288 -131.5zM808 -10q-3 2 -25 19t-31 27t-24 31.5t-21.5 50t-6.5 64.5q0 47 15 116q-74 -136 -176.5 -216.5t-213.5 -81.5q-101 0 -173.5 62.5t-72.5 162.5q0 22 5 50q18 98 56 260t63 278.5
t25 163.5q0 12 -1 17l165 27v-10q0 -43 -19.5 -135.5t-57 -260t-64.5 -309.5q-5 -30 -5 -52q0 -99 88 -99q59 0 123.5 50t122 131.5t105.5 171t86 183.5l69 337l158 -22l-151 -767q-2 -16 -2 -22q0 -16 3.5 -29.5t12.5 -26t14.5 -19t20 -19.5t17.5 -16z" />
    <glyph glyph-name="ucircumflex" unicode="&#xfb;" 
d="M723 1501l293 -327l-117 -102l-204 231l-339 -236l-87 122zM808 -10q-3 2 -25 19t-31 27t-24 31.5t-21.5 50t-6.5 64.5q0 47 15 116q-74 -136 -176.5 -216.5t-213.5 -81.5q-101 0 -173.5 62.5t-72.5 162.5q0 22 5 50q18 98 56 260t63 278.5t25 163.5q0 12 -1 17l165 27
v-10q0 -43 -19.5 -135.5t-57 -260t-64.5 -309.5q-5 -30 -5 -52q0 -99 88 -99q59 0 123.5 50t122 131.5t105.5 171t86 183.5l69 337l158 -22l-151 -767q-2 -16 -2 -22q0 -16 3.5 -29.5t12.5 -26t14.5 -19t20 -19.5t17.5 -16z" />
    <glyph glyph-name="udieresis" unicode="&#xfc;" 
d="M381 1409l234 -3l-44 -225l-234 3zM786 1406l234 -3l-43 -225l-235 3zM808 -10q-3 2 -25 19t-31 27t-24 31.5t-21.5 50t-6.5 64.5q0 47 15 116q-74 -136 -176.5 -216.5t-213.5 -81.5q-101 0 -173.5 62.5t-72.5 162.5q0 22 5 50q18 98 56 260t63 278.5t25 163.5
q0 12 -1 17l165 27v-10q0 -43 -19.5 -135.5t-57 -260t-64.5 -309.5q-5 -30 -5 -52q0 -99 88 -99q59 0 123.5 50t122 131.5t105.5 171t86 183.5l69 337l158 -22l-151 -767q-2 -16 -2 -22q0 -16 3.5 -29.5t12.5 -26t14.5 -19t20 -19.5t17.5 -16z" />
    <glyph glyph-name="yacute" unicode="&#xfd;" 
d="M422 1216q100 30 246 125.5t250 185.5l117 -150q-85 -80 -262 -179.5t-288 -131.5zM-2 -110q28 -36 79.5 -74.5t99.5 -38.5q34 0 68.5 21t67 60.5t52 68.5t46.5 73q-12 127 -32 262t-48.5 273.5t-68.5 229.5t-83 97q-2 0 -5.5 0.5t-5.5 0.5q-32 0 -40 -8l-13 168
q48 6 77 6q34 0 71 -9q56 -14 106 -103.5t84.5 -222t57.5 -259.5t37 -252q85 163 190.5 423t160.5 436l152 -42q-232 -676 -453 -1027q-118 -187 -218.5 -268t-219.5 -81q-82 0 -153 47t-114 101z" />
    <glyph glyph-name="thorn" unicode="&#xfe;" 
d="M798 668q0 94 -41.5 142t-133.5 48q-156 0 -287 -160l-85 -436q8 -10 22.5 -31t24.5 -32t28 -25t43.5 -20t59.5 -6q73 0 138 31.5t117.5 92.5t83 163t30.5 233zM188 739q1 4 36.5 189t36.5 189q17 88 17 153q0 18 -1 26l168 20q0 -2 -0.5 -18.5t-2 -37t-4.5 -35.5
l-59 -303q60 46 123 68.5t150 22.5q139 0 223 -86.5t84 -227.5q0 -706 -574 -706q-18 0 -34.5 1.5t-28.5 3.5t-25.5 7t-20 7.5t-18.5 10t-15.5 10t-16 12t-15.5 11.5l-40 -207q-19 -100 -32 -246l-161 -9q8 112 37 260z" />
    <glyph glyph-name="ydieresis" unicode="&#xff;" 
d="M415 1402l234 -3l-44 -225l-234 3zM820 1399l234 -3l-43 -225l-235 3zM-2 -110q28 -36 79.5 -74.5t99.5 -38.5q34 0 68.5 21t67 60.5t52 68.5t46.5 73q-12 127 -32 262t-48.5 273.5t-68.5 229.5t-83 97q-2 0 -5.5 0.5t-5.5 0.5q-32 0 -40 -8l-13 168q48 6 77 6
q34 0 71 -9q56 -14 106 -103.5t84.5 -222t57.5 -259.5t37 -252q85 163 190.5 423t160.5 436l152 -42q-232 -676 -453 -1027q-118 -187 -218.5 -268t-219.5 -81q-82 0 -153 47t-114 101z" />
    <glyph glyph-name="Amacron" unicode="&#x100;" 
d="M991 1539l-30 -152h-17q-58 -2 -202 -2q-149 0 -217 2l-17 1l30 155l18 -2q65 -2 254 -2h164h17zM739 495l-80 587l-304 -607q46 10 203 17zM800 0l-50 332q-10 0 -49.5 -1t-56 -1.5t-55.5 -1.5t-60.5 -2t-56.5 -2.5t-58.5 -4t-51.5 -5t-50.5 -6.5t-41.5 -8l-93 -179
q-39 -71 -48 -121h-162q4 20 25 72.5t38 86.5l582 1142h171l186 -1301h-169z" />
    <glyph glyph-name="amacron" unicode="&#x101;" 
d="M934 1336l-30 -152h-17q-58 -2 -202 -2q-149 0 -217 2l-17 1l30 155l18 -2q65 -2 254 -2h164h17zM243 514q-25 -93 -25 -168q0 -94 36 -148t96 -54q65 0 124.5 33.5t102.5 81.5t82.5 115t62.5 121t44 113l45 196q-36 25 -60 39.5t-71.5 30.5t-95.5 16q-138 0 -211.5 -86
t-129.5 -290zM1006 1002l-120 -646q-20 -102 -20 -142q0 -36 11.5 -56.5t41.5 -48.5l-106 -119q-4 3 -21 17.5t-23 21t-19 24t-18.5 34t-10.5 44t-5 60.5q0 16 1 25q-26 -38 -58 -71.5t-81 -71t-115.5 -59.5t-141.5 -22q-115 0 -185 98.5t-70 252.5q0 79 19 161
q65 278 182.5 404t336.5 126q58 0 107.5 -12.5t73.5 -25.5t56 -35q6 30 10 65z" />
    <glyph glyph-name="Abreve" unicode="&#x102;" 
d="M736 1544q79 0 147.5 46t84.5 106l160 -30q-43 -131 -155.5 -203t-266.5 -72q-40 0 -79.5 8t-80.5 29t-72 52.5t-51.5 83t-21.5 116.5l164 14q5 -150 171 -150zM739 495l-80 587l-304 -607q46 10 203 17zM800 0l-50 332q-10 0 -49.5 -1t-56 -1.5t-55.5 -1.5t-60.5 -2
t-56.5 -2.5t-58.5 -4t-51.5 -5t-50.5 -6.5t-41.5 -8l-93 -179q-39 -71 -48 -121h-162q4 20 25 72.5t38 86.5l582 1142h171l186 -1301h-169z" />
    <glyph glyph-name="abreve" unicode="&#x103;" 
d="M663 1268q79 0 147.5 46t84.5 106l160 -30q-43 -131 -155.5 -203t-266.5 -72q-40 0 -79.5 8t-80.5 29t-72 52.5t-51.5 83t-21.5 116.5l164 14q5 -150 171 -150zM243 514q-25 -93 -25 -168q0 -94 36 -148t96 -54q65 0 124.5 33.5t102.5 81.5t82.5 115t62.5 121t44 113
l45 196q-36 25 -60 39.5t-71.5 30.5t-95.5 16q-138 0 -211.5 -86t-129.5 -290zM1006 1002l-120 -646q-20 -102 -20 -142q0 -36 11.5 -56.5t41.5 -48.5l-106 -119q-4 3 -21 17.5t-23 21t-19 24t-18.5 34t-10.5 44t-5 60.5q0 16 1 25q-26 -38 -58 -71.5t-81 -71t-115.5 -59.5
t-141.5 -22q-115 0 -185 98.5t-70 252.5q0 79 19 161q65 278 182.5 404t336.5 126q58 0 107.5 -12.5t73.5 -25.5t56 -35q6 30 10 65z" />
    <glyph glyph-name="Aogonek" unicode="&#x104;" 
d="M739 495l-80 587l-304 -607q46 10 203 17zM969 0q-45 -31 -140 -78t-156.5 -85t-67.5 -71q-1 -5 -1 -15q0 -33 30 -51t76 -18q27 0 56.5 11t42 18.5t40.5 25.5l58 -106q-42 -38 -107 -65.5t-122 -27.5q-118 0 -175.5 46t-57.5 129q0 29 5 53q12 60 59.5 108.5t98.5 72.5
t108.5 51t77.5 43l-44 291q-10 0 -49.5 -1t-56 -1.5t-55.5 -1.5t-60.5 -2t-56.5 -2.5t-58.5 -4t-51.5 -5t-50.5 -6.5t-41.5 -8l-93 -179q-39 -71 -48 -121h-162q4 20 25 72.5t38 86.5l582 1142h171z" />
    <glyph glyph-name="aogonek" unicode="&#x105;" 
d="M1006 1002l-120 -646q-20 -102 -20 -142q0 -46 2.5 -60t13.5 -14q9 0 18 4l63 -101q-46 -32 -164 -84.5t-204.5 -98t-92.5 -77.5q-1 -5 -1 -15q0 -33 30 -51t76 -18q27 0 56.5 11t42 18.5t40.5 25.5l58 -106q-42 -38 -107 -65.5t-122 -27.5q-118 0 -175.5 46t-57.5 129
q0 29 5 53q6 32 30 62.5t52 52.5t77 48.5t82 41t92.5 40t83.5 36.5q-49 36 -49 109q0 16 1 25q-25 -36 -57.5 -68.5t-81 -65.5t-115 -52.5t-141.5 -19.5q-115 0 -185 98.5t-70 252.5q0 79 19 161q65 278 182.5 404t336.5 126q58 0 107.5 -12.5t73.5 -25.5t56 -35q6 30 10 65
zM243 514q-25 -93 -25 -168q0 -94 36 -148t96 -54q65 0 124.5 33.5t102.5 81.5t82.5 115t62.5 121t44 113l45 196q-36 25 -60 39.5t-71.5 30.5t-95.5 16q-138 0 -211.5 -86t-129.5 -290z" />
    <glyph glyph-name="Cacute" unicode="&#x106;" 
d="M517 1496q100 30 246 125.5t250 185.5l117 -150q-85 -80 -262 -179.5t-288 -131.5zM718 1152q-78 0 -150 -41.5t-122.5 -103t-91 -136.5t-62.5 -137t-31 -109q-19 -95 -19 -172q0 -148 71 -229q37 -43 75.5 -58t101.5 -15h14q201 7 321 191l125 -76q-82 -123 -198 -196
t-253 -73h-3q-217 0 -314 117q-100 127 -100 319q0 84 20 190q56 291 228 486q75 86 186 141.5t235 55.5q109 0 196 -60.5t128 -176.5l-135 -81q-27 84 -88.5 124t-133.5 40z" />
    <glyph glyph-name="cacute" unicode="&#x107;" 
d="M417 1214q100 30 246 125.5t250 185.5l117 -150q-85 -80 -262 -179.5t-288 -131.5zM242 389q0 -239 259 -239h13q107 0 179 44.5t134 122.5l116 -111q-2 -2 -17 -18t-25.5 -26t-31.5 -29.5t-41 -33t-48.5 -31.5t-59 -29.5t-66.5 -23t-78.5 -17t-87.5 -5.5
q-180 0 -295.5 99t-115.5 250q0 85 22 205q46 241 197.5 356t388.5 115q127 0 201 -61.5t99 -167.5l-156 -53q-6 28 -15 48.5t-28.5 40t-54.5 30t-85 10.5q-161 0 -258.5 -82.5t-128.5 -243.5q-17 -93 -17 -150z" />
    <glyph glyph-name="Ccircumflex" unicode="&#x108;" 
d="M828 1771l293 -327l-117 -102l-204 231l-339 -236l-87 122zM718 1152q-78 0 -150 -41.5t-122.5 -103t-91 -136.5t-62.5 -137t-31 -109q-19 -95 -19 -172q0 -148 71 -229q37 -43 75.5 -58t101.5 -15h14q201 7 321 191l125 -76q-82 -123 -198 -196t-253 -73h-3
q-217 0 -314 117q-100 127 -100 319q0 84 20 190q56 291 228 486q75 86 186 141.5t235 55.5q109 0 196 -60.5t128 -176.5l-135 -81q-27 84 -88.5 124t-133.5 40z" />
    <glyph glyph-name="ccircumflex" unicode="&#x109;" 
d="M763 1489l293 -327l-117 -102l-204 231l-339 -236l-87 122zM242 389q0 -239 259 -239h13q107 0 179 44.5t134 122.5l116 -111q-2 -2 -17 -18t-25.5 -26t-31.5 -29.5t-41 -33t-48.5 -31.5t-59 -29.5t-66.5 -23t-78.5 -17t-87.5 -5.5q-180 0 -295.5 99t-115.5 250
q0 85 22 205q46 241 197.5 356t388.5 115q127 0 201 -61.5t99 -167.5l-156 -53q-6 28 -15 48.5t-28.5 40t-54.5 30t-85 10.5q-161 0 -258.5 -82.5t-128.5 -243.5q-17 -93 -17 -150z" />
    <glyph glyph-name="Cdotaccent" unicode="&#x10a;" 
d="M685 1649l235 -3l-43 -225l-236 3zM718 1152q-78 0 -150 -41.5t-122.5 -103t-91 -136.5t-62.5 -137t-31 -109q-19 -95 -19 -172q0 -148 71 -229q37 -43 75.5 -58t101.5 -15h14q201 7 321 191l125 -76q-82 -123 -198 -196t-253 -73h-3q-217 0 -314 117q-100 127 -100 319
q0 84 20 190q56 291 228 486q75 86 186 141.5t235 55.5q109 0 196 -60.5t128 -176.5l-135 -81q-27 84 -88.5 124t-133.5 40z" />
    <glyph glyph-name="cdotaccent" unicode="&#x10b;" 
d="M634 1403l235 -3l-43 -225l-236 3zM242 389q0 -239 259 -239h13q107 0 179 44.5t134 122.5l116 -111q-2 -2 -17 -18t-25.5 -26t-31.5 -29.5t-41 -33t-48.5 -31.5t-59 -29.5t-66.5 -23t-78.5 -17t-87.5 -5.5q-180 0 -295.5 99t-115.5 250q0 85 22 205q46 241 197.5 356
t388.5 115q127 0 201 -61.5t99 -167.5l-156 -53q-6 28 -15 48.5t-28.5 40t-54.5 30t-85 10.5q-161 0 -258.5 -82.5t-128.5 -243.5q-17 -93 -17 -150z" />
    <glyph glyph-name="Ccaron" unicode="&#x10c;" 
d="M720 1360l-298 323l114 103l208 -227l336 241l88 -121zM718 1152q-78 0 -150 -41.5t-122.5 -103t-91 -136.5t-62.5 -137t-31 -109q-19 -95 -19 -172q0 -148 71 -229q37 -43 75.5 -58t101.5 -15h14q201 7 321 191l125 -76q-82 -123 -198 -196t-253 -73h-3q-217 0 -314 117
q-100 127 -100 319q0 84 20 190q56 291 228 486q75 86 186 141.5t235 55.5q109 0 196 -60.5t128 -176.5l-135 -81q-27 84 -88.5 124t-133.5 40z" />
    <glyph glyph-name="ccaron" unicode="&#x10d;" 
d="M664 1072l-298 323l114 103l208 -227l336 241l88 -121zM242 389q0 -239 259 -239h13q107 0 179 44.5t134 122.5l116 -111q-2 -2 -17 -18t-25.5 -26t-31.5 -29.5t-41 -33t-48.5 -31.5t-59 -29.5t-66.5 -23t-78.5 -17t-87.5 -5.5q-180 0 -295.5 99t-115.5 250q0 85 22 205
q46 241 197.5 356t388.5 115q127 0 201 -61.5t99 -167.5l-156 -53q-6 28 -15 48.5t-28.5 40t-54.5 30t-85 10.5q-161 0 -258.5 -82.5t-128.5 -243.5q-17 -93 -17 -150z" />
    <glyph glyph-name="Dcaron" unicode="&#x10e;" 
d="M589 1363l-298 323l114 103l208 -227l336 241l88 -121zM458 1152h-30q-33 0 -45 -2q-5 -30 -16 -86q-6 -29 -19.5 -95.5t-20.5 -102.5q-83 -428 -144 -722q87 -3 192 -3q285 0 400 205q18 33 37 89t27 98q20 103 20 200q0 140 -40 221q-35 70 -73.5 110t-109.5 64
t-178 24zM19 125q3 19 29 141.5t62 301t63 315.5l14 74q41 215 52 334q135 13 227 13q201 0 317 -61.5t183 -197.5q57 -119 57 -285q0 -89 -19 -192q-24 -126 -61 -219t-97 -170t-150.5 -122.5t-212.5 -59.5q-65 -7 -162 -7q-38 0 -153.5 3.5t-176.5 3.5q5 28 28 128z" />
    <glyph glyph-name="dcaron" unicode="&#x10f;" 
d="M206 514q-25 -93 -25 -168q0 -94 36 -148t96 -54q37 0 69.5 10t59.5 30t50 42.5t43 57t34.5 62t30 69t25 67.5t23 67t19.5 59l44 196q-66 86 -198 86q-109 0 -181 -89.5t-126 -286.5zM981 1388l-194 -1032q-19 -96 -19 -142q0 -37 11 -57.5t40 -47.5l-106 -119
q-5 4 -20 17t-21 19t-17 20t-15.5 27t-8.5 33.5t-4 45.5v25q-23 -33 -38 -52.5t-46 -48t-63.5 -44.5t-83.5 -28t-112 -12q-115 0 -185 98.5t-70 252.5q0 79 19 161q64 274 177.5 402t307.5 128q88 0 133 -18t75 -55q5 24 45 232.5t41 218.5zM1097 1397l143 -7
q-24 -250 -213 -420l-83 55q42 39 93 149.5t60 222.5z" />
    <glyph glyph-name="Dcroat" unicode="&#x110;" 
d="M458 1152h-30q-33 0 -45 -2q-5 -30 -16 -86q-7 -37 -28 -137h327v-147h-356q-66 -341 -127 -636q87 -3 192 -3q285 0 400 205q18 33 37 89t27 98q20 103 20 200q0 140 -40 221q-35 70 -73.5 110t-109.5 64t-178 24zM181 927l6 30q41 215 52 334q135 13 227 13
q201 0 317 -61.5t183 -197.5q57 -119 57 -285q0 -89 -19 -192q-24 -126 -61 -219t-97 -170t-150.5 -122.5t-212.5 -59.5q-65 -7 -162 -7q-38 0 -153.5 3.5t-176.5 3.5q5 28 28 128q3 18 24 118.5t53 256t57 280.5h-87v147h115z" />
    <glyph glyph-name="dcroat" unicode="&#x111;" 
d="M206 514q-25 -93 -25 -168q0 -94 36 -148t96 -54q65 0 124.5 33.5t102.5 81.5t82.5 115t62.5 121t44 113l45 196q-36 25 -60 39.5t-71.5 30.5t-95.5 16q-138 0 -211.5 -86t-129.5 -290zM993 1119l-144 -763q-19 -96 -19 -142q0 -36 11.5 -56.5t40.5 -48.5l-106 -119
q-1 1 -12.5 11t-13.5 12.5t-12.5 12.5t-14 14.5t-12 16t-11.5 18.5t-8.5 19.5t-7.5 23.5t-4 25.5t-2 29.5q0 16 1 25q-25 -36 -57.5 -68.5t-81 -65.5t-115 -52.5t-141.5 -19.5q-115 0 -185 98.5t-70 252.5q0 79 19 161q65 278 182.5 404t336.5 126q58 0 107.5 -12.5
t73.5 -25.5t56 -35q10 47 31 158h-287v150h315q24 127 26 143l155 -24l-23 -119h106v-150h-134z" />
    <glyph glyph-name="Emacron" unicode="&#x112;" 
d="M954 1584l-30 -152h-17q-58 -2 -202 -2q-149 0 -217 2l-17 1l30 155l18 -2q65 -2 254 -2h164h17zM278 1293q57 4 205 4h98h110q84 0 207.5 -1.5t151.5 -1.5h16v-150h-659l-63 -328h438v-150h-468l-5 -30q-23 -119 -59 -296t-39 -192h519q25 0 51 5t40 10l14 5l50 -141
q-75 -30 -165 -30h-694z" />
    <glyph glyph-name="emacron" unicode="&#x113;" 
d="M914 1334l-30 -152h-17q-58 -2 -202 -2q-149 0 -217 2l-17 1l30 155l18 -2q65 -2 254 -2h164h17zM262 492q68 5 105.5 8.5t109.5 13t127.5 26.5t95.5 41q111 67 111 154q0 58 -54.5 96t-152.5 38q-129 0 -217.5 -95.5t-124.5 -281.5zM632 1021q153 0 239 -82.5t86 -198.5
q0 -78 -42 -151t-121 -122q-70 -43 -183 -71.5t-188 -37.5t-177 -17v-11q0 -24 5.5 -47.5t21 -49.5t40.5 -45t67.5 -32t98.5 -13q205 0 327 135l102 -109q-1 -1 -19 -18t-26.5 -23.5t-31 -24.5t-41 -27.5t-47.5 -25t-59.5 -24.5t-67.5 -18.5t-80.5 -13.5t-90.5 -4
q-179 0 -269 96.5t-90 269.5q0 72 17 160q44 223 184 364t345 141z" />
    <glyph glyph-name="Ebreve" unicode="&#x114;" 
d="M729 1530.85q79 0 147.5 46.4834t84.5 107.112l160 -30.3145q-43 -132.375 -155.5 -205.131t-266.5 -72.7559q-40 0 -79.5 8.08398t-80.5 29.3047q-41 21.2197 -72 53.0508q-31 31.8301 -51.5 83.8711t-21.5 117.723l164 14.1475q5 -151.575 171 -151.575zM278 1293
q57 4 205 4h98h110q84 0 207.5 -1.5t151.5 -1.5h16v-150h-659l-63 -328h438v-150h-468l-5 -30q-23 -119 -59 -296t-39 -192h519q25 0 51 5t40 10l14 5l50 -141q-75 -30 -165 -30h-694z" />
    <glyph glyph-name="ebreve" unicode="&#x115;" 
d="M704 1244q79 0 147.5 46t84.5 106l160 -30q-43 -131 -155.5 -203t-266.5 -72q-40 0 -79.5 8t-80.5 29t-72 52.5t-51.5 83t-21.5 116.5l164 14q5 -150 171 -150zM262 492q68 5 105.5 8.5t109.5 13t127.5 26.5t95.5 41q111 67 111 154q0 58 -54.5 96t-152.5 38
q-129 0 -217.5 -95.5t-124.5 -281.5zM632 1021q153 0 239 -82.5t86 -198.5q0 -78 -42 -151t-121 -122q-70 -43 -183 -71.5t-188 -37.5t-177 -17v-11q0 -24 5.5 -47.5t21 -49.5t40.5 -45t67.5 -32t98.5 -13q205 0 327 135l102 -109q-1 -1 -19 -18t-26.5 -23.5t-31 -24.5
t-41 -27.5t-47.5 -25t-59.5 -24.5t-67.5 -18.5t-80.5 -13.5t-90.5 -4q-179 0 -269 96.5t-90 269.5q0 72 17 160q44 223 184 364t345 141z" />
    <glyph glyph-name="Edotaccent" unicode="&#x116;" 
d="M632 1649l235 -3l-43 -225l-236 3zM278 1293q57 4 205 4h98h110q84 0 207.5 -1.5t151.5 -1.5h16v-150h-659l-63 -328h438v-150h-468l-5 -30q-23 -119 -59 -296t-39 -192h519q25 0 51 5t40 10l14 5l50 -141q-75 -30 -165 -30h-694z" />
    <glyph glyph-name="edotaccent" unicode="&#x117;" 
d="M584 1404l235 -3l-43 -225l-236 3zM262 492q68 5 105.5 8.5t109.5 13t127.5 26.5t95.5 41q111 67 111 154q0 58 -54.5 96t-152.5 38q-129 0 -217.5 -95.5t-124.5 -281.5zM632 1021q153 0 239 -82.5t86 -198.5q0 -78 -42 -151t-121 -122q-70 -43 -183 -71.5t-188 -37.5
t-177 -17v-11q0 -24 5.5 -47.5t21 -49.5t40.5 -45t67.5 -32t98.5 -13q205 0 327 135l102 -109q-1 -1 -19 -18t-26.5 -23.5t-31 -24.5t-41 -27.5t-47.5 -25t-59.5 -24.5t-67.5 -18.5t-80.5 -13.5t-90.5 -4q-179 0 -269 96.5t-90 269.5q0 72 17 160q44 223 184 364t345 141z
" />
    <glyph glyph-name="Eogonek" unicode="&#x118;" 
d="M278 1293q57 4 205 4h98h110q84 0 207.5 -1.5t151.5 -1.5h16l-4 -154l-655 4l-63 -328h438l-4 -154l-464 4l-5 -30q-23 -119 -59 -296t-39 -192h519q25 0 44 5t26 9l7 5l78 -140q-38 -27 -111 -66.5t-126.5 -68.5t-96 -65.5t-42.5 -66.5q0 -34 28 -53.5t73 -19.5
q27 0 56.5 11t42 18.5t40.5 25.5l58 -106q-42 -38 -107 -65.5t-122 -27.5q-111 0 -169.5 56.5t-58.5 122.5q0 48 18.5 89.5t55 75.5t71.5 58t86 52h-555z" />
    <glyph glyph-name="eogonek" unicode="&#x119;" 
d="M262 492q68 5 105.5 8.5t109.5 13t127.5 26.5t95.5 41q111 67 111 154q0 58 -54.5 96t-152.5 38q-129 0 -217.5 -95.5t-124.5 -281.5zM632 1021q153 0 239 -82.5t86 -198.5q0 -78 -42 -151t-121 -122q-70 -43 -183 -71.5t-188 -37.5t-177 -17v-11q0 -24 5.5 -47.5
t21 -49.5t40.5 -45t67.5 -32t98.5 -13q123 0 214 36.5t134 84.5l102 -109q-35 -38 -103.5 -78t-138.5 -73.5t-137 -68t-113 -73.5t-54 -77q-1 -5 -1 -15q0 -33 30 -51t76 -18q27 0 56.5 11t42 18.5t40.5 25.5l58 -106q-42 -38 -107 -65.5t-122 -27.5q-118 0 -175.5 46
t-57.5 129q0 29 5 53q24 109 171 207q-156 12 -234.5 107.5t-78.5 256.5q0 72 17 160q44 223 184 364t345 141z" />
    <glyph glyph-name="Ecaron" unicode="&#x11a;" 
d="M682 1342l-298 323l114 103l208 -227l336 241l88 -121zM278 1293q57 4 205 4h98h110q84 0 207.5 -1.5t151.5 -1.5h16v-150h-659l-63 -328h438v-150h-468l-5 -30q-23 -119 -59 -296t-39 -192h519q25 0 51 5t40 10l14 5l50 -141q-75 -30 -165 -30h-694z" />
    <glyph glyph-name="ecaron" unicode="&#x11b;" 
d="M636 1063l-298 323l114 103l208 -227l336 241l88 -121zM262 492q68 5 105.5 8.5t109.5 13t127.5 26.5t95.5 41q111 67 111 154q0 58 -54.5 96t-152.5 38q-129 0 -217.5 -95.5t-124.5 -281.5zM632 1021q153 0 239 -82.5t86 -198.5q0 -78 -42 -151t-121 -122
q-70 -43 -183 -71.5t-188 -37.5t-177 -17v-11q0 -24 5.5 -47.5t21 -49.5t40.5 -45t67.5 -32t98.5 -13q205 0 327 135l102 -109q-1 -1 -19 -18t-26.5 -23.5t-31 -24.5t-41 -27.5t-47.5 -25t-59.5 -24.5t-67.5 -18.5t-80.5 -13.5t-90.5 -4q-179 0 -269 96.5t-90 269.5
q0 72 17 160q44 223 184 364t345 141z" />
    <glyph glyph-name="Gcircumflex" unicode="&#x11c;" 
d="M781 1759l293 -327l-117 -102l-204 231l-339 -236l-87 122zM1050 733l-15 -128q-15 -128 -46 -227t-69 -162t-90.5 -108t-101.5 -67.5t-111 -37.5q-52 -11 -154 -11q-211 0 -313.5 120.5t-102.5 323.5q0 89 20 192q74 379 293 558q154 116 351 116h20q297 -7 368 -276
l-166 -46q-24 90 -77 130t-165 40q-73 0 -124 -13.5t-114 -59.5q-160 -118 -226 -460q-19 -97 -19 -172q0 -298 296 -298q155 0 235 100.5t126 339.5h-14q-23 0 -63 0.5t-59 0.5q-132 0 -238 -36l-37 141q120 42 309 42q192 0 287 -2z" />
    <glyph glyph-name="gcircumflex" unicode="&#x11d;" 
d="M762 1557l293 -327l-117 -102l-204 231l-339 -236l-87 122zM243 514q-25 -93 -25 -168q0 -94 36 -148t96 -54q65 0 124.5 33.5t102.5 81.5t82.5 115t62.5 121t44 113l45 196q-36 25 -60 39.5t-71.5 30.5t-95.5 16q-138 0 -211.5 -86t-129.5 -290zM1006 1002l-120 -646
q-46 -244 -91 -370q-140 -388 -441 -388q-185 0 -429 145l76 150q201 -140 347 -140q46 0 87 15.5t71 37t58 60t45 67.5t36 77.5t27 72.5t21.5 70t15.5 54q-148 -215 -388 -215q-115 0 -185 98.5t-70 252.5q0 79 19 161q65 278 182.5 404t336.5 126q58 0 107.5 -12.5
t73.5 -25.5t56 -35q6 30 10 65z" />
    <glyph glyph-name="Gbreve" unicode="&#x11e;" 
d="M723 1526q79 0 147.5 46t84.5 106l160 -30q-43 -131 -155.5 -203t-266.5 -72q-40 0 -79.5 8t-80.5 29t-72 52.5t-51.5 83t-21.5 116.5l164 14q5 -150 171 -150zM1050 733l-15 -128q-15 -128 -46 -227t-69 -162t-90.5 -108t-101.5 -67.5t-111 -37.5q-52 -11 -154 -11
q-211 0 -313.5 120.5t-102.5 323.5q0 89 20 192q74 379 293 558q154 116 351 116h20q297 -7 368 -276l-166 -46q-24 90 -77 130t-165 40q-73 0 -124 -13.5t-114 -59.5q-160 -118 -226 -460q-19 -97 -19 -172q0 -298 296 -298q155 0 235 100.5t126 339.5h-14q-23 0 -63 0.5
t-59 0.5q-132 0 -238 -36l-37 141q120 42 309 42q192 0 287 -2z" />
    <glyph glyph-name="gbreve" unicode="&#x11f;" 
d="M679 1259q79 0 147.5 46t84.5 106l160 -30q-43 -131 -155.5 -203t-266.5 -72q-40 0 -79.5 8t-80.5 29t-72 52.5t-51.5 83t-21.5 116.5l164 14q5 -150 171 -150zM243 514q-25 -93 -25 -168q0 -94 36 -148t96 -54q65 0 124.5 33.5t102.5 81.5t82.5 115t62.5 121t44 113
l45 196q-36 25 -60 39.5t-71.5 30.5t-95.5 16q-138 0 -211.5 -86t-129.5 -290zM1006 1002l-120 -646q-46 -244 -91 -370q-140 -388 -441 -388q-185 0 -429 145l76 150q201 -140 347 -140q46 0 87 15.5t71 37t58 60t45 67.5t36 77.5t27 72.5t21.5 70t15.5 54
q-148 -215 -388 -215q-115 0 -185 98.5t-70 252.5q0 79 19 161q65 278 182.5 404t336.5 126q58 0 107.5 -12.5t73.5 -25.5t56 -35q6 30 10 65z" />
    <glyph glyph-name="Gdotaccent" unicode="&#x120;" 
d="M665 1652l235 -3l-43 -225l-236 3zM1050 733l-15 -128q-15 -128 -46 -227t-69 -162t-90.5 -108t-101.5 -67.5t-111 -37.5q-52 -11 -154 -11q-211 0 -313.5 120.5t-102.5 323.5q0 89 20 192q74 379 293 558q154 116 351 116h20q297 -7 368 -276l-166 -46q-24 90 -77 130
t-165 40q-73 0 -124 -13.5t-114 -59.5q-160 -118 -226 -460q-19 -97 -19 -172q0 -298 296 -298q155 0 235 100.5t126 339.5h-14q-23 0 -63 0.5t-59 0.5q-132 0 -238 -36l-37 141q120 42 309 42q192 0 287 -2z" />
    <glyph glyph-name="gdotaccent" unicode="&#x121;" 
d="M590 1411l235 -3l-43 -225l-236 3zM243 514q-25 -93 -25 -168q0 -94 36 -148t96 -54q65 0 124.5 33.5t102.5 81.5t82.5 115t62.5 121t44 113l45 196q-36 25 -60 39.5t-71.5 30.5t-95.5 16q-138 0 -211.5 -86t-129.5 -290zM1006 1002l-120 -646q-46 -244 -91 -370
q-140 -388 -441 -388q-185 0 -429 145l76 150q201 -140 347 -140q46 0 87 15.5t71 37t58 60t45 67.5t36 77.5t27 72.5t21.5 70t15.5 54q-148 -215 -388 -215q-115 0 -185 98.5t-70 252.5q0 79 19 161q65 278 182.5 404t336.5 126q58 0 107.5 -12.5t73.5 -25.5t56 -35
q6 30 10 65z" />
    <glyph glyph-name="Gcommaaccent" unicode="&#x122;" 
d="M341 -130h252l-45 -263v-3q-55 -287 -329 -401l-34 139q80 40 126 99.5t66 159.5h-88zM1050 733l-15 -128q-15 -128 -46 -227t-69 -162t-90.5 -108t-101.5 -67.5t-111 -37.5q-52 -11 -154 -11q-211 0 -313.5 120.5t-102.5 323.5q0 89 20 192q74 379 293 558
q154 116 351 116h20q297 -7 368 -276l-166 -46q-24 90 -77 130t-165 40q-73 0 -124 -13.5t-114 -59.5q-160 -118 -226 -460q-19 -97 -19 -172q0 -298 296 -298q155 0 235 100.5t126 339.5h-14q-23 0 -63 0.5t-59 0.5q-132 0 -238 -36l-37 141q120 42 309 42q192 0 287 -2z
" />
    <glyph glyph-name="gcommaaccent" unicode="&#x123;" 
d="M635 1170q27 50 54.5 106t64 134t63.5 132l145 -34q-51 -157 -142 -386zM243 514q-25 -93 -25 -168q0 -94 36 -148t96 -54q65 0 124.5 33.5t102.5 81.5t82.5 115t62.5 121t44 113l45 196q-36 25 -60 39.5t-71.5 30.5t-95.5 16q-138 0 -211.5 -86t-129.5 -290zM1006 1002
l-120 -646q-46 -244 -91 -370q-140 -388 -441 -388q-185 0 -429 145l76 150q201 -140 347 -140q46 0 87 15.5t71 37t58 60t45 67.5t36 77.5t27 72.5t21.5 70t15.5 54q-148 -215 -388 -215q-115 0 -185 98.5t-70 252.5q0 79 19 161q65 278 182.5 404t336.5 126
q58 0 107.5 -12.5t73.5 -25.5t56 -35q6 30 10 65z" />
    <glyph glyph-name="Hcircumflex" unicode="&#x124;" 
d="M761 1780l293 -327l-117 -102l-204 231l-339 -236l-87 122zM397 1296l-107 -547q128 28 312 28h228q60 310 99 514h159l-251 -1291h-158l121 625h-129q-273 0 -411 -28q-39 -198 -71 -370.5t-43 -226.5h-161l252 1294z" />
    <glyph glyph-name="hcircumflex" unicode="&#x125;" 
d="M499 1826l293 -327l-117 -102l-204 231l-339 -236l-87 122zM755 576q26 134 26 171q0 53 -29 86.5t-89 33.5q-26 0 -58.5 -10.5t-76.5 -38t-87.5 -68.5t-91 -110t-86.5 -156l-52 -286q-17 -96 -48 -198l-156 8q30 98 49 196l232 1198h159l-111 -570q60 90 141 139t160 49
q305 0 305 -245q0 -39 -17 -133q-20 -102 -73 -367q-13 -59 -13 -78q0 -17 3.5 -30t7 -21t13.5 -15.5t15.5 -10.5t20 -9.5t20.5 -9.5l-66 -136q-73 18 -124 69.5t-51 121.5q0 33 15 104z" />
    <glyph glyph-name="Hbar" unicode="&#x126;" 
d="M222 1217l15 77l160 2l-15 -79h533q2 13 14 74h159l-14 -74h81l-14 -155h-97l-207 -1062h-158l121 625h-129q-273 0 -411 -28q-39 -198 -71 -370.5t-43 -226.5h-161l207 1062h-83l14 155h99zM885 1062h-534l-61 -313q128 28 312 28h228q11 56 29 151t26 134z" />
    <glyph glyph-name="hbar" unicode="&#x127;" 
d="M755 576q26 134 26 171q0 53 -29 86.5t-89 33.5q-26 0 -58.5 -10.5t-76.5 -38t-87.5 -68.5t-91 -110t-86.5 -156l-52 -286q-17 -96 -48 -198l-156 8q30 98 49 196q113 583 166 858h-113l14 155h129l36 185h159l-36 -185h304l-14 -155h-320l-45 -230q60 90 141 139t160 49
q305 0 305 -245q0 -39 -17 -133q-20 -102 -73 -367q-13 -59 -13 -78q0 -17 3.5 -30t7 -21t13.5 -15.5t15.5 -10.5t20 -9.5t20.5 -9.5l-66 -136q-73 18 -124 69.5t-51 121.5q0 33 15 104z" />
    <glyph glyph-name="Itilde" unicode="&#x128;" 
d="M592 1684q38 0 71 -13.5t56.5 -32t45 -37.5t45.5 -32.5t49 -13.5q127 0 172 127l153 -58q-45 -97 -127.5 -159.5t-190.5 -62.5q-45 0 -82 13.5t-61.5 32t-45 37.5t-42.5 32.5t-45 13.5q-62 0 -106 -29.5t-86 -105.5l-150 75q76 118 157 165.5t187 47.5zM329 1298
q157 4 334 4q120 0 364 -3l-30 -152q-65 0 -143 2.5t-123 2.5l-194 -1000q22 0 59.5 0.5t63.5 0.5q75 0 143 -4l-29 -150q-101 6 -209 6q-22 0 -73 -0.5t-82 -0.5q-27 0 -135 -3.5t-196 -3.5l29 149q107 5 193 5h75l195 1000q-193 -3 -266 -7z" />
    <glyph glyph-name="itilde" unicode="&#x129;" 
d="M517.575 1402q35.5625 0 66.4453 -13.5q30.8838 -13.5 52.876 -32t42.1133 -37.5t42.5811 -32.5q22.4609 -13.5 45.8574 -13.5q118.853 0 160.966 127l143.186 -58q-42.1133 -97 -119.321 -159.5q-77.207 -62.5 -178.279 -62.5q-42.1133 0 -76.7402 13.5
q-34.626 13.5 -57.5547 32t-42.1133 37.5t-39.7734 32.5t-42.1133 13.5q-58.0234 0 -99.2012 -29.5q-41.1768 -29.5 -80.4824 -105.5l-140.378 75q71.124 118 146.929 165.5q75.8037 47.5 175.004 47.5zM661 1020l-147 -736q-5 -24 -5 -52q0 -108 112 -108q155 0 270 76
l76 -117q-71 -50 -171.5 -75.5t-200.5 -25.5q-69 0 -118.5 19.5t-76 53.5t-38.5 72t-12 82q0 39 7 71l108 533q-31 -23 -99.5 -59.5t-119.5 -52.5l-58 144q107 45 172 83t81.5 54.5t29.5 37.5h190z" />
    <glyph glyph-name="Imacron" unicode="&#x12a;" 
d="M947 1593l-30 -152h-17q-58 -2 -202 -2q-149 0 -217 2l-17 1l30 155l18 -2q65 -2 254 -2h164h17zM329 1298q157 4 334 4q120 0 364 -3l-30 -152q-65 0 -143 2.5t-123 2.5l-194 -1000q22 0 59.5 0.5t63.5 0.5q75 0 143 -4l-29 -150q-101 6 -209 6q-22 0 -73 -0.5t-82 -0.5
q-27 0 -135 -3.5t-196 -3.5l29 149q107 5 193 5h75l195 1000q-193 -3 -266 -7z" />
    <glyph glyph-name="imacron" unicode="&#x12b;" 
d="M869 1333l-30 -152h-17q-58 -2 -202 -2q-149 0 -217 2l-17 1l30 155l18 -2q65 -2 254 -2h164h17zM661 1020l-147 -736q-5 -24 -5 -52q0 -108 112 -108q155 0 270 76l76 -117q-71 -50 -171.5 -75.5t-200.5 -25.5q-69 0 -118.5 19.5t-76 53.5t-38.5 72t-12 82q0 39 7 71
l108 533q-31 -23 -99.5 -59.5t-119.5 -52.5l-58 144q107 45 172 83t81.5 54.5t29.5 37.5h190z" />
    <glyph glyph-name="Ibreve" unicode="&#x12c;" 
d="M722 1527q79 0 147.5 46t84.5 106l160 -30q-43 -131 -155.5 -203t-266.5 -72q-40 0 -79.5 8t-80.5 29t-72 52.5t-51.5 83t-21.5 116.5l164 14q5 -150 171 -150zM329 1298q157 4 334 4q120 0 364 -3l-30 -152q-65 0 -143 2.5t-123 2.5l-194 -1000q22 0 59.5 0.5t63.5 0.5
q75 0 143 -4l-29 -150q-101 6 -209 6q-22 0 -73 -0.5t-82 -0.5q-27 0 -135 -3.5t-196 -3.5l29 149q107 5 193 5h75l195 1000q-193 -3 -266 -7z" />
    <glyph glyph-name="ibreve" unicode="&#x12d;" 
d="M659 1280q79 0 147.5 46t84.5 106l160 -30q-43 -131 -155.5 -203t-266.5 -72q-40 0 -79.5 8t-80.5 29t-72 52.5t-51.5 83t-21.5 116.5l164 14q5 -150 171 -150zM661 1020l-147 -736q-5 -24 -5 -52q0 -108 112 -108q155 0 270 76l76 -117q-71 -50 -171.5 -75.5
t-200.5 -25.5q-69 0 -118.5 19.5t-76 53.5t-38.5 72t-12 82q0 39 7 71l108 533q-31 -23 -99.5 -59.5t-119.5 -52.5l-58 144q107 45 172 83t81.5 54.5t29.5 37.5h190z" />
    <glyph glyph-name="Iogonek" unicode="&#x12e;" 
d="M329 1298q157 4 334 4q120 0 364 -3l-30 -152q-65 0 -143 2.5t-123 2.5l-194 -1000q22 0 59.5 0.5t63.5 0.5q75 0 143 -4l-29 -150h-8q-39 -26 -138.5 -81t-158 -96.5t-64.5 -73.5q-1 -5 -1 -15q0 -33 30 -51t76 -18q27 0 56.5 11t42 18.5t40.5 25.5l58 -106
q-42 -38 -107 -65.5t-122 -27.5q-118 0 -175.5 46t-57.5 129q0 29 5 53q8 43 34 79.5t67 63.5t76 45t83 38.5t67 30.5q-25 0 -79.5 -0.5t-87.5 -0.5q-27 0 -135 -3.5t-196 -3.5l29 149q107 5 193 5h75l195 1000q-193 -3 -266 -7z" />
    <glyph glyph-name="iogonek" unicode="&#x12f;" 
d="M511 1406h235l-43 -225h-235zM654 1010l-137 -726q-5 -24 -5 -52q0 -108 112 -108q155 0 270 76l76 -117q-11 -8 -25 -16q-45 -28 -182 -99.5t-226.5 -127t-95.5 -86.5q-1 -5 -1 -15q0 -33 30 -51t76 -18q27 0 56.5 11t42 18.5t40.5 25.5l58 -106q-42 -38 -107 -65.5
t-122 -27.5q-118 0 -175.5 46t-57.5 129q0 29 5 53q19 98 239 235q-91 18 -131.5 79t-40.5 141q0 31 7 71l97 511q-49 -37 -214 -90l-58 144q77 26 138 55t93.5 52t53.5 42t28 30l6 10z" />
    <glyph glyph-name="Idotaccent" unicode="&#x130;" 
d="M613 1652l235 -3l-43 -225l-236 3zM329 1298q157 4 334 4q120 0 364 -3l-30 -152q-65 0 -143 2.5t-123 2.5l-194 -1000q22 0 59.5 0.5t63.5 0.5q75 0 143 -4l-29 -150q-101 6 -209 6q-22 0 -73 -0.5t-82 -0.5q-27 0 -135 -3.5t-196 -3.5l29 149q107 5 193 5h75l195 1000
q-193 -3 -266 -7z" />
    <glyph glyph-name="dotlessi" unicode="&#x131;" 
d="M661 1020l-147 -736q-5 -24 -5 -52q0 -108 112 -108q155 0 270 76l76 -117q-71 -50 -171.5 -75.5t-200.5 -25.5q-69 0 -118.5 19.5t-76 53.5t-38.5 72t-12 82q0 39 7 71l108 533q-31 -23 -99.5 -59.5t-119.5 -52.5l-58 144q107 45 172 83t81.5 54.5t29.5 37.5h190z" />
    <glyph glyph-name="IJ" unicode="&#x132;" 
d="M530 1151q-38 1 -99 1l-194 -1000l79 -2l-29 -150q-30 1 -105 1q-41 0 -113 -0.5t-93 -0.5l28 146q34 6 56 6h17l194 1000q-31 0 -40 -0.5t-17 -3t-15 -4.5l28 154q41 4 137 4h130h67zM691 1296q26 0 69 -0.5t61 -0.5q52 0 122.5 1t158.5 1q-35 -169 -108 -655
q-21 -134 -38.5 -224t-42 -168t-52 -123t-68 -77.5t-89.5 -45t-117 -12.5q-188 0 -188 262q0 81 17 172l160 -1q-13 -86 -13 -149q0 -134 52 -134q34 0 60 15.5t44 40t34 71t27 93t26 120.5q30 162 33 177q31 161 66 485q-129 0 -245 2z" />
    <glyph glyph-name="ij" unicode="&#x133;" 
d="M714 -114l173 896q5 22 5 34q0 31 -17 42.5t-35 11.5q-26 0 -50.5 -3t-39.5 -6.5t-50 -12t-59 -13.5l-45 133q163 52 246 52h33q32 0 57 -4.5t55 -19.5t47 -50t17 -89q0 -37 -9 -85l-173 -890q-52 -269 -351 -269q-115 0 -210.5 21.5t-225.5 96.5l87 149
q141 -111 358 -111h17q74 0 117 39.5t53 77.5zM410 1020h120l-155 -803q-2 -9 -2 -24q0 -62 75 -62q74 0 124 61l63 -102q-42 -49 -106.5 -72.5t-123.5 -23.5q-104 0 -150.5 43.5t-46.5 117.5q0 28 6 58l122 623q-21 -13 -38.5 -22t-52 -27t-77.5 -41l-41 121
q104 47 236 153h47zM942 1404l233 -3l-43 -225l-234 3zM383 1410l234 -3l-43 -225l-235 3z" />
    <glyph glyph-name="Jcircumflex" unicode="&#x134;" 
d="M892 1771l293 -327l-117 -102l-204 231l-339 -236l-87 122zM337 -8q-81 0 -140.5 24.5t-94 69t-50.5 99t-16 120.5q0 59 12 121l160 -1q-7 -42 -7 -87q0 -196 164 -196q68 0 118.5 32.5t87.5 103.5t63 158.5t52 222.5q31 161 66 485q-26 0 -120 0.5t-111 0.5
q-67 -1 -146 -18l-26 153q85 19 200 22h386l-18 -157q-27 -251 -76 -503q-19 -97 -39 -172t-49 -153t-66.5 -133.5t-87 -101t-115.5 -68t-147 -22.5z" />
    <glyph glyph-name="jcircumflex" unicode="&#x135;" 
d="M876 1516l293 -327l-117 -102l-204 231l-339 -236l-87 122zM859 748l-174 -866q-52 -269 -351 -269q-54 0 -96 7t-91 29t-90 70t-72 121l145 98q20 -47 43 -80t43 -50t45 -26t41.5 -11t40.5 -2h17q74 0 117 39.5t53 77.5l176 876q4 24 4 45q0 84 -54 85h-3
q-25 0 -42 -2.5t-47 -11.5t-66 -33.5t-79 -63.5l-97 133q112 74 176.5 100.5t159.5 26.5q63 0 106 -16.5t64.5 -47t29.5 -64t8 -78.5q0 -53 -7 -87z" />
    <glyph glyph-name="Kcommaaccent" unicode="&#x136;" 
d="M302 -34h220l-42 -215q-21 -109 -81 -174t-170 -109l-29 127q53 23 77.5 51.5t37.5 98.5h-56zM554 705q87 -105 231 -342.5t161 -329.5l-156 -50q-18 79 -145 292t-210 312q-103 -98 -147 -169l-90 -423h-158l255 1313h158l-117 -605q122 133 307 293q101 86 194 159
t147 112.5t58 42.5l90 -130q-136 -86 -313 -237t-265 -238z" />
    <glyph glyph-name="kcommaaccent" unicode="&#x137;" 
d="M314 -29h220l-42 -215q-21 -109 -81 -174t-170 -109l-29 127q53 23 77.5 51.5t37.5 98.5h-56zM472 538q118 -34 157 -34q88 0 139.5 72.5t51.5 170.5q0 56 -25 90.5t-71 34.5q-76 0 -167.5 -79.5t-158.5 -182t-98 -190.5q-62 -310 -82 -420h-157l239 1228q11 57 11 108
q0 36 -6 74l163 17q4 -22 4 -69q0 -67 -10 -118l-93 -479q55 81 107 134t99.5 78t85 34t82.5 9q109 0 169 -79.5t60 -199.5q0 -124 -67.5 -219.5t-213.5 -129.5q18 -14 35 -30.5t30.5 -29.5t28.5 -34t23.5 -32t22.5 -37t19 -34.5t19 -39t17.5 -37t18.5 -41t17 -39.5
l-141 -63q-45 143 -136.5 258.5t-224.5 168.5z" />
    <glyph glyph-name="kgreenlandic" unicode="&#x138;" 
d="M601 605q6 -8 50 -73.5t66 -99t63.5 -99.5t65 -109.5t45.5 -92.5t28 -81l-149 -76q-27 117 -302 527q-138 -102 -208 -177l-63 -324h-156l198 1020h156l-91 -470q49 41 107 84.5t133.5 98.5t116.5 86q107 79 187.5 131t121 74t44.5 25l72 -129q-151 -81 -285 -169.5
t-200 -145.5z" />
    <glyph glyph-name="Lacute" unicode="&#x139;" 
d="M254 1498q100 30 246 125.5t250 185.5l117 -150q-85 -80 -262 -179.5t-288 -131.5zM65 -3l253 1301h161l-223 -1147h521q14 1 22 1t17 1.5t12 1.5t11 2t10 3t14 4.5t17 5.5l54 -142q-40 -19 -80.5 -25t-104.5 -6h-684z" />
    <glyph glyph-name="lacute" unicode="&#x13a;" 
d="M366 1600q100 30 246 125.5t250 185.5l117 -150q-85 -80 -262 -179.5t-288 -131.5zM648 1431l-198 -1055q-9 -48 -9 -85q0 -94 47.5 -130.5t135.5 -36.5q155 0 270 76l76 -117q-71 -50 -171.5 -75.5t-200.5 -25.5q-155 0 -236.5 81.5t-81.5 217.5q0 43 9 91l197 1072z
" />
    <glyph glyph-name="Lcommaaccent" unicode="&#x13b;" 
d="M239 -125h220l-42 -215q-21 -109 -81 -174t-170 -109l-29 127q53 23 77.5 51.5t37.5 98.5h-56zM65 -3l253 1301h161l-223 -1147h521q14 1 22 1t17 1.5t12 1.5t11 2t10 3t14 4.5t17 5.5l54 -142q-40 -19 -80.5 -25t-104.5 -6h-684z" />
    <glyph glyph-name="lcommaaccent" unicode="&#x13c;" 
d="M448 -138h220l-42 -215q-21 -109 -81 -174t-170 -109l-29 127q53 23 77.5 51.5t37.5 98.5h-56zM648 1431l-198 -1055q-9 -48 -9 -85q0 -94 47.5 -130.5t135.5 -36.5q155 0 270 76l76 -117q-71 -50 -171.5 -75.5t-200.5 -25.5q-155 0 -236.5 81.5t-81.5 217.5q0 43 9 91
l197 1072z" />
    <glyph glyph-name="Lcaron" unicode="&#x13d;" 
d="M819 1241q-22 -64 -58.5 -194.5t-50.5 -177.5l-152 34q19 152 67 386zM65 -3l253 1301h161l-223 -1147h521q14 1 22 1t17 1.5t12 1.5t11 2t10 3t14 4.5t17 5.5l54 -142q-40 -19 -80.5 -25t-104.5 -6h-684z" />
    <glyph glyph-name="lcaron" unicode="&#x13e;" 
d="M952 1392q-17 -49 -33.5 -106t-38 -134t-38.5 -132l-152 34q18 139 68 386zM648 1431l-198 -1055q-9 -48 -9 -85q0 -94 47.5 -130.5t135.5 -36.5q155 0 270 76l76 -117q-71 -50 -171.5 -75.5t-200.5 -25.5q-155 0 -236.5 81.5t-81.5 217.5q0 43 9 91l197 1072z" />
    <glyph glyph-name="Ldot" unicode="&#x13f;" 
d="M615.11 818.425h215.994l-44.7334 -228.988h-215.994zM65 -3l253 1301h161l-223 -1147h521q14 1 22 1t17 1.5t12 1.5t11 2t10 3t14 4.5t17 5.5l54 -142q-40 -19 -80.5 -25t-104.5 -6h-684z" />
    <glyph glyph-name="ldot" unicode="&#x140;" 
d="M728.11 818.425h215.994l-44.7334 -228.988h-215.994zM648 1431l-198 -1055q-9 -48 -9 -85q0 -94 47.5 -130.5t135.5 -36.5q155 0 270 76l76 -117q-71 -50 -171.5 -75.5t-200.5 -25.5q-155 0 -236.5 81.5t-81.5 217.5q0 43 9 91l197 1072z" />
    <glyph glyph-name="Lslash" unicode="&#x141;" 
d="M289 529l-119 -59l-66 134l221 110l114 584h161l-96 -496l372 185l66 -135l-474 -235l-91 -466h400q14 1 22 1t17 1.5t12 1.5t11 2t10 3t14 4.5t17 5.5l54 -142q-40 -19 -80.5 -25t-104.5 -6h-563z" />
    <glyph glyph-name="lslash" unicode="&#x142;" 
d="M187 1096q0 176 77 270t229 94q130 0 274 -58q87 -32 119 -32q25 0 38.5 13t23.5 41l110 -100q-55 -102 -168 -102q-56 0 -166 44q-36 15 -60 23l-214 -913q-9 -48 -9 -85q0 -94 47.5 -130.5t135.5 -36.5q155 0 270 76l76 -117q-71 -50 -171.5 -75.5t-200.5 -25.5
q-155 0 -236.5 81.5t-81.5 217.5q0 43 9 91l215 940q-170 -7 -170 -222z" />
    <glyph glyph-name="Nacute" unicode="&#x143;" 
d="M476 1478q100 30 246 125.5t250 185.5l117 -150q-85 -80 -262 -179.5t-288 -131.5zM676 -6q-131 497 -323 1007l-40 -204q-25 -127 -82 -422t-73 -378h-159l253 1301l159 -4q65 -133 173.5 -437.5t162.5 -499.5q27 153 75 400q58 300 117 540h154q-32 -128 -90 -425
q-21 -109 -66.5 -350t-68.5 -360q-5 -25 -16.5 -81.5t-16.5 -85.5z" />
    <glyph glyph-name="nacute" unicode="&#x144;" 
d="M500 1213q100 30 246 125.5t250 185.5l117 -150q-85 -80 -262 -179.5t-288 -131.5zM374 856q174 174 358 174q87 0 154.5 -52.5t67.5 -139.5q0 -22 -4 -42l-114 -585q-2 -8 -2 -21q0 -8 1 -15.5t4.5 -14t6 -11.5t9.5 -11t10 -9.5t12.5 -9.5t12.5 -8.5t14.5 -9t14.5 -8.5
l-106 -112q-33 18 -53 31t-43 35t-34 49.5t-11 62.5q0 18 5 45l109 561q4 17 4 37q0 75 -86 75q-95 0 -211 -106t-184 -285l-98 -486l-158 -1l137 706q22 114 22 184q0 20 -1.5 39.5t-3.5 44t-3 41.5l170 18q3 -27 3 -84q0 -44 -3 -92z" />
    <glyph glyph-name="Ncommaaccent" unicode="&#x145;" 
d="M263 -28h220l-42 -215q-21 -109 -81 -174t-170 -109l-29 127q53 23 77.5 51.5t37.5 98.5h-56zM676 -6q-131 497 -323 1007l-40 -204q-25 -127 -82 -422t-73 -378h-159l253 1301l159 -4q65 -133 173.5 -437.5t162.5 -499.5q27 153 75 400q58 300 117 540h154
q-32 -128 -90 -425q-21 -109 -66.5 -350t-68.5 -360q-5 -25 -16.5 -81.5t-16.5 -85.5z" />
    <glyph glyph-name="ncommaaccent" unicode="&#x146;" 
d="M304 -39h220l-42 -215q-21 -109 -81 -174t-170 -109l-29 127q53 23 77.5 51.5t37.5 98.5h-56zM374 856q174 174 358 174q87 0 154.5 -52.5t67.5 -139.5q0 -22 -4 -42l-114 -585q-2 -8 -2 -21q0 -8 1 -15.5t4.5 -14t6 -11.5t9.5 -11t10 -9.5t12.5 -9.5t12.5 -8.5t14.5 -9
t14.5 -8.5l-106 -112q-33 18 -53 31t-43 35t-34 49.5t-11 62.5q0 18 5 45l109 561q4 17 4 37q0 75 -86 75q-95 0 -211 -106t-184 -285l-98 -486l-158 -1l137 706q22 114 22 184q0 20 -1.5 39.5t-3.5 44t-3 41.5l170 18q3 -27 3 -84q0 -44 -3 -92z" />
    <glyph glyph-name="Ncaron" unicode="&#x147;" 
d="M655 1324l-298 323l114 103l208 -227l336 241l88 -121zM676 -6q-131 497 -323 1007l-40 -204q-25 -127 -82 -422t-73 -378h-159l253 1301l159 -4q65 -133 173.5 -437.5t162.5 -499.5q27 153 75 400q58 300 117 540h154q-32 -128 -90 -425q-21 -109 -66.5 -350t-68.5 -360
q-5 -25 -16.5 -81.5t-16.5 -85.5z" />
    <glyph glyph-name="ncaron" unicode="&#x148;" 
d="M680 1086l-298 323l114 103l208 -227l336 241l88 -121zM374 856q174 174 358 174q87 0 154.5 -52.5t67.5 -139.5q0 -22 -4 -42l-114 -585q-2 -8 -2 -21q0 -8 1 -15.5t4.5 -14t6 -11.5t9.5 -11t10 -9.5t12.5 -9.5t12.5 -8.5t14.5 -9t14.5 -8.5l-106 -112q-33 18 -53 31
t-43 35t-34 49.5t-11 62.5q0 18 5 45l109 561q4 17 4 37q0 75 -86 75q-95 0 -211 -106t-184 -285l-98 -486l-158 -1l137 706q22 114 22 184q0 20 -1.5 39.5t-3.5 44t-3 41.5l170 18q3 -27 3 -84q0 -44 -3 -92z" />
    <glyph glyph-name="Eng" unicode="&#x14a;" 
d="M717 1296q300 0 300 -283q0 -61 -17 -153q-22 -112 -64.5 -343t-66.5 -352l-7 -34q-12 -61 -25 -108.5t-36 -100.5t-51.5 -92t-72.5 -76.5t-99 -61t-130.5 -37.5t-166.5 -14h-34l30 155q85 1 149.5 12.5t108 34.5t72.5 48t48 64t28.5 70.5t18.5 80.5l145 746q9 46 9 87
q0 96 -45.5 150t-121.5 54q-55 0 -107 -18.5t-85.5 -40t-71 -61t-50.5 -56.5t-38 -51l-179 -919h-159l207 1062q10 54 10 103q0 26 -2.5 50.5t-5.5 35.5l-2 11l166 57q15 -54 15 -95q0 -21 -3 -53q56 72 138.5 100t194.5 28z" />
    <glyph glyph-name="eng" unicode="&#x14b;" 
d="M376 927q117 55 177.5 75t137.5 20q93 0 171 -51.5t78 -138.5q0 -12 -4 -36l-114 -585q-16 -83 -26 -127.5t-32 -116.5t-45 -111t-63 -88.5t-89 -74.5t-120 -43t-158 -18h-4l28 156h3q70 0 119 13t83.5 37.5t59 70.5t40.5 100.5t33 139.5q20 103 60 308t60 308q2 12 2 17
q0 43 -41 66.5t-93 23.5q-18 0 -38 -4.5t-48.5 -15.5t-52 -21.5t-71.5 -32.5t-84 -38l-149 -760l-158 -1l137 706q30 154 30 218q0 16 -4 80l167 37q9 -45 9 -87q0 -17 -1 -26z" />
    <glyph glyph-name="Omacron" unicode="&#x14c;" 
d="M999 1584l-30 -152h-17q-58 -2 -202 -2q-149 0 -217 2l-17 1l30 155l18 -2q65 -2 254 -2h164h17zM687 1326q38 0 76.5 -8t88 -36.5t86.5 -74t63 -130t26 -195.5q0 -115 -25 -247l-2 -11q-23 -116 -70 -225t-101 -185q-78 -109 -185 -168t-230 -59q-97 0 -177 35.5
t-125 107.5q-69 110 -69 272q0 85 17 170q24 123 55.5 222t68 168t68 113.5t69.5 85.5q67 73 160.5 118t205.5 47zM239 245q58 -105 205 -105q65 0 141 43.5t122 106.5q37 46 78 149t58 188l4 19q22 119 22 216q0 91 -20 155q-26 83 -72 119.5t-114 36.5q-56 0 -117.5 -25.5
t-112.5 -78.5q-148 -153 -214 -493q-14 -68 -14 -150q0 -122 34 -181z" />
    <glyph glyph-name="omacron" unicode="&#x14d;" 
d="M934 1338l-30 -152h-17q-58 -2 -202 -2q-149 0 -217 2l-17 1l30 155l18 -2q65 -2 254 -2h164h17zM621 215q104 83 150 315q1 3 2 9t2 9q12 69 12 114q0 53 -7 88.5t-26 66.5t-58.5 46t-99.5 15q-128 0 -221 -111.5t-129 -297.5q-11 -57 -11 -101q0 -55 7 -90.5t27.5 -65
t60 -43t101.5 -13.5q111 1 190 59zM407 1h-2q-153 0 -242.5 88.5t-89.5 239.5q0 60 14 135q22 115 62.5 213t101 179.5t148.5 128.5t193 47q144 0 224 -49.5t114 -151.5q18 -54 18 -136q0 -79 -15 -152q-18 -91 -43 -166.5t-67.5 -147t-98 -120.5t-136 -78.5t-179.5 -29.5
h-2z" />
    <glyph glyph-name="Obreve" unicode="&#x14e;" 
d="M732 1538q79 0 147.5 46t84.5 106l160 -30q-43 -131 -155.5 -203t-266.5 -72q-40 0 -79.5 8t-80.5 29t-72 52.5t-51.5 83t-21.5 116.5l164 14q5 -150 171 -150zM687 1326q38 0 76.5 -8t88 -36.5t86.5 -74t63 -130t26 -195.5q0 -115 -25 -247l-2 -11q-23 -116 -70 -225
t-101 -185q-78 -109 -185 -168t-230 -59q-97 0 -177 35.5t-125 107.5q-69 110 -69 272q0 85 17 170q24 123 55.5 222t68 168t68 113.5t69.5 85.5q67 73 160.5 118t205.5 47zM239 245q58 -105 205 -105q65 0 141 43.5t122 106.5q37 46 78 149t58 188l4 19q22 119 22 216
q0 91 -20 155q-26 83 -72 119.5t-114 36.5q-56 0 -117.5 -25.5t-112.5 -78.5q-148 -153 -214 -493q-14 -68 -14 -150q0 -122 34 -181z" />
    <glyph glyph-name="obreve" unicode="&#x14f;" 
d="M706 1268q79 0 147.5 46t84.5 106l160 -30q-43 -131 -155.5 -203t-266.5 -72q-40 0 -79.5 8t-80.5 29t-72 52.5t-51.5 83t-21.5 116.5l164 14q5 -150 171 -150zM621 215q104 83 150 315q1 3 2 9t2 9q12 69 12 114q0 53 -7 88.5t-26 66.5t-58.5 46t-99.5 15
q-128 0 -221 -111.5t-129 -297.5q-11 -57 -11 -101q0 -55 7 -90.5t27.5 -65t60 -43t101.5 -13.5q111 1 190 59zM407 1h-2q-153 0 -242.5 88.5t-89.5 239.5q0 60 14 135q22 115 62.5 213t101 179.5t148.5 128.5t193 47q144 0 224 -49.5t114 -151.5q18 -54 18 -136
q0 -79 -15 -152q-18 -91 -43 -166.5t-67.5 -147t-98 -120.5t-136 -78.5t-179.5 -29.5h-2z" />
    <glyph glyph-name="Ohungarumlaut" unicode="&#x150;" 
d="M715 1476q89 72 194.5 203.5t157.5 236.5l153 -100q-45 -100 -167 -237t-222 -218zM380 1483q88 72 193.5 204t156.5 236l155 -99q-45 -100 -168 -237.5t-224 -218.5zM687 1326q38 0 76.5 -8t88 -36.5t86.5 -74t63 -130t26 -195.5q0 -115 -25 -247l-2 -11
q-23 -116 -70 -225t-101 -185q-78 -109 -185 -168t-230 -59q-97 0 -177 35.5t-125 107.5q-69 110 -69 272q0 85 17 170q24 123 55.5 222t68 168t68 113.5t69.5 85.5q67 73 160.5 118t205.5 47zM239 245q58 -105 205 -105q65 0 141 43.5t122 106.5q37 46 78 149t58 188l4 19
q22 119 22 216q0 91 -20 155q-26 83 -72 119.5t-114 36.5q-56 0 -117.5 -25.5t-112.5 -78.5q-148 -153 -214 -493q-14 -68 -14 -150q0 -122 34 -181z" />
    <glyph glyph-name="ohungarumlaut" unicode="&#x151;" 
d="M723 1164q89 72 194.5 203.5t157.5 236.5l153 -100q-45 -100 -167 -237t-222 -218zM388 1171q88 72 193.5 204t156.5 236l155 -99q-45 -100 -168 -237.5t-224 -218.5zM621 215q104 83 150 315q1 3 2 9t2 9q12 69 12 114q0 53 -7 88.5t-26 66.5t-58.5 46t-99.5 15
q-128 0 -221 -111.5t-129 -297.5q-11 -57 -11 -101q0 -55 7 -90.5t27.5 -65t60 -43t101.5 -13.5q111 1 190 59zM407 1h-2q-153 0 -242.5 88.5t-89.5 239.5q0 60 14 135q22 115 62.5 213t101 179.5t148.5 128.5t193 47q144 0 224 -49.5t114 -151.5q18 -54 18 -136
q0 -79 -15 -152q-18 -91 -43 -166.5t-67.5 -147t-98 -120.5t-136 -78.5t-179.5 -29.5h-2z" />
    <glyph glyph-name="OE" unicode="&#x152;" 
d="M416 146l200 1024q-77 0 -136.5 -27t-101 -72.5t-75 -124t-56 -162.5t-46.5 -206q-31 -161 -31 -232q0 -95 45 -147.5t156 -54.5q19 0 45 2zM811 153q65 2 136 26l10 -146q-131 -34 -365 -34q-22 0 -73 0.5t-79 0.5q-21 -8 -129 -8q-287 12 -287 355q0 107 28 250
q27 136 60.5 244t82.5 201.5t110 155.5t142.5 97t180.5 35q43 0 78 -7q60 3 186 3q43 0 127.5 -0.5t125.5 -0.5l-31 -155q-49 0 -118 0.5t-102 0.5q-75 0 -122 -1l-65 -335h275l-29 -153h-275q-22 -114 -61.5 -307t-45.5 -222h240z" />
    <glyph glyph-name="oe" unicode="&#x153;" 
d="M931 187q-3 -8 -9 -20.5t-30 -44.5t-54.5 -57t-85 -45t-119.5 -20q-124 0 -193 90q-15 -17 -21 -22.5t-26 -22t-35.5 -24t-42 -14.5t-54.5 -7q-36 0 -61 4t-61 25.5t-65 61.5q-54 73 -54 203q0 67 18 165q24 124 45 176q12 34 17 46t20.5 50.5t26 57.5t31 54.5t38.5 55
t44.5 45.5t53.5 39.5t61 23.5t71 10h4q54 -1 85 -16t61 -47q11 -11 19 -23q69 85 199 87h3q94 0 151 -68t57 -176q0 -114 -64 -212t-164.5 -161.5t-224.5 -94.5l-19 -91q48 -61 114 -61q72 0 139 102zM640 652l-33 -172q113 17 191 99t78 165q0 118 -92 118q-77 0 -104 -57
q-16 -31 -40 -153zM285 154q38 0 79.5 43.5t49.5 88.5l93 468q2 8 2 19q0 34 -19 62t-69 28q-68 0 -131 -111.5t-97 -277.5l-3 -18q-13 -63 -13 -126q0 -84 26 -139q18 -37 82 -37z" />
    <glyph glyph-name="Racute" unicode="&#x154;" 
d="M510 1504q100 30 246 125.5t250 185.5l117 -150q-85 -80 -262 -179.5t-288 -131.5zM682 540q36 -81 98.5 -189t107.5 -175q1 -1 9.5 -10.5t13.5 -14.5t14.5 -13t20 -13.5t21.5 -8.5l-76 -132q-40 6 -74.5 30.5t-54.5 57.5q-56 79 -143.5 235t-116.5 227q-79 8 -220 33
l-109 -567h-158l216 1113q19 96 29 175q161 15 221 15q85 0 141 -2.5t118 -12t104 -27t80.5 -48t65.5 -74.5q45 -71 45 -167q0 -32 -6 -63q-33 -170 -114.5 -260t-232.5 -109zM871 895q5 28 5 50q0 57 -32 103q-38 57 -126.5 79.5t-260.5 22.5q-35 0 -64 -1l-81 -430
q14 -3 45.5 -9t45.5 -8.5t39.5 -6.5t42 -6t38 -3.5t41.5 -1.5q137 0 210.5 45t96.5 166z" />
    <glyph glyph-name="racute" unicode="&#x155;" 
d="M548 1212q100 30 246 125.5t250 185.5l117 -150q-85 -80 -262 -179.5t-288 -131.5zM421 731q108 164 204.5 229t216.5 65q82 0 127.5 -45t45.5 -126q0 -53 -14 -125q0 -1 -0.5 -3t-0.5 -3h-156q12 79 12 86q0 28 -15.5 42t-53.5 14q-71 0 -179.5 -117.5t-226.5 -301.5
l-90 -446l-156 1l149 763q3 14 3 27q0 73 -88 140l120 136q23 -22 38.5 -39.5t37 -47.5t32.5 -65.5t11 -74.5q0 -13 -17 -109z" />
    <glyph glyph-name="Rcommaaccent" unicode="&#x156;" 
d="M314 -60h220l-42 -215q-21 -109 -81 -174t-170 -109l-29 127q53 23 77.5 51.5t37.5 98.5h-56zM682 540q36 -81 98.5 -189t107.5 -175q1 -1 9.5 -10.5t13.5 -14.5t14.5 -13t20 -13.5t21.5 -8.5l-76 -132q-40 6 -74.5 30.5t-54.5 57.5q-56 79 -143.5 235t-116.5 227
q-79 8 -220 33l-109 -567h-158l216 1113q19 96 29 175q161 15 221 15q85 0 141 -2.5t118 -12t104 -27t80.5 -48t65.5 -74.5q45 -71 45 -167q0 -32 -6 -63q-33 -170 -114.5 -260t-232.5 -109zM871 895q5 28 5 50q0 57 -32 103q-38 57 -126.5 79.5t-260.5 22.5q-35 0 -64 -1
l-81 -430q14 -3 45.5 -9t45.5 -8.5t39.5 -6.5t42 -6t38 -3.5t41.5 -1.5q137 0 210.5 45t96.5 166z" />
    <glyph glyph-name="rcommaaccent" unicode="&#x157;" 
d="M113 -83h220l-42 -215q-21 -109 -81 -174t-170 -109l-29 127q53 23 77.5 51.5t37.5 98.5h-56zM421 731q108 164 204.5 229t216.5 65q82 0 127.5 -45t45.5 -126q0 -53 -14 -125q0 -1 -0.5 -3t-0.5 -3h-156q12 79 12 86q0 28 -15.5 42t-53.5 14q-71 0 -179.5 -117.5
t-226.5 -301.5l-90 -446l-156 1l149 763q3 14 3 27q0 73 -88 140l120 136q23 -22 38.5 -39.5t37 -47.5t32.5 -65.5t11 -74.5q0 -13 -17 -109z" />
    <glyph glyph-name="Rcaron" unicode="&#x158;" 
d="M616 1345l-298 323l114 103l208 -227l336 241l88 -121zM682 540q36 -81 98.5 -189t107.5 -175q1 -1 9.5 -10.5t13.5 -14.5t14.5 -13t20 -13.5t21.5 -8.5l-76 -132q-40 6 -74.5 30.5t-54.5 57.5q-56 79 -143.5 235t-116.5 227q-79 8 -220 33l-109 -567h-158l216 1113
q19 96 29 175q161 15 221 15q85 0 141 -2.5t118 -12t104 -27t80.5 -48t65.5 -74.5q45 -71 45 -167q0 -32 -6 -63q-33 -170 -114.5 -260t-232.5 -109zM871 895q5 28 5 50q0 57 -32 103q-38 57 -126.5 79.5t-260.5 22.5q-35 0 -64 -1l-81 -430q14 -3 45.5 -9t45.5 -8.5
t39.5 -6.5t42 -6t38 -3.5t41.5 -1.5q137 0 210.5 45t96.5 166z" />
    <glyph glyph-name="rcaron" unicode="&#x159;" 
d="M667 1061l-298 323l114 103l208 -227l336 241l88 -121zM421 731q108 164 204.5 229t216.5 65q82 0 127.5 -45t45.5 -126q0 -53 -14 -125q0 -1 -0.5 -3t-0.5 -3h-156q12 79 12 86q0 28 -15.5 42t-53.5 14q-71 0 -179.5 -117.5t-226.5 -301.5l-90 -446l-156 1l149 763
q3 14 3 27q0 73 -88 140l120 136q23 -22 38.5 -39.5t37 -47.5t32.5 -65.5t11 -74.5q0 -13 -17 -109z" />
    <glyph glyph-name="Sacute" unicode="&#x15a;" 
d="M459 1496q100 30 246 125.5t250 185.5l117 -150q-85 -80 -262 -179.5t-288 -131.5zM166 358q0 -93 79 -154.5t216 -61.5q153 0 242.5 83.5t89.5 203.5q0 112 -103 160q-50 23 -183 55.5t-197 64.5q-57 29 -92.5 83.5t-35.5 130.5q0 95 41 170t109 119t148.5 67t167.5 23
q147 0 254.5 -27.5t163.5 -70.5l-99 -153q-108 97 -344 97q-111 0 -190.5 -53t-79.5 -136q0 -76 70 -112q53 -28 188 -56.5t195 -58.5q67 -36 109 -103.5t42 -160.5q0 -98 -29.5 -179t-79 -135.5t-116 -91.5t-139 -54t-149.5 -17h-19q-207 5 -314 97.5t-107 230.5z" />
    <glyph glyph-name="sacute" unicode="&#x15b;" 
d="M434 1228q100 30 246 125.5t250 185.5l117 -150q-85 -80 -262 -179.5t-288 -131.5zM367 574q-100 73 -100 182q0 25 6 52q24 110 117 166t250 56q204 0 344 -58l-58 -149q-110 59 -300 59q-91 0 -141 -35t-50 -81q0 -34 28 -58q39 -33 93 -68t97 -60t88.5 -56.5t76 -61
t50 -70t19.5 -86.5q0 -22 -5 -50q-13 -65 -43.5 -113.5t-72 -79t-98.5 -49.5t-115.5 -26.5t-129.5 -7.5q-150 0 -251 78.5t-101 208.5q0 30 6 63l157 -1q-3 -18 -3 -34q0 -79 66.5 -125.5t150.5 -46.5q100 0 175.5 40.5t90.5 118.5q1 4 1 13q0 43 -51 86t-152.5 102.5
t-144.5 90.5z" />
    <glyph glyph-name="Scircumflex" unicode="&#x15c;" 
d="M755 1765l293 -327l-117 -102l-204 231l-339 -236l-87 122zM166 358q0 -93 79 -154.5t216 -61.5q153 0 242.5 83.5t89.5 203.5q0 112 -103 160q-50 23 -183 55.5t-197 64.5q-57 29 -92.5 83.5t-35.5 130.5q0 95 41 170t109 119t148.5 67t167.5 23q147 0 254.5 -27.5
t163.5 -70.5l-99 -153q-108 97 -344 97q-111 0 -190.5 -53t-79.5 -136q0 -76 70 -112q53 -28 188 -56.5t195 -58.5q67 -36 109 -103.5t42 -160.5q0 -98 -29.5 -179t-79 -135.5t-116 -91.5t-139 -54t-149.5 -17h-19q-207 5 -314 97.5t-107 230.5z" />
    <glyph glyph-name="scircumflex" unicode="&#x15d;" 
d="M798 1525l293 -327l-117 -102l-204 231l-339 -236l-87 122zM367 574q-100 73 -100 182q0 25 6 52q24 110 117 166t250 56q204 0 344 -58l-58 -149q-110 59 -300 59q-91 0 -141 -35t-50 -81q0 -34 28 -58q39 -33 93 -68t97 -60t88.5 -56.5t76 -61t50 -70t19.5 -86.5
q0 -22 -5 -50q-13 -65 -43.5 -113.5t-72 -79t-98.5 -49.5t-115.5 -26.5t-129.5 -7.5q-150 0 -251 78.5t-101 208.5q0 30 6 63l157 -1q-3 -18 -3 -34q0 -79 66.5 -125.5t150.5 -46.5q100 0 175.5 40.5t90.5 118.5q1 4 1 13q0 43 -51 86t-152.5 102.5t-144.5 90.5z" />
    <glyph glyph-name="Scedilla" unicode="&#x15e;" 
d="M166 358q0 -93 79 -154.5t216 -61.5q153 0 242.5 83.5t89.5 203.5q0 112 -103 160q-50 23 -183 55.5t-197 64.5q-57 29 -92.5 83.5t-35.5 130.5q0 95 41 170t109 119t148.5 67t167.5 23q147 0 254.5 -27.5t163.5 -70.5l-99 -153q-108 97 -344 97q-111 0 -190.5 -53
t-79.5 -136q0 -76 70 -112q53 -28 188 -56.5t195 -58.5q67 -36 109 -103.5t42 -160.5q0 -96 -28.5 -175.5t-76 -134t-112 -92t-134.5 -55.5t-146 -20q-12 -53 -12 -58q61 -3 94 -35.5t33 -90.5q0 -18 -5 -45q-14 -72 -81.5 -120t-135.5 -48q-99 0 -182 61l59 106
q2 -1 9 -5.5t10 -6t9.5 -5.5t10.5 -5.5t11 -5t12 -5t12 -3.5t13.5 -3t14 -2t14.5 -1q30 0 57 15.5t34 42.5v2q0 1 0.5 3.5t0.5 3.5q0 20 -21.5 33.5t-54.5 13.5q-17 0 -29 -1.5t-17.5 -3t-16.5 -6t-18 -6.5l35 185q-155 27 -233.5 113.5t-78.5 204.5z" />
    <glyph glyph-name="scedilla" unicode="&#x15f;" 
d="M367 574q-100 73 -100 182q0 25 6 52q24 110 117 166t250 56q204 0 344 -58l-58 -149q-110 59 -300 59q-91 0 -141 -35t-50 -81q0 -34 28 -58q39 -33 93 -68t97 -60t88.5 -56.5t76 -61t50 -70t19.5 -86.5q0 -22 -5 -50q-16 -79 -57 -134.5t-104 -85.5t-133.5 -43
t-158.5 -13q-2 -9 -4.5 -22t-4.5 -21t-2 -9q61 -3 94 -35.5t33 -90.5q0 -18 -5 -45q-14 -72 -81.5 -120t-135.5 -48q-99 0 -182 61l59 106q2 -1 9 -5.5t10 -6t9.5 -5.5t10.5 -5.5t11 -5t12 -5t12 -3.5t13.5 -3t14 -2t14.5 -1q30 0 57 15.5t34 42.5v2q0 1 0.5 3.5t0.5 3.5
q0 20 -21.5 33.5t-54.5 13.5q-17 0 -29 -1.5t-17.5 -3t-16.5 -6t-18 -6.5l36 188h2q-99 29 -158.5 99.5t-59.5 168.5q0 30 6 63l157 -1q-3 -18 -3 -34q0 -79 66.5 -125.5t150.5 -46.5q100 0 175.5 40.5t90.5 118.5q1 4 1 13q0 43 -51 86t-152.5 102.5t-144.5 90.5z" />
    <glyph glyph-name="Scaron" unicode="&#x160;" 
d="M653 1345l-298 323l114 103l208 -227l336 241l88 -121zM166 358q0 -93 79 -154.5t216 -61.5q153 0 242.5 83.5t89.5 203.5q0 112 -103 160q-50 23 -183 55.5t-197 64.5q-57 29 -92.5 83.5t-35.5 130.5q0 95 41 170t109 119t148.5 67t167.5 23q147 0 254.5 -27.5
t163.5 -70.5l-99 -153q-108 97 -344 97q-111 0 -190.5 -53t-79.5 -136q0 -76 70 -112q53 -28 188 -56.5t195 -58.5q67 -36 109 -103.5t42 -160.5q0 -98 -29.5 -179t-79 -135.5t-116 -91.5t-139 -54t-149.5 -17h-19q-207 5 -314 97.5t-107 230.5z" />
    <glyph glyph-name="scaron" unicode="&#x161;" 
d="M672 1060l-298 323l114 103l208 -227l336 241l88 -121zM367 574q-100 73 -100 182q0 25 6 52q24 110 117 166t250 56q204 0 344 -58l-58 -149q-110 59 -300 59q-91 0 -141 -35t-50 -81q0 -34 28 -58q39 -33 93 -68t97 -60t88.5 -56.5t76 -61t50 -70t19.5 -86.5
q0 -22 -5 -50q-13 -65 -43.5 -113.5t-72 -79t-98.5 -49.5t-115.5 -26.5t-129.5 -7.5q-150 0 -251 78.5t-101 208.5q0 30 6 63l157 -1q-3 -18 -3 -34q0 -79 66.5 -125.5t150.5 -46.5q100 0 175.5 40.5t90.5 118.5q1 4 1 13q0 43 -51 86t-152.5 102.5t-144.5 90.5z" />
    <glyph glyph-name="Tcommaaccent" unicode="&#x162;" 
d="M326 -9l224 1153q-114 0 -227.5 -0.5t-136.5 -0.5l30 155q53 0 358 0.5t407 0.5q52 0 137 -15l-63 -152q-60 12 -110 12h-235l-224 -1153h-11q-2 -7 -3.5 -16.5t-3 -14.5t-1.5 -6q61 -3 94 -35.5t33 -90.5q0 -18 -5 -45q-14 -72 -81.5 -120t-135.5 -48q-99 0 -182 61
l59 106q2 -1 9 -5.5t10 -6t9.5 -5.5t10.5 -5.5t11 -5t12 -5t12 -3.5t13.5 -3t14 -2t14.5 -1q30 0 57 15.5t34 42.5v2q0 1 0.5 3.5t0.5 3.5q0 20 -21.5 33.5t-54.5 13.5q-17 0 -29 -1.5t-17.5 -3t-16.5 -6t-18 -6.5l30 154h-4z" />
    <glyph glyph-name="tcommaaccent" unicode="&#x163;" 
d="M377 474l-7 -40q-10 -49 -10 -92q0 -193 208 -193q179 0 261 145l121 -93q-20 -35 -50 -67.5t-78 -66t-120.5 -53.5t-158.5 -20q-2 -7 -3.5 -16.5t-3 -14.5t-1.5 -6q61 -3 94 -35.5t33 -90.5q0 -18 -5 -45q-14 -72 -81.5 -120t-135.5 -48q-99 0 -182 61l59 106
q2 -1 9 -5.5t10 -6t9.5 -5.5t10.5 -5.5t11 -5t12 -5t12 -3.5t13.5 -3t14 -2t14.5 -1q30 0 57 15.5t34 42.5v2q0 1 0.5 3.5t0.5 3.5q0 20 -21.5 33.5t-54.5 13.5q-17 0 -29 -1.5t-17.5 -3t-16.5 -6t-18 -6.5l34 175q-95 32 -149.5 108.5t-54.5 194.5q0 51 12 113l8 43
q11 46 37 166.5t50 224.5h-79q-42 0 -84 -11l-19 146q35 12 132 12h80q7 35 23 117t23 117l158 -1q-21 -106 -46 -228h122l299 2h18l-29 -147h-316q-23 0 -60 -1.5t-60 -1.5q-29 -122 -59 -256.5t-31 -138.5z" />
    <glyph glyph-name="Tcaron" unicode="&#x164;" 
d="M648 1351l-298 323l114 103l208 -227l336 241l88 -121zM326 -9l224 1153q-114 0 -227.5 -0.5t-136.5 -0.5l30 155q53 0 358 0.5t407 0.5q52 0 137 -15l-63 -152q-60 12 -110 12h-235l-224 -1153h-160z" />
    <glyph glyph-name="tcaron" unicode="&#x165;" 
d="M931 1469q-17 -49 -33.5 -106t-38 -134t-38.5 -132l-152 34q18 139 68 386zM377 474l-7 -40q-10 -49 -10 -92q0 -193 208 -193q179 0 261 145l121 -93q-20 -35 -50.5 -68t-78.5 -66t-121 -53t-160 -20q-152 0 -247 83t-95 241q0 51 12 113l8 43q11 46 37 166.5t50 224.5
h-79q-42 0 -84 -11l-19 146q35 12 132 12h80q7 35 23 117t23 117l158 -1q-21 -106 -46 -228h122l299 2h18l-29 -147h-316q-23 0 -60 -1.5t-60 -1.5q-29 -122 -59 -256.5t-31 -138.5z" />
    <glyph glyph-name="Tbar" unicode="&#x166;" 
d="M631 736h255l-29 -159h-257l-114 -586h-160l114 586h-237l29 159h239l79 408q-114 0 -227.5 -0.5t-136.5 -0.5l30 155q53 0 358 0.5t407 0.5q52 0 137 -15l-63 -152q-60 12 -110 12h-235z" />
    <glyph glyph-name="tbar" unicode="&#x167;" 
d="M377 474l-7 -40q-10 -49 -10 -92q0 -193 208 -193q179 0 261 145l121 -93q-20 -35 -50.5 -68t-78.5 -66t-121 -53t-160 -20q-152 0 -247 83t-95 241q0 51 12 113l8 43q1 5 3.5 15t3.5 15h-160l29 159h166q29 133 45 202h-79q-42 0 -84 -11l-19 146q35 12 132 12h80
q7 35 23 117t23 117l158 -1q-21 -106 -46 -228h122l299 2h18l-29 -147h-316q-23 0 -60 -1.5t-60 -1.5q-42 -178 -48 -206h272l-29 -159h-278q-1 -5 -3.5 -15t-3.5 -15z" />
    <glyph glyph-name="Utilde" unicode="&#x168;" 
d="M620 1681q38 0 71 -13.5t56.5 -32t45 -37.5t45.5 -32.5t49 -13.5q127 0 172 127l153 -58q-45 -97 -127.5 -159.5t-190.5 -62.5q-45 0 -82 13.5t-61.5 32t-45 37.5t-42.5 32.5t-45 13.5q-62 0 -106 -29.5t-86 -105.5l-150 75q76 118 157 165.5t187 47.5zM957 1313l154 -13
q-21 -60 -39 -157q-13 -69 -37 -197t-35 -186l-12 -58q-21 -109 -36.5 -175t-42.5 -151t-64 -148t-86 -109q-127 -121 -344 -129q-186 0 -265.5 80.5t-79.5 241.5q0 65 10 135q16 117 57 332q52 271 111 523h158q-68 -310 -119 -574q-40 -208 -50 -289q-5 -45 -5 -76
q0 -115 49.5 -168.5t149.5 -53.5q79 4 129 22.5t100 61.5q95 86 170 477q11 57 37.5 203t43.5 236q19 95 46 172z" />
    <glyph glyph-name="utilde" unicode="&#x169;" 
d="M604 1387q38 0 71 -13.5t56.5 -32t45 -37.5t45.5 -32.5t49 -13.5q127 0 172 127l153 -58q-45 -97 -127.5 -159.5t-190.5 -62.5q-45 0 -82 13.5t-61.5 32t-45 37.5t-42.5 32.5t-45 13.5q-62 0 -106 -29.5t-86 -105.5l-150 75q76 118 157 165.5t187 47.5zM808 -10
q-3 2 -25 19t-31 27t-24 31.5t-21.5 50t-6.5 64.5q0 47 15 116q-74 -136 -176.5 -216.5t-213.5 -81.5q-101 0 -173.5 62.5t-72.5 162.5q0 22 5 50q18 98 56 260t63 278.5t25 163.5q0 12 -1 17l165 27v-10q0 -43 -19.5 -135.5t-57 -260t-64.5 -309.5q-5 -30 -5 -52
q0 -99 88 -99q59 0 123.5 50t122 131.5t105.5 171t86 183.5l69 337l158 -22l-151 -767q-2 -16 -2 -22q0 -16 3.5 -29.5t12.5 -26t14.5 -19t20 -19.5t17.5 -16z" />
    <glyph glyph-name="Umacron" unicode="&#x16a;" 
d="M957 1590l-30 -152h-17q-58 -2 -202 -2q-149 0 -217 2l-17 1l30 155l18 -2q65 -2 254 -2h164h17zM957 1313l154 -13q-21 -60 -39 -157q-13 -69 -37 -197t-35 -186l-12 -58q-21 -109 -36.5 -175t-42.5 -151t-64 -148t-86 -109q-127 -121 -344 -129q-186 0 -265.5 80.5
t-79.5 241.5q0 65 10 135q16 117 57 332q52 271 111 523h158q-68 -310 -119 -574q-40 -208 -50 -289q-5 -45 -5 -76q0 -115 49.5 -168.5t149.5 -53.5q79 4 129 22.5t100 61.5q95 86 170 477q11 57 37.5 203t43.5 236q19 95 46 172z" />
    <glyph glyph-name="umacron" unicode="&#x16b;" 
d="M920 1332l-30 -152h-17q-58 -2 -202 -2q-149 0 -217 2l-17 1l30 155l18 -2q65 -2 254 -2h164h17zM808 -10q-3 2 -25 19t-31 27t-24 31.5t-21.5 50t-6.5 64.5q0 47 15 116q-74 -136 -176.5 -216.5t-213.5 -81.5q-101 0 -173.5 62.5t-72.5 162.5q0 22 5 50q18 98 56 260
t63 278.5t25 163.5q0 12 -1 17l165 27v-10q0 -43 -19.5 -135.5t-57 -260t-64.5 -309.5q-5 -30 -5 -52q0 -99 88 -99q59 0 123.5 50t122 131.5t105.5 171t86 183.5l69 337l158 -22l-151 -767q-2 -16 -2 -22q0 -16 3.5 -29.5t12.5 -26t14.5 -19t20 -19.5t17.5 -16z" />
    <glyph glyph-name="Ubreve" unicode="&#x16c;" 
d="M729 1529q79 0 147.5 46t84.5 106l160 -30q-43 -131 -155.5 -203t-266.5 -72q-40 0 -79.5 8t-80.5 29t-72 52.5t-51.5 83t-21.5 116.5l164 14q5 -150 171 -150zM957 1313l154 -13q-21 -60 -39 -157q-13 -69 -37 -197t-35 -186l-12 -58q-21 -109 -36.5 -175t-42.5 -151
t-64 -148t-86 -109q-127 -121 -344 -129q-186 0 -265.5 80.5t-79.5 241.5q0 65 10 135q16 117 57 332q52 271 111 523h158q-68 -310 -119 -574q-40 -208 -50 -289q-5 -45 -5 -76q0 -115 49.5 -168.5t149.5 -53.5q79 4 129 22.5t100 61.5q95 86 170 477q11 57 37.5 203
t43.5 236q19 95 46 172z" />
    <glyph glyph-name="ubreve" unicode="&#x16d;" 
d="M677 1229q79 0 147.5 46t84.5 106l160 -30q-43 -131 -155.5 -203t-266.5 -72q-40 0 -79.5 8t-80.5 29t-72 52.5t-51.5 83t-21.5 116.5l164 14q5 -150 171 -150zM808 -10q-3 2 -25 19t-31 27t-24 31.5t-21.5 50t-6.5 64.5q0 47 15 116q-74 -136 -176.5 -216.5
t-213.5 -81.5q-101 0 -173.5 62.5t-72.5 162.5q0 22 5 50q18 98 56 260t63 278.5t25 163.5q0 12 -1 17l165 27v-10q0 -43 -19.5 -135.5t-57 -260t-64.5 -309.5q-5 -30 -5 -52q0 -99 88 -99q59 0 123.5 50t122 131.5t105.5 171t86 183.5l69 337l158 -22l-151 -767
q-2 -16 -2 -22q0 -16 3.5 -29.5t12.5 -26t14.5 -19t20 -19.5t17.5 -16z" />
    <glyph glyph-name="Uring" unicode="&#x16e;" 
d="M623 1534q-1 -3 -1 -10q0 -25 20.5 -43.5t53.5 -18.5q37 0 65 22t34 50q1 4 1 11q0 24 -19.5 41t-53.5 17q-38 0 -66.5 -21t-33.5 -48zM493 1532q16 82 91.5 138.5t163.5 56.5q78 0 129.5 -45.5t51.5 -114.5q0 -17 -3 -35q-16 -82 -91 -138.5t-163 -56.5q-78 0 -130 45.5
t-52 115.5q0 16 3 34zM957 1313l154 -13q-21 -60 -39 -157q-13 -69 -37 -197t-35 -186l-12 -58q-21 -109 -36.5 -175t-42.5 -151t-64 -148t-86 -109q-127 -121 -344 -129q-186 0 -265.5 80.5t-79.5 241.5q0 65 10 135q16 117 57 332q52 271 111 523h158q-68 -310 -119 -574
q-40 -208 -50 -289q-5 -45 -5 -76q0 -115 49.5 -168.5t149.5 -53.5q79 4 129 22.5t100 61.5q95 86 170 477q11 57 37.5 203t43.5 236q19 95 46 172z" />
    <glyph glyph-name="uring" unicode="&#x16f;" 
d="M585 1258q-1 -3 -1 -10q0 -25 20.5 -43.5t53.5 -18.5q37 0 65 22t34 50q1 4 1 11q0 24 -19.5 41t-53.5 17q-38 0 -66.5 -21t-33.5 -48zM455 1256q16 82 91.5 138.5t163.5 56.5q78 0 129.5 -45.5t51.5 -114.5q0 -17 -3 -35q-16 -82 -91 -138.5t-163 -56.5q-78 0 -130 45.5
t-52 115.5q0 16 3 34zM808 -10q-3 2 -25 19t-31 27t-24 31.5t-21.5 50t-6.5 64.5q0 47 15 116q-74 -136 -176.5 -216.5t-213.5 -81.5q-101 0 -173.5 62.5t-72.5 162.5q0 22 5 50q18 98 56 260t63 278.5t25 163.5q0 12 -1 17l165 27v-10q0 -43 -19.5 -135.5t-57 -260
t-64.5 -309.5q-5 -30 -5 -52q0 -99 88 -99q59 0 123.5 50t122 131.5t105.5 171t86 183.5l69 337l158 -22l-151 -767q-2 -16 -2 -22q0 -16 3.5 -29.5t12.5 -26t14.5 -19t20 -19.5t17.5 -16z" />
    <glyph glyph-name="Uhungarumlaut" unicode="&#x170;" 
d="M715 1437q89 72 194.5 203.5t157.5 236.5l153 -100q-45 -100 -167 -237t-222 -218zM380 1444q88 72 193.5 204t156.5 236l155 -99q-45 -100 -168 -237.5t-224 -218.5zM957 1313l154 -13q-21 -60 -39 -157q-13 -69 -37 -197t-35 -186l-12 -58q-21 -109 -36.5 -175
t-42.5 -151t-64 -148t-86 -109q-127 -121 -344 -129q-186 0 -265.5 80.5t-79.5 241.5q0 65 10 135q16 117 57 332q52 271 111 523h158q-68 -310 -119 -574q-40 -208 -50 -289q-5 -45 -5 -76q0 -115 49.5 -168.5t149.5 -53.5q79 4 129 22.5t100 61.5q95 86 170 477
q11 57 37.5 203t43.5 236q19 95 46 172z" />
    <glyph glyph-name="uhungarumlaut" unicode="&#x171;" 
d="M663 1179q89 72 194.5 203.5t157.5 236.5l153 -100q-45 -100 -167 -237t-222 -218zM328 1186q88 72 193.5 204t156.5 236l155 -99q-45 -100 -168 -237.5t-224 -218.5zM808 -10q-3 2 -25 19t-31 27t-24 31.5t-21.5 50t-6.5 64.5q0 47 15 116q-74 -136 -176.5 -216.5
t-213.5 -81.5q-101 0 -173.5 62.5t-72.5 162.5q0 22 5 50q18 98 56 260t63 278.5t25 163.5q0 12 -1 17l165 27v-10q0 -43 -19.5 -135.5t-57 -260t-64.5 -309.5q-5 -30 -5 -52q0 -99 88 -99q59 0 123.5 50t122 131.5t105.5 171t86 183.5l69 337l158 -22l-151 -767
q-2 -16 -2 -22q0 -16 3.5 -29.5t12.5 -26t14.5 -19t20 -19.5t17.5 -16z" />
    <glyph glyph-name="Uogonek" unicode="&#x172;" 
d="M957 1313l154 -13q-21 -60 -39 -157q-13 -69 -37 -197t-35 -186l-12 -58q-21 -109 -36.5 -175t-42.5 -151t-64 -148t-86 -109q-37 -38 -147.5 -115t-197.5 -143.5t-93 -98.5q-1 -5 -1 -15q0 -33 30 -51t76 -18q27 0 56.5 11t42 18.5t40.5 25.5l58 -106
q-42 -38 -107 -65.5t-122 -27.5q-118 0 -175.5 46t-57.5 129q0 29 5 53q11 58 62 113t136 117q-157 11 -225.5 90.5t-68.5 229.5q0 65 10 135q16 117 57 332q52 271 111 523h158q-68 -310 -119 -574q-40 -208 -50 -289q-5 -45 -5 -76q0 -115 49.5 -168.5t149.5 -53.5
q79 4 129 22.5t100 61.5q95 86 170 477q11 57 37.5 203t43.5 236q19 95 46 172z" />
    <glyph glyph-name="uogonek" unicode="&#x173;" 
d="M891 160l38 -125q-25 -11 -78.5 -34t-85.5 -37t-79 -36t-76.5 -38t-59.5 -35t-45.5 -36.5t-18.5 -32.5q-1 -5 -1 -15q0 -33 30 -51t76 -18q27 0 56.5 11t42 18.5t40.5 25.5l58 -106q-42 -38 -107 -65.5t-122 -27.5q-118 0 -175.5 46t-57.5 129q0 21 5 53q5 28 22 56
t40 51t57.5 47t65 41.5t74 38.5t73 33.5t71.5 30.5q-34 34 -34 98q0 47 15 116q-74 -136 -176.5 -216.5t-213.5 -81.5q-101 0 -173.5 62.5t-72.5 162.5q0 22 5 50q18 98 56 260t63 278.5t25 163.5q0 12 -1 17l165 27v-10q0 -43 -19.5 -135.5t-57 -260t-64.5 -309.5
q-5 -30 -5 -52q0 -99 88 -99q59 0 123.5 50t122 131.5t105.5 171t86 183.5l69 337l158 -22l-151 -767q-2 -16 -2 -22q0 -22 14 -39.5t32 -17.5z" />
    <glyph glyph-name="Wcircumflex" unicode="&#x174;" 
d="M816 1792l293 -327l-117 -102l-204 231l-339 -236l-87 122zM257 0h-131q-1 13 -1 49q0 132 27.5 632t28.5 605l160 32q-2 -221 -11 -387t-19 -247.5t-21.5 -186t-16.5 -199.5q78 155 166 373.5t107 285.5q133 0 169 12q0 -42 -1.5 -147.5t-1.5 -164.5q0 -233 15 -357
q26 83 58.5 216t89.5 311.5t174 487.5l151 -32q-57 -141 -235.5 -678.5t-204.5 -604.5h-136q-59 403 -59 595v18q-76 -187 -308 -613z" />
    <glyph glyph-name="wcircumflex" unicode="&#x175;" 
d="M716 1503l293 -327l-117 -102l-204 231l-339 -236l-87 122zM122 1006l158 36q34 -98 34 -247q-1 -363 -61 -602q163 150 268 351q6 44 6 103q0 76 -8 148l128 2q16 -182 16 -377q0 -136 -10 -273q94 113 134 181q122 201 122 449q0 53 -17 114.5t-41 104.5l154 52
q58 -115 58 -270q0 -421 -401 -787q-6 0 -79 7.5t-78 7.5q1 9 6.5 40t6.5 41t5 36.5t5 43.5t3 44.5t3 56.5t1 63q-41 -60 -107.5 -131.5t-214.5 -220.5q-4 1 -34.5 12.5t-55 19t-36.5 8.5q24 130 47.5 347.5t23.5 370.5q0 67 -10.5 147.5t-25.5 121.5z" />
    <glyph glyph-name="Ycircumflex" unicode="&#x176;" 
d="M799 1816l293 -327l-117 -102l-204 231l-339 -236l-87 122zM296 42l270 482q-8 15 -75 142.5t-119.5 229.5t-106 213t-63.5 148l154 57q44 -110 310 -621q18 42 159.5 315t159.5 331l150 -59q-105 -216 -238 -471.5t-211.5 -400t-240.5 -440.5z" />
    <glyph glyph-name="ycircumflex" unicode="&#x177;" 
d="M732 1518l293 -327l-117 -102l-204 231l-339 -236l-87 122zM-2 -110q28 -36 79.5 -74.5t99.5 -38.5q34 0 68.5 21t67 60.5t52 68.5t46.5 73q-12 127 -32 262t-48.5 273.5t-68.5 229.5t-83 97q-2 0 -5.5 0.5t-5.5 0.5q-32 0 -40 -8l-13 168q48 6 77 6q34 0 71 -9
q56 -14 106 -103.5t84.5 -222t57.5 -259.5t37 -252q85 163 190.5 423t160.5 436l152 -42q-232 -676 -453 -1027q-118 -187 -218.5 -268t-219.5 -81q-82 0 -153 47t-114 101z" />
    <glyph glyph-name="Ydieresis" unicode="&#x178;" 
d="M478 1631l234 -3l-44 -225l-234 3zM883 1628l234 -3l-43 -225l-235 3zM296 42l270 482q-8 15 -75 142.5t-119.5 229.5t-106 213t-63.5 148l154 57q44 -110 310 -621q18 42 159.5 315t159.5 331l150 -59q-105 -216 -238 -471.5t-211.5 -400t-240.5 -440.5z" />
    <glyph glyph-name="Zacute" unicode="&#x179;" 
d="M472 1490q100 30 246 125.5t250 185.5l117 -150q-85 -80 -262 -179.5t-288 -131.5zM47 -5l-78 88l935 1067q-120 0 -371 -2.5t-296 -2.5l-1 153q52 0 355 2t405 2q26 0 51 -2t38.5 -4.5t29.5 -6t18 -3.5q-10 -35 -45 -137l-871 -998l487 -1q68 0 104 5.5t68 21.5l50 -133
q-64 -47 -193 -47h-243q-126 0 -279 -1t-157 -1h-7z" />
    <glyph glyph-name="zacute" unicode="&#x17a;" 
d="M434 1197q100 30 246 125.5t250 185.5l117 -150q-85 -80 -262 -179.5t-288 -131.5zM289 801l-94 124q71 60 137.5 77.5t160.5 17.5h299q148 0 217 10l66 -144q-86 -97 -176.5 -182.5t-144.5 -129.5t-176 -142q-149 -118 -265 -217q81 0 181 -32.5t135 -32.5
q71 0 113.5 42.5t50.5 107.5l152 -28q-6 -51 -27 -98t-57 -88t-93 -66t-127 -25q-71 0 -177 33t-177 33q-19 0 -37.5 -2.5t-31 -4t-30 -9.5t-24.5 -10.5t-27 -15t-23 -15t-27 -19.5t-27 -19l-93 128q42 40 81 77t78 71.5t69 61.5t68 59.5t59.5 50.5t60.5 50t53 43.5t55 44.5
t50 40q189 152 317 275q-39 -3 -81 -3q-49 0 -149 -0.5t-147 -0.5q-59 0 -105 -11.5t-87 -50.5z" />
    <glyph glyph-name="Zdotaccent" unicode="&#x17b;" 
d="M653 1644l235 -3l-43 -225l-236 3zM47 -5l-78 88l935 1067q-120 0 -371 -2.5t-296 -2.5l-1 153q52 0 355 2t405 2q26 0 51 -2t38.5 -4.5t29.5 -6t18 -3.5q-10 -35 -45 -137l-871 -998l487 -1q68 0 104 5.5t68 21.5l50 -133q-64 -47 -193 -47h-243q-126 0 -279 -1t-157 -1
h-7z" />
    <glyph glyph-name="zdotaccent" unicode="&#x17c;" 
d="M663 1403l235 -3l-43 -225l-236 3zM289 801l-94 124q71 60 137.5 77.5t160.5 17.5h299q148 0 217 10l66 -144q-86 -97 -176.5 -182.5t-144.5 -129.5t-176 -142q-149 -118 -265 -217q81 0 181 -32.5t135 -32.5q71 0 113.5 42.5t50.5 107.5l152 -28q-6 -51 -27 -98t-57 -88
t-93 -66t-127 -25q-71 0 -177 33t-177 33q-19 0 -37.5 -2.5t-31 -4t-30 -9.5t-24.5 -10.5t-27 -15t-23 -15t-27 -19.5t-27 -19l-93 128q42 40 81 77t78 71.5t69 61.5t68 59.5t59.5 50.5t60.5 50t53 43.5t55 44.5t50 40q189 152 317 275q-39 -3 -81 -3q-49 0 -149 -0.5
t-147 -0.5q-59 0 -105 -11.5t-87 -50.5z" />
    <glyph glyph-name="Zcaron" unicode="&#x17d;" 
d="M684 1366l-298 323l114 103l208 -227l336 241l88 -121zM47 -5l-78 88l935 1067q-120 0 -371 -2.5t-296 -2.5l-1 153q52 0 355 2t405 2q26 0 51 -2t38.5 -4.5t29.5 -6t18 -3.5q-10 -35 -45 -137l-871 -998l487 -1q68 0 104 5.5t68 21.5l50 -133q-64 -47 -193 -47h-243
q-126 0 -279 -1t-157 -1h-7z" />
    <glyph glyph-name="zcaron" unicode="&#x17e;" 
d="M676 1075l-298 323l114 103l208 -227l336 241l88 -121zM289 801l-94 124q71 60 137.5 77.5t160.5 17.5h299q148 0 217 10l66 -144q-86 -97 -176.5 -182.5t-144.5 -129.5t-176 -142q-149 -118 -265 -217q81 0 181 -32.5t135 -32.5q71 0 113.5 42.5t50.5 107.5l152 -28
q-6 -51 -27 -98t-57 -88t-93 -66t-127 -25q-71 0 -177 33t-177 33q-19 0 -37.5 -2.5t-31 -4t-30 -9.5t-24.5 -10.5t-27 -15t-23 -15t-27 -19.5t-27 -19l-93 128q42 40 81 77t78 71.5t69 61.5t68 59.5t59.5 50.5t60.5 50t53 43.5t55 44.5t50 40q189 152 317 275
q-39 -3 -81 -3q-49 0 -149 -0.5t-147 -0.5q-59 0 -105 -11.5t-87 -50.5z" />
    <glyph glyph-name="longs" unicode="&#x17f;" 
d="M1036 1256q-50 10 -179 10q-43 0 -75.5 -12t-51.5 -29t-33.5 -47t-21 -54.5t-14.5 -63.5l-9 -47q-13 -66 -62 -320t-91 -472.5t-42 -220.5h-156q64 320 163 859h-224l30 153h226l3.5 24.5t4.5 27.5q10 51 23 92.5t41.5 93t66.5 86t101 58.5t143 24q141 0 215 -14z" />
    <glyph glyph-name="uni0180" unicode="&#x180;" 
d="M814 478q17 86 17 161q0 119 -45.5 176.5t-123.5 57.5q-80 0 -168 -108t-164 -316l-29 -142q39 -92 82.5 -126t141.5 -34q122 0 189.5 84.5t99.5 246.5zM967 459q-20 -103 -57.5 -186t-94.5 -147t-138 -98.5t-182 -34.5q-153 0 -238 91q-7 -31 -29 -96l-162 19
q44 125 65 236l172 886h-159l31 155h153q8 55 13 119l161 9q-6 -72 -13 -128h318l-31 -155h-316l-70 -296q140 195 288 195q145 0 226 -106t81 -287q0 -83 -18 -176z" />
    <glyph glyph-name="uni0190" unicode="&#x190;" 
d="M896 161q-97 -65 -148 -89q-148 -72 -322 -72q-128 0 -200.5 25t-122.5 81q-62 70 -62 174q0 41 13 110q57 289 275 340q-110 39 -110 184q0 37 7 71q29 148 154 230t332 82h12q37 0 69 -2t60.5 -6.5t49.5 -8.5t44.5 -12.5t35.5 -12.5t32 -15.5t25.5 -14.5t25 -16
t21.5 -14l-104 -140q-131 89 -299 89q-121 0 -207 -43.5t-100 -115.5q-3 -17 -3 -32q0 -146 291 -146h4h18l-30 -152q-13 0 -38 0.5t-37 0.5q-110 0 -198 -32q-53 -19 -94 -65t-59 -88.5t-26 -82.5q-5 -27 -5 -46q0 -88 69.5 -138t187.5 -50q198 0 365 130z" />
    <glyph glyph-name="uni0191" unicode="&#x191;" 
d="M-74 -80q75 0 139.5 52t78.5 126l233 1201l601 -1q96 -4 153 -35l-85 -146q-16 10 -25.5 14t-39 9t-75.5 5h-70q-151 0 -334 -1l-63 -328q60 0 112.5 1t113.5 1q18 0 35.5 -1t31.5 -2t26.5 -2.5t21.5 -3t16 -2.5t10 -2l4 -1l17 -5l-64 -145q-54 14 -130 14h-93
q-66 0 -131 -2q-13 -67 -56 -302.5t-50 -272.5q-28 -148 -134.5 -240t-266.5 -96z" />
    <glyph glyph-name="florin" unicode="&#x192;" 
d="M443 152q-10 -49 -17.5 -84t-20.5 -78t-27 -73t-35 -64t-46.5 -57t-60 -45t-75.5 -35t-94 -21t-116 -8l26 154q134 0 203 66t105 245q57 286 136 715h-132l6 153h156q1 5 3.5 19t4.5 25q10 51 23 92.5t41.5 93t66.5 86t101 58.5t142 24q185 0 330 -85l-86 -139
q-75 47 -127 59.5t-139 12.5q-43 0 -75 -12t-51.5 -29t-34 -46.5t-21 -54.5t-14.5 -64l-8 -39q33 0 78 -0.5t82 -0.5q103 -3 156 -20l-40 -147q-40 14 -106 14h-200q-12 -62 -46 -244.5t-61 -325.5t-27 -145z" />
    <glyph glyph-name="uni01A4" unicode="&#x1a4;" 
d="M919 969q0 97 -49 139.5t-128 42.5q-35 0 -75 -2.5t-56 -2.5l-25 -126l-80 -407q49 -1 82 -1q67 0 125 21.5t105 63.5t74 112t27 160zM384 -10l-158 1l224 1152q-28 -2 -47.5 -9.5t-42 -28.5t-40 -65.5t-30.5 -112.5h-160q38 200 114.5 278.5t231.5 88.5q108 8 273 8
q336 0 336 -294q0 -136 -38 -242.5t-104.5 -172t-151.5 -99.5t-183 -34q-71 0 -131 3q-27 -139 -53 -270t-40 -203z" />
    <glyph glyph-name="uni01CD" unicode="&#x1cd;" 
d="M743 1447l-298 323l114 103l208 -227l336 241l88 -121zM739 495l-80 587l-304 -607q46 10 203 17zM800 0l-50 332q-10 0 -49.5 -1t-56 -1.5t-55.5 -1.5t-60.5 -2t-56.5 -2.5t-58.5 -4t-51.5 -5t-50.5 -6.5t-41.5 -8l-93 -179q-39 -71 -48 -121h-162q4 20 25 72.5t38 86.5
l582 1142h171l186 -1301h-169z" />
    <glyph glyph-name="uni01CE" unicode="&#x1ce;" 
d="M676 1156l-298 323l114 103l208 -227l336 241l88 -121zM243 514q-25 -93 -25 -168q0 -94 36 -148t96 -54q65 0 124.5 33.5t102.5 81.5t82.5 115t62.5 121t44 113l45 196q-36 25 -60 39.5t-71.5 30.5t-95.5 16q-138 0 -211.5 -86t-129.5 -290zM1006 1002l-120 -646
q-20 -102 -20 -142q0 -36 11.5 -56.5t41.5 -48.5l-106 -119q-4 3 -21 17.5t-23 21t-19 24t-18.5 34t-10.5 44t-5 60.5q0 16 1 25q-26 -38 -58 -71.5t-81 -71t-115.5 -59.5t-141.5 -22q-115 0 -185 98.5t-70 252.5q0 79 19 161q65 278 182.5 404t336.5 126q58 0 107.5 -12.5
t73.5 -25.5t56 -35q6 30 10 65z" />
    <glyph glyph-name="uni01CF" unicode="&#x1cf;" 
d="M669 1333l-298 323l114 103l208 -227l336 241l88 -121zM329 1298q157 4 334 4q120 0 364 -3l-30 -152q-65 0 -143 2.5t-123 2.5l-194 -1000q22 0 59.5 0.5t63.5 0.5q75 0 143 -4l-29 -150q-101 6 -209 6q-22 0 -73 -0.5t-82 -0.5q-27 0 -135 -3.5t-196 -3.5l29 149
q107 5 193 5h75l195 1000q-193 -3 -266 -7z" />
    <glyph glyph-name="uni01D0" unicode="&#x1d0;" 
d="M621 1156l-298 323l114 103l208 -227l336 241l88 -121zM661 1020l-147 -736q-5 -24 -5 -52q0 -108 112 -108q155 0 270 76l76 -117q-71 -50 -171.5 -75.5t-200.5 -25.5q-69 0 -118.5 19.5t-76 53.5t-38.5 72t-12 82q0 39 7 71l108 533q-31 -23 -99.5 -59.5t-119.5 -52.5
l-58 144q107 45 172 83t81.5 54.5t29.5 37.5h190z" />
    <glyph glyph-name="uni01D1" unicode="&#x1d1;" 
d="M724 1342l-298 323l114 103l208 -227l336 241l88 -121zM687 1326q38 0 76.5 -8t88 -36.5t86.5 -74t63 -130t26 -195.5q0 -115 -25 -247l-2 -11q-23 -116 -70 -225t-101 -185q-78 -109 -185 -168t-230 -59q-97 0 -177 35.5t-125 107.5q-69 110 -69 272q0 85 17 170
q24 123 55.5 222t68 168t68 113.5t69.5 85.5q67 73 160.5 118t205.5 47zM239 245q58 -105 205 -105q65 0 141 43.5t122 106.5q37 46 78 149t58 188l4 19q22 119 22 216q0 91 -20 155q-26 83 -72 119.5t-114 36.5q-56 0 -117.5 -25.5t-112.5 -78.5q-148 -153 -214 -493
q-14 -68 -14 -150q0 -122 34 -181z" />
    <glyph glyph-name="uni01D2" unicode="&#x1d2;" 
d="M701 1158l-298 323l114 103l208 -227l336 241l88 -121zM621 215q104 83 150 315q1 3 2 9t2 9q12 69 12 114q0 53 -7 88.5t-26 66.5t-58.5 46t-99.5 15q-128 0 -221 -111.5t-129 -297.5q-11 -57 -11 -101q0 -55 7 -90.5t27.5 -65t60 -43t101.5 -13.5q111 1 190 59zM407 1
h-2q-153 0 -242.5 88.5t-89.5 239.5q0 60 14 135q22 115 62.5 213t101 179.5t148.5 128.5t193 47q144 0 224 -49.5t114 -151.5q18 -54 18 -136q0 -79 -15 -152q-18 -91 -43 -166.5t-67.5 -147t-98 -120.5t-136 -78.5t-179.5 -29.5h-2z" />
    <glyph glyph-name="uni01D3" unicode="&#x1d3;" 
d="M658 1306l-298 323l114 103l208 -227l336 241l88 -121zM957 1313l154 -13q-21 -60 -39 -157q-13 -69 -37 -197t-35 -186l-12 -58q-21 -109 -36.5 -175t-42.5 -151t-64 -148t-86 -109q-127 -121 -344 -129q-186 0 -265.5 80.5t-79.5 241.5q0 65 10 135q16 117 57 332
q52 271 111 523h158q-68 -310 -119 -574q-40 -208 -50 -289q-5 -45 -5 -76q0 -115 49.5 -168.5t149.5 -53.5q79 4 129 22.5t100 61.5q95 86 170 477q11 57 37.5 203t43.5 236q19 95 46 172z" />
    <glyph glyph-name="uni01D4" unicode="&#x1d4;" 
d="M648 1087l-298 323l114 103l208 -227l336 241l88 -121zM808 -10q-3 2 -25 19t-31 27t-24 31.5t-21.5 50t-6.5 64.5q0 47 15 116q-74 -136 -176.5 -216.5t-213.5 -81.5q-101 0 -173.5 62.5t-72.5 162.5q0 22 5 50q18 98 56 260t63 278.5t25 163.5q0 12 -1 17l165 27v-10
q0 -43 -19.5 -135.5t-57 -260t-64.5 -309.5q-5 -30 -5 -52q0 -99 88 -99q59 0 123.5 50t122 131.5t105.5 171t86 183.5l69 337l158 -22l-151 -767q-2 -16 -2 -22q0 -16 3.5 -29.5t12.5 -26t14.5 -19t20 -19.5t17.5 -16z" />
    <glyph glyph-name="uni01D5" unicode="&#x1d5;" 
d="M1036 1864l-30 -152h-17q-58 -2 -202 -2q-149 0 -217 2l-17 1l30 155l18 -2q65 -2 254 -2h164h17zM445 1652l234 -3l-44 -225l-234 3zM850 1649l234 -3l-43 -225l-235 3zM957 1313l154 -13q-21 -60 -39 -157q-13 -69 -37 -197t-35 -186l-12 -58q-21 -109 -36.5 -175
t-42.5 -151t-64 -148t-86 -109q-127 -121 -344 -129q-186 0 -265.5 80.5t-79.5 241.5q0 65 10 135q16 117 57 332q52 271 111 523h158q-68 -310 -119 -574q-40 -208 -50 -289q-5 -45 -5 -76q0 -115 49.5 -168.5t149.5 -53.5q79 4 129 22.5t100 61.5q95 86 170 477
q11 57 37.5 203t43.5 236q19 95 46 172z" />
    <glyph glyph-name="uni01D6" unicode="&#x1d6;" 
d="M989 1642l-30 -152h-17q-58 -2 -202 -2q-149 0 -217 2l-17 1l30 155l18 -2q65 -2 254 -2h164h17zM381 1409l234 -3l-44 -225l-234 3zM786 1406l234 -3l-43 -225l-235 3zM808 -10q-3 2 -25 19t-31 27t-24 31.5t-21.5 50t-6.5 64.5q0 47 15 116q-74 -136 -176.5 -216.5
t-213.5 -81.5q-101 0 -173.5 62.5t-72.5 162.5q0 22 5 50q18 98 56 260t63 278.5t25 163.5q0 12 -1 17l165 27v-10q0 -43 -19.5 -135.5t-57 -260t-64.5 -309.5q-5 -30 -5 -52q0 -99 88 -99q59 0 123.5 50t122 131.5t105.5 171t86 183.5l69 337l158 -22l-151 -767
q-2 -16 -2 -22q0 -16 3.5 -29.5t12.5 -26t14.5 -19t20 -19.5t17.5 -16z" />
    <glyph glyph-name="uni01D7" unicode="&#x1d7;" 
d="M529 1832q100 30 246 125.5t250 185.5l117 -150q-85 -80 -262 -179.5t-288 -131.5zM445 1652l234 -3l-44 -225l-234 3zM850 1649l234 -3l-43 -225l-235 3zM957 1313l154 -13q-21 -60 -39 -157q-13 -69 -37 -197t-35 -186l-12 -58q-21 -109 -36.5 -175t-42.5 -151
t-64 -148t-86 -109q-127 -121 -344 -129q-186 0 -265.5 80.5t-79.5 241.5q0 65 10 135q16 117 57 332q52 271 111 523h158q-68 -310 -119 -574q-40 -208 -50 -289q-5 -45 -5 -76q0 -115 49.5 -168.5t149.5 -53.5q79 4 129 22.5t100 61.5q95 86 170 477q11 57 37.5 203
t43.5 236q19 95 46 172z" />
    <glyph glyph-name="uni01D8" unicode="&#x1d8;" 
d="M466 1588q100 30 246 125.5t250 185.5l117 -150q-85 -80 -262 -179.5t-288 -131.5zM381 1409l234 -3l-44 -225l-234 3zM786 1406l234 -3l-43 -225l-235 3zM808 -10q-3 2 -25 19t-31 27t-24 31.5t-21.5 50t-6.5 64.5q0 47 15 116q-74 -136 -176.5 -216.5t-213.5 -81.5
q-101 0 -173.5 62.5t-72.5 162.5q0 22 5 50q18 98 56 260t63 278.5t25 163.5q0 12 -1 17l165 27v-10q0 -43 -19.5 -135.5t-57 -260t-64.5 -309.5q-5 -30 -5 -52q0 -99 88 -99q59 0 123.5 50t122 131.5t105.5 171t86 183.5l69 337l158 -22l-151 -767q-2 -16 -2 -22
q0 -16 3.5 -29.5t12.5 -26t14.5 -19t20 -19.5t17.5 -16z" />
    <glyph glyph-name="uni01D9" unicode="&#x1d9;" 
d="M774 1652l-298 323l114 103l208 -227l336 241l88 -121zM445 1652l234 -3l-44 -225l-234 3zM850 1649l234 -3l-43 -225l-235 3zM957 1313l154 -13q-21 -60 -39 -157q-13 -69 -37 -197t-35 -186l-12 -58q-21 -109 -36.5 -175t-42.5 -151t-64 -148t-86 -109
q-127 -121 -344 -129q-186 0 -265.5 80.5t-79.5 241.5q0 65 10 135q16 117 57 332q52 271 111 523h158q-68 -310 -119 -574q-40 -208 -50 -289q-5 -45 -5 -76q0 -115 49.5 -168.5t149.5 -53.5q79 4 129 22.5t100 61.5q95 86 170 477q11 57 37.5 203t43.5 236q19 95 46 172z
" />
    <glyph glyph-name="uni01DA" unicode="&#x1da;" 
d="M708 1425l-298 323l114 103l208 -227l336 241l88 -121zM381 1409l234 -3l-44 -225l-234 3zM786 1406l234 -3l-43 -225l-235 3zM808 -10q-3 2 -25 19t-31 27t-24 31.5t-21.5 50t-6.5 64.5q0 47 15 116q-74 -136 -176.5 -216.5t-213.5 -81.5q-101 0 -173.5 62.5
t-72.5 162.5q0 22 5 50q18 98 56 260t63 278.5t25 163.5q0 12 -1 17l165 27v-10q0 -43 -19.5 -135.5t-57 -260t-64.5 -309.5q-5 -30 -5 -52q0 -99 88 -99q59 0 123.5 50t122 131.5t105.5 171t86 183.5l69 337l158 -22l-151 -767q-2 -16 -2 -22q0 -16 3.5 -29.5t12.5 -26
t14.5 -19t20 -19.5t17.5 -16z" />
    <glyph glyph-name="uni01DB" unicode="&#x1db;" 
d="M1056 1805l-107 -123q-96 67 -214.5 195.5t-172.5 230.5l160 104q71 -121 160 -234.5t174 -172.5zM445 1652l234 -3l-44 -225l-234 3zM850 1649l234 -3l-43 -225l-235 3zM957 1313l154 -13q-21 -60 -39 -157q-13 -69 -37 -197t-35 -186l-12 -58q-21 -109 -36.5 -175
t-42.5 -151t-64 -148t-86 -109q-127 -121 -344 -129q-186 0 -265.5 80.5t-79.5 241.5q0 65 10 135q16 117 57 332q52 271 111 523h158q-68 -310 -119 -574q-40 -208 -50 -289q-5 -45 -5 -76q0 -115 49.5 -168.5t149.5 -53.5q79 4 129 22.5t100 61.5q95 86 170 477
q11 57 37.5 203t43.5 236q19 95 46 172z" />
    <glyph glyph-name="uni01DC" unicode="&#x1dc;" 
d="M968 1546l-107 -123q-96 67 -214.5 195.5t-172.5 230.5l160 104q71 -121 160 -234.5t174 -172.5zM381 1409l234 -3l-44 -225l-234 3zM786 1406l234 -3l-43 -225l-235 3zM808 -10q-3 2 -25 19t-31 27t-24 31.5t-21.5 50t-6.5 64.5q0 47 15 116q-74 -136 -176.5 -216.5
t-213.5 -81.5q-101 0 -173.5 62.5t-72.5 162.5q0 22 5 50q18 98 56 260t63 278.5t25 163.5q0 12 -1 17l165 27v-10q0 -43 -19.5 -135.5t-57 -260t-64.5 -309.5q-5 -30 -5 -52q0 -99 88 -99q59 0 123.5 50t122 131.5t105.5 171t86 183.5l69 337l158 -22l-151 -767
q-2 -16 -2 -22q0 -16 3.5 -29.5t12.5 -26t14.5 -19t20 -19.5t17.5 -16z" />
    <glyph glyph-name="uni01DE" unicode="&#x1de;" 
d="M1038 1827l-30 -152h-17q-58 -2 -202 -2q-149 0 -217 2l-17 1l30 155l18 -2q65 -2 254 -2h164h17zM444 1607l234 -3l-44 -225l-234 3zM849 1604l234 -3l-43 -225l-235 3zM739 495l-80 587l-304 -607q46 10 203 17zM800 0l-50 332q-10 0 -49.5 -1t-56 -1.5t-55.5 -1.5
t-60.5 -2t-56.5 -2.5t-58.5 -4t-51.5 -5t-50.5 -6.5t-41.5 -8l-93 -179q-39 -71 -48 -121h-162q4 20 25 72.5t38 86.5l582 1142h171l186 -1301h-169z" />
    <glyph glyph-name="uni01DF" unicode="&#x1df;" 
d="M1041 1640l-30 -152h-17q-58 -2 -202 -2q-149 0 -217 2l-17 1l30 155l18 -2q65 -2 254 -2h164h17zM430 1406l234 -3l-44 -225l-234 3zM835 1403l234 -3l-43 -225l-235 3zM243 514q-25 -93 -25 -168q0 -94 36 -148t96 -54q65 0 124.5 33.5t102.5 81.5t82.5 115t62.5 121
t44 113l45 196q-36 25 -60 39.5t-71.5 30.5t-95.5 16q-138 0 -211.5 -86t-129.5 -290zM1006 1002l-120 -646q-20 -102 -20 -142q0 -36 11.5 -56.5t41.5 -48.5l-106 -119q-4 3 -21 17.5t-23 21t-19 24t-18.5 34t-10.5 44t-5 60.5q0 16 1 25q-26 -38 -58 -71.5t-81 -71
t-115.5 -59.5t-141.5 -22q-115 0 -185 98.5t-70 252.5q0 79 19 161q65 278 182.5 404t336.5 126q58 0 107.5 -12.5t73.5 -25.5t56 -35q6 30 10 65z" />
    <glyph glyph-name="uni01E0" unicode="&#x1e0;" 
d="M1029 1917l-30 -152h-17q-58 -2 -202 -2q-149 0 -217 2l-17 1l30 155l18 -2q65 -2 254 -2h164h17zM645 1673l235 -3l-43 -225l-236 3zM739 495l-80 587l-304 -607q46 10 203 17zM800 0l-50 332q-10 0 -49.5 -1t-56 -1.5t-55.5 -1.5t-60.5 -2t-56.5 -2.5t-58.5 -4
t-51.5 -5t-50.5 -6.5t-41.5 -8l-93 -179q-39 -71 -48 -121h-162q4 20 25 72.5t38 86.5l582 1142h171l186 -1301h-169z" />
    <glyph glyph-name="uni01E1" unicode="&#x1e1;" 
d="M1006 1634l-30 -152h-17q-58 -2 -202 -2q-149 0 -217 2l-17 1l30 155l18 -2q65 -2 254 -2h164h17zM608 1384l235 -3l-43 -225l-236 3zM243 514q-25 -93 -25 -168q0 -94 36 -148t96 -54q65 0 124.5 33.5t102.5 81.5t82.5 115t62.5 121t44 113l45 196q-36 25 -60 39.5
t-71.5 30.5t-95.5 16q-138 0 -211.5 -86t-129.5 -290zM1006 1002l-120 -646q-20 -102 -20 -142q0 -36 11.5 -56.5t41.5 -48.5l-106 -119q-4 3 -21 17.5t-23 21t-19 24t-18.5 34t-10.5 44t-5 60.5q0 16 1 25q-26 -38 -58 -71.5t-81 -71t-115.5 -59.5t-141.5 -22
q-115 0 -185 98.5t-70 252.5q0 79 19 161q65 278 182.5 404t336.5 126q58 0 107.5 -12.5t73.5 -25.5t56 -35q6 30 10 65z" />
    <glyph glyph-name="uni01E2" unicode="&#x1e2;" 
d="M947 1560l-30 -152h-17q-58 -2 -202 -2q-149 0 -217 2l-17 1l30 155l18 -2q65 -2 254 -2h164h17zM478 347q-72 -2 -133 -8.5t-85 -11.5l-25 -5l-90 -201q-45 -104 -48 -121h-162q9 44 63 159l533 1134q62 2 270 2q86 0 190.5 -0.5t145.5 -0.5l-30 -150h-405l-37 -328h300
l-30 -150h-281l-58 -519l244 2q25 0 55.5 6.5t48.5 12.5l18 7l15 -148q-11 -3 -35 -10t-37.5 -10.5t-37.5 -6.5t-49 -3h-6l-378 3zM495 490l67 604l-264 -619q72 13 197 15z" />
    <glyph glyph-name="uni01E3" unicode="&#x1e3;" 
d="M989 1342l-30 -152h-17q-58 -2 -202 -2q-149 0 -217 2l-17 1l30 155l18 -2q65 -2 254 -2h164h17zM145 894q180 140 305 140q48 0 81.5 -11.5t54.5 -36t33 -51.5t22 -67q61 76 129 120.5t134 44.5q205 0 205 -257q0 -133 -133 -272q-66 -68 -167 -109.5t-212 -49.5v-11
q0 -30 4.5 -60.5t15 -60.5t30.5 -49t48 -19q25 0 48.5 7t37 13t35.5 26t27 26t30 33l102 -109q-3 -3 -20.5 -19t-26 -23.5t-29.5 -24t-36.5 -25.5t-40.5 -21.5t-48 -19t-52.5 -11.5t-60.5 -5q-133 0 -175 128q-43 -60 -104 -94t-167 -34q-83 0 -132.5 63t-49.5 186
q0 74 25 151.5t69.5 143.5t115.5 108.5t154 42.5q34 0 69.5 -26.5t39.5 -42.5q22 78 22 120q0 75 -23.5 113t-80.5 38q-70 0 -199 -105zM185 244q0 -50 18 -75t41 -25q41 0 75 18.5t55 43t39 63t25.5 63.5t16 60t9.5 38q-9 32 -36 72.5t-51 40.5q-49 0 -95 -54.5
t-71.5 -123.5t-25.5 -121zM613 496q166 12 267 114q83 85 83 164q0 112 -88 112q-68 0 -148 -107t-114 -283z" />
    <glyph glyph-name="Gcaron" unicode="&#x1e6;" 
d="M703 1327l-298 323l114 103l208 -227l336 241l88 -121zM1050 733l-15 -128q-15 -128 -46 -227t-69 -162t-90.5 -108t-101.5 -67.5t-111 -37.5q-52 -11 -154 -11q-211 0 -313.5 120.5t-102.5 323.5q0 89 20 192q74 379 293 558q154 116 351 116h20q297 -7 368 -276
l-166 -46q-24 90 -77 130t-165 40q-73 0 -124 -13.5t-114 -59.5q-160 -118 -226 -460q-19 -97 -19 -172q0 -298 296 -298q155 0 235 100.5t126 339.5h-14q-23 0 -63 0.5t-59 0.5q-132 0 -238 -36l-37 141q120 42 309 42q192 0 287 -2z" />
    <glyph glyph-name="gcaron" unicode="&#x1e7;" 
d="M677 1118l-298 323l114 103l208 -227l336 241l88 -121zM243 514q-25 -93 -25 -168q0 -94 36 -148t96 -54q65 0 124.5 33.5t102.5 81.5t82.5 115t62.5 121t44 113l45 196q-36 25 -60 39.5t-71.5 30.5t-95.5 16q-138 0 -211.5 -86t-129.5 -290zM1006 1002l-120 -646
q-46 -244 -91 -370q-140 -388 -441 -388q-185 0 -429 145l76 150q201 -140 347 -140q46 0 87 15.5t71 37t58 60t45 67.5t36 77.5t27 72.5t21.5 70t15.5 54q-148 -215 -388 -215q-115 0 -185 98.5t-70 252.5q0 79 19 161q65 278 182.5 404t336.5 126q58 0 107.5 -12.5
t73.5 -25.5t56 -35q6 30 10 65z" />
    <glyph glyph-name="uni01E8" unicode="&#x1e8;" 
d="M680 1306l-298 323l114 103l208 -227l336 241l88 -121zM554 705q87 -105 231 -342.5t161 -329.5l-156 -50q-18 79 -145 292t-210 312q-103 -98 -147 -169l-90 -423h-158l255 1313h158l-117 -605q122 133 307 293q101 86 194 159t147 112.5t58 42.5l90 -130
q-136 -86 -313 -237t-265 -238z" />
    <glyph glyph-name="uni01E9" unicode="&#x1e9;" 
d="M437 1439l-298 323l114 103l208 -227l336 241l88 -121zM472 538q118 -34 157 -34q88 0 139.5 72.5t51.5 170.5q0 56 -25 90.5t-71 34.5q-76 0 -167.5 -79.5t-158.5 -182t-98 -190.5q-62 -310 -82 -420h-157l239 1228q11 57 11 108q0 36 -6 74l163 17q4 -22 4 -69
q0 -67 -10 -118l-93 -479q55 81 107 134t99.5 78t85 34t82.5 9q109 0 169 -79.5t60 -199.5q0 -124 -67.5 -219.5t-213.5 -129.5q18 -14 35 -30.5t30.5 -29.5t28.5 -34t23.5 -32t22.5 -37t19 -34.5t19 -39t17.5 -37t18.5 -41t17 -39.5l-141 -63q-45 143 -136.5 258.5
t-224.5 168.5z" />
    <glyph glyph-name="uni01EA" unicode="&#x1ea;" 
d="M704 1323q31 0 68.5 -9.5t87.5 -40t89.5 -78.5t67 -135t27.5 -199q0 -100 -24 -229l-2 -11q-23 -117 -72.5 -235.5t-102.5 -192.5q-41 -61 -103.5 -113t-121 -86.5t-114 -69t-94 -77.5t-49.5 -95q-2 -10 -2 -15q0 -33 29.5 -51t75.5 -18q56 0 141 55l58 -106
q-42 -38 -108 -65.5t-123 -27.5q-118 0 -175 46t-57 128q0 30 5 54q13 70 52.5 122t115.5 114q-171 20 -244 139q-69 109 -69 272q0 85 17 170q78 400 274 612q127 138 353 142zM256 242q58 -105 206 -105q152 0 262 150q39 48 83 152.5t60 185.5q30 150 30 250
q0 79 -18 134q-51 161 -200 161q-71 0 -122.5 -23.5t-106.5 -80.5q-148 -153 -214 -493q-14 -68 -14 -150q0 -121 34 -181z" />
    <glyph glyph-name="uni01EB" unicode="&#x1eb;" 
d="M621 215q104 83 150 315q1 3 2 9t2 9q12 69 12 114q0 101 -46 158.5t-145 57.5q-148 0 -230 -106t-120 -303q-11 -57 -11 -101q0 -102 51.5 -157t152.5 -55q57 1 97.5 14t84.5 45zM756 149q-50 -57 -129.5 -119t-142.5 -103t-113.5 -88t-57.5 -84q-1 -5 -1 -15
q0 -33 30 -51t76 -18q27 0 56.5 11t43 19t40.5 25l57 -106q-42 -38 -107 -65.5t-122 -27.5q-118 0 -175.5 46t-57.5 129q0 29 5 53q7 37 26.5 70.5t54 65.5t63.5 54.5t78 56.5q-150 8 -226 100.5t-76 245.5q0 67 15 142q22 114 61.5 208.5t99 171t146 119.5t192.5 43
q178 0 266 -96.5t88 -266.5q0 -73 -17 -161q-22 -114 -62.5 -198.5t-110.5 -160.5z" />
    <glyph glyph-name="uni01EC" unicode="&#x1ec;" 
d="M990 1599l-30 -152h-17q-58 -2 -202 -2q-149 0 -217 2l-17 1l30 155l18 -2q65 -2 254 -2h164h17zM704 1323q31 0 68.5 -9.5t87.5 -40t89.5 -78.5t67 -135t27.5 -199q0 -100 -24 -229l-2 -11q-23 -117 -72.5 -235.5t-102.5 -192.5q-41 -61 -103.5 -113t-121 -86.5
t-114 -69t-94 -77.5t-49.5 -95q-2 -10 -2 -15q0 -33 29.5 -51t75.5 -18q56 0 141 55l58 -106q-42 -38 -108 -65.5t-123 -27.5q-118 0 -175 46t-57 128q0 30 5 54q13 70 52.5 122t115.5 114q-171 20 -244 139q-69 109 -69 272q0 85 17 170q78 400 274 612q127 138 353 142z
M256 242q58 -105 206 -105q152 0 262 150q39 48 83 152.5t60 185.5q30 150 30 250q0 79 -18 134q-51 161 -200 161q-71 0 -122.5 -23.5t-106.5 -80.5q-148 -153 -214 -493q-14 -68 -14 -150q0 -121 34 -181z" />
    <glyph glyph-name="uni01ED" unicode="&#x1ed;" 
d="M958 1337l-30 -152h-17q-58 -2 -202 -2q-149 0 -217 2l-17 1l30 155l18 -2q65 -2 254 -2h164h17zM621 215q104 83 150 315q1 3 2 9t2 9q12 69 12 114q0 101 -46 158.5t-145 57.5q-148 0 -230 -106t-120 -303q-11 -57 -11 -101q0 -102 51.5 -157t152.5 -55q57 1 97.5 14
t84.5 45zM756 149q-50 -57 -129.5 -119t-142.5 -103t-113.5 -88t-57.5 -84q-1 -5 -1 -15q0 -33 30 -51t76 -18q27 0 56.5 11t43 19t40.5 25l57 -106q-42 -38 -107 -65.5t-122 -27.5q-118 0 -175.5 46t-57.5 129q0 29 5 53q7 37 26.5 70.5t54 65.5t63.5 54.5t78 56.5
q-150 8 -226 100.5t-76 245.5q0 67 15 142q22 114 61.5 208.5t99 171t146 119.5t192.5 43q178 0 266 -96.5t88 -266.5q0 -73 -17 -161q-22 -114 -62.5 -198.5t-110.5 -160.5z" />
    <glyph glyph-name="uni01F0" unicode="&#x1f0;" 
d="M772 1116l-298 323l114 103l208 -227l336 241l88 -121zM859 748l-174 -866q-52 -269 -351 -269q-54 0 -96 7t-91 29t-90 70t-72 121l145 98q20 -47 43 -80t43 -50t45 -26t41.5 -11t40.5 -2h17q74 0 117 39.5t53 77.5l176 876q4 24 4 45q0 84 -54 85h-3q-25 0 -42 -2.5
t-47 -11.5t-66 -33.5t-79 -63.5l-97 133q112 74 176.5 100.5t159.5 26.5q63 0 106 -16.5t64.5 -47t29.5 -64t8 -78.5q0 -53 -7 -87z" />
    <glyph glyph-name="uni01F4" unicode="&#x1f4;" 
d="M491 1452q100 30 246 125.5t250 185.5l117 -150q-85 -80 -262 -179.5t-288 -131.5zM1050 733l-15 -128q-15 -128 -46 -227t-69 -162t-90.5 -108t-101.5 -67.5t-111 -37.5q-52 -11 -154 -11q-211 0 -313.5 120.5t-102.5 323.5q0 89 20 192q74 379 293 558q154 116 351 116
h20q297 -7 368 -276l-166 -46q-24 90 -77 130t-165 40q-73 0 -124 -13.5t-114 -59.5q-160 -118 -226 -460q-19 -97 -19 -172q0 -298 296 -298q155 0 235 100.5t126 339.5h-14q-23 0 -63 0.5t-59 0.5q-132 0 -238 -36l-37 141q120 42 309 42q192 0 287 -2z" />
    <glyph glyph-name="uni01F5" unicode="&#x1f5;" 
d="M465 1215q100 30 246 125.5t250 185.5l117 -150q-85 -80 -262 -179.5t-288 -131.5zM243 514q-25 -93 -25 -168q0 -94 36 -148t96 -54q65 0 124.5 33.5t102.5 81.5t82.5 115t62.5 121t44 113l45 196q-36 25 -60 39.5t-71.5 30.5t-95.5 16q-138 0 -211.5 -86t-129.5 -290z
M1006 1002l-120 -646q-46 -244 -91 -370q-140 -388 -441 -388q-185 0 -429 145l76 150q201 -140 347 -140q46 0 87 15.5t71 37t58 60t45 67.5t36 77.5t27 72.5t21.5 70t15.5 54q-148 -215 -388 -215q-115 0 -185 98.5t-70 252.5q0 79 19 161q65 278 182.5 404t336.5 126
q58 0 107.5 -12.5t73.5 -25.5t56 -35q6 30 10 65z" />
    <glyph glyph-name="uni01F8" unicode="&#x1f8;" 
d="M945 1400l-107 -123q-96 67 -214.5 195.5t-172.5 230.5l160 104q71 -121 160 -234.5t174 -172.5zM676 -6q-131 497 -323 1007l-40 -204q-25 -127 -82 -422t-73 -378h-159l253 1301l159 -4q65 -133 173.5 -437.5t162.5 -499.5q27 153 75 400q58 300 117 540h154
q-32 -128 -90 -425q-21 -109 -66.5 -350t-68.5 -360q-5 -25 -16.5 -81.5t-16.5 -85.5z" />
    <glyph glyph-name="uni01F9" unicode="&#x1f9;" 
d="M955 1237l-107 -123q-96 67 -214.5 195.5t-172.5 230.5l160 104q71 -121 160 -234.5t174 -172.5zM374 856q174 174 358 174q87 0 154.5 -52.5t67.5 -139.5q0 -22 -4 -42l-114 -585q-2 -8 -2 -21q0 -8 1 -15.5t4.5 -14t6 -11.5t9.5 -11t10 -9.5t12.5 -9.5t12.5 -8.5
t14.5 -9t14.5 -8.5l-106 -112q-33 18 -53 31t-43 35t-34 49.5t-11 62.5q0 18 5 45l109 561q4 17 4 37q0 75 -86 75q-95 0 -211 -106t-184 -285l-98 -486l-158 -1l137 706q22 114 22 184q0 20 -1.5 39.5t-3.5 44t-3 41.5l170 18q3 -27 3 -84q0 -44 -3 -92z" />
    <glyph glyph-name="Aringacute" unicode="&#x1fa;" 
d="M534 1829q100 30 246 125.5t250 185.5l117 -150q-85 -80 -262 -179.5t-288 -131.5zM739 495l-80 587l-304 -607q46 10 203 17zM654 1452q-1 -3 -1 -10q0 -25 20.5 -43.5t53.5 -18.5q37 0 65 22t34 50q1 4 1 11q0 24 -19.5 41t-53.5 17q-38 0 -66.5 -21t-33.5 -48z
M524 1450q16 82 91.5 138.5t163.5 56.5q78 0 129.5 -45.5t51.5 -114.5q0 -17 -3 -35q-13 -61 -59.5 -110t-109.5 -71l181 -1269h-169l-50 332q-10 0 -49.5 -1t-56 -1.5t-55.5 -1.5t-60.5 -2t-56.5 -2.5t-58.5 -4t-51.5 -5t-50.5 -6.5t-41.5 -8l-93 -179q-39 -71 -48 -121
h-162q4 20 25 72.5t38 86.5l571 1121q-80 46 -80 136q0 16 3 34z" />
    <glyph glyph-name="aringacute" unicode="&#x1fb;" 
d="M537 1690q100 30 246 125.5t250 185.5l117 -150q-85 -80 -262 -179.5t-288 -131.5zM597 1290q-1 -3 -1 -10q0 -25 20.5 -43.5t53.5 -18.5q37 0 65 22t34 50q1 4 1 11q0 24 -19.5 41t-53.5 17q-38 0 -66.5 -21t-33.5 -48zM467 1288q16 82 91.5 138.5t163.5 56.5
q78 0 129.5 -45.5t51.5 -114.5q0 -17 -3 -35q-16 -82 -91 -138.5t-163 -56.5q-78 0 -130 45.5t-52 115.5q0 16 3 34zM243 514q-25 -93 -25 -168q0 -94 36 -148t96 -54q65 0 124.5 33.5t102.5 81.5t82.5 115t62.5 121t44 113l45 196q-36 25 -60 39.5t-71.5 30.5t-95.5 16
q-138 0 -211.5 -86t-129.5 -290zM1006 1002l-120 -646q-20 -102 -20 -142q0 -36 11.5 -56.5t41.5 -48.5l-106 -119q-4 3 -21 17.5t-23 21t-19 24t-18.5 34t-10.5 44t-5 60.5q0 16 1 25q-26 -38 -58 -71.5t-81 -71t-115.5 -59.5t-141.5 -22q-115 0 -185 98.5t-70 252.5
q0 79 19 161q65 278 182.5 404t336.5 126q58 0 107.5 -12.5t73.5 -25.5t56 -35q6 30 10 65z" />
    <glyph glyph-name="AEacute" unicode="&#x1fc;" 
d="M485 1496q100 30 246 125.5t250 185.5l117 -150q-85 -80 -262 -179.5t-288 -131.5zM478 347q-72 -2 -133 -8.5t-85 -11.5l-25 -5l-90 -201q-45 -104 -48 -121h-162q9 44 63 159l533 1134q62 2 270 2q86 0 190.5 -0.5t145.5 -0.5l-30 -150h-405l-37 -328h300l-30 -150
h-281l-58 -519l244 2q25 0 55.5 6.5t48.5 12.5l18 7l15 -148q-11 -3 -35 -10t-37.5 -10.5t-37.5 -6.5t-49 -3h-6l-378 3zM495 490l67 604l-264 -619q72 13 197 15z" />
    <glyph glyph-name="aeacute" unicode="&#x1fd;" 
d="M439 1199q100 30 246 125.5t250 185.5l117 -150q-85 -80 -262 -179.5t-288 -131.5zM145 894q180 140 305 140q48 0 81.5 -11.5t54.5 -36t33 -51.5t22 -67q61 76 129 120.5t134 44.5q205 0 205 -257q0 -133 -133 -272q-66 -68 -167 -109.5t-212 -49.5v-11q0 -30 4.5 -60.5
t15 -60.5t30.5 -49t48 -19q25 0 48.5 7t37 13t35.5 26t27 26t30 33l102 -109q-3 -3 -20.5 -19t-26 -23.5t-29.5 -24t-36.5 -25.5t-40.5 -21.5t-48 -19t-52.5 -11.5t-60.5 -5q-133 0 -175 128q-43 -60 -104 -94t-167 -34q-83 0 -132.5 63t-49.5 186q0 74 25 151.5t69.5 143.5
t115.5 108.5t154 42.5q34 0 69.5 -26.5t39.5 -42.5q22 78 22 120q0 75 -23.5 113t-80.5 38q-70 0 -199 -105zM185 244q0 -50 18 -75t41 -25q41 0 75 18.5t55 43t39 63t25.5 63.5t16 60t9.5 38q-9 32 -36 72.5t-51 40.5q-49 0 -95 -54.5t-71.5 -123.5t-25.5 -121zM613 496
q166 12 267 114q83 85 83 164q0 112 -88 112q-68 0 -148 -107t-114 -283z" />
    <glyph glyph-name="Oslashacute" unicode="&#x1fe;" 
d="M399 1491q100 30 246 125.5t250 185.5l117 -150q-85 -80 -262 -179.5t-288 -131.5zM6 -57q44 64 74 112q22 34 40 64q-8 10 -8 11q-69 110 -69 272q0 85 17 170q24 123 55.5 222t68 168t68 113.5t69.5 85.5q67 73 160.5 118t205.5 47q82 0 153 -37q75 126 101 172
l139 -81q-59 -99 -121 -203q68 -109 68 -295q0 -115 -25 -247l-2 -11q-23 -116 -70 -225t-101 -185q-78 -109 -185 -168t-230 -59q-95 0 -169 32q-19 -31 -52.5 -85t-46.5 -75zM223 284q289 467 533 867q-40 22 -93 22q-56 0 -117.5 -25.5t-112.5 -78.5q-148 -153 -214 -493
q-14 -68 -14 -150t18 -142zM853 1003q-206 -338 -520 -844q44 -19 111 -19q65 0 141 43.5t122 106.5q37 46 78 149t58 188l4 19q22 119 22 216q0 80 -16 141z" />
    <glyph glyph-name="oslashacute" unicode="&#x1ff;" 
d="M420 1216q100 30 246 125.5t250 185.5l117 -150q-85 -80 -262 -179.5t-288 -131.5zM235 356l505 465q-48 57 -144 57q-148 0 -230 -106t-120 -303q-11 -58 -11 -103v-10zM936 804q12 -53 12 -114q0 -69 -15 -147q-17 -89 -44.5 -166t-71.5 -147.5t-100 -120t-135 -79
t-173 -29.5h-2q-168 1 -252 90l-111 -100l-91 104l133 123q-13 49 -13 110t14 136q22 115 62.5 213t101 179.5t148.5 128.5t193 47q192 0 276 -92l137 127l99 -111zM621 215q104 83 150 315q1 3 2 9t2 9q12 65 12 109v10l-501 -455q53 -56 153 -56q57 1 97.5 14t84.5 45z
" />
    <glyph glyph-name="uni0200" unicode="&#x200;" 
d="M963 1346.35l-143 -68.1309q-73 91.7148 -135.5 207.45t-77.5 210.07l177 43.6738q20 -101.323 67.5 -206.576q47.5 -105.254 111.5 -186.487zM639 1341.11l-142 -68.1309q-74 93.4619 -135.5 208.324q-61.5 114.861 -76.5 209.197l176 43.6729q20 -101.322 67.5 -206.14
q47.5 -104.816 110.5 -186.924zM739 495l-80 587l-304 -607q46 10 203 17zM800 0l-50 332q-10 0 -49.5 -1t-56 -1.5t-55.5 -1.5t-60.5 -2t-56.5 -2.5t-58.5 -4t-51.5 -5t-50.5 -6.5t-41.5 -8l-93 -179q-39 -71 -48 -121h-162q4 20 25 72.5t38 86.5l582 1142h171l186 -1301
h-169z" />
    <glyph glyph-name="uni0201" unicode="&#x201;" 
d="M1060 1190l-143 -78q-73 105 -135.5 237.5t-77.5 240.5l177 50q20 -116 67.5 -236.5t111.5 -213.5zM736 1184l-142 -78q-74 107 -135.5 238.5t-76.5 239.5l176 50q20 -116 67.5 -236t110.5 -214zM243 514q-25 -93 -25 -168q0 -94 36 -148t96 -54q65 0 124.5 33.5
t102.5 81.5t82.5 115t62.5 121t44 113l45 196q-36 25 -60 39.5t-71.5 30.5t-95.5 16q-138 0 -211.5 -86t-129.5 -290zM1006 1002l-120 -646q-20 -102 -20 -142q0 -36 11.5 -56.5t41.5 -48.5l-106 -119q-4 3 -21 17.5t-23 21t-19 24t-18.5 34t-10.5 44t-5 60.5q0 16 1 25
q-26 -38 -58 -71.5t-81 -71t-115.5 -59.5t-141.5 -22q-115 0 -185 98.5t-70 252.5q0 79 19 161q65 278 182.5 404t336.5 126q58 0 107.5 -12.5t73.5 -25.5t56 -35q6 30 10 65z" />
    <glyph glyph-name="uni0202" unicode="&#x202;" 
d="M724 1441q-166 0 -230 -150l-168 34q110 269 450 269q120 0 198.5 -67.5t89.5 -180.5v-16l-172 -30q1 5 1 14q0 62 -34.5 94.5t-134.5 32.5zM739 495l-80 587l-304 -607q46 10 203 17zM800 0l-50 332q-10 0 -49.5 -1t-56 -1.5t-55.5 -1.5t-60.5 -2t-56.5 -2.5t-58.5 -4
t-51.5 -5t-50.5 -6.5t-41.5 -8l-93 -179q-39 -71 -48 -121h-162q4 20 25 72.5t38 86.5l582 1142h171l186 -1301h-169z" />
    <glyph glyph-name="uni0203" unicode="&#x203;" 
d="M690 1304q-166 0 -230 -150l-168 34q110 269 450 269q120 0 198.5 -67.5t89.5 -180.5v-16l-172 -30q1 5 1 14q0 62 -34.5 94.5t-134.5 32.5zM243 514q-25 -93 -25 -168q0 -94 36 -148t96 -54q65 0 124.5 33.5t102.5 81.5t82.5 115t62.5 121t44 113l45 196
q-36 25 -60 39.5t-71.5 30.5t-95.5 16q-138 0 -211.5 -86t-129.5 -290zM1006 1002l-120 -646q-20 -102 -20 -142q0 -36 11.5 -56.5t41.5 -48.5l-106 -119q-4 3 -21 17.5t-23 21t-19 24t-18.5 34t-10.5 44t-5 60.5q0 16 1 25q-26 -38 -58 -71.5t-81 -71t-115.5 -59.5
t-141.5 -22q-115 0 -185 98.5t-70 252.5q0 79 19 161q65 278 182.5 404t336.5 126q58 0 107.5 -12.5t73.5 -25.5t56 -35q6 30 10 65z" />
    <glyph glyph-name="uni0204" unicode="&#x204;" 
d="M1028 1368.75l-143 -63.0225q-73 84.8379 -135.5 191.896q-62.5 107.058 -77.5 194.319l177 40.3994q20 -93.7266 67.5 -191.088q47.5 -97.3623 111.5 -172.505zM704 1363.9l-142 -63.0225q-74 86.4541 -135.5 192.704q-61.5 106.249 -76.5 193.512l176 40.3994
q20 -93.7266 67.5 -190.685t110.5 -172.908zM278 1293q57 4 205 4h98h110q84 0 207.5 -1.5t151.5 -1.5h16v-150h-659l-63 -328h438v-150h-468l-5 -30q-23 -119 -59 -296t-39 -192h519q25 0 51 5t40 10l14 5l50 -141q-75 -30 -165 -30h-694z" />
    <glyph glyph-name="uni0205" unicode="&#x205;" 
d="M1029 1150l-143 -78q-73 105 -135.5 237.5t-77.5 240.5l177 50q20 -116 67.5 -236.5t111.5 -213.5zM705 1144l-142 -78q-74 107 -135.5 238.5t-76.5 239.5l176 50q20 -116 67.5 -236t110.5 -214zM262 492q68 5 105.5 8.5t109.5 13t127.5 26.5t95.5 41q111 67 111 154
q0 58 -54.5 96t-152.5 38q-129 0 -217.5 -95.5t-124.5 -281.5zM632 1021q153 0 239 -82.5t86 -198.5q0 -78 -42 -151t-121 -122q-70 -43 -183 -71.5t-188 -37.5t-177 -17v-11q0 -24 5.5 -47.5t21 -49.5t40.5 -45t67.5 -32t98.5 -13q205 0 327 135l102 -109q-1 -1 -19 -18
t-26.5 -23.5t-31 -24.5t-41 -27.5t-47.5 -25t-59.5 -24.5t-67.5 -18.5t-80.5 -13.5t-90.5 -4q-179 0 -269 96.5t-90 269.5q0 72 17 160q44 223 184 364t345 141z" />
    <glyph glyph-name="uni0206" unicode="&#x206;" 
d="M695 1487q-166 0 -230 -150l-168 34q110 269 450 269q120 0 198.5 -67.5t89.5 -180.5v-16l-172 -30q1 5 1 14q0 62 -34.5 94.5t-134.5 32.5zM278 1293q57 4 205 4h98h110q84 0 207.5 -1.5t151.5 -1.5h16v-150h-659l-63 -328h438v-150h-468l-5 -30q-23 -119 -59 -296
t-39 -192h519q25 0 51 5t40 10l14 5l50 -141q-75 -30 -165 -30h-694z" />
    <glyph glyph-name="uni0207" unicode="&#x207;" 
d="M716 1271q-166 0 -230 -150l-168 34q110 269 450 269q120 0 198.5 -67.5t89.5 -180.5v-16l-172 -30q1 5 1 14q0 62 -34.5 94.5t-134.5 32.5zM262 492q68 5 105.5 8.5t109.5 13t127.5 26.5t95.5 41q111 67 111 154q0 58 -54.5 96t-152.5 38q-129 0 -217.5 -95.5
t-124.5 -281.5zM632 1021q153 0 239 -82.5t86 -198.5q0 -78 -42 -151t-121 -122q-70 -43 -183 -71.5t-188 -37.5t-177 -17v-11q0 -24 5.5 -47.5t21 -49.5t40.5 -45t67.5 -32t98.5 -13q205 0 327 135l102 -109q-1 -1 -19 -18t-26.5 -23.5t-31 -24.5t-41 -27.5t-47.5 -25
t-59.5 -24.5t-67.5 -18.5t-80.5 -13.5t-90.5 -4q-179 0 -269 96.5t-90 269.5q0 72 17 160q44 223 184 364t345 141z" />
    <glyph glyph-name="uni0208" unicode="&#x208;" 
d="M1003 1382.33l-143 -56.9238q-73 76.6289 -135.5 173.327t-77.5 175.516l177 36.4902q20 -84.6562 67.5 -172.597q47.5 -87.9414 111.5 -155.812zM679 1377.95l-142 -56.9248q-74 78.0889 -135.5 174.057q-61.5 95.9688 -76.5 174.786l176 36.4902
q20 -84.6562 67.5 -172.232q47.5 -87.5752 110.5 -156.176zM329 1298q157 4 334 4q120 0 364 -3l-30 -152q-65 0 -143 2.5t-123 2.5l-194 -1000q22 0 59.5 0.5t63.5 0.5q75 0 143 -4l-29 -150q-101 6 -209 6q-22 0 -73 -0.5t-82 -0.5q-27 0 -135 -3.5t-196 -3.5l29 149
q107 5 193 5h75l195 1000q-193 -3 -266 -7z" />
    <glyph glyph-name="uni0209" unicode="&#x209;" 
d="M954 1175l-143 -78q-73 105 -135.5 237.5t-77.5 240.5l177 50q20 -116 67.5 -236.5t111.5 -213.5zM630 1169l-142 -78q-74 107 -135.5 238.5t-76.5 239.5l176 50q20 -116 67.5 -236t110.5 -214zM661 1020l-147 -736q-5 -24 -5 -52q0 -108 112 -108q155 0 270 76l76 -117
q-71 -50 -171.5 -75.5t-200.5 -25.5q-69 0 -118.5 19.5t-76 53.5t-38.5 72t-12 82q0 39 7 71l108 533q-31 -23 -99.5 -59.5t-119.5 -52.5l-58 144q107 45 172 83t81.5 54.5t29.5 37.5h190z" />
    <glyph glyph-name="uni020A" unicode="&#x20a;" 
d="M707 1487q-166 0 -230 -150l-168 34q110 269 450 269q120 0 198.5 -67.5t89.5 -180.5v-16l-172 -30q1 5 1 14q0 62 -34.5 94.5t-134.5 32.5zM329 1298q157 4 334 4q120 0 364 -3l-30 -152q-65 0 -143 2.5t-123 2.5l-194 -1000q22 0 59.5 0.5t63.5 0.5q75 0 143 -4
l-29 -150q-101 6 -209 6q-22 0 -73 -0.5t-82 -0.5q-27 0 -135 -3.5t-196 -3.5l29 149q107 5 193 5h75l195 1000q-193 -3 -266 -7z" />
    <glyph glyph-name="uni020B" unicode="&#x20b;" 
d="M674 1304q-166 0 -230 -150l-168 34q110 269 450 269q120 0 198.5 -67.5t89.5 -180.5v-16l-172 -30q1 5 1 14q0 62 -34.5 94.5t-134.5 32.5zM661 1020l-147 -736q-5 -24 -5 -52q0 -108 112 -108q155 0 270 76l76 -117q-71 -50 -171.5 -75.5t-200.5 -25.5
q-69 0 -118.5 19.5t-76 53.5t-38.5 72t-12 82q0 39 7 71l108 533q-31 -23 -99.5 -59.5t-119.5 -52.5l-58 144q107 45 172 83t81.5 54.5t29.5 37.5h190z" />
    <glyph glyph-name="uni020C" unicode="&#x20c;" 
d="M996 1388.51l-143 -55.4961q-73 74.7061 -135.5 168.979q-62.5 94.2715 -77.5 171.112l177 35.5742q20 -82.5322 67.5 -168.267t111.5 -151.902zM672 1384.24l-142 -55.4961q-74 76.1289 -135.5 169.689t-76.5 170.4l176 35.5752q20 -82.5332 67.5 -167.911
q47.5 -85.3789 110.5 -152.258zM687 1326q38 0 76.5 -8t88 -36.5t86.5 -74t63 -130t26 -195.5q0 -115 -25 -247l-2 -11q-23 -116 -70 -225t-101 -185q-78 -109 -185 -168t-230 -59q-97 0 -177 35.5t-125 107.5q-69 110 -69 272q0 85 17 170q24 123 55.5 222t68 168t68 113.5
t69.5 85.5q67 73 160.5 118t205.5 47zM239 245q58 -105 205 -105q65 0 141 43.5t122 106.5q37 46 78 149t58 188l4 19q22 119 22 216q0 91 -20 155q-26 83 -72 119.5t-114 36.5q-56 0 -117.5 -25.5t-112.5 -78.5q-148 -153 -214 -493q-14 -68 -14 -150q0 -122 34 -181z" />
    <glyph glyph-name="uni020D" unicode="&#x20d;" 
d="M947 1127l-143 -78q-73 105 -135.5 237.5t-77.5 240.5l177 50q20 -116 67.5 -236.5t111.5 -213.5zM623 1121l-142 -78q-74 107 -135.5 238.5t-76.5 239.5l176 50q20 -116 67.5 -236t110.5 -214zM621 215q104 83 150 315q1 3 2 9t2 9q12 69 12 114q0 53 -7 88.5t-26 66.5
t-58.5 46t-99.5 15q-128 0 -221 -111.5t-129 -297.5q-11 -57 -11 -101q0 -55 7 -90.5t27.5 -65t60 -43t101.5 -13.5q111 1 190 59zM407 1h-2q-153 0 -242.5 88.5t-89.5 239.5q0 60 14 135q22 115 62.5 213t101 179.5t148.5 128.5t193 47q144 0 224 -49.5t114 -151.5
q18 -54 18 -136q0 -79 -15 -152q-18 -91 -43 -166.5t-67.5 -147t-98 -120.5t-136 -78.5t-179.5 -29.5h-2z" />
    <glyph glyph-name="uni020E" unicode="&#x20e;" 
d="M720 1487q-166 0 -230 -150l-168 34q110 269 450 269q120 0 198.5 -67.5t89.5 -180.5v-16l-172 -30q1 5 1 14q0 62 -34.5 94.5t-134.5 32.5zM687 1326q38 0 76.5 -8t88 -36.5t86.5 -74t63 -130t26 -195.5q0 -115 -25 -247l-2 -11q-23 -116 -70 -225t-101 -185
q-78 -109 -185 -168t-230 -59q-97 0 -177 35.5t-125 107.5q-69 110 -69 272q0 85 17 170q24 123 55.5 222t68 168t68 113.5t69.5 85.5q67 73 160.5 118t205.5 47zM239 245q58 -105 205 -105q65 0 141 43.5t122 106.5q37 46 78 149t58 188l4 19q22 119 22 216q0 91 -20 155
q-26 83 -72 119.5t-114 36.5q-56 0 -117.5 -25.5t-112.5 -78.5q-148 -153 -214 -493q-14 -68 -14 -150q0 -122 34 -181z" />
    <glyph glyph-name="uni020F" unicode="&#x20f;" 
d="M682 1304q-166 0 -230 -150l-168 34q110 269 450 269q120 0 198.5 -67.5t89.5 -180.5v-16l-172 -30q1 5 1 14q0 62 -34.5 94.5t-134.5 32.5zM621 215q104 83 150 315q1 3 2 9t2 9q12 69 12 114q0 53 -7 88.5t-26 66.5t-58.5 46t-99.5 15q-128 0 -221 -111.5t-129 -297.5
q-11 -57 -11 -101q0 -55 7 -90.5t27.5 -65t60 -43t101.5 -13.5q111 1 190 59zM407 1h-2q-153 0 -242.5 88.5t-89.5 239.5q0 60 14 135q22 115 62.5 213t101 179.5t148.5 128.5t193 47q144 0 224 -49.5t114 -151.5q18 -54 18 -136q0 -79 -15 -152q-18 -91 -43 -166.5
t-67.5 -147t-98 -120.5t-136 -78.5t-179.5 -29.5h-2z" />
    <glyph glyph-name="uni0210" unicode="&#x210;" 
d="M953 1377.53l-143 -56.248q-73 75.7188 -135.5 171.269t-77.5 173.432l177 36.0566q20 -83.6514 67.5 -170.547q47.5 -86.8965 111.5 -153.962zM629 1373.2l-142 -56.248q-74 77.1611 -135.5 171.99q-61.5 94.8281 -76.5 172.711l176 36.0557q20 -83.6504 67.5 -170.187
q47.5 -86.5352 110.5 -154.322zM682 540q36 -81 98.5 -189t107.5 -175q1 -1 9.5 -10.5t13.5 -14.5t14.5 -13t20 -13.5t21.5 -8.5l-76 -132q-40 6 -74.5 30.5t-54.5 57.5q-56 79 -143.5 235t-116.5 227q-79 8 -220 33l-109 -567h-158l216 1113q19 96 29 175q161 15 221 15
q85 0 141 -2.5t118 -12t104 -27t80.5 -48t65.5 -74.5q45 -71 45 -167q0 -32 -6 -63q-33 -170 -114.5 -260t-232.5 -109zM871 895q5 28 5 50q0 57 -32 103q-38 57 -126.5 79.5t-260.5 22.5q-35 0 -64 -1l-81 -430q14 -3 45.5 -9t45.5 -8.5t39.5 -6.5t42 -6t38 -3.5t41.5 -1.5
q137 0 210.5 45t96.5 166z" />
    <glyph glyph-name="uni0211" unicode="&#x211;" 
d="M1080 1137l-143 -78q-73 105 -135.5 237.5t-77.5 240.5l177 50q20 -116 67.5 -236.5t111.5 -213.5zM756 1131l-142 -78q-74 107 -135.5 238.5t-76.5 239.5l176 50q20 -116 67.5 -236t110.5 -214zM421 731q108 164 204.5 229t216.5 65q82 0 127.5 -45t45.5 -126
q0 -53 -14 -125q0 -1 -0.5 -3t-0.5 -3h-156q12 79 12 86q0 28 -15.5 42t-53.5 14q-71 0 -179.5 -117.5t-226.5 -301.5l-90 -446l-156 1l149 763q3 14 3 27q0 73 -88 140l120 136q23 -22 38.5 -39.5t37 -47.5t32.5 -65.5t11 -74.5q0 -13 -17 -109z" />
    <glyph glyph-name="uni0212" unicode="&#x212;" 
d="M666 1502q-166 0 -230 -150l-168 34q110 269 450 269q120 0 198.5 -67.5t89.5 -180.5v-16l-172 -30q1 5 1 14q0 62 -34.5 94.5t-134.5 32.5zM682 540q36 -81 98.5 -189t107.5 -175q1 -1 9.5 -10.5t13.5 -14.5t14.5 -13t20 -13.5t21.5 -8.5l-76 -132q-40 6 -74.5 30.5
t-54.5 57.5q-56 79 -143.5 235t-116.5 227q-79 8 -220 33l-109 -567h-158l216 1113q19 96 29 175q161 15 221 15q85 0 141 -2.5t118 -12t104 -27t80.5 -48t65.5 -74.5q45 -71 45 -167q0 -32 -6 -63q-33 -170 -114.5 -260t-232.5 -109zM871 895q5 28 5 50q0 57 -32 103
q-38 57 -126.5 79.5t-260.5 22.5q-35 0 -64 -1l-81 -430q14 -3 45.5 -9t45.5 -8.5t39.5 -6.5t42 -6t38 -3.5t41.5 -1.5q137 0 210.5 45t96.5 166z" />
    <glyph glyph-name="uni0213" unicode="&#x213;" 
d="M737 1329q-166 0 -230 -150l-168 34q110 269 450 269q120 0 198.5 -67.5t89.5 -180.5v-16l-172 -30q1 5 1 14q0 62 -34.5 94.5t-134.5 32.5zM421 731q108 164 204.5 229t216.5 65q82 0 127.5 -45t45.5 -126q0 -53 -14 -125q0 -1 -0.5 -3t-0.5 -3h-156q12 79 12 86
q0 28 -15.5 42t-53.5 14q-71 0 -179.5 -117.5t-226.5 -301.5l-90 -446l-156 1l149 763q3 14 3 27q0 73 -88 140l120 136q23 -22 38.5 -39.5t37 -47.5t32.5 -65.5t11 -74.5q0 -13 -17 -109z" />
    <glyph glyph-name="uni0214" unicode="&#x214;" 
d="M971 1342.01l-143 -56.9668q-73 76.6865 -135.5 173.457q-62.5 96.7715 -77.5 175.648l177 36.5176q20 -84.7207 67.5 -172.727q47.5 -88.0068 111.5 -155.93zM647 1337.63l-142 -56.9668q-74 78.1465 -135.5 174.188q-61.5 96.04 -76.5 174.918l176 36.5176
q20 -84.7207 67.5 -172.362t110.5 -156.294zM957 1313l154 -13q-21 -60 -39 -157q-13 -69 -37 -197t-35 -186l-12 -58q-21 -109 -36.5 -175t-42.5 -151t-64 -148t-86 -109q-127 -121 -344 -129q-186 0 -265.5 80.5t-79.5 241.5q0 65 10 135q16 117 57 332q52 271 111 523
h158q-68 -310 -119 -574q-40 -208 -50 -289q-5 -45 -5 -76q0 -115 49.5 -168.5t149.5 -53.5q79 4 129 22.5t100 61.5q95 86 170 477q11 57 37.5 203t43.5 236q19 95 46 172z" />
    <glyph glyph-name="uni0215" unicode="&#x215;" 
d="M1029 1112l-143 -78q-73 105 -135.5 237.5t-77.5 240.5l177 50q20 -116 67.5 -236.5t111.5 -213.5zM705 1106l-142 -78q-74 107 -135.5 238.5t-76.5 239.5l176 50q20 -116 67.5 -236t110.5 -214zM808 -10q-3 2 -25 19t-31 27t-24 31.5t-21.5 50t-6.5 64.5q0 47 15 116
q-74 -136 -176.5 -216.5t-213.5 -81.5q-101 0 -173.5 62.5t-72.5 162.5q0 22 5 50q18 98 56 260t63 278.5t25 163.5q0 12 -1 17l165 27v-10q0 -43 -19.5 -135.5t-57 -260t-64.5 -309.5q-5 -30 -5 -52q0 -99 88 -99q59 0 123.5 50t122 131.5t105.5 171t86 183.5l69 337
l158 -22l-151 -767q-2 -16 -2 -22q0 -16 3.5 -29.5t12.5 -26t14.5 -19t20 -19.5t17.5 -16z" />
    <glyph glyph-name="uni0216" unicode="&#x216;" 
d="M741 1487q-166 0 -230 -150l-168 34q110 269 450 269q120 0 198.5 -67.5t89.5 -180.5v-16l-172 -30q1 5 1 14q0 62 -34.5 94.5t-134.5 32.5zM957 1313l154 -13q-21 -60 -39 -157q-13 -69 -37 -197t-35 -186l-12 -58q-21 -109 -36.5 -175t-42.5 -151t-64 -148t-86 -109
q-127 -121 -344 -129q-186 0 -265.5 80.5t-79.5 241.5q0 65 10 135q16 117 57 332q52 271 111 523h158q-68 -310 -119 -574q-40 -208 -50 -289q-5 -45 -5 -76q0 -115 49.5 -168.5t149.5 -53.5q79 4 129 22.5t100 61.5q95 86 170 477q11 57 37.5 203t43.5 236q19 95 46 172z
" />
    <glyph glyph-name="uni0217" unicode="&#x217;" 
d="M723 1276q-166 0 -230 -150l-168 34q110 269 450 269q120 0 198.5 -67.5t89.5 -180.5v-16l-172 -30q1 5 1 14q0 62 -34.5 94.5t-134.5 32.5zM808 -10q-3 2 -25 19t-31 27t-24 31.5t-21.5 50t-6.5 64.5q0 47 15 116q-74 -136 -176.5 -216.5t-213.5 -81.5
q-101 0 -173.5 62.5t-72.5 162.5q0 22 5 50q18 98 56 260t63 278.5t25 163.5q0 12 -1 17l165 27v-10q0 -43 -19.5 -135.5t-57 -260t-64.5 -309.5q-5 -30 -5 -52q0 -99 88 -99q59 0 123.5 50t122 131.5t105.5 171t86 183.5l69 337l158 -22l-151 -767q-2 -16 -2 -22
q0 -16 3.5 -29.5t12.5 -26t14.5 -19t20 -19.5t17.5 -16z" />
    <glyph glyph-name="Scommaaccent" unicode="&#x218;" 
d="M267 -131h220l-42 -215q-21 -109 -81 -174t-170 -109l-29 127q53 23 77.5 51.5t37.5 98.5h-56zM166 358q0 -93 79 -154.5t216 -61.5q153 0 242.5 83.5t89.5 203.5q0 112 -103 160q-50 23 -183 55.5t-197 64.5q-57 29 -92.5 83.5t-35.5 130.5q0 95 41 170t109 119
t148.5 67t167.5 23q147 0 254.5 -27.5t163.5 -70.5l-99 -153q-108 97 -344 97q-111 0 -190.5 -53t-79.5 -136q0 -76 70 -112q53 -28 188 -56.5t195 -58.5q67 -36 109 -103.5t42 -160.5q0 -98 -29.5 -179t-79 -135.5t-116 -91.5t-139 -54t-149.5 -17h-19q-207 5 -314 97.5
t-107 230.5z" />
    <glyph glyph-name="scommaaccent" unicode="&#x219;" 
d="M307 -142h220l-42 -215q-21 -109 -81 -174t-170 -109l-29 127q53 23 77.5 51.5t37.5 98.5h-56zM367 574q-100 73 -100 182q0 25 6 52q24 110 117 166t250 56q204 0 344 -58l-58 -149q-110 59 -300 59q-91 0 -141 -35t-50 -81q0 -34 28 -58q39 -33 93 -68t97 -60
t88.5 -56.5t76 -61t50 -70t19.5 -86.5q0 -22 -5 -50q-13 -65 -43.5 -113.5t-72 -79t-98.5 -49.5t-115.5 -26.5t-129.5 -7.5q-150 0 -251 78.5t-101 208.5q0 30 6 63l157 -1q-3 -18 -3 -34q0 -79 66.5 -125.5t150.5 -46.5q100 0 175.5 40.5t90.5 118.5q1 4 1 13q0 43 -51 86
t-152.5 102.5t-144.5 90.5z" />
    <glyph glyph-name="uni021A" unicode="&#x21a;" 
d="M278 -131h220l-42 -215q-21 -109 -81 -174t-170 -109l-29 127q53 23 77.5 51.5t37.5 98.5h-56zM326 -9l224 1153q-114 0 -227.5 -0.5t-136.5 -0.5l30 155q53 0 358 0.5t407 0.5q52 0 137 -15l-63 -152q-60 12 -110 12h-235l-224 -1153h-160z" />
    <glyph glyph-name="uni021B" unicode="&#x21b;" 
d="M372 -128h220l-42 -215q-21 -109 -81 -174t-170 -109l-29 127q53 23 77.5 51.5t37.5 98.5h-56zM377 474l-7 -40q-10 -49 -10 -92q0 -193 208 -193q179 0 261 145l121 -93q-20 -35 -50.5 -68t-78.5 -66t-121 -53t-160 -20q-152 0 -247 83t-95 241q0 51 12 113l8 43
q11 46 37 166.5t50 224.5h-79q-42 0 -84 -11l-19 146q35 12 132 12h80q7 35 23 117t23 117l158 -1q-21 -106 -46 -228h122l299 2h18l-29 -147h-316q-23 0 -60 -1.5t-60 -1.5q-29 -122 -59 -256.5t-31 -138.5z" />
    <glyph glyph-name="uni021E" unicode="&#x21e;" 
d="M663 1321l-298 323l114 103l208 -227l336 241l88 -121zM397 1296l-107 -547q128 28 312 28h228q60 310 99 514h159l-251 -1291h-158l121 625h-129q-273 0 -411 -28q-39 -198 -71 -370.5t-43 -226.5h-161l252 1294z" />
    <glyph glyph-name="uni021F" unicode="&#x21f;" 
d="M367 1470l-298 323l114 103l208 -227l336 241l88 -121zM755 576q26 134 26 171q0 53 -29 86.5t-89 33.5q-26 0 -58.5 -10.5t-76.5 -38t-87.5 -68.5t-91 -110t-86.5 -156l-52 -286q-17 -96 -48 -198l-156 8q30 98 49 196l232 1198h159l-111 -570q60 90 141 139t160 49
q305 0 305 -245q0 -39 -17 -133q-20 -102 -73 -367q-13 -59 -13 -78q0 -17 3.5 -30t7 -21t13.5 -15.5t15.5 -10.5t20 -9.5t20.5 -9.5l-66 -136q-73 18 -124 69.5t-51 121.5q0 33 15 104z" />
    <glyph glyph-name="uni0226" unicode="&#x226;" 
d="M645 1673l235 -3l-43 -225l-236 3zM739 495l-80 587l-304 -607q46 10 203 17zM800 0l-50 332q-10 0 -49.5 -1t-56 -1.5t-55.5 -1.5t-60.5 -2t-56.5 -2.5t-58.5 -4t-51.5 -5t-50.5 -6.5t-41.5 -8l-93 -179q-39 -71 -48 -121h-162q4 20 25 72.5t38 86.5l582 1142h171
l186 -1301h-169z" />
    <glyph glyph-name="uni0227" unicode="&#x227;" 
d="M608 1384l235 -3l-43 -225l-236 3zM243 514q-25 -93 -25 -168q0 -94 36 -148t96 -54q65 0 124.5 33.5t102.5 81.5t82.5 115t62.5 121t44 113l45 196q-36 25 -60 39.5t-71.5 30.5t-95.5 16q-138 0 -211.5 -86t-129.5 -290zM1006 1002l-120 -646q-20 -102 -20 -142
q0 -36 11.5 -56.5t41.5 -48.5l-106 -119q-4 3 -21 17.5t-23 21t-19 24t-18.5 34t-10.5 44t-5 60.5q0 16 1 25q-26 -38 -58 -71.5t-81 -71t-115.5 -59.5t-141.5 -22q-115 0 -185 98.5t-70 252.5q0 79 19 161q65 278 182.5 404t336.5 126q58 0 107.5 -12.5t73.5 -25.5t56 -35
q6 30 10 65z" />
    <glyph glyph-name="uni0228" unicode="&#x228;" 
d="M278 1293q57 4 205 4h98h110q84 0 207.5 -1.5t151.5 -1.5h16v-150h-659l-63 -328h438v-150h-468l-5 -30q-23 -119 -59 -296t-39 -192h519q25 0 51 5t40 10l14 5l50 -141q-75 -30 -165 -30h-282q-2 -9 -5 -24t-5.5 -25.5t-2.5 -11.5q61 -3 94 -35.5t33 -90.5q0 -18 -5 -45
q-14 -72 -81.5 -120t-135.5 -48q-99 0 -182 61l59 106q2 -1 9 -5.5t10 -6t9.5 -5.5t10.5 -5.5t11 -5t12 -5t12 -3.5t13.5 -3t14 -2t14.5 -1q30 0 57 15.5t34 42.5v2q0 1 0.5 3.5t0.5 3.5q0 20 -21.5 33.5t-54.5 13.5q-17 0 -29 -1.5t-17.5 -3t-16.5 -6t-18 -6.5l34 178h-266
z" />
    <glyph glyph-name="uni0229" unicode="&#x229;" 
d="M262 492q68 5 105.5 8.5t109.5 13t127.5 26.5t95.5 41q111 67 111 154q0 58 -54.5 96t-152.5 38q-129 0 -217.5 -95.5t-124.5 -281.5zM632 1021q153 0 239 -82.5t86 -198.5q0 -78 -42 -151t-121 -122q-70 -43 -183 -71.5t-188 -37.5t-177 -17v-11q0 -24 5.5 -47.5
t21 -49.5t40.5 -45t67.5 -32t98.5 -13q205 0 327 135l102 -109q-2 -2 -18 -16.5t-25 -22t-29 -23.5t-37.5 -26t-43.5 -24.5t-53.5 -24t-61 -19t-72.5 -15t-82 -7.5q-8 -44 -10 -47q61 -3 94 -35.5t33 -90.5q0 -18 -5 -45q-14 -72 -81.5 -120t-135.5 -48q-99 0 -182 61
l59 106q2 -1 9 -5.5t10 -6t9.5 -5.5t10.5 -5.5t11 -5t12 -5t12 -3.5t13.5 -3t14 -2t14.5 -1q30 0 57 15.5t34 42.5v2q0 1 0.5 3.5t0.5 3.5q0 20 -21.5 33.5t-54.5 13.5q-17 0 -29 -1.5t-17.5 -3t-16.5 -6t-18 -6.5l33 173q-128 26 -192 118t-64 238q0 72 17 160
q44 223 184 364t345 141z" />
    <glyph glyph-name="uni022A" unicode="&#x22a;" 
d="M1067 1880l-30 -152h-17q-58 -2 -202 -2q-149 0 -217 2l-17 1l30 155l18 -2q65 -2 254 -2h164h17zM466 1637l234 -3l-44 -225l-234 3zM871 1634l234 -3l-43 -225l-235 3zM687 1326q38 0 76.5 -8t88 -36.5t86.5 -74t63 -130t26 -195.5q0 -115 -25 -247l-2 -11
q-23 -116 -70 -225t-101 -185q-78 -109 -185 -168t-230 -59q-97 0 -177 35.5t-125 107.5q-69 110 -69 272q0 85 17 170q24 123 55.5 222t68 168t68 113.5t69.5 85.5q67 73 160.5 118t205.5 47zM239 245q58 -105 205 -105q65 0 141 43.5t122 106.5q37 46 78 149t58 188l4 19
q22 119 22 216q0 91 -20 155q-26 83 -72 119.5t-114 36.5q-56 0 -117.5 -25.5t-112.5 -78.5q-148 -153 -214 -493q-14 -68 -14 -150q0 -122 34 -181z" />
    <glyph glyph-name="uni022B" unicode="&#x22b;" 
d="M1010 1619l-30 -152h-17q-58 -2 -202 -2q-149 0 -217 2l-17 1l30 155l18 -2q65 -2 254 -2h164h17zM417 1399l234 -3l-44 -225l-234 3zM822 1396l234 -3l-43 -225l-235 3zM621 215q104 83 150 315q1 3 2 9t2 9q12 69 12 114q0 53 -7 88.5t-26 66.5t-58.5 46t-99.5 15
q-128 0 -221 -111.5t-129 -297.5q-11 -57 -11 -101q0 -55 7 -90.5t27.5 -65t60 -43t101.5 -13.5q111 1 190 59zM407 1h-2q-153 0 -242.5 88.5t-89.5 239.5q0 60 14 135q22 115 62.5 213t101 179.5t148.5 128.5t193 47q144 0 224 -49.5t114 -151.5q18 -54 18 -136
q0 -79 -15 -152q-18 -91 -43 -166.5t-67.5 -147t-98 -120.5t-136 -78.5t-179.5 -29.5h-2z" />
    <glyph glyph-name="uni022C" unicode="&#x22c;" 
d="M1083 1922l-30 -152h-17q-58 -2 -202 -2q-149 0 -217 2l-17 1l30 155l18 -2q65 -2 254 -2h164h17zM626 1681q38 0 71 -13.5t56.5 -32t45 -37.5t45.5 -32.5t49 -13.5q127 0 172 127l153 -58q-45 -97 -127.5 -159.5t-190.5 -62.5q-45 0 -82 13.5t-61.5 32t-45 37.5
t-42.5 32.5t-45 13.5q-62 0 -106 -29.5t-86 -105.5l-150 75q76 118 157 165.5t187 47.5zM687 1326q38 0 76.5 -8t88 -36.5t86.5 -74t63 -130t26 -195.5q0 -115 -25 -247l-2 -11q-23 -116 -70 -225t-101 -185q-78 -109 -185 -168t-230 -59q-97 0 -177 35.5t-125 107.5
q-69 110 -69 272q0 85 17 170q24 123 55.5 222t68 168t68 113.5t69.5 85.5q67 73 160.5 118t205.5 47zM239 245q58 -105 205 -105q65 0 141 43.5t122 106.5q37 46 78 149t58 188l4 19q22 119 22 216q0 91 -20 155q-26 83 -72 119.5t-114 36.5q-56 0 -117.5 -25.5
t-112.5 -78.5q-148 -153 -214 -493q-14 -68 -14 -150q0 -122 34 -181z" />
    <glyph glyph-name="uni022D" unicode="&#x22d;" 
d="M981 1623l-30 -152h-17q-58 -2 -202 -2q-149 0 -217 2l-17 1l30 155l18 -2q65 -2 254 -2h164h17zM555 1383q38 0 71 -13.5t56.5 -32t45 -37.5t45.5 -32.5t49 -13.5q127 0 172 127l153 -58q-45 -97 -127.5 -159.5t-190.5 -62.5q-45 0 -82 13.5t-61.5 32t-45 37.5
t-42.5 32.5t-45 13.5q-62 0 -106 -29.5t-86 -105.5l-150 75q76 118 157 165.5t187 47.5zM621 215q104 83 150 315q1 3 2 9t2 9q12 69 12 114q0 53 -7 88.5t-26 66.5t-58.5 46t-99.5 15q-128 0 -221 -111.5t-129 -297.5q-11 -57 -11 -101q0 -55 7 -90.5t27.5 -65t60 -43
t101.5 -13.5q111 1 190 59zM407 1h-2q-153 0 -242.5 88.5t-89.5 239.5q0 60 14 135q22 115 62.5 213t101 179.5t148.5 128.5t193 47q144 0 224 -49.5t114 -151.5q18 -54 18 -136q0 -79 -15 -152q-18 -91 -43 -166.5t-67.5 -147t-98 -120.5t-136 -78.5t-179.5 -29.5h-2z" />
    <glyph glyph-name="uni022E" unicode="&#x22e;" 
d="M668 1634l235 -3l-43 -225l-236 3zM687 1326q38 0 76.5 -8t88 -36.5t86.5 -74t63 -130t26 -195.5q0 -115 -25 -247l-2 -11q-23 -116 -70 -225t-101 -185q-78 -109 -185 -168t-230 -59q-97 0 -177 35.5t-125 107.5q-69 110 -69 272q0 85 17 170q24 123 55.5 222t68 168
t68 113.5t69.5 85.5q67 73 160.5 118t205.5 47zM239 245q58 -105 205 -105q65 0 141 43.5t122 106.5q37 46 78 149t58 188l4 19q22 119 22 216q0 91 -20 155q-26 83 -72 119.5t-114 36.5q-56 0 -117.5 -25.5t-112.5 -78.5q-148 -153 -214 -493q-14 -68 -14 -150
q0 -122 34 -181z" />
    <glyph glyph-name="uni022F" unicode="&#x22f;" 
d="M611 1382l235 -3l-43 -225l-236 3zM621 215q104 83 150 315q1 3 2 9t2 9q12 69 12 114q0 53 -7 88.5t-26 66.5t-58.5 46t-99.5 15q-128 0 -221 -111.5t-129 -297.5q-11 -57 -11 -101q0 -55 7 -90.5t27.5 -65t60 -43t101.5 -13.5q111 1 190 59zM407 1h-2
q-153 0 -242.5 88.5t-89.5 239.5q0 60 14 135q22 115 62.5 213t101 179.5t148.5 128.5t193 47q144 0 224 -49.5t114 -151.5q18 -54 18 -136q0 -79 -15 -152q-18 -91 -43 -166.5t-67.5 -147t-98 -120.5t-136 -78.5t-179.5 -29.5h-2z" />
    <glyph glyph-name="uni0230" unicode="&#x230;" 
d="M1067 1893l-30 -152h-17q-58 -2 -202 -2q-149 0 -217 2l-17 1l30 155l18 -2q65 -2 254 -2h164h17zM668 1634l235 -3l-43 -225l-236 3zM687 1326q38 0 76.5 -8t88 -36.5t86.5 -74t63 -130t26 -195.5q0 -115 -25 -247l-2 -11q-23 -116 -70 -225t-101 -185
q-78 -109 -185 -168t-230 -59q-97 0 -177 35.5t-125 107.5q-69 110 -69 272q0 85 17 170q24 123 55.5 222t68 168t68 113.5t69.5 85.5q67 73 160.5 118t205.5 47zM239 245q58 -105 205 -105q65 0 141 43.5t122 106.5q37 46 78 149t58 188l4 19q22 119 22 216q0 91 -20 155
q-26 83 -72 119.5t-114 36.5q-56 0 -117.5 -25.5t-112.5 -78.5q-148 -153 -214 -493q-14 -68 -14 -150q0 -122 34 -181z" />
    <glyph glyph-name="uni0231" unicode="&#x231;" 
d="M1008 1625l-30 -152h-17q-58 -2 -202 -2q-149 0 -217 2l-17 1l30 155l18 -2q65 -2 254 -2h164h17zM611 1382l235 -3l-43 -225l-236 3zM621 215q104 83 150 315q1 3 2 9t2 9q12 69 12 114q0 53 -7 88.5t-26 66.5t-58.5 46t-99.5 15q-128 0 -221 -111.5t-129 -297.5
q-11 -57 -11 -101q0 -55 7 -90.5t27.5 -65t60 -43t101.5 -13.5q111 1 190 59zM407 1h-2q-153 0 -242.5 88.5t-89.5 239.5q0 60 14 135q22 115 62.5 213t101 179.5t148.5 128.5t193 47q144 0 224 -49.5t114 -151.5q18 -54 18 -136q0 -79 -15 -152q-18 -91 -43 -166.5
t-67.5 -147t-98 -120.5t-136 -78.5t-179.5 -29.5h-2z" />
    <glyph glyph-name="uni0232" unicode="&#x232;" 
d="M1005 1648l-30 -152h-17q-58 -2 -202 -2q-149 0 -217 2l-17 1l30 155l18 -2q65 -2 254 -2h164h17zM296 42l270 482q-8 15 -75 142.5t-119.5 229.5t-106 213t-63.5 148l154 57q44 -110 310 -621q18 42 159.5 315t159.5 331l150 -59q-105 -216 -238 -471.5t-211.5 -400
t-240.5 -440.5z" />
    <glyph glyph-name="uni0233" unicode="&#x233;" 
d="M942 1338l-30 -152h-17q-58 -2 -202 -2q-149 0 -217 2l-17 1l30 155l18 -2q65 -2 254 -2h164h17zM-2 -110q28 -36 79.5 -74.5t99.5 -38.5q34 0 68.5 21t67 60.5t52 68.5t46.5 73q-12 127 -32 262t-48.5 273.5t-68.5 229.5t-83 97q-2 0 -5.5 0.5t-5.5 0.5q-32 0 -40 -8
l-13 168q48 6 77 6q34 0 71 -9q56 -14 106 -103.5t84.5 -222t57.5 -259.5t37 -252q85 163 190.5 423t160.5 436l152 -42q-232 -676 -453 -1027q-118 -187 -218.5 -268t-219.5 -81q-82 0 -153 47t-114 101z" />
    <glyph glyph-name="uni0237" unicode="&#x237;" 
d="M859 748l-174 -866q-52 -269 -351 -269q-54 0 -96 7t-91 29t-90 70t-72 121l145 98q20 -47 43 -80t43 -50t45 -26t41.5 -11t40.5 -2h17q74 0 117 39.5t53 77.5l176 876q4 24 4 45q0 84 -54 85h-3q-25 0 -42 -2.5t-47 -11.5t-66 -33.5t-79 -63.5l-97 133
q112 74 176.5 100.5t159.5 26.5q63 0 106 -16.5t64.5 -47t29.5 -64t8 -78.5q0 -53 -7 -87z" />
    <glyph glyph-name="ring" unicode="&#x2da;" 
d="M511 1119q-1 -3 -1 -10q0 -25 20.5 -43.5t53.5 -18.5q37 0 65 22t34 50q1 4 1 11q0 24 -19.5 41t-53.5 17q-38 0 -66.5 -21t-33.5 -48zM381 1117q16 82 91.5 138.5t163.5 56.5q78 0 129.5 -45.5t51.5 -114.5q0 -17 -3 -35q-16 -82 -91 -138.5t-163 -56.5q-78 0 -130 45.5
t-52 115.5q0 16 3 34z" />
    <glyph glyph-name="ogonek" unicode="&#x2db;" 
d="M717 41q-41 -28 -140 -83t-161 -98t-68 -76q-1 -5 -1 -15q0 -33 30 -51t76 -18q27 0 56.5 11t42 18.5t40.5 25.5l58 -106q-42 -38 -107 -65.5t-122 -27.5q-118 0 -175.5 46t-57.5 129q0 29 5 53q12 62 64.5 111.5t109.5 75t116.5 52.5t77.5 45z" />
    <glyph glyph-name="gravecomb" unicode="&#x300;" 
d="M993 1403l-107 -123q-96 67 -214.5 195.5t-172.5 230.5l160 104q71 -121 160 -234.5t174 -172.5z" />
    <glyph glyph-name="acutecomb" unicode="&#x301;" 
d="M426 1430q100 30 246 125.5t250 185.5l117 -150q-85 -80 -262 -179.5t-288 -131.5z" />
    <glyph glyph-name="uni0302" unicode="&#x302;" 
d="M793 1699l293 -327l-117 -102l-204 231l-339 -236l-87 122z" />
    <glyph glyph-name="tildecomb" unicode="&#x303;" 
d="M599 1694q38 0 71 -13.5t56.5 -32t45 -37.5t45.5 -32.5t49 -13.5q127 0 172 127l153 -58q-45 -97 -127.5 -159.5t-190.5 -62.5q-45 0 -82 13.5t-61.5 32t-45 37.5t-42.5 32.5t-45 13.5q-62 0 -106 -29.5t-86 -105.5l-150 75q76 118 157 165.5t187 47.5z" />
    <glyph glyph-name="uni0304" unicode="&#x304;" 
d="M951 1625l-30 -152h-17q-58 -2 -202 -2q-149 0 -217 2l-17 1l30 155l18 -2q65 -2 254 -2h164h17z" />
    <glyph glyph-name="uni0305" unicode="&#x305;" 
d="M1102 1625l-30 -152h-774l30 155z" />
    <glyph glyph-name="uni0306" unicode="&#x306;" 
d="M729 1510q79 0 147.5 46t84.5 106l160 -30q-43 -131 -155.5 -203t-266.5 -72q-40 0 -79.5 8t-80.5 29t-72 52.5t-51.5 83t-21.5 116.5l164 14q5 -150 171 -150z" />
    <glyph glyph-name="uni0307" unicode="&#x307;" 
d="M580 1651l235 -3l-43 -225l-236 3z" />
    <glyph glyph-name="uni0308" unicode="&#x308;" 
d="M826 1638l235 -3l-44 -225l-234 3zM421 1641l234 -3l-43 -225l-235 3z" />
    <glyph glyph-name="hookabovecomb" unicode="&#x309;" 
d="M736 953l-145 4l37 188q6 -2 15.5 -6.5t14 -6t16 -3t28.5 -1.5q36 0 64 16t33 38v2v6q0 24 -20.5 38t-48.5 14q-48 0 -132 -42l-17 106q107 61 206 61q60 0 107 -39t47 -100q0 -14 -3 -29q-15 -78 -64.5 -122.5t-123.5 -48.5q-7 -22 -14 -75z" />
    <glyph glyph-name="uni030A" unicode="&#x30a;" 
d="M745 1543q-40 0 -69 -21t-35 -49q-1 -3 -1 -10q0 -25 21.5 -43t56.5 -18q39 0 68.5 21.5t35.5 49.5q1 3 1 10q0 25 -21 42.5t-57 17.5zM503 1473q16 82 95 138.5t172 56.5q83 0 138.5 -46t55.5 -116q0 -16 -3 -33q-16 -82 -90.5 -134.5t-174.5 -52.5q-86 0 -141 43
t-55 112q0 15 3 32z" />
    <glyph glyph-name="uni030B" unicode="&#x30b;" 
d="M617 1273q89 72 194.5 203.5t157.5 236.5l153 -100q-45 -100 -167 -237t-222 -218zM282 1280q88 72 193.5 204t156.5 236l155 -99q-45 -100 -168 -237.5t-224 -218.5z" />
    <glyph glyph-name="uni030C" unicode="&#x30c;" 
d="M685 1220l-298 323l114 103l208 -227l336 241l88 -121z" />
    <glyph glyph-name="uni030D" unicode="&#x30d;" 
d="M664 1628h160l-68 -348h-159z" />
    <glyph glyph-name="uni030E" unicode="&#x30e;" 
d="M1144.38 1628h160l-135.629 -348h-159zM880.379 1628h160l-135.629 -348h-159z" />
    <glyph glyph-name="uni030F" unicode="&#x30f;" 
d="M1062 1246l-143 -78q-73 105 -135.5 237.5t-77.5 240.5l177 50q20 -116 67.5 -236.5t111.5 -213.5zM738 1240l-142 -78q-74 107 -135.5 238.5t-76.5 239.5l176 50q20 -116 67.5 -236t110.5 -214z" />
    <glyph glyph-name="uni0310" unicode="&#x310;" 
 />
    <glyph glyph-name="uni0311" unicode="&#x311;" 
d="M729 1510q-166 0 -230 -150l-168 34q110 269 450 269q120 0 198.5 -67.5t89.5 -180.5v-16l-172 -30q1 5 1 14q0 62 -34.5 94.5t-134.5 32.5z" />
    <glyph glyph-name="uni0312" unicode="&#x312;" 
d="M451 1283q27 50 54.5 106t64 134t63.5 132l145 -34q-51 -157 -142 -386z" />
    <glyph glyph-name="uni0313" unicode="&#x313;" 
d="M663 1597h220l-41 -215q-21 -109 -81 -174t-170 -109l-29 127q53 23 77.5 51.5t37.5 98.5h-57z" />
    </font>
</defs>
</svg>
