<?xml version="1.0" standalone="no"?>
<!DOCTYPE svg PUBLIC "-//W3C//DTD SVG 1.1//EN" "http://www.w3.org/Graphics/SVG/1.1/DTD/svg11.dtd" >
<svg xmlns="http://www.w3.org/2000/svg" xmlns:xlink="http://www.w3.org/1999/xlink" version="1.1">
<metadata>
Created by FontForge 20170731 at Sat Nov 16 22:56:45 2019
 By Aleksey,,,
Created by Jany Belluz with FontForge 2.0 (http://fontforge.sf.net)
</metadata>
<defs>
<font id="FantasqueSansMono-Bold" horiz-adv-x="1060" >
  <font-face 
    font-family="Fantasque Sans Mono"
    font-weight="700"
    font-stretch="normal"
    units-per-em="2048"
    panose-1="2 11 8 9 2 2 4 3 2 4"
    ascent="1650"
    descent="-398"
    x-height="1013"
    cap-height="1319"
    bbox="-3066 -662 1170 2094"
    underline-thickness="213"
    underline-position="-289"
    unicode-range="U+0020-FF63"
  />
<missing-glyph 
d="M68 0v1365h544v-1365h-544zM136 68h408v1229h-408v-1229z" />
    <glyph glyph-name=".notdef" 
d="M68 0v1365h544v-1365h-544zM136 68h408v1229h-408v-1229z" />
    <glyph glyph-name=".null" horiz-adv-x="0" 
 />
    <glyph glyph-name="nonmarkingreturn" 
 />
    <glyph glyph-name="space" unicode=" " 
 />
    <glyph glyph-name="exclam" unicode="!" 
d="M682 1341l-16 -910l-283 -2l-16 912h315zM350 270h350v-270h-350v270z" />
    <glyph glyph-name="quotedbl" unicode="&#x22;" 
d="M610 1464h256q0 -220 -9 -367t-34 -293l-199 17q15 82 15 210q0 131 -29 204v229zM188 1464h256q0 -220 -9 -367t-34 -293l-199 17q15 83 15 210q0 131 -29 204v229z" />
    <glyph glyph-name="numbersign" unicode="#" 
d="M438 782l-26 -224l152 -1l18 221zM368 -19l-238 4q10 163 34 373q-69 -1 -124 -19l-46 182q68 24 198 34q7 36 11 71.5t8 80.5t7 71l-18 1q-109 -7 -150 -22l-54 184q62 24 232 34q23 189 32 359q13 0 86.5 -1t93.5 -1q36 0 50 -1q-11 -189 -28 -353l136 -4
q20 175 48 348l228 1q-11 -54 -17.5 -100.5t-13.5 -119t-13 -125.5h122v-198l-140 4l-24 -227l162 1l-4 -196l-184 3q-7 -66 -17.5 -152.5t-15.5 -133.5t-9 -102l-230 -2q5 50 11 104t16 135.5t17 146.5l-136 -1z" />
    <glyph glyph-name="dollar" unicode="$" 
d="M238 703q-176 73 -176 276q0 130 101.5 205t254.5 82l-8 202l249 -14l-23 -191q107 -12 190.5 -66t123.5 -144l-222 -90q-6 43 -32.5 62.5t-71.5 26.5l-14 -250q88 -29 144 -54q92 -42 151.5 -121t59.5 -203q0 -91 -30.5 -160.5t-85.5 -112t-126.5 -64t-158.5 -23.5
l-4 -204l-233 9l21 204q-83 13 -145 49.5t-97 89t-51.5 111t-16.5 125.5l247 1q-3 -22 -3 -41q0 -50 23 -83.5t60 -41.5l23 361q-41 11 -150 59zM415 1063q-43 0 -70 -27t-27 -66q0 -47 19.5 -74t65.5 -39zM574 262q69 10 104 49t35 116q0 63 -25 91.5t-94 59.5z" />
    <glyph glyph-name="percent" unicode="%" 
d="M718 179q24 0 51.5 43.5t27.5 81.5q0 45 -15.5 65.5t-50.5 22.5h-2q-24 0 -52.5 -40.5t-28.5 -74.5q0 -41 20 -69.5t50 -28.5zM286 915q24 0 51.5 43.5t27.5 81.5q0 45 -15.5 65.5t-50.5 22.5h-2q-24 0 -52.5 -40.5t-28.5 -74.5q0 -41 20 -69.5t50 -28.5zM22 82l232 422
q42 76 101.5 149t107 124.5t60.5 75.5q-42 -60 -104.5 -95.5t-136.5 -35.5q-117 0 -199 85.5t-82 204.5q0 122 90.5 214.5t212.5 94.5h7q119 0 199 -76t80 -188v-17q-2 -48 -21 -101l229 437l224 -112l-231 -427q-35 -69 -148 -194.5t-153 -192.5q43 60 108 97t138 38h7
q119 0 199 -76t80 -188v-7q-3 -128 -91 -228t-217 -100q-117 0 -199 85.5t-82 204.5q0 53 18 101l-205 -405z" />
    <glyph glyph-name="ampersand" unicode="&#x26;" 
d="M728 94q-123 -116 -309 -116q-82 0 -149 19.5t-122.5 63t-86.5 121.5t-31 185q0 131 55 221.5t152 169.5q-70 64 -111.5 139t-41.5 140q0 77 28 137.5t76 97.5t108.5 56t129.5 19q66 0 120.5 -14t99.5 -44t70.5 -82.5t25.5 -124.5q0 -69 -18 -127.5t-52 -105.5t-68 -79.5
t-82 -69.5l216 -300q19 25 19 83q0 65 -24 169h244q0 -81 -10 -152.5t-24.5 -115.5t-29.5 -77t-25 -47l-10 -14l111 -144l-167 -134zM355 573q-34 -32 -54.5 -89t-20.5 -114q0 -35 6.5 -66t21.5 -60t44.5 -46t70.5 -17q119 0 182 57zM394 867q46 36 75.5 89.5t29.5 99.5
q0 36 -20.5 63t-58.5 27q-41 0 -69.5 -29.5t-28.5 -63.5q0 -101 72 -186z" />
    <glyph glyph-name="quotesingle" unicode="'" 
d="M372 1464h279q0 -220 -9 -367t-34 -293l-222 17q20 110 20 227q0 114 -34 182v234z" />
    <glyph glyph-name="parenleft" unicode="(" 
d="M893 1250h-7q-203 0 -307.5 -152t-104.5 -482q0 -161 33 -284t91 -196.5t132.5 -110.5t162.5 -37l-1 -250q-110 1 -209.5 33t-187.5 100.5t-152 168.5t-101 246.5t-37 325.5q0 227 46.5 392.5t136.5 269t215 154.5t290 56v-234z" />
    <glyph glyph-name="parenright" unicode=")" 
d="M146 1250v234q165 -5 290 -56t215 -154.5t136.5 -269t46.5 -392.5q0 -179 -37 -325.5t-101 -246.5t-152 -168.5t-187.5 -100.5t-209.5 -33l-1 250q88 0 162.5 37t132.5 110.5t91 196.5t33 284q0 330 -105 482t-308 152h-6z" />
    <glyph glyph-name="asterisk" unicode="*" 
d="M410 708l-44 406l294 2l-30 -408l282 180l114 -248l-362 -114l276 -270l-220 -176l-196 354l-202 -358l-206 172l262 280l-346 94l90 260z" />
    <glyph glyph-name="plus" unicode="+" 
d="M60 616q53 10 143 10h39h160v391l246 1l-2 -391q71 0 145 -1t97 -1h82v-234h-14q-95 0 -305 3l1 -394h-252v391h-89q-185 0 -249 -9z" />
    <glyph glyph-name="comma" unicode="," 
d="M332 309l326 2l1 -300v-3q0 -151 -65.5 -268.5t-188.5 -173.5l-98 181q72 40 107 99.5t35 159.5l-113 -1z" />
    <glyph glyph-name="hyphen" unicode="-" 
d="M82 634q67 3 145 3q54 0 146.5 -1.5t122.5 -1.5h119q127 0 341 -2h18v-245h-18q-135 3 -462 3q-14 0 -95.5 1.5t-138.5 1.5q-99 0 -172 -4v122z" />
    <glyph glyph-name="period" unicode="." 
d="M344 313h315v-313h-315v313z" />
    <glyph glyph-name="slash" unicode="/" 
d="M64 -50q103 224 323.5 744.5t316.5 773.5l218 -96q-108 -276 -638 -1521z" />
    <glyph glyph-name="zero" unicode="0" 
d="M348 581l281 389q-25 82 -45.5 108.5t-70.5 26.5q-44 0 -76.5 -33t-49 -80t-26.5 -116.5t-12.5 -123.5t-2.5 -121zM665 726l-288 -394q21 -75 47 -108t75 -33q38 0 66.5 18.5t46.5 56.5t29.5 79t16.5 102.5t6.5 110.5t1.5 119zM515 1312q95 0 167.5 -38t116.5 -99.5
t72 -149t38.5 -175.5t10.5 -190q0 -105 -10 -195.5t-37.5 -182t-71.5 -155.5t-118 -104t-171 -40q-100 0 -176 35t-121.5 92t-74 141.5t-39 171.5t-10.5 193q0 77 4.5 144.5t17 139.5t32.5 131t53 112.5t76.5 89.5t104.5 57.5t136 21.5z" />
    <glyph glyph-name="one" unicode="1" 
d="M525 1322l242 -45v-1286h-258l-2 962q-137 -171 -299 -262l-144 214q86 43 164.5 101.5t128 107.5t91 99.5t56.5 74t21 34.5z" />
    <glyph glyph-name="two" unicode="2" 
d="M363 864l-251 -42q-17 54 -20 112v25q0 149 107.5 248t293.5 99q208 0 315 -91.5t107 -289.5q0 -36 -6 -70.5t-13 -60.5t-23.5 -57t-26 -47.5t-33 -45t-31.5 -37.5t-35 -37t-31 -32q-11 -11 -68.5 -64.5t-103.5 -98t-87 -93t-41 -67.5h516v-215h-860q0 15 -1 46.5
t-1 48.5q0 47 6 81q24 129 206 299q27 25 86.5 73t104.5 87.5t93.5 89.5t75 101.5t26.5 99.5q0 169 -160 169q-63 0 -112 -37t-49 -107q0 -43 16 -87z" />
    <glyph glyph-name="three" unicode="3" 
d="M54 335h251q0 -79 48 -111.5t120 -32.5q86 0 139.5 56.5t53.5 131.5t-25.5 115.5t-73.5 71.5q-84 55 -227 55v200h16q104 0 175.5 48t71.5 140q0 51 -39.5 82t-108.5 31q-111 0 -183 -144l-207 136q3 9 14.5 27.5t42 51t71 59.5t108 47.5t146.5 20.5h11q92 0 162.5 -15
t125 -48.5t83 -91.5t28.5 -139q0 -95 -62.5 -184.5t-137.5 -103.5q134 -43 200.5 -136t66.5 -224q0 -101 -26 -164.5t-88 -125.5q-110 -110 -344 -110q-203 0 -307.5 98t-104.5 259z" />
    <glyph glyph-name="four" unicode="4" 
d="M573 603v325q-78 -139 -256 -327zM31 558q4 6 88 98.5t171 193.5t175.5 232.5t115.5 223.5l249 2v-705h127v-210h-127v-393h-257v390l-452 -2z" />
    <glyph glyph-name="five" unicode="5" 
d="M471 709q-113 0 -186 -107q-2 -3 -3 -4l-190 80l60 610l676 -2l-1 -197h-439l-16 -199q40 10 118 10q126 0 202 -37q49 -26 84.5 -54.5t72 -76t56 -119.5t19.5 -165q0 -115 -36.5 -203.5t-100 -141t-143 -78.5t-172.5 -27h-2q-282 0 -400 236l228 110q22 -60 67 -97
t105 -37q36 0 68.5 13t61 40.5t45.5 75.5t17 111q0 116 -56 187.5t-135 71.5z" />
    <glyph glyph-name="six" unicode="6" 
d="M840 1106q-88 -9 -150.5 -22t-123.5 -39t-106.5 -70t-78.5 -109q-35 -66 -41 -158q3 4 8 9.5t23 20.5t38 26.5t51.5 21t65.5 9.5q193 0 293 -104.5t100 -283.5q0 -189 -117 -299.5t-315 -110.5q-193 0 -308 142t-115 365q0 753 722 828zM327 491q0 -148 38.5 -219.5
t127.5 -71.5q67 0 119.5 58.5t52.5 147.5q0 84 -43 136t-96 52q-74 0 -117.5 -25t-81.5 -78z" />
    <glyph glyph-name="seven" unicode="7" 
d="M151 1292q43 0 137 -3t132 -3q76 0 232 3.5t227 3.5h41l100 -163q-30 -47 -86 -134q-60 -92 -88 -136.5t-73.5 -120t-66.5 -119t-52 -110t-44.5 -117.5t-28.5 -117t-20.5 -133t-5.5 -143h-261q0 120 20.5 231t53.5 206t94 205t123 204t159 227q-87 -3 -281 -3
q-88 0 -151 3q-1 -1 -5 -18.5t-8.5 -43t-6.5 -42.5l-254 64q25 77 113 259z" />
    <glyph glyph-name="eight" unicode="8" 
d="M505 203q28 0 59.5 10t62.5 30.5t51 58t20 86.5q0 66 -49.5 133.5t-143.5 110.5q-94 -43 -143.5 -110.5t-49.5 -133.5q0 -49 20 -86.5t51 -58t62.5 -30.5t59.5 -10zM505 840q73 16 108 61.5t35 88.5q0 34 -12 55.5t-35.5 31t-44 12t-51.5 2.5t-51.5 -2.5t-44 -12
t-35.5 -31t-12 -55.5q0 -43 35 -88.5t108 -61.5zM505 1293q192 0 292.5 -82t100.5 -226q0 -77 -53.5 -153t-120.5 -96q99 -42 165.5 -135.5t66.5 -222.5q0 -175 -127 -281t-324 -106t-324 106t-127 281q0 129 66.5 222.5t165.5 135.5q-67 20 -120.5 96t-53.5 153
q0 144 100.5 226t292.5 82z" />
    <glyph glyph-name="nine" unicode="9" 
d="M487 1106q-77 0 -120 -45.5t-43 -102.5q0 -78 50.5 -126t122.5 -48q112 0 186 86q-12 111 -64.5 173.5t-131.5 62.5zM68 955q0 151 115 249t296 98q115 0 199.5 -34t135 -90.5t80.5 -144t40.5 -178.5t10.5 -211q0 -87 -8 -161t-26 -149.5t-52.5 -134t-83.5 -105
t-122.5 -71.5t-165.5 -25h-3q-356 0 -457 312l250 84q33 -107 80.5 -148t134.5 -41q100 0 150 99.5t50 276.5l-2 50q-65 -48 -210 -48q-80 0 -154.5 27t-131.5 74.5t-91.5 118t-34.5 152.5z" />
    <glyph glyph-name="colon" unicode=":" 
d="M341 1013h315v-313h-315v313zM341 315h315v-313h-315v313z" />
    <glyph glyph-name="semicolon" unicode=";" 
d="M334 1013h315v-313h-315v313zM324 309l326 2l1 -300v-3q0 -151 -65.5 -268.5t-188.5 -173.5l-98 181q72 40 107 99.5t35 159.5l-113 -1z" />
    <glyph glyph-name="less" unicode="&#x3c;" 
d="M934 155l-166 -204q-31 46 -124 120q-42 35 -167 111t-240 142.5t-121 70.5l-2 226q120 99 312 237.5t290 195.5q59 34 86 42l130 -207q-170 -90 -540 -376q49 -35 177.5 -104.5t229 -134t135.5 -119.5z" />
    <glyph glyph-name="equal" unicode="=" 
d="M54 394q140 8 366 8q90 0 243.5 -4t236.5 -4v-224q-86 0 -247 2t-253 2q-25 0 -75.5 1t-76.5 1q-90 0 -192 -6zM48 861q191 -12 348 -12q95 0 247 5t252 5l2 -220q-96 0 -249 -6t-252 -6q-91 0 -349 16q0 13 -0.5 57t-0.5 70q0 47 2 91z" />
    <glyph glyph-name="greater" unicode="&#x3e;" 
d="M112 158q35 55 135.5 119.5t229 134t177.5 104.5q-370 286 -540 376l130 207q27 -8 86 -42q98 -57 290 -195.5t312 -237.5l-2 -226q-6 -4 -121 -70.5t-240 -142.5t-167 -111q-93 -74 -124 -120z" />
    <glyph glyph-name="question" unicode="?" 
d="M314 270h352v-270h-352v270zM501 1345q195 0 307 -93t112 -261q0 -28 -3 -52.5t-11.5 -47t-14.5 -39t-22 -36.5t-22.5 -30t-28.5 -29t-27.5 -24t-31 -25t-28.5 -23q-110 -89 -110 -206v-49l-272 1v44q0 172 167 320q15 14 46 39.5t44.5 38t31 33.5t24.5 42t7 46
q0 72 -39.5 115.5t-118.5 43.5q-163 0 -166 -158q0 -46 46 -103l-218 -149q-41 58 -64 110t-23 114q0 125 56.5 212t148.5 126.5t210 39.5z" />
    <glyph glyph-name="at" unicode="@" 
d="M551 496q0 -61 17 -97.5t49 -36.5q23 0 42 9.5t30.5 22.5t21.5 33.5t14.5 36.5t10.5 36.5t9 29.5v68q-11 10 -24.5 23t-19 17.5t-15 10.5t-19 7.5t-24.5 1.5q-41 0 -66.5 -38.5t-25.5 -123.5zM802 267q-7 -8 -22.5 -25.5t-22 -23.5t-20.5 -18t-25 -17t-28.5 -11t-38 -8
t-47.5 -2q-122 0 -194 95.5t-72 227.5q0 167 74.5 270t208.5 103q33 0 58 -9t38 -19.5t34 -31.5q0 297 -193 297q-134 0 -219.5 -148t-85.5 -447q0 -158 35 -280.5t111.5 -197.5t185.5 -75q83 0 159 48l75 -191q-109 -57 -246 -57q-113 0 -206 44.5t-155 118t-104 171.5
t-61 201.5t-19 212.5q0 374 145 589.5t383 215.5q87 0 158 -28t117.5 -74.5t78.5 -107.5t46 -124t14 -128v-330v-29q0 -64 12 -110.5t50 -103.5l-182 -96q-26 45 -42 98z" />
    <glyph glyph-name="A" unicode="A" 
d="M651 504q-8 47 -66.5 226.5t-59.5 267.5q-3 -75 -27 -167t-61.5 -198t-48.5 -147q27 6 71 9t106 5.5t86 3.5zM418 1325h224l334 -1081q50 -169 50 -244h-276q0 79 -25 167l-32 114q-23 0 -69.5 -1t-65.5 -1.5t-54 -2t-57 -4.5t-52 -8t-59 -12l-30 -90q-36 -111 -40 -162
h-260q5 71 54 223z" />
    <glyph glyph-name="B" unicode="B" 
d="M66 837q0 298 -12 471q230 17 336 17h18q176 0 278.5 -76.5t102.5 -234.5q0 -99 -31 -147.5t-96 -83.5q307 -85 307 -375q0 -364 -343 -405q-62 -8 -119 -8q-36 0 -104.5 2.5t-112.5 2.5h-38h-194q0 71 4 334t4 503zM531 1012q0 38 -13 62.5t-34 34t-34.5 12t-27.5 2.5
h-4h-16q-36 0 -86 -5q3 -35 3 -114q0 -26 -0.5 -83t-0.5 -87h38q27 0 47 2.5t45.5 12t42.5 27t28.5 50.5t11.5 78v8zM479 638q-21 0 -50 -1t-69 -1h-44q-3 -355 -4 -438q98 -6 126 -6q42 0 95 6q14 2 31.5 7t45 20.5t48.5 38.5t37 64t16 92q0 218 -232 218z" />
    <glyph glyph-name="C" unicode="C" 
d="M566 1128q-45 0 -87.5 -28t-79.5 -84.5t-59 -157t-22 -230.5q0 -194 68 -312t154 -118h14q46 0 78 11t56 38t40 59t36 86l246 -137q-55 -118 -173.5 -188t-261.5 -70h-3q-218 0 -337 119q-179 186 -179 520q0 296 133 496q58 87 158.5 143.5t224.5 56.5q117 0 228.5 -56
t173.5 -169l-232 -125q-36 90 -72.5 118t-103.5 28z" />
    <glyph glyph-name="D" unicode="D" 
d="M403 1127h-30q-28 0 -45 -3q1 -26 1 -87q0 -31 -0.5 -74.5t-0.5 -78.5q0 -294 -4 -686q88 -3 99 -3h3q182 0 249 158q27 64 27 191q0 273 -87.5 428t-211.5 155zM70 128q0 16 1.5 144t3 308t1.5 321v76q0 213 -13 340q142 14 225 14q148 0 246 -27t166.5 -82t137.5 -156
q63 -95 97 -222.5t34 -263.5q0 -246 -114 -406t-296 -177q-77 -7 -161 -7q-38 0 -154 3.5t-177 3.5q0 33 3 131z" />
    <glyph glyph-name="E" unicode="E" 
d="M102 1319q56 4 204 4h98h110q84 0 207.5 -1.5t151.5 -1.5h16v-202h-529v-269h338v-203h-338v-31q0 -119 -1 -253t-1 -158l416 2q25 0 56 7t50 13l19 7l72 -199q-9 -2 -34.5 -10t-41 -12t-46.5 -8t-65 -4h-682v1319z" />
    <glyph glyph-name="F" unicode="F" 
d="M382 0l-266 3v1321h685q113 0 181 -34l-78 -203q-18 10 -28.5 14t-41 9t-76.5 5h-70q-128 0 -311 -1v-258q60 0 101.5 1t102.5 1q117 0 197 -36l-68 -202q-48 22 -132 22h-85q-51 0 -116 -2q0 -65 2.5 -330.5t2.5 -309.5z" />
    <glyph glyph-name="G" unicode="G" 
d="M861 772q57 0 131 7v-193q0 -130 -15 -226.5t-39 -157t-64.5 -102t-82 -61.5t-100.5 -36q-49 -11 -151 -11q-107 0 -194 33.5t-147 92.5t-100.5 141.5t-59.5 178t-19 203.5q0 386 184 569q131 118 329 118h20q324 -8 437 -257l-234 -116q-28 92 -74 129t-142 37
q-123 0 -191 -134.5t-68 -356.5q0 -205 62 -318.5t187 -113.5q50 0 86.5 20.5t57.5 53t33.5 83t16.5 99.5t4 114l-64 -1q-127 0 -230 -39l-40 203q112 43 301 43q28 0 83.5 -1t82.5 -1z" />
    <glyph glyph-name="H" unicode="H" 
d="M317 1322l-1 -537q127 29 272 29h87q0 154 -0.5 294.5t-0.5 208.5h256v-1317h-255v599h-32q-116 0 -179 -5t-148 -24q0 -196 1 -347t1 -223h-258v1320z" />
    <glyph glyph-name="I" unicode="I" 
d="M132 1324q195 5 353 5q123 0 368 -3l-1 -211q-65 0 -125.5 2.5t-104.5 2.5v-901q22 0 39 0.5t43 0.5q75 0 144 -4l1 -217q-102 6 -210 6q-22 0 -73 -0.5t-82 -0.5q-27 0 -144.5 -3.5t-205.5 -3.5v216q106 5 180 5h52v901q-142 -2 -228 -7z" />
    <glyph glyph-name="J" unicode="J" 
d="M414 -8q-99 0 -176 38t-123 102t-69 140.5t-24 162.5l260 -1q4 -111 39 -170.5t87 -59.5q89 0 126.5 107t37.5 361q0 96 -29 434q-26 0 -56.5 1t-47.5 1q-36 -1 -63 -3.5t-37 -4t-25 -5.5t-18 -5l-37 212q84 20 179 22q71 0 255 -0.5t263 -0.5l-3 -217q-24 0 -71.5 2
t-72.5 2q23 -262 23 -452q0 -114 -11.5 -208.5t-41 -181.5t-75.5 -146.5t-120 -94.5t-170 -35z" />
    <glyph glyph-name="K" unicode="K" 
d="M588 782q90 -89 255 -337t203 -351l-236 -126q-43 103 -168.5 311t-213.5 295q-56 -62 -86 -134v-440h-258v1335h258v-464q101 142 464 505l196 -177q-190 -141 -414 -417z" />
    <glyph glyph-name="L" unicode="L" 
d="M157 -3v1328h256v-1118h426q62 3 114 21l72 -197q-100 -34 -184 -34h-684z" />
    <glyph glyph-name="M" unicode="M" 
d="M62 1323h204q62 -93 127 -225t109 -264q66 224 228 489h216l2 -1323h-247l-2 596q0 46 6.5 121.5t12.5 128.5l6 52q-42 -81 -87 -194t-57 -153l-150 -2q-102 268 -150 349q32 -189 32 -302v-596h-250v1323z" />
    <glyph glyph-name="N" unicode="N" 
d="M691 0q-66 189 -166.5 398.5t-204.5 379.5v-208q0 -168 0.5 -341t0.5 -232h-246v1328l211 -7q75 -111 152.5 -243t156 -297.5t101.5 -273.5l-7 274q0 319 12 551l244 -1q-8 -153 -8 -433q0 -115 2 -361t2 -364q0 -30 -0.5 -87t-0.5 -83h-249z" />
    <glyph glyph-name="O" unicode="O" 
d="M522 1350q39 0 76 -5.5t84 -24t86.5 -48.5t79 -84t67 -125.5t45.5 -178.5t19 -237v-11q0 -124 -21.5 -235.5t-57.5 -183.5q-56 -109 -160.5 -171t-229.5 -62q-101 0 -198 35.5t-154 107.5q-122 152 -122 452q0 243 35 383.5t95 224.5q51 71 146.5 116t209.5 47zM351 277
q34 -54 67.5 -72t91.5 -18q103 0 159 139q19 42 33.5 139t15.5 175v17q0 232 -45 352q-52 138 -152 138q-49 0 -81 -21.5t-62 -74.5q-81 -143 -81 -459q0 -88 13 -179.5t41 -135.5z" />
    <glyph glyph-name="P" unicode="P" 
d="M714 909q0 49 -8.5 86t-25.5 59t-34 35.5t-43.5 19t-43.5 7t-44 1.5h-9q-35 0 -86 -2.5t-64 -2.5v-71l-2 -392q72 -2 104 -2q40 0 72 4.5t68 21t60 43.5t40 76.5t16 116.5zM354 0h-250v1320q57 0 139 4t150 4q97 0 161 -4.5t133.5 -19.5t122 -47t94.5 -83q72 -88 72 -250
q0 -249 -108 -367t-360 -118q-73 0 -154 3v-442z" />
    <glyph glyph-name="Q" unicode="Q" 
d="M890 -183q-61 0 -123 19.5t-113.5 65t-63.5 106.5q-40 -11 -89 -11q-183 0 -303 126q-148 157 -148 519q0 368 124 531q67 87 142 122.5t173 35.5q126 0 214.5 -51t147.5 -159q40 -72 61.5 -158t25.5 -141t4 -129q0 -192 -40 -350t-132 -227q8 -54 27 -68t81 -15h11
q40 0 84 11l1 -221q-26 -6 -84 -6zM487 536q145 0 203 -132q13 43 13 279v23q0 60 -2 98.5t-13.5 94.5t-33.5 102q-55 114 -162 114q-96 0 -147 -106.5t-51 -302.5v-66q0 -156 23 -212q63 108 170 108zM566 211v4q0 34 -23 69t-70 35q-64 0 -99 -49q10 -35 45.5 -53.5
t70.5 -18.5h17q34 0 59 13z" />
    <glyph glyph-name="R" unicode="R" 
d="M699 552q150 -238 237 -341q55 -49 108 -63l-122 -192q-40 6 -81.5 36t-70.5 66q-64 72 -162.5 221t-157.5 251q-61 5 -117 28v-558h-243v1136q0 100 -5 178q157 15 218 15q74 0 123 -1.5t112.5 -6t109 -15.5t93.5 -28t85.5 -45t67.5 -65q35 -44 54.5 -109t19.5 -131
q0 -161 -77 -260t-192 -116zM706 906q0 121 -77.5 169.5t-232.5 48.5q-34 0 -63 -1v-355q100 -42 166 -42h8q62 0 102.5 13t61 39.5t28 56t7.5 71.5z" />
    <glyph glyph-name="S" unicode="S" 
d="M231 702q-180 82 -180 304q0 161 111 241.5t308 80.5h9q187 0 317.5 -64t163.5 -186l-273 -102q-32 71 -88 106.5t-114 35.5q-69 0 -117.5 -27.5t-48.5 -76.5q0 -35 8.5 -60t27.5 -41t34.5 -24.5t43.5 -18.5q44 -17 147.5 -50t178.5 -68q94 -46 155 -133t61 -223
q0 -87 -24.5 -157t-66 -115.5t-100 -76t-123.5 -43.5t-140 -13h-19q-128 3 -222.5 38.5t-148 95.5t-79 134t-25.5 163l266 -2q0 -110 51 -165t163 -55q210 0 210 182q0 134 -150 200q-54 24 -160 56t-176 64z" />
    <glyph glyph-name="T" unicode="T" 
d="M355 0v1118q-114 0 -203.5 -0.5t-112.5 -0.5v207q53 0 357.5 0.5t406.5 0.5q112 0 167 -16l-60 -203q-52 12 -112 12h-183v-1118h-260z" />
    <glyph glyph-name="U" unicode="U" 
d="M701 1350l253 -28q-8 -57 -8 -127v-29q0 -78 1.5 -208.5t1.5 -182.5v-59q0 -110 -3 -178.5t-13.5 -154.5t-35.5 -150.5t-65 -111.5q-103 -122 -340 -131q-114 0 -193.5 30t-127.5 92t-72 145t-31 199q-7 108 -7 339q0 293 9 534h258q-8 -336 -8 -586v-141q0 -110 6 -154
q1 -4 4.5 -29t4.5 -33t6 -32t8.5 -33.5t11 -29.5t15.5 -29.5t19.5 -23.5t25 -20.5t31 -11.5t38.5 -6q33 1 59.5 11t46.5 24t35.5 40t25.5 49.5t17 63.5t11 69.5t5.5 81t2 85.5t0.5 94q0 57 -2.5 206.5t-2.5 241.5q0 102 13 184z" />
    <glyph glyph-name="V" unicode="V" 
d="M368 0q-18 143 -155 616.5t-209 649.5l236 89q35 -90 74.5 -222t67 -238.5t72.5 -287.5t70 -276q4 18 44 194t56 239.5t49.5 198t62 224t57.5 161.5l227 -79q-76 -183 -207 -652t-144 -617h-301z" />
    <glyph glyph-name="W" unicode="W" 
d="M395 0h-241q-22 90 -71 640t-71 672l236 29q22 -163 31 -355q5 -116 9.5 -368t9.5 -302q119 600 125 672q9 0 38.5 -1.5t47.5 -1.5q73 0 110 19q13 -97 43 -268t54 -294l23 -123q9 75 14.5 307t12.5 336q1 10 2.5 59t4 86.5t10.5 103.5t21 132l224 -38
q-29 -142 -88 -687.5t-72 -617.5h-246q-70 397 -102 585q-114 -559 -125 -585z" />
    <glyph glyph-name="X" unicode="X" 
d="M789 1371l208 -117l-346 -566q64 -102 130.5 -229t114.5 -206t111 -141l-166 -157q-69 68 -111.5 129t-105.5 176t-111 194l-284 -508l-210 132l346 592q-75 130 -120 204.5t-112.5 171.5t-133.5 172l191 155q31 -36 63 -78t52 -70t55 -84.5t46 -74t52.5 -89t48.5 -82.5z
" />
    <glyph glyph-name="Y" unicode="Y" 
d="M368 0v138q0 42 3.5 226.5t3.5 248.5q-60 86 -191.5 307.5t-169.5 301.5l219 141q174 -344 278 -511q23 34 50.5 83.5t50 94.5t49 105t42 96t37 86.5t24.5 58.5l228 -136q-39 -80 -178.5 -324t-188.5 -314q0 -23 -1 -73.5t-1 -78.5q-5 -225 -5 -322v-128h-250z" />
    <glyph glyph-name="Z" unicode="Z" 
d="M123 0l-95 136l644 983q-120 0 -329 -2.5t-254 -2.5l-1 210q52 0 340 2t390 2q26 0 51 -2t39.5 -4.5t30.5 -6t19 -3.5v-7q0 -20 8 -91.5t8 -87.5v-8l-578 -901l354 -1q62 0 94.5 5t82.5 21l71 -215q-76 -27 -189 -27h-679h-7z" />
    <glyph glyph-name="bracketleft" unicode="[" 
d="M844 1483l28 -206q-48 -5 -290 -12v-1320q77 3 176 3h10q85 0 114 -8l6 -208q-75 9 -136 9q-25 0 -203 -1t-229 -1q0 89 1 220t1 221q0 32 -2 390q0 93 -1 257.5t-1 224.5v421q52 0 227 2t195 2q67 3 104 6z" />
    <glyph glyph-name="backslash" unicode="\" 
d="M922 -50l-218 -99q-12 28 -126.5 295.5t-191.5 450t-175.5 418t-146.5 357.5l220 96q97 -256 317 -777t321 -741z" />
    <glyph glyph-name="bracketright" unicode="]" 
d="M199 1483q37 -3 104 -6q20 0 195.5 -2t227.5 -2v-421q0 -60 -1 -224.5t-1 -257.5q-2 -358 -2 -390q0 -90 1 -221t1 -220q-51 0 -229.5 1t-203.5 1q-61 0 -136 -9l6 208q29 8 114 8h10q99 0 176 -3l1 1320q-244 7 -291 12z" />
    <glyph glyph-name="asciicircum" unicode="^" 
d="M520 1101l507 -484l-163 -179l-342 306l-342 -306l-170 168z" />
    <glyph glyph-name="underscore" unicode="_" 
d="M46 -121h946v-213h-950z" />
    <glyph glyph-name="grave" unicode="`" 
d="M370 1499q52 -80 228.5 -214.5t254.5 -164.5l-120 -220q-229 144 -320 212q-134 100 -235 210z" />
    <glyph glyph-name="a" unicode="a" 
d="M318 317q0 -68 38.5 -98t94.5 -30q74 0 133.5 53t76.5 105v47q-28 32 -74.5 54t-93.5 22q-61 0 -118 -39.5t-57 -113.5zM917 316q0 -70 17 -113t59 -76l-125 -149q-12 9 -35 25t-34 25t-27.5 28.5t-31.5 44.5q-59 -61 -133.5 -86.5t-206.5 -25.5q-133 0 -238.5 90.5
t-105.5 222.5q0 146 89 238q69 70 153 100t195 30q99 0 168 -47q0 58 -18.5 100t-48 61.5t-56 27.5t-53.5 8q-178 0 -283 -111l-122 208q65 41 109.5 63t98.5 32.5t86.5 12.5t118.5 3q114 0 209.5 -42.5t155 -129t59.5 -201.5v-339z" />
    <glyph glyph-name="b" unicode="b" 
d="M688 478q0 184 -44 259.5t-121 75.5q-48 0 -91.5 -39t-74.5 -91v-334q39 -79 88.5 -127.5t94.5 -48.5q148 0 148 305zM943 459q0 -466 -369 -466q-87 0 -148.5 28t-92.5 72q0 -19 -11 -45.5t-22 -43.5l-11 -17l-196 20q19 125 19 236v24q0 121 -0.5 433.5t-0.5 456.5
q0 100 -15 246l247 9q14 -114 14 -260q0 -119 -24 -222q110 83 225 83q201 0 293 -135.5t92 -418.5z" />
    <glyph glyph-name="c" unicode="c" 
d="M332 528q0 -90 18 -155.5t41.5 -97t57.5 -49.5t52.5 -20.5t40.5 -2.5h12q69 0 114.5 38t87.5 109l226 -134q-51 -113 -153 -168t-265 -55q-99 0 -178.5 16t-144.5 64q-93 72 -131.5 183.5t-38.5 270.5q0 491 493 491q164 0 255 -61q89 -60 128 -151l-220 -102
q-27 103 -181 103q-104 0 -159 -81t-55 -198z" />
    <glyph glyph-name="d" unicode="d" 
d="M329 478q0 -276 167 -276q48 0 96.5 37t85.5 110v334q-31 52 -74.5 91t-91.5 39q-80 0 -131.5 -77t-51.5 -258zM74 459q0 563 404 563q18 0 36 -2t34.5 -6.5t30 -9t28 -12t24 -12.5t23 -14t18.5 -12.5t17 -13t13 -10.5q-24 103 -24 222q0 146 14 260l248 -9
q-15 -146 -15 -246q0 -144 -1 -456.5t-1 -433.5v-24q0 -104 20 -236l-196 -20q-45 64 -45 106q-31 -44 -92.5 -72t-148.5 -28q-189 0 -288 118.5t-99 347.5z" />
    <glyph glyph-name="e" unicode="e" 
d="M336 606q136 24 340 24q-4 94 -49.5 141t-115.5 47q-74 0 -122 -61t-53 -151zM509 1021q229 0 328.5 -139t99.5 -405l-1 -43q-438 -6 -600 -38q12 -83 69.5 -141.5t126.5 -58.5q75 0 120.5 25t101.5 85l178 -156q-42 -47 -73 -73t-77.5 -48t-106.5 -30.5t-149 -8.5
q-211 0 -329.5 143.5t-118.5 382.5q0 223 113 364t318 141z" />
    <glyph glyph-name="f" unicode="f" 
d="M641 1217q-47 0 -77.5 -11.5t-44 -33.5t-17.5 -42t-4 -47l1 -71h184q106 0 176 -21l-44 -197q-39 13 -98 13h-219l1 -807h-257v807h-143v205h143v52q0 44 9 87.5t35 93t66.5 86.5t111 62t160.5 25q156 0 251.5 -43t151.5 -154l-212 -97q-18 57 -58 75t-116 18z" />
    <glyph glyph-name="g" unicode="g" 
d="M541 -184q55 0 124 50.5t69 117.5q0 35 -28.5 54.5t-107.5 19.5l-267 -1q-23 -30 -23 -130q0 -45 44.5 -78t98.5 -33h90zM645 726q0 41 -24 63t-55.5 27.5t-81.5 5.5q-71 0 -114 -26t-43 -79q0 -118 158 -118q160 0 160 127zM870 819q21 -22 21 -103q0 -143 -93 -230
t-291 -87h-3q-117 0 -147 13q-30 -35 -30 -79q0 -34 29 -59.5t100 -25.5h179q50 0 95.5 -6t93 -23t82 -44t56.5 -71.5t22 -102.5q0 -80 -36.5 -153.5t-93 -123t-125.5 -79t-134 -29.5h-155q-162 0 -261 76t-99 230q0 144 87 221q-37 27 -62 82.5t-25 117.5q0 47 12.5 85.5
t26 58.5t37.5 46q-3 4 -16 20t-16.5 21.5t-13 19t-13 22t-9 22t-7 27.5t-1.5 29q0 171 108.5 251.5t306.5 80.5q173 0 272 -61q37 34 85 47.5t135 13.5v-204q-30 5 -41 5q-44 0 -76 -8z" />
    <glyph glyph-name="h" unicode="h" 
d="M942 566v-348q0 -115 44 -178l-226 -80q-64 89 -64 216v315q0 89 -11.5 151.5t-27.5 95.5t-44 50.5t-49.5 21t-55.5 3.5q-52 0 -98 -39.5t-77 -91.5v-682h-245v1156q0 91 -16 246l248 9q14 -114 14 -260q0 -119 -24 -222q111 84 232 84q195 0 297.5 -106.5t102.5 -340.5z
" />
    <glyph glyph-name="i" unicode="i" 
d="M354 1430h284l2 -246h-285zM354 1013h255l1 -739q0 -51 21.5 -71.5t87.5 -20.5q67 0 116 22.5t97 68.5l97 -190q-61 -50 -160.5 -75.5t-200.5 -25.5q-151 0 -221 38q-93 51 -93 186v607q-113 0 -234 -28l-29 186q141 42 263 42z" />
    <glyph glyph-name="j" unicode="j" 
d="M567 1426h284l2 -246h-285zM842 -78q0 -62 -18 -114t-57.5 -98t-114 -72.5t-177.5 -26.5q-53 0 -99 8t-101 31t-107.5 72t-97.5 122l164 148q60 -101 112.5 -140.5t105.5 -39.5h18q32 0 55 10t34.5 25t18 33.5t8 34.5t2.5 29v8v861q-114 0 -235 -28l-29 186
q141 42 264 42h254v-1091z" />
    <glyph glyph-name="k" unicode="k" 
d="M578 597q32 0 53.5 10t31 30t13 41t3.5 52q0 32 -18 57.5t-57 25.5q-32 0 -87.5 -32t-94.5 -64l-39 -32v-59q155 -29 195 -29zM383 0h-249v1228q0 82 -23 155l244 44q28 -72 28 -134v-223q0 -90 -30 -174q5 5 13.5 13t36.5 29t57 37t71 29t82 13q154 0 237.5 -70
t83.5 -213q0 -101 -35 -164t-136 -112q71 -25 103.5 -74t60.5 -142q13 -45 96 -105l-192 -164q-38 15 -67.5 37.5t-48.5 46t-36 60.5t-26 64t-22 74q-11 39 -39.5 68t-58 42.5t-65.5 21.5t-53 9.5t-30 1.5h-2v-398z" />
    <glyph glyph-name="l" unicode="l" 
d="M355 1401h254l2 -1127q0 -51 21 -71.5t87 -20.5q67 0 116 22.5t97 68.5l97 -190q-61 -50 -160.5 -75.5t-200.5 -25.5q-150 0 -220 38q-93 51 -93 186q0 114 -0.5 347.5t-0.5 347.5q0 196 1 300h-40q-133 0 -217 -19l-29 186q111 33 286 33z" />
    <glyph glyph-name="m" unicode="m" 
d="M952 -32q-28 5 -50.5 12t-55.5 26t-55 45t-38.5 72t-16.5 105v2v529q-2 32 -9 43t-29 11q-15 0 -44.5 -78.5t-43.5 -134.5l-2 -600l-225 1v760q0 30 -5 41t-23 11q-20 0 -58 -65t-53 -139v-609h-224l-2 802q0 44 -5 78.5t-9.5 48.5t-16.5 49l218 66q7 -14 11.5 -38
t8.5 -54t6 -41q83 109 181 109q74 0 113 -53.5t48 -120.5q89 174 195 174h8q87 0 133.5 -82.5t46.5 -198.5v-513q0 -61 90 -96z" />
    <glyph glyph-name="n" unicode="n" 
d="M338 927q43 39 131.5 69t168.5 30q133 0 216.5 -57t83.5 -173v-518q0 -22 6.5 -39t23.5 -31t27.5 -21t37.5 -21q7 -4 11 -6l-116 -200q-41 13 -78.5 32t-76.5 50t-62.5 77.5t-23.5 102.5v477q0 61 -17.5 90.5t-64.5 29.5q-51 0 -122.5 -29.5t-131.5 -82.5v-707h-251v706
q0 87 -3.5 138.5t-8.5 76.5t-20 83l232 48q31 -74 38 -125z" />
    <glyph glyph-name="o" unicode="o" 
d="M625 247q60 66 60 283v16q-2 132 -39 208t-126 76q-107 0 -151.5 -90t-44.5 -258q0 -128 48 -206.5t136 -78.5q40 1 64.5 11.5t52.5 38.5zM507 -6q-223 0 -329 124.5t-106 345.5q0 568 433 568q144 0 233.5 -49.5t143.5 -151.5q59 -114 59 -288q0 -74 -9 -140t-28 -129
t-53 -113t-80.5 -88t-113 -58.5t-148.5 -20.5h-2z" />
    <glyph glyph-name="p" unicode="p" 
d="M681 531q0 146 -29.5 213t-95.5 67q-88 0 -133 -38t-85 -117l2 -345q77 -118 167 -118q60 0 96.5 28t57 103.5t20.5 206.5zM94 739v26q0 88 -22 231l228 26q13 -35 20 -101q81 90 252 90q365 0 365 -460q0 -89 -7 -158.5t-25 -135t-50 -112.5t-79 -82.5t-116 -53
t-158 -17.5q-112 0 -176 68q1 -14 6.5 -55t7.5 -66v-91q0 -110 14 -246l-248 -7q-14 114 -14 259z" />
    <glyph glyph-name="q" unicode="q" 
d="M328 531q0 -131 20.5 -206.5t57 -103.5t96.5 -28q91 0 168 118l1 345q-20 39 -35.5 62.5t-40.5 47t-59.5 34.5t-81.5 11q-66 0 -96 -67.5t-30 -212.5zM916 739l1 -885v-29q0 -181 16 -218l-236 -30q-27 74 -27 271v91q2 26 7 68t6 53q-64 -68 -176 -68q-89 0 -158 17.5
t-116 53t-79 82.5t-50 112.5t-25 135t-7 158.5q0 460 366 460q171 0 252 -90q7 69 19 101l228 -26q-21 -136 -21 -231v-26z" />
    <glyph glyph-name="r" unicode="r" 
d="M404 864q119 156 340 156q127 0 199.5 -75.5t72.5 -216.5v-30l-252 -2q2 22 2 44q0 78 -66 78q-45 0 -104 -63t-128 -195v-560h-252v704q0 27 -17 55t-35 45.5t-58 53.5l148 186q7 -5 34.5 -26t36.5 -30t27.5 -29t30 -42.5t21.5 -52.5z" />
    <glyph glyph-name="s" unicode="s" 
d="M279 549q-63 31 -100 91t-37 141q0 67 32 117t86 77.5t115.5 40.5t131.5 13q60 0 107.5 -4.5t103 -17.5t104 -42t88.5 -72l-177 -163q-92 99 -223 99q-114 0 -114 -61q0 -45 34 -67q38 -15 94.5 -36t92.5 -34t83 -34t76.5 -40t62 -47.5t50.5 -60.5t29.5 -75.5t11.5 -95.5
q0 -58 -23.5 -107.5t-62.5 -82.5t-80.5 -55t-84.5 -33q-86 -20 -173 -20q-191 0 -301.5 94t-110.5 256h253q0 -80 37 -114t120 -34q26 0 52.5 5t55 16t46.5 33.5t18 53.5q0 43 -16 71.5t-54 53.5q-38 24 -163.5 69.5t-163.5 64.5z" />
    <glyph glyph-name="t" unicode="t" 
d="M430 436v-40q0 -98 29 -141.5t94 -54.5q36 -4 65 -4q70 0 120 28q15 8 26.5 20.5t19 27.5t11.5 26t8 25.5t5 16.5l208 -100q-8 -21 -25 -51.5t-58.5 -77t-92.5 -75.5q-72 -42 -220 -42q-159 0 -256.5 34t-146.5 136q-39 80 -39 234v42q6 257 9 365h-14q-43 0 -82 -12
l-17 204q36 12 102 12h15q0 35 0.5 120.5t0.5 120.5l251 -6q0 -95 -2 -231q48 0 153 -1t190 -2t86 -1l-3 -204q-69 0 -215.5 1t-212.5 1q-3 -89 -5 -207.5t-4 -163.5z" />
    <glyph glyph-name="u" unicode="u" 
d="M893 -17q-92 42 -127 125q-54 -55 -137.5 -79.5t-202.5 -26.5h-9q-48 0 -93.5 6.5t-91 23t-78.5 41.5t-54 65t-21 91q0 39 0.5 132t0.5 143q0 422 -22 488l254 28q6 -27 10 -71.5t5.5 -121t1.5 -140t0.5 -187t0.5 -202.5q9 -53 32 -72.5t84 -19.5q112 5 166.5 59.5
t54.5 152.5v595h251v-707q1 -37 39 -80t79 -60z" />
    <glyph glyph-name="v" unicode="v" 
d="M216 1076q115 -191 186.5 -386.5t135.5 -438.5q84 97 115 236t36 329q1 19 1 69q0 77 -3 128h251q6 -32 6 -191q0 -241 -75.5 -444.5t-210.5 -311.5q-39 -32 -69 -45.5t-86.5 -21t-160.5 -7.5q0 180 -116.5 490.5t-221.5 463.5z" />
    <glyph glyph-name="w" unicode="w" 
d="M17 984l249 72q25 -74 40 -146t20.5 -157.5t6.5 -126t2 -138.5v-31q0 -66 -9.5 -144t-18.5 -104q61 0 98.5 80.5t37.5 173.5v372l210 1q5 -78 5 -243q0 -159 -7 -379h5q115 0 115 399q0 247 -14 400h246q2 -32 2 -97v-87q0 -356 -42 -550q-28 -128 -126 -203.5
t-257 -75.5h-34q-18 66 -24 153q-31 -66 -112 -115.5t-215 -49.5h-6q-40 1 -66 12q-3 21 -5 171.5t-14.5 337.5t-40.5 326q-21 105 -46 149z" />
    <glyph glyph-name="x" unicode="x" 
d="M934 839q-27 -60 -111.5 -159.5t-164.5 -175.5q62 -80 136 -166t90 -95q1 0 3 -3t5 -5t8 -4.5t12.5 -4t17.5 -1.5q20 0 52 6l-2 -229q-36 -6 -60 -6q-86 0 -140 38q-91 59 -264 297l-332 -373l-170 161l364 394l-326 391l182 141l290 -372q14 16 42 46t44 48t41.5 54
t50.5 79q7 12 13.5 31t9.5 32t7 31.5t4 19.5l238 -1q-14 -116 -40 -174z" />
    <glyph glyph-name="y" unicode="y" 
d="M352 -164q39 0 105 82t81 152q-134 301 -214 449t-125 190t-98 42q-34 0 -44 -1l-1 261q42 2 76 2q33 0 60 -5.5t52 -14.5t50 -31.5t47 -45.5t50 -68.5t52.5 -88t61.5 -117t69 -142t83 -175.5q37 210 48 341.5t11 346.5h256q0 -136 -15 -266q-29 -249 -114.5 -521.5
t-180.5 -399.5q-89 -119 -163 -160.5t-187 -41.5q-76 0 -131 33.5t-83.5 91t-41 118.5t-14.5 133h236q0 -164 74 -164z" />
    <glyph glyph-name="z" unicode="z" 
d="M93 815l31 202q55 -6 281 -6q297 0 472 5l77 -190l-64 -58q-63 -58 -131.5 -125.5t-147.5 -150.5t-136.5 -163t-72.5 -132l400 6h6q63 0 162 -32l-44 -193q-7 2 -23.5 7t-22.5 6.5t-19.5 4t-27.5 3.5t-33 1h-729v20q0 109 22 169q55 149 196.5 313.5t310.5 303.5
q-23 0 -56.5 -1t-67 -1.5t-78.5 -0.5q-229 0 -305 12z" />
    <glyph glyph-name="braceleft" unicode="{" 
d="M513 600q85 -21 161 -79t91 -145q4 -20 4 -46q0 -59 -31 -156.5t-35 -119.5q-2 -8 -2 -23q0 -48 46.5 -69t146.5 -26l-4 -218q-156 7 -220 22q-109 26 -167 94q-56 66 -56 152q0 13 1.5 28t3 26t6 28.5t6.5 26t8.5 28t8.5 24.5t9.5 27t8.5 24q19 53 19 92q0 24 -7 45
t-17.5 35.5t-30 28.5t-35 22t-43.5 18t-44.5 14.5t-48.5 13t-47 12.5l-1 113v131q15 4 53.5 14t56 15.5t49 17t47 23t34 28.5t26 39.5t7.5 50.5q0 40 -19 93q-1 2 -8.5 24t-9.5 27t-8.5 24.5t-8.5 28t-6.5 26t-6 28.5t-3 26t-1.5 28q0 86 56 152q41 48 111.5 74.5
t118.5 31.5t139 9q4 0 6 0.5t5.5 0.5h6.5l4 -218q-100 -4 -146.5 -25.5t-46.5 -70.5q0 -6 2 -22q4 -19 35 -117.5t31 -158.5q0 -25 -4 -46q-15 -87 -90.5 -146t-160.5 -80z" />
    <glyph glyph-name="bar" unicode="|" 
d="M357 152q0 192 -4.5 652.5t-4.5 594.5v93h271v-145q0 -131 6 -540t6 -583v-150q0 -151 -6 -272l-272 1q5 78 5 160q0 19 -0.5 80t-0.5 109z" />
    <glyph glyph-name="braceright" unicode="}" 
d="M527 600q-52 13 -102.5 40t-94.5 76.5t-54 109.5q-4 21 -4 46q0 60 31 158.5t35 117.5q2 16 2 22q0 49 -47 70.5t-146 25.5l3 218q156 -7 220 -22q110 -27 168 -94q55 -64 55 -152q0 -34 -9.5 -77t-16.5 -63.5t-25 -71.5q-19 -53 -19 -93q0 -28 7.5 -50.5t26 -39.5
t34 -28.5t47 -23t49 -17t56 -15.5t53.5 -14v-131l-1 -113q-15 -4 -53.5 -14t-56 -15.5t-49 -17t-47 -23t-34 -28.5t-26 -39.5t-7.5 -50.5q0 -40 19 -93q1 -2 8.5 -24t9.5 -27t8.5 -24.5t8.5 -28t6.5 -26t6 -28.5t3 -26t1.5 -28q0 -86 -56 -152q-41 -48 -111.5 -74.5
t-118.5 -31.5t-139 -9q-12 -1 -18 -1l-4 218q100 5 146.5 26t46.5 70q0 6 -2 22q-4 22 -35 119.5t-31 156.5q0 26 4 46q15 87 91 145t161 79z" />
    <glyph glyph-name="tilde" unicode="~" 
d="M332 807q64 0 118 -23t89.5 -55.5t64 -65t55.5 -55.5t51 -23q100 0 114 158l208 -54q0 -36 -7.5 -73.5t-30 -82t-57.5 -78.5t-96.5 -57t-140.5 -23q-62 0 -113.5 23t-84 55.5t-60.5 64.5t-57.5 55t-59.5 23q-41 0 -77 -43t-54 -112l-182 110q67 256 320 256z" />
    <glyph glyph-name="uni00A0" unicode="&#xa0;" 
 />
    <glyph glyph-name="exclamdown" unicode="&#xa1;" 
d="M360.316 -327.168l18.5 909.957l283.005 1.23926l13.4951 -912.043zM695.259 742.939l-350 0.94043l0.741211 270l350 -0.94043z" />
    <glyph glyph-name="cent" unicode="&#xa2;" 
d="M337 525q0 -70 15.5 -121.5t35.5 -75.5t49 -38t44.5 -16t34.5 -2h10q57 0 94.5 29.5t72.5 84.5l188 -104q-72 -149 -269 -171v-120h-234v131q-65 15 -112 48q-77 56 -109 143t-32 211q0 300 253 365v144h234v-131q84 -12 134 -43q74 -46 106 -118l-183 -79
q-21 80 -150 80q-87 0 -134.5 -63.5t-47.5 -153.5z" />
    <glyph glyph-name="sterling" unicode="&#xa3;" 
d="M310 193q-33 30 -64 79q-5 -4 -10.5 -21.5t-5.5 -32.5v-6q3 -54 22 -54q30 0 58 35zM861 670q-74 -9 -255 -9h-56q28 -144 29 -276q0 -93 -11 -131q59 -37 90 -51.5t64 -14.5q23 0 43.5 9t20.5 27v43l228 -1v-53q-3 -102 -71 -165t-174 -64q-85 0 -142 20t-143 75
q-29 -39 -78 -61t-89 -26.5t-95 -4.5q-83 0 -120 56t-37 148q0 104 50 184.5t121 80.5q11 0 20.5 -2t16 -3t14 -7t11 -7.5t11 -11.5l9 -12t10 -15.5t10.5 -15.5q2 20 2 47q0 51 -4 91t-7.5 60t-16.5 84q-52 2 -181 2h-17v200h158q-2 12 -8.5 46t-8.5 46.5t-4.5 37t-2.5 47.5
q0 149 91.5 228.5t238.5 79.5q120 0 207 -62.5t111 -159.5l-212 -54q-19 74 -106 74h-6q-84 0 -84 -98q0 -34 26 -190l94 3h57q131 0 196 7v-201z" />
    <glyph glyph-name="currency" unicode="&#xa4;" 
d="M619 314q52 48 52 210v11q-2 210 -143 210q-93 0 -132 -66.5t-39 -190.5q0 -95 41.5 -153t118.5 -58q35 1 56.5 8.5t45.5 28.5zM168 677l-154 155l190 190l152 -151q68 24 159 24q105 0 178 -26l140 140l191 -191l-149 -149q19 -64 19 -136q0 -129 -42 -220l151 -151
l-191 -190l-170 169q-56 -14 -124 -14h-2q-87 0 -153 18l-165 -165l-190 191l154 154q-24 66 -24 150q0 117 30 202z" />
    <glyph glyph-name="yen" unicode="&#xa5;" 
d="M368 -6v144q0 21 1.5 86.5t1.5 98.5h-92q-106 0 -192 -5l-2 223q145 8 290 8v64q-2 3 -8 11q-96 2 -285 14q0 13 -0.5 57t-0.5 70q0 47 2 91q41 -2 143 -7q-163 269 -212 373l219 141q174 -344 278 -511q23 34 50.5 83.5t50 94.5t49 105t42 96t37 86.5t24.5 58.5
l228 -136q-60 -120 -215 -387q46 1 153 1l2 -219q-77 0 -289 -7q-3 -4 -9 -13t-9 -13q0 -9 -0.5 -27.5t-0.5 -27.5q34 -1 95.5 -2.5t112.5 -2.5t100 -1v-224q-63 0 -171.5 2t-140.5 2q-2 -88 -2 -193v-134h-250z" />
    <glyph glyph-name="brokenbar" unicode="&#xa6;" 
d="M353 779q-5 597 -5 620v93h271v-145q0 -140 6 -568h-272zM629 539q2 -226 2 -315v-150q0 -151 -6 -272l-272 1q5 78 5 160q0 19 -0.5 80t-0.5 109q0 107 -2 387h274z" />
    <glyph glyph-name="section" unicode="&#xa7;" 
d="M651 354q33 20 42 34t9 41q-5 37 -37 66q-28 26 -60.5 52t-58 45t-61 42.5t-53.5 35t-53 33t-43 26.5q-33 -20 -42 -34t-9 -41q5 -37 37 -66q19 -17 37 -32.5t38.5 -31.5t33.5 -26.5t37 -26.5l33 -22t36 -23.5t32.5 -20.5t37.5 -22.5t35 -21.5zM184 883q-5 5 -11.5 15
t-18 52t-11.5 98q0 74 33 136t85.5 100.5t112.5 60t120 23.5h18q148 0 237.5 -88t92.5 -229h-220q0 58 -34.5 87.5t-87.5 29.5q-15 0 -31 -4.5t-34 -15.5t-30 -35.5t-12 -58.5v-11q0 -101 63 -142q95 -62 141 -92.5t116.5 -83t120.5 -98.5q71 -65 93 -106.5t22 -112.5
q0 -56 -18.5 -99t-44 -69t-70.5 -60q28 -66 28 -145q0 -74 -33 -136t-86 -100.5t-113 -60t-120 -23.5h-18q-148 0 -237.5 88t-92.5 229h220q0 -58 34.5 -87.5t87.5 -29.5q15 0 31 4.5t34.5 15.5t30.5 35.5t12 58.5v11q0 101 -63 142q-95 62 -141 92.5t-116.5 83t-120.5 98.5
q-71 65 -93 106.5t-22 112.5q0 39 15 75t36.5 59.5t43 41t36.5 25.5z" />
    <glyph glyph-name="dieresis" unicode="&#xa8;" 
d="M566 1424l282 -3v-238l-282 1v240zM146 1424h279v-240h-279v240z" />
    <glyph glyph-name="copyright" unicode="&#xa9;" 
d="M189 594q0 -157 103.5 -267.5t250.5 -110.5q146 0 246.5 110t100.5 268t-100 267.5t-247 109.5t-250.5 -110t-103.5 -267zM16 592q0 151 70 278.5t190.5 201.5t262.5 74t262.5 -74t190.5 -201.5t70 -278.5q0 -150 -70 -277.5t-190.5 -201.5t-262.5 -74t-262.5 74
t-190.5 201.5t-70 277.5zM552 719q-33 0 -51.5 -38.5t-18.5 -97.5q0 -46 17.5 -83t51.5 -37q26 0 42 11.5t27 45.5l172 -84q-77 -138 -244 -138q-48 0 -92 15.5t-83 47t-62 88t-23 130.5q0 135 73 219.5t192 84.5q62 0 128.5 -34t96.5 -97l-165 -88q-13 32 -24.5 43.5
t-36.5 11.5z" />
    <glyph glyph-name="ordfeminine" unicode="&#xaa;" 
d="M142 675h756v-167h-756v167zM342 994q0 -30 24.5 -51t55.5 -21q78 0 132.5 25t85.5 89q-48 59 -172 59q-126 0 -126 -101zM148 1463q117 74 335 74q164 0 256 -88t93 -248v-135q0 -91 24 -125q17 -23 61 -44l-101 -151q-5 3 -26.5 16t-28.5 18t-22 18t-25 28.5t-20 36.5
q-50 -60 -123 -84.5t-188 -24.5q-107 0 -181 66t-74 166q0 66 16 114t42.5 76.5t69 44.5t86 21.5t104.5 5.5q127 0 194 -64q-25 173 -155 173q-82 0 -133 -13.5t-100 -49.5z" />
    <glyph glyph-name="guillemotleft" unicode="&#xab;" 
d="M428 566q274 247 304 431l228 -72q-14 -67 -44 -127.5t-77 -115.5t-83.5 -90.5t-96.5 -87.5q113 -104 182.5 -197.5t100.5 -211.5l-218 -86q-59 230 -296 442v115zM24 576q274 247 304 431l228 -71q-14 -67 -44 -127.5t-77 -115.5t-83.5 -90.5t-96.5 -87.5
q113 -104 182.5 -197.5t100.5 -211.5l-218 -87q-59 230 -296 442v115z" />
    <glyph glyph-name="logicalnot" unicode="&#xac;" 
d="M82 654q67 3 145 3q54 0 146.5 -1.5t122.5 -1.5h119q127 0 341 -2h18v-156h2v-316h-250v230h-232q-14 0 -95.5 1.5t-138.5 1.5q-99 0 -172 -4v122z" />
    <glyph glyph-name="uni00AD" unicode="&#xad;" 
d="M82 654q67 3 145 3q54 0 146.5 -1.5t122.5 -1.5h119q127 0 341 -2h18v-245h-18q-135 3 -462 3q-14 0 -95.5 1.5t-138.5 1.5q-99 0 -172 -4v122z" />
    <glyph glyph-name="registered" unicode="&#xae;" 
d="M16 592q0 151 70 278.5t190.5 201.5t262.5 74t262.5 -74t190.5 -201.5t70 -278.5q0 -150 -70 -277.5t-190.5 -201.5t-262.5 -74t-262.5 74t-190.5 201.5t-70 277.5zM660 515q27 -38 68 -74t79 -57l-145 -118q-44 26 -93 100.5t-59 127.5h-9l1 -211h-160q91 -67 201 -67
q146 0 246.5 110t100.5 268t-100 267.5t-247 109.5t-250.5 -110t-103.5 -267q0 -90 37 -168t101 -131v441q0 75 -4 140q135 22 214 22q260 0 260 -212q0 -59 -38.5 -105.5t-98.5 -65.5zM641 698q0 52 -102 52q-23 0 -41 -8l1 -97q28 -15 67 -15q32 0 50 12t21.5 25t3.5 31z
" />
    <glyph glyph-name="macron" unicode="&#xaf;" 
d="M723 1361v-194h-17q-203 -7 -230 -7q-133 0 -235 3l-18 1v197l19 -2q98 -3 272 -3q32 0 102 2.5t90 2.5h17z" />
    <glyph glyph-name="degree" unicode="&#xb0;" 
d="M190 1083q0 122 86.5 209t208.5 87t208.5 -87t86.5 -209t-86.5 -208.5t-208.5 -86.5t-208.5 86.5t-86.5 208.5zM383 1083q0 -43 30 -73t73 -30t72.5 30t29.5 73t-29.5 73t-72.5 30t-73 -30t-30 -73z" />
    <glyph glyph-name="plusminus" unicode="&#xb1;" 
d="M48 854q53 10 143 10h39h160v357l246 1l-2 -357q71 0 145 -1t97 -1h82v-234h-14q-95 0 -305 3v-221q141 0 303 -2h18v-245h-18q-135 3 -500 3q-207 0 -378 -9v122l-6 123q151 8 330 8v218h-89q-185 0 -249 -9z" />
    <glyph glyph-name="uni00B2" unicode="&#xb2;" 
d="M202 1321q11 71 64.5 119t122 67.5t147.5 19.5q59 0 110 -12t95 -38t69.5 -72t25.5 -108q0 -32 -6 -58t-14 -46.5t-27.5 -41t-35.5 -34.5t-49.5 -34t-57 -33t-70.5 -37q-12 -6 -28 -14.5t-23.5 -12t-17.5 -9.5t-14.5 -9t-9.5 -8.5t-7.5 -10.5t-3.5 -11l361 5v-174h-623
q-2 64 -2 95q0 73 30 122q39 62 240 165q93 47 119.5 73t26.5 64q0 26 -24.5 48.5t-60.5 22.5q-30 0 -50 -7t-31 -22t-15.5 -26.5t-10.5 -32.5z" />
    <glyph glyph-name="uni00B3" unicode="&#xb3;" 
d="M314 1013q46 -50 88.5 -71t109.5 -21q106 0 106 92q0 48 -40 66t-128 18l3 134q57 -3 70 -3q40 0 56 19.5t16 59.5q0 57 -79 57q-98 0 -154 -56l-119 149q92 73 265 73h11q135 0 210.5 -47t75.5 -157q0 -113 -97 -148q64 -34 91.5 -70.5t27.5 -104.5q0 -137 -79.5 -193
t-235.5 -56q-122 0 -199.5 22t-137.5 88z" />
    <glyph glyph-name="acute" unicode="&#xb4;" 
d="M199 1441q105 35 224 110t208 158l134 -172q-78 -78 -217.5 -154.5t-258.5 -115.5z" />
    <glyph glyph-name="uni00B5" unicode="&#xb5;" 
d="M314 8l-4 -406l-250 3l5 624q0 39 0.5 132t0.5 143q0 422 -22 488l248 28q6 -27 10 -71.5t5.5 -121t1.5 -140t0.5 -187t0.5 -202.5q9 -53 32 -72.5t84 -19.5q56 0 99 18t65.5 42.5t36.5 56.5t18 54t4 41l1 582h257l-1 -694q1 -37 39 -80t79 -60l-143 -183
q-92 42 -127 125q-99 -101 -342 -106h-9q-44 0 -89 6z" />
    <glyph glyph-name="paragraph" unicode="&#xb6;" 
d="M697 1041v71h-89h-28q0 -148 1 -444t1 -444q0 -69 -24 -152.5t-52 -112.5l-206 102q3 6 13.5 24.5t15 28t11 27.5t9.5 37.5t3 42.5v219q-136 9 -226 139t-90 345q0 161 73 250q42 51 94.5 83t122 47t133.5 19.5t161 4.5q68 0 150 -4t139 -4v-1329l-217 -1q0 159 2.5 490
t2.5 561z" />
    <glyph glyph-name="periodcentered" unicode="&#xb7;" 
d="M428 700h315v-313h-315v313z" />
    <glyph glyph-name="cedilla" unicode="&#xb8;" 
d="M672 56q-2 -16 -2 -75q78 -4 131 -49.5t53 -126.5q0 -95 -75.5 -149t-196.5 -54q-53 0 -113.5 14t-100.5 40l60 148q55 -30 128 -30q70 0 74 50v2q0 23 -19 39t-53 16q-75 0 -109 -12v188z" />
    <glyph glyph-name="uni00B9" unicode="&#xb9;" 
d="M514 1527l234 -16v-742h-216l1 511q-60 -65 -121.5 -109t-149.5 -73l-72 200q116 31 193.5 82.5t130.5 146.5z" />
    <glyph glyph-name="ordmasculine" unicode="&#xba;" 
d="M142 675h756v-167h-756v167zM681 1168q0 91 -36 137.5t-126 46.5q-79 0 -123 -49t-44 -150q0 -112 35.5 -166.5t115.5 -54.5q94 0 136 51t42 185zM501 758q-172 0 -262 102.5t-90 287.5q0 97 29.5 172t78.5 118.5t107 65.5t121 22q199 0 298.5 -90t99.5 -252
q0 -232 -92 -329t-290 -97z" />
    <glyph glyph-name="guillemotright" unicode="&#xbb;" 
d="M573.595 454.5q-271.995 -249.241 -300.501 -433.486l-228.585 70.1348q13.4561 67.1143 42.9648 127.859q29.5088 60.7461 76.0625 116.13q46.5537 55.3848 82.7656 91.1836q36.2119 35.7979 95.79 88.2891q-113.845 103.075 -184.104 196.007t-102.217 210.679
l217.302 87.7822q60.8672 -229.517 299.588 -439.578zM977.676 447.804q-271.995 -249.241 -300.501 -433.486l-228.577 69.1357q13.457 67.1143 42.9658 127.859t76.0625 116.13q46.5527 55.3838 82.7646 91.1826t95.79 88.2891q-113.845 103.076 -184.104 196.008
t-102.217 210.678l217.294 88.7832q60.8672 -229.518 299.588 -439.579z" />
    <glyph glyph-name="onequarter" unicode="&#xbc;" 
d="M78 687h893v-168h-893v168zM553 0v236q-90 -144 -175 -236h175zM175 16q137 150 326 421h243v-427l128 3v-181l-128 3l3 -151h-210l4 151h-284zM514 1527l234 -16v-742h-216l1 511q-60 -65 -121.5 -109t-149.5 -73l-72 200q116 31 193.5 82.5t130.5 146.5z" />
    <glyph glyph-name="onehalf" unicode="&#xbd;" 
d="M78 687h893v-168h-893v168zM202 241q11 71 64.5 119t122 67.5t147.5 19.5q59 0 110 -12t95 -38t69.5 -72t25.5 -108q0 -32 -6 -58t-14 -46.5t-27.5 -41t-35.5 -34.5t-49.5 -34t-57 -33t-70.5 -37q-12 -6 -28 -14.5t-23.5 -12t-17.5 -9.5t-14.5 -9t-9.5 -8.5t-7.5 -10.5
t-3.5 -11l361 5v-174h-623q-2 64 -2 95q0 73 30 122q39 62 240 165q93 47 119.5 73t26.5 64q0 26 -24.5 48.5t-60.5 22.5q-30 0 -50 -7t-31 -22t-15.5 -26.5t-10.5 -32.5zM514 1527l234 -16v-742h-216l1 511q-60 -65 -121.5 -109t-149.5 -73l-72 200q116 31 193.5 82.5
t130.5 146.5z" />
    <glyph glyph-name="threequarters" unicode="&#xbe;" 
d="M78 687h893v-168h-893v168zM553 0v236q-90 -144 -175 -236h175zM175 16q137 150 326 421h243v-427l128 3v-181l-128 3l3 -151h-210l4 151h-284zM314 1013q46 -50 88.5 -71t109.5 -21q106 0 106 92q0 48 -40 66t-128 18l3 134q57 -3 70 -3q40 0 56 19.5t16 59.5
q0 57 -79 57q-98 0 -154 -56l-119 149q92 73 265 73h11q135 0 210.5 -47t75.5 -157q0 -113 -97 -148q64 -34 91.5 -70.5t27.5 -104.5q0 -137 -79.5 -193t-235.5 -56q-122 0 -199.5 22t-137.5 88z" />
    <glyph glyph-name="questiondown" unicode="&#xbf;" 
d="M707 742.98l-352 -0.0214844v270l352 0.0214844v-270zM520 -332.03q-195 -0.0126953 -307 92.9814q-112 92.9922 -112 260.992q0 28 3 52.501q3 24.5 11.5 47q8.5 22.501 14.5 39.001q6 16.501 22 36.502t22.5 30.001q6.5 10.001 28.5 29.002t27.5 24.002
q5.5 5 31 25.002q25.5 20.001 28.5 23.001q110 89.0068 110 206.007v49l272 -0.983398v-44q0 -172 -167 -320.01q-15 -14.001 -46 -39.5029t-44.5 -38.0029t-31 -33.502t-24.5 -42.001q-7 -21.001 -7 -46.001q0 -72 39.5 -115.497q39.5 -43.498 118.5 -43.4932
q163 0.00976562 166 158.01q0 46 -46 102.998l218 149.013q41 -57.9971 64 -109.996q23 -51.998 23 -113.998q0 -125 -56.5 -212.004q-56.5 -87.0029 -148.5 -126.509t-210 -39.5127z" />
    <glyph glyph-name="Agrave" unicode="&#xc0;" 
d="M824 1509l-90 -174q-119 39 -258.5 115.5t-217.5 154.5l134 172q89 -83 208 -158t224 -110zM651 504q-8 47 -66.5 226.5t-59.5 267.5q-3 -75 -27 -167t-61.5 -198t-48.5 -147q27 6 71 9t106 5.5t86 3.5zM418 1325h224l334 -1081q50 -169 50 -244h-276q0 79 -25 167
l-32 114q-23 0 -69.5 -1t-65.5 -1.5t-54 -2t-57 -4.5t-52 -8t-59 -12l-30 -90q-36 -111 -40 -162h-260q5 71 54 223z" />
    <glyph glyph-name="Aacute" unicode="&#xc1;" 
d="M212 1509q105 35 224 110t208 158l134 -172q-78 -78 -217.5 -154.5t-258.5 -115.5zM651 504q-8 47 -66.5 226.5t-59.5 267.5q-3 -75 -27 -167t-61.5 -198t-48.5 -147q27 6 71 9t106 5.5t86 3.5zM418 1325h224l334 -1081q50 -169 50 -244h-276q0 79 -25 167l-32 114
q-23 0 -69.5 -1t-65.5 -1.5t-54 -2t-57 -4.5t-52 -8t-59 -12l-30 -90q-36 -111 -40 -162h-260q5 71 54 223z" />
    <glyph glyph-name="Acircumflex" unicode="&#xc2;" 
d="M516 1794l378 -291l-138 -156l-240 201l-229 -197l-140 146zM651 504q-8 47 -66.5 226.5t-59.5 267.5q-3 -75 -27 -167t-61.5 -198t-48.5 -147q27 6 71 9t106 5.5t86 3.5zM418 1325h224l334 -1081q50 -169 50 -244h-276q0 79 -25 167l-32 114q-23 0 -69.5 -1t-65.5 -1.5
t-54 -2t-57 -4.5t-52 -8t-59 -12l-30 -90q-36 -111 -40 -162h-260q5 71 54 223z" />
    <glyph glyph-name="Atilde" unicode="&#xc3;" 
d="M353 1677q60 0 107.5 -13.5t75.5 -33t50.5 -39t45 -33t46.5 -13.5q77 0 86 100l177 -54q-9 -41 -24.5 -76.5t-42.5 -71t-71.5 -56t-102.5 -20.5q-55 0 -99 13.5t-71 32.5t-50 38t-48 32.5t-52 13.5q-32 0 -56.5 -27t-31.5 -73l-184 78q14 39 33 71.5t48 63.5t71.5 49
t92.5 18zM651 504q-8 47 -66.5 226.5t-59.5 267.5q-3 -75 -27 -167t-61.5 -198t-48.5 -147q27 6 71 9t106 5.5t86 3.5zM418 1325h224l334 -1081q50 -169 50 -244h-276q0 79 -25 167l-32 114q-23 0 -69.5 -1t-65.5 -1.5t-54 -2t-57 -4.5t-52 -8t-59 -12l-30 -90
q-36 -111 -40 -162h-260q5 71 54 223z" />
    <glyph glyph-name="Adieresis" unicode="&#xc4;" 
d="M596 1638l282 -3v-238l-282 1v240zM176 1638h279v-240h-279v240zM651 504q-8 47 -66.5 226.5t-59.5 267.5q-3 -75 -27 -167t-61.5 -198t-48.5 -147q27 6 71 9t106 5.5t86 3.5zM418 1325h224l334 -1081q50 -169 50 -244h-276q0 79 -25 167l-32 114q-23 0 -69.5 -1
t-65.5 -1.5t-54 -2t-57 -4.5t-52 -8t-59 -12l-30 -90q-36 -111 -40 -162h-260q5 71 54 223z" />
    <glyph glyph-name="Aring" unicode="&#xc5;" 
d="M521 1561q-38 0 -62 -18.5t-24 -43.5t24.5 -44t61.5 -19t61.5 19t24.5 44t-24 43.5t-62 18.5zM651 504q-8 47 -66.5 226.5t-59.5 267.5q-3 -75 -27 -167t-61.5 -198t-48.5 -147q27 6 71 9t106 5.5t86 3.5zM246 1499q0 86 81.5 145t194.5 59q112 0 193.5 -59t81.5 -145
q0 -61 -41.5 -108t-112.5 -70l333 -1077q50 -169 50 -244h-276q0 79 -25 167l-32 114q-23 0 -69.5 -1t-65.5 -1.5t-54 -2t-57 -4.5t-52 -8t-59 -12l-30 -90q-36 -111 -40 -162h-260q5 71 54 223l356 1095q-77 21 -123.5 69.5t-46.5 111.5z" />
    <glyph glyph-name="AE" unicode="&#xc6;" 
d="M1008 32q-70 -37 -187 -37h-342l-21 227q-27 3 -47 3q-101 0 -143 -10q-9 -38 -34 -215h-234q25 209 272 1323l145 -3q43 2 157 2h125h260v-206h-17q-36 0 -82 -1t-112 -1h-142l24 -268q16 0 46 2t79 2h106v-208h-106q-47 0 -71 -2t-38 -2l48 -435h157q27 0 52 6.5
t36 12.5l11 6zM441 434l-43 563q-67 -305 -106 -569q58 6 149 6z" />
    <glyph glyph-name="Ccedilla" unicode="&#xc7;" 
d="M566 1128q-45 0 -87.5 -28t-79.5 -84.5t-59 -157t-22 -230.5q0 -194 68 -312t154 -118h14q46 0 78 11t56 38t40 59t36 86l246 -137q-44 -94 -130 -159t-195 -88q-1 -15 -1 -72q78 -4 130 -49.5t52 -126.5q0 -95 -74.5 -148.5t-196.5 -53.5q-53 0 -113.5 14t-100.5 40
l60 147q53 -29 129 -29q69 0 73 49v2q0 23 -19 39.5t-53 16.5q-73 0 -109 -13v182q-141 24 -227 110q-179 186 -179 520q0 296 133 496q58 87 158.5 143.5t224.5 56.5q117 0 228.5 -56t173.5 -169l-232 -125q-36 90 -72.5 118t-103.5 28z" />
    <glyph glyph-name="Egrave" unicode="&#xc8;" 
d="M785 1509l-90 -174q-119 39 -258.5 115.5t-217.5 154.5l134 172q89 -83 208 -158t224 -110zM102 1319q56 4 204 4h98h110q84 0 207.5 -1.5t151.5 -1.5h16v-202h-529v-269h338v-203h-338v-31q0 -119 -1 -253t-1 -158l416 2q25 0 56 7t50 13l19 7l72 -199q-9 -2 -34.5 -10
t-41 -12t-46.5 -8t-65 -4h-682v1319z" />
    <glyph glyph-name="Eacute" unicode="&#xc9;" 
d="M173 1509q105 35 224 110t208 158l134 -172q-78 -78 -217.5 -154.5t-258.5 -115.5zM102 1319q56 4 204 4h98h110q84 0 207.5 -1.5t151.5 -1.5h16v-202h-529v-269h338v-203h-338v-31q0 -119 -1 -253t-1 -158l416 2q25 0 56 7t50 13l19 7l72 -199q-9 -2 -34.5 -10t-41 -12
t-46.5 -8t-65 -4h-682v1319z" />
    <glyph glyph-name="Ecircumflex" unicode="&#xca;" 
d="M477 1794l378 -291l-138 -156l-240 201l-229 -197l-140 146zM102 1319q56 4 204 4h98h110q84 0 207.5 -1.5t151.5 -1.5h16v-202h-529v-269h338v-203h-338v-31q0 -119 -1 -253t-1 -158l416 2q25 0 56 7t50 13l19 7l72 -199q-9 -2 -34.5 -10t-41 -12t-46.5 -8t-65 -4h-682
v1319z" />
    <glyph glyph-name="Edieresis" unicode="&#xcb;" 
d="M557 1638l282 -3v-238l-282 1v240zM137 1638h279v-240h-279v240zM102 1319q56 4 204 4h98h110q84 0 207.5 -1.5t151.5 -1.5h16v-202h-529v-269h338v-203h-338v-31q0 -119 -1 -253t-1 -158l416 2q25 0 56 7t50 13l19 7l72 -199q-9 -2 -34.5 -10t-41 -12t-46.5 -8t-65 -4
h-682v1319z" />
    <glyph glyph-name="Igrave" unicode="&#xcc;" 
d="M802 1509l-90 -174q-119 39 -258.5 115.5t-217.5 154.5l134 172q89 -83 208 -158t224 -110zM132 1324q195 5 353 5q123 0 368 -3l-1 -211q-65 0 -125.5 2.5t-104.5 2.5v-901q22 0 39 0.5t43 0.5q75 0 144 -4l1 -217q-102 6 -210 6q-22 0 -73 -0.5t-82 -0.5
q-27 0 -144.5 -3.5t-205.5 -3.5v216q106 5 180 5h52v901q-142 -2 -228 -7z" />
    <glyph glyph-name="Iacute" unicode="&#xcd;" 
d="M190 1509q105 35 224 110t208 158l134 -172q-78 -78 -217.5 -154.5t-258.5 -115.5zM132 1324q195 5 353 5q123 0 368 -3l-1 -211q-65 0 -125.5 2.5t-104.5 2.5v-901q22 0 39 0.5t43 0.5q75 0 144 -4l1 -217q-102 6 -210 6q-22 0 -73 -0.5t-82 -0.5q-27 0 -144.5 -3.5
t-205.5 -3.5v216q106 5 180 5h52v901q-142 -2 -228 -7z" />
    <glyph glyph-name="Icircumflex" unicode="&#xce;" 
d="M494 1794l378 -291l-138 -156l-240 201l-229 -197l-140 146zM132 1324q195 5 353 5q123 0 368 -3l-1 -211q-65 0 -125.5 2.5t-104.5 2.5v-901q22 0 39 0.5t43 0.5q75 0 144 -4l1 -217q-102 6 -210 6q-22 0 -73 -0.5t-82 -0.5q-27 0 -144.5 -3.5t-205.5 -3.5v216
q106 5 180 5h52v901q-142 -2 -228 -7z" />
    <glyph glyph-name="Idieresis" unicode="&#xcf;" 
d="M574 1638l282 -3v-238l-282 1v240zM154 1638h279v-240h-279v240zM132 1324q195 5 353 5q123 0 368 -3l-1 -211q-65 0 -125.5 2.5t-104.5 2.5v-901q22 0 39 0.5t43 0.5q75 0 144 -4l1 -217q-102 6 -210 6q-22 0 -73 -0.5t-82 -0.5q-27 0 -144.5 -3.5t-205.5 -3.5v216
q106 5 180 5h52v901q-142 -2 -228 -7z" />
    <glyph glyph-name="Eth" unicode="&#xd0;" 
d="M403 1127h-30q-28 0 -45 -3q1 -26 1 -87q0 -22 -0.5 -51.5t-0.5 -43.5h254l2 -209l-256 -1q-1 -310 -4 -534q88 -3 99 -3h3q182 0 249 158q27 64 27 191q0 285 -77 434t-222 149zM76 942v35q0 213 -13 340q142 14 225 14q201 0 328.5 -63t221.5 -202q63 -95 97 -222.5
t34 -263.5q0 -97 -21 -204q-34 -173 -140 -269.5t-249 -109.5q-77 -7 -161 -7q-38 0 -154 3.5t-177 3.5q0 33 3 131q0 15 1.5 108t3 233.5t1.5 262.5h-70v210h70z" />
    <glyph glyph-name="Ntilde" unicode="&#xd1;" 
d="M330 1677q60 0 107.5 -13.5t75.5 -33t50.5 -39t45 -33t46.5 -13.5q77 0 86 100l177 -54q-9 -41 -24.5 -76.5t-42.5 -71t-71.5 -56t-102.5 -20.5q-55 0 -99 13.5t-71 32.5t-50 38t-48 32.5t-52 13.5q-32 0 -56.5 -27t-31.5 -73l-184 78q14 39 33 71.5t48 63.5t71.5 49
t92.5 18zM691 0q-66 189 -166.5 398.5t-204.5 379.5v-208q0 -168 0.5 -341t0.5 -232h-246v1328l211 -7q75 -111 152.5 -243t156 -297.5t101.5 -273.5l-7 274q0 319 12 551l244 -1q-8 -153 -8 -433q0 -115 2 -361t2 -364q0 -30 -0.5 -87t-0.5 -83h-249z" />
    <glyph glyph-name="Ograve" unicode="&#xd2;" 
d="M826 1509l-90 -174q-119 39 -258.5 115.5t-217.5 154.5l134 172q89 -83 208 -158t224 -110zM522 1350q39 0 76 -5.5t84 -24t86.5 -48.5t79 -84t67 -125.5t45.5 -178.5t19 -237v-11q0 -124 -21.5 -235.5t-57.5 -183.5q-56 -109 -160.5 -171t-229.5 -62q-101 0 -198 35.5
t-154 107.5q-122 152 -122 452q0 243 35 383.5t95 224.5q51 71 146.5 116t209.5 47zM351 277q34 -54 67.5 -72t91.5 -18q103 0 159 139q19 42 33.5 139t15.5 175v17q0 232 -45 352q-52 138 -152 138q-49 0 -81 -21.5t-62 -74.5q-81 -143 -81 -459q0 -88 13 -179.5t41 -135.5
z" />
    <glyph glyph-name="Oacute" unicode="&#xd3;" 
d="M214 1509q105 35 224 110t208 158l134 -172q-78 -78 -217.5 -154.5t-258.5 -115.5zM522 1350q39 0 76 -5.5t84 -24t86.5 -48.5t79 -84t67 -125.5t45.5 -178.5t19 -237v-11q0 -124 -21.5 -235.5t-57.5 -183.5q-56 -109 -160.5 -171t-229.5 -62q-101 0 -198 35.5
t-154 107.5q-122 152 -122 452q0 243 35 383.5t95 224.5q51 71 146.5 116t209.5 47zM351 277q34 -54 67.5 -72t91.5 -18q103 0 159 139q19 42 33.5 139t15.5 175v17q0 232 -45 352q-52 138 -152 138q-49 0 -81 -21.5t-62 -74.5q-81 -143 -81 -459q0 -88 13 -179.5t41 -135.5
z" />
    <glyph glyph-name="Ocircumflex" unicode="&#xd4;" 
d="M518 1794l378 -291l-138 -156l-240 201l-229 -197l-140 146zM522 1350q39 0 76 -5.5t84 -24t86.5 -48.5t79 -84t67 -125.5t45.5 -178.5t19 -237v-11q0 -124 -21.5 -235.5t-57.5 -183.5q-56 -109 -160.5 -171t-229.5 -62q-101 0 -198 35.5t-154 107.5q-122 152 -122 452
q0 243 35 383.5t95 224.5q51 71 146.5 116t209.5 47zM351 277q34 -54 67.5 -72t91.5 -18q103 0 159 139q19 42 33.5 139t15.5 175v17q0 232 -45 352q-52 138 -152 138q-49 0 -81 -21.5t-62 -74.5q-81 -143 -81 -459q0 -88 13 -179.5t41 -135.5z" />
    <glyph glyph-name="Otilde" unicode="&#xd5;" 
d="M355 1677q60 0 107.5 -13.5t75.5 -33t50.5 -39t45 -33t46.5 -13.5q77 0 86 100l177 -54q-9 -41 -24.5 -76.5t-42.5 -71t-71.5 -56t-102.5 -20.5q-55 0 -99 13.5t-71 32.5t-50 38t-48 32.5t-52 13.5q-32 0 -56.5 -27t-31.5 -73l-184 78q14 39 33 71.5t48 63.5t71.5 49
t92.5 18zM522 1350q39 0 76 -5.5t84 -24t86.5 -48.5t79 -84t67 -125.5t45.5 -178.5t19 -237v-11q0 -124 -21.5 -235.5t-57.5 -183.5q-56 -109 -160.5 -171t-229.5 -62q-101 0 -198 35.5t-154 107.5q-122 152 -122 452q0 243 35 383.5t95 224.5q51 71 146.5 116t209.5 47z
M351 277q34 -54 67.5 -72t91.5 -18q103 0 159 139q19 42 33.5 139t15.5 175v17q0 232 -45 352q-52 138 -152 138q-49 0 -81 -21.5t-62 -74.5q-81 -143 -81 -459q0 -88 13 -179.5t41 -135.5z" />
    <glyph glyph-name="Odieresis" unicode="&#xd6;" 
d="M598 1638l282 -3v-238l-282 1v240zM178 1638h279v-240h-279v240zM522 1350q39 0 76 -5.5t84 -24t86.5 -48.5t79 -84t67 -125.5t45.5 -178.5t19 -237v-11q0 -124 -21.5 -235.5t-57.5 -183.5q-56 -109 -160.5 -171t-229.5 -62q-101 0 -198 35.5t-154 107.5
q-122 152 -122 452q0 243 35 383.5t95 224.5q51 71 146.5 116t209.5 47zM351 277q34 -54 67.5 -72t91.5 -18q103 0 159 139q19 42 33.5 139t15.5 175v17q0 232 -45 352q-52 138 -152 138q-49 0 -81 -21.5t-62 -74.5q-81 -143 -81 -459q0 -88 13 -179.5t41 -135.5z" />
    <glyph glyph-name="multiply" unicode="&#xd7;" 
d="M198 999q37 -26 90.5 -80t119 -127t91.5 -99l309 297l172 -175l-310 -296q73 -76 160 -169.5t150 -158.5l-168 -164q-65 70 -306 326l-299 -315l-175 181l297 312q-46 47 -120.5 126t-114 119t-64.5 59z" />
    <glyph glyph-name="Oslash" unicode="&#xd8;" 
d="M884 1128q92 -171 95 -481v-11q0 -124 -21.5 -235.5t-57.5 -183.5q-56 -109 -160.5 -171t-229.5 -62q-128 0 -234 51l-84 -150l-159 104q16 29 48.5 87.5t49.5 87.5q-95 150 -95 415q0 243 35 383.5t95 224.5q51 71 146.5 116t209.5 47q135 0 232 -68q14 24 41 72.5
t40 73.5l160 -101zM385 232q25 -26 53 -35.5t72 -9.5q103 0 159 139q19 42 33.5 139t15.5 175v17q0 82 -7 160zM640 1076q-46 71 -119 71q-49 0 -81 -21.5t-62 -74.5q-81 -143 -81 -459q0 -56 6 -121q226 404 337 605z" />
    <glyph glyph-name="Ugrave" unicode="&#xd9;" 
d="M813 1522l-90 -174q-119 39 -258.5 115.5t-217.5 154.5l134 172q89 -83 208 -158t224 -110zM701 1350l253 -28q-8 -57 -8 -127v-29q0 -78 1.5 -208.5t1.5 -182.5v-59q0 -110 -3 -178.5t-13.5 -154.5t-35.5 -150.5t-65 -111.5q-103 -122 -340 -131q-114 0 -193.5 30
t-127.5 92t-72 145t-31 199q-7 108 -7 339q0 293 9 534h258q-8 -336 -8 -586v-141q0 -110 6 -154q1 -4 4.5 -29t4.5 -33t6 -32t8.5 -33.5t11 -29.5t15.5 -29.5t19.5 -23.5t25 -20.5t31 -11.5t38.5 -6q33 1 59.5 11t46.5 24t35.5 40t25.5 49.5t17 63.5t11 69.5t5.5 81t2 85.5
t0.5 94q0 57 -2.5 206.5t-2.5 241.5q0 102 13 184z" />
    <glyph glyph-name="Uacute" unicode="&#xda;" 
d="M201 1510q105 35 224 110t208 158l134 -172q-78 -78 -217.5 -154.5t-258.5 -115.5zM701 1350l253 -28q-8 -57 -8 -127v-29q0 -78 1.5 -208.5t1.5 -182.5v-59q0 -110 -3 -178.5t-13.5 -154.5t-35.5 -150.5t-65 -111.5q-103 -122 -340 -131q-114 0 -193.5 30t-127.5 92
t-72 145t-31 199q-7 108 -7 339q0 293 9 534h258q-8 -336 -8 -586v-141q0 -110 6 -154q1 -4 4.5 -29t4.5 -33t6 -32t8.5 -33.5t11 -29.5t15.5 -29.5t19.5 -23.5t25 -20.5t31 -11.5t38.5 -6q33 1 59.5 11t46.5 24t35.5 40t25.5 49.5t17 63.5t11 69.5t5.5 81t2 85.5t0.5 94
q0 57 -2.5 206.5t-2.5 241.5q0 102 13 184z" />
    <glyph glyph-name="Ucircumflex" unicode="&#xdb;" 
d="M505 1795l378 -291l-138 -156l-240 201l-229 -197l-140 146zM701 1350l253 -28q-8 -57 -8 -127v-29q0 -78 1.5 -208.5t1.5 -182.5v-59q0 -110 -3 -178.5t-13.5 -154.5t-35.5 -150.5t-65 -111.5q-103 -122 -340 -131q-114 0 -193.5 30t-127.5 92t-72 145t-31 199
q-7 108 -7 339q0 293 9 534h258q-8 -336 -8 -586v-141q0 -110 6 -154q1 -4 4.5 -29t4.5 -33t6 -32t8.5 -33.5t11 -29.5t15.5 -29.5t19.5 -23.5t25 -20.5t31 -11.5t38.5 -6q33 1 59.5 11t46.5 24t35.5 40t25.5 49.5t17 63.5t11 69.5t5.5 81t2 85.5t0.5 94q0 57 -2.5 206.5
t-2.5 241.5q0 102 13 184z" />
    <glyph glyph-name="Udieresis" unicode="&#xdc;" 
d="M585 1639l282 -3v-238l-282 1v240zM165 1639h279v-240h-279v240zM701 1350l253 -28q-8 -57 -8 -127v-29q0 -78 1.5 -208.5t1.5 -182.5v-59q0 -110 -3 -178.5t-13.5 -154.5t-35.5 -150.5t-65 -111.5q-103 -122 -340 -131q-114 0 -193.5 30t-127.5 92t-72 145t-31 199
q-7 108 -7 339q0 293 9 534h258q-8 -336 -8 -586v-141q0 -110 6 -154q1 -4 4.5 -29t4.5 -33t6 -32t8.5 -33.5t11 -29.5t15.5 -29.5t19.5 -23.5t25 -20.5t31 -11.5t38.5 -6q33 1 59.5 11t46.5 24t35.5 40t25.5 49.5t17 63.5t11 69.5t5.5 81t2 85.5t0.5 94q0 57 -2.5 206.5
t-2.5 241.5q0 102 13 184z" />
    <glyph glyph-name="Yacute" unicode="&#xdd;" 
d="M199 1509q105 35 224 110t208 158l134 -172q-78 -78 -217.5 -154.5t-258.5 -115.5zM368 0v138q0 42 3.5 226.5t3.5 248.5q-60 86 -191.5 307.5t-169.5 301.5l219 141q174 -344 278 -511q23 34 50.5 83.5t50 94.5t49 105t42 96t37 86.5t24.5 58.5l228 -136
q-39 -80 -178.5 -324t-188.5 -314q0 -23 -1 -73.5t-1 -78.5q-5 -225 -5 -322v-128h-250z" />
    <glyph glyph-name="Thorn" unicode="&#xde;" 
d="M714 829q0 56 -34 94t-76.5 51.5t-88.5 13.5h-9q-35 0 -86 -2.5t-64 -2.5v-71l-2 -263q72 -2 104 -2q40 0 72 3.5t68 15t60 30.5t40 53t16 80zM354 -10l-250 1v1329q56 0 129.5 4t122.5 4v-129h37q97 0 161 -4.5t133.5 -19.5t122 -47t94.5 -83q41 -51 56.5 -92t15.5 -109
q0 -64 -15.5 -121.5t-50.5 -110t-88 -90.5t-133.5 -60.5t-180.5 -22.5q-73 0 -154 3v-452z" />
    <glyph glyph-name="germandbls" unicode="&#xdf;" 
d="M67 1003q0 80 36.5 153t112 122.5t174.5 49.5q91 0 163.5 -17.5t128.5 -54t86 -99t30 -148.5q0 -174 -128 -230q59 -10 108.5 -34t95.5 -68.5t72 -120t26 -175.5q0 -112 -22.5 -188t-69.5 -118t-108 -59.5t-148 -17.5q-137 0 -194 72t-57 228q0 4 0.5 12t0.5 12l204 -2
q0 -28 2 -46t8.5 -37t20.5 -28.5t37 -9.5q42 0 62 44.5t20 151.5q0 36 -8.5 67t-32.5 63.5t-62 56t-102 38t-147 14.5v206q60 0 97 10.5t54 35t22 49.5t5 68q0 58 -44.5 88.5t-96.5 30.5q-48 0 -72.5 -31.5t-24.5 -83.5q0 -74 2.5 -267t2.5 -290q0 -20 0.5 -60t0.5 -59
q0 -146 -23 -214q-5 -15 -14 -29.5t-18 -25t-25 -23t-24.5 -19.5t-28.5 -18t-26.5 -14.5t-27.5 -13.5t-22 -11l-92 248q36 18 46 50q9 29 9 137v50q0 95 -4.5 282.5t-4.5 272.5z" />
    <glyph glyph-name="agrave" unicode="&#xe0;" 
d="M804 1294l-90 -174q-119 39 -258.5 115.5t-217.5 154.5l134 172q89 -83 208 -158t224 -110zM318 317q0 -68 38.5 -98t94.5 -30q74 0 133.5 53t76.5 105v47q-28 32 -74.5 54t-93.5 22q-61 0 -118 -39.5t-57 -113.5zM917 316q0 -70 17 -113t59 -76l-125 -149q-12 9 -35 25
t-34 25t-27.5 28.5t-31.5 44.5q-59 -61 -133.5 -86.5t-206.5 -25.5q-133 0 -238.5 90.5t-105.5 222.5q0 146 89 238q69 70 153 100t195 30q99 0 168 -47q0 58 -18.5 100t-48 61.5t-56 27.5t-53.5 8q-178 0 -283 -111l-122 208q65 41 109.5 63t98.5 32.5t86.5 12.5t118.5 3
q114 0 209.5 -42.5t155 -129t59.5 -201.5v-339z" />
    <glyph glyph-name="aacute" unicode="&#xe1;" 
d="M192 1294q105 35 224 110t208 158l134 -172q-78 -78 -217.5 -154.5t-258.5 -115.5zM318 317q0 -68 38.5 -98t94.5 -30q74 0 133.5 53t76.5 105v47q-28 32 -74.5 54t-93.5 22q-61 0 -118 -39.5t-57 -113.5zM917 316q0 -70 17 -113t59 -76l-125 -149q-12 9 -35 25t-34 25
t-27.5 28.5t-31.5 44.5q-59 -61 -133.5 -86.5t-206.5 -25.5q-133 0 -238.5 90.5t-105.5 222.5q0 146 89 238q69 70 153 100t195 30q99 0 168 -47q0 58 -18.5 100t-48 61.5t-56 27.5t-53.5 8q-178 0 -283 -111l-122 208q65 41 109.5 63t98.5 32.5t86.5 12.5t118.5 3
q114 0 209.5 -42.5t155 -129t59.5 -201.5v-339z" />
    <glyph glyph-name="acircumflex" unicode="&#xe2;" 
d="M496 1579l378 -291l-138 -156l-240 201l-229 -197l-140 146zM318 317q0 -68 38.5 -98t94.5 -30q74 0 133.5 53t76.5 105v47q-28 32 -74.5 54t-93.5 22q-61 0 -118 -39.5t-57 -113.5zM917 316q0 -70 17 -113t59 -76l-125 -149q-12 9 -35 25t-34 25t-27.5 28.5t-31.5 44.5
q-59 -61 -133.5 -86.5t-206.5 -25.5q-133 0 -238.5 90.5t-105.5 222.5q0 146 89 238q69 70 153 100t195 30q99 0 168 -47q0 58 -18.5 100t-48 61.5t-56 27.5t-53.5 8q-178 0 -283 -111l-122 208q65 41 109.5 63t98.5 32.5t86.5 12.5t118.5 3q114 0 209.5 -42.5t155 -129
t59.5 -201.5v-339z" />
    <glyph glyph-name="atilde" unicode="&#xe3;" 
d="M333 1462q60 0 107.5 -13.5t75.5 -33t50.5 -39t45 -33t46.5 -13.5q77 0 86 100l177 -54q-9 -41 -24.5 -76.5t-42.5 -71t-71.5 -56t-102.5 -20.5q-55 0 -99 13.5t-71 32.5t-50 38t-48 32.5t-52 13.5q-32 0 -56.5 -27t-31.5 -73l-184 78q14 39 33 71.5t48 63.5t71.5 49
t92.5 18zM318 317q0 -68 38.5 -98t94.5 -30q74 0 133.5 53t76.5 105v47q-28 32 -74.5 54t-93.5 22q-61 0 -118 -39.5t-57 -113.5zM917 316q0 -70 17 -113t59 -76l-125 -149q-12 9 -35 25t-34 25t-27.5 28.5t-31.5 44.5q-59 -61 -133.5 -86.5t-206.5 -25.5
q-133 0 -238.5 90.5t-105.5 222.5q0 146 89 238q69 70 153 100t195 30q99 0 168 -47q0 58 -18.5 100t-48 61.5t-56 27.5t-53.5 8q-178 0 -283 -111l-122 208q65 41 109.5 63t98.5 32.5t86.5 12.5t118.5 3q114 0 209.5 -42.5t155 -129t59.5 -201.5v-339z" />
    <glyph glyph-name="adieresis" unicode="&#xe4;" 
d="M576 1423l282 -3v-238l-282 1v240zM156 1423h279v-240h-279v240zM318 317q0 -68 38.5 -98t94.5 -30q74 0 133.5 53t76.5 105v47q-28 32 -74.5 54t-93.5 22q-61 0 -118 -39.5t-57 -113.5zM917 316q0 -70 17 -113t59 -76l-125 -149q-12 9 -35 25t-34 25t-27.5 28.5
t-31.5 44.5q-59 -61 -133.5 -86.5t-206.5 -25.5q-133 0 -238.5 90.5t-105.5 222.5q0 146 89 238q69 70 153 100t195 30q99 0 168 -47q0 58 -18.5 100t-48 61.5t-56 27.5t-53.5 8q-178 0 -283 -111l-122 208q65 41 109.5 63t98.5 32.5t86.5 12.5t118.5 3q114 0 209.5 -42.5
t155 -129t59.5 -201.5v-339z" />
    <glyph glyph-name="aring" unicode="&#xe5;" 
d="M498 1385q-38 0 -62 -18.5t-24 -43.5t24.5 -44t61.5 -19t61.5 19t24.5 44t-24 43.5t-62 18.5zM223 1323q0 86 81.5 145t194.5 59q112 0 193.5 -59t81.5 -145t-77.5 -140.5t-197.5 -54.5q-116 0 -196 55.5t-80 139.5zM318 317q0 -68 38.5 -98t94.5 -30q74 0 133.5 53
t76.5 105v47q-28 32 -74.5 54t-93.5 22q-61 0 -118 -39.5t-57 -113.5zM917 316q0 -70 17 -113t59 -76l-125 -149q-12 9 -35 25t-34 25t-27.5 28.5t-31.5 44.5q-59 -61 -133.5 -86.5t-206.5 -25.5q-133 0 -238.5 90.5t-105.5 222.5q0 146 89 238q69 70 153 100t195 30
q99 0 168 -47q0 58 -18.5 100t-48 61.5t-56 27.5t-53.5 8q-178 0 -283 -111l-122 208q65 41 109.5 63t98.5 32.5t86.5 12.5t118.5 3q114 0 209.5 -42.5t155 -129t59.5 -201.5v-339z" />
    <glyph glyph-name="ae" unicode="&#xe6;" 
d="M648 675v-21q100 0 144 6q-5 79 -25.5 113.5t-64.5 34.5q-54 0 -54 -133zM256 322q0 -78 18 -119t48 -41q31 0 51 22.5t26.5 48.5t11.5 57t7 37v147q-5 3 -16 9.5t-14.5 8.5t-11.5 6t-12.5 5t-12.5 2.5t-16.5 2t-20.5 0.5q-24 0 -41 -54.5t-17 -131.5zM722 0q-38 0 -70 6
t-52 14t-38 20.5t-26 21t-18.5 21t-12.5 14.5q-82 -93 -193 -93q-107 0 -182 53q-107 75 -107 252q0 53 8 101t28 94.5t49.5 80.5t76.5 55t106 21q27 0 47.5 -3t29.5 -6.5t26 -11.5t24 -11q0 35 -1.5 56.5t-7.5 47.5t-17 40.5t-32.5 24.5t-52.5 10h-9q-40 0 -59 -20.5
t-41 -85.5l-198 82q49 130 125 182t175 52q51 0 86 -9t77 -41q27 -23 50 -59q71 109 178 109q96 0 166 -66t103.5 -165t37.5 -217v-116q-171 -7 -318 -7h-32l-2 -173q14 -37 26.5 -51.5t39.5 -14.5q51 0 70 20.5t24 61.5l190 -72q-2 -9 -6.5 -23.5t-25.5 -52t-48.5 -66.5
t-79 -52.5t-114.5 -23.5z" />
    <glyph glyph-name="ccedilla" unicode="&#xe7;" 
d="M327 528q0 -66 10 -118.5t24 -85.5t36 -57t40.5 -36t42 -18.5t35.5 -7.5t27 -1h12q69 0 114.5 37.5t87.5 108.5l226 -134q-87 -193 -331 -219q0 -9 -0.5 -21t-0.5 -20v-9q78 -4 130.5 -49.5t52.5 -126.5q0 -95 -75 -148.5t-197 -53.5q-53 0 -113.5 14t-100.5 40l60 147
q53 -29 129 -29q69 0 73 49v2q0 23 -18.5 39.5t-52.5 16.5q-73 0 -109 -13v166q-112 15 -188 72q-93 72 -131.5 183.5t-38.5 270.5q0 491 493 491q164 0 255 -61q89 -60 128 -151l-220 -102q-27 103 -181 103q-104 0 -161.5 -81.5t-57.5 -197.5z" />
    <glyph glyph-name="egrave" unicode="&#xe8;" 
d="M837 1294l-90 -174q-119 39 -258.5 115.5t-217.5 154.5l134 172q89 -83 208 -158t224 -110zM336 606q136 24 340 24q-4 94 -49.5 141t-115.5 47q-74 0 -122 -61t-53 -151zM509 1021q229 0 328.5 -139t99.5 -405l-1 -43q-438 -6 -600 -38q12 -83 69.5 -141.5t126.5 -58.5
q75 0 120.5 25t101.5 85l178 -156q-42 -47 -73 -73t-77.5 -48t-106.5 -30.5t-149 -8.5q-211 0 -329.5 143.5t-118.5 382.5q0 223 113 364t318 141z" />
    <glyph glyph-name="eacute" unicode="&#xe9;" 
d="M225 1294q105 35 224 110t208 158l134 -172q-78 -78 -217.5 -154.5t-258.5 -115.5zM336 606q136 24 340 24q-4 94 -49.5 141t-115.5 47q-74 0 -122 -61t-53 -151zM509 1021q229 0 328.5 -139t99.5 -405l-1 -43q-438 -6 -600 -38q12 -83 69.5 -141.5t126.5 -58.5
q75 0 120.5 25t101.5 85l178 -156q-42 -47 -73 -73t-77.5 -48t-106.5 -30.5t-149 -8.5q-211 0 -329.5 143.5t-118.5 382.5q0 223 113 364t318 141z" />
    <glyph glyph-name="ecircumflex" unicode="&#xea;" 
d="M529 1579l378 -291l-138 -156l-240 201l-229 -197l-140 146zM336 606q136 24 340 24q-4 94 -49.5 141t-115.5 47q-74 0 -122 -61t-53 -151zM509 1021q229 0 328.5 -139t99.5 -405l-1 -43q-438 -6 -600 -38q12 -83 69.5 -141.5t126.5 -58.5q75 0 120.5 25t101.5 85
l178 -156q-42 -47 -73 -73t-77.5 -48t-106.5 -30.5t-149 -8.5q-211 0 -329.5 143.5t-118.5 382.5q0 223 113 364t318 141z" />
    <glyph glyph-name="edieresis" unicode="&#xeb;" 
d="M609 1423l282 -3v-238l-282 1v240zM189 1423h279v-240h-279v240zM336 606q136 24 340 24q-4 94 -49.5 141t-115.5 47q-74 0 -122 -61t-53 -151zM509 1021q229 0 328.5 -139t99.5 -405l-1 -43q-438 -6 -600 -38q12 -83 69.5 -141.5t126.5 -58.5q75 0 120.5 25t101.5 85
l178 -156q-42 -47 -73 -73t-77.5 -48t-106.5 -30.5t-149 -8.5q-211 0 -329.5 143.5t-118.5 382.5q0 223 113 364t318 141z" />
    <glyph glyph-name="igrave" unicode="&#xec;" 
d="M798 1294l-90 -174q-119 39 -258.5 115.5t-217.5 154.5l134 172q89 -83 208 -158t224 -110zM354 1013h255l1 -739q0 -51 21.5 -71.5t87.5 -20.5q67 0 116 22.5t97 68.5l97 -190q-61 -50 -160.5 -75.5t-200.5 -25.5q-151 0 -221 38q-93 51 -93 186v607q-113 0 -234 -28
l-29 186q141 42 263 42z" />
    <glyph glyph-name="iacute" unicode="&#xed;" 
d="M186 1294q105 35 224 110t208 158l134 -172q-78 -78 -217.5 -154.5t-258.5 -115.5zM354 1013h255l1 -739q0 -51 21.5 -71.5t87.5 -20.5q67 0 116 22.5t97 68.5l97 -190q-61 -50 -160.5 -75.5t-200.5 -25.5q-151 0 -221 38q-93 51 -93 186v607q-113 0 -234 -28l-29 186
q141 42 263 42z" />
    <glyph glyph-name="icircumflex" unicode="&#xee;" 
d="M490 1579l378 -291l-138 -156l-240 201l-229 -197l-140 146zM354 1013h255l1 -739q0 -51 21.5 -71.5t87.5 -20.5q67 0 116 22.5t97 68.5l97 -190q-61 -50 -160.5 -75.5t-200.5 -25.5q-151 0 -221 38q-93 51 -93 186v607q-113 0 -234 -28l-29 186q141 42 263 42z" />
    <glyph glyph-name="idieresis" unicode="&#xef;" 
d="M570 1423l282 -3v-238l-282 1v240zM150 1423h279v-240h-279v240zM354 1013h255l1 -739q0 -51 21.5 -71.5t87.5 -20.5q67 0 116 22.5t97 68.5l97 -190q-61 -50 -160.5 -75.5t-200.5 -25.5q-151 0 -221 38q-93 51 -93 186v607q-113 0 -234 -28l-29 186q141 42 263 42z" />
    <glyph glyph-name="eth" unicode="&#xf0;" 
d="M684 738q-181 0 -264 -71.5t-83 -218.5q0 -104 42 -170.5t105 -66.5q125 0 175 68t50 226q0 133 -25 233zM339 1218q-10 15 -35 41.5t-46 47.5t-22 24l219 113q90 -120 110 -145l310 119l58 -202l-264 -64q75 -91 122 -157t89.5 -146.5t61.5 -164.5t19 -180
q0 -254 -118 -378.5t-359 -124.5h-2q-200 1 -298.5 116.5t-98.5 330.5q0 452 490 484q-20 28 -118 129q-41 -13 -92.5 -31.5t-114.5 -42t-85 -31.5l-59 202q172 38 233 60z" />
    <glyph glyph-name="ntilde" unicode="&#xf1;" 
d="M358 1462q60 0 107.5 -13.5t75.5 -33t50.5 -39t45 -33t46.5 -13.5q77 0 86 100l177 -54q-9 -41 -24.5 -76.5t-42.5 -71t-71.5 -56t-102.5 -20.5q-55 0 -99 13.5t-71 32.5t-50 38t-48 32.5t-52 13.5q-32 0 -56.5 -27t-31.5 -73l-184 78q14 39 33 71.5t48 63.5t71.5 49
t92.5 18zM338 927q43 39 131.5 69t168.5 30q133 0 216.5 -57t83.5 -173v-518q0 -22 6.5 -39t23.5 -31t27.5 -21t37.5 -21q7 -4 11 -6l-116 -200q-41 13 -78.5 32t-76.5 50t-62.5 77.5t-23.5 102.5v477q0 61 -17.5 90.5t-64.5 29.5q-51 0 -122.5 -29.5t-131.5 -82.5v-707
h-251v706q0 87 -3.5 138.5t-8.5 76.5t-20 83l232 48q31 -74 38 -125z" />
    <glyph glyph-name="ograve" unicode="&#xf2;" 
d="M821 1294l-90 -174q-119 39 -258.5 115.5t-217.5 154.5l134 172q89 -83 208 -158t224 -110zM625 247q60 66 60 283v16q-2 132 -39 208t-126 76q-107 0 -151.5 -90t-44.5 -258q0 -128 48 -206.5t136 -78.5q40 1 64.5 11.5t52.5 38.5zM507 -6q-223 0 -329 124.5t-106 345.5
q0 568 433 568q144 0 233.5 -49.5t143.5 -151.5q59 -114 59 -288q0 -74 -9 -140t-28 -129t-53 -113t-80.5 -88t-113 -58.5t-148.5 -20.5h-2z" />
    <glyph glyph-name="oacute" unicode="&#xf3;" 
d="M209 1294q105 35 224 110t208 158l134 -172q-78 -78 -217.5 -154.5t-258.5 -115.5zM625 247q60 66 60 283v16q-2 132 -39 208t-126 76q-107 0 -151.5 -90t-44.5 -258q0 -128 48 -206.5t136 -78.5q40 1 64.5 11.5t52.5 38.5zM507 -6q-223 0 -329 124.5t-106 345.5
q0 568 433 568q144 0 233.5 -49.5t143.5 -151.5q59 -114 59 -288q0 -74 -9 -140t-28 -129t-53 -113t-80.5 -88t-113 -58.5t-148.5 -20.5h-2z" />
    <glyph glyph-name="ocircumflex" unicode="&#xf4;" 
d="M513 1579l378 -291l-138 -156l-240 201l-229 -197l-140 146zM625 247q60 66 60 283v16q-2 132 -39 208t-126 76q-107 0 -151.5 -90t-44.5 -258q0 -128 48 -206.5t136 -78.5q40 1 64.5 11.5t52.5 38.5zM507 -6q-223 0 -329 124.5t-106 345.5q0 568 433 568
q144 0 233.5 -49.5t143.5 -151.5q59 -114 59 -288q0 -74 -9 -140t-28 -129t-53 -113t-80.5 -88t-113 -58.5t-148.5 -20.5h-2z" />
    <glyph glyph-name="otilde" unicode="&#xf5;" 
d="M350 1462q60 0 107.5 -13.5t75.5 -33t50.5 -39t45 -33t46.5 -13.5q77 0 86 100l177 -54q-9 -41 -24.5 -76.5t-42.5 -71t-71.5 -56t-102.5 -20.5q-55 0 -99 13.5t-71 32.5t-50 38t-48 32.5t-52 13.5q-32 0 -56.5 -27t-31.5 -73l-184 78q14 39 33 71.5t48 63.5t71.5 49
t92.5 18zM625 247q60 66 60 283v16q-2 132 -39 208t-126 76q-107 0 -151.5 -90t-44.5 -258q0 -128 48 -206.5t136 -78.5q40 1 64.5 11.5t52.5 38.5zM507 -6q-223 0 -329 124.5t-106 345.5q0 568 433 568q144 0 233.5 -49.5t143.5 -151.5q59 -114 59 -288q0 -74 -9 -140
t-28 -129t-53 -113t-80.5 -88t-113 -58.5t-148.5 -20.5h-2z" />
    <glyph glyph-name="odieresis" unicode="&#xf6;" 
d="M593 1423l282 -3v-238l-282 1v240zM173 1423h279v-240h-279v240zM625 247q60 66 60 283v16q-2 132 -39 208t-126 76q-107 0 -151.5 -90t-44.5 -258q0 -128 48 -206.5t136 -78.5q40 1 64.5 11.5t52.5 38.5zM507 -6q-223 0 -329 124.5t-106 345.5q0 568 433 568
q144 0 233.5 -49.5t143.5 -151.5q59 -114 59 -288q0 -74 -9 -140t-28 -129t-53 -113t-80.5 -88t-113 -58.5t-148.5 -20.5h-2z" />
    <glyph glyph-name="divide" unicode="&#xf7;" 
d="M356 1038h315v-280h-315v280zM356 284h315v-282h-315v282zM66 654q67 3 145 3q54 0 146.5 -1.5t122.5 -1.5h119q127 0 341 -2h18v-245h-18q-135 3 -462 3q-14 0 -95.5 1.5t-138.5 1.5q-99 0 -172 -4v122z" />
    <glyph glyph-name="oslash" unicode="&#xf8;" 
d="M625 247q60 66 60 283v16q0 27 -1 40l-301 -327q48 -62 125 -62q40 1 64.5 11.5t52.5 38.5zM848 1067l150 -140l-107 -115q50 -113 50 -269q0 -74 -9 -140t-28 -129t-53 -113t-80.5 -88t-113 -58.5t-148.5 -20.5h-2q-180 0 -288 86l-73 -80l-146 133l104 115
q-32 92 -32 216q0 568 433 568q157 0 254 -62zM607 802q-36 28 -87 28q-106 0 -150.5 -88t-45.5 -252z" />
    <glyph glyph-name="ugrave" unicode="&#xf9;" 
d="M807 1294l-90 -174q-119 39 -258.5 115.5t-217.5 154.5l134 172q89 -83 208 -158t224 -110zM893 -17q-92 42 -127 125q-54 -55 -137.5 -79.5t-202.5 -26.5h-9q-48 0 -93.5 6.5t-91 23t-78.5 41.5t-54 65t-21 91q0 39 0.5 132t0.5 143q0 422 -22 488l254 28
q6 -27 10 -71.5t5.5 -121t1.5 -140t0.5 -187t0.5 -202.5q9 -53 32 -72.5t84 -19.5q112 5 166.5 59.5t54.5 152.5v595h251v-707q1 -37 39 -80t79 -60z" />
    <glyph glyph-name="uacute" unicode="&#xfa;" 
d="M195 1294q105 35 224 110t208 158l134 -172q-78 -78 -217.5 -154.5t-258.5 -115.5zM893 -17q-92 42 -127 125q-54 -55 -137.5 -79.5t-202.5 -26.5h-9q-48 0 -93.5 6.5t-91 23t-78.5 41.5t-54 65t-21 91q0 39 0.5 132t0.5 143q0 422 -22 488l254 28q6 -27 10 -71.5
t5.5 -121t1.5 -140t0.5 -187t0.5 -202.5q9 -53 32 -72.5t84 -19.5q112 5 166.5 59.5t54.5 152.5v595h251v-707q1 -37 39 -80t79 -60z" />
    <glyph glyph-name="ucircumflex" unicode="&#xfb;" 
d="M499 1579l378 -291l-138 -156l-240 201l-229 -197l-140 146zM893 -17q-92 42 -127 125q-54 -55 -137.5 -79.5t-202.5 -26.5h-9q-48 0 -93.5 6.5t-91 23t-78.5 41.5t-54 65t-21 91q0 39 0.5 132t0.5 143q0 422 -22 488l254 28q6 -27 10 -71.5t5.5 -121t1.5 -140t0.5 -187
t0.5 -202.5q9 -53 32 -72.5t84 -19.5q112 5 166.5 59.5t54.5 152.5v595h251v-707q1 -37 39 -80t79 -60z" />
    <glyph glyph-name="udieresis" unicode="&#xfc;" 
d="M579 1423l282 -3v-238l-282 1v240zM159 1423h279v-240h-279v240zM893 -17q-92 42 -127 125q-54 -55 -137.5 -79.5t-202.5 -26.5h-9q-48 0 -93.5 6.5t-91 23t-78.5 41.5t-54 65t-21 91q0 39 0.5 132t0.5 143q0 422 -22 488l254 28q6 -27 10 -71.5t5.5 -121t1.5 -140
t0.5 -187t0.5 -202.5q9 -53 32 -72.5t84 -19.5q112 5 166.5 59.5t54.5 152.5v595h251v-707q1 -37 39 -80t79 -60z" />
    <glyph glyph-name="yacute" unicode="&#xfd;" 
d="M189 1294q105 35 224 110t208 158l134 -172q-78 -78 -217.5 -154.5t-258.5 -115.5zM352 -164q39 0 105 82t81 152q-134 301 -214 449t-125 190t-98 42q-34 0 -44 -1l-1 261q42 2 76 2q33 0 60 -5.5t52 -14.5t50 -31.5t47 -45.5t50 -68.5t52.5 -88t61.5 -117t69 -142
t83 -175.5q37 210 48 341.5t11 346.5h256q0 -136 -15 -266q-29 -249 -114.5 -521.5t-180.5 -399.5q-89 -119 -163 -160.5t-187 -41.5q-76 0 -131 33.5t-83.5 91t-41 118.5t-14.5 133h236q0 -164 74 -164z" />
    <glyph glyph-name="thorn" unicode="&#xfe;" 
d="M104 739v315q0 88 -22 231l228 26q20 -53 20 -100v-290q81 90 252 90q365 0 365 -460q0 -89 -7 -158.5t-25 -135t-50 -112.5t-79 -82.5t-116 -53t-158 -17.5q-112 0 -176 68q1 -14 6.5 -55t7.5 -66v-91q0 -110 14 -246l-248 -7q-14 114 -14 259zM691 531q0 146 -29.5 213
t-95.5 67q-88 0 -133 -38t-85 -117l2 -345q77 -118 167 -118q60 0 96.5 28t57 103.5t20.5 206.5z" />
    <glyph glyph-name="ydieresis" unicode="&#xff;" 
d="M573 1423l282 -3v-238l-282 1v240zM153 1423h279v-240h-279v240zM352 -164q39 0 105 82t81 152q-134 301 -214 449t-125 190t-98 42q-34 0 -44 -1l-1 261q42 2 76 2q33 0 60 -5.5t52 -14.5t50 -31.5t47 -45.5t50 -68.5t52.5 -88t61.5 -117t69 -142t83 -175.5
q37 210 48 341.5t11 346.5h256q0 -136 -15 -266q-29 -249 -114.5 -521.5t-180.5 -399.5q-89 -119 -163 -160.5t-187 -41.5q-76 0 -131 33.5t-83.5 91t-41 118.5t-14.5 133h236q0 -164 74 -164z" />
    <glyph glyph-name="Amacron" unicode="&#x100;" 
d="M775 1620v-194h-17q-203 -7 -230 -7q-133 0 -235 3l-18 1v197l19 -2q97 -3 272 -3q33 0 102 2.5t90 2.5h17zM651 504q-8 47 -66.5 226.5t-59.5 267.5q-3 -75 -27 -167t-61.5 -198t-48.5 -147q27 6 71 9t106 5.5t86 3.5zM418 1325h224l334 -1081q50 -169 50 -244h-276
q0 79 -25 167l-32 114q-23 0 -69.5 -1t-65.5 -1.5t-54 -2t-57 -4.5t-52 -8t-59 -12l-30 -90q-36 -111 -40 -162h-260q5 71 54 223z" />
    <glyph glyph-name="amacron" unicode="&#x101;" 
d="M755 1405v-194h-17q-203 -7 -230 -7q-133 0 -235 3l-18 1v197l19 -2q97 -3 272 -3q33 0 102 2.5t90 2.5h17zM318 317q0 -68 38.5 -98t94.5 -30q74 0 133.5 53t76.5 105v47q-28 32 -74.5 54t-93.5 22q-61 0 -118 -39.5t-57 -113.5zM917 316q0 -70 17 -113t59 -76
l-125 -149q-12 9 -35 25t-34 25t-27.5 28.5t-31.5 44.5q-59 -61 -133.5 -86.5t-206.5 -25.5q-133 0 -238.5 90.5t-105.5 222.5q0 146 89 238q69 70 153 100t195 30q99 0 168 -47q0 58 -18.5 100t-48 61.5t-56 27.5t-53.5 8q-178 0 -283 -111l-122 208q65 41 109.5 63
t98.5 32.5t86.5 12.5t118.5 3q114 0 209.5 -42.5t155 -129t59.5 -201.5v-339z" />
    <glyph glyph-name="Abreve" unicode="&#x102;" 
d="M519 1549q79 0 127 40t53 101l219 -30q-19 -137 -118.5 -215.5t-274.5 -78.5q-174 0 -272 69.5t-133 233.5l219 30q35 -150 180 -150zM651 504q-8 47 -66.5 226.5t-59.5 267.5q-3 -75 -27 -167t-61.5 -198t-48.5 -147q27 6 71 9t106 5.5t86 3.5zM418 1325h224l334 -1081
q50 -169 50 -244h-276q0 79 -25 167l-32 114q-23 0 -69.5 -1t-65.5 -1.5t-54 -2t-57 -4.5t-52 -8t-59 -12l-30 -90q-36 -111 -40 -162h-260q5 71 54 223z" />
    <glyph glyph-name="abreve" unicode="&#x103;" 
d="M499 1334q79 0 127 40t53 101l219 -30q-19 -137 -118.5 -215.5t-274.5 -78.5q-174 0 -272 69.5t-133 233.5l219 30q35 -150 180 -150zM318 317q0 -68 38.5 -98t94.5 -30q74 0 133.5 53t76.5 105v47q-28 32 -74.5 54t-93.5 22q-61 0 -118 -39.5t-57 -113.5zM917 316
q0 -70 17 -113t59 -76l-125 -149q-12 9 -35 25t-34 25t-27.5 28.5t-31.5 44.5q-59 -61 -133.5 -86.5t-206.5 -25.5q-133 0 -238.5 90.5t-105.5 222.5q0 146 89 238q69 70 153 100t195 30q99 0 168 -47q0 58 -18.5 100t-48 61.5t-56 27.5t-53.5 8q-178 0 -283 -111l-122 208
q65 41 109.5 63t98.5 32.5t86.5 12.5t118.5 3q114 0 209.5 -42.5t155 -129t59.5 -201.5v-339z" />
    <glyph glyph-name="Aogonek" unicode="&#x104;" 
d="M1028 0q-23 -9 -65 -27q-64 -26 -93 -38.5t-73 -33t-63 -34.5t-40.5 -33t-29 -39t-7.5 -43q0 -57 120 -57q58 0 128 51l124 -141q-36 -39 -113.5 -72.5t-148.5 -33.5q-73 0 -134 12t-113.5 39t-82.5 76t-30 117q0 56 24.5 101.5t66 77.5t84 56.5t90 52t72.5 51.5
q-5 36 -19 85l-32 114q-23 0 -69.5 -1t-65.5 -1.5t-54 -2t-57 -4.5t-52 -8t-59 -12l-30 -90q-36 -111 -40 -162h-260q5 71 54 223l358 1102h224l334 -1081q50 -167 50 -242zM651 504q-8 47 -66.5 226.5t-59.5 267.5q-3 -75 -27 -167t-61.5 -198t-48.5 -147q27 6 71 9
t106 5.5t86 3.5z" />
    <glyph glyph-name="aogonek" unicode="&#x105;" 
d="M299 317q0 -68 38.5 -98t94.5 -30q74 0 133.5 53t76.5 105v47q-28 32 -74.5 54t-93.5 22q-61 0 -118 -39.5t-57 -113.5zM721 101q-59 -61 -133.5 -86.5t-206.5 -25.5t-233.5 90t-101.5 223q0 146 89 238q69 71 149 100.5t190 29.5q99 0 168 -47q0 58 -18.5 100t-48 61.5
t-56 27.5t-53.5 8q-79 0 -130 -35t-98 -102l-196 110q35 66 82 112.5t104 72.5t116 37.5t130 12.5q114 0 206.5 -43t149 -129t56.5 -201v-339q0 -70 17 -113t59 -76q-51 -79 -109.5 -139t-103.5 -90t-84 -53t-60 -44.5t-21 -49.5q0 -57 120 -57q58 0 128 51l124 -141
q-36 -39 -113.5 -72.5t-148.5 -33.5q-73 0 -134 12t-113.5 39t-82.5 76t-30 117q0 50 40 91t97 70t113.5 57t96.5 63.5t40 77.5z" />
    <glyph glyph-name="Cacute" unicode="&#x106;" 
d="M260 1509q105 35 224 110t208 158l134 -172q-78 -78 -217.5 -154.5t-258.5 -115.5zM566 1128q-45 0 -87.5 -28t-79.5 -84.5t-59 -157t-22 -230.5q0 -194 68 -312t154 -118h14q46 0 78 11t56 38t40 59t36 86l246 -137q-55 -118 -173.5 -188t-261.5 -70h-3q-218 0 -337 119
q-179 186 -179 520q0 296 133 496q58 87 158.5 143.5t224.5 56.5q117 0 228.5 -56t173.5 -169l-232 -125q-36 90 -72.5 118t-103.5 28z" />
    <glyph glyph-name="cacute" unicode="&#x107;" 
d="M241 1294q105 35 224 110t208 158l134 -172q-78 -78 -217.5 -154.5t-258.5 -115.5zM332 528q0 -90 18 -155.5t41.5 -97t57.5 -49.5t52.5 -20.5t40.5 -2.5h12q69 0 114.5 38t87.5 109l226 -134q-51 -113 -153 -168t-265 -55q-99 0 -178.5 16t-144.5 64
q-93 72 -131.5 183.5t-38.5 270.5q0 491 493 491q164 0 255 -61q89 -60 128 -151l-220 -102q-27 103 -181 103q-104 0 -159 -81t-55 -198z" />
    <glyph glyph-name="Ccircumflex" unicode="&#x108;" 
d="M564 1794l378 -291l-138 -156l-240 201l-229 -197l-140 146zM566 1128q-45 0 -87.5 -28t-79.5 -84.5t-59 -157t-22 -230.5q0 -194 68 -312t154 -118h14q46 0 78 11t56 38t40 59t36 86l246 -137q-55 -118 -173.5 -188t-261.5 -70h-3q-218 0 -337 119q-179 186 -179 520
q0 296 133 496q58 87 158.5 143.5t224.5 56.5q117 0 228.5 -56t173.5 -169l-232 -125q-36 90 -72.5 118t-103.5 28z" />
    <glyph glyph-name="ccircumflex" unicode="&#x109;" 
d="M545 1579l378 -291l-138 -156l-240 201l-229 -197l-140 146zM332 528q0 -90 18 -155.5t41.5 -97t57.5 -49.5t52.5 -20.5t40.5 -2.5h12q69 0 114.5 38t87.5 109l226 -134q-51 -113 -153 -168t-265 -55q-99 0 -178.5 16t-144.5 64q-93 72 -131.5 183.5t-38.5 270.5
q0 491 493 491q164 0 255 -61q89 -60 128 -151l-220 -102q-27 103 -181 103q-104 0 -159 -81t-55 -198z" />
    <glyph glyph-name="Cdotaccent" unicode="&#x10a;" 
d="M412 1645h284l2 -246h-285zM566 1128q-45 0 -87.5 -28t-79.5 -84.5t-59 -157t-22 -230.5q0 -194 68 -312t154 -118h14q46 0 78 11t56 38t40 59t36 86l246 -137q-55 -118 -173.5 -188t-261.5 -70h-3q-218 0 -337 119q-179 186 -179 520q0 296 133 496q58 87 158.5 143.5
t224.5 56.5q117 0 228.5 -56t173.5 -169l-232 -125q-36 90 -72.5 118t-103.5 28z" />
    <glyph glyph-name="cdotaccent" unicode="&#x10b;" 
d="M393 1430h284l2 -246h-285zM332 528q0 -90 18 -155.5t41.5 -97t57.5 -49.5t52.5 -20.5t40.5 -2.5h12q69 0 114.5 38t87.5 109l226 -134q-51 -113 -153 -168t-265 -55q-99 0 -178.5 16t-144.5 64q-93 72 -131.5 183.5t-38.5 270.5q0 491 493 491q164 0 255 -61
q89 -60 128 -151l-220 -102q-27 103 -181 103q-104 0 -159 -81t-55 -198z" />
    <glyph glyph-name="Ccaron" unicode="&#x10c;" 
d="M563 1359l-366 297l144 138l222 -189l240 201l138 -156zM566 1128q-45 0 -87.5 -28t-79.5 -84.5t-59 -157t-22 -230.5q0 -194 68 -312t154 -118h14q46 0 78 11t56 38t40 59t36 86l246 -137q-55 -118 -173.5 -188t-261.5 -70h-3q-218 0 -337 119q-179 186 -179 520
q0 296 133 496q58 87 158.5 143.5t224.5 56.5q117 0 228.5 -56t173.5 -169l-232 -125q-36 90 -72.5 118t-103.5 28z" />
    <glyph glyph-name="ccaron" unicode="&#x10d;" 
d="M544 1144l-366 297l144 138l222 -189l240 201l138 -156zM332 528q0 -90 18 -155.5t41.5 -97t57.5 -49.5t52.5 -20.5t40.5 -2.5h12q69 0 114.5 38t87.5 109l226 -134q-51 -113 -153 -168t-265 -55q-99 0 -178.5 16t-144.5 64q-93 72 -131.5 183.5t-38.5 270.5
q0 491 493 491q164 0 255 -61q89 -60 128 -151l-220 -102q-27 103 -181 103q-104 0 -159 -81t-55 -198z" />
    <glyph glyph-name="Dcaron" unicode="&#x10e;" 
d="M444 1359l-366 297l144 138l222 -189l240 201l138 -156zM403 1127h-30q-28 0 -45 -3q1 -26 1 -87q0 -31 -0.5 -74.5t-0.5 -78.5q0 -294 -4 -686q88 -3 99 -3h3q182 0 249 158q27 64 27 191q0 273 -87.5 428t-211.5 155zM70 128q0 16 1.5 144t3 308t1.5 321v76
q0 213 -13 340q142 14 225 14q148 0 246 -27t166.5 -82t137.5 -156q63 -95 97 -222.5t34 -263.5q0 -246 -114 -406t-296 -177q-77 -7 -161 -7q-38 0 -154 3.5t-177 3.5q0 33 3 131z" />
    <glyph glyph-name="dcaron" unicode="&#x10f;" 
d="M284 478q0 -305 139 -305q42 0 88 48.5t83 127.5v334q-29 52 -69.5 91t-86.5 39q-72 0 -113 -75.5t-41 -259.5zM45 459q0 285 88 419.5t273 134.5q49 0 95.5 -17t67 -30.5t47.5 -35.5q-22 100 -22 222q0 141 13 260l232 -9q-14 -136 -14 -246q0 -144 -1 -456.5t-1 -433.5
v-24q0 -97 19 -236l-184 -20q-42 64 -42 106q-30 -44 -87 -72t-139 -28q-345 0 -345 466zM1103 1364q-17 -66 -46 -200t-39 -180l-148 34q16 162 51 394z" />
    <glyph glyph-name="Dcroat" unicode="&#x110;" 
d="M403 1127h-30q-28 0 -45 -3q1 -26 1 -87q0 -22 -0.5 -51.5t-0.5 -43.5h254l2 -209l-256 -1q-1 -310 -4 -534q88 -3 99 -3h3q182 0 249 158q27 64 27 191q0 285 -77 434t-222 149zM76 942v35q0 213 -13 340q142 14 225 14q201 0 328.5 -63t221.5 -202q63 -95 97 -222.5
t34 -263.5q0 -97 -21 -204q-34 -173 -140 -269.5t-249 -109.5q-77 -7 -161 -7q-38 0 -154 3.5t-177 3.5q0 33 3 131q0 15 1.5 108t3 233.5t1.5 262.5h-70v210h70z" />
    <glyph glyph-name="dcroat" unicode="&#x111;" 
d="M348 478q0 -305 148 -305q45 0 94 48.5t88 127.5v334q-31 52 -74.5 91t-91.5 39q-77 0 -120.5 -75.5t-43.5 -259.5zM93 459q0 285 93.5 419.5t291.5 134.5q114 0 224 -83q-19 86 -23 163h-280v194h283q3 76 10 125l248 -9q-7 -63 -11 -116h41v-194h-45
q0 -139 -0.5 -427.5t-0.5 -398.5v-24q0 -111 19 -236l-196 -20q-45 64 -45 106q-31 -44 -92.5 -72t-148.5 -28q-368 0 -368 466z" />
    <glyph glyph-name="Emacron" unicode="&#x112;" 
d="M736 1620v-194h-17q-203 -7 -230 -7q-133 0 -235 3l-18 1v197l19 -2q97 -3 272 -3q33 0 102 2.5t90 2.5h17zM102 1319q56 4 204 4h98h110q84 0 207.5 -1.5t151.5 -1.5h16v-202h-529v-269h338v-203h-338v-31q0 -119 -1 -253t-1 -158l416 2q25 0 56 7t50 13l19 7l72 -199
q-9 -2 -34.5 -10t-41 -12t-46.5 -8t-65 -4h-682v1319z" />
    <glyph glyph-name="emacron" unicode="&#x113;" 
d="M788 1405v-194h-17q-203 -7 -230 -7q-133 0 -235 3l-18 1v197l19 -2q97 -3 272 -3q33 0 102 2.5t90 2.5h17zM336 606q136 24 340 24q-4 94 -49.5 141t-115.5 47q-74 0 -122 -61t-53 -151zM509 1021q229 0 328.5 -139t99.5 -405l-1 -43q-438 -6 -600 -38
q12 -83 69.5 -141.5t126.5 -58.5q75 0 120.5 25t101.5 85l178 -156q-42 -47 -73 -73t-77.5 -48t-106.5 -30.5t-149 -8.5q-211 0 -329.5 143.5t-118.5 382.5q0 223 113 364t318 141z" />
    <glyph glyph-name="Ebreve" unicode="&#x114;" 
d="M480 1549q79 0 127 40t53 101l219 -30q-19 -137 -118.5 -215.5t-274.5 -78.5q-174 0 -272 69.5t-133 233.5l219 30q35 -150 180 -150zM102 1319q56 4 204 4h98h110q84 0 207.5 -1.5t151.5 -1.5h16v-202h-529v-269h338v-203h-338v-31q0 -119 -1 -253t-1 -158l416 2
q25 0 56 7t50 13l19 7l72 -199q-9 -2 -34.5 -10t-41 -12t-46.5 -8t-65 -4h-682v1319z" />
    <glyph glyph-name="ebreve" unicode="&#x115;" 
d="M532 1334q79 0 127 40t53 101l219 -30q-19 -137 -118.5 -215.5t-274.5 -78.5q-174 0 -272 69.5t-133 233.5l219 30q35 -150 180 -150zM336 606q136 24 340 24q-4 94 -49.5 141t-115.5 47q-74 0 -122 -61t-53 -151zM509 1021q229 0 328.5 -139t99.5 -405l-1 -43
q-438 -6 -600 -38q12 -83 69.5 -141.5t126.5 -58.5q75 0 120.5 25t101.5 85l178 -156q-42 -47 -73 -73t-77.5 -48t-106.5 -30.5t-149 -8.5q-211 0 -329.5 143.5t-118.5 382.5q0 223 113 364t318 141z" />
    <glyph glyph-name="Edotaccent" unicode="&#x116;" 
d="M325 1645h284l2 -246h-285zM102 1319q56 4 204 4h98h110q84 0 207.5 -1.5t151.5 -1.5h16v-202h-529v-269h338v-203h-338v-31q0 -119 -1 -253t-1 -158l416 2q25 0 56 7t50 13l19 7l72 -199q-9 -2 -34.5 -10t-41 -12t-46.5 -8t-65 -4h-682v1319z" />
    <glyph glyph-name="edotaccent" unicode="&#x117;" 
d="M377 1430h284l2 -246h-285zM336 606q136 24 340 24q-4 94 -49.5 141t-115.5 47q-74 0 -122 -61t-53 -151zM509 1021q229 0 328.5 -139t99.5 -405l-1 -43q-438 -6 -600 -38q12 -83 69.5 -141.5t126.5 -58.5q75 0 120.5 25t101.5 85l178 -156q-42 -47 -73 -73t-77.5 -48
t-106.5 -30.5t-149 -8.5q-211 0 -329.5 143.5t-118.5 382.5q0 223 113 364t318 141z" />
    <glyph glyph-name="Eogonek" unicode="&#x118;" 
d="M102 1319q56 4 204 4h98h110q84 0 207.5 -1.5t151.5 -1.5h16v-202h-529v-269h338v-203h-338v-31q0 -119 -1 -253t-1 -158l416 2q25 0 56 7t50 13l19 7l72 -199q-60 -35 -125.5 -69t-104 -53t-76 -40.5t-57 -38t-31 -37t-11.5 -45.5q0 -57 120 -57q58 0 128 51l124 -141
q-36 -39 -113.5 -72t-148.5 -33q-73 0 -134 12t-113.5 39t-82.5 76t-30 117q0 34 11 63t25 49t47 44.5t57.5 39.5t77.5 45q18 10 28 16h-460v1319z" />
    <glyph glyph-name="eogonek" unicode="&#x119;" 
d="M336 606q136 24 340 24q-4 94 -49.5 141t-115.5 47q-74 0 -122 -61t-53 -151zM509 1021q229 0 328.5 -139t99.5 -405l-1 -43q-438 -6 -600 -38q12 -86 58.5 -143t113.5 -57q83 0 120.5 17t81.5 81l200 -128q-39 -62 -95 -119t-104.5 -95t-92.5 -73t-70 -66.5t-26 -61.5
q0 -57 120 -57q58 0 128 51l124 -141q-36 -39 -113.5 -72.5t-148.5 -33.5q-73 0 -134 12t-113.5 39t-82.5 76t-30 117q0 32 11 59t37.5 53t47 42.5t64.5 47t65 46.5q-206 1 -312.5 143t-106.5 383q0 223 113 364t318 141z" />
    <glyph glyph-name="Ecaron" unicode="&#x11a;" 
d="M476 1359l-366 297l144 138l222 -189l240 201l138 -156zM102 1319q56 4 204 4h98h110q84 0 207.5 -1.5t151.5 -1.5h16v-202h-529v-269h338v-203h-338v-31q0 -119 -1 -253t-1 -158l416 2q25 0 56 7t50 13l19 7l72 -199q-9 -2 -34.5 -10t-41 -12t-46.5 -8t-65 -4h-682v1319
z" />
    <glyph glyph-name="ecaron" unicode="&#x11b;" 
d="M528 1144l-366 297l144 138l222 -189l240 201l138 -156zM336 606q136 24 340 24q-4 94 -49.5 141t-115.5 47q-74 0 -122 -61t-53 -151zM509 1021q229 0 328.5 -139t99.5 -405l-1 -43q-438 -6 -600 -38q12 -83 69.5 -141.5t126.5 -58.5q75 0 120.5 25t101.5 85l178 -156
q-42 -47 -73 -73t-77.5 -48t-106.5 -30.5t-149 -8.5q-211 0 -329.5 143.5t-118.5 382.5q0 223 113 364t318 141z" />
    <glyph glyph-name="Gcircumflex" unicode="&#x11c;" 
d="M547 1794l378 -291l-138 -156l-240 201l-229 -197l-140 146zM861 772q57 0 131 7v-193q0 -130 -15 -226.5t-39 -157t-64.5 -102t-82 -61.5t-100.5 -36q-49 -11 -151 -11q-107 0 -194 33.5t-147 92.5t-100.5 141.5t-59.5 178t-19 203.5q0 386 184 569q131 118 329 118h20
q324 -8 437 -257l-234 -116q-28 92 -74 129t-142 37q-123 0 -191 -134.5t-68 -356.5q0 -205 62 -318.5t187 -113.5q50 0 86.5 20.5t57.5 53t33.5 83t16.5 99.5t4 114l-64 -1q-127 0 -230 -39l-40 203q112 43 301 43q28 0 83.5 -1t82.5 -1z" />
    <glyph glyph-name="gcircumflex" unicode="&#x11d;" 
d="M499 1576l378 -291l-138 -156l-240 201l-229 -197l-140 146zM541 -184q55 0 124 50.5t69 117.5q0 35 -28.5 54.5t-107.5 19.5l-267 -1q-23 -30 -23 -130q0 -45 44.5 -78t98.5 -33h90zM645 726q0 41 -24 63t-55.5 27.5t-81.5 5.5q-71 0 -114 -26t-43 -79q0 -118 158 -118
q160 0 160 127zM870 819q21 -22 21 -103q0 -143 -93 -230t-291 -87h-3q-117 0 -147 13q-30 -35 -30 -79q0 -34 29 -59.5t100 -25.5h179q50 0 95.5 -6t93 -23t82 -44t56.5 -71.5t22 -102.5q0 -80 -36.5 -153.5t-93 -123t-125.5 -79t-134 -29.5h-155q-162 0 -261 76t-99 230
q0 144 87 221q-37 27 -62 82.5t-25 117.5q0 47 12.5 85.5t26 58.5t37.5 46q-3 4 -16 20t-16.5 21.5t-13 19t-13 22t-9 22t-7 27.5t-1.5 29q0 171 108.5 251.5t306.5 80.5q173 0 272 -61q37 34 85 47.5t135 13.5v-204q-30 5 -41 5q-44 0 -76 -8z" />
    <glyph glyph-name="Gbreve" unicode="&#x11e;" 
d="M550 1549q79 0 127 40t53 101l219 -30q-19 -137 -118.5 -215.5t-274.5 -78.5q-174 0 -272 69.5t-133 233.5l219 30q35 -150 180 -150zM861 772q57 0 131 7v-193q0 -130 -15 -226.5t-39 -157t-64.5 -102t-82 -61.5t-100.5 -36q-49 -11 -151 -11q-107 0 -194 33.5
t-147 92.5t-100.5 141.5t-59.5 178t-19 203.5q0 386 184 569q131 118 329 118h20q324 -8 437 -257l-234 -116q-28 92 -74 129t-142 37q-123 0 -191 -134.5t-68 -356.5q0 -205 62 -318.5t187 -113.5q50 0 86.5 20.5t57.5 53t33.5 83t16.5 99.5t4 114l-64 -1q-127 0 -230 -39
l-40 203q112 43 301 43q28 0 83.5 -1t82.5 -1z" />
    <glyph glyph-name="gbreve" unicode="&#x11f;" 
d="M502 1331q79 0 127 40t53 101l219 -30q-19 -137 -118.5 -215.5t-274.5 -78.5q-174 0 -272 69.5t-133 233.5l219 30q35 -150 180 -150zM541 -184q55 0 124 50.5t69 117.5q0 35 -28.5 54.5t-107.5 19.5l-267 -1q-23 -30 -23 -130q0 -45 44.5 -78t98.5 -33h90zM645 726
q0 41 -24 63t-55.5 27.5t-81.5 5.5q-71 0 -114 -26t-43 -79q0 -118 158 -118q160 0 160 127zM870 819q21 -22 21 -103q0 -143 -93 -230t-291 -87h-3q-117 0 -147 13q-30 -35 -30 -79q0 -34 29 -59.5t100 -25.5h179q50 0 95.5 -6t93 -23t82 -44t56.5 -71.5t22 -102.5
q0 -80 -36.5 -153.5t-93 -123t-125.5 -79t-134 -29.5h-155q-162 0 -261 76t-99 230q0 144 87 221q-37 27 -62 82.5t-25 117.5q0 47 12.5 85.5t26 58.5t37.5 46q-3 4 -16 20t-16.5 21.5t-13 19t-13 22t-9 22t-7 27.5t-1.5 29q0 171 108.5 251.5t306.5 80.5q173 0 272 -61
q37 34 85 47.5t135 13.5v-204q-30 5 -41 5q-44 0 -76 -8z" />
    <glyph glyph-name="Gdotaccent" unicode="&#x120;" 
d="M395 1645h284l2 -246h-285zM861 772q57 0 131 7v-193q0 -130 -15 -226.5t-39 -157t-64.5 -102t-82 -61.5t-100.5 -36q-49 -11 -151 -11q-107 0 -194 33.5t-147 92.5t-100.5 141.5t-59.5 178t-19 203.5q0 386 184 569q131 118 329 118h20q324 -8 437 -257l-234 -116
q-28 92 -74 129t-142 37q-123 0 -191 -134.5t-68 -356.5q0 -205 62 -318.5t187 -113.5q50 0 86.5 20.5t57.5 53t33.5 83t16.5 99.5t4 114l-64 -1q-127 0 -230 -39l-40 203q112 43 301 43q28 0 83.5 -1t82.5 -1z" />
    <glyph glyph-name="gdotaccent" unicode="&#x121;" 
d="M347 1427h284l2 -246h-285zM541 -184q55 0 124 50.5t69 117.5q0 35 -28.5 54.5t-107.5 19.5l-267 -1q-23 -30 -23 -130q0 -45 44.5 -78t98.5 -33h90zM645 726q0 41 -24 63t-55.5 27.5t-81.5 5.5q-71 0 -114 -26t-43 -79q0 -118 158 -118q160 0 160 127zM870 819
q21 -22 21 -103q0 -143 -93 -230t-291 -87h-3q-117 0 -147 13q-30 -35 -30 -79q0 -34 29 -59.5t100 -25.5h179q50 0 95.5 -6t93 -23t82 -44t56.5 -71.5t22 -102.5q0 -80 -36.5 -153.5t-93 -123t-125.5 -79t-134 -29.5h-155q-162 0 -261 76t-99 230q0 144 87 221
q-37 27 -62 82.5t-25 117.5q0 47 12.5 85.5t26 58.5t37.5 46q-3 4 -16 20t-16.5 21.5t-13 19t-13 22t-9 22t-7 27.5t-1.5 29q0 171 108.5 251.5t306.5 80.5q173 0 272 -61q37 34 85 47.5t135 13.5v-204q-30 5 -41 5q-44 0 -76 -8z" />
    <glyph glyph-name="Gcommaaccent" unicode="&#x122;" 
d="M415 -130h270v-215q0 -114 -31 -177.5t-125 -139.5l-134 125q43 34 59.5 70.5t16.5 115.5h-56v221zM861 772q57 0 131 7v-193q0 -130 -15 -226.5t-39 -157t-64.5 -102t-82 -61.5t-100.5 -36q-49 -11 -151 -11q-107 0 -194 33.5t-147 92.5t-100.5 141.5t-59.5 178
t-19 203.5q0 386 184 569q131 118 329 118h20q324 -8 437 -257l-234 -116q-28 92 -74 129t-142 37q-123 0 -191 -134.5t-68 -356.5q0 -205 62 -318.5t187 -113.5q50 0 86.5 20.5t57.5 53t33.5 83t16.5 99.5t4 114l-64 -1q-127 0 -230 -39l-40 203q112 43 301 43
q28 0 83.5 -1t82.5 -1z" />
    <glyph glyph-name="gcommaaccent" unicode="&#x123;" 
d="M384 1231q22 64 58.5 194.5t50.5 177.5l190 -33q-21 -165 -66 -386zM541 -184q55 0 124 50.5t69 117.5q0 35 -28.5 54.5t-107.5 19.5l-267 -1q-23 -30 -23 -130q0 -45 44.5 -78t98.5 -33h90zM645 726q0 41 -24 63t-55.5 27.5t-81.5 5.5q-71 0 -114 -26t-43 -79
q0 -118 158 -118q160 0 160 127zM870 819q21 -22 21 -103q0 -143 -93 -230t-291 -87h-3q-117 0 -147 13q-30 -35 -30 -79q0 -34 29 -59.5t100 -25.5h179q50 0 95.5 -6t93 -23t82 -44t56.5 -71.5t22 -102.5q0 -80 -36.5 -153.5t-93 -123t-125.5 -79t-134 -29.5h-155
q-162 0 -261 76t-99 230q0 144 87 221q-37 27 -62 82.5t-25 117.5q0 47 12.5 85.5t26 58.5t37.5 46q-3 4 -16 20t-16.5 21.5t-13 19t-13 22t-9 22t-7 27.5t-1.5 29q0 171 108.5 251.5t306.5 80.5q173 0 272 -61q37 34 85 47.5t135 13.5v-204q-30 5 -41 5q-44 0 -76 -8z" />
    <glyph glyph-name="Hcircumflex" unicode="&#x124;" 
d="M497 1794l378 -291l-138 -156l-240 201l-229 -197l-140 146zM317 1322l-1 -537q127 29 272 29h87q0 154 -0.5 294.5t-0.5 208.5h256v-1317h-255v599h-32q-116 0 -179 -5t-148 -24q0 -196 1 -347t1 -223h-258v1320z" />
    <glyph glyph-name="hcircumflex" unicode="&#x125;" 
d="M202 1872l378 -291l-138 -156l-240 201l-229 -197l-140 146zM942 566v-348q0 -115 44 -178l-226 -80q-64 89 -64 216v315q0 89 -11.5 151.5t-27.5 95.5t-44 50.5t-49.5 21t-55.5 3.5q-52 0 -98 -39.5t-77 -91.5v-682h-245v1156q0 91 -16 246l248 9q14 -114 14 -260
q0 -119 -24 -222q111 84 232 84q195 0 297.5 -106.5t102.5 -340.5z" />
    <glyph glyph-name="Hbar" unicode="&#x126;" 
d="M60 1198v122l257 2v-124h357v119h256v-119h80v-207h-80v-991h-255v599h-32q-116 0 -179 -5t-148 -24q0 -196 1 -347t1 -223h-258v991h-60v207h60zM675 991h-359v-206q127 29 272 29h87v177z" />
    <glyph glyph-name="hbar" unicode="&#x127;" 
d="M972 566v-348q0 -144 28 -196l-228 -54q-44 61 -44 208v315q0 75 -6 131t-19 90t-27 55t-36.5 30.5t-40 12t-45.5 2.5q-49 0 -93 -39.5t-75 -90.5v-682h-246l1 1114h-141v207h133q-1 13 -3 40.5t-4 40.5l248 9q5 -49 8 -90h332v-207h-327q-3 -96 -23 -185q110 83 224 83
q193 0 288.5 -105t95.5 -341z" />
    <glyph glyph-name="Itilde" unicode="&#x128;" 
d="M331 1677q60 0 107.5 -13.5t75.5 -33t50.5 -39t45 -33t46.5 -13.5q77 0 86 100l177 -54q-9 -41 -24.5 -76.5t-42.5 -71t-71.5 -56t-102.5 -20.5q-55 0 -99 13.5t-71 32.5t-50 38t-48 32.5t-52 13.5q-32 0 -56.5 -27t-31.5 -73l-184 78q14 39 33 71.5t48 63.5t71.5 49
t92.5 18zM132 1324q195 5 353 5q123 0 368 -3l-1 -211q-65 0 -125.5 2.5t-104.5 2.5v-901q22 0 39 0.5t43 0.5q75 0 144 -4l1 -217q-102 6 -210 6q-22 0 -73 -0.5t-82 -0.5q-27 0 -144.5 -3.5t-205.5 -3.5v216q106 5 180 5h52v901q-142 -2 -228 -7z" />
    <glyph glyph-name="itilde" unicode="&#x129;" 
d="M327 1462q60 0 107.5 -13.5t75.5 -33t50.5 -39t45 -33t46.5 -13.5q77 0 86 100l177 -54q-9 -41 -24.5 -76.5t-42.5 -71t-71.5 -56t-102.5 -20.5q-55 0 -99 13.5t-71 32.5t-50 38t-48 32.5t-52 13.5q-32 0 -56.5 -27t-31.5 -73l-184 78q14 39 33 71.5t48 63.5t71.5 49
t92.5 18zM354 1013h255l1 -739q0 -51 21.5 -71.5t87.5 -20.5q67 0 116 22.5t97 68.5l97 -190q-61 -50 -160.5 -75.5t-200.5 -25.5q-151 0 -221 38q-93 51 -93 186v607q-113 0 -234 -28l-29 186q141 42 263 42z" />
    <glyph glyph-name="Imacron" unicode="&#x12a;" 
d="M753 1620v-194h-17q-203 -7 -230 -7q-133 0 -235 3l-18 1v197l19 -2q97 -3 272 -3q33 0 102 2.5t90 2.5h17zM132 1324q195 5 353 5q123 0 368 -3l-1 -211q-65 0 -125.5 2.5t-104.5 2.5v-901q22 0 39 0.5t43 0.5q75 0 144 -4l1 -217q-102 6 -210 6q-22 0 -73 -0.5
t-82 -0.5q-27 0 -144.5 -3.5t-205.5 -3.5v216q106 5 180 5h52v901q-142 -2 -228 -7z" />
    <glyph glyph-name="imacron" unicode="&#x12b;" 
d="M749 1405v-194h-17q-203 -7 -230 -7q-133 0 -235 3l-18 1v197l19 -2q97 -3 272 -3q33 0 102 2.5t90 2.5h17zM354 1013h255l1 -739q0 -51 21.5 -71.5t87.5 -20.5q67 0 116 22.5t97 68.5l97 -190q-61 -50 -160.5 -75.5t-200.5 -25.5q-151 0 -221 38q-93 51 -93 186v607
q-113 0 -234 -28l-29 186q141 42 263 42z" />
    <glyph glyph-name="Ibreve" unicode="&#x12c;" 
d="M497 1549q79 0 127 40t53 101l219 -30q-19 -137 -118.5 -215.5t-274.5 -78.5q-174 0 -272 69.5t-133 233.5l219 30q35 -150 180 -150zM132 1324q195 5 353 5q123 0 368 -3l-1 -211q-65 0 -125.5 2.5t-104.5 2.5v-901q22 0 39 0.5t43 0.5q75 0 144 -4l1 -217
q-102 6 -210 6q-22 0 -73 -0.5t-82 -0.5q-27 0 -144.5 -3.5t-205.5 -3.5v216q106 5 180 5h52v901q-142 -2 -228 -7z" />
    <glyph glyph-name="ibreve" unicode="&#x12d;" 
d="M493 1334q79 0 127 40t53 101l219 -30q-19 -137 -118.5 -215.5t-274.5 -78.5q-174 0 -272 69.5t-133 233.5l219 30q35 -150 180 -150zM354 1013h255l1 -739q0 -51 21.5 -71.5t87.5 -20.5q67 0 116 22.5t97 68.5l97 -190q-61 -50 -160.5 -75.5t-200.5 -25.5
q-151 0 -221 38q-93 51 -93 186v607q-113 0 -234 -28l-29 186q141 42 263 42z" />
    <glyph glyph-name="Iogonek" unicode="&#x12e;" 
d="M132 1324q195 5 353 5q123 0 368 -3l-1 -211q-65 0 -125.5 2.5t-104.5 2.5v-901q22 0 39 0.5t43 0.5q75 0 144 -4l1 -217q-185 -49 -273 -109t-88 -137q0 -57 120 -57q58 0 128 51l124 -141q-36 -39 -113.5 -72.5t-148.5 -33.5q-73 0 -134 12t-113.5 39t-82.5 76t-30 117
q0 84 52 138.5t174 121.5q-14 0 -130 -3.5t-200 -3.5v216q106 5 180 5h52v901q-142 -2 -228 -7z" />
    <glyph glyph-name="iogonek" unicode="&#x12f;" 
d="M329 1406h291v-225h-291v225zM354 1013h255l1 -739q0 -51 21.5 -71.5t87.5 -20.5q67 0 116 22.5t97 68.5l97 -190q-4 -4 -7 -6q-81 -64 -167.5 -118.5t-129 -78t-70.5 -55t-28 -73.5q0 -27 34.5 -42.5t85.5 -15.5q57 0 128 52l124 -142q-36 -39 -113.5 -72t-148.5 -33
q-73 0 -134 12t-113.5 39t-82.5 76t-30 117q0 31 10.5 58.5t22.5 46t43.5 44t50 38t66.5 43.5q13 9 20 13q-99 10 -143 34q-93 51 -93 186v607q-113 0 -234 -28l-29 186q141 42 263 42z" />
    <glyph glyph-name="Idotaccent" unicode="&#x130;" 
d="M342 1645h284l2 -246h-285zM132 1324q195 5 353 5q123 0 368 -3l-1 -211q-65 0 -125.5 2.5t-104.5 2.5v-901q22 0 39 0.5t43 0.5q75 0 144 -4l1 -217q-102 6 -210 6q-22 0 -73 -0.5t-82 -0.5q-27 0 -144.5 -3.5t-205.5 -3.5v216q106 5 180 5h52v901q-142 -2 -228 -7z" />
    <glyph glyph-name="dotlessi" unicode="&#x131;" 
d="M354 1013h255l1 -739q0 -51 21.5 -71.5t87.5 -20.5q67 0 116 22.5t97 68.5l97 -190q-61 -50 -160.5 -75.5t-200.5 -25.5q-151 0 -221 38q-93 51 -93 186v607q-113 0 -234 -28l-29 186q141 42 263 42z" />
    <glyph glyph-name="IJ" unicode="&#x132;" 
d="M731 0q-85 0 -148 36.5t-99 99.5t-53 137.5t-18 161.5l235 -1q4 -110 25 -166t52 -56q45 0 58 84t13 343q0 101 -14.5 253t-40.5 212q-27 0 -44 2t-28 2q-27 -1 -47.5 -3.5t-27.5 -4t-19 -5.5t-14 -5l-27 212q61 20 134 22q54 0 191 -0.5t197 -0.5l-2 -217
q-16 0 -30.5 0.5t-41.5 0.5q20 -102 38.5 -246.5t18.5 -221.5q0 -88 -3 -155.5t-11 -136.5t-22 -119t-37.5 -95t-55.5 -73t-77 -44t-102 -16zM10 1324q107 5 194 5q67 0 202 -3v-211l-57 5v-900l55 -4v-217q-56 6 -115 6q-12 0 -40 -0.5t-45 -0.5q-15 0 -80 -3.5t-113 -3.5
v216q63 5 82 5v901l-80 -7z" />
    <glyph glyph-name="ij" unicode="&#x133;" 
d="M168 1013h256v-739q0 -30 1 -42.5t6.5 -26.5t17.5 -18.5t34 -4.5q47 0 64 9t45 51l90 -159q-39 -50 -103 -75.5t-129 -25.5q-44 0 -100.5 10.5t-87.5 27.5q-94 52 -94 186v607h-25q-23 0 -107 -19l-30 186q22 7 44.5 14t30.5 9.5t22 5.5t27 3.5t38 0.5zM990 -78
q0 -61 -18 -113.5t-58 -98.5t-114.5 -72.5t-177.5 -26.5q-13 0 -39 -0.5t-39 -0.5q-86 0 -173.5 28t-222.5 118l150 174q45 -41 89 -67t85 -36t65 -12.5t57 -2.5h6h18q32 0 55 10t34.5 25t18 33.5t8 34.5t2.5 29v8v861h-30q-60 0 -144 -19l-30 186q71 21 107.5 27t96.5 6
h254v-1091zM694 1406h290v-225h-290v225zM144 1406h292v-225h-292v225z" />
    <glyph glyph-name="Jcircumflex" unicode="&#x134;" 
d="M594 1794l378 -291l-138 -156l-240 201l-229 -197l-140 146zM414 -8q-99 0 -176 38t-123 102t-69 140.5t-24 162.5l260 -1q4 -111 39 -170.5t87 -59.5q89 0 126.5 107t37.5 361q0 96 -29 434q-26 0 -56.5 1t-47.5 1q-36 -1 -63 -3.5t-37 -4t-25 -5.5t-18 -5l-37 212
q84 20 179 22q71 0 255 -0.5t263 -0.5l-3 -217q-24 0 -71.5 2t-72.5 2q23 -262 23 -452q0 -114 -11.5 -208.5t-41 -181.5t-75.5 -146.5t-120 -94.5t-170 -35z" />
    <glyph glyph-name="jcircumflex" unicode="&#x135;" 
d="M703 1575l378 -291l-138 -156l-240 201l-229 -197l-140 146zM842 -78q0 -62 -18 -114t-57.5 -98t-114 -72.5t-177.5 -26.5q-53 0 -99 8t-101 31t-107.5 72t-97.5 122l164 148q60 -101 112.5 -140.5t105.5 -39.5h18q32 0 55 10t34.5 25t18 33.5t8 34.5t2.5 29v8v861
q-114 0 -235 -28l-29 186q141 42 264 42h254v-1091z" />
    <glyph glyph-name="Kcommaaccent" unicode="&#x136;" 
d="M383 -49h270v-215q0 -114 -31 -177.5t-125 -139.5l-134 125q43 34 59.5 70.5t16.5 115.5h-56v221zM588 782q90 -89 255 -337t203 -351l-236 -126q-43 103 -168.5 311t-213.5 295q-56 -62 -86 -134v-440h-258v1335h258v-464q101 142 464 505l196 -177q-190 -141 -414 -417
z" />
    <glyph glyph-name="kcommaaccent" unicode="&#x137;" 
d="M405 -49h270v-215q0 -114 -31 -177.5t-125 -139.5l-134 125q43 34 59.5 70.5t16.5 115.5h-56v221zM578 597q32 0 53.5 10t31 30t13 41t3.5 52q0 32 -18 57.5t-57 25.5q-32 0 -87.5 -32t-94.5 -64l-39 -32v-59q155 -29 195 -29zM383 0h-249v1228q0 82 -23 155l244 44
q28 -72 28 -134v-223q0 -90 -30 -174q5 5 13.5 13t36.5 29t57 37t71 29t82 13q154 0 237.5 -70t83.5 -213q0 -101 -35 -164t-136 -112q71 -25 103.5 -74t60.5 -142q13 -45 96 -105l-192 -164q-38 15 -67.5 37.5t-48.5 46t-36 60.5t-26 64t-22 74q-11 39 -39.5 68t-58 42.5
t-65.5 21.5t-53 9.5t-30 1.5h-2v-398z" />
    <glyph glyph-name="kgreenlandic" unicode="&#x138;" 
d="M589 571q32 -32 110.5 -101.5t138 -123.5t117 -121t75.5 -115l-236 -126q-21 51 -90 135t-123.5 140.5t-146.5 147.5q-56 -62 -86 -134v-273h-258v1022h258v-346q67 94 264 225t264 157l142 -202q-148 -68 -265 -147.5t-164 -137.5z" />
    <glyph glyph-name="Lacute" unicode="&#x139;" 
d="M-22 1509q105 35 224 110t208 158l134 -172q-78 -78 -217.5 -154.5t-258.5 -115.5zM157 -3v1328h256v-1118h426q62 3 114 21l72 -197q-100 -34 -184 -34h-684z" />
    <glyph glyph-name="lacute" unicode="&#x13a;" 
d="M174 1587q105 35 224 110t208 158l134 -172q-78 -78 -217.5 -154.5t-258.5 -115.5zM355 1401h254l2 -1127q0 -51 21 -71.5t87 -20.5q67 0 116 22.5t97 68.5l97 -190q-61 -50 -160.5 -75.5t-200.5 -25.5q-150 0 -220 38q-93 51 -93 186q0 114 -0.5 347.5t-0.5 347.5
q0 196 1 300h-40q-133 0 -217 -19l-29 186q111 33 286 33z" />
    <glyph glyph-name="Lcommaaccent" unicode="&#x13b;" 
d="M418 -49h270v-215q0 -114 -31 -177.5t-125 -139.5l-134 125q43 34 59.5 70.5t16.5 115.5h-56v221zM157 -3v1328h256v-1118h426q62 3 114 21l72 -197q-100 -34 -184 -34h-684z" />
    <glyph glyph-name="lcommaaccent" unicode="&#x13c;" 
d="M525 -49h270v-215q0 -114 -31 -177.5t-125 -139.5l-134 125q43 34 59.5 70.5t16.5 115.5h-56v221zM355 1401h254l2 -1127q0 -51 21 -71.5t87 -20.5q67 0 116 22.5t97 68.5l97 -190q-61 -50 -160.5 -75.5t-200.5 -25.5q-150 0 -220 38q-93 51 -93 186q0 114 -0.5 347.5
t-0.5 347.5q0 196 1 300h-40q-133 0 -217 -19l-29 186q111 33 286 33z" />
    <glyph glyph-name="Lcaron" unicode="&#x13d;" 
d="M972 1274q-17 -66 -46 -200t-39 -180l-186 22q16 165 51 395zM157 -3v1328h256v-1118h426q62 3 114 21l72 -197q-100 -34 -184 -34h-684z" />
    <glyph glyph-name="lcaron" unicode="&#x13e;" 
d="M1019 1393q-17 -66 -46 -200t-39 -180l-186 22q16 165 51 395zM355 1401h254l2 -1127q0 -51 21 -71.5t87 -20.5q67 0 116 22.5t97 68.5l97 -190q-61 -50 -160.5 -75.5t-200.5 -25.5q-150 0 -220 38q-93 51 -93 186q0 114 -0.5 347.5t-0.5 347.5q0 196 1 300h-40
q-133 0 -217 -19l-29 186q111 33 286 33z" />
    <glyph glyph-name="Ldot" unicode="&#x13f;" 
d="M613.866 834.645h257.494v-244.876h-257.494v244.876zM157 -3v1328h256v-1118h426q62 3 114 21l72 -197q-100 -34 -184 -34h-684z" />
    <glyph glyph-name="ldot" unicode="&#x140;" 
d="M685.866 834.645h257.494v-244.876h-257.494v244.876zM355 1401h254l2 -1127q0 -51 21 -71.5t87 -20.5q67 0 116 22.5t97 68.5l97 -190q-61 -50 -160.5 -75.5t-200.5 -25.5q-150 0 -220 38q-93 51 -93 186q0 114 -0.5 347.5t-0.5 347.5q0 196 1 300h-40q-133 0 -217 -19
l-29 186q111 33 286 33z" />
    <glyph glyph-name="Lslash" unicode="&#x141;" 
d="M267 513l-132 -70l-103 194l235 125v563h254v-429l232 123l103 -195l-335 -177v-440h318q62 3 114 21l72 -197q-100 -34 -184 -34h-574v516z" />
    <glyph glyph-name="lslash" unicode="&#x142;" 
d="M344 1430h254v-488l238 126l103 -195l-341 -180l2 -419q0 -51 21 -71.5t87 -20.5q67 0 116 22.5t97 68.5l97 -190q-61 -50 -160.5 -75.5t-200.5 -25.5q-150 0 -220 38q-93 51 -93 186l-1 352l-124 -66l-103 194l227 120l1 424q-114 0 -235 -28l-29 186q141 42 264 42z
" />
    <glyph glyph-name="Nacute" unicode="&#x143;" 
d="M189 1509q105 35 224 110t208 158l134 -172q-78 -78 -217.5 -154.5t-258.5 -115.5zM691 0q-66 189 -166.5 398.5t-204.5 379.5v-208q0 -168 0.5 -341t0.5 -232h-246v1328l211 -7q75 -111 152.5 -243t156 -297.5t101.5 -273.5l-7 274q0 319 12 551l244 -1q-8 -153 -8 -433
q0 -115 2 -361t2 -364q0 -30 -0.5 -87t-0.5 -83h-249z" />
    <glyph glyph-name="nacute" unicode="&#x144;" 
d="M217 1294q105 35 224 110t208 158l134 -172q-78 -78 -217.5 -154.5t-258.5 -115.5zM338 927q43 39 131.5 69t168.5 30q133 0 216.5 -57t83.5 -173v-518q0 -22 6.5 -39t23.5 -31t27.5 -21t37.5 -21q7 -4 11 -6l-116 -200q-41 13 -78.5 32t-76.5 50t-62.5 77.5t-23.5 102.5
v477q0 61 -17.5 90.5t-64.5 29.5q-51 0 -122.5 -29.5t-131.5 -82.5v-707h-251v706q0 87 -3.5 138.5t-8.5 76.5t-20 83l232 48q31 -74 38 -125z" />
    <glyph glyph-name="Ncommaaccent" unicode="&#x145;" 
d="M387 -49h270v-215q0 -114 -31 -177.5t-125 -139.5l-134 125q43 34 59.5 70.5t16.5 115.5h-56v221zM691 0q-66 189 -166.5 398.5t-204.5 379.5v-208q0 -168 0.5 -341t0.5 -232h-246v1328l211 -7q75 -111 152.5 -243t156 -297.5t101.5 -273.5l-7 274q0 319 12 551l244 -1
q-8 -153 -8 -433q0 -115 2 -361t2 -364q0 -30 -0.5 -87t-0.5 -83h-249z" />
    <glyph glyph-name="ncommaaccent" unicode="&#x146;" 
d="M414 -49h270v-215q0 -114 -31 -177.5t-125 -139.5l-134 125q43 34 59.5 70.5t16.5 115.5h-56v221zM338 927q43 39 131.5 69t168.5 30q133 0 216.5 -57t83.5 -173v-518q0 -22 6.5 -39t23.5 -31t27.5 -21t37.5 -21q7 -4 11 -6l-116 -200q-41 13 -78.5 32t-76.5 50
t-62.5 77.5t-23.5 102.5v477q0 61 -17.5 90.5t-64.5 29.5q-51 0 -122.5 -29.5t-131.5 -82.5v-707h-251v706q0 87 -3.5 138.5t-8.5 76.5t-20 83l232 48q31 -74 38 -125z" />
    <glyph glyph-name="Ncaron" unicode="&#x147;" 
d="M492 1359l-366 297l144 138l222 -189l240 201l138 -156zM691 0q-66 189 -166.5 398.5t-204.5 379.5v-208q0 -168 0.5 -341t0.5 -232h-246v1328l211 -7q75 -111 152.5 -243t156 -297.5t101.5 -273.5l-7 274q0 319 12 551l244 -1q-8 -153 -8 -433q0 -115 2 -361t2 -364
q0 -30 -0.5 -87t-0.5 -83h-249z" />
    <glyph glyph-name="ncaron" unicode="&#x148;" 
d="M520 1144l-366 297l144 138l222 -189l240 201l138 -156zM338 927q43 39 131.5 69t168.5 30q133 0 216.5 -57t83.5 -173v-518q0 -22 6.5 -39t23.5 -31t27.5 -21t37.5 -21q7 -4 11 -6l-116 -200q-41 13 -78.5 32t-76.5 50t-62.5 77.5t-23.5 102.5v477q0 61 -17.5 90.5
t-64.5 29.5q-51 0 -122.5 -29.5t-131.5 -82.5v-707h-251v706q0 87 -3.5 138.5t-8.5 76.5t-20 83l232 48q31 -74 38 -125z" />
    <glyph glyph-name="Eng" unicode="&#x14a;" 
d="M540 1296q106 0 186 -34t127.5 -94t71 -137.5t23.5 -170.5q0 -115 2 -346t2 -349v-34q0 -50 -1.5 -86t-7.5 -83t-16.5 -81.5t-30 -74t-46 -67.5t-66.5 -55t-90.5 -43.5t-118.5 -26.5t-150 -10h-34v222q60 0 107 7.5t79 19t55 32t36 42t20.5 53t9.5 59t2 67.5v746
q0 136 -35.5 185.5t-126.5 49.5q-17 0 -33.5 -4.5t-32 -15.5t-27.5 -20.5t-26.5 -28.5t-22.5 -29t-21.5 -33.5t-17.5 -30t-16.5 -30.5t-12.5 -25v-870l-253 -3v1062q0 51 -9.5 101t-19.5 74l-10 25l203 60q34 -70 41 -148q63 63 121 94t139 31z" />
    <glyph glyph-name="eng" unicode="&#x14b;" 
d="M338 927q47 42 116 70.5t146 28.5q132 0 212 -56.5t80 -173.5v-518q0 -92 -4.5 -163.5t-18 -145t-35.5 -128t-58 -103.5t-86 -79.5t-119.5 -48t-156.5 -17.5v219q45 0 80.5 13.5t59 33.5t40 53t25.5 63t14 72.5t6 72.5t1 71l-2 508q0 63 -14 91.5t-60 28.5
q-84 0 -213 -112l1 -707h-252v706q0 87 -3.5 138.5t-8.5 76.5t-20 83l232 48q31 -74 38 -125z" />
    <glyph glyph-name="Omacron" unicode="&#x14c;" 
d="M777 1620v-194h-17q-203 -7 -230 -7q-133 0 -235 3l-18 1v197l19 -2q97 -3 272 -3q33 0 102 2.5t90 2.5h17zM522 1350q39 0 76 -5.5t84 -24t86.5 -48.5t79 -84t67 -125.5t45.5 -178.5t19 -237v-11q0 -124 -21.5 -235.5t-57.5 -183.5q-56 -109 -160.5 -171t-229.5 -62
q-101 0 -198 35.5t-154 107.5q-122 152 -122 452q0 243 35 383.5t95 224.5q51 71 146.5 116t209.5 47zM351 277q34 -54 67.5 -72t91.5 -18q103 0 159 139q19 42 33.5 139t15.5 175v17q0 232 -45 352q-52 138 -152 138q-49 0 -81 -21.5t-62 -74.5q-81 -143 -81 -459
q0 -88 13 -179.5t41 -135.5z" />
    <glyph glyph-name="omacron" unicode="&#x14d;" 
d="M772 1405v-194h-17q-203 -7 -230 -7q-133 0 -235 3l-18 1v197l19 -2q97 -3 272 -3q33 0 102 2.5t90 2.5h17zM625 247q60 66 60 283v16q-2 132 -39 208t-126 76q-107 0 -151.5 -90t-44.5 -258q0 -128 48 -206.5t136 -78.5q40 1 64.5 11.5t52.5 38.5zM507 -6
q-223 0 -329 124.5t-106 345.5q0 568 433 568q144 0 233.5 -49.5t143.5 -151.5q59 -114 59 -288q0 -74 -9 -140t-28 -129t-53 -113t-80.5 -88t-113 -58.5t-148.5 -20.5h-2z" />
    <glyph glyph-name="Obreve" unicode="&#x14e;" 
d="M521 1549q79 0 127 40t53 101l219 -30q-19 -137 -118.5 -215.5t-274.5 -78.5q-174 0 -272 69.5t-133 233.5l219 30q35 -150 180 -150zM522 1350q39 0 76 -5.5t84 -24t86.5 -48.5t79 -84t67 -125.5t45.5 -178.5t19 -237v-11q0 -124 -21.5 -235.5t-57.5 -183.5
q-56 -109 -160.5 -171t-229.5 -62q-101 0 -198 35.5t-154 107.5q-122 152 -122 452q0 243 35 383.5t95 224.5q51 71 146.5 116t209.5 47zM351 277q34 -54 67.5 -72t91.5 -18q103 0 159 139q19 42 33.5 139t15.5 175v17q0 232 -45 352q-52 138 -152 138q-49 0 -81 -21.5
t-62 -74.5q-81 -143 -81 -459q0 -88 13 -179.5t41 -135.5z" />
    <glyph glyph-name="obreve" unicode="&#x14f;" 
d="M516 1334q79 0 127 40t53 101l219 -30q-19 -137 -118.5 -215.5t-274.5 -78.5q-174 0 -272 69.5t-133 233.5l219 30q35 -150 180 -150zM625 247q60 66 60 283v16q-2 132 -39 208t-126 76q-107 0 -151.5 -90t-44.5 -258q0 -128 48 -206.5t136 -78.5q40 1 64.5 11.5
t52.5 38.5zM507 -6q-223 0 -329 124.5t-106 345.5q0 568 433 568q144 0 233.5 -49.5t143.5 -151.5q59 -114 59 -288q0 -74 -9 -140t-28 -129t-53 -113t-80.5 -88t-113 -58.5t-148.5 -20.5h-2z" />
    <glyph glyph-name="Ohungarumlaut" unicode="&#x150;" 
d="M566 1488q83 67 163 177.5t137 224.5l201 -127q-45 -100 -150 -219.5t-204 -198.5zM183 1495q83 67 163 177.5t137 224.5l200 -127q-45 -101 -149.5 -220t-203.5 -198zM522 1350q39 0 76 -5.5t84 -24t86.5 -48.5t79 -84t67 -125.5t45.5 -178.5t19 -237v-11
q0 -124 -21.5 -235.5t-57.5 -183.5q-56 -109 -160.5 -171t-229.5 -62q-101 0 -198 35.5t-154 107.5q-122 152 -122 452q0 243 35 383.5t95 224.5q51 71 146.5 116t209.5 47zM351 277q34 -54 67.5 -72t91.5 -18q103 0 159 139q19 42 33.5 139t15.5 175v17q0 232 -45 352
q-52 138 -152 138q-49 0 -81 -21.5t-62 -74.5q-81 -143 -81 -459q0 -88 13 -179.5t41 -135.5z" />
    <glyph glyph-name="ohungarumlaut" unicode="&#x151;" 
d="M561 1273q83 67 163 177.5t137 224.5l201 -127q-45 -100 -150 -219.5t-204 -198.5zM178 1280q83 67 163 177.5t137 224.5l200 -127q-45 -101 -149.5 -220t-203.5 -198zM625 247q60 66 60 283v16q-2 132 -39 208t-126 76q-107 0 -151.5 -90t-44.5 -258q0 -128 48 -206.5
t136 -78.5q40 1 64.5 11.5t52.5 38.5zM507 -6q-223 0 -329 124.5t-106 345.5q0 568 433 568q144 0 233.5 -49.5t143.5 -151.5q59 -114 59 -288q0 -74 -9 -140t-28 -129t-53 -113t-80.5 -88t-113 -58.5t-148.5 -20.5h-2z" />
    <glyph glyph-name="OE" unicode="&#x152;" 
d="M436 199l1 928q-169 0 -169 -549q0 -173 39.5 -277t110.5 -104h8t2 0.5t2 1t6 0.5zM811 206q65 2 132 26l66 -200q-121 -33 -342 -33q-23 0 -73 0.5t-79 0.5q-19 -8 -127 -8q-89 3 -156.5 38.5t-108.5 91t-67 134.5t-35.5 161t-9.5 180q0 136 12.5 244t43.5 201.5
t80 155.5t123.5 97t173.5 35q44 0 80 -7q59 3 185 3q43 0 127.5 -0.5t125.5 -0.5v-198q-49 0 -85.5 0.5t-69.5 0.5q-74 0 -121 -1v-278h209v-205h-209v-437z" />
    <glyph glyph-name="oe" unicode="&#x153;" 
d="M996 218q-3 -9 -10 -23.5t-33 -52t-56 -66.5t-81 -52.5t-108 -23.5q-129 0 -221 95q-71 -95 -151 -95q-36 0 -61.5 4t-66 25.5t-77.5 61.5q-107 115 -107 368q0 121 11 176q6 38 14.5 72t23.5 81t37.5 84.5t52 72t72 53.5t92.5 19q54 0 88.5 -15.5t70.5 -47.5
q12 -10 23 -23q54 87 182 87q96 0 166 -66t103.5 -165t37.5 -217v-116q-171 -7 -318 -7h-32l-2 -173q14 -37 26.5 -51.5t39.5 -14.5q51 0 70 20.5t24 61.5zM648 675v-21q100 0 144 6q-5 83 -25 115.5t-76 32.5q-15 0 -23.5 -8t-13 -27.5t-5.5 -40t-1 -57.5zM330 208
q36 0 58 40.5t22 89.5l2 360q0 13 -2 27.5t-8.5 36.5t-23.5 36t-42 14q-15 0 -33.5 -38.5t-34 -119.5t-16.5 -180v-18q0 -84 21 -166t57 -82z" />
    <glyph glyph-name="Racute" unicode="&#x154;" 
d="M213 1509q105 35 224 110t208 158l134 -172q-78 -78 -217.5 -154.5t-258.5 -115.5zM699 552q150 -238 237 -341q55 -49 108 -63l-122 -192q-40 6 -81.5 36t-70.5 66q-64 72 -162.5 221t-157.5 251q-61 5 -117 28v-558h-243v1136q0 100 -5 178q157 15 218 15
q74 0 123 -1.5t112.5 -6t109 -15.5t93.5 -28t85.5 -45t67.5 -65q35 -44 54.5 -109t19.5 -131q0 -161 -77 -260t-192 -116zM706 906q0 121 -77.5 169.5t-232.5 48.5q-34 0 -63 -1v-355q100 -42 166 -42h8q62 0 102.5 13t61 39.5t28 56t7.5 71.5z" />
    <glyph glyph-name="racute" unicode="&#x155;" 
d="M237 1294q105 35 224 110t208 158l134 -172q-78 -78 -217.5 -154.5t-258.5 -115.5zM404 864q119 156 340 156q127 0 199.5 -75.5t72.5 -216.5v-30l-252 -2q2 22 2 44q0 78 -66 78q-45 0 -104 -63t-128 -195v-560h-252v704q0 27 -17 55t-35 45.5t-58 53.5l148 186
q7 -5 34.5 -26t36.5 -30t27.5 -29t30 -42.5t21.5 -52.5z" />
    <glyph glyph-name="Rcommaaccent" unicode="&#x156;" 
d="M409 -49h270v-215q0 -114 -31 -177.5t-125 -139.5l-134 125q43 34 59.5 70.5t16.5 115.5h-56v221zM699 552q150 -238 237 -341q55 -49 108 -63l-122 -192q-40 6 -81.5 36t-70.5 66q-64 72 -162.5 221t-157.5 251q-61 5 -117 28v-558h-243v1136q0 100 -5 178
q157 15 218 15q74 0 123 -1.5t112.5 -6t109 -15.5t93.5 -28t85.5 -45t67.5 -65q35 -44 54.5 -109t19.5 -131q0 -161 -77 -260t-192 -116zM706 906q0 121 -77.5 169.5t-232.5 48.5q-34 0 -63 -1v-355q100 -42 166 -42h8q62 0 102.5 13t61 39.5t28 56t7.5 71.5z" />
    <glyph glyph-name="rcommaaccent" unicode="&#x157;" 
d="M212 -49h270v-215q0 -114 -31 -177.5t-125 -139.5l-134 125q43 34 59.5 70.5t16.5 115.5h-56v221zM404 864q119 156 340 156q127 0 199.5 -75.5t72.5 -216.5v-30l-252 -2q2 22 2 44q0 78 -66 78q-45 0 -104 -63t-128 -195v-560h-252v704q0 27 -17 55t-35 45.5t-58 53.5
l148 186q7 -5 34.5 -26t36.5 -30t27.5 -29t30 -42.5t21.5 -52.5z" />
    <glyph glyph-name="Rcaron" unicode="&#x158;" 
d="M516 1359l-366 297l144 138l222 -189l240 201l138 -156zM699 552q150 -238 237 -341q55 -49 108 -63l-122 -192q-40 6 -81.5 36t-70.5 66q-64 72 -162.5 221t-157.5 251q-61 5 -117 28v-558h-243v1136q0 100 -5 178q157 15 218 15q74 0 123 -1.5t112.5 -6t109 -15.5
t93.5 -28t85.5 -45t67.5 -65q35 -44 54.5 -109t19.5 -131q0 -161 -77 -260t-192 -116zM706 906q0 121 -77.5 169.5t-232.5 48.5q-34 0 -63 -1v-355q100 -42 166 -42h8q62 0 102.5 13t61 39.5t28 56t7.5 71.5z" />
    <glyph glyph-name="rcaron" unicode="&#x159;" 
d="M540 1144l-366 297l144 138l222 -189l240 201l138 -156zM404 864q119 156 340 156q127 0 199.5 -75.5t72.5 -216.5v-30l-252 -2q2 22 2 44q0 78 -66 78q-45 0 -104 -63t-128 -195v-560h-252v704q0 27 -17 55t-35 45.5t-58 53.5l148 186q7 -5 34.5 -26t36.5 -30t27.5 -29
t30 -42.5t21.5 -52.5z" />
    <glyph glyph-name="Sacute" unicode="&#x15a;" 
d="M193 1509q105 35 224 110t208 158l134 -172q-78 -78 -217.5 -154.5t-258.5 -115.5zM231 702q-180 82 -180 304q0 161 111 241.5t308 80.5h9q187 0 317.5 -64t163.5 -186l-273 -102q-32 71 -88 106.5t-114 35.5q-69 0 -117.5 -27.5t-48.5 -76.5q0 -35 8.5 -60t27.5 -41
t34.5 -24.5t43.5 -18.5q44 -17 147.5 -50t178.5 -68q94 -46 155 -133t61 -223q0 -87 -24.5 -157t-66 -115.5t-100 -76t-123.5 -43.5t-140 -13h-19q-128 3 -222.5 38.5t-148 95.5t-79 134t-25.5 163l266 -2q0 -110 51 -165t163 -55q210 0 210 182q0 134 -150 200
q-54 24 -160 56t-176 64z" />
    <glyph glyph-name="sacute" unicode="&#x15b;" 
d="M189 1294q105 35 224 110t208 158l134 -172q-78 -78 -217.5 -154.5t-258.5 -115.5zM279 549q-63 31 -100 91t-37 141q0 67 32 117t86 77.5t115.5 40.5t131.5 13q60 0 107.5 -4.5t103 -17.5t104 -42t88.5 -72l-177 -163q-92 99 -223 99q-114 0 -114 -61q0 -45 34 -67
q38 -15 94.5 -36t92.5 -34t83 -34t76.5 -40t62 -47.5t50.5 -60.5t29.5 -75.5t11.5 -95.5q0 -58 -23.5 -107.5t-62.5 -82.5t-80.5 -55t-84.5 -33q-86 -20 -173 -20q-191 0 -301.5 94t-110.5 256h253q0 -80 37 -114t120 -34q26 0 52.5 5t55 16t46.5 33.5t18 53.5
q0 43 -16 71.5t-54 53.5q-38 24 -163.5 69.5t-163.5 64.5z" />
    <glyph glyph-name="Scircumflex" unicode="&#x15c;" 
d="M497 1794l378 -291l-138 -156l-240 201l-229 -197l-140 146zM231 702q-180 82 -180 304q0 161 111 241.5t308 80.5h9q187 0 317.5 -64t163.5 -186l-273 -102q-32 71 -88 106.5t-114 35.5q-69 0 -117.5 -27.5t-48.5 -76.5q0 -35 8.5 -60t27.5 -41t34.5 -24.5t43.5 -18.5
q44 -17 147.5 -50t178.5 -68q94 -46 155 -133t61 -223q0 -87 -24.5 -157t-66 -115.5t-100 -76t-123.5 -43.5t-140 -13h-19q-128 3 -222.5 38.5t-148 95.5t-79 134t-25.5 163l266 -2q0 -110 51 -165t163 -55q210 0 210 182q0 134 -150 200q-54 24 -160 56t-176 64z" />
    <glyph glyph-name="scircumflex" unicode="&#x15d;" 
d="M493 1579l378 -291l-138 -156l-240 201l-229 -197l-140 146zM279 549q-63 31 -100 91t-37 141q0 67 32 117t86 77.5t115.5 40.5t131.5 13q60 0 107.5 -4.5t103 -17.5t104 -42t88.5 -72l-177 -163q-92 99 -223 99q-114 0 -114 -61q0 -45 34 -67q38 -15 94.5 -36t92.5 -34
t83 -34t76.5 -40t62 -47.5t50.5 -60.5t29.5 -75.5t11.5 -95.5q0 -58 -23.5 -107.5t-62.5 -82.5t-80.5 -55t-84.5 -33q-86 -20 -173 -20q-191 0 -301.5 94t-110.5 256h253q0 -80 37 -114t120 -34q26 0 52.5 5t55 16t46.5 33.5t18 53.5q0 43 -16 71.5t-54 53.5
q-38 24 -163.5 69.5t-163.5 64.5z" />
    <glyph glyph-name="Scedilla" unicode="&#x15e;" 
d="M231 702q-180 82 -180 304q0 161 111 241.5t308 80.5h9q187 0 317.5 -64t163.5 -186l-273 -102q-32 71 -88 106.5t-114 35.5q-69 0 -117.5 -27.5t-48.5 -76.5q0 -35 8.5 -60t27.5 -41t34.5 -24.5t43.5 -18.5q44 -17 147.5 -50t178.5 -68q94 -46 155 -133t61 -223
q0 -180 -94.5 -276.5t-250.5 -120.5q-1 -18 -1 -70q78 -4 130.5 -49.5t52.5 -126.5q0 -95 -75 -148.5t-197 -53.5q-53 0 -113.5 14t-100.5 40l60 147q53 -29 129 -29q69 0 73 49v2q0 23 -19 39.5t-53 16.5q-72 0 -108 -13v181q-102 14 -177.5 53t-119 97t-64 126t-20.5 148
l265 -2q0 -110 51.5 -165t163.5 -55q210 0 210 182q0 134 -150 200q-54 24 -160 56t-176 64z" />
    <glyph glyph-name="scedilla" unicode="&#x15f;" 
d="M249 549q-63 31 -100 91t-37 141q0 67 32 117t86 77.5t115.5 40.5t131.5 13q60 0 107.5 -4.5t103 -17.5t104 -42t88.5 -72l-177 -163q-92 99 -223 99q-114 0 -114 -61q0 -45 34 -67q38 -15 94.5 -36t92.5 -34t83 -34t76.5 -40t62 -47.5t50.5 -60.5t29.5 -75.5t11.5 -95.5
q0 -58 -23.5 -107.5t-62.5 -82.5t-80.5 -55t-84.5 -33q-36 -8 -55 -11v-25v-46q78 -4 130 -49.5t52 -126.5q0 -95 -75 -148.5t-197 -53.5q-53 0 -113.5 14t-100.5 40l60 147q53 -29 130 -29q68 0 72 49v2q0 23 -18.5 39.5t-52.5 16.5q-73 0 -109 -13v182q-146 24 -227 114
t-81 228h253q0 -80 37 -114t120 -34q26 0 52.5 5t55 16t46.5 33.5t18 53.5q0 43 -16 71.5t-54 53.5q-38 24 -163.5 69.5t-163.5 64.5z" />
    <glyph glyph-name="Scaron" unicode="&#x160;" 
d="M496 1359l-366 297l144 138l222 -189l240 201l138 -156zM231 702q-180 82 -180 304q0 161 111 241.5t308 80.5h9q187 0 317.5 -64t163.5 -186l-273 -102q-32 71 -88 106.5t-114 35.5q-69 0 -117.5 -27.5t-48.5 -76.5q0 -35 8.5 -60t27.5 -41t34.5 -24.5t43.5 -18.5
q44 -17 147.5 -50t178.5 -68q94 -46 155 -133t61 -223q0 -87 -24.5 -157t-66 -115.5t-100 -76t-123.5 -43.5t-140 -13h-19q-128 3 -222.5 38.5t-148 95.5t-79 134t-25.5 163l266 -2q0 -110 51 -165t163 -55q210 0 210 182q0 134 -150 200q-54 24 -160 56t-176 64z" />
    <glyph glyph-name="scaron" unicode="&#x161;" 
d="M492 1144l-366 297l144 138l222 -189l240 201l138 -156zM279 549q-63 31 -100 91t-37 141q0 67 32 117t86 77.5t115.5 40.5t131.5 13q60 0 107.5 -4.5t103 -17.5t104 -42t88.5 -72l-177 -163q-92 99 -223 99q-114 0 -114 -61q0 -45 34 -67q38 -15 94.5 -36t92.5 -34
t83 -34t76.5 -40t62 -47.5t50.5 -60.5t29.5 -75.5t11.5 -95.5q0 -58 -23.5 -107.5t-62.5 -82.5t-80.5 -55t-84.5 -33q-86 -20 -173 -20q-191 0 -301.5 94t-110.5 256h253q0 -80 37 -114t120 -34q26 0 52.5 5t55 16t46.5 33.5t18 53.5q0 43 -16 71.5t-54 53.5
q-38 24 -163.5 69.5t-163.5 64.5z" />
    <glyph glyph-name="Tcommaaccent" unicode="&#x162;" 
d="M355 -9v1127q-114 0 -203.5 -0.5t-112.5 -0.5v207q53 0 357.5 0.5t406.5 0.5q112 0 167 -16l-60 -203q-52 12 -112 12h-183v-1127h-19v-24v-26l-1 -11q78 -4 130.5 -49.5t52.5 -126.5q0 -95 -75.5 -149t-196.5 -54q-53 0 -113.5 14t-100.5 40l60 148q55 -30 129 -30
q69 0 73 50v2q0 23 -18.5 39t-52.5 16q-75 0 -109 -12v173h-19z" />
    <glyph glyph-name="tcommaaccent" unicode="&#x163;" 
d="M388 435v-40q0 -97 29 -140.5t94 -54.5q24 -4 65 -4q72 0 120 27q18 10 32 28.5t19.5 32t12.5 34.5l6 21l208 -100q-8 -21 -25 -51t-58.5 -77t-92.5 -76q-54 -32 -151 -39q0 -9 -0.5 -24.5t-0.5 -27.5v-11q78 -4 130.5 -49.5t52.5 -126.5q0 -95 -75 -148.5t-197 -53.5
q-53 0 -113.5 14t-100.5 40l60 147q53 -29 129 -29q69 0 73 49v2q0 23 -18.5 39.5t-52.5 16.5q-73 0 -109 -13v181q-185 26 -250 162q-39 80 -39 233v43q6 282 9 371h-14q-41 0 -82 -11l-17 203q32 12 102 12h15q0 35 0.5 117t0.5 117l251 -6q0 -87 -2 -223q47 0 142.5 -1
t167 -2t74.5 -1l-3 -204q-69 0 -193 1t-190 1q-3 -89 -5 -211.5t-4 -167.5z" />
    <glyph glyph-name="Tcaron" unicode="&#x164;" 
d="M474 1359l-366 297l144 138l222 -189l240 201l138 -156zM355 0v1118q-114 0 -203.5 -0.5t-112.5 -0.5v207q53 0 357.5 0.5t406.5 0.5q112 0 167 -16l-60 -203q-52 12 -112 12h-183v-1118h-260z" />
    <glyph glyph-name="tcaron" unicode="&#x165;" 
d="M949 1476q-17 -66 -45.5 -199.5t-39.5 -181.5l-186 22q14 147 52 395zM430 436v-40q0 -98 29 -141.5t94 -54.5q36 -4 65 -4q70 0 120 28q15 8 26.5 20.5t19 27.5t11.5 26t8 25.5t5 16.5l208 -100q-8 -21 -25 -51.5t-58.5 -77t-92.5 -75.5q-72 -42 -220 -42
q-159 0 -256.5 34t-146.5 136q-39 80 -39 234v42q6 257 9 365h-14q-43 0 -82 -12l-17 204q36 12 102 12h15q0 35 0.5 120.5t0.5 120.5l251 -6q0 -95 -2 -231q48 0 153 -1t190 -2t86 -1l-3 -204q-69 0 -215.5 1t-212.5 1q-3 -89 -5 -207.5t-4 -163.5z" />
    <glyph glyph-name="Tbar" unicode="&#x166;" 
d="M355 504h-227v217h227v397q-114 0 -203.5 -0.5t-112.5 -0.5v207q53 0 357.5 0.5t406.5 0.5q112 0 167 -16l-60 -203q-52 12 -112 12h-183v-397h209v-217h-209v-513h-260v513z" />
    <glyph glyph-name="tbar" unicode="&#x167;" 
d="M471 433v-37q0 -98 29 -141.5t94 -54.5q36 -4 65 -4q70 0 120 28q15 8 26.5 20.5t19 27.5t11.5 26t8 25.5t5 16.5l208 -100q-8 -21 -25 -51.5t-58.5 -77t-92.5 -75.5q-72 -42 -220 -42q-159 0 -256.5 34t-146.5 136q-39 80 -39 234v35h-199v205h203q1 27 5 167h-14
q-43 0 -82 -12l-17 204q36 12 102 12h15q0 35 0.5 120.5t0.5 120.5l251 -6q0 -95 -2 -231q48 0 153 -1t190 -2t86 -1l-3 -204q-69 0 -215.5 1t-212.5 1q-4 -143 -5 -169h240v-205h-244z" />
    <glyph glyph-name="Utilde" unicode="&#x168;" 
d="M342 1678q60 0 107.5 -13.5t75.5 -33t50.5 -39t45 -33t46.5 -13.5q77 0 86 100l177 -54q-9 -41 -24.5 -76.5t-42.5 -71t-71.5 -56t-102.5 -20.5q-55 0 -99 13.5t-71 32.5t-50 38t-48 32.5t-52 13.5q-32 0 -56.5 -27t-31.5 -73l-184 78q14 39 33 71.5t48 63.5t71.5 49
t92.5 18zM701 1350l253 -28q-8 -57 -8 -127v-29q0 -78 1.5 -208.5t1.5 -182.5v-59q0 -110 -3 -178.5t-13.5 -154.5t-35.5 -150.5t-65 -111.5q-103 -122 -340 -131q-114 0 -193.5 30t-127.5 92t-72 145t-31 199q-7 108 -7 339q0 293 9 534h258q-8 -336 -8 -586v-141
q0 -110 6 -154q1 -4 4.5 -29t4.5 -33t6 -32t8.5 -33.5t11 -29.5t15.5 -29.5t19.5 -23.5t25 -20.5t31 -11.5t38.5 -6q33 1 59.5 11t46.5 24t35.5 40t25.5 49.5t17 63.5t11 69.5t5.5 81t2 85.5t0.5 94q0 57 -2.5 206.5t-2.5 241.5q0 102 13 184z" />
    <glyph glyph-name="utilde" unicode="&#x169;" 
d="M336 1462q60 0 107.5 -13.5t75.5 -33t50.5 -39t45 -33t46.5 -13.5q77 0 86 100l177 -54q-9 -41 -24.5 -76.5t-42.5 -71t-71.5 -56t-102.5 -20.5q-55 0 -99 13.5t-71 32.5t-50 38t-48 32.5t-52 13.5q-32 0 -56.5 -27t-31.5 -73l-184 78q14 39 33 71.5t48 63.5t71.5 49
t92.5 18zM893 -17q-92 42 -127 125q-54 -55 -137.5 -79.5t-202.5 -26.5h-9q-48 0 -93.5 6.5t-91 23t-78.5 41.5t-54 65t-21 91q0 39 0.5 132t0.5 143q0 422 -22 488l254 28q6 -27 10 -71.5t5.5 -121t1.5 -140t0.5 -187t0.5 -202.5q9 -53 32 -72.5t84 -19.5q112 5 166.5 59.5
t54.5 152.5v595h251v-707q1 -37 39 -80t79 -60z" />
    <glyph glyph-name="Umacron" unicode="&#x16a;" 
d="M764 1621v-194h-17q-203 -7 -230 -7q-133 0 -235 3l-18 1v197l19 -2q97 -3 272 -3q33 0 102 2.5t90 2.5h17zM701 1350l253 -28q-8 -57 -8 -127v-29q0 -78 1.5 -208.5t1.5 -182.5v-59q0 -110 -3 -178.5t-13.5 -154.5t-35.5 -150.5t-65 -111.5q-103 -122 -340 -131
q-114 0 -193.5 30t-127.5 92t-72 145t-31 199q-7 108 -7 339q0 293 9 534h258q-8 -336 -8 -586v-141q0 -110 6 -154q1 -4 4.5 -29t4.5 -33t6 -32t8.5 -33.5t11 -29.5t15.5 -29.5t19.5 -23.5t25 -20.5t31 -11.5t38.5 -6q33 1 59.5 11t46.5 24t35.5 40t25.5 49.5t17 63.5
t11 69.5t5.5 81t2 85.5t0.5 94q0 57 -2.5 206.5t-2.5 241.5q0 102 13 184z" />
    <glyph glyph-name="umacron" unicode="&#x16b;" 
d="M758 1405v-194h-17q-203 -7 -230 -7q-133 0 -235 3l-18 1v197l19 -2q97 -3 272 -3q33 0 102 2.5t90 2.5h17zM893 -17q-92 42 -127 125q-54 -55 -137.5 -79.5t-202.5 -26.5h-9q-48 0 -93.5 6.5t-91 23t-78.5 41.5t-54 65t-21 91q0 39 0.5 132t0.5 143q0 422 -22 488
l254 28q6 -27 10 -71.5t5.5 -121t1.5 -140t0.5 -187t0.5 -202.5q9 -53 32 -72.5t84 -19.5q112 5 166.5 59.5t54.5 152.5v595h251v-707q1 -37 39 -80t79 -60z" />
    <glyph glyph-name="Ubreve" unicode="&#x16c;" 
d="M508 1550q79 0 127 40t53 101l219 -30q-19 -137 -118.5 -215.5t-274.5 -78.5q-174 0 -272 69.5t-133 233.5l219 30q35 -150 180 -150zM701 1350l253 -28q-8 -57 -8 -127v-29q0 -78 1.5 -208.5t1.5 -182.5v-59q0 -110 -3 -178.5t-13.5 -154.5t-35.5 -150.5t-65 -111.5
q-103 -122 -340 -131q-114 0 -193.5 30t-127.5 92t-72 145t-31 199q-7 108 -7 339q0 293 9 534h258q-8 -336 -8 -586v-141q0 -110 6 -154q1 -4 4.5 -29t4.5 -33t6 -32t8.5 -33.5t11 -29.5t15.5 -29.5t19.5 -23.5t25 -20.5t31 -11.5t38.5 -6q33 1 59.5 11t46.5 24t35.5 40
t25.5 49.5t17 63.5t11 69.5t5.5 81t2 85.5t0.5 94q0 57 -2.5 206.5t-2.5 241.5q0 102 13 184z" />
    <glyph glyph-name="ubreve" unicode="&#x16d;" 
d="M502 1334q79 0 127 40t53 101l219 -30q-19 -137 -118.5 -215.5t-274.5 -78.5q-174 0 -272 69.5t-133 233.5l219 30q35 -150 180 -150zM893 -17q-92 42 -127 125q-54 -55 -137.5 -79.5t-202.5 -26.5h-9q-48 0 -93.5 6.5t-91 23t-78.5 41.5t-54 65t-21 91q0 39 0.5 132
t0.5 143q0 422 -22 488l254 28q6 -27 10 -71.5t5.5 -121t1.5 -140t0.5 -187t0.5 -202.5q9 -53 32 -72.5t84 -19.5q112 5 166.5 59.5t54.5 152.5v595h251v-707q1 -37 39 -80t79 -60z" />
    <glyph glyph-name="Uring" unicode="&#x16e;" 
d="M507 1601q-38 0 -62 -18.5t-24 -43.5t24.5 -44t61.5 -19t61.5 19t24.5 44t-24 43.5t-62 18.5zM232 1539q0 86 81.5 145t194.5 59q112 0 193.5 -59t81.5 -145t-77.5 -140.5t-197.5 -54.5q-116 0 -196 55.5t-80 139.5zM701 1350l253 -28q-8 -57 -8 -127v-29
q0 -78 1.5 -208.5t1.5 -182.5v-59q0 -110 -3 -178.5t-13.5 -154.5t-35.5 -150.5t-65 -111.5q-103 -122 -340 -131q-114 0 -193.5 30t-127.5 92t-72 145t-31 199q-7 108 -7 339q0 293 9 534h258q-8 -336 -8 -586v-141q0 -110 6 -154q1 -4 4.5 -29t4.5 -33t6 -32t8.5 -33.5
t11 -29.5t15.5 -29.5t19.5 -23.5t25 -20.5t31 -11.5t38.5 -6q33 1 59.5 11t46.5 24t35.5 40t25.5 49.5t17 63.5t11 69.5t5.5 81t2 85.5t0.5 94q0 57 -2.5 206.5t-2.5 241.5q0 102 13 184z" />
    <glyph glyph-name="uring" unicode="&#x16f;" 
d="M501 1385q-38 0 -62 -18.5t-24 -43.5t24.5 -44t61.5 -19t61.5 19t24.5 44t-24 43.5t-62 18.5zM226 1323q0 86 81.5 145t194.5 59q112 0 193.5 -59t81.5 -145t-77.5 -140.5t-197.5 -54.5q-116 0 -196 55.5t-80 139.5zM893 -17q-92 42 -127 125q-54 -55 -137.5 -79.5
t-202.5 -26.5h-9q-48 0 -93.5 6.5t-91 23t-78.5 41.5t-54 65t-21 91q0 39 0.5 132t0.5 143q0 422 -22 488l254 28q6 -27 10 -71.5t5.5 -121t1.5 -140t0.5 -187t0.5 -202.5q9 -53 32 -72.5t84 -19.5q112 5 166.5 59.5t54.5 152.5v595h251v-707q1 -37 39 -80t79 -60z" />
    <glyph glyph-name="Uhungarumlaut" unicode="&#x170;" 
d="M553 1493q83 67 163 177.5t137 224.5l201 -127q-45 -100 -150 -219.5t-204 -198.5zM170 1500q83 67 163 177.5t137 224.5l200 -127q-45 -101 -149.5 -220t-203.5 -198zM701 1350l253 -28q-8 -57 -8 -127v-29q0 -78 1.5 -208.5t1.5 -182.5v-59q0 -110 -3 -178.5
t-13.5 -154.5t-35.5 -150.5t-65 -111.5q-103 -122 -340 -131q-114 0 -193.5 30t-127.5 92t-72 145t-31 199q-7 108 -7 339q0 293 9 534h258q-8 -336 -8 -586v-141q0 -110 6 -154q1 -4 4.5 -29t4.5 -33t6 -32t8.5 -33.5t11 -29.5t15.5 -29.5t19.5 -23.5t25 -20.5t31 -11.5
t38.5 -6q33 1 59.5 11t46.5 24t35.5 40t25.5 49.5t17 63.5t11 69.5t5.5 81t2 85.5t0.5 94q0 57 -2.5 206.5t-2.5 241.5q0 102 13 184z" />
    <glyph glyph-name="uhungarumlaut" unicode="&#x171;" 
d="M547 1273q83 67 163 177.5t137 224.5l201 -127q-45 -100 -150 -219.5t-204 -198.5zM164 1280q83 67 163 177.5t137 224.5l200 -127q-45 -101 -149.5 -220t-203.5 -198zM893 -17q-92 42 -127 125q-54 -55 -137.5 -79.5t-202.5 -26.5h-9q-48 0 -93.5 6.5t-91 23t-78.5 41.5
t-54 65t-21 91q0 39 0.5 132t0.5 143q0 422 -22 488l254 28q6 -27 10 -71.5t5.5 -121t1.5 -140t0.5 -187t0.5 -202.5q9 -53 32 -72.5t84 -19.5q112 5 166.5 59.5t54.5 152.5v595h251v-707q1 -37 39 -80t79 -60z" />
    <glyph glyph-name="Uogonek" unicode="&#x172;" 
d="M701 1350l253 -28q-8 -57 -8 -127v-29q0 -78 1.5 -208.5t1.5 -182.5v-59q0 -110 -3 -178.5t-13.5 -154.5t-35.5 -150.5t-65 -111.5q-44 -52 -108.5 -110.5t-107 -94t-74.5 -80t-32 -86.5q0 -57 120 -57q58 0 128 51l124 -141q-36 -39 -113.5 -72.5t-148.5 -33.5
q-73 0 -134 12t-113.5 39t-82.5 76t-30 117q0 77 35 128t118 125q-177 20 -254.5 134t-90.5 328q-7 108 -7 339q0 293 9 534h258q-8 -336 -8 -586v-141q0 -110 6 -154q1 -4 4.5 -29t4.5 -33t6 -32t8.5 -33.5t11 -29.5t15.5 -29.5t19.5 -23.5t25 -20.5t31 -11.5t38.5 -6
q33 1 59.5 11t46.5 24t35.5 40t25.5 49.5t17 63.5t11 69.5t5.5 81t2 85.5t0.5 94q0 57 -2.5 206.5t-2.5 241.5q0 102 13 184z" />
    <glyph glyph-name="uogonek" unicode="&#x173;" 
d="M754 108q-98 -101 -357 -106h-9q-48 0 -93.5 6.5t-91 23t-78.5 41.5t-54 65t-21 91q0 39 0.5 132t0.5 143q0 422 -22 488l248 28q6 -27 10 -71.5t5.5 -121t1.5 -140t0.5 -187t0.5 -202.5q9 -53 32 -72.5t84 -19.5q114 5 176 60.5t62 151.5l1 603h257l-1 -715
q1 -37 39 -80t79 -60q-60 -88 -128.5 -155.5t-120 -101.5t-96 -60t-68 -48.5t-23.5 -50.5q0 -57 120 -57q58 0 128 51l124 -141q-36 -39 -113.5 -72.5t-148.5 -33.5q-73 0 -134 12t-113.5 39t-82.5 76t-30 117q0 56 29 96t77 67.5t101 52.5t112 64t97 87z" />
    <glyph glyph-name="Wcircumflex" unicode="&#x174;" 
d="M519 1794l378 -291l-138 -156l-240 201l-229 -197l-140 146zM395 0h-241q-22 90 -71 640t-71 672l236 29q22 -163 31 -355q5 -116 9.5 -368t9.5 -302q119 600 125 672q9 0 38.5 -1.5t47.5 -1.5q73 0 110 19q13 -97 43 -268t54 -294l23 -123q9 75 14.5 307t12.5 336
q1 10 2.5 59t4 86.5t10.5 103.5t21 132l224 -38q-29 -142 -88 -687.5t-72 -617.5h-246q-70 397 -102 585q-114 -559 -125 -585z" />
    <glyph glyph-name="wcircumflex" unicode="&#x175;" 
d="M536 1579l378 -291l-138 -156l-240 201l-229 -197l-140 146zM17 984l249 72q25 -74 40 -146t20.5 -157.5t6.5 -126t2 -138.5v-31q0 -66 -9.5 -144t-18.5 -104q61 0 98.5 80.5t37.5 173.5v372l210 1q5 -78 5 -243q0 -159 -7 -379h5q115 0 115 399q0 247 -14 400h246
q2 -32 2 -97v-87q0 -356 -42 -550q-28 -128 -126 -203.5t-257 -75.5h-34q-18 66 -24 153q-31 -66 -112 -115.5t-215 -49.5h-6q-40 1 -66 12q-3 21 -5 171.5t-14.5 337.5t-40.5 326q-21 105 -46 149z" />
    <glyph glyph-name="Ycircumflex" unicode="&#x176;" 
d="M498 1796l378 -291l-138 -156l-240 201l-229 -197l-140 146zM368 0v138q0 42 3.5 226.5t3.5 248.5q-60 86 -191.5 307.5t-169.5 301.5l219 141q174 -344 278 -511q23 34 50.5 83.5t50 94.5t49 105t42 96t37 86.5t24.5 58.5l228 -136q-39 -80 -178.5 -324t-188.5 -314
q0 -23 -1 -73.5t-1 -78.5q-5 -225 -5 -322v-128h-250z" />
    <glyph glyph-name="ycircumflex" unicode="&#x177;" 
d="M493 1579l378 -291l-138 -156l-240 201l-229 -197l-140 146zM352 -164q39 0 105 82t81 152q-134 301 -214 449t-125 190t-98 42q-34 0 -44 -1l-1 261q42 2 76 2q33 0 60 -5.5t52 -14.5t50 -31.5t47 -45.5t50 -68.5t52.5 -88t61.5 -117t69 -142t83 -175.5q37 210 48 341.5
t11 346.5h256q0 -136 -15 -266q-29 -249 -114.5 -521.5t-180.5 -399.5q-89 -119 -163 -160.5t-187 -41.5q-76 0 -131 33.5t-83.5 91t-41 118.5t-14.5 133h236q0 -164 74 -164z" />
    <glyph glyph-name="Ydieresis" unicode="&#x178;" 
d="M583 1638l282 -3v-238l-282 1v240zM163 1638h279v-240h-279v240zM368 0v138q0 42 3.5 226.5t3.5 248.5q-60 86 -191.5 307.5t-169.5 301.5l219 141q174 -344 278 -511q23 34 50.5 83.5t50 94.5t49 105t42 96t37 86.5t24.5 58.5l228 -136q-39 -80 -178.5 -324t-188.5 -314
q0 -23 -1 -73.5t-1 -78.5q-5 -225 -5 -322v-128h-250z" />
    <glyph glyph-name="Zacute" unicode="&#x179;" 
d="M215 1509q105 35 224 110t208 158l134 -172q-78 -78 -217.5 -154.5t-258.5 -115.5zM123 0l-95 136l644 983q-120 0 -329 -2.5t-254 -2.5l-1 210q52 0 340 2t390 2q26 0 51 -2t39.5 -4.5t30.5 -6t19 -3.5v-7q0 -20 8 -91.5t8 -87.5v-8l-578 -901l354 -1q62 0 94.5 5
t82.5 21l71 -215q-76 -27 -189 -27h-679h-7z" />
    <glyph glyph-name="zacute" unicode="&#x17a;" 
d="M234 1294q105 35 224 110t208 158l134 -172q-78 -78 -217.5 -154.5t-258.5 -115.5zM93 815l31 202q55 -6 281 -6q297 0 472 5l77 -190l-64 -58q-63 -58 -131.5 -125.5t-147.5 -150.5t-136.5 -163t-72.5 -132l400 6h6q63 0 162 -32l-44 -193q-7 2 -23.5 7t-22.5 6.5
t-19.5 4t-27.5 3.5t-33 1h-729v20q0 109 22 169q55 149 196.5 313.5t310.5 303.5q-23 0 -56.5 -1t-67 -1.5t-78.5 -0.5q-229 0 -305 12z" />
    <glyph glyph-name="Zdotaccent" unicode="&#x17b;" 
d="M367 1645h284l2 -246h-285zM123 0l-95 136l644 983q-120 0 -329 -2.5t-254 -2.5l-1 210q52 0 340 2t390 2q26 0 51 -2t39.5 -4.5t30.5 -6t19 -3.5v-7q0 -20 8 -91.5t8 -87.5v-8l-578 -901l354 -1q62 0 94.5 5t82.5 21l71 -215q-76 -27 -189 -27h-679h-7z" />
    <glyph glyph-name="zdotaccent" unicode="&#x17c;" 
d="M386 1430h284l2 -246h-285zM93 815l31 202q55 -6 281 -6q297 0 472 5l77 -190l-64 -58q-63 -58 -131.5 -125.5t-147.5 -150.5t-136.5 -163t-72.5 -132l400 6h6q63 0 162 -32l-44 -193q-7 2 -23.5 7t-22.5 6.5t-19.5 4t-27.5 3.5t-33 1h-729v20q0 109 22 169
q55 149 196.5 313.5t310.5 303.5q-23 0 -56.5 -1t-67 -1.5t-78.5 -0.5q-229 0 -305 12z" />
    <glyph glyph-name="Zcaron" unicode="&#x17d;" 
d="M518 1359l-366 297l144 138l222 -189l240 201l138 -156zM123 0l-95 136l644 983q-120 0 -329 -2.5t-254 -2.5l-1 210q52 0 340 2t390 2q26 0 51 -2t39.5 -4.5t30.5 -6t19 -3.5v-7q0 -20 8 -91.5t8 -87.5v-8l-578 -901l354 -1q62 0 94.5 5t82.5 21l71 -215
q-76 -27 -189 -27h-679h-7z" />
    <glyph glyph-name="zcaron" unicode="&#x17e;" 
d="M537 1144l-366 297l144 138l222 -189l240 201l138 -156zM93 815l31 202q55 -6 281 -6q297 0 472 5l77 -190l-64 -58q-63 -58 -131.5 -125.5t-147.5 -150.5t-136.5 -163t-72.5 -132l400 6h6q63 0 162 -32l-44 -193q-7 2 -23.5 7t-22.5 6.5t-19.5 4t-27.5 3.5t-33 1h-729
v20q0 109 22 169q55 149 196.5 313.5t310.5 303.5q-23 0 -56.5 -1t-67 -1.5t-78.5 -0.5q-229 0 -305 12z" />
    <glyph glyph-name="longs" unicode="&#x17f;" 
d="M848 1206q-33 11 -125 11q-47 0 -77.5 -11.5t-44 -33.5t-17.5 -42t-4 -47l1 -71v-1012h-257v807h-193v205h193v52q0 44 9 87.5t35 93t66.5 86.5t111 62t160.5 25q121 0 188 -14z" />
    <glyph glyph-name="uni0180" unicode="&#x180;" 
d="M750 478q0 184 -44 259.5t-121 75.5q-48 0 -91.5 -39t-74.5 -91v-334q39 -79 88.5 -127.5t94.5 -48.5q148 0 148 305zM1005 459q0 -466 -369 -466q-87 0 -148.5 28t-92.5 72q0 -19 -11 -45.5t-22 -43.5l-11 -17l-196 20q19 125 19 236v24q0 114 -0.5 410.5t-0.5 438.5
h-173v204h166q-2 37 -8 83l247 9q6 -52 8 -92h219v-204h-213q-3 -99 -24 -186q110 83 225 83q201 0 293 -135.5t92 -418.5z" />
    <glyph glyph-name="uni0190" unicode="&#x190;" 
d="M990 158q-31 -23 -52 -37.5t-69 -40t-93.5 -41t-114 -27.5t-141.5 -12q-133 0 -213.5 25t-143.5 81q-127 115 -127 284q0 134 61.5 223.5t174.5 116.5q-82 26 -132 99t-50 156q0 146 123.5 229t341.5 83h13q82 0 149 -9t120.5 -29t77 -31t66.5 -35l-111 -171
q-147 86 -313 86q-92 0 -153 -34t-61 -89q0 -40 25 -70.5t65 -47t83.5 -24.5t88.5 -8h5h18v-206q-13 0 -39 0.5t-39 0.5q-140 0 -199.5 -59t-59.5 -183q0 -94 51.5 -147.5t178.5 -53.5q204 0 348 130z" />
    <glyph glyph-name="uni0191" unicode="&#x191;" 
d="M405 78q-2 -61 -12.5 -111.5t-38 -102.5t-70.5 -87t-116 -57.5t-169 -22.5v264q77 0 105.5 26.5t34.5 97.5v1239h685q113 0 181 -34l-78 -203q-18 10 -28.5 14t-41 9t-76.5 5h-71q-127 0 -310 -1v-258q60 0 101.5 1t102.5 1q117 0 197 -36l-68 -202q-48 22 -132 22h-85
q-51 0 -116 -2q0 -55 2.5 -275t2.5 -287z" />
    <glyph glyph-name="florin" unicode="&#x192;" 
d="M545 126q-1 -76 -17.5 -143t-51.5 -127t-86 -103t-127 -68t-169 -25l2 244q105 0 147 53t45 181v669h-142v205h142v52q0 44 9 87.5t35 93t66.5 86.5t111 62t160.5 25q146 0 220.5 -44t133.5 -161l-212 -97q-19 59 -47 80t-77 21q-38 0 -65.5 -8.5t-42.5 -21t-23.5 -32
t-10.5 -35.5t-2 -37l2 -71h184q106 0 176 -21l-44 -197q-39 13 -98 13h-220z" />
    <glyph glyph-name="uni01A4" unicode="&#x1a4;" 
d="M746 900q0 66 -12.5 108.5t-38.5 63t-54 27t-70 6.5v-85l-1 -365q49 0 79 8.5t53.5 34t33.5 74.5t10 128zM569 -1l-244 1v1102q-49 -4 -67.5 -39t-18.5 -136h-224q0 105 18 175t57.5 110t87 58.5t122.5 30.5q86 13 236 13q233 0 348.5 -100.5t115.5 -307.5
q0 -466 -324 -466q-46 0 -106 3q0 -145 -0.5 -262t-0.5 -182z" />
    <glyph glyph-name="uni01CD" unicode="&#x1cd;" 
d="M515 1359l-366 297l144 138l222 -189l240 201l138 -156zM651 504q-8 47 -66.5 226.5t-59.5 267.5q-3 -75 -27 -167t-61.5 -198t-48.5 -147q27 6 71 9t106 5.5t86 3.5zM418 1325h224l334 -1081q50 -169 50 -244h-276q0 79 -25 167l-32 114q-23 0 -69.5 -1t-65.5 -1.5
t-54 -2t-57 -4.5t-52 -8t-59 -12l-30 -90q-36 -111 -40 -162h-260q5 71 54 223z" />
    <glyph glyph-name="uni01CE" unicode="&#x1ce;" 
d="M495 1144l-366 297l144 138l222 -189l240 201l138 -156zM318 317q0 -68 38.5 -98t94.5 -30q74 0 133.5 53t76.5 105v47q-28 32 -74.5 54t-93.5 22q-61 0 -118 -39.5t-57 -113.5zM917 316q0 -70 17 -113t59 -76l-125 -149q-12 9 -35 25t-34 25t-27.5 28.5t-31.5 44.5
q-59 -61 -133.5 -86.5t-206.5 -25.5q-133 0 -238.5 90.5t-105.5 222.5q0 146 89 238q69 70 153 100t195 30q99 0 168 -47q0 58 -18.5 100t-48 61.5t-56 27.5t-53.5 8q-178 0 -283 -111l-122 208q65 41 109.5 63t98.5 32.5t86.5 12.5t118.5 3q114 0 209.5 -42.5t155 -129
t59.5 -201.5v-339z" />
    <glyph glyph-name="uni01CF" unicode="&#x1cf;" 
d="M493 1359l-366 297l144 138l222 -189l240 201l138 -156zM132 1324q195 5 353 5q123 0 368 -3l-1 -211q-65 0 -125.5 2.5t-104.5 2.5v-901q22 0 39 0.5t43 0.5q75 0 144 -4l1 -217q-102 6 -210 6q-22 0 -73 -0.5t-82 -0.5q-27 0 -144.5 -3.5t-205.5 -3.5v216q106 5 180 5
h52v901q-142 -2 -228 -7z" />
    <glyph glyph-name="uni01D0" unicode="&#x1d0;" 
d="M489 1144l-366 297l144 138l222 -189l240 201l138 -156zM354 1013h255l1 -739q0 -51 21.5 -71.5t87.5 -20.5q67 0 116 22.5t97 68.5l97 -190q-61 -50 -160.5 -75.5t-200.5 -25.5q-151 0 -221 38q-93 51 -93 186v607q-113 0 -234 -28l-29 186q141 42 263 42z" />
    <glyph glyph-name="uni01D1" unicode="&#x1d1;" 
d="M517 1359l-366 297l144 138l222 -189l240 201l138 -156zM522 1350q39 0 76 -5.5t84 -24t86.5 -48.5t79 -84t67 -125.5t45.5 -178.5t19 -237v-11q0 -124 -21.5 -235.5t-57.5 -183.5q-56 -109 -160.5 -171t-229.5 -62q-101 0 -198 35.5t-154 107.5q-122 152 -122 452
q0 243 35 383.5t95 224.5q51 71 146.5 116t209.5 47zM351 277q34 -54 67.5 -72t91.5 -18q103 0 159 139q19 42 33.5 139t15.5 175v17q0 232 -45 352q-52 138 -152 138q-49 0 -81 -21.5t-62 -74.5q-81 -143 -81 -459q0 -88 13 -179.5t41 -135.5z" />
    <glyph glyph-name="uni01D2" unicode="&#x1d2;" 
d="M512 1144l-366 297l144 138l222 -189l240 201l138 -156zM625 247q60 66 60 283v16q-2 132 -39 208t-126 76q-107 0 -151.5 -90t-44.5 -258q0 -128 48 -206.5t136 -78.5q40 1 64.5 11.5t52.5 38.5zM507 -6q-223 0 -329 124.5t-106 345.5q0 568 433 568q144 0 233.5 -49.5
t143.5 -151.5q59 -114 59 -288q0 -74 -9 -140t-28 -129t-53 -113t-80.5 -88t-113 -58.5t-148.5 -20.5h-2z" />
    <glyph glyph-name="uni01D3" unicode="&#x1d3;" 
d="M504 1360l-366 297l144 138l222 -189l240 201l138 -156zM701 1350l253 -28q-8 -57 -8 -127v-29q0 -78 1.5 -208.5t1.5 -182.5v-59q0 -110 -3 -178.5t-13.5 -154.5t-35.5 -150.5t-65 -111.5q-103 -122 -340 -131q-114 0 -193.5 30t-127.5 92t-72 145t-31 199
q-7 108 -7 339q0 293 9 534h258q-8 -336 -8 -586v-141q0 -110 6 -154q1 -4 4.5 -29t4.5 -33t6 -32t8.5 -33.5t11 -29.5t15.5 -29.5t19.5 -23.5t25 -20.5t31 -11.5t38.5 -6q33 1 59.5 11t46.5 24t35.5 40t25.5 49.5t17 63.5t11 69.5t5.5 81t2 85.5t0.5 94q0 57 -2.5 206.5
t-2.5 241.5q0 102 13 184z" />
    <glyph glyph-name="uni01D4" unicode="&#x1d4;" 
d="M498 1144l-366 297l144 138l222 -189l240 201l138 -156zM893 -17q-92 42 -127 125q-54 -55 -137.5 -79.5t-202.5 -26.5h-9q-48 0 -93.5 6.5t-91 23t-78.5 41.5t-54 65t-21 91q0 39 0.5 132t0.5 143q0 422 -22 488l254 28q6 -27 10 -71.5t5.5 -121t1.5 -140t0.5 -187
t0.5 -202.5q9 -53 32 -72.5t84 -19.5q112 5 166.5 59.5t54.5 152.5v595h251v-707q1 -37 39 -80t79 -60z" />
    <glyph glyph-name="uni01D5" unicode="&#x1d5;" 
d="M775 1902v-194h-17q-203 -7 -230 -7q-133 0 -235 3l-18 1v197l19 -2q97 -3 272 -3q33 0 102 2.5t90 2.5h17zM585 1639l282 -3v-238l-282 1v240zM165 1639h279v-240h-279v240zM701 1350l253 -28q-8 -57 -8 -127v-29q0 -78 1.5 -208.5t1.5 -182.5v-59q0 -110 -3 -178.5
t-13.5 -154.5t-35.5 -150.5t-65 -111.5q-103 -122 -340 -131q-114 0 -193.5 30t-127.5 92t-72 145t-31 199q-7 108 -7 339q0 293 9 534h258q-8 -336 -8 -586v-141q0 -110 6 -154q1 -4 4.5 -29t4.5 -33t6 -32t8.5 -33.5t11 -29.5t15.5 -29.5t19.5 -23.5t25 -20.5t31 -11.5
t38.5 -6q33 1 59.5 11t46.5 24t35.5 40t25.5 49.5t17 63.5t11 69.5t5.5 81t2 85.5t0.5 94q0 57 -2.5 206.5t-2.5 241.5q0 102 13 184z" />
    <glyph glyph-name="uni01D6" unicode="&#x1d6;" 
d="M771 1708v-194h-17q-203 -7 -230 -7q-133 0 -235 3l-18 1v197l19 -2q97 -3 272 -3q33 0 102 2.5t90 2.5h17zM579 1423l282 -3v-238l-282 1v240zM159 1423h279v-240h-279v240zM893 -17q-92 42 -127 125q-54 -55 -137.5 -79.5t-202.5 -26.5h-9q-48 0 -93.5 6.5t-91 23
t-78.5 41.5t-54 65t-21 91q0 39 0.5 132t0.5 143q0 422 -22 488l254 28q6 -27 10 -71.5t5.5 -121t1.5 -140t0.5 -187t0.5 -202.5q9 -53 32 -72.5t84 -19.5q112 5 166.5 59.5t54.5 152.5v595h251v-707q1 -37 39 -80t79 -60z" />
    <glyph glyph-name="uni01D7" unicode="&#x1d7;" 
d="M216 1826q105 35 224 110t208 158l134 -172q-78 -78 -217.5 -154.5t-258.5 -115.5zM585 1639l282 -3v-238l-282 1v240zM165 1639h279v-240h-279v240zM701 1350l253 -28q-8 -57 -8 -127v-29q0 -78 1.5 -208.5t1.5 -182.5v-59q0 -110 -3 -178.5t-13.5 -154.5t-35.5 -150.5
t-65 -111.5q-103 -122 -340 -131q-114 0 -193.5 30t-127.5 92t-72 145t-31 199q-7 108 -7 339q0 293 9 534h258q-8 -336 -8 -586v-141q0 -110 6 -154q1 -4 4.5 -29t4.5 -33t6 -32t8.5 -33.5t11 -29.5t15.5 -29.5t19.5 -23.5t25 -20.5t31 -11.5t38.5 -6q33 1 59.5 11t46.5 24
t35.5 40t25.5 49.5t17 63.5t11 69.5t5.5 81t2 85.5t0.5 94q0 57 -2.5 206.5t-2.5 241.5q0 102 13 184z" />
    <glyph glyph-name="uni01D8" unicode="&#x1d8;" 
d="M196 1602q105 35 224 110t208 158l134 -172q-78 -78 -217.5 -154.5t-258.5 -115.5zM579 1423l282 -3v-238l-282 1v240zM159 1423h279v-240h-279v240zM893 -17q-92 42 -127 125q-54 -55 -137.5 -79.5t-202.5 -26.5h-9q-48 0 -93.5 6.5t-91 23t-78.5 41.5t-54 65t-21 91
q0 39 0.5 132t0.5 143q0 422 -22 488l254 28q6 -27 10 -71.5t5.5 -121t1.5 -140t0.5 -187t0.5 -202.5q9 -53 32 -72.5t84 -19.5q112 5 166.5 59.5t54.5 152.5v595h251v-707q1 -37 39 -80t79 -60z" />
    <glyph glyph-name="uni01D9" unicode="&#x1d9;" 
d="M515 1641l-366 297l144 138l222 -189l240 201l138 -156zM585 1639l282 -3v-238l-282 1v240zM165 1639h279v-240h-279v240zM701 1350l253 -28q-8 -57 -8 -127v-29q0 -78 1.5 -208.5t1.5 -182.5v-59q0 -110 -3 -178.5t-13.5 -154.5t-35.5 -150.5t-65 -111.5
q-103 -122 -340 -131q-114 0 -193.5 30t-127.5 92t-72 145t-31 199q-7 108 -7 339q0 293 9 534h258q-8 -336 -8 -586v-141q0 -110 6 -154q1 -4 4.5 -29t4.5 -33t6 -32t8.5 -33.5t11 -29.5t15.5 -29.5t19.5 -23.5t25 -20.5t31 -11.5t38.5 -6q33 1 59.5 11t46.5 24t35.5 40
t25.5 49.5t17 63.5t11 69.5t5.5 81t2 85.5t0.5 94q0 57 -2.5 206.5t-2.5 241.5q0 102 13 184z" />
    <glyph glyph-name="uni01DA" unicode="&#x1da;" 
d="M511 1447l-366 297l144 138l222 -189l240 201l138 -156zM579 1423l282 -3v-238l-282 1v240zM159 1423h279v-240h-279v240zM893 -17q-92 42 -127 125q-54 -55 -137.5 -79.5t-202.5 -26.5h-9q-48 0 -93.5 6.5t-91 23t-78.5 41.5t-54 65t-21 91q0 39 0.5 132t0.5 143
q0 422 -22 488l254 28q6 -27 10 -71.5t5.5 -121t1.5 -140t0.5 -187t0.5 -202.5q9 -53 32 -72.5t84 -19.5q112 5 166.5 59.5t54.5 152.5v595h251v-707q1 -37 39 -80t79 -60z" />
    <glyph glyph-name="uni01DB" unicode="&#x1db;" 
d="M802 1820l-90 -174q-119 39 -258.5 115.5t-217.5 154.5l134 172q89 -83 208 -158t224 -110zM585 1639l282 -3v-238l-282 1v240zM165 1639h279v-240h-279v240zM701 1350l253 -28q-8 -57 -8 -127v-29q0 -78 1.5 -208.5t1.5 -182.5v-59q0 -110 -3 -178.5t-13.5 -154.5
t-35.5 -150.5t-65 -111.5q-103 -122 -340 -131q-114 0 -193.5 30t-127.5 92t-72 145t-31 199q-7 108 -7 339q0 293 9 534h258q-8 -336 -8 -586v-141q0 -110 6 -154q1 -4 4.5 -29t4.5 -33t6 -32t8.5 -33.5t11 -29.5t15.5 -29.5t19.5 -23.5t25 -20.5t31 -11.5t38.5 -6
q33 1 59.5 11t46.5 24t35.5 40t25.5 49.5t17 63.5t11 69.5t5.5 81t2 85.5t0.5 94q0 57 -2.5 206.5t-2.5 241.5q0 102 13 184z" />
    <glyph glyph-name="uni01DC" unicode="&#x1dc;" 
d="M800 1602l-90 -174q-119 39 -258.5 115.5t-217.5 154.5l134 172q89 -83 208 -158t224 -110zM579 1423l282 -3v-238l-282 1v240zM159 1423h279v-240h-279v240zM893 -17q-92 42 -127 125q-54 -55 -137.5 -79.5t-202.5 -26.5h-9q-48 0 -93.5 6.5t-91 23t-78.5 41.5t-54 65
t-21 91q0 39 0.5 132t0.5 143q0 422 -22 488l254 28q6 -27 10 -71.5t5.5 -121t1.5 -140t0.5 -187t0.5 -202.5q9 -53 32 -72.5t84 -19.5q112 5 166.5 59.5t54.5 152.5v595h251v-707q1 -37 39 -80t79 -60z" />
    <glyph glyph-name="uni01DE" unicode="&#x1de;" 
d="M775 1902v-194h-17q-203 -7 -230 -7q-133 0 -235 3l-18 1v197l19 -2q97 -3 272 -3q33 0 102 2.5t90 2.5h17zM596 1638l282 -3v-238l-282 1v240zM176 1638h279v-240h-279v240zM651 504q-8 47 -66.5 226.5t-59.5 267.5q-3 -75 -27 -167t-61.5 -198t-48.5 -147q27 6 71 9
t106 5.5t86 3.5zM418 1325h224l334 -1081q50 -169 50 -244h-276q0 79 -25 167l-32 114q-23 0 -69.5 -1t-65.5 -1.5t-54 -2t-57 -4.5t-52 -8t-59 -12l-30 -90q-36 -111 -40 -162h-260q5 71 54 223z" />
    <glyph glyph-name="uni01DF" unicode="&#x1df;" 
d="M768 1708v-194h-17q-203 -7 -230 -7q-133 0 -235 3l-18 1v197l19 -2q97 -3 272 -3q33 0 102 2.5t90 2.5h17zM576 1423l282 -3v-238l-282 1v240zM156 1423h279v-240h-279v240zM318 317q0 -68 38.5 -98t94.5 -30q74 0 133.5 53t76.5 105v47q-28 32 -74.5 54t-93.5 22
q-61 0 -118 -39.5t-57 -113.5zM917 316q0 -70 17 -113t59 -76l-125 -149q-12 9 -35 25t-34 25t-27.5 28.5t-31.5 44.5q-59 -61 -133.5 -86.5t-206.5 -25.5q-133 0 -238.5 90.5t-105.5 222.5q0 146 89 238q69 70 153 100t195 30q99 0 168 -47q0 58 -18.5 100t-48 61.5
t-56 27.5t-53.5 8q-178 0 -283 -111l-122 208q65 41 109.5 63t98.5 32.5t86.5 12.5t118.5 3q114 0 209.5 -42.5t155 -129t59.5 -201.5v-339z" />
    <glyph glyph-name="uni01E0" unicode="&#x1e0;" 
d="M775 1902v-194h-17q-203 -7 -230 -7q-133 0 -235 3l-18 1v197l19 -2q97 -3 272 -3q33 0 102 2.5t90 2.5h17zM364 1645h284l2 -246h-285zM651 504q-8 47 -66.5 226.5t-59.5 267.5q-3 -75 -27 -167t-61.5 -198t-48.5 -147q27 6 71 9t106 5.5t86 3.5zM418 1325h224
l334 -1081q50 -169 50 -244h-276q0 79 -25 167l-32 114q-23 0 -69.5 -1t-65.5 -1.5t-54 -2t-57 -4.5t-52 -8t-59 -12l-30 -90q-36 -111 -40 -162h-260q5 71 54 223z" />
    <glyph glyph-name="uni01E1" unicode="&#x1e1;" 
d="M749 1708v-194h-17q-203 -7 -230 -7q-133 0 -235 3l-18 1v197l19 -2q97 -3 272 -3q33 0 102 2.5t90 2.5h17zM344 1430h284l2 -246h-285zM318 317q0 -68 38.5 -98t94.5 -30q74 0 133.5 53t76.5 105v47q-28 32 -74.5 54t-93.5 22q-61 0 -118 -39.5t-57 -113.5zM917 316
q0 -70 17 -113t59 -76l-125 -149q-12 9 -35 25t-34 25t-27.5 28.5t-31.5 44.5q-59 -61 -133.5 -86.5t-206.5 -25.5q-133 0 -238.5 90.5t-105.5 222.5q0 146 89 238q69 70 153 100t195 30q99 0 168 -47q0 58 -18.5 100t-48 61.5t-56 27.5t-53.5 8q-178 0 -283 -111l-122 208
q65 41 109.5 63t98.5 32.5t86.5 12.5t118.5 3q114 0 209.5 -42.5t155 -129t59.5 -201.5v-339z" />
    <glyph glyph-name="uni01E2" unicode="&#x1e2;" 
d="M864 1620v-194h-17q-203 -7 -230 -7q-133 0 -235 3l-18 1v197l19 -2q97 -3 272 -3q33 0 102 2.5t90 2.5h17zM1008 32q-70 -37 -187 -37h-342l-21 227q-27 3 -47 3q-101 0 -143 -10q-9 -38 -34 -215h-234q25 209 272 1323l145 -3q43 2 157 2h125h260v-206h-17
q-36 0 -82 -1t-112 -1h-142l24 -268q16 0 46 2t79 2h106v-208h-106q-47 0 -71 -2t-38 -2l48 -435h157q27 0 52 6.5t36 12.5l11 6zM441 434l-43 563q-67 -305 -106 -569q58 6 149 6z" />
    <glyph glyph-name="uni01E3" unicode="&#x1e3;" 
d="M777 1405v-194h-17q-203 -7 -230 -7q-133 0 -235 3l-18 1v197l19 -2q97 -3 272 -3q33 0 102 2.5t90 2.5h17zM648 675v-21q100 0 144 6q-5 79 -25.5 113.5t-64.5 34.5q-54 0 -54 -133zM256 322q0 -78 18 -119t48 -41q31 0 51 22.5t26.5 48.5t11.5 57t7 37v147
q-5 3 -16 9.5t-14.5 8.5t-11.5 6t-12.5 5t-12.5 2.5t-16.5 2t-20.5 0.5q-24 0 -41 -54.5t-17 -131.5zM722 0q-38 0 -70 6t-52 14t-38 20.5t-26 21t-18.5 21t-12.5 14.5q-82 -93 -193 -93q-107 0 -182 53q-107 75 -107 252q0 53 8 101t28 94.5t49.5 80.5t76.5 55t106 21
q27 0 47.5 -3t29.5 -6.5t26 -11.5t24 -11q0 35 -1.5 56.5t-7.5 47.5t-17 40.5t-32.5 24.5t-52.5 10h-9q-40 0 -59 -20.5t-41 -85.5l-198 82q49 130 125 182t175 52q51 0 86 -9t77 -41q27 -23 50 -59q71 109 178 109q96 0 166 -66t103.5 -165t37.5 -217v-116q-171 -7 -318 -7
h-32l-2 -173q14 -37 26.5 -51.5t39.5 -14.5q51 0 70 20.5t24 61.5l190 -72q-2 -9 -6.5 -23.5t-25.5 -52t-48.5 -66.5t-79 -52.5t-114.5 -23.5z" />
    <glyph glyph-name="Gcaron" unicode="&#x1e6;" 
d="M546 1359l-366 297l144 138l222 -189l240 201l138 -156zM861 772q57 0 131 7v-193q0 -130 -15 -226.5t-39 -157t-64.5 -102t-82 -61.5t-100.5 -36q-49 -11 -151 -11q-107 0 -194 33.5t-147 92.5t-100.5 141.5t-59.5 178t-19 203.5q0 386 184 569q131 118 329 118h20
q324 -8 437 -257l-234 -116q-28 92 -74 129t-142 37q-123 0 -191 -134.5t-68 -356.5q0 -205 62 -318.5t187 -113.5q50 0 86.5 20.5t57.5 53t33.5 83t16.5 99.5t4 114l-64 -1q-127 0 -230 -39l-40 203q112 43 301 43q28 0 83.5 -1t82.5 -1z" />
    <glyph glyph-name="gcaron" unicode="&#x1e7;" 
d="M498 1141l-366 297l144 138l222 -189l240 201l138 -156zM541 -184q55 0 124 50.5t69 117.5q0 35 -28.5 54.5t-107.5 19.5l-267 -1q-23 -30 -23 -130q0 -45 44.5 -78t98.5 -33h90zM645 726q0 41 -24 63t-55.5 27.5t-81.5 5.5q-71 0 -114 -26t-43 -79q0 -118 158 -118
q160 0 160 127zM870 819q21 -22 21 -103q0 -143 -93 -230t-291 -87h-3q-117 0 -147 13q-30 -35 -30 -79q0 -34 29 -59.5t100 -25.5h179q50 0 95.5 -6t93 -23t82 -44t56.5 -71.5t22 -102.5q0 -80 -36.5 -153.5t-93 -123t-125.5 -79t-134 -29.5h-155q-162 0 -261 76t-99 230
q0 144 87 221q-37 27 -62 82.5t-25 117.5q0 47 12.5 85.5t26 58.5t37.5 46q-3 4 -16 20t-16.5 21.5t-13 19t-13 22t-9 22t-7 27.5t-1.5 29q0 171 108.5 251.5t306.5 80.5q173 0 272 -61q37 34 85 47.5t135 13.5v-204q-30 5 -41 5q-44 0 -76 -8z" />
    <glyph glyph-name="uni01E8" unicode="&#x1e8;" 
d="M493 1359l-366 297l144 138l222 -189l240 201l138 -156zM588 782q90 -89 255 -337t203 -351l-236 -126q-43 103 -168.5 311t-213.5 295q-56 -62 -86 -134v-440h-258v1335h258v-464q101 142 464 505l196 -177q-190 -141 -414 -417z" />
    <glyph glyph-name="uni01E9" unicode="&#x1e9;" 
d="M255 1450l-366 297l144 138l222 -189l240 201l138 -156zM578 597q32 0 53.5 10t31 30t13 41t3.5 52q0 32 -18 57.5t-57 25.5q-32 0 -87.5 -32t-94.5 -64l-39 -32v-59q155 -29 195 -29zM383 0h-249v1228q0 82 -23 155l244 44q28 -72 28 -134v-223q0 -90 -30 -174
q5 5 13.5 13t36.5 29t57 37t71 29t82 13q154 0 237.5 -70t83.5 -213q0 -101 -35 -164t-136 -112q71 -25 103.5 -74t60.5 -142q13 -45 96 -105l-192 -164q-38 15 -67.5 37.5t-48.5 46t-36 60.5t-26 64t-22 74q-11 39 -39.5 68t-58 42.5t-65.5 21.5t-53 9.5t-30 1.5h-2v-398z
" />
    <glyph glyph-name="uni01EA" unicode="&#x1ea;" 
d="M522 1350q39 0 76 -5.5t84 -24t86.5 -48.5t79 -84t67 -125.5t45.5 -178.5t19 -237v-11q0 -124 -21.5 -235.5t-57.5 -183.5q-36 -77 -94.5 -145t-114 -112.5t-106.5 -82t-82 -70t-31 -60.5q0 -57 120 -57q58 0 128 51l124 -141q-36 -39 -113.5 -72.5t-148.5 -33.5
q-73 0 -134 12t-113.5 39t-82.5 76t-30 117q0 16 4 31t13 30t18 27.5t26 28t28.5 26t34.5 27t35.5 25t39 27t38.5 26.5q-90 8 -170.5 43.5t-130.5 97.5q-122 152 -122 452q0 243 35 383.5t95 224.5q51 71 146.5 116t209.5 47zM351 277q34 -54 67.5 -72t91.5 -18
q103 0 159 139q19 42 33.5 139t15.5 175v17q0 232 -45 352q-52 138 -152 138q-49 0 -81 -21.5t-62 -74.5q-81 -143 -81 -459q0 -88 13 -179.5t41 -135.5z" />
    <glyph glyph-name="uni01EB" unicode="&#x1eb;" 
d="M815 114q-65 -73 -143 -135.5t-127 -93.5t-83 -66t-34 -70q0 -57 120 -57q58 0 128 51l124 -141q-36 -39 -113.5 -72.5t-148.5 -33.5q-73 0 -134 12t-113.5 39t-82.5 76t-30 117q0 31 9.5 58t22 45.5t39 40.5t46.5 35.5t58.5 38.5t62.5 42q-176 25 -260 146t-84 318
q0 568 433 568q144 0 233.5 -49.5t143.5 -151.5q59 -114 59 -288q0 -288 -126 -429zM625 247q60 66 60 283v16q-2 132 -39 208t-126 76q-107 0 -151.5 -90t-44.5 -258q0 -128 48 -206.5t136 -78.5q40 1 64.5 11.5t52.5 38.5z" />
    <glyph glyph-name="uni01EC" unicode="&#x1ec;" 
d="M772 1673v-194h-17q-203 -7 -230 -7q-133 0 -235 3l-18 1v197l19 -2q97 -3 272 -3q33 0 102 2.5t90 2.5h17zM522 1350q39 0 76 -5.5t84 -24t86.5 -48.5t79 -84t67 -125.5t45.5 -178.5t19 -237v-11q0 -124 -21.5 -235.5t-57.5 -183.5q-36 -77 -94.5 -145t-114 -112.5
t-106.5 -82t-82 -70t-31 -60.5q0 -57 120 -57q58 0 128 51l124 -141q-36 -39 -113.5 -72.5t-148.5 -33.5q-73 0 -134 12t-113.5 39t-82.5 76t-30 117q0 16 4 31t13 30t18 27.5t26 28t28.5 26t34.5 27t35.5 25t39 27t38.5 26.5q-90 8 -170.5 43.5t-130.5 97.5
q-122 152 -122 452q0 243 35 383.5t95 224.5q51 71 146.5 116t209.5 47zM351 277q34 -54 67.5 -72t91.5 -18q103 0 159 139q19 42 33.5 139t15.5 175v17q0 232 -45 352q-52 138 -152 138q-49 0 -81 -21.5t-62 -74.5q-81 -143 -81 -459q0 -88 13 -179.5t41 -135.5z" />
    <glyph glyph-name="uni01ED" unicode="&#x1ed;" 
d="M755 1355v-194h-17q-203 -7 -230 -7q-133 0 -235 3l-18 1v197l19 -2q97 -3 272 -3q33 0 102 2.5t90 2.5h17zM815 114q-65 -73 -143 -135.5t-127 -93.5t-83 -66t-34 -70q0 -57 120 -57q58 0 128 51l124 -141q-36 -39 -113.5 -72.5t-148.5 -33.5q-73 0 -134 12t-113.5 39
t-82.5 76t-30 117q0 31 9.5 58t22 45.5t39 40.5t46.5 35.5t58.5 38.5t62.5 42q-176 25 -260 146t-84 318q0 568 433 568q144 0 233.5 -49.5t143.5 -151.5q59 -114 59 -288q0 -288 -126 -429zM625 247q60 66 60 283v16q-2 132 -39 208t-126 76q-107 0 -151.5 -90t-44.5 -258
q0 -128 48 -206.5t136 -78.5q40 1 64.5 11.5t52.5 38.5z" />
    <glyph glyph-name="uni01F0" unicode="&#x1f0;" 
d="M702 1140l-366 297l144 138l222 -189l240 201l138 -156zM842 -78q0 -62 -18 -114t-57.5 -98t-114 -72.5t-177.5 -26.5q-53 0 -99 8t-101 31t-107.5 72t-97.5 122l164 148q60 -101 112.5 -140.5t105.5 -39.5h18q32 0 55 10t34.5 25t18 33.5t8 34.5t2.5 29v8v861
q-114 0 -235 -28l-29 186q141 42 264 42h254v-1091z" />
    <glyph glyph-name="uni01F4" unicode="&#x1f4;" 
d="M243 1499q105 35 224 110t208 158l134 -172q-78 -78 -217.5 -154.5t-258.5 -115.5zM861 772q57 0 131 7v-193q0 -130 -15 -226.5t-39 -157t-64.5 -102t-82 -61.5t-100.5 -36q-49 -11 -151 -11q-107 0 -194 33.5t-147 92.5t-100.5 141.5t-59.5 178t-19 203.5
q0 386 184 569q131 118 329 118h20q324 -8 437 -257l-234 -116q-28 92 -74 129t-142 37q-123 0 -191 -134.5t-68 -356.5q0 -205 62 -318.5t187 -113.5q50 0 86.5 20.5t57.5 53t33.5 83t16.5 99.5t4 114l-64 -1q-127 0 -230 -39l-40 203q112 43 301 43q28 0 83.5 -1t82.5 -1z
" />
    <glyph glyph-name="uni01F5" unicode="&#x1f5;" 
d="M195 1281q105 35 224 110t208 158l134 -172q-78 -78 -217.5 -154.5t-258.5 -115.5zM541 -184q55 0 124 50.5t69 117.5q0 35 -28.5 54.5t-107.5 19.5l-267 -1q-23 -30 -23 -130q0 -45 44.5 -78t98.5 -33h90zM645 726q0 41 -24 63t-55.5 27.5t-81.5 5.5q-71 0 -114 -26
t-43 -79q0 -118 158 -118q160 0 160 127zM870 819q21 -22 21 -103q0 -143 -93 -230t-291 -87h-3q-117 0 -147 13q-30 -35 -30 -79q0 -34 29 -59.5t100 -25.5h179q50 0 95.5 -6t93 -23t82 -44t56.5 -71.5t22 -102.5q0 -80 -36.5 -153.5t-93 -123t-125.5 -79t-134 -29.5h-155
q-162 0 -261 76t-99 230q0 144 87 221q-37 27 -62 82.5t-25 117.5q0 47 12.5 85.5t26 58.5t37.5 46q-3 4 -16 20t-16.5 21.5t-13 19t-13 22t-9 22t-7 27.5t-1.5 29q0 171 108.5 251.5t306.5 80.5q173 0 272 -61q37 34 85 47.5t135 13.5v-204q-30 5 -41 5q-44 0 -76 -8z" />
    <glyph glyph-name="uni01F8" unicode="&#x1f8;" 
d="M801 1509l-90 -174q-119 39 -258.5 115.5t-217.5 154.5l134 172q89 -83 208 -158t224 -110zM691 0q-66 189 -166.5 398.5t-204.5 379.5v-208q0 -168 0.5 -341t0.5 -232h-246v1328l211 -7q75 -111 152.5 -243t156 -297.5t101.5 -273.5l-7 274q0 319 12 551l244 -1
q-8 -153 -8 -433q0 -115 2 -361t2 -364q0 -30 -0.5 -87t-0.5 -83h-249z" />
    <glyph glyph-name="uni01F9" unicode="&#x1f9;" 
d="M829 1294l-90 -174q-119 39 -258.5 115.5t-217.5 154.5l134 172q89 -83 208 -158t224 -110zM338 927q43 39 131.5 69t168.5 30q133 0 216.5 -57t83.5 -173v-518q0 -22 6.5 -39t23.5 -31t27.5 -21t37.5 -21q7 -4 11 -6l-116 -200q-41 13 -78.5 32t-76.5 50t-62.5 77.5
t-23.5 102.5v477q0 61 -17.5 90.5t-64.5 29.5q-51 0 -122.5 -29.5t-131.5 -82.5v-707h-251v706q0 87 -3.5 138.5t-8.5 76.5t-20 83l232 48q31 -74 38 -125z" />
    <glyph glyph-name="Aringacute" unicode="&#x1fa;" 
d="M747.746 1367.83q61.9248 43.6621 125.408 119.898t105.861 153.626l120.104 -108.325q-36.1436 -71.8066 -112.729 -152.529q-76.584 -80.7227 -146.893 -129.702zM521 1561q-38 0 -62 -18.5t-24 -43.5t24.5 -44t61.5 -19t61.5 19t24.5 44t-24 43.5t-62 18.5zM651 504
q-8 47 -66.5 226.5t-59.5 267.5q-3 -75 -27 -167t-61.5 -198t-48.5 -147q27 6 71 9t106 5.5t86 3.5zM246 1499q0 86 81.5 145t194.5 59q112 0 193.5 -59t81.5 -145q0 -61 -41.5 -108t-112.5 -70l333 -1077q50 -169 50 -244h-276q0 79 -25 167l-32 114q-23 0 -69.5 -1
t-65.5 -1.5t-54 -2t-57 -4.5t-52 -8t-59 -12l-30 -90q-36 -111 -40 -162h-260q5 71 54 223l356 1095q-77 21 -123.5 69.5t-46.5 111.5z" />
    <glyph glyph-name="aringacute" unicode="&#x1fb;" 
d="M782.855 1268.01q53.6621 53.4941 103.36 139.358t78.3994 169.302l136.667 -86.4961q-23.499 -76.8818 -85.3525 -169.38q-61.8525 -92.499 -122.879 -152.648zM498 1385q-38 0 -62 -18.5t-24 -43.5t24.5 -44t61.5 -19t61.5 19t24.5 44t-24 43.5t-62 18.5zM223 1323
q0 86 81.5 145t194.5 59q112 0 193.5 -59t81.5 -145t-77.5 -140.5t-197.5 -54.5q-116 0 -196 55.5t-80 139.5zM318 317q0 -68 38.5 -98t94.5 -30q74 0 133.5 53t76.5 105v47q-28 32 -74.5 54t-93.5 22q-61 0 -118 -39.5t-57 -113.5zM917 316q0 -70 17 -113t59 -76l-125 -149
q-12 9 -35 25t-34 25t-27.5 28.5t-31.5 44.5q-59 -61 -133.5 -86.5t-206.5 -25.5q-133 0 -238.5 90.5t-105.5 222.5q0 146 89 238q69 70 153 100t195 30q99 0 168 -47q0 58 -18.5 100t-48 61.5t-56 27.5t-53.5 8q-178 0 -283 -111l-122 208q65 41 109.5 63t98.5 32.5
t86.5 12.5t118.5 3q114 0 209.5 -42.5t155 -129t59.5 -201.5v-339z" />
    <glyph glyph-name="AEacute" unicode="&#x1fc;" 
d="M301 1509q105 35 224 110t208 158l134 -172q-78 -78 -217.5 -154.5t-258.5 -115.5zM1008 32q-70 -37 -187 -37h-342l-21 227q-27 3 -47 3q-101 0 -143 -10q-9 -38 -34 -215h-234q25 209 272 1323l145 -3q43 2 157 2h125h260v-206h-17q-36 0 -82 -1t-112 -1h-142l24 -268
q16 0 46 2t79 2h106v-208h-106q-47 0 -71 -2t-38 -2l48 -435h157q27 0 52 6.5t36 12.5l11 6zM441 434l-43 563q-67 -305 -106 -569q58 6 149 6z" />
    <glyph glyph-name="aeacute" unicode="&#x1fd;" 
d="M214 1294q105 35 224 110t208 158l134 -172q-78 -78 -217.5 -154.5t-258.5 -115.5zM648 675v-21q100 0 144 6q-5 79 -25.5 113.5t-64.5 34.5q-54 0 -54 -133zM256 322q0 -78 18 -119t48 -41q31 0 51 22.5t26.5 48.5t11.5 57t7 37v147q-5 3 -16 9.5t-14.5 8.5t-11.5 6
t-12.5 5t-12.5 2.5t-16.5 2t-20.5 0.5q-24 0 -41 -54.5t-17 -131.5zM722 0q-38 0 -70 6t-52 14t-38 20.5t-26 21t-18.5 21t-12.5 14.5q-82 -93 -193 -93q-107 0 -182 53q-107 75 -107 252q0 53 8 101t28 94.5t49.5 80.5t76.5 55t106 21q27 0 47.5 -3t29.5 -6.5t26 -11.5
t24 -11q0 35 -1.5 56.5t-7.5 47.5t-17 40.5t-32.5 24.5t-52.5 10h-9q-40 0 -59 -20.5t-41 -85.5l-198 82q49 130 125 182t175 52q51 0 86 -9t77 -41q27 -23 50 -59q71 109 178 109q96 0 166 -66t103.5 -165t37.5 -217v-116q-171 -7 -318 -7h-32l-2 -173q14 -37 26.5 -51.5
t39.5 -14.5q51 0 70 20.5t24 61.5l190 -72q-2 -9 -6.5 -23.5t-25.5 -52t-48.5 -66.5t-79 -52.5t-114.5 -23.5z" />
    <glyph glyph-name="Oslashacute" unicode="&#x1fe;" 
d="M214 1509q105 35 224 110t208 158l134 -172q-78 -78 -217.5 -154.5t-258.5 -115.5zM884 1128q92 -171 95 -481v-11q0 -124 -21.5 -235.5t-57.5 -183.5q-56 -109 -160.5 -171t-229.5 -62q-128 0 -234 51l-84 -150l-159 104q16 29 48.5 87.5t49.5 87.5q-95 150 -95 415
q0 243 35 383.5t95 224.5q51 71 146.5 116t209.5 47q135 0 232 -68q14 24 41 72.5t40 73.5l160 -101zM385 232q25 -26 53 -35.5t72 -9.5q103 0 159 139q19 42 33.5 139t15.5 175v17q0 82 -7 160zM640 1076q-46 71 -119 71q-49 0 -81 -21.5t-62 -74.5q-81 -143 -81 -459
q0 -56 6 -121q226 404 337 605z" />
    <glyph glyph-name="oslashacute" unicode="&#x1ff;" 
d="M209 1294q105 35 224 110t208 158l134 -172q-78 -78 -217.5 -154.5t-258.5 -115.5zM625 247q60 66 60 283v16q0 27 -1 40l-301 -327q48 -62 125 -62q40 1 64.5 11.5t52.5 38.5zM848 1067l150 -140l-107 -115q50 -113 50 -269q0 -74 -9 -140t-28 -129t-53 -113t-80.5 -88
t-113 -58.5t-148.5 -20.5h-2q-180 0 -288 86l-73 -80l-146 133l104 115q-32 92 -32 216q0 568 433 568q157 0 254 -62zM607 802q-36 28 -87 28q-106 0 -150.5 -88t-45.5 -252z" />
    <glyph glyph-name="uni0200" unicode="&#x200;" 
d="M580 1495l-148 -143q-99 79 -203.5 198t-149.5 220l201 127q57 -114 137 -224.5t163 -177.5zM963 1502l-147 -142q-99 79 -204 198.5t-150 219.5l201 126q57 -114 137 -224.5t163 -177.5zM651 504q-8 47 -66.5 226.5t-59.5 267.5q-3 -75 -27 -167t-61.5 -198t-48.5 -147
q27 6 71 9t106 5.5t86 3.5zM418 1325h224l334 -1081q50 -169 50 -244h-276q0 79 -25 167l-32 114q-23 0 -69.5 -1t-65.5 -1.5t-54 -2t-57 -4.5t-52 -8t-59 -12l-30 -90q-36 -111 -40 -162h-260q5 71 54 223z" />
    <glyph glyph-name="uni0201" unicode="&#x201;" 
d="M560 1280l-148 -143q-99 79 -203.5 198t-149.5 220l201 127q57 -114 137 -224.5t163 -177.5zM943 1287l-147 -142q-99 79 -204 198.5t-150 219.5l201 126q57 -114 137 -224.5t163 -177.5zM318 317q0 -68 38.5 -98t94.5 -30q74 0 133.5 53t76.5 105v47q-28 32 -74.5 54
t-93.5 22q-61 0 -118 -39.5t-57 -113.5zM917 316q0 -70 17 -113t59 -76l-125 -149q-12 9 -35 25t-34 25t-27.5 28.5t-31.5 44.5q-59 -61 -133.5 -86.5t-206.5 -25.5q-133 0 -238.5 90.5t-105.5 222.5q0 146 89 238q69 70 153 100t195 30q99 0 168 -47q0 58 -18.5 100
t-48 61.5t-56 27.5t-53.5 8q-178 0 -283 -111l-122 208q65 41 109.5 63t98.5 32.5t86.5 12.5t118.5 3q114 0 209.5 -42.5t155 -129t59.5 -201.5v-339z" />
    <glyph glyph-name="uni0202" unicode="&#x202;" 
d="M523 1540q-145 0 -180 -150l-219 30q35 164 133 233.5t272 69.5q175 0 274.5 -78.5t118.5 -215.5l-219 -30q-5 61 -53 101t-127 40zM651 504q-8 47 -66.5 226.5t-59.5 267.5q-3 -75 -27 -167t-61.5 -198t-48.5 -147q27 6 71 9t106 5.5t86 3.5zM418 1325h224l334 -1081
q50 -169 50 -244h-276q0 79 -25 167l-32 114q-23 0 -69.5 -1t-65.5 -1.5t-54 -2t-57 -4.5t-52 -8t-59 -12l-30 -90q-36 -111 -40 -162h-260q5 71 54 223z" />
    <glyph glyph-name="uni0203" unicode="&#x203;" 
d="M503 1325q-145 0 -180 -150l-219 30q35 164 133 233.5t272 69.5q175 0 274.5 -78.5t118.5 -215.5l-219 -30q-5 61 -53 101t-127 40zM318 317q0 -68 38.5 -98t94.5 -30q74 0 133.5 53t76.5 105v47q-28 32 -74.5 54t-93.5 22q-61 0 -118 -39.5t-57 -113.5zM917 316
q0 -70 17 -113t59 -76l-125 -149q-12 9 -35 25t-34 25t-27.5 28.5t-31.5 44.5q-59 -61 -133.5 -86.5t-206.5 -25.5q-133 0 -238.5 90.5t-105.5 222.5q0 146 89 238q69 70 153 100t195 30q99 0 168 -47q0 58 -18.5 100t-48 61.5t-56 27.5t-53.5 8q-178 0 -283 -111l-122 208
q65 41 109.5 63t98.5 32.5t86.5 12.5t118.5 3q114 0 209.5 -42.5t155 -129t59.5 -201.5v-339z" />
    <glyph glyph-name="uni0204" unicode="&#x204;" 
d="M541 1495l-148 -143q-99 79 -203.5 198t-149.5 220l201 127q57 -114 137 -224.5t163 -177.5zM924 1502l-147 -142q-99 79 -204 198.5t-150 219.5l201 126q57 -114 137 -224.5t163 -177.5zM102 1319q56 4 204 4h98h110q84 0 207.5 -1.5t151.5 -1.5h16v-202h-529v-269h338
v-203h-338v-31q0 -119 -1 -253t-1 -158l416 2q25 0 56 7t50 13l19 7l72 -199q-9 -2 -34.5 -10t-41 -12t-46.5 -8t-65 -4h-682v1319z" />
    <glyph glyph-name="uni0205" unicode="&#x205;" 
d="M593 1280l-148 -143q-99 79 -203.5 198t-149.5 220l201 127q57 -114 137 -224.5t163 -177.5zM976 1287l-147 -142q-99 79 -204 198.5t-150 219.5l201 126q57 -114 137 -224.5t163 -177.5zM336 606q136 24 340 24q-4 94 -49.5 141t-115.5 47q-74 0 -122 -61t-53 -151z
M509 1021q229 0 328.5 -139t99.5 -405l-1 -43q-438 -6 -600 -38q12 -83 69.5 -141.5t126.5 -58.5q75 0 120.5 25t101.5 85l178 -156q-42 -47 -73 -73t-77.5 -48t-106.5 -30.5t-149 -8.5q-211 0 -329.5 143.5t-118.5 382.5q0 223 113 364t318 141z" />
    <glyph glyph-name="uni0206" unicode="&#x206;" 
d="M484 1540q-145 0 -180 -150l-219 30q35 164 133 233.5t272 69.5q175 0 274.5 -78.5t118.5 -215.5l-219 -30q-5 61 -53 101t-127 40zM102 1319q56 4 204 4h98h110q84 0 207.5 -1.5t151.5 -1.5h16v-202h-529v-269h338v-203h-338v-31q0 -119 -1 -253t-1 -158l416 2
q25 0 56 7t50 13l19 7l72 -199q-9 -2 -34.5 -10t-41 -12t-46.5 -8t-65 -4h-682v1319z" />
    <glyph glyph-name="uni0207" unicode="&#x207;" 
d="M536 1325q-145 0 -180 -150l-219 30q35 164 133 233.5t272 69.5q175 0 274.5 -78.5t118.5 -215.5l-219 -30q-5 61 -53 101t-127 40zM336 606q136 24 340 24q-4 94 -49.5 141t-115.5 47q-74 0 -122 -61t-53 -151zM509 1021q229 0 328.5 -139t99.5 -405l-1 -43
q-438 -6 -600 -38q12 -83 69.5 -141.5t126.5 -58.5q75 0 120.5 25t101.5 85l178 -156q-42 -47 -73 -73t-77.5 -48t-106.5 -30.5t-149 -8.5q-211 0 -329.5 143.5t-118.5 382.5q0 223 113 364t318 141z" />
    <glyph glyph-name="uni0208" unicode="&#x208;" 
d="M558 1495l-148 -143q-99 79 -203.5 198t-149.5 220l201 127q57 -114 137 -224.5t163 -177.5zM941 1502l-147 -142q-99 79 -204 198.5t-150 219.5l201 126q57 -114 137 -224.5t163 -177.5zM132 1324q195 5 353 5q123 0 368 -3l-1 -211q-65 0 -125.5 2.5t-104.5 2.5v-901
q22 0 39 0.5t43 0.5q75 0 144 -4l1 -217q-102 6 -210 6q-22 0 -73 -0.5t-82 -0.5q-27 0 -144.5 -3.5t-205.5 -3.5v216q106 5 180 5h52v901q-142 -2 -228 -7z" />
    <glyph glyph-name="uni0209" unicode="&#x209;" 
d="M554 1280l-148 -143q-99 79 -203.5 198t-149.5 220l201 127q57 -114 137 -224.5t163 -177.5zM937 1287l-147 -142q-99 79 -204 198.5t-150 219.5l201 126q57 -114 137 -224.5t163 -177.5zM354 1013h255l1 -739q0 -51 21.5 -71.5t87.5 -20.5q67 0 116 22.5t97 68.5
l97 -190q-61 -50 -160.5 -75.5t-200.5 -25.5q-151 0 -221 38q-93 51 -93 186v607q-113 0 -234 -28l-29 186q141 42 263 42z" />
    <glyph glyph-name="uni020A" unicode="&#x20a;" 
d="M501 1540q-145 0 -180 -150l-219 30q35 164 133 233.5t272 69.5q175 0 274.5 -78.5t118.5 -215.5l-219 -30q-5 61 -53 101t-127 40zM132 1324q195 5 353 5q123 0 368 -3l-1 -211q-65 0 -125.5 2.5t-104.5 2.5v-901q22 0 39 0.5t43 0.5q75 0 144 -4l1 -217q-102 6 -210 6
q-22 0 -73 -0.5t-82 -0.5q-27 0 -144.5 -3.5t-205.5 -3.5v216q106 5 180 5h52v901q-142 -2 -228 -7z" />
    <glyph glyph-name="uni020B" unicode="&#x20b;" 
d="M497 1325q-145 0 -180 -150l-219 30q35 164 133 233.5t272 69.5q175 0 274.5 -78.5t118.5 -215.5l-219 -30q-5 61 -53 101t-127 40zM354 1013h255l1 -739q0 -51 21.5 -71.5t87.5 -20.5q67 0 116 22.5t97 68.5l97 -190q-61 -50 -160.5 -75.5t-200.5 -25.5q-151 0 -221 38
q-93 51 -93 186v607q-113 0 -234 -28l-29 186q141 42 263 42z" />
    <glyph glyph-name="uni020C" unicode="&#x20c;" 
d="M582 1495l-148 -143q-99 79 -203.5 198t-149.5 220l201 127q57 -114 137 -224.5t163 -177.5zM965 1502l-147 -142q-99 79 -204 198.5t-150 219.5l201 126q57 -114 137 -224.5t163 -177.5zM522 1350q39 0 76 -5.5t84 -24t86.5 -48.5t79 -84t67 -125.5t45.5 -178.5t19 -237
v-11q0 -124 -21.5 -235.5t-57.5 -183.5q-56 -109 -160.5 -171t-229.5 -62q-101 0 -198 35.5t-154 107.5q-122 152 -122 452q0 243 35 383.5t95 224.5q51 71 146.5 116t209.5 47zM351 277q34 -54 67.5 -72t91.5 -18q103 0 159 139q19 42 33.5 139t15.5 175v17q0 232 -45 352
q-52 138 -152 138q-49 0 -81 -21.5t-62 -74.5q-81 -143 -81 -459q0 -88 13 -179.5t41 -135.5z" />
    <glyph glyph-name="uni020D" unicode="&#x20d;" 
d="M577 1280l-148 -143q-99 79 -203.5 198t-149.5 220l201 127q57 -114 137 -224.5t163 -177.5zM960 1287l-147 -142q-99 79 -204 198.5t-150 219.5l201 126q57 -114 137 -224.5t163 -177.5zM625 247q60 66 60 283v16q-2 132 -39 208t-126 76q-107 0 -151.5 -90t-44.5 -258
q0 -128 48 -206.5t136 -78.5q40 1 64.5 11.5t52.5 38.5zM507 -6q-223 0 -329 124.5t-106 345.5q0 568 433 568q144 0 233.5 -49.5t143.5 -151.5q59 -114 59 -288q0 -74 -9 -140t-28 -129t-53 -113t-80.5 -88t-113 -58.5t-148.5 -20.5h-2z" />
    <glyph glyph-name="uni020E" unicode="&#x20e;" 
d="M525 1540q-145 0 -180 -150l-219 30q35 164 133 233.5t272 69.5q175 0 274.5 -78.5t118.5 -215.5l-219 -30q-5 61 -53 101t-127 40zM522 1350q39 0 76 -5.5t84 -24t86.5 -48.5t79 -84t67 -125.5t45.5 -178.5t19 -237v-11q0 -124 -21.5 -235.5t-57.5 -183.5
q-56 -109 -160.5 -171t-229.5 -62q-101 0 -198 35.5t-154 107.5q-122 152 -122 452q0 243 35 383.5t95 224.5q51 71 146.5 116t209.5 47zM351 277q34 -54 67.5 -72t91.5 -18q103 0 159 139q19 42 33.5 139t15.5 175v17q0 232 -45 352q-52 138 -152 138q-49 0 -81 -21.5
t-62 -74.5q-81 -143 -81 -459q0 -88 13 -179.5t41 -135.5z" />
    <glyph glyph-name="uni020F" unicode="&#x20f;" 
d="M520 1325q-145 0 -180 -150l-219 30q35 164 133 233.5t272 69.5q175 0 274.5 -78.5t118.5 -215.5l-219 -30q-5 61 -53 101t-127 40zM625 247q60 66 60 283v16q-2 132 -39 208t-126 76q-107 0 -151.5 -90t-44.5 -258q0 -128 48 -206.5t136 -78.5q40 1 64.5 11.5t52.5 38.5
zM507 -6q-223 0 -329 124.5t-106 345.5q0 568 433 568q144 0 233.5 -49.5t143.5 -151.5q59 -114 59 -288q0 -74 -9 -140t-28 -129t-53 -113t-80.5 -88t-113 -58.5t-148.5 -20.5h-2z" />
    <glyph glyph-name="uni0210" unicode="&#x210;" 
d="M581 1495l-148 -143q-99 79 -203.5 198t-149.5 220l201 127q57 -114 137 -224.5t163 -177.5zM964 1502l-147 -142q-99 79 -204 198.5t-150 219.5l201 126q57 -114 137 -224.5t163 -177.5zM699 552q150 -238 237 -341q55 -49 108 -63l-122 -192q-40 6 -81.5 36t-70.5 66
q-64 72 -162.5 221t-157.5 251q-61 5 -117 28v-558h-243v1136q0 100 -5 178q157 15 218 15q74 0 123 -1.5t112.5 -6t109 -15.5t93.5 -28t85.5 -45t67.5 -65q35 -44 54.5 -109t19.5 -131q0 -161 -77 -260t-192 -116zM706 906q0 121 -77.5 169.5t-232.5 48.5q-34 0 -63 -1
v-355q100 -42 166 -42h8q62 0 102.5 13t61 39.5t28 56t7.5 71.5z" />
    <glyph glyph-name="uni0211" unicode="&#x211;" 
d="M605 1280l-148 -143q-99 79 -203.5 198t-149.5 220l201 127q57 -114 137 -224.5t163 -177.5zM988 1287l-147 -142q-99 79 -204 198.5t-150 219.5l201 126q57 -114 137 -224.5t163 -177.5zM404 864q119 156 340 156q127 0 199.5 -75.5t72.5 -216.5v-30l-252 -2q2 22 2 44
q0 78 -66 78q-45 0 -104 -63t-128 -195v-560h-252v704q0 27 -17 55t-35 45.5t-58 53.5l148 186q7 -5 34.5 -26t36.5 -30t27.5 -29t30 -42.5t21.5 -52.5z" />
    <glyph glyph-name="uni0212" unicode="&#x212;" 
d="M524 1540q-145 0 -180 -150l-219 30q35 164 133 233.5t272 69.5q175 0 274.5 -78.5t118.5 -215.5l-219 -30q-5 61 -53 101t-127 40zM699 552q150 -238 237 -341q55 -49 108 -63l-122 -192q-40 6 -81.5 36t-70.5 66q-64 72 -162.5 221t-157.5 251q-61 5 -117 28v-558h-243
v1136q0 100 -5 178q157 15 218 15q74 0 123 -1.5t112.5 -6t109 -15.5t93.5 -28t85.5 -45t67.5 -65q35 -44 54.5 -109t19.5 -131q0 -161 -77 -260t-192 -116zM706 906q0 121 -77.5 169.5t-232.5 48.5q-34 0 -63 -1v-355q100 -42 166 -42h8q62 0 102.5 13t61 39.5t28 56
t7.5 71.5z" />
    <glyph glyph-name="uni0213" unicode="&#x213;" 
d="M548 1325q-145 0 -180 -150l-219 30q35 164 133 233.5t272 69.5q175 0 274.5 -78.5t118.5 -215.5l-219 -30q-5 61 -53 101t-127 40zM404 864q119 156 340 156q127 0 199.5 -75.5t72.5 -216.5v-30l-252 -2q2 22 2 44q0 78 -66 78q-45 0 -104 -63t-128 -195v-560h-252v704
q0 27 -17 55t-35 45.5t-58 53.5l148 186q7 -5 34.5 -26t36.5 -30t27.5 -29t30 -42.5t21.5 -52.5z" />
    <glyph glyph-name="uni0214" unicode="&#x214;" 
d="M569 1496l-148 -143q-99 79 -203.5 198t-149.5 220l201 127q57 -114 137 -224.5t163 -177.5zM952 1503l-147 -142q-99 79 -204 198.5t-150 219.5l201 126q57 -114 137 -224.5t163 -177.5zM701 1350l253 -28q-8 -57 -8 -127v-29q0 -78 1.5 -208.5t1.5 -182.5v-59
q0 -110 -3 -178.5t-13.5 -154.5t-35.5 -150.5t-65 -111.5q-103 -122 -340 -131q-114 0 -193.5 30t-127.5 92t-72 145t-31 199q-7 108 -7 339q0 293 9 534h258q-8 -336 -8 -586v-141q0 -110 6 -154q1 -4 4.5 -29t4.5 -33t6 -32t8.5 -33.5t11 -29.5t15.5 -29.5t19.5 -23.5
t25 -20.5t31 -11.5t38.5 -6q33 1 59.5 11t46.5 24t35.5 40t25.5 49.5t17 63.5t11 69.5t5.5 81t2 85.5t0.5 94q0 57 -2.5 206.5t-2.5 241.5q0 102 13 184z" />
    <glyph glyph-name="uni0215" unicode="&#x215;" 
d="M563 1280l-148 -143q-99 79 -203.5 198t-149.5 220l201 127q57 -114 137 -224.5t163 -177.5zM946 1287l-147 -142q-99 79 -204 198.5t-150 219.5l201 126q57 -114 137 -224.5t163 -177.5zM893 -17q-92 42 -127 125q-54 -55 -137.5 -79.5t-202.5 -26.5h-9q-48 0 -93.5 6.5
t-91 23t-78.5 41.5t-54 65t-21 91q0 39 0.5 132t0.5 143q0 422 -22 488l254 28q6 -27 10 -71.5t5.5 -121t1.5 -140t0.5 -187t0.5 -202.5q9 -53 32 -72.5t84 -19.5q112 5 166.5 59.5t54.5 152.5v595h251v-707q1 -37 39 -80t79 -60z" />
    <glyph glyph-name="uni0216" unicode="&#x216;" 
d="M512 1541q-145 0 -180 -150l-219 30q35 164 133 233.5t272 69.5q175 0 274.5 -78.5t118.5 -215.5l-219 -30q-5 61 -53 101t-127 40zM701 1350l253 -28q-8 -57 -8 -127v-29q0 -78 1.5 -208.5t1.5 -182.5v-59q0 -110 -3 -178.5t-13.5 -154.5t-35.5 -150.5t-65 -111.5
q-103 -122 -340 -131q-114 0 -193.5 30t-127.5 92t-72 145t-31 199q-7 108 -7 339q0 293 9 534h258q-8 -336 -8 -586v-141q0 -110 6 -154q1 -4 4.5 -29t4.5 -33t6 -32t8.5 -33.5t11 -29.5t15.5 -29.5t19.5 -23.5t25 -20.5t31 -11.5t38.5 -6q33 1 59.5 11t46.5 24t35.5 40
t25.5 49.5t17 63.5t11 69.5t5.5 81t2 85.5t0.5 94q0 57 -2.5 206.5t-2.5 241.5q0 102 13 184z" />
    <glyph glyph-name="uni0217" unicode="&#x217;" 
d="M506 1325q-145 0 -180 -150l-219 30q35 164 133 233.5t272 69.5q175 0 274.5 -78.5t118.5 -215.5l-219 -30q-5 61 -53 101t-127 40zM893 -17q-92 42 -127 125q-54 -55 -137.5 -79.5t-202.5 -26.5h-9q-48 0 -93.5 6.5t-91 23t-78.5 41.5t-54 65t-21 91q0 39 0.5 132
t0.5 143q0 422 -22 488l254 28q6 -27 10 -71.5t5.5 -121t1.5 -140t0.5 -187t0.5 -202.5q9 -53 32 -72.5t84 -19.5q112 5 166.5 59.5t54.5 152.5v595h251v-707q1 -37 39 -80t79 -60z" />
    <glyph glyph-name="Scommaaccent" unicode="&#x218;" 
d="M387 -49h270v-215q0 -114 -31 -177.5t-125 -139.5l-134 125q43 34 59.5 70.5t16.5 115.5h-56v221zM231 702q-180 82 -180 304q0 161 111 241.5t308 80.5h9q187 0 317.5 -64t163.5 -186l-273 -102q-32 71 -88 106.5t-114 35.5q-69 0 -117.5 -27.5t-48.5 -76.5
q0 -35 8.5 -60t27.5 -41t34.5 -24.5t43.5 -18.5q44 -17 147.5 -50t178.5 -68q94 -46 155 -133t61 -223q0 -87 -24.5 -157t-66 -115.5t-100 -76t-123.5 -43.5t-140 -13h-19q-128 3 -222.5 38.5t-148 95.5t-79 134t-25.5 163l266 -2q0 -110 51 -165t163 -55q210 0 210 182
q0 134 -150 200q-54 24 -160 56t-176 64z" />
    <glyph glyph-name="scommaaccent" unicode="&#x219;" 
d="M402 -49h270v-215q0 -114 -31 -177.5t-125 -139.5l-134 125q43 34 59.5 70.5t16.5 115.5h-56v221zM279 549q-63 31 -100 91t-37 141q0 67 32 117t86 77.5t115.5 40.5t131.5 13q60 0 107.5 -4.5t103 -17.5t104 -42t88.5 -72l-177 -163q-92 99 -223 99q-114 0 -114 -61
q0 -45 34 -67q38 -15 94.5 -36t92.5 -34t83 -34t76.5 -40t62 -47.5t50.5 -60.5t29.5 -75.5t11.5 -95.5q0 -58 -23.5 -107.5t-62.5 -82.5t-80.5 -55t-84.5 -33q-86 -20 -173 -20q-191 0 -301.5 94t-110.5 256h253q0 -80 37 -114t120 -34q26 0 52.5 5t55 16t46.5 33.5t18 53.5
q0 43 -16 71.5t-54 53.5q-38 24 -163.5 69.5t-163.5 64.5z" />
    <glyph glyph-name="uni021A" unicode="&#x21a;" 
d="M352 -49h270v-215q0 -114 -31 -177.5t-125 -139.5l-134 125q43 34 59.5 70.5t16.5 115.5h-56v221zM355 0v1118q-114 0 -203.5 -0.5t-112.5 -0.5v207q53 0 357.5 0.5t406.5 0.5q112 0 167 -16l-60 -203q-52 12 -112 12h-183v-1118h-260z" />
    <glyph glyph-name="uni021B" unicode="&#x21b;" 
d="M459 -49h270v-215q0 -114 -31 -177.5t-125 -139.5l-134 125q43 34 59.5 70.5t16.5 115.5h-56v221zM430 436v-40q0 -98 29 -141.5t94 -54.5q36 -4 65 -4q70 0 120 28q15 8 26.5 20.5t19 27.5t11.5 26t8 25.5t5 16.5l208 -100q-8 -21 -25 -51.5t-58.5 -77t-92.5 -75.5
q-72 -42 -220 -42q-159 0 -256.5 34t-146.5 136q-39 80 -39 234v42q6 257 9 365h-14q-43 0 -82 -12l-17 204q36 12 102 12h15q0 35 0.5 120.5t0.5 120.5l251 -6q0 -95 -2 -231q48 0 153 -1t190 -2t86 -1l-3 -204q-69 0 -215.5 1t-212.5 1q-3 -89 -5 -207.5t-4 -163.5z" />
    <glyph glyph-name="uni021E" unicode="&#x21e;" 
d="M496 1359l-366 297l144 138l222 -189l240 201l138 -156zM317 1322l-1 -537q127 29 272 29h87q0 154 -0.5 294.5t-0.5 208.5h256v-1317h-255v599h-32q-116 0 -179 -5t-148 -24q0 -196 1 -347t1 -223h-258v1320z" />
    <glyph glyph-name="uni021F" unicode="&#x21f;" 
d="M201 1437l-366 297l144 138l222 -189l240 201l138 -156zM942 566v-348q0 -115 44 -178l-226 -80q-64 89 -64 216v315q0 89 -11.5 151.5t-27.5 95.5t-44 50.5t-49.5 21t-55.5 3.5q-52 0 -98 -39.5t-77 -91.5v-682h-245v1156q0 91 -16 246l248 9q14 -114 14 -260
q0 -119 -24 -222q111 84 232 84q195 0 297.5 -106.5t102.5 -340.5z" />
    <glyph glyph-name="uni0226" unicode="&#x226;" 
d="M364 1645h284l2 -246h-285zM651 504q-8 47 -66.5 226.5t-59.5 267.5q-3 -75 -27 -167t-61.5 -198t-48.5 -147q27 6 71 9t106 5.5t86 3.5zM418 1325h224l334 -1081q50 -169 50 -244h-276q0 79 -25 167l-32 114q-23 0 -69.5 -1t-65.5 -1.5t-54 -2t-57 -4.5t-52 -8t-59 -12
l-30 -90q-36 -111 -40 -162h-260q5 71 54 223z" />
    <glyph glyph-name="uni0227" unicode="&#x227;" 
d="M344 1430h284l2 -246h-285zM318 317q0 -68 38.5 -98t94.5 -30q74 0 133.5 53t76.5 105v47q-28 32 -74.5 54t-93.5 22q-61 0 -118 -39.5t-57 -113.5zM917 316q0 -70 17 -113t59 -76l-125 -149q-12 9 -35 25t-34 25t-27.5 28.5t-31.5 44.5q-59 -61 -133.5 -86.5
t-206.5 -25.5q-133 0 -238.5 90.5t-105.5 222.5q0 146 89 238q69 70 153 100t195 30q99 0 168 -47q0 58 -18.5 100t-48 61.5t-56 27.5t-53.5 8q-178 0 -283 -111l-122 208q65 41 109.5 63t98.5 32.5t86.5 12.5t118.5 3q114 0 209.5 -42.5t155 -129t59.5 -201.5v-339z" />
    <glyph glyph-name="uni0228" unicode="&#x228;" 
d="M98 1438q59 4 214 4h103h116q88 0 218 -1.5t159 -1.5h16v-220h-555v-294h355v-221h-355v-34q0 -130 -1 -278t-1 -173l437 2q26 0 59 7.5t53 15.5l19 7l76 -217q-9 -3 -36 -11.5t-43.5 -12.5t-49 -8.5t-68.5 -4.5h-160q-1 -21 -1 -61q78 -4 131 -49.5t53 -126.5
q0 -95 -75.5 -149t-196.5 -54q-53 0 -113.5 14t-100.5 40l60 148q55 -30 128 -30q70 0 74 50v2q0 23 -19 39t-53 16q-75 0 -109 -12v173h-334v1441z" />
    <glyph glyph-name="uni0229" unicode="&#x229;" 
d="M346 606q136 24 340 24q-4 94 -49.5 141t-115.5 47q-74 0 -122 -61t-53 -151zM519 1021q229 0 328.5 -139t99.5 -405l-1 -43q-438 -6 -600 -38q12 -86 58.5 -143t113.5 -57q83 0 120.5 17t81.5 81l200 -128q-45 -70 -112 -112.5t-177 -56.5q-2 -38 -2 -68
q78 -4 131 -49.5t53 -126.5q0 -95 -75.5 -149t-196.5 -54q-53 0 -113.5 14t-100.5 40l60 148q55 -30 128 -30q70 0 74 50v2q0 23 -19 39t-53 16q-75 0 -109 -12v183q-158 34 -239 170t-81 346q0 223 113 364t318 141z" />
    <glyph glyph-name="uni022A" unicode="&#x22a;" 
d="M793 1902v-194h-17q-203 -7 -230 -7q-133 0 -235 3l-18 1v197l19 -2q97 -3 272 -3q33 0 102 2.5t90 2.5h17zM598 1638l282 -3v-238l-282 1v240zM178 1638h279v-240h-279v240zM522 1350q39 0 76 -5.5t84 -24t86.5 -48.5t79 -84t67 -125.5t45.5 -178.5t19 -237v-11
q0 -124 -21.5 -235.5t-57.5 -183.5q-56 -109 -160.5 -171t-229.5 -62q-101 0 -198 35.5t-154 107.5q-122 152 -122 452q0 243 35 383.5t95 224.5q51 71 146.5 116t209.5 47zM351 277q34 -54 67.5 -72t91.5 -18q103 0 159 139q19 42 33.5 139t15.5 175v17q0 232 -45 352
q-52 138 -152 138q-49 0 -81 -21.5t-62 -74.5q-81 -143 -81 -459q0 -88 13 -179.5t41 -135.5z" />
    <glyph glyph-name="uni022B" unicode="&#x22b;" 
d="M788 1708v-194h-17q-203 -7 -230 -7q-133 0 -235 3l-18 1v197l19 -2q97 -3 272 -3q33 0 102 2.5t90 2.5h17zM593 1423l282 -3v-238l-282 1v240zM173 1423h279v-240h-279v240zM625 247q60 66 60 283v16q-2 132 -39 208t-126 76q-107 0 -151.5 -90t-44.5 -258
q0 -128 48 -206.5t136 -78.5q40 1 64.5 11.5t52.5 38.5zM507 -6q-223 0 -329 124.5t-106 345.5q0 568 433 568q144 0 233.5 -49.5t143.5 -151.5q59 -114 59 -288q0 -74 -9 -140t-28 -129t-53 -113t-80.5 -88t-113 -58.5t-148.5 -20.5h-2z" />
    <glyph glyph-name="uni022C" unicode="&#x22c;" 
d="M793 1902v-194h-17q-203 -7 -230 -7q-133 0 -235 3l-18 1v197l19 -2q97 -3 272 -3q33 0 102 2.5t90 2.5h17zM355 1677q60 0 107.5 -13.5t75.5 -33t50.5 -39t45 -33t46.5 -13.5q77 0 86 100l177 -54q-9 -41 -24.5 -76.5t-42.5 -71t-71.5 -56t-102.5 -20.5q-55 0 -99 13.5
t-71 32.5t-50 38t-48 32.5t-52 13.5q-32 0 -56.5 -27t-31.5 -73l-184 78q14 39 33 71.5t48 63.5t71.5 49t92.5 18zM522 1350q39 0 76 -5.5t84 -24t86.5 -48.5t79 -84t67 -125.5t45.5 -178.5t19 -237v-11q0 -124 -21.5 -235.5t-57.5 -183.5q-56 -109 -160.5 -171t-229.5 -62
q-101 0 -198 35.5t-154 107.5q-122 152 -122 452q0 243 35 383.5t95 224.5q51 71 146.5 116t209.5 47zM351 277q34 -54 67.5 -72t91.5 -18q103 0 159 139q19 42 33.5 139t15.5 175v17q0 232 -45 352q-52 138 -152 138q-49 0 -81 -21.5t-62 -74.5q-81 -143 -81 -459
q0 -88 13 -179.5t41 -135.5z" />
    <glyph glyph-name="uni022D" unicode="&#x22d;" 
d="M788 1708v-194h-17q-203 -7 -230 -7q-133 0 -235 3l-18 1v197l19 -2q97 -3 272 -3q33 0 102 2.5t90 2.5h17zM350 1462q60 0 107.5 -13.5t75.5 -33t50.5 -39t45 -33t46.5 -13.5q77 0 86 100l177 -54q-9 -41 -24.5 -76.5t-42.5 -71t-71.5 -56t-102.5 -20.5q-55 0 -99 13.5
t-71 32.5t-50 38t-48 32.5t-52 13.5q-32 0 -56.5 -27t-31.5 -73l-184 78q14 39 33 71.5t48 63.5t71.5 49t92.5 18zM625 247q60 66 60 283v16q-2 132 -39 208t-126 76q-107 0 -151.5 -90t-44.5 -258q0 -128 48 -206.5t136 -78.5q40 1 64.5 11.5t52.5 38.5zM507 -6
q-223 0 -329 124.5t-106 345.5q0 568 433 568q144 0 233.5 -49.5t143.5 -151.5q59 -114 59 -288q0 -74 -9 -140t-28 -129t-53 -113t-80.5 -88t-113 -58.5t-148.5 -20.5h-2z" />
    <glyph glyph-name="uni022E" unicode="&#x22e;" 
d="M366 1645h284l2 -246h-285zM522 1350q39 0 76 -5.5t84 -24t86.5 -48.5t79 -84t67 -125.5t45.5 -178.5t19 -237v-11q0 -124 -21.5 -235.5t-57.5 -183.5q-56 -109 -160.5 -171t-229.5 -62q-101 0 -198 35.5t-154 107.5q-122 152 -122 452q0 243 35 383.5t95 224.5
q51 71 146.5 116t209.5 47zM351 277q34 -54 67.5 -72t91.5 -18q103 0 159 139q19 42 33.5 139t15.5 175v17q0 232 -45 352q-52 138 -152 138q-49 0 -81 -21.5t-62 -74.5q-81 -143 -81 -459q0 -88 13 -179.5t41 -135.5z" />
    <glyph glyph-name="uni022F" unicode="&#x22f;" 
d="M361 1430h284l2 -246h-285zM625 247q60 66 60 283v16q-2 132 -39 208t-126 76q-107 0 -151.5 -90t-44.5 -258q0 -128 48 -206.5t136 -78.5q40 1 64.5 11.5t52.5 38.5zM507 -6q-223 0 -329 124.5t-106 345.5q0 568 433 568q144 0 233.5 -49.5t143.5 -151.5
q59 -114 59 -288q0 -74 -9 -140t-28 -129t-53 -113t-80.5 -88t-113 -58.5t-148.5 -20.5h-2z" />
    <glyph glyph-name="uni0230" unicode="&#x230;" 
d="M793 1902v-194h-17q-203 -7 -230 -7q-133 0 -235 3l-18 1v197l19 -2q97 -3 272 -3q33 0 102 2.5t90 2.5h17zM366 1645h284l2 -246h-285zM522 1350q39 0 76 -5.5t84 -24t86.5 -48.5t79 -84t67 -125.5t45.5 -178.5t19 -237v-11q0 -124 -21.5 -235.5t-57.5 -183.5
q-56 -109 -160.5 -171t-229.5 -62q-101 0 -198 35.5t-154 107.5q-122 152 -122 452q0 243 35 383.5t95 224.5q51 71 146.5 116t209.5 47zM351 277q34 -54 67.5 -72t91.5 -18q103 0 159 139q19 42 33.5 139t15.5 175v17q0 232 -45 352q-52 138 -152 138q-49 0 -81 -21.5
t-62 -74.5q-81 -143 -81 -459q0 -88 13 -179.5t41 -135.5z" />
    <glyph glyph-name="uni0231" unicode="&#x231;" 
d="M768 1708v-194h-17q-203 -7 -230 -7q-133 0 -235 3l-18 1v197l19 -2q97 -3 272 -3q33 0 102 2.5t90 2.5h17zM361 1430h284l2 -246h-285zM625 247q60 66 60 283v16q-2 132 -39 208t-126 76q-107 0 -151.5 -90t-44.5 -258q0 -128 48 -206.5t136 -78.5q40 1 64.5 11.5
t52.5 38.5zM507 -6q-223 0 -329 124.5t-106 345.5q0 568 433 568q144 0 233.5 -49.5t143.5 -151.5q59 -114 59 -288q0 -74 -9 -140t-28 -129t-53 -113t-80.5 -88t-113 -58.5t-148.5 -20.5h-2z" />
    <glyph glyph-name="uni0232" unicode="&#x232;" 
d="M762 1620v-194h-17q-203 -7 -230 -7q-133 0 -235 3l-18 1v197l19 -2q97 -3 272 -3q33 0 102 2.5t90 2.5h17zM368 0v138q0 42 3.5 226.5t3.5 248.5q-60 86 -191.5 307.5t-169.5 301.5l219 141q174 -344 278 -511q23 34 50.5 83.5t50 94.5t49 105t42 96t37 86.5t24.5 58.5
l228 -136q-39 -80 -178.5 -324t-188.5 -314q0 -23 -1 -73.5t-1 -78.5q-5 -225 -5 -322v-128h-250z" />
    <glyph glyph-name="uni0233" unicode="&#x233;" 
d="M752 1405v-194h-17q-203 -7 -230 -7q-133 0 -235 3l-18 1v197l19 -2q97 -3 272 -3q33 0 102 2.5t90 2.5h17zM352 -164q39 0 105 82t81 152q-134 301 -214 449t-125 190t-98 42q-34 0 -44 -1l-1 261q42 2 76 2q33 0 60 -5.5t52 -14.5t50 -31.5t47 -45.5t50 -68.5t52.5 -88
t61.5 -117t69 -142t83 -175.5q37 210 48 341.5t11 346.5h256q0 -136 -15 -266q-29 -249 -114.5 -521.5t-180.5 -399.5q-89 -119 -163 -160.5t-187 -41.5q-76 0 -131 33.5t-83.5 91t-41 118.5t-14.5 133h236q0 -164 74 -164z" />
    <glyph glyph-name="uni0237" unicode="&#x237;" 
d="M842 -78q0 -62 -18 -114t-57.5 -98t-114 -72.5t-177.5 -26.5q-53 0 -99 8t-101 31t-107.5 72t-97.5 122l164 148q60 -101 112.5 -140.5t105.5 -39.5h18q32 0 55 10t34.5 25t18 33.5t8 34.5t2.5 29v8v861q-114 0 -235 -28l-29 186q141 42 264 42h254v-1091z" />
    <glyph glyph-name="ring" unicode="&#x2da;" 
d="M521 1535q-38 0 -62 -18.5t-24 -43.5t24.5 -44t61.5 -19t61.5 19t24.5 44t-24 43.5t-62 18.5zM246 1473q0 86 81.5 145t194.5 59q112 0 193.5 -59t81.5 -145t-77.5 -140.5t-197.5 -54.5q-116 0 -196 55.5t-80 139.5z" />
    <glyph glyph-name="ogonek" unicode="&#x2db;" 
d="M821 107q-49 -62 -106.5 -108.5t-102 -70.5t-83 -44.5t-59.5 -41.5t-21 -49q0 -57 120 -57q58 0 128 51l124 -141q-36 -39 -113.5 -72.5t-148.5 -33.5q-73 0 -134 12t-113.5 39t-82.5 76t-30 117q0 56 25.5 94.5t69.5 63t92 44.5t104.5 51.5t94.5 70.5z" />
    <glyph glyph-name="gravecomb" unicode="&#x300;" 
d="M759 1267l-90 -174q-119 39 -258.5 115.5t-217.5 154.5l134 172q89 -83 208 -158t224 -110z" />
    <glyph glyph-name="acutecomb" unicode="&#x301;" 
d="M199 1267q105 35 224 110t208 158l134 -172q-78 -78 -217.5 -154.5t-258.5 -115.5z" />
    <glyph glyph-name="uni0302" unicode="&#x302;" 
d="M519 1602l378 -291l-138 -156l-240 201l-229 -197l-140 146z" />
    <glyph glyph-name="tildecomb" unicode="&#x303;" 
d="M339 1462q60 0 107.5 -13.5t75.5 -33t50.5 -39t45 -33t46.5 -13.5q77 0 86 100l177 -54q-9 -41 -24.5 -76.5t-42.5 -71t-71.5 -56t-102.5 -20.5q-55 0 -99 13.5t-71 32.5t-50 38t-48 32.5t-52 13.5q-32 0 -56.5 -27t-31.5 -73l-184 78q14 39 33 71.5t48 63.5t71.5 49
t92.5 18z" />
    <glyph glyph-name="uni0304" unicode="&#x304;" 
d="M738 1483v-194h-17q-203 -7 -230 -7q-133 0 -235 3l-18 1v197l19 -2q97 -3 272 -3q33 0 102 2.5t90 2.5h17z" />
    <glyph glyph-name="uni0305" unicode="&#x305;" 
d="M879 1484v-201l-792 1v203z" />
    <glyph glyph-name="uni0306" unicode="&#x306;" 
d="M510 1334q79 0 127 40t53 101l219 -30q-19 -137 -118.5 -215.5t-274.5 -78.5q-174 0 -272 69.5t-133 233.5l219 30q35 -150 180 -150z" />
    <glyph glyph-name="uni0307" unicode="&#x307;" 
d="M310 1430h284l2 -246h-285z" />
    <glyph glyph-name="uni0308" unicode="&#x308;" 
d="M566 1424l282 -3v-238l-282 1v240zM146 1424h279v-240h-279v240z" />
    <glyph glyph-name="hookabovecomb" unicode="&#x309;" 
 />
    <glyph glyph-name="uni030A" unicode="&#x30a;" 
d="M521 1535q-38 0 -62 -18.5t-24 -43.5t24.5 -44t61.5 -19t61.5 19t24.5 44t-24 43.5t-62 18.5zM246 1473q0 86 81.5 145t194.5 59q112 0 193.5 -59t81.5 -145t-77.5 -140.5t-197.5 -54.5q-116 0 -196 55.5t-80 139.5z" />
    <glyph glyph-name="uni030B" unicode="&#x30b;" 
d="M471 1286q83 67 163 177.5t137 224.5l201 -127q-45 -100 -150 -219.5t-204 -198.5zM88 1293q83 67 163 177.5t137 224.5l200 -127q-45 -101 -149.5 -220t-203.5 -198z" />
    <glyph glyph-name="uni030C" unicode="&#x30c;" 
d="M522 1206l-366 297l144 138l222 -189l240 201l138 -156z" />
    <glyph glyph-name="uni030D" unicode="&#x30d;" 
 />
    <glyph glyph-name="uni030E" unicode="&#x30e;" 
 />
    <glyph glyph-name="uni030F" unicode="&#x30f;" 
d="M578 1313l-148 -143q-99 79 -203.5 198t-149.5 220l201 127q57 -114 137 -224.5t163 -177.5zM961 1320l-147 -142q-99 79 -204 198.5t-150 219.5l201 126q57 -114 137 -224.5t163 -177.5z" />
    <glyph glyph-name="uni0310" unicode="&#x310;" 
 />
    <glyph glyph-name="uni0311" unicode="&#x311;" 
d="M520 1508q-145 0 -180 -150l-219 30q35 164 133 233.5t272 69.5q175 0 274.5 -78.5t118.5 -215.5l-219 -30q-5 61 -53 101t-127 40z" />
    <glyph glyph-name="uni0312" unicode="&#x312;" 
d="M287 1283q22 64 58.5 194.5t50.5 177.5l190 -33q-21 -165 -66 -386z" />
    <glyph glyph-name="uni0313" unicode="&#x313;" 
d="M438 1597h220v-215q0 -109 -47.5 -174t-148.5 -109l-53 127q49 23 67.5 51.5t18.5 98.5h-57v221z" />
    <glyph glyph-name="uni0314" unicode="&#x314;" 
d="M641 1597v-221h-57q0 -70 18.5 -98.5t67.5 -51.5l-53 -127q-101 44 -148.5 109t-47.5 174v215h220z" />
    <glyph glyph-name="uni0326" unicode="&#x326;" 
d="M390 4h270v-215q0 -114 -31 -177.5t-125 -139.5l-134 125q43 34 59.5 70.5t16.5 115.5h-56v221z" />
    <glyph glyph-name="uni0327" unicode="&#x327;" 
d="M672 56q-2 -16 -2 -75q78 -4 131 -49.5t53 -126.5q0 -95 -75.5 -149t-196.5 -54q-53 0 -113.5 14t-100.5 40l60 148q55 -30 128 -30q70 0 74 50v2q0 23 -19 39t-53 16q-75 0 -109 -12v188z" />
    <glyph glyph-name="uni0328" unicode="&#x328;" 
d="M821 107q-49 -62 -106.5 -108.5t-102 -70.5t-83 -44.5t-59.5 -41.5t-21 -49q0 -57 120 -57q58 0 128 51l124 -141q-36 -39 -113.5 -72.5t-148.5 -33.5q-73 0 -134 12t-113.5 39t-82.5 76t-30 117q0 56 25.5 94.5t69.5 63t92 44.5t104.5 51.5t94.5 70.5z" />
    <glyph glyph-name="tonos" unicode="&#x384;" 
d="M326 1334q67 83 96.5 150t61.5 192l236 -54q-41 -193 -211 -400z" />
    <glyph glyph-name="dieresistonos" unicode="&#x385;" 
d="M329.023 1453.5q62.0723 76.373 89.4023 138.024q27.3311 61.6514 56.9775 176.672l218.643 -49.6885q-37.9844 -177.593 -195.481 -368.066zM566 1377.58l282 -2.56055v-203.166l-282 0.853516v204.873zM146 1377.58h279v-204.873h-279v204.873z" />
    <glyph glyph-name="Alphatonos" unicode="&#x386;" 
d="M29 1301q67 83 96.5 150t61.5 192l236 -54q-41 -193 -211 -400zM651 504q-8 47 -66.5 226.5t-59.5 267.5q-3 -75 -27 -167t-61.5 -198t-48.5 -147q27 6 71 9t106 5.5t86 3.5zM418 1325h224l334 -1081q50 -169 50 -244h-276q0 79 -25 167l-32 114q-23 0 -69.5 -1
t-65.5 -1.5t-54 -2t-57 -4.5t-52 -8t-59 -12l-30 -90q-36 -111 -40 -162h-260q5 71 54 223z" />
    <glyph glyph-name="anoteleia" unicode="&#x387;" 
d="M428 700h315v-313h-315v313z" />
    <glyph glyph-name="Epsilontonos" unicode="&#x388;" 
d="M-87.542 1309q53.5293 83 77.0986 150q23.5684 67 49.1348 192l188.553 -54q-32.7568 -193 -168.578 -400zM272.233 1319q49.54 4 180.468 4h86.6953h97.3105q74.3096 0 183.563 -1.5q109.253 -1.5 134.023 -1.5h14.1543v-202h-467.977v-269h299.01v-203h-299.01v-31
q0 -119 -0.884766 -253t-0.884766 -158l368.012 2q22.1162 0 49.54 7t44.2324 13l16.8086 7l63.6943 -199q-7.96191 -2 -30.5205 -10t-36.2705 -12t-41.1357 -8t-57.502 -4h-603.327v1319z" />
    <glyph glyph-name="Etatonos" unicode="&#x389;" 
d="M-14.0391 1345q52.6055 83 75.7676 150t48.2871 192l185.297 -54q-32.1914 -193 -165.668 -400zM484.56 1322l-0.901367 -537q114.404 29 245.022 29h78.3711q0 154 -0.450195 294.5t-0.450195 208.5h230.609v-1317h-229.709v599h-28.8262q-104.494 0 -161.246 -5
t-133.321 -24q0 -196 0.901367 -347q0.900391 -151 0.900391 -223h-232.411v1320z" />
    <glyph glyph-name="Iotatonos" unicode="&#x38a;" 
d="M11.1328 1327q56.1338 83 80.8506 150q24.7158 67 51.5264 192l197.728 -54q-34.3506 -193 -176.782 -400zM309 1324q195 5 353 5q123 0 368 -3l-1 -211q-65 0 -125.5 2.5t-104.5 2.5v-901q22 0 39 0.5t43 0.5q75 0 144 -4l1 -217q-102 6 -210 6q-22 0 -73 -0.5t-82 -0.5
q-27 0 -144.5 -3.5t-205.5 -3.5v216q106 5 180 5h52v901q-142 -2 -228 -7z" />
    <glyph glyph-name="Omicrontonos" unicode="&#x38c;" 
d="M-14.8496 1306q52.2334 83 75.2314 150t47.9453 192l183.986 -54q-31.9639 -193 -164.496 -400zM584.385 1350q37.0859 0 72.2695 -5.5q35.1846 -5.5 79.8789 -24q44.6934 -18.5 82.2549 -48.5t75.123 -84t63.7119 -125.5t43.2676 -178.5t18.0674 -237v-11
q0 -124 -20.4443 -235.5q-20.4453 -111.5 -54.6787 -183.5q-53.252 -109 -152.624 -171t-218.238 -62q-96.043 0 -188.283 35.5t-146.443 107.5q-116.013 152 -116.013 452q0 243 33.2822 383.5q33.2832 140.5 90.3379 224.5q48.498 71 139.312 116t199.22 47zM421.775 277
q32.332 -54 64.1875 -72q31.8564 -18 87.0098 -18q97.9463 0 151.198 139q18.0674 42 31.8555 139q13.7891 97 14.7393 175v17q0 232 -42.791 352q-49.4482 138 -144.541 138q-46.5957 0 -77.0254 -21.5t-58.957 -74.5q-77.0254 -143 -77.0254 -459q0 -88 12.3613 -179.5
q12.3623 -91.5 38.9883 -135.5z" />
    <glyph glyph-name="Upsilontonos" unicode="&#x38e;" 
d="M-21.7852 1309q52.041 83 74.9551 150t47.7695 192l183.309 -54q-31.8457 -193 -163.891 -400zM528.283 0v138q0 42 3.01758 226.5t3.01758 248.5q-51.7305 86 -165.107 307.5t-146.141 301.5l188.818 141q150.02 -344 239.687 -511q19.8301 34 43.54 83.5t43.1094 94.5
t42.2471 105t36.2119 96q13.3633 36 31.9004 86.5t21.123 58.5l196.578 -136q-33.625 -80 -153.899 -324t-162.521 -314q0 -23 -0.862305 -73.5t-0.862305 -78.5q-4.31055 -225 -4.31055 -322v-128h-215.546z" />
    <glyph glyph-name="Omegatonos" unicode="&#x38f;" 
d="M-21.7852 1309q52.041 83 74.9551 150t47.7695 192l183.309 -54q-31.8457 -193 -163.891 -400zM468.766 1h-346.074l-1.83984 216h161.071q-40.498 45 -65.8096 81.5q-25.3105 36.5 -53.8438 98.5t-42.7988 148q-14.2666 86 -14.2666 197q0 144 37.7373 258
q37.7363 114 104.466 187t154.629 111t190.065 38q71.791 0 136.221 -18q64.4277 -18 126.556 -62t106.308 -111.5t71.332 -174t27.1523 -242.5v-12q0 -44 -3.22168 -84t-12.8857 -77t-16.5674 -64t-24.3916 -60q-17.4873 -33 -25.3105 -50q-7.82422 -17 -30.834 -48
t-28.9932 -39.5q-5.98242 -8.5 -32.2139 -40.5q-26.2324 -32 -28.9932 -36l76.3936 1q23.9316 0 52.4639 7t44.1797 14l16.5674 7l42.3389 -213q-10.124 -3 -31.7539 -10.5t-34.0557 -11.5t-34.9756 -7.5t-47.4014 -3.5h-5.52148h-259.557l-43.2588 211
q30.374 33 51.543 59.5t49.2422 73.5q28.0723 47 44.6396 96t28.9932 122q12.4248 73 12.4248 156v19q0 96 -24.8506 181.5t-77.3145 143t-121.494 57.5q-104.927 0 -174.418 -100t-69.4912 -279q0 -193 34.0557 -295.5t136.221 -229.5z" />
    <glyph glyph-name="iotadieresistonos" unicode="&#x390;" 
d="M326.023 1460.5q62.0723 76.373 89.4023 138.024q27.3311 61.6514 56.9775 176.672l218.643 -49.6885q-37.9844 -177.593 -195.481 -368.066zM563 1384.58l282 -2.56055v-203.166l-282 0.853516v204.873zM143 1384.58h279v-204.873h-279v204.873zM364 1013h255l1 -717
q0 -49 24.5 -80.5t67.5 -31.5q50 0 82 35t50 116l205 -88q-51 -143 -136 -204t-235 -61q-71 0 -132 16.5t-90 41.5q-47 41 -69.5 97t-22.5 147v529q-113 0 -234 -28l-29 186q141 42 263 42z" />
    <glyph glyph-name="Alpha" unicode="&#x391;" 
d="M651 504q-8 47 -66.5 226.5t-59.5 267.5q-3 -75 -27 -167t-61.5 -198t-48.5 -147q27 6 71 9t106 5.5t86 3.5zM418 1325h224l334 -1081q50 -169 50 -244h-276q0 79 -25 167l-32 114q-23 0 -69.5 -1t-65.5 -1.5t-54 -2t-57 -4.5t-52 -8t-59 -12l-30 -90q-36 -111 -40 -162
h-260q5 71 54 223z" />
    <glyph glyph-name="Beta" unicode="&#x392;" 
d="M66 837q0 298 -12 471q230 17 336 17h18q176 0 278.5 -76.5t102.5 -234.5q0 -99 -31 -147.5t-96 -83.5q307 -85 307 -375q0 -364 -343 -405q-62 -8 -119 -8q-36 0 -104.5 2.5t-112.5 2.5h-38h-194q0 71 4 334t4 503zM531 1012q0 38 -13 62.5t-34 34t-34.5 12t-27.5 2.5
h-4h-16q-36 0 -86 -5q3 -35 3 -114q0 -26 -0.5 -83t-0.5 -87h38q27 0 47 2.5t45.5 12t42.5 27t28.5 50.5t11.5 78v8zM479 638q-21 0 -50 -1t-69 -1h-44q-3 -355 -4 -438q98 -6 126 -6q42 0 95 6q14 2 31.5 7t45 20.5t48.5 38.5t37 64t16 92q0 218 -232 218z" />
    <glyph glyph-name="Gamma" unicode="&#x393;" 
d="M149 1328h683q84 0 184 -34l-71 -197q-52 18 -115 21h-427v-1118h-254v1328z" />
    <glyph glyph-name="Delta" unicode="&#x394;" 
d="M698 199q-3 16 -92 362.5t-90 436.5q-3 -74 -42 -228t-100.5 -357.5t-64.5 -213.5h389zM149 0l-158 38l419 1287h223l379 -1283l-137 -42h-726z" />
    <glyph glyph-name="Epsilon" unicode="&#x395;" 
d="M102 1319q56 4 204 4h98h110q84 0 207.5 -1.5t151.5 -1.5h16v-202h-529v-269h338v-203h-338v-31q0 -119 -1 -253t-1 -158l416 2q25 0 56 7t50 13l19 7l72 -199q-9 -2 -34.5 -10t-41 -12t-46.5 -8t-65 -4h-682v1319z" />
    <glyph glyph-name="Zeta" unicode="&#x396;" 
d="M123 0l-95 136l644 983q-120 0 -329 -2.5t-254 -2.5l-1 210q52 0 340 2t390 2q26 0 51 -2t39.5 -4.5t30.5 -6t19 -3.5v-7q0 -20 8 -91.5t8 -87.5v-8l-578 -901l354 -1q62 0 94.5 5t82.5 21l71 -215q-76 -27 -189 -27h-679h-7z" />
    <glyph glyph-name="Eta" unicode="&#x397;" 
d="M317 1322l-1 -537q127 29 272 29h87q0 154 -0.5 294.5t-0.5 208.5h256v-1317h-255v599h-32q-116 0 -179 -5t-148 -24q0 -196 1 -347t1 -223h-258v1320z" />
    <glyph glyph-name="Theta" unicode="&#x398;" 
d="M539 1350q41 0 78.5 -5.5t86 -24t89.5 -48.5t82 -84t69.5 -125.5t47 -178.5t19.5 -237v-11q0 -124 -22 -235.5t-59 -183.5q-58 -109 -166.5 -171t-237.5 -62q-104 0 -204.5 35.5t-159.5 107.5q-126 152 -126 452q0 243 36 383.5t98 224.5q53 71 151.5 116t217.5 47z
M362 277q35 -54 70 -72t94 -18q107 0 165 139q20 42 34.5 138t16.5 176v17q0 230 -47 352q-53 138 -157 138q-51 0 -84 -21.5t-64 -74.5q-84 -142 -84 -459q0 -89 13.5 -180t42.5 -135zM364 818h320v-203h-320v203z" />
    <glyph glyph-name="Iota" unicode="&#x399;" 
d="M132 1324q195 5 353 5q123 0 368 -3l-1 -211q-65 0 -125.5 2.5t-104.5 2.5v-901q22 0 39 0.5t43 0.5q75 0 144 -4l1 -217q-102 6 -210 6q-22 0 -73 -0.5t-82 -0.5q-27 0 -144.5 -3.5t-205.5 -3.5v216q106 5 180 5h52v901q-142 -2 -228 -7z" />
    <glyph glyph-name="Kappa" unicode="&#x39a;" 
d="M588 782q90 -89 255 -337t203 -351l-236 -126q-43 103 -168.5 311t-213.5 295q-56 -62 -86 -134v-440h-258v1335h258v-464q101 142 464 505l196 -177q-190 -141 -414 -417z" />
    <glyph glyph-name="Lambda" unicode="&#x39b;" 
d="M379 486l-144 -513l-244 65l419 1287h223l379 -1283l-259 -63l-125 525q-10 53 -39 150t-51 187t-22 157q-3 -75 -27 -167t-61.5 -198t-48.5 -147z" />
    <glyph glyph-name="Mu" unicode="&#x39c;" 
d="M62 1323h204q62 -93 127 -225t109 -264q66 224 228 489h216l2 -1323h-247l-2 596q0 46 6.5 121.5t12.5 128.5l6 52q-42 -81 -87 -194t-57 -153l-150 -2q-102 268 -150 349q32 -189 32 -302v-596h-250v1323z" />
    <glyph glyph-name="Nu" unicode="&#x39d;" 
d="M691 0q-66 189 -166.5 398.5t-204.5 379.5v-208q0 -168 0.5 -341t0.5 -232h-246v1328l211 -7q75 -111 152.5 -243t156 -297.5t101.5 -273.5l-7 274q0 319 12 551l244 -1q-8 -153 -8 -433q0 -115 2 -361t2 -364q0 -30 -0.5 -87t-0.5 -83h-249z" />
    <glyph glyph-name="Xi" unicode="&#x39e;" 
d="M312 849h377v-203h-377v203zM93 1319q56 4 204 4h98h111q84 0 207.5 -1.5t151.5 -1.5h15v-202h-790zM93 201l673 2q25 0 56 6.5t50 13.5l18 7l73 -199q-9 -2 -35 -10t-41.5 -12t-46.5 -8t-65 -4h-682v204z" />
    <glyph glyph-name="Omicron" unicode="&#x39f;" 
d="M522 1350q39 0 76 -5.5t84 -24t86.5 -48.5t79 -84t67 -125.5t45.5 -178.5t19 -237v-11q0 -124 -21.5 -235.5t-57.5 -183.5q-56 -109 -160.5 -171t-229.5 -62q-101 0 -198 35.5t-154 107.5q-122 152 -122 452q0 243 35 383.5t95 224.5q51 71 146.5 116t209.5 47zM351 277
q34 -54 67.5 -72t91.5 -18q103 0 159 139q19 42 33.5 139t15.5 175v17q0 232 -45 352q-52 138 -152 138q-49 0 -81 -21.5t-62 -74.5q-81 -143 -81 -459q0 -88 13 -179.5t41 -135.5z" />
    <glyph glyph-name="Pi" unicode="&#x3a0;" 
d="M385 0h-255v1087q-35 -5 -86 -15l-43 194q131 30 330 30h676v-196h-103v-722q0 -168 24 -369l-250 -13q-28 178 -28 388v716h-143q-82 0 -120 -1z" />
    <glyph glyph-name="Rho" unicode="&#x3a1;" 
d="M714 909q0 49 -8.5 86t-25.5 59t-34 35.5t-43.5 19t-43.5 7t-44 1.5h-9q-35 0 -86 -2.5t-64 -2.5v-71l-2 -392q72 -2 104 -2q40 0 72 4.5t68 21t60 43.5t40 76.5t16 116.5zM354 0h-250v1320q57 0 139 4t150 4q97 0 161 -4.5t133.5 -19.5t122 -47t94.5 -83q72 -88 72 -250
q0 -249 -108 -367t-360 -118q-73 0 -154 3v-442z" />
    <glyph glyph-name="Sigma" unicode="&#x3a3;" 
d="M534 658l-475 476l117 188q23 2 60 2q12 0 46.5 -0.5t60.5 -0.5h98h111q83 0 207 -1.5t152 -1.5h15v-202h-505l390 -392l-7 -160l-376 -365q64 1 192 1.5t192 0.5q25 0 56 6.5t50 13.5l18 7l73 -199q-9 -2 -35 -10t-41.5 -12t-46.5 -8t-65 -4l-645 3l-117 183z" />
    <glyph glyph-name="Tau" unicode="&#x3a4;" 
d="M355 0v1118q-114 0 -203.5 -0.5t-112.5 -0.5v207q53 0 357.5 0.5t406.5 0.5q112 0 167 -16l-60 -203q-52 12 -112 12h-183v-1118h-260z" />
    <glyph glyph-name="Upsilon" unicode="&#x3a5;" 
d="M368 0v138q0 42 3.5 226.5t3.5 248.5q-60 86 -191.5 307.5t-169.5 301.5l219 141q174 -344 278 -511q23 34 50.5 83.5t50 94.5t49 105t42 96t37 86.5t24.5 58.5l228 -136q-39 -80 -178.5 -324t-188.5 -314q0 -23 -1 -73.5t-1 -78.5q-5 -225 -5 -322v-128h-250z" />
    <glyph glyph-name="Phi" unicode="&#x3a6;" 
d="M364 352v584q-10 -8 -15 -13q-108 -99 -108 -322q0 -56 20.5 -119.5t56.5 -96.5q18 -18 46 -33zM651 344q52 26 86 71q26 29 45 97t20 123v12q0 151 -65 242q-37 52 -88 78q2 -342 2 -575v-48zM365 146q-137 29 -208 94q-145 133 -145 348q0 184 42.5 292t110.5 177
t199 103v157h284v-143q56 -9 105.5 -28t101.5 -59t89.5 -96t62 -146t25.5 -204v-9q0 -91 -27.5 -177t-68.5 -146q-44 -63 -118 -106.5t-167 -61.5q0 -79 -6 -141l-285 1q5 89 5 145z" />
    <glyph glyph-name="Chi" unicode="&#x3a7;" 
d="M789 1371l208 -117l-346 -566q64 -102 130.5 -229t114.5 -206t111 -141l-166 -157q-69 68 -111.5 129t-105.5 176t-111 194l-284 -508l-210 132l346 592q-75 130 -120 204.5t-112.5 171.5t-133.5 172l191 155q31 -36 63 -78t52 -70t55 -84.5t46 -74t52.5 -89t48.5 -82.5z
" />
    <glyph glyph-name="Psi" unicode="&#x3a8;" 
d="M46 839v182q0 315 -24 391l251 29q20 -87 20 -391v-127q0 -49 1 -77.5t5 -64t13 -54.5t24.5 -37.5t39.5 -26t57 -7.5q5 600 5 669v102l235 1v-158q0 -268 -3 -614q95 0 117 89t22 376q-2 179 -14 294l257 18q14 -125 14 -271v-37q0 -90 -1 -140.5t-5.5 -126t-15.5 -118.5
t-28.5 -98t-46 -85.5t-68 -59.5t-95 -41.5t-125.5 -12.5q-4 -303 -7 -443h-249q5 85 5 299v141q-79 0 -144.5 22.5t-109 60t-73.5 89t-43.5 108.5t-13.5 119z" />
    <glyph glyph-name="Omega" unicode="&#x3a9;" 
d="M405 1h-376l-2 216h175q-44 45 -71.5 81.5t-58.5 98.5t-46.5 148t-15.5 197q0 144 41 258t113.5 187t168 111t206.5 38q78 0 148 -18t137.5 -62t115.5 -111.5t77.5 -174t29.5 -242.5v-12q0 -44 -3.5 -84t-14 -77t-18 -64t-26.5 -60t-27.5 -50t-33.5 -48t-31.5 -39.5
t-35 -40.5t-31.5 -36l83 1q26 0 57 7t48 14l18 7l46 -213q-11 -3 -34.5 -10.5t-37 -11.5t-38 -7.5t-51.5 -3.5h-6h-282l-47 211q33 33 56 59.5t53.5 73.5t48.5 96t31.5 122t13.5 156v19q0 96 -27 181.5t-84 143t-132 57.5q-114 0 -189.5 -100t-75.5 -279q0 -193 37 -295.5
t148 -229.5z" />
    <glyph glyph-name="Iotadieresis" unicode="&#x3aa;" 
d="M554 1713l282 -3v-238l-282 1v240zM134 1713h279v-240h-279v240zM132 1324q195 5 353 5q123 0 368 -3l-1 -211q-65 0 -125.5 2.5t-104.5 2.5v-901q22 0 39 0.5t43 0.5q75 0 144 -4l1 -217q-102 6 -210 6q-22 0 -73 -0.5t-82 -0.5q-27 0 -144.5 -3.5t-205.5 -3.5v216
q106 5 180 5h52v901q-142 -2 -228 -7z" />
    <glyph glyph-name="Upsilondieresis" unicode="&#x3ab;" 
d="M583 1638l282 -3v-238l-282 1v240zM163 1638h279v-240h-279v240zM368 0v138q0 42 3.5 226.5t3.5 248.5q-60 86 -191.5 307.5t-169.5 301.5l219 141q174 -344 278 -511q23 34 50.5 83.5t50 94.5t49 105t42 96t37 86.5t24.5 58.5l228 -136q-39 -80 -178.5 -324t-188.5 -314
q0 -23 -1 -73.5t-1 -78.5q-5 -225 -5 -322v-128h-250z" />
    <glyph glyph-name="alphatonos" unicode="&#x3ac;" 
d="M391 1244q67 83 96.5 150t61.5 192l236 -54q-41 -193 -211 -400zM850 493q10 -33 27.5 -105t35.5 -125q14 -42 40 -66t77 -44l-102 -185q-87 22 -136 72.5t-66 106.5q-14 46 -21 68q-51 -115 -112.5 -168.5t-156.5 -53.5q-84 0 -150.5 30t-109 80.5t-71 120t-40.5 144.5
t-12 159q0 132 31.5 230.5t85.5 153.5t116 81t131 26q119 0 190 -64t109 -187q11 35 26 88.5t28.5 97t29.5 84.5l220 -70q-11 -21 -21 -43t-21 -49.5t-19 -48t-19.5 -54.5t-18 -52.5t-19 -58t-17 -54.5t-18.5 -59t-17 -55zM306 524q0 -90 13 -156t29 -97t38 -49t32 -20.5
t18 -2.5h8q37 0 68 76t65 220q-38 178 -68.5 249t-81.5 71q-44 0 -82.5 -75t-38.5 -216z" />
    <glyph glyph-name="epsilontonos" unicode="&#x3ad;" 
d="M431 1244q67 83 96.5 150t61.5 192l236 -54q-41 -193 -211 -400zM1051 138q-71 -53 -193 -97.5t-271 -44.5q-139 0 -217 16.5t-133 60.5q-55 43 -87.5 109.5t-32.5 118.5q0 105 51 181t159 102q-108 12 -159.5 68.5t-51.5 136.5q0 45 18 81.5t50.5 61.5t75 43.5
t94.5 28.5t105 15t111 5h13q105 0 193.5 -17t121.5 -31t50 -25l-68 -176q-23 14 -117 32t-191 18q-94 0 -141 -13.5t-47 -50.5q0 -33 61 -56t129 -31.5t127 -8.5h7h5h18v-197q-13 0 -39 0.5t-39 0.5q-148 0 -209 -38.5t-61 -124.5q0 -45 53 -79t176 -34q114 0 197 30t129 72
z" />
    <glyph glyph-name="etatonos" unicode="&#x3ae;" 
d="M404 1244q67 83 96.5 150t61.5 192l236 -54q-41 -193 -211 -400zM953 296l1 -357q0 -54 9.5 -135.5t22.5 -115.5l-238 -62q-4 15 -14.5 56.5t-16 67t-11 75.5t-5.5 107v278l-1 507q0 56 -21 79t-71 23t-118 -29.5t-129 -82.5l1 -707h-252v706q0 87 -3.5 138.5t-8.5 76.5
t-20 83l232 48q31 -74 38 -125q44 39 130 69t166 30q65 0 118 -10.5t97.5 -33.5t69 -66t24.5 -102v-518z" />
    </font>
</defs>
</svg>
